<svg width="106" height="131" viewBox="0 0 106 131" fill="none" xmlns="http://www.w3.org/2000/svg">
<path fill-rule="evenodd" clip-rule="evenodd" d="M39.832 99.1538C40.2292 84.1431 34.119 69.1739 20.7217 60.1396C15.5338 56.6412 9.38805 55.3675 3.33551 54.3089C27.9242 53.4654 36.4606 27.7301 39.8819 7.80762C38.6938 25.6756 48.0356 44.9756 67.1264 46.7566C48.122 57.9369 41.5994 78.453 39.832 99.1538Z" fill="#FCD569" stroke="#181B0E" stroke-width="6" stroke-miterlimit="1.5" stroke-linecap="round" stroke-linejoin="round"/>
<path fill-rule="evenodd" clip-rule="evenodd" d="M81.6483 128C81.92 117.73 77.7394 107.487 68.5728 101.306C65.0232 98.9124 60.8182 98.041 56.677 97.3167C73.5008 96.7395 79.3415 79.1312 81.6825 65.5C80.8695 77.7255 87.2613 90.9307 100.323 92.1493C87.3204 99.799 82.8576 113.836 81.6483 128Z" fill="#FCD569" stroke="#181B0E" stroke-width="5" stroke-miterlimit="1.5" stroke-linecap="round" stroke-linejoin="round"/>
<path fill-rule="evenodd" clip-rule="evenodd" d="M88.2493 51.0769C88.4584 43.1766 85.2425 35.298 78.1912 30.5431C75.4608 28.7019 72.2262 28.0315 69.0406 27.4744C81.9821 27.0304 86.4749 13.4855 88.2756 3C87.6503 12.4042 92.567 22.5621 102.615 23.4995C92.6125 29.3838 89.1796 40.1818 88.2493 51.0769Z" fill="#FCD569" stroke="#181B0E" stroke-width="5" stroke-miterlimit="1.5" stroke-linecap="round" stroke-linejoin="round"/>
</svg>
