<svg width="254" height="282" viewBox="0 0 254 282" fill="none" xmlns="http://www.w3.org/2000/svg">
<path d="M156.072 152.233C154.885 152.738 154.063 153.247 155.358 154.633L155.361 154.681C156.882 155.762 158.691 155.489 160.425 155.197C166.043 154.183 171.37 152.196 176.67 150.219L176.915 150.127C180.056 148.928 180.882 149.757 180.239 152.955C179.205 158.242 179.562 163.62 180.304 168.929C180.361 169.33 180.37 169.797 180.378 170.279C180.408 171.882 180.44 173.652 182.259 173.755C184.02 173.842 184.256 172.107 184.47 170.537C184.534 170.063 184.597 169.604 184.698 169.215C185.402 166.516 185.754 163.746 186.106 160.973C186.582 157.226 187.059 153.474 188.405 149.889C189.332 147.405 190.18 144.803 188.008 142.543C185.656 140.123 182.863 141.035 180.32 142.079C175.07 144.22 169.834 146.432 164.602 148.642C161.758 149.843 158.915 151.044 156.072 152.233Z" fill="#181B0E"/>
<path fill-rule="evenodd" clip-rule="evenodd" d="M147.065 188.542C143.232 196.76 139.123 204.824 132.845 211.551L132.896 211.597C132.683 211.836 132.467 212.073 132.251 212.309C131.818 212.782 131.386 213.255 130.977 213.749C120.13 226.888 103.15 225.127 92.6091 214.343C90.67 212.337 90.0471 211.229 93.4816 210.475C97.2783 209.677 100.734 208.021 103.994 205.915C114.335 199.225 117.538 186.811 111.711 175.954C105.119 163.634 89.7262 162.828 81.5255 174.188C75.1277 183.062 74.3127 192.593 77.1355 202.793C78.4518 207.509 78.323 207.808 73.4052 206.871C53.4174 203.116 36.8692 193.184 22.8798 178.68C22.4715 178.253 22.0286 177.719 21.5683 177.164C19.9869 175.255 18.2006 173.099 16.909 174.228C14.7455 176.112 17.049 178.652 18.7961 180.578C19.0504 180.858 19.2928 181.126 19.508 181.376C34.2551 198.488 52.8446 208.815 75.2833 211.629C79.5459 212.165 82.3471 213.514 85.0713 216.91C94.9231 229.241 115.711 238.034 133.43 222.608C142.673 214.569 148.907 204.537 154.301 193.847C158.822 184.908 163.398 176.064 170.11 168.436C173.238 164.879 176.024 160.878 178.109 156.529C178.157 156.425 178.208 156.32 178.261 156.214C178.636 155.448 179.04 154.627 178.084 153.976C177.324 153.436 176.519 153.822 175.82 154.348C175.446 154.612 175.069 154.874 174.693 155.136C173.939 155.66 173.185 156.184 172.454 156.728C161.238 165.121 152.952 175.854 147.065 188.542ZM105.246 178.145C109.599 184.926 109.145 193.123 104.113 198.662C99.872 202.744 94.8379 205.291 89.0417 206.423C87.5014 206.704 86.524 206.201 85.7133 204.787C80.9427 196.668 82.5734 183.127 89.1705 176.454C94.1825 171.403 101.399 172.137 105.246 178.145Z" fill="#181B0E"/>
<path d="M224.482 76.6088C220.011 57.862 190.887 54.9642 182.547 72.4675C177.516 83.0291 185.969 93.2137 184.865 103.946L208.409 109.438C209.752 106.812 211.933 103.827 213.384 102.017C216.399 98.2573 219.911 96.1597 222.102 91.6919C224.185 87.4407 225.546 81.0677 224.482 76.6088Z" fill="#FCD569" stroke="#181B0E" stroke-width="5.16299" stroke-miterlimit="1.5" stroke-linecap="round" stroke-linejoin="round"/>
<path fill-rule="evenodd" clip-rule="evenodd" d="M181.119 118.049C181.863 114.832 182.455 111.579 183.261 108.377C183.58 107.109 183.726 105.501 185.035 104.868C186.947 103.944 189.385 104.313 191.393 104.731C195.156 105.514 198.92 106.425 202.665 107.307C204.37 107.708 206.985 108.005 208.325 109.212C209.601 110.359 209.46 112.641 209.278 114.162C208.931 117.078 208.291 123.619 205.365 125.256C203.522 126.288 201.085 126.025 199.083 125.81C193.773 125.241 180.218 121.947 181.119 118.049Z" stroke="#181B0E" stroke-width="5.16299" stroke-miterlimit="1.5" stroke-linecap="round" stroke-linejoin="round"/>
<path d="M194.023 124.919C193.656 126.679 193.267 128.443 192.721 130.158" stroke="#181B0E" stroke-width="5.16299" stroke-miterlimit="1.5" stroke-linecap="round" stroke-linejoin="round"/>
<path d="M159.434 88.6752C161.496 88.1343 163.6 87.7843 165.673 87.2902" stroke="#181B0E" stroke-width="5.16299" stroke-miterlimit="1.5" stroke-linecap="round" stroke-linejoin="round"/>
<path d="M168.221 51.0059C169.967 52.7858 171.592 54.6818 173.346 56.4516" stroke="#181B0E" stroke-width="5.16299" stroke-miterlimit="1.5" stroke-linecap="round" stroke-linejoin="round"/>
<path d="M212.283 45.0148C212.812 42.4198 213.425 39.8639 214.109 37.3059" stroke="#181B0E" stroke-width="5.16299" stroke-miterlimit="1.5" stroke-linecap="round" stroke-linejoin="round"/>
<path d="M239.921 69.9792C242.892 68.8761 245.915 67.8939 248.914 66.8694" stroke="#181B0E" stroke-width="5.16299" stroke-miterlimit="1.5" stroke-linecap="round" stroke-linejoin="round"/>
<path d="M227.236 104.063C228.805 106.305 230.388 108.527 231.878 110.823" stroke="#181B0E" stroke-width="5.16299" stroke-miterlimit="1.5" stroke-linecap="round" stroke-linejoin="round"/>
</svg>
