<svg width="40" height="40" viewBox="0 0 40 40" fill="none" xmlns="http://www.w3.org/2000/svg">
<g filter="url(#filter0_i_1097_2948)">
<rect width="40" height="40" rx="20" fill="#7D36F7"/>
<path opacity="0.2" d="M25.9259 23.3391C25.9259 24.3214 25.5357 25.2635 24.8411 25.958C24.1466 26.6526 23.2045 27.0428 22.2222 27.0428H15.5556V12.9688H21.1111C21.9952 12.9688 22.843 13.3199 23.4681 13.9451C24.0933 14.5702 24.4444 15.418 24.4444 16.3021C24.4444 17.1861 24.0933 18.034 23.4681 18.6591C22.843 19.2842 21.9952 19.6354 21.1111 19.6354H22.2222C23.2045 19.6354 24.1466 20.0256 24.8411 20.7202C25.5357 21.4148 25.9259 22.3568 25.9259 23.3391Z" fill="#FCF0E3"/>
<path d="M23.9333 19.2315C24.4955 18.6901 24.8904 17.9987 25.071 17.2394C25.2516 16.4802 25.2103 15.685 24.9521 14.9485C24.6938 14.212 24.2294 13.5652 23.6142 13.085C22.9989 12.6048 22.2586 12.3114 21.4815 12.2398V10.7407C21.4815 10.5443 21.4034 10.3559 21.2645 10.217C21.1256 10.078 20.9372 10 20.7407 10C20.5443 10 20.3559 10.078 20.217 10.217C20.078 10.3559 20 10.5443 20 10.7407V12.2222H18.5185V10.7407C18.5185 10.5443 18.4405 10.3559 18.3016 10.217C18.1626 10.078 17.9742 10 17.7778 10C17.5813 10 17.3929 10.078 17.254 10.217C17.1151 10.3559 17.037 10.5443 17.037 10.7407V12.2222H14.0741C13.8776 12.2222 13.6892 12.3003 13.5503 12.4392C13.4114 12.5781 13.3333 12.7665 13.3333 12.963C13.3333 13.1594 13.4114 13.3478 13.5503 13.4867C13.6892 13.6257 13.8776 13.7037 14.0741 13.7037H14.8148V26.2963H14.0741C13.8776 26.2963 13.6892 26.3743 13.5503 26.5133C13.4114 26.6522 13.3333 26.8406 13.3333 27.037C13.3333 27.2335 13.4114 27.4219 13.5503 27.5608C13.6892 27.6997 13.8776 27.7778 14.0741 27.7778H17.037V29.2593C17.037 29.4557 17.1151 29.6441 17.254 29.783C17.3929 29.922 17.5813 30 17.7778 30C17.9742 30 18.1626 29.922 18.3016 29.783C18.4405 29.6441 18.5185 29.4557 18.5185 29.2593V27.7778H20V29.2593C20 29.4557 20.078 29.6441 20.217 29.783C20.3559 29.922 20.5443 30 20.7407 30C20.9372 30 21.1256 29.922 21.2645 29.783C21.4034 29.6441 21.4815 29.4557 21.4815 29.2593V27.7778H22.2222C23.2495 27.7778 24.2451 27.4219 25.0396 26.7707C25.8341 26.1195 26.3785 25.2132 26.5802 24.2059C26.7819 23.1986 26.6284 22.1525 26.1458 21.2456C25.6633 20.3387 24.8814 19.627 23.9333 19.2315ZM16.2963 13.7037H21.1111C21.7987 13.7037 22.4581 13.9769 22.9443 14.4631C23.4306 14.9493 23.7037 15.6087 23.7037 16.2963C23.7037 16.9839 23.4306 17.6433 22.9443 18.1295C22.4581 18.6157 21.7987 18.8889 21.1111 18.8889H16.2963V13.7037ZM22.2222 26.2963H16.2963V20.3704H22.2222C23.008 20.3704 23.7617 20.6825 24.3174 21.2382C24.873 21.7939 25.1852 22.5475 25.1852 23.3333C25.1852 24.1192 24.873 24.8728 24.3174 25.4285C23.7617 25.9841 23.008 26.2963 22.2222 26.2963Z" fill="#FCF0E3"/>
</g>
<defs>
<filter id="filter0_i_1097_2948" x="0" y="0" width="40" height="40" filterUnits="userSpaceOnUse" color-interpolation-filters="sRGB">
<feFlood flood-opacity="0" result="BackgroundImageFix"/>
<feBlend mode="normal" in="SourceGraphic" in2="BackgroundImageFix" result="shape"/>
<feColorMatrix in="SourceAlpha" type="matrix" values="0 0 0 0 0 0 0 0 0 0 0 0 0 0 0 0 0 0 127 0" result="hardAlpha"/>
<feOffset/>
<feGaussianBlur stdDeviation="6"/>
<feComposite in2="hardAlpha" operator="arithmetic" k2="-1" k3="1"/>
<feColorMatrix type="matrix" values="0 0 0 0 0.988235 0 0 0 0 0.941176 0 0 0 0 0.890196 0 0 0 0.45 0"/>
<feBlend mode="normal" in2="shape" result="effect1_innerShadow_1097_2948"/>
</filter>
</defs>
</svg>
