<svg width="60" height="60" viewBox="0 0 60 60" fill="none" xmlns="http://www.w3.org/2000/svg">
<g filter="url(#filter0_i_1062_3228)">
<rect width="60" height="60" rx="30" fill="#7D36F7"/>
<path opacity="0.2" d="M45.2727 30.5444C45.2727 33.2553 40.3882 35.4535 34.3636 35.4535C31.6909 35.4535 29.2418 35.0212 27.345 34.3026C32.5582 33.933 36.5455 31.908 36.5455 29.4535V25.7335C41.5255 26.1889 45.2727 28.1689 45.2727 30.5444ZM36.5455 23.9989C36.5455 21.288 31.6609 19.0898 25.6364 19.0898C19.6118 19.0898 14.7273 21.288 14.7273 23.9989C14.7273 26.7098 19.6118 28.908 25.6364 28.908C31.6609 28.908 36.5455 26.7098 36.5455 23.9989Z" fill="#FCF0E3"/>
<path d="M37.6364 24.7595V24C37.6364 20.58 32.4777 18 25.6364 18C18.795 18 13.6364 20.58 13.6364 24V29.4545C13.6364 32.3032 17.2159 34.5668 22.3636 35.2445V36C22.3636 39.42 27.5223 42 34.3636 42C41.205 42 46.3636 39.42 46.3636 36V30.5455C46.3636 27.7227 42.8973 25.4564 37.6364 24.7595ZM44.1818 30.5455C44.1818 32.3482 39.9832 34.3636 34.3636 34.3636C33.855 34.3636 33.3505 34.3459 32.8527 34.3132C35.7941 33.2414 37.6364 31.5 37.6364 29.4545V26.9645C41.7096 27.5714 44.1818 29.2186 44.1818 30.5455ZM22.3636 33.0341V29.79C23.4488 29.9314 24.542 30.0015 25.6364 30C26.7307 30.0015 27.8239 29.9314 28.9091 29.79V33.0341C27.8256 33.1942 26.7317 33.2739 25.6364 33.2727C24.5411 33.2739 23.4472 33.1942 22.3636 33.0341ZM35.4545 27.5359V29.4545C35.4545 30.5986 33.7623 31.8273 31.0909 32.5732V29.3864C32.8514 28.9595 34.3418 28.3241 35.4545 27.5359ZM25.6364 20.1818C31.2559 20.1818 35.4545 22.1973 35.4545 24C35.4545 25.8027 31.2559 27.8182 25.6364 27.8182C20.0168 27.8182 15.8182 25.8027 15.8182 24C15.8182 22.1973 20.0168 20.1818 25.6364 20.1818ZM15.8182 29.4545V27.5359C16.9309 28.3241 18.4214 28.9595 20.1818 29.3864V32.5732C17.5105 31.8273 15.8182 30.5986 15.8182 29.4545ZM24.5455 36V35.4314C24.9041 35.445 25.2668 35.4545 25.6364 35.4545C26.1655 35.4545 26.6823 35.4368 27.1896 35.4068C27.7531 35.6086 28.3271 35.7797 28.9091 35.9195V39.1186C26.2377 38.3727 24.5455 37.1441 24.5455 36ZM31.0909 39.5795V36.3273C32.1757 36.4731 33.2691 36.546 34.3636 36.5455C35.458 36.547 36.5512 36.4769 37.6364 36.3355V39.5795C35.4662 39.8977 33.2611 39.8977 31.0909 39.5795ZM39.8182 39.1186V35.9318C41.5786 35.505 43.0691 34.8695 44.1818 34.0814V36C44.1818 37.1441 42.4895 38.3727 39.8182 39.1186Z" fill="#FCF0E3"/>
</g>
<defs>
<filter id="filter0_i_1062_3228" x="0" y="0" width="60" height="60" filterUnits="userSpaceOnUse" color-interpolation-filters="sRGB">
<feFlood flood-opacity="0" result="BackgroundImageFix"/>
<feBlend mode="normal" in="SourceGraphic" in2="BackgroundImageFix" result="shape"/>
<feColorMatrix in="SourceAlpha" type="matrix" values="0 0 0 0 0 0 0 0 0 0 0 0 0 0 0 0 0 0 127 0" result="hardAlpha"/>
<feOffset/>
<feGaussianBlur stdDeviation="6"/>
<feComposite in2="hardAlpha" operator="arithmetic" k2="-1" k3="1"/>
<feColorMatrix type="matrix" values="0 0 0 0 0.988235 0 0 0 0 0.941176 0 0 0 0 0.890196 0 0 0 0.45 0"/>
<feBlend mode="normal" in2="shape" result="effect1_innerShadow_1062_3228"/>
</filter>
</defs>
</svg>
