<svg width="60" height="60" viewBox="0 0 60 60" fill="none" xmlns="http://www.w3.org/2000/svg">
<g filter="url(#filter0_i_1062_3218)">
<rect width="60" height="60" rx="30" fill="#7D36F7"/>
<path opacity="0.2" d="M42.5455 24.5462V39.8189C42.5455 40.1082 42.4305 40.3857 42.226 40.5903C42.0214 40.7949 41.7439 40.9098 41.4546 40.9098H19.6364C19.0577 40.9098 18.5028 40.6799 18.0936 40.2708C17.6844 39.8616 17.4546 39.3066 17.4546 38.728V21.2734C17.4546 21.8521 17.6844 22.407 18.0936 22.8162C18.5028 23.2254 19.0577 23.4553 19.6364 23.4553H41.4546C41.7439 23.4553 42.0214 23.5702 42.226 23.7748C42.4305 23.9794 42.5455 24.2568 42.5455 24.5462Z" fill="#FCF0E3"/>
<path d="M41.4546 22.3636H19.6364C19.347 22.3636 19.0696 22.2487 18.865 22.0441C18.6604 21.8395 18.5455 21.5621 18.5455 21.2727C18.5455 20.9834 18.6604 20.7059 18.865 20.5013C19.0696 20.2968 19.347 20.1818 19.6364 20.1818H38.1818C38.4712 20.1818 38.7486 20.0669 38.9532 19.8623C39.1578 19.6577 39.2727 19.3802 39.2727 19.0909C39.2727 18.8016 39.1578 18.5241 38.9532 18.3195C38.7486 18.1149 38.4712 18 38.1818 18H19.6364C18.7684 18 17.936 18.3448 17.3222 18.9586C16.7085 19.5723 16.3636 20.4047 16.3636 21.2727V38.7273C16.3636 39.5953 16.7085 40.4277 17.3222 41.0414C17.936 41.6552 18.7684 42 19.6364 42H41.4546C42.0332 42 42.5882 41.7701 42.9973 41.361C43.4065 40.9518 43.6364 40.3968 43.6364 39.8182V24.5455C43.6364 23.9668 43.4065 23.4118 42.9973 23.0027C42.5882 22.5935 42.0332 22.3636 41.4546 22.3636ZM41.4546 39.8182H19.6364C19.347 39.8182 19.0696 39.7032 18.865 39.4987C18.6604 39.2941 18.5455 39.0166 18.5455 38.7273V24.3586C18.8958 24.4828 19.2647 24.546 19.6364 24.5455H41.4546V39.8182ZM34.9091 31.6364C34.9091 31.3127 35.0051 30.9963 35.1849 30.7272C35.3647 30.4582 35.6203 30.2484 35.9193 30.1246C36.2183 30.0007 36.5473 29.9683 36.8647 30.0314C37.1821 30.0946 37.4737 30.2504 37.7025 30.4793C37.9314 30.7081 38.0872 30.9997 38.1504 31.3171C38.2135 31.6345 38.1811 31.9636 38.0573 32.2626C37.9334 32.5616 37.7237 32.8171 37.4546 32.997C37.1855 33.1768 36.8691 33.2727 36.5455 33.2727C36.1115 33.2727 35.6953 33.1003 35.3884 32.7934C35.0815 32.4866 34.9091 32.0704 34.9091 31.6364Z" fill="#FCF0E3"/>
</g>
<defs>
<filter id="filter0_i_1062_3218" x="0" y="0" width="60" height="60" filterUnits="userSpaceOnUse" color-interpolation-filters="sRGB">
<feFlood flood-opacity="0" result="BackgroundImageFix"/>
<feBlend mode="normal" in="SourceGraphic" in2="BackgroundImageFix" result="shape"/>
<feColorMatrix in="SourceAlpha" type="matrix" values="0 0 0 0 0 0 0 0 0 0 0 0 0 0 0 0 0 0 127 0" result="hardAlpha"/>
<feOffset/>
<feGaussianBlur stdDeviation="6"/>
<feComposite in2="hardAlpha" operator="arithmetic" k2="-1" k3="1"/>
<feColorMatrix type="matrix" values="0 0 0 0 0.988235 0 0 0 0 0.941176 0 0 0 0 0.890196 0 0 0 0.45 0"/>
<feBlend mode="normal" in2="shape" result="effect1_innerShadow_1062_3218"/>
</filter>
</defs>
</svg>
