<svg width="40" height="40" viewBox="0 0 40 40" fill="none" xmlns="http://www.w3.org/2000/svg">
<g filter="url(#filter0_i_1097_2953)">
<rect width="40" height="40" rx="20" fill="#7D36F7"/>
<path opacity="0.2" d="M18.3636 12.6346V17.5437C18.3636 17.7607 18.2774 17.9688 18.124 18.1222C17.9706 18.2757 17.7624 18.3619 17.5454 18.3619H12.6364C12.4194 18.3619 12.2113 18.2757 12.0578 18.1222C11.9044 17.9688 11.8182 17.7607 11.8182 17.5437V12.6346C11.8182 12.4176 11.9044 12.2095 12.0578 12.056C12.2113 11.9026 12.4194 11.8164 12.6364 11.8164H17.5454C17.7624 11.8164 17.9706 11.9026 18.124 12.056C18.2774 12.2095 18.3636 12.4176 18.3636 12.6346ZM17.5454 21.6346H12.6364C12.4194 21.6346 12.2113 21.7208 12.0578 21.8742C11.9044 22.0277 11.8182 22.2358 11.8182 22.4528V27.3619C11.8182 27.5789 11.9044 27.787 12.0578 27.9404C12.2113 28.0938 12.4194 28.18 12.6364 28.18H17.5454C17.7624 28.18 17.9706 28.0938 18.124 27.9404C18.2774 27.787 18.3636 27.5789 18.3636 27.3619V22.4528C18.3636 22.2358 18.2774 22.0277 18.124 21.8742C17.9706 21.7208 17.7624 21.6346 17.5454 21.6346ZM27.3636 11.8164H22.4545C22.2375 11.8164 22.0294 11.9026 21.876 12.056C21.7226 12.2095 21.6364 12.4176 21.6364 12.6346V17.5437C21.6364 17.7607 21.7226 17.9688 21.876 18.1222C22.0294 18.2757 22.2375 18.3619 22.4545 18.3619H27.3636C27.5806 18.3619 27.7887 18.2757 27.9422 18.1222C28.0956 17.9688 28.1818 17.7607 28.1818 17.5437V12.6346C28.1818 12.4176 28.0956 12.2095 27.9422 12.056C27.7887 11.9026 27.5806 11.8164 27.3636 11.8164Z" fill="#FCF0E3"/>
<path d="M17.5455 11H12.6364C12.2024 11 11.7862 11.1724 11.4793 11.4793C11.1724 11.7862 11 12.2024 11 12.6364V17.5455C11 17.9794 11.1724 18.3957 11.4793 18.7025C11.7862 19.0094 12.2024 19.1818 12.6364 19.1818H17.5455C17.9794 19.1818 18.3957 19.0094 18.7025 18.7025C19.0094 18.3957 19.1818 17.9794 19.1818 17.5455V12.6364C19.1818 12.2024 19.0094 11.7862 18.7025 11.4793C18.3957 11.1724 17.9794 11 17.5455 11ZM17.5455 17.5455H12.6364V12.6364H17.5455V17.5455ZM17.5455 20.8182H12.6364C12.2024 20.8182 11.7862 20.9906 11.4793 21.2975C11.1724 21.6043 11 22.0206 11 22.4545V27.3636C11 27.7976 11.1724 28.2138 11.4793 28.5207C11.7862 28.8276 12.2024 29 12.6364 29H17.5455C17.9794 29 18.3957 28.8276 18.7025 28.5207C19.0094 28.2138 19.1818 27.7976 19.1818 27.3636V22.4545C19.1818 22.0206 19.0094 21.6043 18.7025 21.2975C18.3957 20.9906 17.9794 20.8182 17.5455 20.8182ZM17.5455 27.3636H12.6364V22.4545H17.5455V27.3636ZM27.3636 11H22.4545C22.0206 11 21.6043 11.1724 21.2975 11.4793C20.9906 11.7862 20.8182 12.2024 20.8182 12.6364V17.5455C20.8182 17.9794 20.9906 18.3957 21.2975 18.7025C21.6043 19.0094 22.0206 19.1818 22.4545 19.1818H27.3636C27.7976 19.1818 28.2138 19.0094 28.5207 18.7025C28.8276 18.3957 29 17.9794 29 17.5455V12.6364C29 12.2024 28.8276 11.7862 28.5207 11.4793C28.2138 11.1724 27.7976 11 27.3636 11ZM27.3636 17.5455H22.4545V12.6364H27.3636V17.5455ZM20.8182 24.9091V21.6364C20.8182 21.4194 20.9044 21.2113 21.0578 21.0578C21.2113 20.9044 21.4194 20.8182 21.6364 20.8182C21.8534 20.8182 22.0615 20.9044 22.2149 21.0578C22.3683 21.2113 22.4545 21.4194 22.4545 21.6364V24.9091C22.4545 25.1261 22.3683 25.3342 22.2149 25.4876C22.0615 25.6411 21.8534 25.7273 21.6364 25.7273C21.4194 25.7273 21.2113 25.6411 21.0578 25.4876C20.9044 25.3342 20.8182 25.1261 20.8182 24.9091ZM29 23.2727C29 23.4897 28.9138 23.6978 28.7604 23.8513C28.6069 24.0047 28.3988 24.0909 28.1818 24.0909H25.7273V28.1818C25.7273 28.3988 25.6411 28.6069 25.4876 28.7604C25.3342 28.9138 25.1261 29 24.9091 29H21.6364C21.4194 29 21.2113 28.9138 21.0578 28.7604C20.9044 28.6069 20.8182 28.3988 20.8182 28.1818C20.8182 27.9648 20.9044 27.7567 21.0578 27.6033C21.2113 27.4498 21.4194 27.3636 21.6364 27.3636H24.0909V21.6364C24.0909 21.4194 24.1771 21.2113 24.3305 21.0578C24.484 20.9044 24.6921 20.8182 24.9091 20.8182C25.1261 20.8182 25.3342 20.9044 25.4876 21.0578C25.6411 21.2113 25.7273 21.4194 25.7273 21.6364V22.4545H28.1818C28.3988 22.4545 28.6069 22.5407 28.7604 22.6942C28.9138 22.8476 29 23.0557 29 23.2727ZM29 26.5455V28.1818C29 28.3988 28.9138 28.6069 28.7604 28.7604C28.6069 28.9138 28.3988 29 28.1818 29C27.9648 29 27.7567 28.9138 27.6033 28.7604C27.4498 28.6069 27.3636 28.3988 27.3636 28.1818V26.5455C27.3636 26.3285 27.4498 26.1204 27.6033 25.9669C27.7567 25.8135 27.9648 25.7273 28.1818 25.7273C28.3988 25.7273 28.6069 25.8135 28.7604 25.9669C28.9138 26.1204 29 26.3285 29 26.5455Z" fill="#FCF0E3"/>
</g>
<defs>
<filter id="filter0_i_1097_2953" x="0" y="0" width="40" height="40" filterUnits="userSpaceOnUse" color-interpolation-filters="sRGB">
<feFlood flood-opacity="0" result="BackgroundImageFix"/>
<feBlend mode="normal" in="SourceGraphic" in2="BackgroundImageFix" result="shape"/>
<feColorMatrix in="SourceAlpha" type="matrix" values="0 0 0 0 0 0 0 0 0 0 0 0 0 0 0 0 0 0 127 0" result="hardAlpha"/>
<feOffset/>
<feGaussianBlur stdDeviation="6"/>
<feComposite in2="hardAlpha" operator="arithmetic" k2="-1" k3="1"/>
<feColorMatrix type="matrix" values="0 0 0 0 0.988235 0 0 0 0 0.941176 0 0 0 0 0.890196 0 0 0 0.45 0"/>
<feBlend mode="normal" in2="shape" result="effect1_innerShadow_1097_2953"/>
</filter>
</defs>
</svg>
