<svg width="40" height="40" viewBox="0 0 40 40" fill="none" xmlns="http://www.w3.org/2000/svg">
<g filter="url(#filter0_i_1097_2960)">
<rect width="40" height="40" rx="20" fill="#7D36F7"/>
<path opacity="0.2" d="M26.66 22.8633C24.4217 27.0771 20 28.2831 20 28.2831C20 28.2831 15.5783 27.0771 13.34 22.8633L20 18.2031L26.66 22.8633Z" fill="#FCF0E3"/>
<path d="M27.2 11H12.8C12.4181 11 12.0518 11.1517 11.7818 11.4218C11.5117 11.6918 11.36 12.0581 11.36 12.44V17.48C11.36 22.2248 13.6568 25.1003 15.5837 26.6771C17.6591 28.3745 19.7237 28.9505 19.8137 28.9748C19.9374 29.0084 20.0679 29.0084 20.1917 28.9748C20.2817 28.9505 22.3436 28.3745 24.4217 26.6771C26.3432 25.1003 28.64 22.2248 28.64 17.48V12.44C28.64 12.0581 28.4883 11.6918 28.2182 11.4218C27.9482 11.1517 27.5819 11 27.2 11ZM23.546 25.5278C22.4905 26.3969 21.2902 27.0732 20 27.5258C18.7267 27.0811 17.5412 26.4168 16.4972 25.5629C15.6291 24.8617 14.8836 24.021 14.2913 23.0753L20 19.0793L25.7087 23.0753C25.1266 24.0054 24.396 24.8339 23.546 25.5278ZM27.2 17.48C27.2 19.0586 26.9258 20.4938 26.3774 21.7856L20.4131 17.6105C20.292 17.5257 20.1478 17.4802 20 17.4802C19.8522 17.4802 19.708 17.5257 19.5869 17.6105L13.6217 21.7856C13.0754 20.4968 12.8 19.0586 12.8 17.48V12.44H27.2V17.48Z" fill="#FCF0E3"/>
</g>
<defs>
<filter id="filter0_i_1097_2960" x="0" y="0" width="40" height="40" filterUnits="userSpaceOnUse" color-interpolation-filters="sRGB">
<feFlood flood-opacity="0" result="BackgroundImageFix"/>
<feBlend mode="normal" in="SourceGraphic" in2="BackgroundImageFix" result="shape"/>
<feColorMatrix in="SourceAlpha" type="matrix" values="0 0 0 0 0 0 0 0 0 0 0 0 0 0 0 0 0 0 127 0" result="hardAlpha"/>
<feOffset/>
<feGaussianBlur stdDeviation="6"/>
<feComposite in2="hardAlpha" operator="arithmetic" k2="-1" k3="1"/>
<feColorMatrix type="matrix" values="0 0 0 0 0.988235 0 0 0 0 0.941176 0 0 0 0 0.890196 0 0 0 0.45 0"/>
<feBlend mode="normal" in2="shape" result="effect1_innerShadow_1097_2960"/>
</filter>
</defs>
</svg>
