<svg width="60" height="60" viewBox="0 0 60 60" fill="none" xmlns="http://www.w3.org/2000/svg">
<g filter="url(#filter0_i_1062_3238)">
<rect width="60" height="60" rx="30" fill="#7D36F7"/>
<path opacity="0.2" d="M40.08 23.8372V37.2772C40.08 37.5742 39.962 37.8591 39.7519 38.0691C39.5419 38.2792 39.257 38.3972 38.96 38.3972H33.36C33.0629 38.3972 32.7781 38.2792 32.568 38.0691C32.358 37.8591 32.24 37.5742 32.24 37.2772V23.8372C32.24 23.5401 32.358 23.2553 32.568 23.0452C32.7781 22.8352 33.0629 22.7172 33.36 22.7172H38.96C39.257 22.7172 39.5419 22.8352 39.7519 23.0452C39.962 23.2553 40.08 23.5401 40.08 23.8372ZM26.64 17.1172H21.04C20.7429 17.1172 20.4581 17.2352 20.248 17.4452C20.038 17.6553 19.92 17.9401 19.92 18.2372V37.2772C19.92 37.5742 20.038 37.8591 20.248 38.0691C20.4581 38.2792 20.7429 38.3972 21.04 38.3972H26.64C26.937 38.3972 27.2219 38.2792 27.4319 38.0691C27.642 37.8591 27.76 37.5742 27.76 37.2772V18.2372C27.76 17.9401 27.642 17.6553 27.4319 17.4452C27.2219 17.2352 26.937 17.1172 26.64 17.1172Z" fill="#FCF0E3"/>
<path d="M21.04 39.52H26.64C27.2341 39.52 27.8038 39.284 28.2239 38.8639C28.644 38.4438 28.88 37.8741 28.88 37.28V18.24C28.88 17.6459 28.644 17.0762 28.2239 16.6561C27.8038 16.236 27.2341 16 26.64 16H21.04C20.4459 16 19.8762 16.236 19.4561 16.6561C19.036 17.0762 18.8 17.6459 18.8 18.24V37.28C18.8 37.8741 19.036 38.4438 19.4561 38.8639C19.8762 39.284 20.4459 39.52 21.04 39.52ZM21.04 18.24H26.64V37.28H21.04V18.24ZM43.44 42.88C43.44 43.177 43.322 43.4619 43.112 43.672C42.9019 43.882 42.617 44 42.32 44H17.68C17.383 44 17.0981 43.882 16.888 43.672C16.678 43.4619 16.56 43.177 16.56 42.88C16.56 42.583 16.678 42.2981 16.888 42.088C17.0981 41.878 17.383 41.76 17.68 41.76H42.32C42.617 41.76 42.9019 41.878 43.112 42.088C43.322 42.2981 43.44 42.583 43.44 42.88ZM33.36 39.52H38.96C39.5541 39.52 40.1238 39.284 40.5439 38.8639C40.964 38.4438 41.2 37.8741 41.2 37.28V23.84C41.2 23.2459 40.964 22.6762 40.5439 22.2561C40.1238 21.836 39.5541 21.6 38.96 21.6H33.36C32.7659 21.6 32.1962 21.836 31.7761 22.2561C31.356 22.6762 31.12 23.2459 31.12 23.84V37.28C31.12 37.8741 31.356 38.4438 31.7761 38.8639C32.1962 39.284 32.7659 39.52 33.36 39.52ZM33.36 23.84H38.96V37.28H33.36V23.84Z" fill="#FCF0E3"/>
</g>
<defs>
<filter id="filter0_i_1062_3238" x="0" y="0" width="60" height="60" filterUnits="userSpaceOnUse" color-interpolation-filters="sRGB">
<feFlood flood-opacity="0" result="BackgroundImageFix"/>
<feBlend mode="normal" in="SourceGraphic" in2="BackgroundImageFix" result="shape"/>
<feColorMatrix in="SourceAlpha" type="matrix" values="0 0 0 0 0 0 0 0 0 0 0 0 0 0 0 0 0 0 127 0" result="hardAlpha"/>
<feOffset/>
<feGaussianBlur stdDeviation="6"/>
<feComposite in2="hardAlpha" operator="arithmetic" k2="-1" k3="1"/>
<feColorMatrix type="matrix" values="0 0 0 0 0.988235 0 0 0 0 0.941176 0 0 0 0 0.890196 0 0 0 0.45 0"/>
<feBlend mode="normal" in2="shape" result="effect1_innerShadow_1062_3238"/>
</filter>
</defs>
</svg>
