<svg width="318" height="71" viewBox="0 0 318 71" fill="none" xmlns="http://www.w3.org/2000/svg">
<rect x="0.937079" y="0.935797" width="315.951" height="69.0312" rx="7.96514" fill="#FCF7ED" stroke="#242424" stroke-width="1.77003"/>
<path d="M74.7132 36.5759V36.7056C74.7132 36.8093 75.1151 36.8611 75.9189 36.8611H77.4097C78.5938 36.8611 79.1858 36.792 79.1858 36.6537C79.1858 36.2821 78.8185 35.1412 78.0839 33.2312C77.3492 31.3212 76.969 30.3661 76.943 30.3661C76.9257 30.3661 76.5498 31.3255 75.8151 33.2442C75.0805 35.1542 74.7132 36.2648 74.7132 36.5759ZM77.2671 26.3862H77.6431C78.2826 26.3862 79 27.0689 79.7951 28.4345C80.0717 28.9098 80.4865 29.8951 81.0397 31.3903C81.5928 32.8855 82.0682 34.1257 82.4657 35.111C82.8633 36.0963 83.2954 37.2717 83.7621 38.6372C84.2375 39.9941 84.5789 40.8973 84.7863 41.3467C85.0024 41.7875 85.3827 42.211 85.9271 42.6172C86.4716 43.0234 86.7439 43.3778 86.7439 43.6803C86.7439 43.9741 86.5581 44.1686 86.1864 44.2636C85.5814 44.4106 84.0819 44.484 81.6879 44.484C80.5989 44.484 80.0544 44.2507 80.0544 43.784C80.0544 43.663 80.1408 43.3691 80.3137 42.9024C80.4865 42.4271 80.573 42.077 80.573 41.8523C80.573 40.7893 80.318 39.8947 79.8081 39.1688C79.6007 38.8749 78.9481 38.728 77.8505 38.728C75.8368 38.728 74.6959 38.7928 74.428 38.9224C74.1687 39.0521 73.9008 39.3805 73.6242 39.9077C73.3563 40.4349 73.2223 40.9232 73.2223 41.3727C73.2223 41.8221 73.3433 42.3061 73.5853 42.8246C73.836 43.3432 73.9613 43.7494 73.9613 44.0433C73.9613 44.4062 73.5724 44.5877 72.7945 44.5877C70.945 44.5877 69.7091 44.5013 69.0868 44.3285C68.6892 44.2161 68.4904 43.9352 68.4904 43.4858C68.4904 43.4253 68.8837 43.0493 69.6702 42.3579C70.1023 41.9776 70.448 41.4807 70.7073 40.8671C72.5741 36.416 73.7582 33.1923 74.2595 31.1958C74.7694 29.1907 75.2015 27.89 75.5559 27.2936C75.9102 26.6887 76.4806 26.3862 77.2671 26.3862ZM89.3203 44.2377C88.214 44.2377 87.6609 44.0605 87.6609 43.7062C87.6609 43.3518 87.9461 42.9759 88.5165 42.5783C89.0956 42.1721 89.4499 41.7184 89.5796 41.2171C89.7092 40.7158 89.774 38.7366 89.774 35.2795C89.774 31.8138 89.7395 29.947 89.6703 29.679C89.5147 29.0654 89.2209 28.6073 88.7888 28.3048C88.0023 27.7517 87.609 27.3196 87.609 27.0084V26.8269C87.609 26.5158 88.698 26.3602 90.876 26.3602L91.7575 26.3213H92.6391L92.9373 26.3343H93.2354C94.2207 26.3343 94.8171 26.3732 95.0245 26.451C95.2406 26.5201 95.3486 26.7405 95.3486 27.1121C95.3486 27.3369 95.0288 27.7085 94.3892 28.2271C94.0435 28.5123 93.8102 28.9185 93.6892 29.4457C93.5682 29.9729 93.5077 32.0083 93.5077 35.5518C93.5077 39.0953 93.5552 41.0615 93.6503 41.4504C93.7454 41.8394 94.0565 42.2585 94.5837 42.708C95.1109 43.1574 95.3745 43.529 95.3745 43.8229C95.3745 44.1686 95.0288 44.3414 94.3374 44.3414H93.4299L93.1317 44.3285H92.5224L91.6409 44.3025L90.4741 44.2766L89.9037 44.2507C89.7135 44.242 89.5191 44.2377 89.3203 44.2377ZM97.2249 37.7686V37.2371L97.2379 37.1334C97.2379 36.2605 97.4885 35.824 97.9898 35.824L98.1972 35.7981L104.964 35.6944C105.397 35.6944 105.613 35.8802 105.613 36.2518V36.4593L105.6 36.563V36.6667C105.6 37.6087 105.375 38.0798 104.926 38.0798L104.718 38.1057L103.785 38.1576H102.838L102.631 38.1705H101.451L101.335 38.1835H100.492L100.388 38.1964H99.74L99.6362 38.2094H99.2084L98.988 38.2224H98.6769L98.1583 38.2483H97.7435C97.3978 38.2483 97.2249 38.0884 97.2249 37.7686ZM117.186 38.1316L117.16 37.4186C117.16 36.3123 116.849 35.3357 116.227 34.4887C115.76 33.8578 115.138 33.5423 114.36 33.5423L114.256 33.5553C113.504 33.5553 112.917 33.8535 112.493 34.4498C112.225 34.8215 112.091 35.4481 112.091 36.3296L112.065 36.5759L112.026 37.7168V38.8835L112.039 39.0132V39.2595L112.052 39.3891C112.052 39.4756 112.052 39.562 112.052 39.6484L112.078 40.0244L112.104 40.517C112.104 41.2344 112.303 41.8091 112.701 42.2412C113.098 42.6734 113.612 42.8895 114.243 42.8895H114.477C115.324 42.8895 116.028 42.4184 116.59 41.4764C116.996 40.8022 117.199 39.7867 117.199 38.4298V38.2742L117.186 38.1316ZM112.286 46.2212C112.286 46.9299 112.476 47.5349 112.856 48.0362L113.427 48.6066C113.738 48.9178 113.893 49.177 113.893 49.3845C113.893 49.661 113.699 49.8512 113.31 49.9549C112.93 50.0586 112.104 50.1105 110.834 50.1105L110.497 50.1234C109.036 50.1234 108.133 50.0672 107.787 49.9549C107.45 49.8425 107.282 49.6654 107.282 49.4234C107.282 49.3283 107.493 48.948 107.917 48.2825C108.34 47.617 108.604 46.9299 108.708 46.2212C108.742 45.9879 108.76 44.134 108.76 40.6596C108.76 37.1852 108.721 35.2666 108.643 34.9036C108.565 34.5319 108.288 34.1862 107.813 33.8664C107.338 33.538 107.1 33.2269 107.1 32.933C107.1 32.6392 107.303 32.4231 107.709 32.2848C108.85 31.9045 109.922 31.7144 110.925 31.7144C111.192 31.7144 111.387 31.7792 111.508 31.9089C111.638 32.0299 111.763 32.1854 111.884 32.3756C112.005 32.5657 112.126 32.6608 112.247 32.6608C112.368 32.6608 112.593 32.5657 112.921 32.3756C113.258 32.1854 113.638 32.0039 114.062 31.8311C114.494 31.6496 115.06 31.5588 115.76 31.5588H116.11C116.732 31.5588 117.359 31.7274 117.99 32.0644C118.63 32.3929 119.17 32.8293 119.61 33.3738C120.501 34.4887 120.946 35.8759 120.946 37.5353C120.946 39.5836 120.349 41.2517 119.157 42.5394C118.534 43.2136 117.86 43.6889 117.134 43.9655C116.408 44.2334 115.587 44.3674 114.671 44.3674C114.662 44.3674 114.334 44.3328 113.686 44.2636L113.128 44.1988L112.869 44.1599C112.48 44.1599 112.286 44.847 112.286 46.2212ZM128.436 33.296H128.189C127.446 33.296 126.837 33.7152 126.361 34.5535C125.895 35.3919 125.661 36.3944 125.661 37.5612V38.2872C125.661 39.6009 125.933 40.7115 126.478 41.619C127.022 42.5265 127.675 42.9802 128.436 42.9802H128.682C129.347 42.9802 129.926 42.6431 130.419 41.969C130.92 41.2862 131.171 40.3787 131.171 39.2465L131.197 38.9743L131.21 38.4298V38.2872L131.197 38.1446V37.8723C131.18 37.6822 131.171 37.5439 131.171 37.4575C131.171 36.308 130.899 35.3271 130.354 34.5146C129.81 33.7022 129.17 33.296 128.436 33.296ZM128.449 31.5718H129.097C129.866 31.5718 130.657 31.7533 131.469 32.1163C133.016 32.8077 134.079 33.9313 134.658 35.487C134.952 36.2907 135.099 37.1118 135.099 37.9501V38.1835C135.099 39.0823 134.918 39.9639 134.555 40.8282C134.192 41.6924 133.703 42.4098 133.09 42.9802C131.811 44.1383 130.341 44.7174 128.682 44.7174C128.552 44.7174 128.423 44.7131 128.293 44.7044C127.463 44.7044 126.647 44.5402 125.843 44.2118C125.048 43.8747 124.395 43.4296 123.885 42.8765C122.788 41.6665 122.239 40.1497 122.239 38.3261V38.1057L122.252 37.8853C122.26 37.0815 122.412 36.2864 122.705 35.4999C123.276 33.9961 124.322 32.8855 125.843 32.1681C126.698 31.7706 127.567 31.5718 128.449 31.5718ZM146.426 32.1163C147.878 32.1163 148.604 32.9762 148.604 34.6961C148.604 35.8629 148.959 37.2112 149.667 38.7409C149.849 39.1299 150.013 39.3243 150.16 39.3243C150.445 39.3243 150.782 38.8058 151.171 37.7686C151.569 36.7229 151.767 35.6944 151.767 34.6832L151.755 34.2683L151.677 33.9053V33.2701C151.677 32.8552 151.867 32.5441 152.247 32.3367C152.636 32.1206 153.302 32.0126 154.244 32.0126C155.186 32.0126 155.657 32.2805 155.657 32.8163C155.657 33.0756 155.467 33.4127 155.086 33.8275C154.715 34.2338 154.438 34.6572 154.257 35.098C154.075 35.5388 153.889 36.0574 153.699 36.6537C153.509 37.2501 153.085 38.4644 152.429 40.2966C151.78 42.1289 151.417 43.1185 151.34 43.2654C150.933 44.0605 150.35 44.4581 149.589 44.4581C149.123 44.4581 148.712 44.121 148.358 43.4469C148.228 43.1963 147.787 42.1462 147.036 40.2966C146.284 38.4471 145.886 37.5223 145.843 37.5223C145.731 37.5223 145.294 38.4557 144.533 40.3226C143.782 42.1807 143.315 43.2697 143.133 43.5895C142.822 44.134 142.368 44.4062 141.772 44.4062C141.176 44.4062 140.644 43.9698 140.178 43.0969C140.022 42.803 139.599 41.7011 138.907 39.791C138.216 37.8723 137.71 36.55 137.39 35.824C137.071 35.098 136.708 34.4801 136.301 33.9702C135.895 33.4516 135.692 33.1405 135.692 33.0367C135.692 32.7429 135.813 32.4966 136.055 32.2978C136.306 32.0904 136.69 31.9866 137.209 31.9866H138.207C139.503 31.9866 140.342 32.3151 140.722 32.9719C140.834 33.1621 140.981 33.8448 141.163 35.0202C141.353 36.187 141.496 36.926 141.591 37.2371C141.988 38.5076 142.364 39.1428 142.719 39.1428C143.004 39.1428 143.293 38.7193 143.587 37.8723C143.881 37.0254 144.028 36.1352 144.028 35.2017L144.015 34.7739L143.989 34.3331C143.989 33.4775 144.205 32.8941 144.637 32.583C145.078 32.2719 145.674 32.1163 146.426 32.1163ZM162.511 33.3479H162.135C161.591 33.3479 161.068 33.6331 160.567 34.2035C160.074 34.7653 159.828 35.4394 159.828 36.2259V36.4333C159.828 36.7531 160.005 36.913 160.359 36.913L160.489 36.9389H161.409L161.474 36.926L163.639 36.7963C163.769 36.7704 163.855 36.7574 163.898 36.7574C164.339 36.7574 164.56 36.5284 164.56 36.0703V35.6425C164.56 35.0635 164.352 34.5363 163.937 34.0609C163.522 33.5856 163.047 33.3479 162.511 33.3479ZM159.983 39.5188C159.983 40.3831 160.389 41.1307 161.202 41.7616C161.807 42.2369 162.576 42.4746 163.509 42.4746C163.933 42.4746 164.56 42.3536 165.389 42.1116C166.228 41.8696 166.712 41.7486 166.841 41.7486C167.23 41.7486 167.425 41.9604 167.425 42.3839C167.425 42.8851 166.906 43.3951 165.869 43.9136C164.84 44.4235 163.773 44.6785 162.667 44.6785H162.096C162.079 44.6785 162.058 44.6785 162.032 44.6785C161.332 44.6785 160.618 44.5359 159.892 44.2507C158.458 43.6975 157.438 42.7296 156.833 41.3467C156.418 40.396 156.211 39.4929 156.211 38.6372V38.0409C156.211 37.168 156.362 36.3253 156.664 35.5129C157.235 33.9831 158.242 32.8812 159.685 32.207C160.549 31.8095 161.457 31.6107 162.408 31.6107H162.706C164.114 31.6107 165.303 32.0471 166.271 32.9201C166.781 33.3868 167.17 33.9485 167.438 34.6054C167.714 35.2622 167.852 35.9321 167.852 36.6148C167.852 37.289 167.52 37.7341 166.854 37.9501C165.921 38.2526 164.192 38.4039 161.669 38.4039C160.994 38.4039 160.545 38.4903 160.32 38.6632C160.096 38.8274 159.983 39.1126 159.983 39.5188ZM175.135 33.0886C176.137 32.3972 176.993 32.0515 177.702 32.0515C178.41 32.0515 178.89 32.2027 179.141 32.5052C179.4 32.8077 179.53 33.1707 179.53 33.5942C179.53 34.0177 179.413 34.398 179.18 34.735C178.955 35.0635 178.696 35.2277 178.402 35.2277C178.117 35.2277 177.719 35.1153 177.209 34.8906C176.699 34.6659 176.306 34.5535 176.029 34.5535C175.753 34.5535 175.442 34.7005 175.096 34.9943C174.75 35.2882 174.508 35.7073 174.37 36.2518C174.24 36.7963 174.175 37.652 174.175 38.8187C174.175 39.9769 174.258 40.7288 174.422 41.0745C174.586 41.4115 174.923 41.8566 175.433 42.4098C175.943 42.9629 176.198 43.4167 176.198 43.771C176.198 44.1859 175.195 44.3933 173.19 44.3933H172.075L171.803 44.3803C171.622 44.3717 171.436 44.3674 171.246 44.3674L170.973 44.3544C170.792 44.3458 170.602 44.3414 170.403 44.3414C169.495 44.3414 169.042 44.147 169.042 43.758C169.042 43.3691 169.266 42.9759 169.716 42.5783C170.174 42.1807 170.45 41.8221 170.546 41.5023C170.649 41.1825 170.701 40.0849 170.701 38.2094C170.701 36.3339 170.641 35.2104 170.52 34.8387C170.407 34.4671 170.126 34.1517 169.677 33.8924C169.236 33.6244 169.016 33.3479 169.016 33.0627C169.016 32.6651 169.314 32.3842 169.91 32.22C170.809 31.978 171.622 31.857 172.348 31.857C173.074 31.857 173.562 31.9391 173.812 32.1033C173.916 32.1725 174.033 32.3929 174.163 32.7645C174.301 33.1361 174.461 33.3219 174.642 33.3219C174.72 33.3219 174.884 33.2442 175.135 33.0886ZM186.41 33.3479H186.034C185.49 33.3479 184.967 33.6331 184.466 34.2035C183.973 34.7653 183.727 35.4394 183.727 36.2259V36.4333C183.727 36.7531 183.904 36.913 184.258 36.913L184.388 36.9389H185.308L185.373 36.926L187.538 36.7963C187.668 36.7704 187.754 36.7574 187.797 36.7574C188.238 36.7574 188.458 36.5284 188.458 36.0703V35.6425C188.458 35.0635 188.251 34.5363 187.836 34.0609C187.421 33.5856 186.946 33.3479 186.41 33.3479ZM183.882 39.5188C183.882 40.3831 184.288 41.1307 185.101 41.7616C185.706 42.2369 186.475 42.4746 187.408 42.4746C187.832 42.4746 188.458 42.3536 189.288 42.1116C190.126 41.8696 190.61 41.7486 190.74 41.7486C191.129 41.7486 191.324 41.9604 191.324 42.3839C191.324 42.8851 190.805 43.3951 189.768 43.9136C188.739 44.4235 187.672 44.6785 186.566 44.6785H185.995C185.978 44.6785 185.956 44.6785 185.93 44.6785C185.23 44.6785 184.517 44.5359 183.791 44.2507C182.357 43.6975 181.337 42.7296 180.732 41.3467C180.317 40.396 180.11 39.4929 180.11 38.6372V38.0409C180.11 37.168 180.261 36.3253 180.563 35.5129C181.134 33.9831 182.141 32.8812 183.584 32.207C184.448 31.8095 185.356 31.6107 186.306 31.6107H186.605C188.013 31.6107 189.202 32.0471 190.17 32.9201C190.68 33.3868 191.069 33.9485 191.336 34.6054C191.613 35.2622 191.751 35.9321 191.751 36.6148C191.751 37.289 191.419 37.7341 190.753 37.9501C189.82 38.2526 188.091 38.4039 185.567 38.4039C184.893 38.4039 184.444 38.4903 184.219 38.6632C183.994 38.8274 183.882 39.1126 183.882 39.5188ZM199.163 42.7987H199.384C200.17 42.7987 200.754 42.5005 201.134 41.9042C201.393 41.498 201.523 40.5862 201.523 39.1688V37.3667C201.523 35.8716 201.367 34.8517 201.056 34.3072C200.754 33.7541 200.162 33.4775 199.28 33.4775H199.163C198.368 33.4775 197.698 33.888 197.154 34.7091C196.609 35.5215 196.337 36.5241 196.337 37.7168V38.5594C196.337 39.6657 196.549 40.5732 196.972 41.2819C197.577 42.2931 198.308 42.7987 199.163 42.7987ZM201.043 31.9996C201.449 31.9996 201.652 31.5329 201.652 30.5995C201.652 29.0784 201.324 28.0283 200.667 27.4492C200.175 27.0257 199.928 26.7448 199.928 26.6065C199.928 26.33 200.334 26.0621 201.147 25.8028C201.959 25.5435 202.698 25.4138 203.364 25.4138C204.029 25.4138 204.461 25.4873 204.66 25.6342C204.868 25.7812 205.006 26.1009 205.075 26.5936C205.153 27.0862 205.192 29.4846 205.192 33.7887C205.192 38.0841 205.239 40.5127 205.334 41.0745C205.429 41.6276 205.606 42.0641 205.866 42.3839C205.883 42.4098 206.047 42.5351 206.358 42.7598C206.67 42.9845 206.825 43.1703 206.825 43.3173V43.5377C206.825 43.6673 206.739 43.8056 206.566 43.9525C206.047 44.3846 204.928 44.6007 203.208 44.6007C202.759 44.6007 202.413 44.4451 202.171 44.134C201.929 43.8229 201.799 43.6673 201.782 43.6673C201.618 43.6759 201.337 43.784 200.939 43.9914C200.015 44.4927 199.159 44.7433 198.373 44.7433C198.355 44.7433 198.342 44.7433 198.334 44.7433H197.997C197.366 44.7433 196.739 44.5964 196.117 44.3025C194.829 43.6975 193.922 42.6604 193.394 41.1912C193.126 40.4306 192.992 39.6657 192.992 38.8965V38.5465C192.992 38.5206 192.992 38.4989 192.992 38.4817C192.992 37.4877 193.17 36.5543 193.524 35.6814C194.535 33.1664 196.385 31.9089 199.073 31.9089C199.738 31.9089 200.131 31.9132 200.252 31.9218L200.525 31.9478C200.818 31.9823 200.991 31.9996 201.043 31.9996ZM224.086 32.1163C225.538 32.1163 226.264 32.9762 226.264 34.6961C226.264 35.8629 226.619 37.2112 227.327 38.7409C227.509 39.1299 227.673 39.3243 227.82 39.3243C228.105 39.3243 228.442 38.8058 228.831 37.7686C229.229 36.7229 229.428 35.6944 229.428 34.6832L229.415 34.2683L229.337 33.9053V33.2701C229.337 32.8552 229.527 32.5441 229.907 32.3367C230.296 32.1206 230.962 32.0126 231.904 32.0126C232.846 32.0126 233.317 32.2805 233.317 32.8163C233.317 33.0756 233.127 33.4127 232.746 33.8275C232.375 34.2338 232.098 34.6572 231.917 35.098C231.735 35.5388 231.549 36.0574 231.359 36.6537C231.169 37.2501 230.746 38.4644 230.089 40.2966C229.441 42.1289 229.078 43.1185 229 43.2654C228.594 44.0605 228.01 44.4581 227.25 44.4581C226.783 44.4581 226.372 44.121 226.018 43.4469C225.888 43.1963 225.448 42.1462 224.696 40.2966C223.944 38.4471 223.546 37.5223 223.503 37.5223C223.391 37.5223 222.954 38.4557 222.194 40.3226C221.442 42.1807 220.975 43.2697 220.794 43.5895C220.482 44.134 220.029 44.4062 219.432 44.4062C218.836 44.4062 218.304 43.9698 217.838 43.0969C217.682 42.803 217.259 41.7011 216.567 39.791C215.876 37.8723 215.37 36.55 215.05 35.824C214.731 35.098 214.368 34.4801 213.961 33.9702C213.555 33.4516 213.352 33.1405 213.352 33.0367C213.352 32.7429 213.473 32.4966 213.715 32.2978C213.966 32.0904 214.35 31.9866 214.869 31.9866H215.867C217.164 31.9866 218.002 32.3151 218.382 32.9719C218.495 33.1621 218.641 33.8448 218.823 35.0202C219.013 36.187 219.156 36.926 219.251 37.2371C219.648 38.5076 220.024 39.1428 220.379 39.1428C220.664 39.1428 220.953 38.7193 221.247 37.8723C221.541 37.0254 221.688 36.1352 221.688 35.2017L221.675 34.7739L221.649 34.3331C221.649 33.4775 221.865 32.8941 222.297 32.583C222.738 32.2719 223.334 32.1163 224.086 32.1163ZM240.327 33.0886C241.329 32.3972 242.185 32.0515 242.894 32.0515C243.603 32.0515 244.082 32.2027 244.333 32.5052C244.592 32.8077 244.722 33.1707 244.722 33.5942C244.722 34.0177 244.605 34.398 244.372 34.735C244.147 35.0635 243.888 35.2277 243.594 35.2277C243.309 35.2277 242.911 35.1153 242.401 34.8906C241.891 34.6659 241.498 34.5535 241.221 34.5535C240.945 34.5535 240.634 34.7005 240.288 34.9943C239.942 35.2882 239.7 35.7073 239.562 36.2518C239.432 36.7963 239.368 37.652 239.368 38.8187C239.368 39.9769 239.45 40.7288 239.614 41.0745C239.778 41.4115 240.115 41.8566 240.625 42.4098C241.135 42.9629 241.39 43.4167 241.39 43.771C241.39 44.1859 240.387 44.3933 238.382 44.3933H237.267L236.995 44.3803C236.814 44.3717 236.628 44.3674 236.438 44.3674L236.165 44.3544C235.984 44.3458 235.794 44.3414 235.595 44.3414C234.688 44.3414 234.234 44.147 234.234 43.758C234.234 43.3691 234.459 42.9759 234.908 42.5783C235.366 42.1807 235.643 41.8221 235.738 41.5023C235.841 41.1825 235.893 40.0849 235.893 38.2094C235.893 36.3339 235.833 35.2104 235.712 34.8387C235.599 34.4671 235.318 34.1517 234.869 33.8924C234.428 33.6244 234.208 33.3479 234.208 33.0627C234.208 32.6651 234.506 32.3842 235.102 32.22C236.001 31.978 236.814 31.857 237.54 31.857C238.266 31.857 238.754 31.9391 239.005 32.1033C239.108 32.1725 239.225 32.3929 239.355 32.7645C239.493 33.1361 239.653 33.3219 239.834 33.3219C239.912 33.3219 240.076 33.2442 240.327 33.0886ZM246.909 27.5918C246.909 27.0905 247.104 26.667 247.493 26.3213C247.89 25.9756 248.318 25.8028 248.776 25.8028H249.191C249.321 25.8287 249.429 25.8417 249.515 25.8417C249.93 25.8417 250.297 26.0275 250.617 26.3991C250.937 26.7708 251.097 27.1251 251.097 27.4622V27.7992C251.079 27.8857 251.071 27.9505 251.071 27.9937C251.071 28.3567 250.868 28.7111 250.461 29.0568C250.055 29.4025 249.606 29.5753 249.113 29.5753H248.711C248.227 29.5753 247.808 29.4241 247.454 29.1216C247.108 28.8104 246.935 28.4561 246.935 28.0585L246.909 27.9289V27.5918ZM249.372 44.4581H248.141C246.991 44.4581 246.3 44.4279 246.067 44.3674C245.842 44.2982 245.73 44.1124 245.73 43.8099C245.73 43.4988 245.946 43.1271 246.378 42.695C246.81 42.2629 247.082 41.8307 247.194 41.3986C247.307 40.9578 247.363 39.8213 247.363 37.989C247.363 36.1481 247.315 35.0635 247.22 34.735C247.125 34.4066 246.827 34.1257 246.326 33.8924C245.833 33.6504 245.587 33.3652 245.587 33.0367C245.587 32.6997 245.816 32.4534 246.274 32.2978C247.311 31.9521 248.456 31.7792 249.709 31.7792H249.904C250.405 31.7792 250.695 31.991 250.773 32.4145C250.816 32.6565 250.837 34.1084 250.837 36.7704C250.837 39.4237 250.894 40.9794 251.006 41.4375C251.127 41.8869 251.429 42.3666 251.913 42.8765C252.397 43.3864 252.639 43.7062 252.639 43.8358V43.9914C252.639 44.3025 251.55 44.4581 249.372 44.4581ZM253.945 33.6461C253.565 33.3868 253.375 33.1361 253.375 32.8941C253.375 32.6435 253.604 32.3972 254.062 32.1552C254.52 31.9132 254.805 31.7187 254.918 31.5718C255.03 31.4249 255.207 31.0187 255.449 30.3532C255.7 29.6877 255.963 29.1778 256.24 28.8234C256.516 28.4604 256.879 28.2789 257.329 28.2789C257.778 28.2789 258.102 28.4604 258.301 28.8234C258.388 28.9876 258.5 29.3765 258.638 29.9902C258.785 30.6038 258.958 30.9971 259.157 31.1699C259.356 31.3428 259.736 31.5372 260.298 31.7533C260.859 31.9607 261.149 32.0688 261.166 32.0774C261.46 32.3107 261.607 32.5873 261.607 32.9071C261.607 33.1837 261.197 33.43 260.375 33.6461C259.563 33.8621 259.04 34.1905 258.807 34.6313C258.582 35.0721 258.47 36.174 258.47 37.9372C258.47 39.7003 258.604 40.8454 258.872 41.3727C259.148 41.8999 259.598 42.1635 260.22 42.1635L260.687 42.1246C260.894 42.1073 261.119 42.0986 261.361 42.0986C261.888 42.0986 262.152 42.2974 262.152 42.695C262.152 43.2049 261.832 43.6111 261.192 43.9136C260.276 44.3458 259.308 44.5618 258.288 44.5618C257.813 44.5618 257.338 44.4322 256.862 44.1729C256.387 43.9136 256.024 43.5982 255.773 43.2265C255.281 42.5005 255.034 41.4634 255.034 40.1151L255.021 39.8429C255.013 39.6527 255.008 39.441 255.008 39.2076V38.4428C255.008 36.9476 254.887 35.6728 254.645 34.6184C254.559 34.2294 254.326 33.9053 253.945 33.6461ZM264.533 27.5918C264.533 27.0905 264.728 26.667 265.117 26.3213C265.514 25.9756 265.942 25.8028 266.4 25.8028H266.815C266.945 25.8287 267.053 25.8417 267.139 25.8417C267.554 25.8417 267.921 26.0275 268.241 26.3991C268.561 26.7708 268.721 27.1251 268.721 27.4622V27.7992C268.704 27.8857 268.695 27.9505 268.695 27.9937C268.695 28.3567 268.492 28.7111 268.086 29.0568C267.679 29.4025 267.23 29.5753 266.737 29.5753H266.336C265.852 29.5753 265.432 29.4241 265.078 29.1216C264.732 28.8104 264.559 28.4561 264.559 28.0585L264.533 27.9289V27.5918ZM266.997 44.4581H265.765C264.616 44.4581 263.924 44.4279 263.691 44.3674C263.466 44.2982 263.354 44.1124 263.354 43.8099C263.354 43.4988 263.57 43.1271 264.002 42.695C264.434 42.2629 264.706 41.8307 264.819 41.3986C264.931 40.9578 264.987 39.8213 264.987 37.989C264.987 36.1481 264.94 35.0635 264.845 34.735C264.75 34.4066 264.451 34.1257 263.95 33.8924C263.457 33.6504 263.211 33.3652 263.211 33.0367C263.211 32.6997 263.44 32.4534 263.898 32.2978C264.935 31.9521 266.081 31.7792 267.334 31.7792H267.528C268.029 31.7792 268.319 31.991 268.397 32.4145C268.44 32.6565 268.462 34.1084 268.462 36.7704C268.462 39.4237 268.518 40.9794 268.63 41.4375C268.751 41.8869 269.054 42.3666 269.538 42.8765C270.022 43.3864 270.264 43.7062 270.264 43.8358V43.9914C270.264 44.3025 269.175 44.4581 266.997 44.4581ZM286.18 43.4988C286.18 43.8185 285.916 44.0562 285.389 44.2118C284.871 44.3587 283.993 44.4322 282.758 44.4322C281.53 44.4322 280.796 44.3458 280.554 44.1729C280.312 44 280.191 43.7969 280.191 43.5636C280.191 43.3216 280.299 42.9586 280.515 42.4746C280.739 41.9906 280.878 41.6017 280.93 41.3078C280.981 41.014 281.007 40.0201 281.007 38.3261C281.007 36.6321 280.86 35.4783 280.567 34.8647C280.281 34.2424 279.715 33.9313 278.868 33.9313C278.021 33.9313 277.334 34.2986 276.807 35.0332C276.453 35.5258 276.276 36.429 276.276 37.7427C276.276 39.912 276.474 41.5023 276.872 42.5135C277.114 43.1012 277.235 43.4815 277.235 43.6543C277.235 43.9828 277.036 44.1902 276.638 44.2766C276.241 44.3544 275.377 44.3933 274.046 44.3933C272.723 44.3933 271.924 44.3069 271.647 44.134C271.371 43.9525 271.232 43.7105 271.232 43.408C271.232 43.1055 271.462 42.803 271.92 42.5005C272.378 42.198 272.637 41.9258 272.697 41.6838C272.758 41.4332 272.788 40.3355 272.788 38.3909C272.788 36.4377 272.723 35.2968 272.594 34.9684C272.464 34.6313 272.205 34.2424 271.816 33.8016C271.427 33.3608 271.232 33.1361 271.232 33.1275V32.8552C271.232 32.7083 271.341 32.5744 271.557 32.4534C272.308 32.0212 273.428 31.8051 274.914 31.8051C275.329 31.8051 275.675 32.0083 275.951 32.4145C276.237 32.8207 276.444 33.0238 276.574 33.0238C276.703 33.0238 277.006 32.8855 277.481 32.6089C277.965 32.3237 278.229 32.1725 278.272 32.1552C278.963 31.8354 279.607 31.6755 280.204 31.6755H280.618C282.131 31.6755 283.211 32.2805 283.86 33.4905C284.274 34.277 284.482 36.1654 284.482 39.1558C284.482 40.7547 284.534 41.6665 284.637 41.8912C284.741 42.1159 285.022 42.3752 285.48 42.6691C285.947 42.9543 286.18 43.2308 286.18 43.4988ZM294.292 35.5518L294.266 35.111C294.266 34.4455 294.085 33.8837 293.722 33.4257C293.367 32.959 292.948 32.7256 292.464 32.7256H292.309C291.868 32.7256 291.479 32.9806 291.142 33.4905C290.805 33.9918 290.636 34.5881 290.636 35.2795V35.9407C290.636 36.7704 290.831 37.4661 291.22 38.0279C291.617 38.5897 292.049 38.8706 292.516 38.8706H292.607C293.048 38.8706 293.432 38.6588 293.761 38.2353C294.098 37.8032 294.266 37.3062 294.266 36.7445L294.279 36.6667L294.292 36.5759L294.305 36.3037V35.6425L294.292 35.5518ZM295.005 44.5229C294.59 44.4538 294.227 44.4192 293.916 44.4192L293.812 44.4062L293.722 44.3933L293.138 44.3544C293.069 44.3458 293.009 44.3414 292.957 44.3414L292.529 44.3025H292.244L292.153 44.3155L291.881 44.3285L291.531 44.3674C291.116 44.3674 290.74 44.5489 290.403 44.9118C290.066 45.2835 289.897 45.7243 289.897 46.2342V46.5064C289.897 47.0596 290.109 47.4831 290.533 47.7769C290.965 48.0794 291.509 48.2307 292.166 48.2307H292.736C293.843 48.2307 294.811 47.9282 295.64 47.3232C296.159 46.9429 296.418 46.407 296.418 45.7156L296.405 45.6249C296.405 45.357 296.289 45.1063 296.055 44.873C295.822 44.6396 295.472 44.5229 295.005 44.5229ZM299.413 32.1422C299.577 32.3064 299.659 32.5657 299.659 32.9201C299.659 33.2744 299.486 33.5294 299.141 33.6849C298.553 33.9442 298.242 34.1084 298.207 34.1776C298.104 34.3764 298.052 34.6961 298.052 35.1369L298.065 35.474C298.091 35.8283 298.104 36.0876 298.104 36.2518C298.104 36.8136 297.961 37.3624 297.676 37.8983C296.898 39.3848 295.463 40.2534 293.372 40.5041C292.447 40.6164 291.967 40.6769 291.933 40.6856C291.388 40.8671 291.116 41.1393 291.116 41.5023C291.116 41.8221 291.289 42.0425 291.635 42.1635C291.98 42.2758 292.935 42.3839 294.5 42.4876C296.073 42.5913 297.131 42.7901 297.676 43.0839C298.229 43.3778 298.626 43.7192 298.868 44.1081C299.119 44.4884 299.244 45.0242 299.244 45.7156C299.244 46.407 299.046 47.038 298.648 47.6084C297.836 48.7752 296.557 49.6005 294.811 50.0845C293.946 50.3265 293.048 50.4475 292.114 50.4475H291.712C290.122 50.4475 288.903 50.1493 288.056 49.553C287.218 48.9653 286.799 48.2436 286.799 47.388C286.799 46.8176 286.985 46.2731 287.356 45.7545C287.425 45.6594 287.607 45.4477 287.901 45.1193C288.203 44.7909 288.355 44.5402 288.355 44.3674C288.355 44.3501 288.199 44.1254 287.888 43.6932C287.577 43.2524 287.421 42.8117 287.421 42.3709C287.421 41.9301 287.655 41.4072 288.121 40.8022C288.588 40.1972 288.821 39.8559 288.821 39.7781C288.821 39.7003 288.592 39.4108 288.134 38.9095C287.685 38.3909 287.356 37.76 287.149 37.0167C287.08 36.7661 287.045 36.5068 287.045 36.2389C287.045 36.2129 287.045 36.1827 287.045 36.1481C287.045 35.6555 287.145 35.1585 287.343 34.6572C287.672 33.8275 288.203 33.188 288.938 32.7386C289.949 32.1076 291.125 31.7922 292.464 31.7922H292.853C292.922 31.7922 293.432 31.8268 294.383 31.8959L295.083 31.9737C295.472 32.0169 295.697 32.0385 295.757 32.0385L298.57 31.8829C298.976 31.8829 299.257 31.9694 299.413 32.1422Z" fill="#242424"/>
<path d="M17.8129 22.8338C17.8065 22.8627 17.8006 22.8918 17.7953 22.9211C17.6793 23.561 17.8622 24.2119 17.9979 24.8341C18.1387 25.4803 18.2792 26.1265 18.4191 26.7728C19.0351 29.6177 19.6413 32.4647 20.2279 35.3158C20.8182 38.1841 21.3888 41.0566 21.9289 43.9348C22.4624 46.7781 22.9663 49.6271 23.4267 52.4831C23.5159 53.0363 24.0072 53.3008 24.5194 53.0735C24.5645 53.0535 24.6108 53.0322 24.6626 53.0108C24.7479 52.9755 24.7086 52.8398 24.696 52.7483C23.4951 44.0531 21.9262 34.6552 20.0656 26.0859C19.8942 25.2967 19.5085 24.636 19.2604 23.8684C19.123 23.4435 19.1091 22.8936 18.9519 22.4481C18.8867 22.2632 18.8203 22.0787 18.7515 21.895C18.7265 21.8284 18.5023 21.4256 18.5198 21.3984C18.2276 21.8481 17.9293 22.3125 17.8129 22.8338Z" fill="#242424"/>
<path d="M52.4872 23.1119C52.4309 23.1119 52.3741 23.1012 52.3195 23.0781C52.0993 22.9853 51.9963 22.7313 52.0886 22.5118C52.1551 22.3547 52.1038 21.9815 51.8398 21.5001C51.4519 20.7924 50.6789 20.011 49.9521 19.8866C49.7168 19.8466 49.5586 19.6231 49.5986 19.3878C49.6391 19.1519 49.8666 18.9915 50.0974 19.0343C51.1468 19.2133 52.1095 20.1934 52.5981 21.0846C52.9742 21.7698 53.0761 22.3958 52.8858 22.8473C52.816 23.0128 52.6556 23.1119 52.4872 23.1119Z" fill="#242424"/>
<path d="M37.5835 30.1445C38.0365 30.5737 38.3645 31.2036 38.757 31.6887C38.2859 31.8137 37.8148 31.9387 37.3437 32.0637C36.8459 32.1957 37.0168 31.7925 37.1023 31.4713C37.2069 31.0786 37.4319 30.5215 37.5835 30.1445Z" fill="#242424"/>
<path d="M52.5438 22.6111C53.0723 22.1464 53.5851 21.664 54.0812 21.1648C54.34 20.9043 54.6081 20.6111 54.6489 20.2461C54.7002 19.7865 54.3772 19.3756 54.053 19.0458C53.6907 18.6772 53.2766 18.322 52.7709 18.2157C52.2528 18.1067 51.7074 18.284 51.3047 18.6149C50.9889 18.8744 50.5338 19.3741 50.6914 19.8225C50.8509 20.2762 51.4356 20.4785 51.7183 20.8725C52.0577 21.3456 52.346 22.0633 52.5438 22.6111Z" fill="#242424"/>
<path d="M26.8749 49.4633C26.6882 49.7031 26.9726 49.9955 27.2019 50.1172C34.248 48.4123 41.7505 46.7092 48.9171 45.6165C49.1155 45.3632 49.2972 45.0315 49.1094 44.5586C46.5014 45.0317 43.4582 45.4086 40.8502 45.8816C36.0761 46.7477 31.4262 47.7816 26.8749 49.4633Z" fill="#242424"/>
<path d="M24.5188 53.0266C24.4316 53.0266 24.3454 53.0002 24.2723 52.9495C24.1726 52.8803 24.1067 52.7722 24.0904 52.6517C23.2015 46.0232 22.3182 40.1817 21.4658 35.2905C21.4607 35.2635 21.4529 35.2275 21.4495 35.1836C20.5701 30.1651 19.7819 26.4022 19.0416 23.6813C19.0394 23.6751 19.0377 23.6689 19.036 23.6627L19.0163 23.6025L19.0185 23.6014C19.014 23.594 19.0101 23.5867 19.0061 23.5788C18.9392 23.4449 18.9437 23.2805 19.0225 23.1527C19.1919 22.8791 19.6496 22.9157 19.7802 23.1893C19.7932 23.2118 19.8045 23.236 19.8129 23.2602C19.8129 23.2608 19.8332 23.3193 19.8337 23.3199L19.8619 23.4083C19.8664 23.4206 19.8703 23.433 19.8737 23.4454C20.623 26.1978 21.4191 29.9974 22.3058 35.0603C22.3103 35.085 22.3125 35.1104 22.3125 35.1351C23.1525 39.9317 24.0161 45.6291 24.8865 52.082C31.9676 50.6914 39.176 50.0789 46.1508 49.4861L46.2172 49.4804C46.0348 48.3916 45.8479 47.2814 45.6571 46.1538C45.6171 45.9185 45.7759 45.6955 46.0112 45.6555C46.2403 45.6105 46.4694 45.7738 46.5094 46.0097C46.7284 47.3028 46.9423 48.5735 47.1501 49.8148C47.1743 49.9584 47.1248 50.1042 47.0183 50.2033C46.9181 50.2962 46.7802 50.3345 46.6462 50.312L46.224 50.3474C39.1743 50.947 31.8843 51.5663 24.7536 52.9895L24.6151 53.0159C24.583 53.0233 24.5509 53.0266 24.5188 53.0266Z" fill="#242424"/>
<path d="M43.2371 30.1058C42.9984 30.1058 42.8047 29.915 42.8047 29.6763V29.6706C42.8047 29.4319 42.9984 29.2383 43.2371 29.2383C43.4758 29.2383 43.6694 29.4319 43.6694 29.6706C43.6694 29.9094 43.4758 30.1058 43.2371 30.1058Z" fill="#242424"/>
<path d="M27.1636 49.8279C27.0736 49.8279 26.984 49.7998 26.9092 49.7452C26.814 49.6759 26.7521 49.5712 26.7358 49.4564C26.7352 49.4535 26.7346 49.4507 26.7341 49.4479L23.5904 37.8708L20.9134 29.1024L19.8263 25.8703C19.7374 25.6153 19.6478 25.3614 19.5578 25.108L19.2549 24.2675C19.211 24.1465 19.1688 24.0305 19.1192 23.9083C19.0821 23.8154 19.0477 23.7242 19.0156 23.6325C19.0015 23.5931 18.9892 23.5503 18.9773 23.5075C18.9678 23.4748 18.9599 23.4411 18.9464 23.4112C18.8861 23.2789 18.8315 23.1337 18.7792 22.9924L18.3947 21.9998C18.3924 21.9942 18.3868 21.9779 18.3817 21.9627C18.2837 21.8473 18.2528 21.6896 18.3006 21.5455C18.3496 21.3997 18.4718 21.291 18.6221 21.2589C20.9697 20.7658 23.1327 20.3435 25.2343 19.9692C27.8364 19.5041 30.3411 19.1275 32.8908 18.8173C35.096 18.5426 37.4273 18.3095 40.0159 18.1046L41.25 18.0122C41.4881 18.001 41.6947 18.1749 41.711 18.4136C41.7274 18.6518 41.5478 18.8584 41.3096 18.8747L40.0806 18.967C37.5084 19.1703 35.19 19.4022 32.9967 19.6753C30.4616 19.9838 27.9726 20.3582 25.3863 20.8204C23.4497 21.1655 21.4612 21.5511 19.3224 21.9959L19.5893 22.6906C19.6349 22.8128 19.6816 22.9389 19.7334 23.0532C19.7644 23.1218 19.7875 23.1962 19.8089 23.271L19.8319 23.3465C19.8595 23.427 19.8894 23.5058 19.9209 23.5846C19.9738 23.7147 20.02 23.8408 20.0678 23.9719L20.3724 24.8175C20.463 25.0731 20.5537 25.3293 20.6426 25.586L22.5568 31.4129L25.8868 42.8475L27.4727 48.8427C32.4427 47.2765 37.6604 46.3487 42.7114 45.4508C43.7682 45.2627 44.8232 45.0753 45.8726 44.8827C46.6985 44.7301 47.5244 44.5736 48.3463 44.4126C47.0126 39.7579 45.5337 34.7395 44.1026 29.8821L43.8554 29.0444C43.7879 28.8153 43.919 28.5749 44.1482 28.5073C44.3756 28.4414 44.6177 28.5715 44.6853 28.8001L44.9318 29.6378C46.4001 34.6207 47.9185 39.7731 49.2645 44.4847C49.2859 44.5455 49.3034 44.5984 49.3169 44.657C49.3462 44.7853 49.3152 44.9199 49.233 45.0229C49.1514 45.1259 49.027 45.1856 48.8952 45.1856C47.9725 45.3686 47.0014 45.5538 46.0291 45.7328C44.9774 45.9259 43.9213 46.1139 42.8629 46.302C37.6902 47.2219 32.3425 48.1728 27.2971 49.8071C27.2531 49.8212 27.2081 49.8279 27.1636 49.8279Z" fill="#242424"/>
<path d="M42.9772 24.9374C42.7897 24.9374 42.6169 24.8147 42.5617 24.6255C41.9672 22.5752 41.384 20.5603 40.8238 18.614C40.7579 18.3849 40.8902 18.1451 41.1199 18.0792C41.3462 18.0139 41.5883 18.1456 41.6548 18.3753C42.2149 20.3204 42.7982 22.3353 43.3927 24.3846C43.4591 24.6137 43.3268 24.8536 43.0977 24.9205C43.0571 24.9318 43.0166 24.9374 42.9772 24.9374Z" fill="#242424"/>
<path d="M36.3848 32.737C36.27 32.737 36.158 32.6908 36.0758 32.6069C35.9711 32.5 35.9294 32.3463 35.9649 32.201C36.203 31.2389 36.5661 30.3854 36.9861 29.3979C37.1691 28.9673 37.3639 28.5096 37.5637 28.0051C37.5936 27.9291 37.6448 27.8638 37.7107 27.8154L50.899 18.1704C51.9946 17.3682 53.5586 17.8163 54.3304 18.7379C54.7757 19.2699 54.9868 20.0333 54.8962 20.781C54.8185 21.4188 54.5263 21.9525 54.0742 22.283L41.1747 31.7169C41.1398 31.7422 41.1015 31.7625 41.0604 31.7765C40.1292 32.098 38.9357 32.2962 37.8824 32.4713C37.3571 32.5585 36.8611 32.6413 36.4794 32.7263C36.4479 32.7336 36.4164 32.737 36.3848 32.737ZM38.3215 28.4398C38.1346 28.9059 37.9533 29.3326 37.7816 29.7363C37.4782 30.4507 37.2051 31.092 36.9946 31.745C37.231 31.7028 37.4821 31.6611 37.7405 31.6183C38.7364 31.4528 39.8618 31.2654 40.7181 30.9799L53.5642 21.5849C53.8209 21.3969 53.9892 21.0743 54.0376 20.6763C54.0996 20.1696 53.9571 19.6398 53.6672 19.293C53.1583 18.685 52.0847 18.3748 51.4091 18.8685L38.3215 28.4398Z" fill="#242424"/>
<path d="M40.7604 31.8374C40.6625 31.8374 40.5645 31.8047 40.484 31.7372C40.3005 31.5846 40.2751 31.3121 40.4283 31.1286C40.4908 31.0272 40.4722 30.578 40.3675 30.2982C40.3044 30.1299 39.9739 29.8754 39.7786 29.8439C39.6136 29.818 39.4791 29.6992 39.4318 29.5387C39.3704 29.3293 39.2297 29.1413 39.0461 29.0225C38.808 28.8677 38.3053 28.701 38.1448 28.7292C37.9095 28.7652 37.6905 28.5957 37.6584 28.3587C37.6263 28.1223 37.7918 27.9044 38.0288 27.8723C38.5203 27.8064 39.2381 28.1166 39.5168 28.2962C39.8067 28.4843 40.0347 28.7511 40.1755 29.0624C40.6045 29.2285 41.0352 29.6164 41.177 29.9942C41.2834 30.2779 41.4962 31.1967 41.0926 31.6814C41.0076 31.7845 40.8843 31.8374 40.7604 31.8374Z" fill="#242424"/>
<path d="M40.2654 29.5506C40.1309 29.5506 39.9986 29.4881 39.9141 29.371C39.7745 29.1768 39.8184 28.9071 40.0121 28.7675C40.8076 28.195 41.6346 27.6083 42.4763 27.011C45.4055 24.9336 48.4337 22.7859 50.9981 20.6251C51.1799 20.4714 51.4535 20.4945 51.6072 20.6769C51.7615 20.8593 51.7379 21.1324 51.5554 21.2861C48.9635 23.4704 45.92 25.6289 42.9768 27.7164C42.1362 28.3126 41.3115 28.8976 40.5177 29.469C40.4411 29.5242 40.3527 29.5506 40.2654 29.5506Z" fill="#242424"/>
<path d="M24.2128 26.079C24.0141 26.079 23.8351 25.9411 23.7911 25.7389C23.7399 25.5059 23.888 25.2751 24.121 25.2244L33.3134 23.2174C33.5414 23.1656 33.7773 23.3136 33.8279 23.5473C33.8792 23.7809 33.7311 24.0112 33.498 24.0618L24.3057 26.0689C24.2747 26.0756 24.2438 26.079 24.2128 26.079Z" fill="#242424"/>
<path d="M24.7269 32.5907C24.5248 32.5907 24.3441 32.4483 24.3035 32.2422C24.2568 32.008 24.4094 31.7806 24.6436 31.7344L33.5206 29.9808C33.7548 29.9352 33.9823 30.0866 34.0284 30.3208C34.0752 30.555 33.9226 30.7824 33.6884 30.8286L24.8113 32.5823C24.7832 32.5879 24.7545 32.5907 24.7269 32.5907Z" fill="#242424"/>
<path d="M27.0642 39.5094C26.866 39.5094 26.687 39.3721 26.6425 39.1699C26.5913 38.9369 26.7382 38.7061 26.9719 38.6548L40.8324 35.5962C41.061 35.5449 41.2958 35.6913 41.3475 35.9255C41.3988 36.1586 41.2518 36.3894 41.0182 36.4406L27.1576 39.4993C27.1267 39.506 27.0951 39.5094 27.0642 39.5094Z" fill="#242424"/>
<path d="M31.2926 42.9615C31.0854 42.9615 30.9019 42.8117 30.867 42.6006C30.8276 42.3647 30.9863 42.1424 31.2216 42.103C32.6786 41.8586 34.1255 41.4944 35.5228 41.0198C35.7486 40.9415 35.9946 41.0637 36.0712 41.29C36.1483 41.5163 36.0272 41.7618 35.8009 41.8384C34.3597 42.3281 32.8672 42.7042 31.3646 42.9553C31.3404 42.9598 31.3162 42.9615 31.2926 42.9615Z" fill="#242424"/>
<path d="M20.2283 35.3128C21.3892 40.9548 22.5066 46.7714 23.427 52.4801C23.5162 53.0333 24.0075 53.2978 24.5197 53.0706C24.5776 53.0448 24.5249 53.0688 24.6667 53.004C26.5925 52.7307 28.789 51.8282 46.2241 50.3453L46.6464 50.3098C46.9501 50.3609 47.1991 50.1028 47.1502 49.8127C46.8029 47.7374 46.6793 47.0144 46.5087 46.0053C47.3144 45.8692 48.1184 45.7373 48.9169 45.6156C49.035 45.4648 49.1454 45.2852 49.1773 45.0655C49.195 45.0495 49.2176 45.0402 49.2327 45.0212C49.3149 44.9182 49.3458 44.7836 49.3166 44.6553C49.3031 44.5967 49.2856 44.5438 49.2642 44.483C47.9181 39.7714 46.3998 34.619 44.9315 29.6361L44.7701 29.0875L54.0743 22.283C54.5264 21.9525 54.8186 21.4188 54.8963 20.781C54.9869 20.0333 54.7758 19.2699 54.3305 18.7379C53.5586 17.8163 51.9947 17.3682 50.8991 18.1704L43.2208 23.7857C42.7009 21.9929 42.1898 20.2267 41.697 18.5162C41.7537 18.2009 41.5013 17.9987 41.2496 18.0106C33.2259 18.702 28.7951 19.1201 18.6218 21.2573C18.3927 21.3062 18.2402 21.529 18.2866 21.7641C18.0809 22.1005 17.8982 22.4503 17.8132 22.8308C17.6071 23.7569 17.8123 23.5716 20.2283 35.3128ZM46.2174 49.4783C39.0808 50.0848 31.9419 50.6944 24.8866 52.0798C24.0192 45.6486 22.8895 38.0031 21.6779 31.6058L23.5901 37.8691C26.8876 49.9964 26.7202 49.5071 26.8157 49.6414C26.8229 49.833 27.0276 50.0239 27.2018 50.1163C33.1867 48.6682 39.4994 47.2253 45.6573 46.1527C45.8481 47.28 46.035 48.3898 46.2174 49.4783ZM41.3056 30.5503C41.2355 30.0153 41.1087 29.7131 40.6646 29.3599C41.6894 28.6236 51.131 21.977 51.6368 21.1798C51.7115 21.2876 51.7812 21.3958 51.8398 21.5027C52.1039 21.9841 52.1551 22.3573 52.0887 22.5144C52.0648 22.5712 52.055 22.6301 52.0559 22.6881L41.3056 30.5503ZM37.0296 31.7391C37.0185 31.7411 37.0057 31.743 36.9946 31.745C37.0382 31.6099 37.0944 31.4738 37.143 31.339C37.1114 31.4438 37.0549 31.6331 37.0296 31.7391ZM38.5957 31.4721C38.2767 31.0339 37.9815 30.5337 37.6023 30.1666C37.6275 30.1066 38.0743 29.0428 38.2001 28.7357C38.3941 28.737 38.8268 28.8827 39.0461 29.0253C39.5392 29.3444 39.3309 29.7764 39.7786 29.8466C39.9739 29.8782 40.3044 30.1326 40.3674 30.301C40.4578 30.5423 40.4802 30.8966 40.4456 31.0581C39.8825 31.224 39.2405 31.3578 38.5957 31.4721ZM49.9966 19.9016C50.3782 19.9806 50.7679 20.2345 51.1081 20.5609C50.6543 20.7563 51.1192 20.8774 42.4764 27.007C42.2595 27.1609 40.1586 28.6494 39.9951 28.7819C39.7448 28.4258 39.4968 28.222 38.9039 28.0139L49.9966 19.9016ZM40.9088 18.9032C41.4164 20.6659 41.9419 22.4817 42.4775 24.3293C37.5189 27.9842 37.6468 27.7936 37.5638 28.0051C36.9134 29.6468 36.3077 30.8161 35.9649 32.201C35.9295 32.3463 35.9711 32.5 36.0758 32.6069C36.1826 32.7159 36.3378 32.7592 36.4795 32.7263C37.2908 32.5456 40.7021 32.06 41.1748 31.7169L44.0284 29.6299L44.1023 29.8804C45.5333 34.7378 47.0123 39.7562 48.346 44.4109C41.3142 45.7884 34.2264 46.7126 27.4724 48.841L25.8865 42.8459L22.5564 31.4112L20.6423 25.5843C20.4352 24.9866 19.8414 23.3421 19.8339 23.3178C19.8333 23.3172 19.813 23.2587 19.813 23.2581C19.7812 23.1667 19.837 23.3535 19.589 22.6889L19.3221 21.9942C28.626 20.0595 33.0096 19.5902 40.9088 18.9032Z" fill="#242424"/>
<path d="M24.3054 26.0649L33.4977 24.0579C33.7308 24.0073 33.8789 23.777 33.8276 23.5434C33.777 23.3097 33.5411 23.1617 33.3131 23.2135L24.1207 25.2205C23.8877 25.2711 23.7396 25.502 23.7908 25.735C23.8412 25.967 24.0705 26.1162 24.3054 26.0649Z" fill="#242424"/>
<path d="M24.6436 31.7305C24.4094 31.7767 24.2569 32.0041 24.3036 32.2383C24.3496 32.4725 24.5773 32.6252 24.8114 32.5784L33.6885 30.8247C33.9227 30.7785 34.0752 30.5511 34.0285 30.3169C33.9823 30.0827 33.7549 29.9313 33.5207 29.9769L24.6436 31.7305Z" fill="#242424"/>
<path d="M27.0641 39.5094C27.0951 39.5094 27.1266 39.506 27.1576 39.4993L41.0182 36.4406C41.2518 36.3894 41.3987 36.1586 41.3475 35.9255C41.2957 35.6913 41.061 35.5449 40.8324 35.5962L26.9718 38.6548C26.4688 38.7651 26.551 39.5094 27.0641 39.5094Z" fill="#242424"/>
<path d="M35.5229 41.012C34.1256 41.4866 32.6787 41.8508 31.2217 42.0951C30.9864 42.1346 30.8276 42.3569 30.867 42.5928C30.9019 42.8039 31.0855 42.9537 31.2926 42.9537C31.3163 42.9537 31.3405 42.952 31.3647 42.9475C32.8673 42.6964 34.3598 42.3203 35.801 41.8305C36.0273 41.754 36.1483 41.5085 36.0712 41.2822C35.9946 41.0559 35.7486 40.9337 35.5229 41.012Z" fill="#242424"/>
</svg>
