<svg width="203" height="262" viewBox="0 0 203 262" fill="none" xmlns="http://www.w3.org/2000/svg">
<path d="M94.0799 1.00781C94.0799 1.00781 13.636 48.317 17.9643 91.3143C19.2103 103.692 26.0296 114.336 34.7326 122.796M34.7326 122.796C48.9202 136.587 68.1134 144.571 76.3257 144.79C90.5706 145.169 105.492 134.002 102.825 123.844C100.186 113.795 81.1602 101.175 63.1524 107.755C56.3557 110.239 45.4893 115.149 34.7326 122.796ZM34.7326 122.796C16.7042 135.611 -1.01605 156.113 1.24828 185.759C6.67208 256.774 174.127 243.834 174.127 243.834M174.45 228.037C174.45 228.037 199.225 233.604 201.316 238.164C203.407 242.724 173.301 260.146 173.301 260.146" stroke="#242424" stroke-width="2" stroke-linejoin="round" stroke-dasharray="6 6"/>
</svg>
