<svg width="61" height="60" viewBox="0 0 61 60" fill="none" xmlns="http://www.w3.org/2000/svg">
<path d="M26.6831 39.404C27.4365 39.0273 28.2136 38.6427 29.0042 38.2514C33.1735 36.1898 37.898 33.8535 41.6506 31.2885C42.0707 31.0009 42.1481 30.4233 41.8398 30.0361C37.8113 24.9681 30.7825 19.4068 27.405 16.7338C26.8463 16.2971 26.0332 16.6725 26.004 17.3757C25.7044 24.409 25.5118 31.5571 25.4307 38.6208C25.4235 39.2651 26.1018 39.6947 26.6831 39.404Z" fill="#242424"/>
<path d="M28.9388 59.0862C37.3044 60.68 59.8956 60.081 59.8956 58.125C59.8956 57.121 52.9661 56.3027 44.2325 56.2445C56.3498 50.9561 62.0177 38.8664 60.6547 26.9403C60.4881 20.6542 57.9201 14.8045 53.0682 9.8085C44.6603 1.14785 33.4088 -1.78565 22.8377 1.04058L22.7854 1.02066C16.3573 1.85392 9.04187 6.40864 5.36722 11.6196C-6.85114 28.9465 2.11877 58.2032 28.9388 59.0862ZM12.3823 8.62934C22.1084 -0.454001 39.6747 -1.50698 51.8271 11.0136C57.3662 16.7167 59.9052 23.8271 58.6036 31.6003C57.2871 39.4557 53.8532 45.5131 48.3967 49.6047C41.039 55.1226 31.1091 56.6267 22.4913 53.5324C13.8498 50.4302 6.94264 42.6627 4.89519 33.743C2.74447 24.3762 6.0108 14.5803 12.3823 8.62934Z" fill="#242424"/>
</svg>
