<svg width="24" height="24" viewBox="0 0 24 24" fill="none" xmlns="http://www.w3.org/2000/svg">
<path opacity="0.2" d="M18.4992 14.8349L12.8013 16.9346L10.7016 22.6325C10.6436 22.7896 10.5389 22.9252 10.4015 23.0209C10.2641 23.1167 10.1006 23.168 9.93314 23.168C9.76566 23.168 9.60221 23.1167 9.4648 23.0209C9.3274 22.9252 9.22264 22.7896 9.16465 22.6325L7.06502 16.9346L1.36705 14.8349C1.20994 14.7769 1.07437 14.6722 0.978624 14.5348C0.882875 14.3974 0.831543 14.2339 0.831543 14.0664C0.831543 13.899 0.882875 13.7355 0.978624 13.5981C1.07437 13.4607 1.20994 13.3559 1.36705 13.298L7.06502 11.1983L9.16465 5.50035C9.22264 5.34324 9.3274 5.20767 9.4648 5.11192C9.60221 5.01618 9.76566 4.96484 9.93314 4.96484C10.1006 4.96484 10.2641 5.01618 10.4015 5.11192C10.5389 5.20767 10.6436 5.34324 10.7016 5.50035L12.8013 11.1983L18.4992 13.298C18.6563 13.3559 18.7919 13.4607 18.8876 13.5981C18.9834 13.7355 19.0347 13.899 19.0347 14.0664C19.0347 14.2339 18.9834 14.3974 18.8876 14.5348C18.7919 14.6722 18.6563 14.7769 18.4992 14.8349Z" fill="#0A0F0A"/>
<path d="M18.7851 12.5213L13.4501 10.5499L11.485 5.21081C11.3686 4.89466 11.158 4.6218 10.8817 4.42907C10.6054 4.23634 10.2766 4.133 9.9397 4.133C9.60281 4.133 9.27402 4.23634 8.99771 4.42907C8.72139 4.6218 8.51083 4.89466 8.39446 5.21081L6.41687 10.5499L1.07781 12.515C0.761654 12.6314 0.488802 12.842 0.29607 13.1183C0.103338 13.3946 0 13.7234 0 14.0603C0 14.3972 0.103338 14.726 0.29607 15.0023C0.488802 15.2786 0.761654 15.4892 1.07781 15.6055L6.41687 17.5831L8.38205 22.9222C8.49842 23.2383 8.70897 23.5112 8.98529 23.7039C9.26161 23.8967 9.5904 24 9.92729 24C10.2642 24 10.593 23.8967 10.8693 23.7039C11.1456 23.5112 11.3562 23.2383 11.4725 22.9222L13.4501 17.5831L18.7892 15.618C19.1053 15.5016 19.3782 15.291 19.5709 15.0147C19.7637 14.7384 19.867 14.4096 19.867 14.0727C19.867 13.7358 19.7637 13.407 19.5709 13.1307C19.3782 12.8544 19.1053 12.6438 18.7892 12.5275L18.7851 12.5213ZM12.5193 16.1579C12.4069 16.1993 12.3049 16.2645 12.2203 16.3492C12.1357 16.4338 12.0704 16.5358 12.029 16.6481L9.9335 22.3254L7.84214 16.6523C7.80081 16.5388 7.73514 16.4357 7.64973 16.3503C7.56432 16.2649 7.46124 16.1992 7.34775 16.1579L1.6746 14.0665L7.34775 11.9751C7.46124 11.9338 7.56432 11.8681 7.64973 11.7827C7.73514 11.6973 7.80081 11.5942 7.84214 11.4807L9.9335 5.8076L12.0249 11.4807C12.0663 11.5931 12.1315 11.6951 12.2162 11.7797C12.3008 11.8643 12.4028 11.9296 12.5151 11.971L18.1924 14.0665L12.5193 16.1579ZM13.2433 3.30976C13.2433 3.09031 13.3304 2.87985 13.4856 2.72468C13.6408 2.5695 13.8513 2.48232 14.0707 2.48232H15.7256V0.827441C15.7256 0.60799 15.8128 0.397527 15.9679 0.242352C16.1231 0.0871766 16.3336 0 16.553 0C16.7725 0 16.9829 0.0871766 17.1381 0.242352C17.2933 0.397527 17.3805 0.60799 17.3805 0.827441V2.48232H19.0354C19.2548 2.48232 19.4653 2.5695 19.6204 2.72468C19.7756 2.87985 19.8628 3.09031 19.8628 3.30976C19.8628 3.52922 19.7756 3.73968 19.6204 3.89485C19.4653 4.05003 19.2548 4.13721 19.0354 4.13721H17.3805V5.79209C17.3805 6.01154 17.2933 6.222 17.1381 6.37718C16.9829 6.53235 16.7725 6.61953 16.553 6.61953C16.3336 6.61953 16.1231 6.53235 15.9679 6.37718C15.8128 6.222 15.7256 6.01154 15.7256 5.79209V4.13721H14.0707C13.8513 4.13721 13.6408 4.05003 13.4856 3.89485C13.3304 3.73968 13.2433 3.52922 13.2433 3.30976ZM24 8.27441C24 8.49386 23.9128 8.70433 23.7576 8.8595C23.6025 9.01468 23.392 9.10185 23.1726 9.10185H22.3451V9.92929C22.3451 10.1487 22.2579 10.3592 22.1028 10.5144C21.9476 10.6696 21.7371 10.7567 21.5177 10.7567C21.2982 10.7567 21.0878 10.6696 20.9326 10.5144C20.7774 10.3592 20.6902 10.1487 20.6902 9.92929V9.10185H19.8628C19.6433 9.10185 19.4329 9.01468 19.2777 8.8595C19.1225 8.70433 19.0354 8.49386 19.0354 8.27441C19.0354 8.05496 19.1225 7.8445 19.2777 7.68932C19.4329 7.53415 19.6433 7.44697 19.8628 7.44697H20.6902V6.61953C20.6902 6.40008 20.7774 6.18962 20.9326 6.03444C21.0878 5.87927 21.2982 5.79209 21.5177 5.79209C21.7371 5.79209 21.9476 5.87927 22.1028 6.03444C22.2579 6.18962 22.3451 6.40008 22.3451 6.61953V7.44697H23.1726C23.392 7.44697 23.6025 7.53415 23.7576 7.68932C23.9128 7.8445 24 8.05496 24 8.27441Z" fill="#0A0F0A"/>
</svg>
