<svg width="40" height="40" viewBox="0 0 40 40" fill="none" xmlns="http://www.w3.org/2000/svg">
<rect x="6.10352e-05" width="40" height="40" rx="7" fill="#0A0F0A"/>
<path d="M29.3751 20C29.3751 20.2984 29.2565 20.5845 29.0456 20.7955C28.8346 21.0065 28.5484 21.125 28.2501 21.125H21.1251V28.25C21.1251 28.5484 21.0065 28.8345 20.7956 29.0455C20.5846 29.2565 20.2984 29.375 20.0001 29.375C19.7017 29.375 19.4155 29.2565 19.2046 29.0455C18.9936 28.8345 18.8751 28.5484 18.8751 28.25V21.125H11.7501C11.4517 21.125 11.1655 21.0065 10.9546 20.7955C10.7436 20.5845 10.6251 20.2984 10.6251 20C10.6251 19.7016 10.7436 19.4155 10.9546 19.2045C11.1655 18.9935 11.4517 18.875 11.7501 18.875H18.8751V11.75C18.8751 11.4516 18.9936 11.1655 19.2046 10.9545C19.4155 10.7435 19.7017 10.625 20.0001 10.625C20.2984 10.625 20.5846 10.7435 20.7956 10.9545C21.0065 11.1655 21.1251 11.4516 21.1251 11.75V18.875H28.2501C28.5484 18.875 28.8346 18.9935 29.0456 19.2045C29.2565 19.4155 29.3751 19.7016 29.3751 20Z" fill="#F5F9F5"/>
</svg>
