<svg width="18" height="16" viewBox="0 0 18 16" fill="none" xmlns="http://www.w3.org/2000/svg">
<path d="M0.705927 8.38124L7.17989 14.8552C7.28216 14.9505 7.41742 15.0024 7.55719 14.9999C7.69696 14.9974 7.83031 14.9408 7.92916 14.842C8.028 14.7431 8.08462 14.6098 8.08709 14.47C8.08955 14.3303 8.03767 14.195 7.94238 14.0927L2.39006 8.5395H16.9124C17.0555 8.5395 17.1927 8.48266 17.2939 8.38148C17.3951 8.28031 17.4519 8.14308 17.4519 8C17.4519 7.85692 17.3951 7.71969 17.2939 7.61852C17.1927 7.51734 17.0555 7.4605 16.9124 7.4605H2.39006L7.94238 1.90728C8.03767 1.80501 8.08955 1.66975 8.08709 1.52998C8.08462 1.39021 8.028 1.25686 7.92916 1.15801C7.83031 1.05917 7.69696 1.00255 7.55719 1.00008C7.41742 0.997618 7.28216 1.0495 7.17989 1.14479L0.705927 7.61876C0.604897 7.71991 0.548149 7.85703 0.548149 8C0.548149 8.14297 0.604897 8.28009 0.705927 8.38124Z" fill="#181B0E" stroke="#181B0E"/>
</svg>
