<svg width="141" height="150" viewBox="0 0 141 150" fill="none" xmlns="http://www.w3.org/2000/svg">
<path d="M78.7948 73.9099C97.3544 58.3732 104.455 50.4993 101.08 49.2339C99.3228 48.6012 98.5495 48.7417 95.4562 50.218C89.4806 53.1707 67.7574 71.7305 67.7574 73.9099C67.7574 76.9328 75.0688 77.0031 78.7948 73.9099Z" fill="#181B0E"/>
<path d="M30.0759 74.4723C32.3959 72.9257 32.2553 72.6445 23.2567 62.8726C18.4762 57.5996 14.5395 54.2955 11.6572 53.03C7.72029 51.2725 5.82208 53.6629 7.36872 55.6313C20.5852 72.6445 26.0687 77.1438 30.0759 74.4723Z" fill="#181B0E"/>
<path d="M41.7449 111.085L51.6506 139.387L62.9713 111.085L93.3959 100.472L60.8487 88.4434L51.6506 50.9434L41.7449 88.4434L9.19775 100.472L41.7449 111.085Z" fill="#FCD569"/>
<path d="M92.6443 97.3904C88.3559 96.125 66.4225 89.1652 64.8056 88.5324C64.0323 88.2512 63.4699 86.8452 63.1887 84.4549C60.8687 66.5984 57.2123 48.2492 55.5954 46.2105C54.4003 44.6639 50.3228 45.156 49.1979 46.9135C48.0731 48.671 42.8708 66.4578 39.7775 79.3932L37.7395 87.8294C-2.19206 100.484 -4.37154 100.202 13.696 105.756L29.6548 110.677C38.7237 113.489 38.9339 113.559 39.426 115.809C40.1291 119.043 44.6987 134.791 46.4562 142.313C50.1822 158.482 57.7754 148.5 64.4541 118.411L66.0007 111.521C66.8443 111.38 72.1865 110.888 95.2455 105.897C100.518 104.702 98.9714 99.2183 92.6443 97.3904ZM82.6615 100.835C82.0991 101.327 66.703 105.053 63.6801 105.053C60.0244 105.053 59.1808 106.811 55.033 123.332C52.2912 134.228 52.081 134.439 50.5344 128.112C48.6362 120.167 44.7689 110.888 44.2768 108.709C43.855 106.741 39.9181 105.335 24.6627 101.679C17.0002 99.851 15.8051 99.2183 18.6871 98.3747C22.2725 97.3201 39.4963 91.696 41.4648 91.696C43.3629 91.696 44.9799 90.29 45.5423 88.1809L51.0258 66.8093C52.01 63.0833 52.0107 63.0833 54.7525 77.6357C57.916 94.016 57.5638 93.3122 62.6255 94.3668C68.9527 95.7025 83.2942 100.273 82.6615 100.835Z" fill="#181B0E"/>
<path d="M17.0343 28.8033L21.3703 41.1918L26.3257 28.8033L39.6433 24.1576L25.3965 18.8924L21.3703 2.47766L17.0343 18.8924L2.78748 24.1576L17.0343 28.8033Z" fill="#FCD569"/>
<path d="M39.3143 22.8089C37.4371 22.255 27.8363 19.2085 27.1285 18.9315C26.79 18.8084 26.5438 18.1929 26.4207 17.1467C25.4052 9.33034 23.8047 1.29842 23.0969 0.406005C22.5738 -0.270999 20.7889 -0.0555889 20.2966 0.713734C19.8042 1.48306 17.527 9.26879 16.173 14.931L15.2809 18.6238C-2.19825 24.1629 -3.15227 24.0398 4.75637 26.4709L11.742 28.625C15.7117 29.8559 15.8037 29.8863 16.0191 30.8711C16.3269 32.2866 18.3271 39.1801 19.0964 42.4728C20.7274 49.5506 24.0512 45.1808 26.9746 32.01L27.6516 28.9942C28.0209 28.9327 30.3593 28.7173 40.4528 26.5324C42.7608 26.0093 42.0838 23.609 39.3143 22.8089ZM34.9445 24.3168C34.6983 24.5322 27.959 26.1631 26.6358 26.1631C25.0356 26.1631 24.6663 26.9325 22.8507 34.1641C21.6506 38.9339 21.5586 39.0259 20.8816 36.2563C20.0507 32.779 18.3579 28.7173 18.1425 27.7633C17.9578 26.9017 16.2346 26.2862 9.55683 24.686C6.20273 23.8859 5.67959 23.609 6.94113 23.2397C8.51055 22.7781 16.0499 20.3163 16.9116 20.3163C17.7424 20.3163 18.4502 19.7008 18.6964 18.7776L21.0967 9.42266C21.5275 7.79169 21.5278 7.79169 22.7279 14.1617C24.1127 21.3318 23.9586 21.0237 26.1742 21.4853C28.9438 22.07 35.2215 24.0706 34.9445 24.3168Z" fill="#181B0E"/>
<path d="M116.091 86.8222L120.427 99.2107L125.382 86.8222L138.7 82.1765L124.453 76.9114L120.427 60.4966L116.091 76.9114L101.844 82.1765L116.091 86.8222Z" fill="#FCD569"/>
<path d="M138.371 80.8277C136.494 80.2738 126.893 77.2272 126.185 76.9503C125.847 76.8272 125.6 76.2117 125.477 75.1655C124.462 67.3491 122.861 59.3172 122.154 58.4248C121.63 57.7478 119.846 57.9632 119.353 58.7325C118.861 59.5019 116.584 67.2876 115.23 72.9498L114.338 76.6426C96.8584 82.1817 95.9044 82.0586 103.813 84.4897L110.799 86.6438C114.768 87.8747 114.86 87.9051 115.076 88.8899C115.384 90.3054 117.384 97.1989 118.153 100.492C119.784 107.569 123.108 103.2 126.031 90.0288L126.708 87.013C127.078 86.9515 129.416 86.7361 139.509 84.5512C141.817 84.0281 141.14 81.6278 138.371 80.8277ZM134.001 82.3356C133.755 82.551 127.016 84.1819 125.692 84.1819C124.092 84.1819 123.723 84.9513 121.907 92.1829C120.707 96.9527 120.615 97.0447 119.938 94.2751C119.107 90.7978 117.415 86.7361 117.199 85.7821C117.014 84.9205 115.291 84.305 108.613 82.7048C105.259 81.9047 104.736 81.6278 105.998 81.2585C107.567 80.7969 115.107 78.3351 115.968 78.3351C116.799 78.3351 117.507 77.7196 117.753 76.7964L120.153 67.4415C120.584 65.8105 120.584 65.8105 121.785 72.1805C123.169 79.3506 123.015 79.0425 125.231 79.5041C128 80.0888 134.278 82.0894 134.001 82.3356Z" fill="#181B0E"/>
<path d="M69.8666 119.535C69.8666 121.082 88.4262 139.852 91.0273 140.907C96.5109 143.157 97.9169 140.203 93.5582 135.493C81.8178 122.628 69.8666 114.614 69.8666 119.535Z" fill="#181B0E"/>
<path d="M15.7347 124.035C2.23678 133.174 0.690071 135.283 7.43902 135.283C10.7432 135.283 31.6225 120.801 30.9898 118.903C30.0055 115.95 25.2953 117.497 15.7347 124.035Z" fill="#181B0E"/>
</svg>
