<svg width="146" height="24" viewBox="0 0 146 24" fill="none" xmlns="http://www.w3.org/2000/svg">
<path d="M25.2474 9.1713H15.6017L12.6325 0L9.64566 9.1713L-1.52588e-05 9.15373L7.80086 14.8287L4.81404 24L12.6149 18.325L20.4158 24L17.4465 14.8287L25.2474 9.1713Z" fill="#00B67A"/>
<path d="M18.1145 16.9018L17.4469 14.8286L12.6328 18.325L18.1145 16.9018Z" fill="#005128"/>
<path d="M55.2945 9.1713H45.6489L42.6796 0L39.6928 9.1713L30.0471 9.15373L37.848 14.8287L34.8612 24L42.6621 18.325L50.4629 24L47.4937 14.8287L55.2945 9.1713Z" fill="#00B67A"/>
<path d="M48.1616 16.9028L47.494 14.8296L42.6799 18.3259L48.1616 16.9028Z" fill="#005128"/>
<path d="M85.3424 9.1713H75.6967L72.7275 0L69.7406 9.1713L60.095 9.15373L67.8958 14.8287L64.909 24L72.7099 18.325L80.5108 24L77.5415 14.8287L85.3424 9.1713Z" fill="#00B67A"/>
<path d="M78.2095 16.9028L77.5418 14.8296L72.7278 18.3259L78.2095 16.9028Z" fill="#005128"/>
<path d="M115.39 9.1713H105.745L102.775 0L99.7885 9.1713L90.1428 9.15373L97.9437 14.8287L94.9568 24L102.758 18.325L110.559 24L107.589 14.8287L115.39 9.1713Z" fill="#00B67A"/>
<path d="M108.257 16.9018L107.59 14.8286L102.776 18.325L108.257 16.9018Z" fill="#005128"/>
<path d="M145.438 9.1713H135.792L132.823 0L129.836 9.1713L120.191 9.15373L127.991 14.8287L125.005 24L132.806 18.325L140.606 24L137.637 14.8287L145.438 9.1713Z" fill="#00B67A"/>
<path d="M138.305 16.9018L137.637 14.8286L132.823 18.325L138.305 16.9018Z" fill="#005128"/>
</svg>
