<svg width="60" height="60" viewBox="0 0 60 60" fill="none" xmlns="http://www.w3.org/2000/svg">
<g filter="url(#filter0_i_3071_6384)">
<rect width="60" height="60" rx="30" fill="url(#paint0_linear_3071_6384)"/>
<path opacity="0.2" d="M26.002 44.0054L28.0027 34.0021L20 31.0011L34.0047 15.9961L32.004 25.9994L40.0067 29.0004L26.002 44.0054Z" fill="#140533"/>
<path d="M40.9806 28.7708C40.9428 28.6105 40.8659 28.462 40.7568 28.3386C40.6477 28.2151 40.5099 28.1205 40.3554 28.0631L33.1518 25.361L34.9849 16.1916C35.0264 15.9786 34.9975 15.7578 34.9025 15.5627C34.8076 15.3675 34.6517 15.2085 34.4584 15.1097C34.2652 15.0109 34.045 14.9776 33.8312 15.0149C33.6174 15.0521 33.4215 15.158 33.2731 15.3163L19.2684 30.3214C19.1547 30.4412 19.0724 30.5874 19.0289 30.7468C18.9854 30.9062 18.9821 31.0739 19.0193 31.2349C19.0564 31.3959 19.1329 31.5452 19.2418 31.6694C19.3507 31.7937 19.4888 31.889 19.6435 31.9469L26.8497 34.6491L25.0216 43.8084C24.9801 44.0214 25.009 44.2422 25.1039 44.4373C25.1989 44.6325 25.3548 44.7915 25.548 44.8903C25.7413 44.9891 25.9614 45.0224 26.1753 44.9851C26.3891 44.9479 26.585 44.842 26.7334 44.6837L40.7381 29.6786C40.8498 29.5588 40.9303 29.4133 40.9726 29.255C41.0149 29.0967 41.0176 28.9305 40.9806 28.7708ZM27.6737 40.7536L28.9829 34.2039C29.0297 33.9716 28.9926 33.7302 28.8781 33.5228C28.7636 33.3153 28.5792 33.1552 28.3577 33.071L21.7505 30.5889L32.3315 19.2527L31.0236 25.8023C30.9767 26.0346 31.0138 26.276 31.1283 26.4835C31.2428 26.691 31.4273 26.851 31.6488 26.9352L38.251 29.4111L27.6737 40.7536Z" fill="#140533"/>
</g>
<defs>
<filter id="filter0_i_3071_6384" x="0" y="0" width="60" height="60" filterUnits="userSpaceOnUse" color-interpolation-filters="sRGB">
<feFlood flood-opacity="0" result="BackgroundImageFix"/>
<feBlend mode="normal" in="SourceGraphic" in2="BackgroundImageFix" result="shape"/>
<feColorMatrix in="SourceAlpha" type="matrix" values="0 0 0 0 0 0 0 0 0 0 0 0 0 0 0 0 0 0 127 0" result="hardAlpha"/>
<feOffset/>
<feGaussianBlur stdDeviation="6"/>
<feComposite in2="hardAlpha" operator="arithmetic" k2="-1" k3="1"/>
<feColorMatrix type="matrix" values="0 0 0 0 0.988235 0 0 0 0 0.941176 0 0 0 0 0.890196 0 0 0 0.45 0"/>
<feBlend mode="normal" in2="shape" result="effect1_innerShadow_3071_6384"/>
</filter>
<linearGradient id="paint0_linear_3071_6384" x1="0" y1="0" x2="60" y2="60" gradientUnits="userSpaceOnUse">
<stop stop-color="#F4EDFF"/>
<stop offset="1" stop-color="#FCEBEF"/>
</linearGradient>
</defs>
</svg>
