<svg width="60" height="60" viewBox="0 0 60 60" fill="none" xmlns="http://www.w3.org/2000/svg">
<g filter="url(#filter0_i_3071_4672)">
<rect width="60" height="60" rx="30" fill="url(#paint0_linear_3071_4672)"/>
<path opacity="0.2" d="M18.731 35.3975L24.5949 41.2614L17.563 43.817C17.3691 43.8883 17.1588 43.9026 16.9571 43.8582C16.7554 43.8139 16.5705 43.7127 16.4245 43.5666C16.2784 43.4205 16.1772 43.2357 16.1328 43.034C16.0885 42.8322 16.1028 42.622 16.1741 42.4281L18.731 35.3975ZM38.0116 34.742L25.2505 21.9809C25.1218 21.8522 24.9627 21.7581 24.788 21.7072C24.6132 21.6563 24.4285 21.6503 24.2509 21.6898C24.0732 21.7293 23.9084 21.8129 23.7716 21.933C23.6349 22.053 23.5306 22.2057 23.4685 22.3767L21.3991 28.0712L31.9296 38.6017L37.6241 36.5323C37.7961 36.4698 37.9494 36.3648 38.0698 36.2269C38.1901 36.0891 38.2736 35.923 38.3123 35.7442C38.351 35.5653 38.3437 35.3796 38.2911 35.2043C38.2385 35.029 38.1423 34.87 38.0116 34.742Z" fill="#140533"/>
<path d="M26.0365 21.1986C25.7755 20.9383 25.4532 20.748 25.0993 20.6451C24.7454 20.5422 24.3712 20.5302 24.0114 20.61C23.6516 20.6899 23.3177 20.8591 23.0405 21.102C22.7633 21.3449 22.5518 21.6538 22.4254 22L15.1351 42.0528C15.0154 42.3835 14.9767 42.738 15.0223 43.0868C15.068 43.4355 15.1966 43.7682 15.3974 44.0569C15.5982 44.3456 15.8654 44.582 16.1765 44.7461C16.4875 44.9102 16.8334 44.9972 17.1851 45C17.4441 44.9982 17.7007 44.9512 17.9435 44.8611L37.9948 37.5694C38.3412 37.4432 38.6502 37.2318 38.8932 36.9547C39.1363 36.6776 39.3057 36.3437 39.3857 35.9838C39.4657 35.624 39.4537 35.2498 39.3509 34.8958C39.2482 34.5418 39.0579 34.2194 38.7976 33.9583L26.0365 21.1986ZM24.8796 39.9778L20.0185 35.1167L21.8462 30.0875L29.9087 38.15L24.8796 39.9778ZM17.2407 42.7556L19.1851 37.4208L22.581 40.8167L17.2407 42.7556ZM32.2185 37.3111L22.6851 27.7778L24.4907 22.7958L37.1893 35.4944L32.2185 37.3111ZM32.774 23.8889C32.7949 23.1377 32.9768 22.3998 33.3073 21.725C34.0435 20.2542 35.4323 19.4444 37.2185 19.4444C38.149 19.4444 38.7462 19.1264 39.1143 18.4431C39.3081 18.0608 39.4193 17.642 39.4407 17.2139C39.4418 16.9192 39.5599 16.637 39.7691 16.4294C39.9782 16.2218 40.2613 16.1058 40.556 16.1069C40.8506 16.108 41.1328 16.2262 41.3404 16.4353C41.548 16.6445 41.664 16.9275 41.6629 17.2222C41.6629 19.0083 40.4796 21.6667 37.2185 21.6667C36.2879 21.6667 35.6907 21.9847 35.3226 22.6681C35.1288 23.0504 35.0176 23.4691 34.9962 23.8972C34.9957 24.0431 34.9664 24.1875 34.9101 24.3221C34.8537 24.4567 34.7714 24.5789 34.6678 24.6817C34.5643 24.7845 34.4415 24.8659 34.3065 24.9212C34.1715 24.9765 34.0269 25.0047 33.881 25.0042C33.735 25.0036 33.5907 24.9743 33.4561 24.918C33.3215 24.8616 33.1993 24.7793 33.0965 24.6758C32.9937 24.5722 32.9123 24.4494 32.857 24.3144C32.8017 24.1794 32.7735 24.0348 32.774 23.8889ZM29.4407 19.4444V16.1111C29.4407 15.8164 29.5577 15.5338 29.7661 15.3254C29.9745 15.1171 30.2571 15 30.5518 15C30.8465 15 31.1291 15.1171 31.3375 15.3254C31.5458 15.5338 31.6629 15.8164 31.6629 16.1111V19.4444C31.6629 19.7391 31.5458 20.0217 31.3375 20.2301C31.1291 20.4385 30.8465 20.5556 30.5518 20.5556C30.2571 20.5556 29.9745 20.4385 29.7661 20.2301C29.5577 20.0217 29.4407 19.7391 29.4407 19.4444ZM43.5601 30.8806C43.6633 30.9838 43.7451 31.1063 43.8008 31.2412C43.8566 31.376 43.8853 31.5205 43.8852 31.6665C43.8852 31.8124 43.8564 31.9569 43.8005 32.0917C43.7446 32.2265 43.6627 32.3489 43.5594 32.4521C43.4562 32.5552 43.3337 32.637 43.1988 32.6928C43.064 32.7486 42.9194 32.7773 42.7735 32.7772C42.6276 32.7771 42.4831 32.7483 42.3483 32.6924C42.2135 32.6365 42.091 32.5546 41.9879 32.4514L39.7657 30.2292C39.5572 30.0207 39.4401 29.7379 39.4401 29.4431C39.4401 29.1482 39.5572 28.8654 39.7657 28.6569C39.9742 28.4485 40.2569 28.3313 40.5518 28.3313C40.8466 28.3313 41.1294 28.4485 41.3379 28.6569L43.5601 30.8806ZM44.2365 24.9431L40.9032 26.0542C40.6236 26.1474 40.3184 26.1257 40.0548 25.9939C39.7913 25.8621 39.5908 25.631 39.4976 25.3514C39.4044 25.0718 39.4261 24.7667 39.5579 24.5031C39.6897 24.2395 39.9208 24.039 40.2004 23.9458L43.5337 22.8347C43.8133 22.7415 44.1185 22.7632 44.3821 22.895C44.6457 23.0268 44.8461 23.2579 44.9393 23.5375C45.0325 23.8171 45.0108 24.1222 44.879 24.3858C44.7472 24.6494 44.5161 24.8499 44.2365 24.9431Z" fill="#140533"/>
</g>
<defs>
<filter id="filter0_i_3071_4672" x="0" y="0" width="60" height="60" filterUnits="userSpaceOnUse" color-interpolation-filters="sRGB">
<feFlood flood-opacity="0" result="BackgroundImageFix"/>
<feBlend mode="normal" in="SourceGraphic" in2="BackgroundImageFix" result="shape"/>
<feColorMatrix in="SourceAlpha" type="matrix" values="0 0 0 0 0 0 0 0 0 0 0 0 0 0 0 0 0 0 127 0" result="hardAlpha"/>
<feOffset/>
<feGaussianBlur stdDeviation="6"/>
<feComposite in2="hardAlpha" operator="arithmetic" k2="-1" k3="1"/>
<feColorMatrix type="matrix" values="0 0 0 0 0.988235 0 0 0 0 0.941176 0 0 0 0 0.890196 0 0 0 0.45 0"/>
<feBlend mode="normal" in2="shape" result="effect1_innerShadow_3071_4672"/>
</filter>
<linearGradient id="paint0_linear_3071_4672" x1="0" y1="0" x2="60" y2="60" gradientUnits="userSpaceOnUse">
<stop stop-color="#F4EDFF"/>
<stop offset="1" stop-color="#FCEBEF"/>
</linearGradient>
</defs>
</svg>
