<svg width="60" height="60" viewBox="0 0 60 60" fill="none" xmlns="http://www.w3.org/2000/svg">
<g filter="url(#filter0_i_3071_4708)">
<rect width="60" height="60" rx="30" fill="url(#paint0_linear_3071_4708)"/>
<path opacity="0.2" d="M27.6931 35.7766C27.6931 36.6893 27.4225 37.5815 26.9154 38.3404C26.4083 39.0993 25.6876 39.6908 24.8444 40.0401C24.0011 40.3893 23.0733 40.4807 22.1781 40.3027C21.2829 40.1246 20.4607 39.6851 19.8153 39.0397C19.1699 38.3943 18.7304 37.5721 18.5524 36.6769C18.3743 35.7817 18.4657 34.8539 18.815 34.0106C19.1642 33.1674 19.7557 32.4467 20.5146 31.9396C21.2735 31.4325 22.1657 31.1619 23.0784 31.1619C24.3023 31.1619 25.4761 31.6481 26.3415 32.5135C27.2069 33.3789 27.6931 34.5527 27.6931 35.7766ZM23.0784 16.1641C22.1657 16.1641 21.2735 16.4347 20.5146 16.9418C19.7557 17.4489 19.1642 18.1696 18.815 19.0128C18.4657 19.856 18.3743 20.7839 18.5524 21.6791C18.7304 22.5742 19.1699 23.3965 19.8153 24.0419C20.4607 24.6873 21.2829 25.1268 22.1781 25.3048C23.0733 25.4829 24.0011 25.3915 24.8444 25.0422C25.6876 24.6929 26.4083 24.1015 26.9154 23.3426C27.4225 22.5837 27.6931 21.6915 27.6931 20.7788C27.6931 19.5549 27.2069 18.3811 26.3415 17.5157C25.4761 16.6503 24.3023 16.1641 23.0784 16.1641ZM36.9226 31.1619C36.0098 31.1619 35.1176 31.4325 34.3588 31.9396C33.5999 32.4467 33.0084 33.1674 32.6591 34.0106C32.3098 34.8539 32.2184 35.7817 32.3965 36.6769C32.5746 37.5721 33.0141 38.3943 33.6595 39.0397C34.3048 39.6851 35.1271 40.1246 36.0223 40.3027C36.9174 40.4807 37.8453 40.3893 38.6885 40.0401C39.5318 39.6908 40.2525 39.0993 40.7595 38.3404C41.2666 37.5815 41.5373 36.6893 41.5373 35.7766C41.5373 34.5527 41.0511 33.3789 40.1856 32.5135C39.3202 31.6481 38.1465 31.1619 36.9226 31.1619ZM36.9226 25.3935C37.8353 25.3935 38.7275 25.1228 39.4863 24.6158C40.2452 24.1087 40.8367 23.388 41.186 22.5448C41.5353 21.7015 41.6267 20.7737 41.4486 19.8785C41.2705 18.9833 40.831 18.1611 40.1856 17.5157C39.5403 16.8703 38.718 16.4308 37.8228 16.2527C36.9277 16.0747 35.9998 16.1661 35.1566 16.5153C34.3133 16.8646 33.5926 17.4561 33.0856 18.215C32.5785 18.9739 32.3078 19.8661 32.3078 20.7788C32.3078 22.0027 32.794 23.1765 33.6595 24.0419C34.5249 24.9073 35.6987 25.3935 36.9226 25.3935Z" fill="#140533"/>
<path d="M15.4642 29.7714C15.5854 29.8623 15.7233 29.9285 15.87 29.9661C16.0168 30.0037 16.1695 30.012 16.3195 29.9906C16.4695 29.9692 16.6138 29.9184 16.7442 29.8412C16.8745 29.764 16.9884 29.6619 17.0793 29.5407C17.7778 28.6094 18.6836 27.8534 19.7248 27.3328C20.7661 26.8122 21.9143 26.5411 23.0784 26.5411C24.2426 26.5411 25.3908 26.8122 26.4321 27.3328C27.4733 27.8534 28.3791 28.6094 29.0776 29.5407C29.2614 29.7853 29.5348 29.9468 29.8377 29.9898C30.1406 30.0328 30.4481 29.9537 30.6927 29.77C30.7799 29.7051 30.8572 29.6279 30.922 29.5407C31.6205 28.6094 32.5263 27.8534 33.5675 27.3328C34.6088 26.8122 35.757 26.5411 36.9211 26.5411C38.0853 26.5411 39.2335 26.8122 40.2748 27.3328C41.316 27.8534 42.2218 28.6094 42.9203 29.5407C43.1041 29.7855 43.3775 29.9472 43.6806 29.9904C43.9836 30.0335 44.2914 29.9545 44.5361 29.7707C44.7809 29.5869 44.9427 29.3135 44.9858 29.0104C45.0289 28.7074 44.9499 28.3996 44.7662 28.1548C43.745 26.7858 42.3832 25.7079 40.8163 25.0284C41.6753 24.2441 42.2771 23.2184 42.5428 22.0859C42.8085 20.9534 42.7256 19.7671 42.305 18.6826C41.8844 17.5981 41.1457 16.6661 40.186 16.0089C39.2262 15.3517 38.0901 15 36.9269 15C35.7637 15 34.6277 15.3517 33.6679 16.0089C32.7081 16.6661 31.9694 17.5981 31.5488 18.6826C31.1282 19.7671 31.0453 20.9534 31.311 22.0859C31.5767 23.2184 32.1785 24.2441 33.0376 25.0284C31.9062 25.5176 30.8784 26.218 30.0092 27.092C29.14 26.218 28.1122 25.5176 26.9808 25.0284C27.8398 24.2441 28.4417 23.2184 28.7073 22.0859C28.973 20.9534 28.8901 19.7671 28.4695 18.6826C28.0489 17.5981 27.3102 16.6661 26.3505 16.0089C25.3907 15.3517 24.2546 15 23.0914 15C21.9282 15 20.7922 15.3517 19.8324 16.0089C18.8726 16.6661 18.1339 17.5981 17.7133 18.6826C17.2927 19.7671 17.2098 20.9534 17.4755 22.0859C17.7412 23.2184 18.343 24.2441 19.2021 25.0284C17.6282 25.7057 16.2598 26.7843 15.2334 28.1563C15.1425 28.2775 15.0764 28.4154 15.0388 28.5622C15.0012 28.7089 14.9929 28.8617 15.0143 29.0116C15.0357 29.1616 15.0865 29.3059 15.1637 29.4363C15.2408 29.5667 15.343 29.6805 15.4642 29.7714ZM36.9226 17.3117C37.6071 17.3117 38.2763 17.5147 38.8454 17.895C39.4146 18.2753 39.8582 18.8158 40.1202 19.4483C40.3821 20.0807 40.4507 20.7766 40.3171 21.448C40.1836 22.1193 39.8539 22.736 39.3699 23.2201C38.8859 23.7041 38.2692 24.0337 37.5978 24.1673C36.9264 24.3008 36.2305 24.2323 35.5981 23.9703C34.9657 23.7084 34.4251 23.2648 34.0448 22.6956C33.6645 22.1264 33.4615 21.4573 33.4615 20.7727C33.4615 19.8548 33.8262 18.9745 34.4753 18.3254C35.1243 17.6763 36.0047 17.3117 36.9226 17.3117ZM23.0784 17.3117C23.763 17.3117 24.4321 17.5147 25.0013 17.895C25.5705 18.2753 26.0141 18.8158 26.276 19.4483C26.538 20.0807 26.6065 20.7766 26.473 21.448C26.3394 22.1193 26.0098 22.736 25.5258 23.2201C25.0417 23.7041 24.425 24.0337 23.7537 24.1673C23.0823 24.3008 22.3864 24.2323 21.754 23.9703C21.1215 23.7084 20.581 23.2648 20.2007 22.6956C19.8204 22.1264 19.6174 21.4573 19.6174 20.7727C19.6174 19.8548 19.982 18.9745 20.6311 18.3254C21.2802 17.6763 22.1605 17.3117 23.0784 17.3117ZM40.8163 40.0262C41.6753 39.2419 42.2771 38.2162 42.5428 37.0837C42.8085 35.9513 42.7256 34.7649 42.305 33.6804C41.8844 32.5959 41.1457 31.6639 40.186 31.0067C39.2262 30.3495 38.0901 29.9978 36.9269 29.9978C35.7637 29.9978 34.6277 30.3495 33.6679 31.0067C32.7081 31.6639 31.9694 32.5959 31.5488 33.6804C31.1282 34.7649 31.0453 35.9513 31.311 37.0837C31.5767 38.2162 32.1785 39.2419 33.0376 40.0262C31.9062 40.5154 30.8784 41.2158 30.0092 42.0898C29.14 41.2158 28.1122 40.5154 26.9808 40.0262C27.8398 39.2419 28.4417 38.2162 28.7073 37.0837C28.973 35.9513 28.8901 34.7649 28.4695 33.6804C28.0489 32.5959 27.3102 31.6639 26.3505 31.0067C25.3907 30.3495 24.2546 29.9978 23.0914 29.9978C21.9282 29.9978 20.7922 30.3495 19.8324 31.0067C18.8726 31.6639 18.1339 32.5959 17.7133 33.6804C17.2927 34.7649 17.2098 35.9513 17.4755 37.0837C17.7412 38.2162 18.343 39.2419 19.2021 40.0262C17.6282 40.7035 16.2598 41.7821 15.2334 43.1541C15.1425 43.2753 15.0764 43.4132 15.0388 43.56C15.0012 43.7068 14.9929 43.8595 15.0143 44.0095C15.0357 44.1595 15.0865 44.3037 15.1637 44.4341C15.2408 44.5645 15.343 44.6784 15.4642 44.7693C15.5854 44.8602 15.7233 44.9263 15.87 44.9639C16.0168 45.0015 16.1695 45.0098 16.3195 44.9884C16.4695 44.967 16.6138 44.9162 16.7442 44.839C16.8745 44.7618 16.9884 44.6597 17.0793 44.5385C17.7778 43.6072 18.6836 42.8513 19.7248 42.3306C20.7661 41.81 21.9143 41.539 23.0784 41.539C24.2426 41.539 25.3908 41.81 26.4321 42.3306C27.4733 42.8513 28.3791 43.6072 29.0776 44.5385C29.2614 44.7831 29.5348 44.9446 29.8377 44.9876C30.1406 45.0306 30.4481 44.9516 30.6927 44.7678C30.7799 44.703 30.8572 44.6257 30.922 44.5385C31.6205 43.6072 32.5263 42.8513 33.5675 42.3306C34.6088 41.81 35.757 41.539 36.9211 41.539C38.0853 41.539 39.2335 41.81 40.2748 42.3306C41.316 42.8513 42.2218 43.6072 42.9203 44.5385C43.1041 44.7833 43.3775 44.9451 43.6806 44.9882C43.9836 45.0313 44.2914 44.9523 44.5361 44.7685C44.7809 44.5848 44.9427 44.3113 44.9858 44.0082C45.0289 43.7052 44.9499 43.3974 44.7662 43.1527C43.745 41.7836 42.3832 40.7058 40.8163 40.0262ZM23.0784 32.3095C23.763 32.3095 24.4321 32.5125 25.0013 32.8928C25.5705 33.2731 26.0141 33.8137 26.276 34.4461C26.538 35.0785 26.6065 35.7744 26.473 36.4458C26.3394 37.1172 26.0098 37.7339 25.5258 38.2179C25.0417 38.7019 24.425 39.0316 23.7537 39.1651C23.0823 39.2986 22.3864 39.2301 21.754 38.9681C21.1215 38.7062 20.581 38.2626 20.2007 37.6934C19.8204 37.1243 19.6174 36.4551 19.6174 35.7706C19.6174 34.8526 19.982 33.9723 20.6311 33.3232C21.2802 32.6742 22.1605 32.3095 23.0784 32.3095ZM36.9226 32.3095C37.6071 32.3095 38.2763 32.5125 38.8454 32.8928C39.4146 33.2731 39.8582 33.8137 40.1202 34.4461C40.3821 35.0785 40.4507 35.7744 40.3171 36.4458C40.1836 37.1172 39.8539 37.7339 39.3699 38.2179C38.8859 38.7019 38.2692 39.0316 37.5978 39.1651C36.9264 39.2986 36.2305 39.2301 35.5981 38.9681C34.9657 38.7062 34.4251 38.2626 34.0448 37.6934C33.6645 37.1243 33.4615 36.4551 33.4615 35.7706C33.4615 34.8526 33.8262 33.9723 34.4753 33.3232C35.1243 32.6742 36.0047 32.3095 36.9226 32.3095Z" fill="#140533"/>
</g>
<defs>
<filter id="filter0_i_3071_4708" x="0" y="0" width="60" height="60" filterUnits="userSpaceOnUse" color-interpolation-filters="sRGB">
<feFlood flood-opacity="0" result="BackgroundImageFix"/>
<feBlend mode="normal" in="SourceGraphic" in2="BackgroundImageFix" result="shape"/>
<feColorMatrix in="SourceAlpha" type="matrix" values="0 0 0 0 0 0 0 0 0 0 0 0 0 0 0 0 0 0 127 0" result="hardAlpha"/>
<feOffset/>
<feGaussianBlur stdDeviation="6"/>
<feComposite in2="hardAlpha" operator="arithmetic" k2="-1" k3="1"/>
<feColorMatrix type="matrix" values="0 0 0 0 0.988235 0 0 0 0 0.941176 0 0 0 0 0.890196 0 0 0 0.45 0"/>
<feBlend mode="normal" in2="shape" result="effect1_innerShadow_3071_4708"/>
</filter>
<linearGradient id="paint0_linear_3071_4708" x1="0" y1="0" x2="60" y2="60" gradientUnits="userSpaceOnUse">
<stop stop-color="#F4EDFF"/>
<stop offset="1" stop-color="#FCEBEF"/>
</linearGradient>
</defs>
</svg>
