<svg width="24" height="24" viewBox="0 0 24 24" fill="none" xmlns="http://www.w3.org/2000/svg">
<rect width="24" height="24" rx="12" fill="#140533"/>
<path d="M18.7724 8.11402L10.2397 16.6467C10.1901 16.6963 10.1313 16.7356 10.0666 16.7625C10.0018 16.7893 9.93243 16.8031 9.86235 16.8031C9.79227 16.8031 9.72287 16.7893 9.65813 16.7625C9.59339 16.7356 9.53457 16.6963 9.48504 16.6467L5.75199 12.9137C5.65192 12.8136 5.5957 12.6779 5.5957 12.5364C5.5957 12.3948 5.65192 12.2591 5.75199 12.1591C5.85206 12.059 5.98778 12.0028 6.12929 12.0028C6.27081 12.0028 6.40653 12.059 6.5066 12.1591L9.86235 15.5155L18.0177 7.35941C18.1178 7.25934 18.2535 7.20312 18.395 7.20312C18.5366 7.20313 18.6723 7.25934 18.7724 7.35941C18.8724 7.45948 18.9286 7.5952 18.9286 7.73672C18.9286 7.87823 18.8724 8.01395 18.7724 8.11402Z" fill="#FCEBEF" stroke="#FCEBEF"/>
</svg>
