<svg width="160" height="178" viewBox="0 0 160 178" fill="none" xmlns="http://www.w3.org/2000/svg">
<rect width="242.658" height="50" transform="translate(38.6227 -38.1406) rotate(48.8885)" fill="url(#paint0_linear_3071_4688)"/>
<path d="M70.8979 28.2922L72.594 30.2357L68.5126 38.3826L68.6023 38.4854L77.2265 35.544L78.9227 37.4875L70.1555 45.1387L68.8255 43.6147L74.8486 38.3582L74.7777 38.2769L66.6656 41.088L65.6719 39.9493L69.5676 32.2811L69.4967 32.1997L63.4607 37.4674L62.1307 35.9434L70.8979 28.2922ZM73.9797 49.7799C73.4193 49.1378 73.0749 48.458 72.9465 47.7405C72.818 47.0231 72.8945 46.3128 73.1759 45.6098C73.4597 44.9096 73.9412 44.2631 74.6205 43.6704C75.2997 43.0776 76.0068 42.6867 76.7418 42.4977C77.4793 42.3116 78.1948 42.3307 78.8883 42.555C79.5818 42.7794 80.2087 43.2126 80.7691 43.8547C81.3295 44.4969 81.6739 45.1767 81.8023 45.8941C81.9307 46.6116 81.8516 47.3217 81.5649 48.0243C81.2807 48.7299 80.799 49.379 80.1198 49.9718C79.4405 50.5645 78.7336 50.9527 77.999 51.1364C77.2668 51.3229 76.554 51.3039 75.8605 51.0796C75.167 50.8553 74.5401 50.4221 73.9797 49.7799ZM75.2286 48.7051C75.5324 49.0532 75.8821 49.2609 76.2775 49.3281C76.6758 49.3927 77.0875 49.3402 77.5124 49.1704C77.9399 49.0035 78.3534 48.7457 78.753 48.397C79.1554 48.0458 79.4682 47.6697 79.6914 47.2688C79.92 46.8682 80.0292 46.4662 80.019 46.0628C80.0088 45.6595 79.8518 45.2837 79.548 44.9355C79.2367 44.5788 78.8806 44.3666 78.4798 44.2991C78.0815 44.2345 77.6672 44.2868 77.2369 44.4563C76.8119 44.626 76.3982 44.8865 75.9958 45.2377C75.5963 45.5864 75.2836 45.9598 75.0579 46.3579C74.8347 46.7588 74.7282 47.161 74.7383 47.5643C74.7538 47.9681 74.9173 48.3483 75.2286 48.7051ZM87.3784 55.1092L85.9915 53.831C86.0993 53.6665 86.1724 53.4796 86.2108 53.2701C86.2517 53.0635 86.2384 52.8438 86.171 52.611C86.1036 52.3782 85.9653 52.142 85.7561 51.9022C85.4747 51.5797 85.1681 51.3696 84.8365 51.2719C84.5074 51.1771 84.2328 51.2282 84.0127 51.4253C83.819 51.5893 83.7244 51.795 83.7291 52.0423C83.7363 52.2925 83.847 52.6181 84.0614 53.0193L84.8005 54.3501C85.2093 55.0893 85.4001 55.7372 85.3731 56.2937C85.3485 56.8531 85.1019 57.3398 84.6335 57.7536C84.2172 58.1118 83.7461 58.3094 83.2201 58.3461C82.6994 58.3832 82.1663 58.2678 81.6208 57.9998C81.0752 57.7318 80.5633 57.3239 80.0851 56.7759C79.3828 55.9711 78.9858 55.1763 78.8942 54.3916C78.8054 53.6043 79.0224 52.8996 79.5453 52.2774L81.0096 53.6615C80.7726 53.989 80.6756 54.3301 80.7186 54.6847C80.7616 55.0393 80.9388 55.395 81.2501 55.7517C81.5714 56.1199 81.9048 56.3493 82.2503 56.4399C82.5983 56.5333 82.8836 56.4829 83.1062 56.2886C83.2946 56.1243 83.3866 55.9158 83.3823 55.6631C83.3805 55.4133 83.2804 55.1085 83.082 54.7487L82.3387 53.4217C81.9195 52.6764 81.7335 52.0167 81.7806 51.4427C81.8305 50.8663 82.0964 50.3702 82.5784 49.9547C82.9811 49.5981 83.428 49.4017 83.9191 49.3652C84.4155 49.3292 84.9194 49.4399 85.4308 49.6975C85.9475 49.9555 86.435 50.347 86.8933 50.8721C87.5657 51.6427 87.9309 52.3923 87.9887 53.1211C88.0491 53.8528 87.8456 54.5154 87.3784 55.1092ZM93.2204 58.2949L92.0218 59.341L88.7229 55.561L89.9216 54.5149L93.2204 58.2949ZM92.3114 54.0733L93.6638 55.623L87.4908 61.0102C87.2824 61.1921 87.15 61.3629 87.0935 61.5228C87.0423 61.6831 87.0429 61.8335 87.0951 61.974C87.1473 62.1144 87.2294 62.2489 87.3415 62.3773C87.4261 62.4743 87.5105 62.5566 87.5945 62.624C87.681 62.6943 87.7486 62.7459 87.7974 62.7788L86.8138 64.0972C86.7131 64.0393 86.5783 63.9483 86.4096 63.8241C86.2433 63.7027 86.0614 63.5346 85.864 63.3198C85.5138 62.9417 85.2672 62.541 85.1242 62.1179C84.984 61.6922 84.9711 61.2685 85.0857 60.8468C85.2028 60.4279 85.468 60.0405 85.8815 59.6847L92.3114 54.0733ZM90.4454 68.3881L99.2126 60.7368L102.082 64.0245C102.67 64.6981 103.037 65.3727 103.185 66.0485C103.334 66.7272 103.292 67.3753 103.056 67.9929C102.826 68.6108 102.433 69.1626 101.877 69.6483C101.315 70.1389 100.712 70.4564 100.068 70.6006C99.425 70.7448 98.776 70.6953 98.1214 70.4521C97.4696 70.2065 96.8486 69.7455 96.2583 69.0691L94.3567 66.8901L95.6623 65.7507L97.3771 67.7156C97.7208 68.1094 98.0708 68.3721 98.4269 68.5037C98.7831 68.6353 99.1334 68.6564 99.4777 68.5671C99.8245 68.4806 100.153 68.3016 100.465 68.0301C100.776 67.7586 100.996 67.4582 101.126 67.1287C101.258 66.8022 101.279 66.4546 101.189 66.086C101.104 65.7178 100.888 65.3354 100.542 64.9387L99.2716 63.4832L91.8314 69.9763L90.4454 68.3881ZM99.4486 78.9636C98.8882 78.3215 98.5438 77.6417 98.4153 76.9242C98.2869 76.2068 98.3634 75.4965 98.6447 74.7935C98.9286 74.0933 99.4101 73.4468 100.089 72.854C100.769 72.2613 101.476 71.8704 102.211 71.6814C102.948 71.4953 103.664 71.5144 104.357 71.7387C105.051 71.9631 105.678 72.3963 106.238 73.0384C106.798 73.6805 107.143 74.3603 107.271 75.0778C107.4 75.7953 107.32 76.5053 107.034 77.208C106.75 77.9136 106.268 78.5627 105.589 79.1555C104.909 79.7482 104.202 80.1364 103.468 80.3201C102.736 80.5065 102.023 80.4876 101.329 80.2633C100.636 80.039 100.009 79.6058 99.4486 78.9636ZM100.697 77.8888C101.001 78.2369 101.351 78.4446 101.746 78.5118C102.145 78.5764 102.556 78.5239 102.981 78.3541C103.409 78.1872 103.822 77.9293 104.222 77.5807C104.624 77.2295 104.937 76.8534 105.16 76.4525C105.389 76.0519 105.498 75.6499 105.488 75.2465C105.478 74.8432 105.321 74.4674 105.017 74.1192C104.706 73.7625 104.349 73.5503 103.949 73.4828C103.55 73.4182 103.136 73.4705 102.706 73.64C102.281 73.8097 101.867 74.0702 101.465 74.4214C101.065 74.7701 100.753 75.1435 100.527 75.5415C100.304 75.9425 100.197 76.3447 100.207 76.748C100.223 77.1518 100.386 77.532 100.697 77.8888ZM101.009 85.4695L110.05 77.5791L111.38 79.1031L110.293 80.0521L110.371 80.142C110.601 80.0824 110.869 80.0469 111.176 80.0356C111.485 80.0217 111.813 80.0829 112.158 80.2191C112.506 80.3528 112.848 80.6123 113.184 80.9976C113.627 81.5056 113.897 82.077 113.994 82.7117C114.096 83.3469 113.998 84.0047 113.703 84.6853C113.412 85.3662 112.901 86.0255 112.171 86.6631C111.449 87.2932 110.732 87.7102 110.02 87.9142C109.308 88.1182 108.641 88.1319 108.02 87.9554C107.398 87.779 106.862 87.4324 106.411 86.9159C106.082 86.5392 105.872 86.1719 105.781 85.814C105.69 85.4561 105.667 85.1243 105.712 84.8187C105.762 84.5134 105.831 84.2496 105.919 84.0273L105.863 83.9631L102.361 87.0191L101.009 85.4695ZM108.088 81.9681C107.663 82.3392 107.343 82.7241 107.128 83.1229C106.916 83.5246 106.819 83.918 106.838 84.3033C106.863 84.6889 107.019 85.0457 107.305 85.3739C107.604 85.7164 107.946 85.9235 108.33 85.9953C108.717 86.0646 109.122 86.0182 109.544 85.8563C109.971 85.6947 110.39 85.4346 110.801 85.076C111.209 84.7198 111.52 84.345 111.735 83.9515C111.95 83.558 112.046 83.1673 112.024 82.7792C112.002 82.3911 111.84 82.0244 111.539 81.6791C111.25 81.348 110.918 81.1429 110.542 81.0637C110.166 80.9844 109.769 81.0219 109.35 81.176C108.934 81.3329 108.514 81.597 108.088 81.9681ZM116.473 92.6294L120.283 89.3044L121.635 90.8541L115.06 96.5925L113.748 95.0899L114.917 94.07L114.857 94.0015C114.36 94.1744 113.846 94.1932 113.315 94.0578C112.787 93.9252 112.308 93.6121 111.877 93.1184C111.501 92.6874 111.264 92.223 111.166 91.7251C111.074 91.2275 111.131 90.7254 111.337 90.2186C111.546 89.7093 111.913 89.2255 112.438 88.7672L116.625 85.1135L117.978 86.6631L114.031 90.1077C113.614 90.4713 113.383 90.8744 113.336 91.3169C113.29 91.7594 113.429 92.1661 113.753 92.5372C113.952 92.7655 114.201 92.9381 114.499 93.055C114.797 93.1719 115.116 93.2029 115.455 93.1482C115.8 93.0937 116.139 92.9208 116.473 92.6294ZM126.57 92.0845L117.803 99.7357L116.45 98.1861L125.218 90.5348L126.57 92.0845ZM120.712 103.337C120.348 102.921 120.095 102.481 119.952 102.017C119.814 101.554 119.808 101.097 119.933 100.647C120.06 100.199 120.339 99.7869 120.77 99.4109C121.141 99.0871 121.507 98.8878 121.869 98.8131C122.231 98.7384 122.589 98.756 122.941 98.8658C123.293 98.9757 123.636 99.1466 123.969 99.3787C124.308 99.6111 124.634 99.8722 124.947 100.162C125.323 100.512 125.631 100.794 125.872 101.006C126.115 101.216 126.319 101.345 126.482 101.394C126.65 101.443 126.809 101.403 126.957 101.273L126.983 101.251C127.305 100.969 127.472 100.656 127.482 100.31C127.492 99.9644 127.34 99.6118 127.026 99.2522C126.695 98.8727 126.349 98.6438 125.99 98.5656C125.632 98.4904 125.307 98.5126 125.015 98.6323L123.957 97.006C124.456 96.7715 124.955 96.6684 125.452 96.6969C125.952 96.7228 126.435 96.867 126.901 97.1296C127.369 97.3896 127.803 97.7493 128.204 98.2088C128.481 98.5256 128.719 98.8733 128.919 99.252C129.119 99.6307 129.246 100.025 129.302 100.434C129.36 100.84 129.312 101.249 129.158 101.66C129.006 102.074 128.712 102.472 128.275 102.853L123.875 106.693L122.575 105.203L123.478 104.415L123.433 104.364C123.168 104.429 122.881 104.446 122.572 104.414C122.268 104.383 121.955 104.281 121.634 104.109C121.318 103.937 121.011 103.68 120.712 103.337ZM122.202 102.746C122.473 103.057 122.77 103.273 123.092 103.394C123.417 103.513 123.736 103.544 124.048 103.487C124.363 103.434 124.642 103.301 124.885 103.089L125.66 102.413C125.577 102.399 125.468 102.349 125.332 102.262C125.198 102.178 125.056 102.075 124.905 101.955C124.755 101.835 124.609 101.713 124.467 101.591C124.325 101.469 124.202 101.362 124.098 101.272C123.865 101.068 123.633 100.906 123.402 100.786C123.172 100.665 122.946 100.608 122.725 100.615C122.508 100.619 122.299 100.708 122.099 100.882C121.814 101.132 121.689 101.424 121.725 101.759C121.762 102.094 121.921 102.423 122.202 102.746ZM125.235 108.251L131.81 102.513L133.121 104.016L132.025 104.972L132.085 105.04C132.569 104.829 133.041 104.779 133.501 104.891C133.966 105.003 134.362 105.248 134.691 105.624C134.766 105.71 134.845 105.809 134.929 105.922C135.018 106.036 135.086 106.134 135.134 106.218L133.708 107.462C133.674 107.377 133.603 107.255 133.496 107.097C133.394 106.94 133.285 106.796 133.171 106.665C132.924 106.382 132.641 106.182 132.322 106.063C132.008 105.945 131.687 105.915 131.361 105.974C131.035 106.032 130.732 106.183 130.453 106.428L126.587 109.801L125.235 108.251Z" fill="#140533"/>
<defs>
<linearGradient id="paint0_linear_3071_4688" x1="0" y1="0" x2="19.7659" y2="95.9272" gradientUnits="userSpaceOnUse">
<stop stop-color="#F4EDFF"/>
<stop offset="1" stop-color="#FCEBEF"/>
</linearGradient>
</defs>
</svg>
