<svg width="18" height="18" viewBox="0 0 18 18" fill="none" xmlns="http://www.w3.org/2000/svg">
<path d="M18.0024 1.42095V13.7359C18.0024 14.1127 17.8527 14.4741 17.5862 14.7406C17.3197 15.0071 16.9583 15.1568 16.5814 15.1568C16.2046 15.1568 15.8431 15.0071 15.5767 14.7406C15.3102 14.4741 15.1605 14.1127 15.1605 13.7359V4.85492L2.42992 17.5831C2.16298 17.85 1.80093 18 1.42342 18C1.0459 18 0.683851 17.85 0.416909 17.5831C0.149967 17.3161 0 16.9541 0 16.5766C0 16.1991 0.149967 15.837 0.416909 15.5701L13.1474 2.8419H4.2665C3.88964 2.8419 3.52822 2.6922 3.26174 2.42572C2.99526 2.15924 2.84555 1.79781 2.84555 1.42095C2.84555 1.04409 2.99526 0.682667 3.26174 0.416187C3.52822 0.149707 3.88964 0 4.2665 0H16.5814C16.9583 0 17.3197 0.149707 17.5862 0.416187C17.8527 0.682667 18.0024 1.04409 18.0024 1.42095Z" fill="#000628"/>
</svg>
