<svg width="28" height="24" viewBox="0 0 28 24" fill="none" xmlns="http://www.w3.org/2000/svg">
<path d="M27 0H18C17.2238 0 16.4582 0.180725 15.7639 0.527864C15.0697 0.875003 14.4657 1.37902 14 2C13.5343 1.37902 12.9303 0.875003 12.2361 0.527864C11.5418 0.180725 10.7762 0 10 0H1C0.734783 0 0.48043 0.105357 0.292893 0.292893C0.105357 0.48043 0 0.734784 0 1V19C0 19.2652 0.105357 19.5196 0.292893 19.7071C0.48043 19.8946 0.734783 20 1 20H10C10.7956 20 11.5587 20.3161 12.1213 20.8787C12.6839 21.4413 13 22.2044 13 23C13 23.2652 13.1054 23.5196 13.2929 23.7071C13.4804 23.8946 13.7348 24 14 24C14.2652 24 14.5196 23.8946 14.7071 23.7071C14.8946 23.5196 15 23.2652 15 23C15 22.2044 15.3161 21.4413 15.8787 20.8787C16.4413 20.3161 17.2043 20 18 20H27C27.2652 20 27.5196 19.8946 27.7071 19.7071C27.8946 19.5196 28 19.2652 28 19V1C28 0.734784 27.8946 0.48043 27.7071 0.292893C27.5196 0.105357 27.2652 0 27 0ZM10 18H2V2H10C10.7956 2 11.5587 2.31607 12.1213 2.87868C12.6839 3.44129 13 4.20435 13 5V19C12.1353 18.3493 11.0821 17.9983 10 18ZM26 18H18C16.9179 17.9983 15.8647 18.3493 15 19V5C15 4.20435 15.3161 3.44129 15.8787 2.87868C16.4413 2.31607 17.2043 2 18 2H26V18ZM18 5H23C23.2652 5 23.5196 5.10536 23.7071 5.29289C23.8946 5.48043 24 5.73478 24 6C24 6.26522 23.8946 6.51957 23.7071 6.70711C23.5196 6.89464 23.2652 7 23 7H18C17.7348 7 17.4804 6.89464 17.2929 6.70711C17.1054 6.51957 17 6.26522 17 6C17 5.73478 17.1054 5.48043 17.2929 5.29289C17.4804 5.10536 17.7348 5 18 5ZM24 10C24 10.2652 23.8946 10.5196 23.7071 10.7071C23.5196 10.8946 23.2652 11 23 11H18C17.7348 11 17.4804 10.8946 17.2929 10.7071C17.1054 10.5196 17 10.2652 17 10C17 9.73478 17.1054 9.48043 17.2929 9.29289C17.4804 9.10536 17.7348 9 18 9H23C23.2652 9 23.5196 9.10536 23.7071 9.29289C23.8946 9.48043 24 9.73478 24 10ZM24 14C24 14.2652 23.8946 14.5196 23.7071 14.7071C23.5196 14.8946 23.2652 15 23 15H18C17.7348 15 17.4804 14.8946 17.2929 14.7071C17.1054 14.5196 17 14.2652 17 14C17 13.7348 17.1054 13.4804 17.2929 13.2929C17.4804 13.1054 17.7348 13 18 13H23C23.2652 13 23.5196 13.1054 23.7071 13.2929C23.8946 13.4804 24 13.7348 24 14Z" fill="#5523E8"/>
</svg>
