<svg width="38" height="40" viewBox="0 0 38 40" fill="none" xmlns="http://www.w3.org/2000/svg">
<path d="M31.7605 5.48106C29.1665 2.87186 25.8563 1.09143 22.2493 0.365397C18.6424 -0.360635 14.9012 0.00040805 11.4997 1.40278C8.09814 2.80514 5.18948 5.18571 3.14227 8.24281C1.09506 11.2999 0.00143924 14.8959 0 18.5752V28.5734C0 29.7099 0.45145 30.7998 1.25504 31.6034C2.05862 32.4069 3.14852 32.8584 4.28496 32.8584H7.1416C8.27804 32.8584 9.36794 32.4069 10.1715 31.6034C10.9751 30.7998 11.4266 29.7099 11.4266 28.5734V21.4318C11.4266 20.2954 10.9751 19.2055 10.1715 18.4019C9.36794 17.5983 8.27804 17.1469 7.1416 17.1469H2.92092C3.19637 14.1687 4.31502 11.3308 6.14575 8.96564C7.97648 6.60052 10.4434 4.80623 13.2575 3.79308C16.0715 2.77993 19.1161 2.58988 22.0343 3.24522C24.9525 3.90055 27.6234 5.37412 29.7341 7.49321C32.3138 10.0861 33.9005 13.503 34.2172 17.1469H29.9947C28.8583 17.1469 27.7684 17.5983 26.9648 18.4019C26.1612 19.2055 25.7098 20.2954 25.7098 21.4318V28.5734C25.7098 29.7099 26.1612 30.7998 26.9648 31.6034C27.7684 32.4069 28.8583 32.8584 29.9947 32.8584H34.2797C34.2797 33.9948 33.8282 35.0847 33.0247 35.8883C32.2211 36.6919 31.1312 37.1434 29.9947 37.1434H19.9965C19.6177 37.1434 19.2544 37.2938 18.9865 37.5617C18.7186 37.8296 18.5682 38.1929 18.5682 38.5717C18.5682 38.9505 18.7186 39.3138 18.9865 39.5817C19.2544 39.8495 19.6177 40 19.9965 40H29.9947C31.8888 40 33.7053 39.2476 35.0446 37.9083C36.3839 36.569 37.1363 34.7525 37.1363 32.8584V18.5752C37.1456 16.1463 36.6756 13.7394 35.7531 11.4925C34.8306 9.24556 33.4738 7.20273 31.7605 5.48106ZM7.1416 20.0035C7.52042 20.0035 7.88372 20.154 8.15158 20.4219C8.41944 20.6897 8.56992 21.053 8.56992 21.4318V28.5734C8.56992 28.9522 8.41944 29.3155 8.15158 29.5834C7.88372 29.8513 7.52042 30.0018 7.1416 30.0018H4.28496C3.90615 30.0018 3.54285 29.8513 3.27499 29.5834C3.00712 29.3155 2.85664 28.9522 2.85664 28.5734V20.0035H7.1416ZM29.9947 30.0018C29.6159 30.0018 29.2526 29.8513 28.9848 29.5834C28.7169 29.3155 28.5664 28.9522 28.5664 28.5734V21.4318C28.5664 21.053 28.7169 20.6897 28.9848 20.4219C29.2526 20.154 29.6159 20.0035 29.9947 20.0035H34.2797V30.0018H29.9947Z" fill="#5523E8"/>
</svg>
