<svg width="28" height="40" viewBox="0 0 28 40" fill="none" xmlns="http://www.w3.org/2000/svg">
<path d="M13.7931 27.5862C15.9873 27.5839 18.091 26.7113 19.6425 25.1597C21.194 23.6082 22.0667 21.5045 22.069 19.3103V8.27586C22.069 6.08097 21.197 3.97597 19.645 2.42394C18.093 0.871919 15.988 0 13.7931 0C11.5982 0 9.49321 0.871919 7.94119 2.42394C6.38916 3.97597 5.51724 6.08097 5.51724 8.27586V19.3103C5.51952 21.5045 6.39218 23.6082 7.94371 25.1597C9.49524 26.7113 11.5989 27.5839 13.7931 27.5862ZM8.27586 8.27586C8.27586 6.8126 8.85714 5.40927 9.89182 4.37458C10.9265 3.3399 12.3298 2.75862 13.7931 2.75862C15.2564 2.75862 16.6597 3.3399 17.6944 4.37458C18.7291 5.40927 19.3103 6.8126 19.3103 8.27586V19.3103C19.3103 20.7736 18.7291 22.1769 17.6944 23.2116C16.6597 24.2463 15.2564 24.8276 13.7931 24.8276C12.3298 24.8276 10.9265 24.2463 9.89182 23.2116C8.85714 22.1769 8.27586 20.7736 8.27586 19.3103V8.27586ZM15.1724 33.0345V38.6207C15.1724 38.9865 15.0271 39.3373 14.7684 39.596C14.5098 39.8547 14.1589 40 13.7931 40C13.4273 40 13.0765 39.8547 12.8178 39.596C12.5591 39.3373 12.4138 38.9865 12.4138 38.6207V33.0345C9.01318 32.6884 5.86166 31.0937 3.5687 28.5587C1.27573 26.0237 0.0042002 22.7285 0 19.3103C0 18.9445 0.14532 18.5937 0.403991 18.335C0.662662 18.0764 1.01349 17.931 1.37931 17.931C1.74513 17.931 2.09596 18.0764 2.35463 18.335C2.6133 18.5937 2.75862 18.9445 2.75862 19.3103C2.75862 22.2369 3.92118 25.0435 5.99055 27.1129C8.05991 29.1823 10.8666 30.3448 13.7931 30.3448C16.7196 30.3448 19.5263 29.1823 21.5957 27.1129C23.665 25.0435 24.8276 22.2369 24.8276 19.3103C24.8276 18.9445 24.9729 18.5937 25.2316 18.335C25.4902 18.0764 25.8411 17.931 26.2069 17.931C26.5727 17.931 26.9235 18.0764 27.1822 18.335C27.4409 18.5937 27.5862 18.9445 27.5862 19.3103C27.582 22.7285 26.3105 26.0237 24.0175 28.5587C21.7245 31.0937 18.573 32.6884 15.1724 33.0345Z" fill="#5523E8"/>
</svg>
