<svg width="38" height="40" viewBox="0 0 38 40" fill="none" xmlns="http://www.w3.org/2000/svg">
<path d="M35.6663 8.95267L19.948 0.352257C19.5277 0.121168 19.0558 0 18.5762 0C18.0965 0 17.6247 0.121168 17.2044 0.352257L1.48609 8.95803C1.03721 9.20363 0.662497 9.56526 0.401088 10.0051C0.139679 10.445 0.00116147 10.947 0 11.4587V28.5416C0.00116147 29.0533 0.139679 29.5553 0.401088 29.9951C0.662497 30.435 1.03721 30.7966 1.48609 31.0422L17.2044 39.6462C17.6244 39.8783 18.0964 40 18.5762 40C19.056 40 19.528 39.8783 19.948 39.6462L35.6663 31.0422C36.1151 30.7966 36.4899 30.435 36.7513 29.9951C37.0127 29.5553 37.1512 29.0533 37.1523 28.5416V11.4587C37.1521 10.9461 37.0141 10.443 36.7526 10.0021C36.4912 9.56117 36.1159 9.19871 35.6663 8.95267ZM25.7209 24.2869V33.2339L20.0051 36.3632V20.8468L34.2945 13.0234V18.7391L26.4639 23.0259C26.2379 23.1496 26.0495 23.3321 25.9187 23.5541C25.7879 23.7761 25.7195 24.0293 25.7209 24.2869ZM10.6884 23.0366L2.85787 18.7498V13.0341L17.1472 20.8575V36.374L11.4315 33.2339V24.2869C11.4309 24.0311 11.3617 23.7801 11.2309 23.5602C11.1002 23.3402 10.9129 23.1594 10.6884 23.0366ZM10.5634 7.24509L17.8867 11.255C18.097 11.3701 18.3329 11.4304 18.5726 11.4304C18.8123 11.4304 19.0482 11.3701 19.2585 11.255L26.5818 7.24509L32.7405 10.6156L18.5762 18.3711L4.4047 10.612L10.5634 7.24509ZM18.5762 2.8529L23.6132 5.61074L18.5762 8.37038L13.5392 5.61253L18.5762 2.8529ZM2.85787 22.0042L8.57362 25.1336V31.6692L2.85787 28.5416V22.0042ZM28.5787 31.6692V25.1336L34.2945 22.0042V28.5416L28.5787 31.6692Z" fill="#5523E8"/>
</svg>
