<svg width="44" height="40" viewBox="0 0 44 40" fill="none" xmlns="http://www.w3.org/2000/svg">
<path d="M42.6914 3.68563C42.4918 3.53007 42.2593 3.42202 42.0117 3.36968C41.7641 3.31733 41.5078 3.32208 41.2623 3.38355L28.5269 6.56686L15.7457 0.175231C15.3896 -0.00239321 14.9817 -0.0467318 14.5957 0.0502324L1.26249 3.38355C0.901929 3.47367 0.581835 3.68173 0.353086 3.97465C0.124336 4.26757 5.6272e-05 4.62855 0 5.0002V35C3.8343e-05 35.2533 0.0577895 35.5032 0.168867 35.7308C0.279945 35.9584 0.441428 36.1577 0.641051 36.3135C0.840674 36.4693 1.07319 36.5776 1.32093 36.6302C1.56867 36.6827 1.82513 36.6781 2.07082 36.6167L14.8062 33.4334L27.5873 39.825C27.8194 39.9394 28.0745 39.9992 28.3332 40C28.4694 39.9999 28.6052 39.9831 28.7373 39.95L42.0706 36.6167C42.4312 36.5266 42.7512 36.3185 42.98 36.0256C43.2087 35.7327 43.333 35.3717 43.3331 35V5.0002C43.3331 4.74672 43.2754 4.49655 43.1642 4.26876C43.053 4.04096 42.8913 3.84152 42.6914 3.68563ZM16.6666 4.36271L26.6665 9.36268V35.6375L16.6666 30.6376V4.36271ZM3.33331 6.30228L13.3333 3.80229V30.3646L3.33331 32.8646V6.30228ZM39.9998 33.698L29.9998 36.1979V9.63559L39.9998 7.13561V33.698Z" fill="#5523E8"/>
</svg>
