<svg width="30" height="30" viewBox="0 0 30 30" fill="none" xmlns="http://www.w3.org/2000/svg">
<path d="M23.4813 15.6516L16.8127 13.1873L14.3562 6.51351C14.2107 6.11832 13.9475 5.77725 13.6021 5.53634C13.2567 5.29542 12.8457 5.16625 12.4246 5.16625C12.0035 5.16625 11.5925 5.29542 11.2471 5.53634C10.9017 5.77725 10.6385 6.11832 10.4931 6.51351L8.02109 13.1873L1.34726 15.6438C0.952067 15.7893 0.611003 16.0525 0.370088 16.3979C0.129172 16.7433 0 17.1543 0 17.5754C0 17.9965 0.129172 18.4075 0.370088 18.7529C0.611003 19.0983 0.952067 19.3615 1.34726 19.5069L8.02109 21.9789L10.4776 28.6527C10.623 29.0479 10.8862 29.389 11.2316 29.6299C11.577 29.8708 11.988 30 12.4091 30C12.8302 30 13.2412 29.8708 13.5866 29.6299C13.932 29.389 14.1952 29.0479 14.3407 28.6527L16.8127 21.9789L23.4865 19.5224C23.8817 19.377 24.2227 19.1138 24.4637 18.7684C24.7046 18.423 24.8337 18.012 24.8337 17.5909C24.8337 17.1698 24.7046 16.7588 24.4637 16.4134C24.2227 16.068 23.8817 15.8048 23.4865 15.6593L23.4813 15.6516ZM15.6491 20.1973C15.5087 20.2491 15.3812 20.3307 15.2754 20.4365C15.1696 20.5423 15.088 20.6698 15.0362 20.8101L12.4169 27.9067L9.80268 20.8153C9.75102 20.6734 9.66892 20.5446 9.56216 20.4378C9.4554 20.3311 9.32656 20.249 9.18468 20.1973L2.09325 17.5831L9.18468 14.9689C9.32656 14.9173 9.4554 14.8352 9.56216 14.7284C9.66892 14.6216 9.75102 14.4928 9.80268 14.3509L12.4169 7.2595L15.0311 14.3509C15.0828 14.4913 15.1644 14.6188 15.2702 14.7246C15.376 14.8304 15.5035 14.912 15.6439 14.9638L22.7405 17.5831L15.6491 20.1973ZM16.5541 4.13721C16.5541 3.86289 16.663 3.59981 16.857 3.40584C17.051 3.21188 17.3141 3.1029 17.5884 3.1029H19.657V1.0343C19.657 0.759988 19.766 0.496909 19.9599 0.30294C20.1539 0.108971 20.417 0 20.6913 0C20.9656 0 21.2287 0.108971 21.4226 0.30294C21.6166 0.496909 21.7256 0.759988 21.7256 1.0343V3.1029H23.7942C24.0685 3.1029 24.3316 3.21188 24.5256 3.40584C24.7195 3.59981 24.8285 3.86289 24.8285 4.13721C24.8285 4.41152 24.7195 4.6746 24.5256 4.86857C24.3316 5.06254 24.0685 5.17151 23.7942 5.17151H21.7256V7.24011C21.7256 7.51442 21.6166 7.7775 21.4226 7.97147C21.2287 8.16544 20.9656 8.27441 20.6913 8.27441C20.417 8.27441 20.1539 8.16544 19.9599 7.97147C19.766 7.7775 19.657 7.51442 19.657 7.24011V5.17151H17.5884C17.3141 5.17151 17.051 5.06254 16.857 4.86857C16.663 4.6746 16.5541 4.41152 16.5541 4.13721ZM30 10.343C30 10.6173 29.891 10.8804 29.6971 11.0744C29.5031 11.2683 29.24 11.3773 28.9657 11.3773H27.9314V12.4116C27.9314 12.6859 27.8224 12.949 27.6285 13.143C27.4345 13.3369 27.1714 13.4459 26.8971 13.4459C26.6228 13.4459 26.3597 13.3369 26.1657 13.143C25.9718 12.949 25.8628 12.6859 25.8628 12.4116V11.3773H24.8285C24.5542 11.3773 24.2911 11.2683 24.0971 11.0744C23.9032 10.8804 23.7942 10.6173 23.7942 10.343C23.7942 10.0687 23.9032 9.80562 24.0971 9.61165C24.2911 9.41768 24.5542 9.30871 24.8285 9.30871H25.8628V8.27441C25.8628 8.0001 25.9718 7.73702 26.1657 7.54305C26.3597 7.34908 26.6228 7.24011 26.8971 7.24011C27.1714 7.24011 27.4345 7.34908 27.6285 7.54305C27.8224 7.73702 27.9314 8.0001 27.9314 8.27441V9.30871H28.9657C29.24 9.30871 29.5031 9.41768 29.6971 9.61165C29.891 9.80562 30 10.0687 30 10.343Z" fill="#5523E8"/>
</svg>
