<svg width="46" height="40" viewBox="0 0 46 40" fill="none" xmlns="http://www.w3.org/2000/svg">
<path d="M43.4783 36.5217H41.7391V1.73913C41.7391 1.27788 41.5559 0.83553 41.2298 0.50938C40.9036 0.18323 40.4612 0 40 0H27.8261C27.3648 0 26.9225 0.18323 26.5963 0.50938C26.2702 0.83553 26.087 1.27788 26.087 1.73913V10.4348H15.6522C15.1909 10.4348 14.7486 10.618 14.4224 10.9442C14.0963 11.2703 13.913 11.7127 13.913 12.1739V20.8696H5.21739C4.75615 20.8696 4.31379 21.0528 3.98764 21.3789C3.66149 21.7051 3.47826 22.1474 3.47826 22.6087V36.5217H1.73913C1.27788 36.5217 0.83553 36.705 0.509379 37.0311C0.183229 37.3573 0 37.7996 0 38.2609C0 38.7221 0.183229 39.1645 0.509379 39.4906C0.83553 39.8168 1.27788 40 1.73913 40H43.4783C43.9395 40 44.3819 39.8168 44.708 39.4906C45.0342 39.1645 45.2174 38.7221 45.2174 38.2609C45.2174 37.7996 45.0342 37.3573 44.708 37.0311C44.3819 36.705 43.9395 36.5217 43.4783 36.5217ZM29.5652 3.47826H38.2609V36.5217H29.5652V3.47826ZM17.3913 13.913H26.087V36.5217H17.3913V13.913ZM6.95652 24.3478H13.913V36.5217H6.95652V24.3478Z" fill="#5523E8"/>
</svg>
