<svg width="42" height="40" viewBox="0 0 42 40" fill="none" xmlns="http://www.w3.org/2000/svg">
<path d="M40.0045 16.6654H16.272L38.7545 10.7297C38.9673 10.6736 39.1669 10.5759 39.3417 10.4423C39.5166 10.3087 39.6633 10.1418 39.7733 9.95117C39.8833 9.76057 39.9545 9.55007 39.9827 9.33181C40.011 9.11356 39.9957 8.89187 39.9378 8.67955L38.2378 2.42921C38.0038 1.5883 37.4479 0.873423 36.6906 0.439401C35.9333 0.00537857 35.0355 -0.112847 34.1917 0.11033L2.46289 8.48579C2.04043 8.59545 1.64408 8.7883 1.29707 9.05303C0.950056 9.31776 0.659341 9.64906 0.441947 10.0275C0.223338 10.4014 0.0820999 10.8153 0.0266241 11.2448C-0.0288517 11.6743 0.00256659 12.1106 0.119012 12.5277L1.6691 18.2405C1.6691 18.2697 1.6691 18.3009 1.6691 18.3322V36.6665C1.6691 37.5506 2.02031 38.3985 2.64546 39.0236C3.27062 39.6488 4.11851 40 5.00261 40H38.3378C39.2219 40 40.0698 39.6488 40.6949 39.0236C41.3201 38.3985 41.6713 37.5506 41.6713 36.6665V18.3322C41.6713 17.8901 41.4957 17.4662 41.1831 17.1536C40.8705 16.841 40.4466 16.6654 40.0045 16.6654ZM35.0376 3.33134L36.2877 7.92951L31.5749 9.17957L25.7162 5.79606L35.0376 3.33134ZM21.1431 6.9982L27.0017 10.3817L19.3055 12.4131L13.4468 9.03373L21.1431 6.9982ZM4.60051 16.2945L3.35044 11.6943L8.87157 10.2359L14.7302 13.6236L4.60051 16.2945ZM38.3378 36.6665H5.00261V19.9989H38.3378V36.6665Z" fill="#5523E8"/>
</svg>
