<svg width="30" height="24" viewBox="0 0 30 24" fill="none" xmlns="http://www.w3.org/2000/svg">
<path d="M29.2605 12.6559L26.4921 15.4243C26.4064 15.5101 26.3046 15.5782 26.1926 15.6246C26.0805 15.6711 25.9605 15.695 25.8392 15.695C25.7179 15.695 25.5978 15.6711 25.4858 15.6246C25.3738 15.5782 25.272 15.5101 25.1863 15.4243L22.4179 12.6559C22.2447 12.4827 22.1474 12.2479 22.1474 12.003C22.1474 11.7581 22.2447 11.5233 22.4179 11.3501C22.591 11.1769 22.8259 11.0797 23.0708 11.0797C23.3156 11.0797 23.5505 11.1769 23.7237 11.3501L24.9164 12.544V12.003C24.9174 9.85357 24.2362 7.7593 22.9708 6.02185C21.7053 4.28441 19.9211 2.9935 17.875 2.33507C15.8289 1.67664 13.6266 1.6847 11.5854 2.35807C9.54418 3.03144 7.76939 4.33536 6.51671 6.08201C6.37384 6.28086 6.15782 6.41482 5.91619 6.45441C5.67455 6.494 5.42709 6.43597 5.22823 6.2931C5.02938 6.15023 4.89542 5.93422 4.85583 5.69258C4.81625 5.45095 4.87427 5.20348 5.01714 5.00463C6.49766 2.94044 8.5952 1.39949 11.0076 0.603769C13.42 -0.191955 16.0227 -0.201378 18.4408 0.576859C20.8589 1.3551 22.9675 2.88082 24.4629 4.93423C25.9584 6.98765 26.7634 9.46275 26.762 12.003V12.544L27.9547 11.3501C28.1279 11.1769 28.3627 11.0797 28.6076 11.0797C28.8525 11.0797 29.0874 11.1769 29.2605 11.3501C29.4337 11.5233 29.5309 11.7581 29.5309 12.003C29.5309 12.2479 29.4337 12.4827 29.2605 12.6559ZM24.5103 19.0002C23.0294 21.0628 20.9322 22.6023 18.5205 23.3972C16.1089 24.192 13.5073 24.2011 11.0902 23.4231C8.67307 22.6452 6.56512 21.1204 5.06978 19.0682C3.57444 17.016 2.76884 14.5422 2.76894 12.003V11.462L1.57621 12.6559C1.40305 12.829 1.1682 12.9263 0.923323 12.9263C0.678443 12.9263 0.443592 12.829 0.270435 12.6559C0.0972784 12.4827 0 12.2479 0 12.003C0 11.7581 0.0972784 11.5233 0.270435 11.3501L3.03887 8.58167C3.12457 8.49587 3.22634 8.42781 3.33837 8.38137C3.4504 8.33493 3.57048 8.31102 3.69175 8.31102C3.81302 8.31102 3.93311 8.33493 4.04513 8.38137C4.15716 8.42781 4.25894 8.49587 4.34464 8.58167L7.11307 11.3501C7.28623 11.5233 7.38351 11.7581 7.38351 12.003C7.38351 12.2479 7.28623 12.4827 7.11307 12.6559C6.93991 12.829 6.70506 12.9263 6.46018 12.9263C6.2153 12.9263 5.98045 12.829 5.8073 12.6559L4.61456 11.462V12.003C4.61238 14.4879 5.52566 16.8865 7.17998 18.7407C8.20918 17.2493 9.65636 16.0954 11.3395 15.4243C10.4354 14.7122 9.77564 13.736 9.45202 12.6315C9.12839 11.5271 9.15698 10.3492 9.53382 9.26172C9.91065 8.17425 10.617 7.23124 11.5546 6.56382C12.4923 5.8964 13.6146 5.53776 14.7655 5.53776C15.9164 5.53776 17.0387 5.8964 17.9763 6.56382C18.9139 7.23124 19.6203 8.17425 19.9971 9.26172C20.374 10.3492 20.4026 11.5271 20.0789 12.6315C19.7553 13.736 19.0955 14.7122 18.1914 15.4243C19.8761 16.0956 21.3243 17.2507 22.3533 18.7441C22.5866 18.4821 22.8064 18.2083 23.0119 17.924C23.1548 17.7251 23.3708 17.5912 23.6125 17.5516C23.8541 17.512 24.1016 17.57 24.3004 17.7129C24.4993 17.8557 24.6332 18.0718 24.6728 18.3134C24.7124 18.555 24.6544 18.8025 24.5115 19.0014L24.5103 19.0002ZM14.7655 14.7714C15.4955 14.7714 16.2092 14.5549 16.8162 14.1493C17.4232 13.7437 17.8964 13.1672 18.1757 12.4928C18.4551 11.8183 18.5282 11.0761 18.3858 10.3601C18.2434 9.64402 17.8918 8.98631 17.3756 8.47008C16.8593 7.95385 16.2016 7.60229 15.4856 7.45987C14.7696 7.31744 14.0274 7.39054 13.3529 7.66992C12.6784 7.9493 12.1019 8.42242 11.6963 9.02944C11.2907 9.63646 11.0742 10.3501 11.0742 11.0802C11.0742 12.0592 11.4631 12.998 12.1554 13.6903C12.8476 14.3825 13.7865 14.7714 14.7655 14.7714ZM14.7655 22.1539C17.0176 22.151 19.2052 21.4008 20.9852 20.0211C20.3176 18.977 19.398 18.1178 18.311 17.5226C17.224 16.9275 16.0047 16.6155 14.7655 16.6155C13.5262 16.6155 12.3069 16.9275 11.2199 17.5226C10.133 18.1178 9.21331 18.977 8.54573 20.0211C10.3231 21.4058 12.5124 22.1565 14.7655 22.1539Z" fill="#5523E8"/>
</svg>
