<svg width="50" height="40" viewBox="0 0 50 40" fill="none" xmlns="http://www.w3.org/2000/svg">
<path d="M47.9854 24.3875C47.3652 23.9103 46.6433 23.5826 45.8759 23.4297C45.1085 23.2769 44.3161 23.3031 43.5604 23.5063L34.8437 25.5104C35.0465 24.6537 35.0528 23.7623 34.8621 22.9028C34.6713 22.0434 34.2885 21.2382 33.7424 20.5478C33.1962 19.8573 32.5009 19.2994 31.7084 18.9159C30.916 18.5324 30.047 18.3332 29.1667 18.3333H18.7375C17.8617 18.3311 16.9941 18.5025 16.1849 18.8376C15.3756 19.1726 14.6408 19.6647 14.0229 20.2854L9.31042 25H3.33333C2.44928 25 1.60143 25.3512 0.976311 25.9763C0.351189 26.6014 0 27.4493 0 28.3333L0 36.6667C0 37.5507 0.351189 38.3986 0.976311 39.0237C1.60143 39.6488 2.44928 40 3.33333 40H25C25.1363 40.0001 25.272 39.9833 25.4042 39.95L38.7375 36.6167C38.8225 36.5964 38.9055 36.5685 38.9854 36.5333L47.0833 33.0875L47.175 33.0458C47.9533 32.6569 48.6197 32.0763 49.1116 31.3587C49.6034 30.641 49.9045 29.81 49.9864 28.9438C50.0683 28.0776 49.9284 27.2049 49.5797 26.4078C49.2311 25.6106 48.6853 24.9154 47.9937 24.3875H47.9854ZM3.33333 28.3333H8.33333V36.6667H3.33333V28.3333ZM45.7146 30.0438L37.7979 33.4146L24.7917 36.6667H11.6667V27.3563L16.3812 22.6438C16.6897 22.3329 17.0568 22.0864 17.4613 21.9187C17.8658 21.7509 18.2996 21.6653 18.7375 21.6667H29.1667C29.8297 21.6667 30.4656 21.9301 30.9344 22.3989C31.4033 22.8677 31.6667 23.5036 31.6667 24.1667C31.6667 24.8297 31.4033 25.4656 30.9344 25.9344C30.4656 26.4033 29.8297 26.6667 29.1667 26.6667H23.3333C22.8913 26.6667 22.4674 26.8423 22.1548 27.1548C21.8423 27.4674 21.6667 27.8913 21.6667 28.3333C21.6667 28.7754 21.8423 29.1993 22.1548 29.5118C22.4674 29.8244 22.8913 30 23.3333 30H30C30.1254 29.9996 30.2505 29.9857 30.3729 29.9583L44.3312 26.7479L44.3958 26.7313C44.8219 26.613 45.2767 26.6564 45.6727 26.8533C46.0687 27.0502 46.3779 27.3865 46.5408 27.7976C46.7037 28.2088 46.7088 28.6656 46.5551 29.0803C46.4014 29.4949 46.0998 29.8381 45.7083 30.0438H45.7146ZM34.1667 15C34.5784 15.0005 34.9895 14.967 35.3958 14.9C35.8528 16.2574 36.6889 17.4555 37.8053 18.3528C38.9216 19.2501 40.2715 19.8089 41.6954 19.9633C43.1193 20.1177 44.5577 19.8611 45.8404 19.2239C47.1231 18.5868 48.1965 17.5956 48.9338 16.3677C49.6711 15.1398 50.0413 13.7265 50.0008 12.2948C49.9603 10.8631 49.5107 9.47299 48.7051 8.28874C47.8996 7.1045 46.7718 6.17567 45.4551 5.61207C44.1384 5.04847 42.6879 4.87367 41.275 5.10834C40.835 3.80051 40.0427 2.63943 38.9853 1.75287C37.928 0.866309 36.6465 0.288631 35.282 0.0834127C33.9175 -0.121806 32.5228 0.05339 31.2514 0.58972C29.9801 1.12605 28.8813 2.00272 28.0761 3.12326C27.2708 4.2438 26.7903 5.56476 26.6874 6.94078C26.5845 8.3168 26.8633 9.69454 27.4929 10.9224C28.1226 12.1502 29.0787 13.1805 30.2562 13.8999C31.4337 14.6194 32.7868 15 34.1667 15ZM46.6667 12.5C46.6667 13.3241 46.4223 14.1297 45.9645 14.8149C45.5066 15.5001 44.8559 16.0341 44.0945 16.3495C43.3332 16.6649 42.4954 16.7474 41.6871 16.5866C40.8789 16.4258 40.1364 16.029 39.5537 15.4463C38.971 14.8636 38.5742 14.1211 38.4134 13.3129C38.2526 12.5046 38.3351 11.6668 38.6505 10.9055C38.9659 10.1441 39.4999 9.49338 40.1851 9.03555C40.8703 8.57771 41.6759 8.33334 42.5 8.33334C43.6051 8.33334 44.6649 8.77232 45.4463 9.55372C46.2277 10.3351 46.6667 11.3949 46.6667 12.5ZM34.1667 3.33334C35.0756 3.33379 35.9595 3.63147 36.6836 4.181C37.4076 4.73053 37.9321 5.50175 38.1771 6.37709C37.3235 6.9777 36.6046 7.74987 36.0665 8.6442C35.5284 9.53853 35.1829 10.5353 35.0521 11.5708C34.7611 11.6337 34.4643 11.6658 34.1667 11.6667C33.0616 11.6667 32.0018 11.2277 31.2204 10.4463C30.439 9.66488 30 8.60507 30 7.5C30 6.39493 30.439 5.33513 31.2204 4.55372C32.0018 3.77232 33.0616 3.33334 34.1667 3.33334Z" fill="#5523E8"/>
</svg>
