<svg width="44" height="40" viewBox="0 0 44 40" fill="none" xmlns="http://www.w3.org/2000/svg">
<path d="M38.3333 0H5C3.67392 0 2.40215 0.526784 1.46447 1.46447C0.526784 2.40215 0 3.67392 0 5V28.3333C0 29.6594 0.526784 30.9312 1.46447 31.8689C2.40215 32.8065 3.67392 33.3333 5 33.3333H20V36.6667H15C14.558 36.6667 14.134 36.8423 13.8215 37.1548C13.5089 37.4674 13.3333 37.8913 13.3333 38.3333C13.3333 38.7754 13.5089 39.1993 13.8215 39.5118C14.134 39.8244 14.558 40 15 40H28.3333C28.7754 40 29.1993 39.8244 29.5118 39.5118C29.8244 39.1993 30 38.7754 30 38.3333C30 37.8913 29.8244 37.4674 29.5118 37.1548C29.1993 36.8423 28.7754 36.6667 28.3333 36.6667H23.3333V33.3333H38.3333C39.6594 33.3333 40.9312 32.8065 41.8689 31.8689C42.8065 30.9312 43.3333 29.6594 43.3333 28.3333V5C43.3333 3.67392 42.8065 2.40215 41.8689 1.46447C40.9312 0.526784 39.6594 0 38.3333 0ZM5 3.33333H38.3333C38.7754 3.33333 39.1993 3.50893 39.5118 3.82149C39.8244 4.13405 40 4.55797 40 5V21.6667H3.33333V5C3.33333 4.55797 3.50893 4.13405 3.82149 3.82149C4.13405 3.50893 4.55797 3.33333 5 3.33333ZM38.3333 30H5C4.55797 30 4.13405 29.8244 3.82149 29.5118C3.50893 29.1993 3.33333 28.7754 3.33333 28.3333V25H40V28.3333C40 28.7754 39.8244 29.1993 39.5118 29.5118C39.1993 29.8244 38.7754 30 38.3333 30Z" fill="#5523E8"/>
</svg>
