<svg width="40" height="40" viewBox="0 0 40 40" fill="none" xmlns="http://www.w3.org/2000/svg">
<path d="M20.0026 0C19.5946 0 19.2032 0.162087 18.9147 0.450605C18.6262 0.739122 18.4641 1.13044 18.4641 1.53846V12.3077C18.4641 12.7157 18.6262 13.107 18.9147 13.3955C19.2032 13.6841 19.5946 13.8461 20.0026 13.8461C21.3572 13.8464 22.6739 14.2937 23.7484 15.1186C24.8229 15.9434 25.5952 17.0997 25.9456 18.4083C26.296 19.7168 26.2048 21.1043 25.6863 22.3558C25.1677 23.6072 24.2507 24.6525 23.0775 25.3297C21.9043 26.0069 20.5405 26.278 19.1974 26.1011C17.8544 25.9242 16.6073 25.3091 15.6495 24.3512C14.6917 23.3933 14.0768 22.1461 13.9 20.8031C13.7232 19.46 13.9945 18.0962 14.6718 16.9231C14.7729 16.7481 14.8385 16.5549 14.8648 16.3545C14.8912 16.1542 14.8779 15.9506 14.8255 15.7554C14.7732 15.5602 14.6829 15.3772 14.5599 15.2169C14.4368 15.0566 14.2834 14.9221 14.1084 14.8211L4.78144 9.43653C4.60644 9.33548 4.41324 9.26989 4.21289 9.24351C4.01253 9.21714 3.80894 9.2305 3.61375 9.28282C3.41856 9.33514 3.23559 9.42541 3.07529 9.54847C2.91499 9.67152 2.78051 9.82495 2.67952 9.99999C0.478232 13.8127 -0.403492 18.2453 0.171089 22.6102C0.74567 26.9751 2.74445 31.0285 5.85743 34.1417C8.97042 37.2548 13.0237 39.2539 17.3885 39.8287C21.7534 40.4036 26.186 39.5222 29.9989 37.3211C33.8118 35.1201 36.7919 31.7224 38.477 27.6551C40.1621 23.5878 40.4581 19.0781 39.319 14.8255C38.18 10.5728 35.6695 6.81481 32.177 4.1343C28.6845 1.45379 24.4052 0.000565456 20.0026 0ZM4.63529 12.9038L11.3487 16.7808C10.9667 17.811 10.7714 18.9012 10.7718 20C10.7718 20.2942 10.7872 20.5769 10.8141 20.8692L3.32567 22.8846C2.74169 19.5018 3.19836 16.0214 4.63529 12.9038ZM4.12182 25.8481L11.6218 23.8404C12.2489 25.2072 13.1997 26.4006 14.392 27.3171C15.5843 28.2335 16.982 28.8455 18.4641 29.1V36.8519C15.2792 36.5567 12.2426 35.3669 9.70488 33.4199C7.16714 31.4729 5.23167 28.8479 4.12182 25.8481ZM21.541 36.8519V29.1C23.6911 28.7356 25.6427 27.6217 27.0499 25.9559C28.4572 24.29 29.2292 22.1797 29.2292 19.999C29.2292 17.8183 28.4572 15.708 27.0499 14.0422C25.6427 12.3763 23.6911 11.2625 21.541 10.8981V3.14615C25.7453 3.53026 29.6541 5.47192 32.5002 8.58997C35.3464 11.708 36.9244 15.7773 36.9244 19.999C36.9244 24.2207 35.3464 28.29 32.5002 31.4081C29.6541 34.5261 25.7453 36.4678 21.541 36.8519Z" fill="#5523E8"/>
</svg>
