<svg width="59" height="40" viewBox="0 0 59 40" fill="none" xmlns="http://www.w3.org/2000/svg">
<path d="M57.7994 13.6155L51.9988 2.00983C51.7851 1.58267 51.4894 1.20178 51.1285 0.888919C50.7676 0.57606 50.3486 0.337358 49.8954 0.186444C49.4422 0.03553 48.9638 -0.0246393 48.4874 0.00937206C48.0109 0.0433835 47.5459 0.17091 47.1188 0.384667L41.4659 3.20995L29.5579 0.0596349C29.2524 -0.0198783 28.9315 -0.0198783 28.626 0.0596349L16.718 3.20995L11.0651 0.384667C10.638 0.17091 10.173 0.0433835 9.69654 0.00937206C9.22012 -0.0246393 8.74167 0.03553 8.2885 0.186444C7.83534 0.337358 7.41634 0.57606 7.05544 0.888919C6.69454 1.20178 6.3988 1.58267 6.18511 2.00983L0.384527 13.6133C0.170769 14.0404 0.0432436 14.5054 0.00923222 14.9819C-0.0247792 15.4583 0.0353901 15.9367 0.186304 16.3899C0.337218 16.8431 0.57592 17.2621 0.888779 17.623C1.20164 17.9839 1.58253 18.2796 2.00969 18.4933L8.14667 21.5641L20.7593 30.5718C20.9451 30.704 21.154 30.8004 21.3753 30.8559L35.9222 34.4926C36.2268 34.569 36.5461 34.5652 36.8488 34.4816C37.1515 34.3979 37.4274 34.2373 37.6496 34.0153L50.1668 21.4959L56.1719 18.4933C57.034 18.0617 57.6895 17.3055 57.9943 16.3908C58.299 15.4762 58.2281 14.4779 57.7971 13.6155H57.7994ZM45.3231 21.2004L37.5019 14.9361C37.1515 14.6555 36.7097 14.5144 36.2615 14.54C35.8134 14.5656 35.3905 14.7561 35.0744 15.0748C31.0262 19.1525 26.5144 18.6365 23.6369 16.8181L33.4651 7.27172H40.6954L46.8801 19.6389L45.3231 21.2004ZM9.43771 3.63499L14.0904 5.95795L8.2785 17.5614L3.63485 15.2407L9.43771 3.63499ZM35.804 30.7127L22.5958 27.4124L11.4129 19.4252L17.7772 6.69666L29.0919 3.69864L31.3194 4.28733L21.0911 14.2156L21.073 14.2361C20.6879 14.6211 20.3943 15.0876 20.2137 15.6013C20.0331 16.115 19.9701 16.6627 20.0294 17.2039C20.0888 17.7452 20.2689 18.2662 20.5565 18.7286C20.8441 19.1909 21.2319 19.5828 21.6912 19.8753C26.3644 22.8596 32.0036 22.3755 36.445 18.7388L42.7297 23.787L35.804 30.7127ZM49.8963 17.5591L44.0957 5.96704L48.7462 3.63499L54.549 15.2407L49.8963 17.5591ZM29.9511 38.6226C29.8529 39.0156 29.6262 39.3645 29.3071 39.6141C28.988 39.8636 28.5947 39.9994 28.1896 40C28.0402 39.9998 27.8914 39.9815 27.7464 39.9454L18.275 37.577C18.0534 37.5224 17.8444 37.4259 17.659 37.2929L11.6697 33.0152C11.3015 32.7261 11.059 32.306 10.9926 31.8425C10.9263 31.379 11.0414 30.9078 11.3138 30.527C11.5862 30.1462 11.995 29.8852 12.4551 29.7983C12.9151 29.7113 13.391 29.8052 13.7836 30.0604L19.491 34.138L28.6374 36.4201C29.1051 36.5371 29.5072 36.8351 29.7553 37.2486C30.0034 37.662 30.0771 38.1571 29.9602 38.6249L29.9511 38.6226Z" fill="#5523E8"/>
</svg>
