<svg width="47" height="40" viewBox="0 0 47 40" fill="none" xmlns="http://www.w3.org/2000/svg">
<path d="M46.6646 11.7165C46.581 14.6177 45.388 17.3763 43.3315 19.4243L36.0924 26.6676C35.0381 27.7277 33.7839 28.5681 32.4026 29.1402C31.0213 29.7124 29.5402 30.0048 28.0451 30.0007H28.0346C26.514 29.9996 25.009 29.6938 23.6085 29.1013C22.208 28.5088 20.9405 27.6416 19.8808 26.551C18.8211 25.4604 17.9907 24.1685 17.4386 22.7516C16.8866 21.3347 16.6241 19.8215 16.6667 18.3015C16.6791 17.8595 16.8666 17.4405 17.188 17.1368C17.5093 16.833 17.9381 16.6694 18.3801 16.6818C18.8221 16.6942 19.2411 16.8817 19.5448 17.2031C19.8486 17.5244 20.0122 17.9532 19.9998 18.3952C19.9694 19.47 20.1548 20.5399 20.545 21.5418C20.9352 22.5438 21.5222 23.4573 22.2715 24.2285C23.0207 24.9996 23.9169 25.6128 24.9071 26.0317C25.8974 26.4507 26.9615 26.6669 28.0367 26.6676C29.0937 26.6703 30.1407 26.4634 31.1172 26.059C32.0937 25.6546 32.9804 25.0607 33.7259 24.3115L40.965 17.0724C42.4585 15.56 43.2931 13.5182 43.2865 11.3926C43.2798 9.26704 42.4325 7.23044 40.9295 5.72744C39.4265 4.22444 37.3899 3.37712 35.2643 3.37047C33.1388 3.36381 31.0969 4.19837 29.5845 5.69194L27.293 7.98345C26.9779 8.28279 26.5584 8.44721 26.1238 8.44165C25.6892 8.43608 25.274 8.26098 24.9667 7.95366C24.6594 7.64635 24.4843 7.23114 24.4787 6.79657C24.4732 6.362 24.6376 5.94244 24.9369 5.62736L27.2284 3.33586C28.2857 2.27828 29.5409 1.43935 30.9224 0.866975C32.3039 0.294601 33.7846 0 35.28 0C36.7753 0 38.2561 0.294601 39.6376 0.866975C41.0191 1.43935 42.2743 2.27828 43.3315 3.33586C44.4265 4.43361 45.2867 5.74271 45.8597 7.18348C46.4327 8.62425 46.7066 10.1666 46.6646 11.7165ZM19.3748 32.013L17.0833 34.3045C16.3359 35.0569 15.4464 35.6532 14.4665 36.0587C13.4866 36.4643 12.4359 36.671 11.3754 36.6669C9.78446 36.6656 8.22961 36.1928 6.9073 35.3082C5.58498 34.4236 4.55453 33.1669 3.94615 31.6969C3.33777 30.2268 3.17876 28.6095 3.48921 27.0492C3.79967 25.4888 4.56565 24.0555 5.69037 22.9303L12.9169 15.6912C14.0552 14.547 15.5112 13.7715 17.0958 13.4653C18.6805 13.1592 20.3205 13.3366 21.8031 13.9745C23.2856 14.6125 24.542 15.6814 25.4092 17.0426C26.2764 18.4038 26.7143 19.9943 26.666 21.6075C26.6599 21.8264 26.697 22.0443 26.7751 22.2488C26.8533 22.4534 26.971 22.6405 27.1215 22.7995C27.272 22.9585 27.4524 23.0864 27.6523 23.1756C27.8523 23.2649 28.0678 23.3139 28.2867 23.3199H28.3325C28.7667 23.32 29.1838 23.1508 29.4951 22.8481C29.8063 22.5454 29.9871 22.1332 29.9991 21.6992C30.0388 20.152 29.7639 18.6128 29.1909 17.1751C28.618 15.7373 27.759 14.431 26.666 13.3352C24.5311 11.2012 21.6361 10.0024 18.6176 10.0024C15.5991 10.0024 12.7041 11.2012 10.5692 13.3352L3.33429 20.5742C1.74321 22.1647 0.659301 24.191 0.219529 26.3973C-0.220244 28.6036 0.00386241 30.8907 0.863526 32.9696C1.72319 35.0485 3.17983 36.826 5.04936 38.0773C6.91888 39.3287 9.1174 39.9977 11.3671 40C12.8625 40.0043 14.344 39.7119 15.7257 39.1398C17.1074 38.5676 18.3618 37.7271 19.4165 36.6669L21.708 34.3753C21.9777 34.0577 22.1186 33.6505 22.1029 33.234C22.0872 32.8176 21.9161 32.4222 21.6233 32.1257C21.3304 31.8292 20.9372 31.6532 20.5209 31.6323C20.1047 31.6114 19.6958 31.7473 19.3748 32.013Z" fill="#5523E8"/>
</svg>
