<svg width="30" height="40" viewBox="0 0 30 40" fill="none" xmlns="http://www.w3.org/2000/svg">
<path d="M29.316 18.3611C29.2655 18.1473 29.163 17.9494 29.0175 17.7847C28.8721 17.6201 28.6883 17.494 28.4824 17.4175L18.8775 13.8146L21.3217 1.58885C21.377 1.30479 21.3385 1.01044 21.2118 0.750208C21.0852 0.489978 20.8774 0.277992 20.6197 0.146239C20.362 0.0144863 20.0685 -0.0298843 19.7834 0.0198227C19.4983 0.0695298 19.2371 0.210617 19.0392 0.421795L0.366323 20.4285C0.214664 20.5883 0.104952 20.7832 0.0469889 20.9957C-0.0109741 21.2083 -0.0153831 21.4319 0.0341564 21.6465C0.0836959 21.8612 0.18564 22.0603 0.330883 22.2259C0.476125 22.3916 0.660141 22.5187 0.86649 22.5959L10.4747 26.1987L8.03722 38.4111C7.98187 38.6952 8.02042 38.9896 8.14704 39.2498C8.27366 39.51 8.48149 39.722 8.73916 39.8538C8.99683 39.9855 9.29037 40.0299 9.57547 39.9802C9.86057 39.9305 10.1218 39.7894 10.3196 39.5782L28.9926 19.5715C29.1415 19.4117 29.2488 19.2177 29.3052 19.0067C29.3616 18.7956 29.3653 18.5739 29.316 18.3611ZM11.5734 34.3381L13.319 25.6052C13.3815 25.2955 13.332 24.9736 13.1793 24.697C13.0266 24.4204 12.7807 24.2069 12.4854 24.0947L3.67576 20.7853L17.7838 5.67021L16.0399 14.4031C15.9774 14.7128 16.0269 15.0347 16.1796 15.3113C16.3322 15.5879 16.5782 15.8014 16.8735 15.9136L25.6764 19.2147L11.5734 34.3381Z" fill="#5523E8"/>
</svg>
