<svg width="18" height="18" viewBox="0 0 18 18" fill="none" xmlns="http://www.w3.org/2000/svg">
<path d="M17.4851 0.421766C17.7552 0.691818 17.9069 1.05809 17.9069 1.44C17.9069 1.82191 17.7552 2.18818 17.4851 2.45823L11.0363 8.90705L17.4851 15.3559C17.7552 15.6259 17.9069 15.9922 17.9069 16.3741C17.9069 16.756 17.7552 17.1223 17.4851 17.3923C17.215 17.6624 16.8488 17.8141 16.4669 17.8141C16.085 17.8141 15.7187 17.6624 15.4486 17.3923L8.99982 10.9435L2.55101 17.3923C2.28095 17.6624 1.91468 17.8141 1.53277 17.8141C1.15086 17.8141 0.784592 17.6624 0.51454 17.3923C0.244487 17.1223 0.0927734 16.756 0.0927734 16.3741C0.0927734 15.9922 0.244487 15.6259 0.51454 15.3559L6.96335 8.90705L0.51454 2.45823C0.244487 2.18818 0.0927734 1.82191 0.0927734 1.44C0.0927734 1.05809 0.244487 0.691818 0.51454 0.421766C0.784592 0.151713 1.15086 1.61844e-07 1.53277 1.61844e-07C1.91468 1.61844e-07 2.28095 0.151713 2.55101 0.421766L8.99982 6.87058L15.4486 0.421766C15.7187 0.151713 16.085 0 16.4669 0C16.8488 0 17.215 0.151713 17.4851 0.421766Z" fill="#000628"/>
</svg>
