<svg width="24" height="24" viewBox="0 0 24 24" fill="none" xmlns="http://www.w3.org/2000/svg">
<path d="M24 11.9995C24 12.3814 23.8483 12.7477 23.5782 13.0177C23.3082 13.2878 22.9419 13.4395 22.56 13.4395L13.44 13.4395L13.44 22.5595C13.44 22.9414 13.2883 23.3077 13.0182 23.5777C12.7482 23.8478 12.3819 23.9995 12 23.9995C11.6181 23.9995 11.2518 23.8478 10.9818 23.5777C10.7117 23.3077 10.56 22.9414 10.56 22.5595L10.56 13.4395H1.44C1.05809 13.4395 0.691819 13.2878 0.421766 13.0177C0.151714 12.7477 0 12.3814 0 11.9995C0 11.6176 0.151714 11.2513 0.421766 10.9813C0.691819 10.7112 1.05809 10.5595 1.44 10.5595H10.56V1.43951C10.56 1.0576 10.7117 0.69133 10.9818 0.421278C11.2518 0.151226 11.6181 -0.000488281 12 -0.000488281C12.3819 -0.000488281 12.7482 0.151226 13.0182 0.421278C13.2883 0.69133 13.44 1.0576 13.44 1.43951V10.5595L22.56 10.5595C22.9419 10.5595 23.3082 10.7112 23.5782 10.9813C23.8483 11.2513 24 11.6176 24 11.9995Z" fill="#000628"/>
</svg>
