<svg width="19" height="24" viewBox="0 0 19 24" fill="none" xmlns="http://www.w3.org/2000/svg">
<path d="M18.1911 18.1911L12.6528 23.7295C12.4796 23.9027 12.2447 24 11.9997 24C11.7548 24 11.5199 23.9027 11.3467 23.7295C11.1735 23.5563 11.0762 23.3214 11.0762 23.0764C11.0762 22.8315 11.1735 22.5966 11.3467 22.4234L15.3101 18.4611H0.923057C0.678247 18.4611 0.443464 18.3639 0.270357 18.1908C0.0972506 18.0177 0 17.7829 0 17.5381V0.923057C0 0.678247 0.0972506 0.443464 0.270357 0.270357C0.443464 0.0972503 0.678247 0 0.923057 0C1.16787 0 1.40265 0.0972503 1.57576 0.270357C1.74886 0.443464 1.84611 0.678247 1.84611 0.923057V16.615H15.3101L11.3467 12.6528C11.1735 12.4796 11.0762 12.2447 11.0762 11.9997C11.0762 11.7548 11.1735 11.5199 11.3467 11.3467C11.5199 11.1735 11.7548 11.0762 11.9997 11.0762C12.2447 11.0762 12.4796 11.1735 12.6528 11.3467L18.1911 16.885C18.277 16.9707 18.3451 17.0726 18.3915 17.1846C18.438 17.2967 18.4619 17.4168 18.4619 17.5381C18.4619 17.6594 18.438 17.7795 18.3915 17.8916C18.3451 18.0036 18.277 18.1054 18.1911 18.1911Z" fill="#101415"/>
</svg>
