<svg width="54" height="50" viewBox="0 0 54 50" fill="none" xmlns="http://www.w3.org/2000/svg">
<path d="M16.1829 19.7384C16.4819 19.3559 16.7821 18.9744 17.0837 18.5941C17.8533 17.6198 18.6487 16.612 19.3983 15.5953C20.3665 14.2809 20.3005 13.6742 19.0626 12.5075C18.9596 12.4107 18.8509 12.3197 18.7421 12.2292C18.6585 12.1589 18.5733 12.0885 18.4914 12.0149L17.5228 11.1387C16.5917 10.2967 15.6289 9.42588 14.6899 8.56191C13.9764 7.90553 13.2657 7.24667 12.5576 6.58514C11.612 5.7051 10.6341 4.79476 9.66251 3.90972C8.57623 2.91868 7.95433 2.92039 6.89354 3.91685C5.88288 4.86595 4.86241 5.83817 3.87557 6.77808C2.99317 7.61863 2.10924 8.45746 1.22378 9.29479C0.835275 9.65607 0.525953 10.094 0.315332 10.5807C0.104708 11.0673 -0.0026453 11.5923 4.95041e-05 12.1224C0.00756321 12.9548 0.113225 13.7834 0.31486 14.591C0.827291 16.7949 1.92673 18.771 2.99025 20.6831L3.25346 21.1575C6.01261 26.1401 8.99821 30.1153 12.3834 33.3102C13.0101 33.9012 13.6034 34.5553 14.1779 35.1879C14.9438 36.0709 15.7693 36.9004 16.6487 37.6707C19.2249 39.8226 22.0524 42.0083 25.2922 44.3534C27.9593 46.2838 30.3058 47.6806 32.6745 48.7499C34.4063 49.5563 36.2914 49.9823 38.2022 49.9988C39.0207 49.9986 39.8371 49.9155 40.6389 49.7507L40.7654 49.7248C41.9827 49.4763 43.2413 49.2195 44.3007 48.3718C44.8267 47.951 45.4005 47.5646 45.9553 47.1905C46.2463 46.9944 46.5373 46.7983 46.8235 46.5963C47.0799 46.4156 47.3422 46.2416 47.6046 46.0674C48.2522 45.6618 48.8662 45.2049 49.4404 44.7006C51.0293 43.227 50.6963 42.2065 49.5841 40.9416C48.3684 39.5585 47.1818 38.1059 46.0329 36.7018C45.5758 36.1424 45.1177 35.5839 44.6585 35.0264C44.2975 34.5895 43.9386 34.151 43.582 33.7103C42.8927 32.8631 42.1803 31.987 41.4531 31.1458C40.0713 29.547 39.4861 29.4956 37.7709 30.8228C36.5852 31.7408 35.3894 32.6836 34.2311 33.5962C33.5018 34.171 32.7719 34.745 32.0412 35.3183C31.8214 35.4904 31.591 35.6505 31.3681 35.8053L31.2285 35.9021C30.7819 35.436 30.3361 34.9701 29.8916 34.5042C25.3585 29.7658 20.6751 24.8684 15.5547 20.5006C15.6071 20.438 15.6577 20.3779 15.706 20.3201C15.8839 20.1066 16.0367 19.9247 16.1829 19.7384ZM13.2201 21.132C16.3953 24.5382 19.5688 27.9465 22.7405 31.3567L27.2204 36.1704C27.4084 36.373 27.6 36.5725 27.7913 36.7719C28.1124 37.1057 28.4443 37.4531 28.7537 37.8055C29.7506 38.9413 30.8995 39.0843 32.5962 38.2822C33.1314 38.0016 33.6313 37.6582 34.0855 37.2597C34.239 37.1356 34.3921 37.0116 34.5471 36.8927C35.7301 35.9858 36.9077 35.0728 38.1089 34.1424L39.4249 33.1226L47.469 42.9303C47.0567 43.2176 46.6435 43.5155 46.242 43.8053C45.1302 44.642 43.9685 45.4104 42.7636 46.1066C41.8085 46.6318 40.6029 46.7995 39.45 46.9266C37.0059 47.1963 34.7828 46.7807 32.839 45.6941L32.4629 45.4834C30.5369 44.4071 28.5452 43.2942 26.7182 42.0202C24.1959 40.2879 21.7696 38.4202 19.4497 36.4256C18.321 35.4074 17.2443 34.3331 16.2236 33.2067C15.4964 32.4308 14.745 31.6285 13.9675 30.8774C11.965 28.9444 10.0761 26.6074 8.02346 23.5222C6.20164 20.785 4.8064 17.9159 3.68148 15.4706C3.25386 14.5407 2.83629 13.4351 2.97939 12.2836C3.00792 11.8365 3.16213 11.4067 3.42434 11.0432C4.66792 9.63318 5.97102 8.23121 7.2311 6.87569C7.58999 6.48985 7.94861 6.10364 8.30694 5.71697C11.1453 8.92312 14.2433 11.9365 17.181 14.7214C16.243 16.007 15.1492 17.1716 13.9245 18.1884C13.8478 18.251 13.7688 18.3105 13.6899 18.3704C13.535 18.4837 13.3864 18.6054 13.2447 18.7349C12.4152 19.52 12.4077 20.2599 13.2201 21.1312V21.132Z" fill="#101415"/>
<path d="M44.3546 3.45658C40.9887 1.27569 36.9767 0.179071 31.7296 0.0065748C29.7379 -0.0718328 26.5743 0.564539 24.7846 1.1951C24.4751 1.30378 24.1832 1.45671 23.9184 1.64904C23.5395 1.92735 23.4299 2.31249 23.6255 2.6791C23.8448 3.09029 24.214 2.98239 24.4346 2.91817C24.4775 2.90563 24.5204 2.8931 24.5626 2.8832C27.0334 2.31222 28.9439 2.05785 30.7531 2.05785H30.7786C32.7646 2.06952 34.7431 2.30133 36.6769 2.74908C41.2708 3.77944 44.8584 5.96333 47.6448 9.42564C50.1558 12.5454 51.0828 16.0847 50.479 20.2454C50.3343 21.2632 50.0551 22.2578 49.6481 23.2036C49.3714 23.8474 49.3377 24.386 49.5419 24.8965C49.5857 25.0385 49.6607 25.1694 49.7613 25.2797C49.8617 25.3899 49.9856 25.4769 50.124 25.5347C50.2059 25.5629 50.2921 25.5775 50.3789 25.5773C50.5751 25.5709 50.7663 25.5139 50.9334 25.4122C51.4048 25.1461 51.7419 24.7262 51.9944 24.0902C53.5182 20.2504 53.5978 16.4576 52.2309 12.8173C50.8295 9.08377 48.1795 5.93475 44.3546 3.45658Z" fill="#101415"/>
<path d="M43.2874 19.9281C43.4555 20.1666 43.714 20.462 44.1013 20.462C44.1683 20.4618 44.2352 20.4534 44.3003 20.4372C44.7937 20.3163 44.8833 19.8103 44.9263 19.5672C45.1282 18.4077 44.9872 17.2117 44.5218 16.1381C44.1496 15.2484 43.7889 14.4733 43.4191 13.7685C42.3483 11.7274 41.2172 10.3149 39.8598 9.32352C37.0727 7.28767 34.7031 6.31092 32.1766 6.15602C30.969 6.08223 30.008 6.24255 29.1532 6.66107C28.6013 6.93151 28.6158 7.33661 28.6736 7.55405C28.7966 8.01722 29.2121 7.99931 29.4603 7.98789C29.6436 7.97988 29.8386 7.96287 30.0564 7.9368C30.3856 7.89659 30.7144 7.85344 31.0434 7.81016L31.4525 7.7569C32.7531 7.7719 34.0905 8.11464 35.6598 8.83409C38.454 10.1154 40.3853 11.916 41.5638 14.3384C41.7577 14.7364 41.938 15.152 42.1126 15.554C42.2339 15.8335 42.3553 16.1131 42.4819 16.3899C42.8075 17.0356 42.9558 17.7625 42.9106 18.4909C42.8599 19.0023 42.9943 19.515 43.2874 19.9281Z" fill="#101415"/>
</svg>
