<svg width="369" height="130" viewBox="0 0 369 130" fill="none" xmlns="http://www.w3.org/2000/svg">
<path d="M14.0967 25.7155C12.3167 21.1917 13.0894 15.9901 14.729 11.6153C16.4541 7.01188 19.458 2.42107 23.9476 0C24.1703 4.8511 22.6884 9.64392 21.0693 13.9658C19.6131 17.853 17.8265 21.9944 14.8761 25.2092C14.4228 27.6452 14.0754 30.0744 13.831 32.4923C14.8089 29.9379 16.3944 27.6096 18.3728 25.7374C20.9199 23.3267 24.7088 21.4666 28.2655 22.5666C27.2238 26.4981 24.8492 30.2668 22.037 32.9107C19.8236 34.9916 16.9016 37.6581 13.4598 37.7629C13.318 41.3212 13.3982 44.847 13.691 48.325C14.1765 45.7798 15.2168 43.3831 16.72 41.5983C18.785 39.1459 21.8468 36.1496 25.757 36.6508C25.5435 40.63 23.9563 44.7069 21.7459 47.7705C19.9894 50.205 17.6707 53.3077 14.3794 54.1093C14.9064 57.5267 15.6405 60.8876 16.5718 64.1761C16.5808 61.6581 17.1369 59.1866 18.2403 57.2043C19.7953 54.4089 22.2172 50.9228 26.1319 50.6502C26.7057 54.554 25.9282 58.8215 24.3597 62.2156C23.1062 64.9286 21.4349 68.3884 18.3885 69.8198C19.6678 73.358 21.1816 76.7972 22.9173 80.1168C22.3079 77.2556 22.3323 74.2405 23.0535 71.5278C24.0473 67.7879 26.5143 63.8595 30.475 62.7194C31.8751 66.8482 31.682 71.4561 30.8687 75.6527C30.1993 79.1079 28.8841 83.1661 25.936 85.4106C27.8634 88.521 29.9956 91.506 32.3209 94.3463C31.0715 91.5607 30.4506 88.5142 30.7838 85.725C31.2691 81.6618 32.4108 77.315 36.5612 75.1486C38.9158 79.2113 39.4613 83.769 39.6614 88.2707C39.8231 91.91 39.2988 96.3989 36.7713 99.3596C39.5516 102.25 42.5515 104.956 45.7557 107.45C43.6871 104.797 42.2385 101.683 41.9317 98.6034C41.4986 94.2524 41.7104 89.4627 45.5716 86.2697C48.8738 89.7187 50.8444 94.7982 51.8102 99.21C52.6642 103.111 53.5557 107.728 51.5224 111.566C55.6002 114.228 59.9534 116.573 64.556 118.559C61.3174 116.251 58.6663 113.085 57.4032 109.816C55.7481 105.53 54.7243 100.424 57.9484 96.1321C62.268 98.8989 65.4428 103.619 67.944 107.925C70.0902 111.619 72.3118 116.718 71.2095 121.118C73.7578 121.982 76.3719 122.741 79.0485 123.389L78.8894 124.046C76.2027 123.396 73.5785 122.634 71.0198 121.767C69.2272 127.064 63.3548 128.814 58.6057 129.587C51.839 130.688 43.7818 128.555 38.005 124.258C41.0539 119.949 47.2748 119.512 51.9657 119.182L52.0267 119.178C57.1656 118.817 62.7236 119.299 67.8913 120.642C61.9214 118.369 56.3354 115.512 51.1845 112.153L51.1086 112.273C48.286 116.85 42.619 117.028 38.1708 116.739C32.1348 116.346 25.1661 112.676 21.1329 107.603C24.9265 104.274 30.5299 105.206 34.8717 105.927L34.8927 105.931C39.7384 106.736 45.0336 108.494 49.4785 111.199C49.0551 110.866 48.6407 110.513 48.2381 110.143C43.9165 107.062 39.9301 103.616 36.3126 99.8577C36.2706 99.8998 36.228 99.9415 36.1852 99.983C32.6677 103.521 27.5449 102.595 23.5469 101.443C18.1969 99.9023 12.6484 95.2532 9.98945 89.916C14.1098 87.6073 19.036 89.5097 22.8678 91.0146C27.0733 92.6663 31.5229 95.3084 34.9442 98.6765C34.5915 98.2316 34.255 97.7667 33.937 97.2857C30.7569 93.6965 27.8962 89.8532 25.3813 85.7987L25.2552 85.8777C21.276 88.4456 16.7676 86.586 13.1945 84.7572C8.34981 82.2779 4.45666 76.8289 2.77444 71.4701C7.07217 70.0936 11.3184 72.7954 14.6192 74.9351C18.2294 77.2752 21.8863 80.6128 24.3964 84.4404C24.2121 84.0632 24.0403 83.6777 23.882 83.2849C21.4702 79.0771 19.4213 74.6597 17.7626 70.0773L17.6771 70.1064L17.6701 70.109C14.0521 71.4844 10.0231 69.346 7.39635 67.0009C3.74555 63.7418 1.17235 58.7313 0.569112 53.8362C4.34122 53.3475 7.89507 56.2659 10.3248 58.7551C13.1216 61.62 15.6318 65.006 17.175 68.7669C17.0624 68.3584 16.9657 67.9434 16.8845 67.5243C15.4802 63.2181 14.4163 58.7772 13.715 54.2371L13.6604 54.2438L13.6419 54.2469C9.81685 54.8855 6.28038 51.9774 4.16751 49.1551C1.20317 45.1947 -0.324954 39.7135 0.0580566 34.7456C3.86827 35.012 6.76958 38.6368 8.65101 41.5689C10.8286 44.9633 12.6344 48.8049 13.4253 52.8239C13.4012 52.5042 13.387 52.1825 13.3819 51.86C12.8011 47.2392 12.594 42.5238 12.7834 37.75L12.7725 37.7494C8.88356 37.6093 6.00944 33.9986 4.52558 30.7958C2.40235 26.2126 2.06053 20.4192 3.4777 15.5367C7.18425 16.5771 9.2506 20.8289 10.4702 24.1017C11.8765 27.8752 12.858 31.9908 12.8658 36.0826C13.0681 32.6498 13.4755 29.1898 14.0967 25.7155Z" fill="#F9E14D"/>
<path d="M354.502 25.8411C356.282 21.3175 355.508 16.1154 353.869 11.7406C352.143 7.13743 349.14 2.54607 344.651 0.125C344.427 4.97638 345.909 9.76892 347.529 14.0908C348.986 17.9777 350.77 22.1189 353.721 25.3334C354.175 27.7688 354.522 30.1974 354.766 32.6148C353.788 30.0615 352.205 27.7343 350.227 25.8627C347.68 23.4517 343.889 21.5918 340.334 22.6918C341.376 26.6231 343.749 30.3921 346.562 33.0359C348.775 35.1169 351.698 37.7831 355.138 37.8882C355.281 41.4468 355.2 44.9729 354.906 48.4511C354.421 45.9059 353.382 43.5092 351.877 41.7244C349.812 39.2717 346.75 36.2757 342.841 36.7769C343.054 40.7561 344.643 44.8331 346.853 47.8966C348.607 50.3311 350.927 53.4341 354.219 54.2358C353.693 57.6526 352.959 61.0128 352.026 64.3011C352.017 61.7833 351.462 59.3118 350.358 57.3295C348.803 54.5344 346.38 51.0481 342.466 50.7755C341.891 54.6793 342.67 58.9468 344.239 62.3409C345.492 65.0539 347.164 68.5136 350.21 69.9451C348.93 73.4838 347.417 76.9239 345.679 80.2438C346.29 77.382 346.265 74.3664 345.545 71.6528C344.55 67.9129 342.085 63.9842 338.123 62.8444C336.722 66.9737 336.915 71.5811 337.731 75.7777C338.4 79.2332 339.714 83.2914 342.662 85.5359C340.734 88.6479 338.602 91.6344 336.274 94.476C337.526 91.6893 338.145 88.6412 337.812 85.8508C337.327 81.787 336.187 77.4406 332.037 75.2747C329.681 79.3374 329.135 83.8951 328.936 88.3969C328.773 92.0364 329.297 96.5255 331.827 99.4865C329.045 102.376 326.047 105.081 322.844 107.575C324.912 104.922 326.361 101.808 326.666 98.7286C327.1 94.3777 326.89 89.5882 323.027 86.3949C319.726 89.844 317.754 94.9234 316.79 99.3352C315.935 103.236 315.044 107.853 317.075 111.692C312.999 114.354 308.645 116.699 304.041 118.686C307.28 116.378 309.931 113.211 311.194 109.941C312.85 105.656 313.873 100.549 310.651 96.2574C306.33 99.0242 303.156 103.744 300.654 108.05C298.508 111.745 296.286 116.844 297.39 121.243C294.84 122.108 292.226 122.867 289.55 123.515L289.71 124.172C292.394 123.522 295.019 122.76 297.577 121.893C299.371 127.19 305.243 128.941 309.992 129.713C316.759 130.814 324.817 128.681 330.594 124.384C327.543 120.075 321.323 119.638 316.633 119.308L316.571 119.304C311.433 118.943 305.874 119.425 300.707 120.768C306.675 118.496 312.262 115.638 317.414 112.278L317.485 112.39C320.306 116.975 325.977 117.154 330.426 116.864C336.464 116.472 343.432 112.801 347.464 107.728C343.671 104.4 338.07 105.331 333.727 106.053L333.704 106.057C328.86 106.862 323.567 108.618 319.124 111.323C319.547 110.99 319.959 110.638 320.362 110.268C324.682 107.188 328.667 103.742 332.284 99.9844C332.334 100.035 332.385 100.084 332.435 100.133C335.954 103.644 341.062 102.718 345.052 101.569C350.403 100.028 355.951 95.3785 358.61 90.0413C354.488 87.7325 349.563 89.6347 345.733 91.1398C341.522 92.7929 337.069 95.4381 333.646 98.8107C333.999 98.3652 334.338 97.8996 334.657 97.4176C337.837 93.8265 340.701 89.981 343.217 85.924L343.326 85.9915L343.354 86.0091C347.33 88.5678 351.835 86.7099 355.405 84.8825C360.249 82.4032 364.144 76.9542 365.825 71.5954C361.527 70.2188 357.282 72.9206 353.981 75.0604C350.367 77.4019 346.708 80.7417 344.197 84.5721C344.382 84.1941 344.556 83.8074 344.716 83.4138C347.128 79.2046 349.176 74.7861 350.835 70.2026L350.922 70.2317L350.936 70.2373C354.553 71.6066 358.579 69.4696 361.204 67.1262C364.852 63.8671 367.427 58.8565 368.03 53.9614C364.258 53.4728 360.703 56.3912 358.274 58.8801C355.477 61.7469 352.964 65.1352 351.42 68.8992C351.535 68.4884 351.633 68.0712 351.715 67.6495C353.118 63.3437 354.183 58.903 354.883 54.3635L354.99 54.3775C358.8 54.9945 362.325 52.0949 364.432 49.2804C367.396 45.32 368.923 39.8388 368.54 34.8706C364.732 35.1373 361.829 38.7618 359.949 41.6942C357.769 45.0903 355.962 48.9341 355.172 52.9556C355.197 52.6339 355.211 52.3106 355.217 51.9862C355.797 47.3651 356.004 42.6493 355.814 37.8755C359.705 37.7391 362.589 34.1258 364.073 30.9217C366.194 26.3387 366.536 20.5451 365.121 15.6629C361.415 16.7032 359.347 20.9544 358.128 24.2272C356.721 28.0008 355.741 32.1169 355.732 36.2087C355.531 32.7759 355.122 29.3157 354.502 25.8411Z" fill="#F9E14D"/>
</svg>
