<svg width="172" height="191" viewBox="0 0 172 191" fill="none" xmlns="http://www.w3.org/2000/svg">
<path d="M72.3416 33.1432C79.6411 25.8753 91.4426 25.8753 98.7421 33.1432L157.769 91.9152C165.113 99.2278 165.113 111.117 157.769 118.43L98.7421 177.202C91.4426 184.47 79.6411 184.47 72.3416 177.202L13.3149 118.43C5.97063 111.117 5.97063 99.2278 13.3149 91.9152L72.3416 33.1432Z" fill="#F9E14D"/>
<path d="M73.5574 14.3643C80.1846 7.76575 90.8991 7.76575 97.5263 14.3643L156.553 73.1362C163.221 79.7753 163.221 90.5699 156.553 97.209L97.5263 155.981C90.8991 162.579 80.1846 162.579 73.5575 155.981L14.5307 97.209C7.86289 90.5699 7.86289 79.7753 14.5307 73.1363L73.5574 14.3643Z" stroke="#FDF0E7" stroke-width="3.44629"/>
</svg>
