<svg width="80" height="80" viewBox="0 0 80 80" fill="none" xmlns="http://www.w3.org/2000/svg">
<path d="M38.9795 41.7009C38.2295 59.0263 26.1784 73.4247 10.0116 77.7039C7.60266 78.3416 5.38161 77.6308 3.73391 76.1103C2.07215 74.5768 1.00038 72.2171 1.00038 69.6201V50.3637C1.00038 45.1833 5.19992 40.9838 10.3803 40.9838H38.2573C38.6874 40.9838 38.9957 41.3263 38.9795 41.7009Z" fill="#8D1BF3" stroke="#101415" stroke-width="2"/>
<path d="M69.2218 2.29605C53.0549 6.57529 41.0038 20.9737 40.2538 38.2991C40.2376 38.6737 40.5459 39.0162 40.976 39.0162L68.853 39.0162C74.0334 39.0162 78.233 34.8167 78.233 29.6363L78.233 10.3799C78.233 7.78289 77.1612 5.42323 75.4994 3.8897C73.8517 2.36915 71.6307 1.65843 69.2218 2.29605Z" fill="#8D1BF3" stroke="#101415" stroke-width="2"/>
<path d="M2.29606 10.0106C6.5753 26.1774 20.9737 38.2286 38.2991 38.9785C38.6737 38.9948 39.0162 38.6865 39.0162 38.2563L39.0162 10.3794C39.0162 5.19895 34.8167 0.999407 29.6363 0.999406L10.3799 0.999403C7.78289 0.999402 5.42323 2.07118 3.88971 3.73294C2.36916 5.38063 1.65844 7.60168 2.29606 10.0106Z" fill="#8D1BF3" stroke="#101415" stroke-width="2"/>
<path d="M40.9342 41.0215C58.2596 41.7714 72.658 53.8226 76.9373 69.9894C77.5749 72.3983 76.8642 74.6194 75.3436 76.2671C73.8101 77.9288 71.4505 79.0006 68.8534 79.0006L49.5971 79.0006C44.4167 79.0006 40.2171 74.8011 40.2171 69.6207L40.2171 41.7437C40.2171 41.3135 40.5596 41.0052 40.9342 41.0215Z" fill="#8D1BF3" stroke="#101415" stroke-width="2"/>
</svg>
