<svg width="72" height="60" viewBox="0 0 72 60" fill="none" xmlns="http://www.w3.org/2000/svg">
<path d="M57.6037 52.647C57.4129 53.2726 57.2767 53.8039 57.0903 54.3164C55.9063 57.5752 53.3869 59.1637 50.1502 59.8036C47.5694 60.3197 44.8899 59.8048 42.6823 58.3689C40.5182 57.0296 39.475 55.0085 39.2635 52.3834C38.8363 52.3468 38.4073 52.2806 37.9778 52.2771C28.6326 52.2042 19.287 52.1532 9.94203 52.0589C7.89864 52.0381 5.85409 51.9002 3.81596 51.7421C3.26833 51.7095 2.74544 51.5025 2.32367 51.151C1.97549 50.7542 1.77427 50.2493 1.75387 49.7212C1.71734 49.1062 2.20796 48.7551 2.79851 48.625C3.08941 48.5597 3.3859 48.5225 3.68387 48.5143C7.37764 48.4417 11.0711 48.3565 14.7652 48.3155C21.8114 48.2376 28.8575 48.174 35.9034 48.1254C37.3989 48.1131 38.8947 48.1236 40.2105 48.1236C41.2552 46.9021 42.1058 45.7145 43.1469 44.7287C45.6978 42.3134 48.7756 41.7979 52.065 42.733C54.3649 43.387 56.0252 44.8224 56.5065 47.3264C56.5532 47.5695 56.6564 47.8021 56.8028 48.2548C57.2729 48.2548 57.8039 48.2487 58.3348 48.2548C61.483 48.2964 64.6315 48.3216 67.7789 48.4001C68.4755 48.4209 69.1648 48.5462 69.8243 48.7718C70.2337 48.905 70.5864 49.173 70.8248 49.5323C71.0635 49.8914 71.1743 50.3208 71.1392 50.7507C71.1483 51.1572 71.0244 51.5555 70.7868 51.885C70.549 52.2145 70.2103 52.457 69.8222 52.5756C69.1575 52.7797 68.4647 52.8772 67.7695 52.8643C64.9211 52.823 62.0739 52.7217 59.226 52.6476C58.7299 52.6359 58.2325 52.647 57.6037 52.647ZM53.0807 50.5969C53.0734 49.1326 52.73 47.675 52.0556 46.7779C51.7953 46.4341 51.4271 46.188 51.0101 46.0788C48.0624 45.4849 44.9112 47.7277 44.1556 50.3465C43.4996 52.6207 44.219 54.0595 46.4348 54.8702C50.0777 56.2034 53.0997 54.2616 53.0807 50.5975V50.5969Z" fill="#101415"/>
<path d="M27.2675 27.0342C28.7072 27.0342 30.0005 27.0658 31.2922 27.0289C37.3894 26.8545 43.4874 26.6684 49.5857 26.4706C55.1837 26.282 60.78 26.0527 66.3778 25.8521C67.0756 25.8017 67.7763 25.8156 68.4717 25.8937C68.9752 25.9478 69.4433 26.1795 69.7922 26.5474C70.1411 26.9153 70.3483 27.3954 70.3766 27.9022C70.3866 28.8168 69.7376 29.599 68.6409 29.8936C68.1567 30.0131 67.6603 30.0749 67.1621 30.077C58.1131 30.2791 49.0644 30.4756 40.0163 30.6665C35.9666 30.7579 31.9178 30.8841 27.8686 30.9989C27.6243 31.006 27.3809 31.0534 27.0113 31.0965C26.0558 35.7379 22.7606 37.6861 18.4415 37.7154C14.5844 37.7429 11.6603 35.8345 10.4252 31.8992C8.47765 31.8114 6.58501 31.7505 4.6962 31.6283C4.00082 31.5762 3.31276 31.4514 2.64318 31.2561C2.34642 31.1835 2.08549 31.0063 1.90764 30.7573C1.7298 30.5084 1.6468 30.2038 1.67365 29.8986C1.67211 29.5923 1.78355 29.2959 1.98658 29.0667C2.18962 28.8374 2.46996 28.6915 2.77381 28.6567C3.31378 28.5608 3.8619 28.5188 4.41014 28.5316C6.35476 28.5178 8.29967 28.526 10.2636 28.526C10.4681 27.9273 10.6326 27.518 10.7486 27.0954C11.1951 25.438 12.113 23.9465 13.3905 22.803C14.2158 22.0839 15.2135 21.5922 16.2856 21.3764C17.8594 21.1049 19.4583 21.008 21.0532 21.0874C24.0647 21.1934 25.9038 22.9366 26.895 25.6855C27.0458 26.1069 27.1355 26.5503 27.2675 27.0342ZM18.1128 25.2871C17.5216 25.42 16.4794 25.4107 15.724 25.8728C13.9068 26.9857 13.9544 31.1673 15.7447 32.3549C17.3764 33.4386 19.1361 33.3899 20.8709 32.5743C22.4316 31.8407 22.6011 30.2899 22.6285 28.8929C22.6674 26.9169 22.1765 25.6354 19.6524 25.4318C19.2571 25.3996 18.8596 25.3571 18.1128 25.2871Z" fill="#101415"/>
<path d="M44.6041 10.5041C44.148 10.5041 43.802 10.5014 43.4563 10.5041C31.31 10.6017 19.1639 10.6983 7.01848 10.7939C5.96908 10.8021 4.91969 10.785 3.87027 10.7424C3.32083 10.7236 2.7744 10.6525 2.23831 10.5304C1.36988 10.3253 0.830477 9.70393 0.855315 8.98435C0.851537 8.62827 0.973172 8.28225 1.19883 8.00721C1.42449 7.73218 1.7397 7.54571 2.089 7.48066C2.66724 7.33135 3.25811 7.23643 3.85393 7.19695C16.7314 6.36813 29.6293 6.34165 42.5245 6.21865C43.2699 6.21162 44.0147 6.21865 44.7914 6.21865C45.0678 5.6373 45.3118 5.15415 45.5301 4.65949C46.049 3.39194 47.0095 2.3563 48.233 1.74508C50.0321 0.875543 51.908 0.167181 53.931 0.0266024C57.4123 -0.215602 59.5296 1.19044 60.6938 4.47615C60.8399 4.89261 60.9728 5.31464 61.1537 5.86172C62.956 5.7765 64.7417 5.67519 66.5285 5.61633C67.1743 5.57453 67.8224 5.61281 68.4585 5.73046C68.8822 5.81117 69.2673 6.03056 69.5531 6.35422C69.8392 6.6779 70.0098 7.08751 70.0385 7.51885C70.0671 7.95019 69.952 8.37893 69.7112 8.73766C69.4707 9.09643 69.118 9.36494 68.7086 9.50118C68.0968 9.71418 67.4598 9.84604 66.8137 9.89313C64.8778 10.0656 62.937 10.1874 60.9112 10.3356C59.7131 14.6701 56.574 16.4375 52.361 16.3224C48.5959 16.2194 45.7335 14.5559 44.6041 10.5041ZM48.2792 8.24602C47.9621 10.2586 49.9243 12.4185 52.0267 12.3488C55.1635 12.2448 57.0339 10.4782 57.0327 8.12846C57.0327 5.48676 55.7885 4.06206 52.8749 3.92646C50.1095 3.79789 48.3017 5.58675 48.2792 8.24602Z" fill="#101415"/>
</svg>
