<svg width="82" height="82" viewBox="0 0 82 82" fill="none" xmlns="http://www.w3.org/2000/svg">
<g filter="url(#filter0_d_721_2948)">
<path d="M80 6.10526V4.38639C80 1.96385 78.0361 0 75.6136 0H4.3864C1.96386 0 5.60441e-06 1.96386 5.60441e-06 4.3864V6.10526C-0.00355242 12.8604 1.68708 19.5073 4.9156 25.4317C7.04644 29.3418 9.80179 32.8538 13.0577 35.8346C15.4158 37.9933 15.4158 42.0067 13.0577 44.1654C9.80179 47.1462 7.04644 50.6582 4.9156 54.5683C1.68708 60.4927 -0.00355242 67.1396 5.60441e-06 73.8947V75.6136C5.60441e-06 78.0361 1.96386 80 4.3864 80H75.6136C78.0361 80 80 78.0361 80 75.6136V73.8947C80.0036 67.1396 78.3129 60.4927 75.0844 54.5683C72.9536 50.6582 70.1982 47.1462 66.9423 44.1654C64.5842 42.0067 64.5842 37.9933 66.9423 35.8346C70.1982 32.8538 72.9536 29.3418 75.0844 25.4317C78.3129 19.5073 80.0036 12.8604 80 6.10526Z" fill="#EA4B4D"/>
<path d="M79 6.10526V6.10579C79.0035 12.6937 77.3547 19.176 74.2063 24.9532C72.1284 28.7661 69.4417 32.1906 66.267 35.097C63.476 37.6521 63.476 42.3479 66.267 44.903C69.4417 47.8094 72.1284 51.2339 74.2063 55.0468C77.3547 60.824 79.0035 67.3063 79 73.8942V73.8947V75.6136C79 77.4839 77.4839 79 75.6136 79H4.3864C2.51614 79 1.00001 77.4839 1.00001 75.6136L1.00001 73.8947L1.00001 73.8942C0.996535 67.3063 2.64535 60.824 5.79368 55.0468C7.87158 51.2339 10.5583 47.8094 13.733 44.903C16.524 42.3479 16.524 37.6521 13.733 35.097C10.5583 32.1906 7.87158 28.7661 5.79368 24.9532C2.64535 19.176 0.996535 12.6937 1.00001 6.10579V6.10526V4.3864C1.00001 2.51614 2.51615 1 4.3864 1H75.6136C77.4839 1 79 2.51614 79 4.38639V6.10526Z" stroke="#101415" stroke-width="2"/>
</g>
<defs>
<filter id="filter0_d_721_2948" x="0" y="0" width="82" height="82" filterUnits="userSpaceOnUse" color-interpolation-filters="sRGB">
<feFlood flood-opacity="0" result="BackgroundImageFix"/>
<feColorMatrix in="SourceAlpha" type="matrix" values="0 0 0 0 0 0 0 0 0 0 0 0 0 0 0 0 0 0 127 0" result="hardAlpha"/>
<feOffset dx="2" dy="2"/>
<feComposite in2="hardAlpha" operator="out"/>
<feColorMatrix type="matrix" values="0 0 0 0 0.0627451 0 0 0 0 0.0784314 0 0 0 0 0.0823529 0 0 0 1 0"/>
<feBlend mode="normal" in2="BackgroundImageFix" result="effect1_dropShadow_721_2948"/>
<feBlend mode="normal" in="SourceGraphic" in2="effect1_dropShadow_721_2948" result="shape"/>
</filter>
</defs>
</svg>
