<svg width="116" height="82" viewBox="0 0 116 82" fill="none" xmlns="http://www.w3.org/2000/svg">
<g filter="url(#filter0_d_721_2945)">
<path d="M94.6998 0C89.6766 0.000560715 84.8594 1.99406 81.3077 5.54201C77.756 9.08996 75.7607 13.9018 75.7607 18.919C75.7607 16.4346 75.2708 13.9744 74.3189 11.679C73.367 9.38368 71.9718 7.29805 70.2129 5.54126C68.4541 3.78446 66.366 2.3909 64.068 1.44013C61.7699 0.48936 59.3069 0 56.8195 0C51.7963 0.000560715 46.9791 1.99406 43.4274 5.54201C39.8756 9.08996 37.8804 13.9018 37.8804 18.919C37.8804 16.4346 37.3904 13.9744 36.4385 11.679C35.4867 9.38368 34.0914 7.29805 32.3326 5.54126C30.5737 3.78446 28.4857 2.3909 26.1876 1.44013C23.8896 0.48936 21.4265 0 18.9391 0C13.916 0.000560715 9.09873 1.99406 5.54702 5.54201C1.99531 9.08996 -3.13685e-08 13.9018 0 18.919V61.081C-3.13685e-08 66.0982 1.99531 70.91 5.54702 74.458C9.09873 78.0059 13.916 79.9994 18.9391 80C23.9626 80 28.7804 78.0068 32.3326 74.4587C35.8848 70.9107 37.8804 66.0986 37.8804 61.081C37.8804 66.0982 39.8756 70.91 43.4274 74.458C46.9791 78.0059 51.7963 79.9994 56.8195 80C61.843 80 66.6608 78.0068 70.2129 74.4587C73.7651 70.9107 75.7607 66.0986 75.7607 61.081C75.7607 66.0982 77.756 70.91 81.3077 74.458C84.8594 78.0059 89.6766 79.9994 94.6998 80C99.7233 80 104.541 78.0068 108.093 74.4587C111.645 70.9107 113.641 66.0986 113.641 61.081V18.919C113.641 16.4346 113.151 13.9744 112.199 11.679C111.247 9.38368 109.852 7.29805 108.093 5.54126C106.334 3.78446 104.246 2.3909 101.948 1.44013C99.6502 0.48936 97.1872 0 94.6998 0Z" fill="#F9E14D"/>
<path d="M75.7607 18.919H76.7607C76.7607 14.1673 78.6504 9.60999 82.0144 6.24949C85.3785 2.88894 89.9416 1.00053 94.6999 1C97.056 1 99.3892 1.46356 101.566 2.36417C103.743 3.26478 105.721 4.58479 107.387 6.24878C109.053 7.91277 110.374 9.88815 111.276 12.0621C112.177 14.2361 112.641 16.566 112.641 18.919V61.081C112.641 65.833 110.751 70.3907 107.387 73.7512C104.022 77.1118 99.4585 79 94.6999 79C89.9416 78.9995 85.3785 77.1111 82.0144 73.7505C78.6504 70.39 76.7607 65.8327 76.7607 61.081H75.7607H74.7607C74.7607 65.833 72.8707 70.3907 69.5062 73.7512C66.1417 77.1118 61.5781 79 56.8196 79C52.0612 78.9995 47.4982 77.1111 44.1341 73.7505C40.77 70.39 38.8804 65.8327 38.8804 61.081H37.8804H36.8804C36.8804 65.833 34.9904 70.3907 31.6259 73.7512C28.2614 77.1118 23.6978 79 18.9392 79C14.1809 78.9995 9.61786 77.1111 6.25375 73.7505C2.88968 70.39 1 65.8327 1 61.081V18.919C1 14.1673 2.88968 9.60999 6.25375 6.24949C9.61783 2.88897 14.1808 1.00056 18.9391 1L75.7607 18.919ZM75.7607 18.919H74.7607C74.7607 16.566 74.2967 14.2361 73.3952 12.0621C72.4936 9.88815 71.1722 7.91277 69.5062 6.24878C67.8403 4.58479 65.8625 3.26478 63.6857 2.36417C61.5089 1.46357 59.1758 1.00001 56.8196 1L75.7607 18.919ZM38.8804 18.919H37.8804H36.8804C36.8804 16.566 36.4164 14.2361 35.5148 12.0621C34.6133 9.88815 33.2918 7.91277 31.6259 6.24878C29.96 4.58478 27.9821 3.26478 25.8053 2.36417C23.6285 1.46357 21.2954 1.00001 18.9392 1L38.8804 18.919ZM38.8804 18.919C38.8804 14.1673 40.77 9.60999 44.1341 6.24949C47.4982 2.88897 52.0612 1.00056 56.8195 1L38.8804 18.919Z" stroke="#101415" stroke-width="2"/>
</g>
<defs>
<filter id="filter0_d_721_2945" x="0" y="0" width="115.641" height="82" filterUnits="userSpaceOnUse" color-interpolation-filters="sRGB">
<feFlood flood-opacity="0" result="BackgroundImageFix"/>
<feColorMatrix in="SourceAlpha" type="matrix" values="0 0 0 0 0 0 0 0 0 0 0 0 0 0 0 0 0 0 127 0" result="hardAlpha"/>
<feOffset dx="2" dy="2"/>
<feComposite in2="hardAlpha" operator="out"/>
<feColorMatrix type="matrix" values="0 0 0 0 0.0627451 0 0 0 0 0.0784314 0 0 0 0 0.0823529 0 0 0 1 0"/>
<feBlend mode="normal" in2="BackgroundImageFix" result="effect1_dropShadow_721_2945"/>
<feBlend mode="normal" in="SourceGraphic" in2="effect1_dropShadow_721_2945" result="shape"/>
</filter>
</defs>
</svg>
