<svg width="82" height="82" viewBox="0 0 82 82" fill="none" xmlns="http://www.w3.org/2000/svg">
<g filter="url(#filter0_d_721_2944)">
<path d="M39.7279 0C31.8704 0 24.1895 2.34601 17.6563 6.74126C11.1231 11.1365 6.03102 17.3836 3.02411 24.6926C0.0171946 32.0017 -0.769525 40.0444 0.763385 47.8036C2.29629 55.5629 6.08 62.6902 11.636 68.2843C17.1921 73.8784 24.271 77.688 31.9774 79.2314C39.6839 80.7748 47.6718 79.9826 54.9311 76.9551C62.1904 73.9276 68.395 68.8008 72.7604 62.2228C77.1257 55.6449 79.4558 47.9112 79.4558 40C79.4558 29.3913 75.2701 19.2172 67.8197 11.7158C60.3693 4.21431 50.2644 0 39.7279 0ZM39.7279 57.8333C36.2245 57.8344 32.7996 56.7894 29.8862 54.8305C26.9727 52.8717 24.7016 50.087 23.3602 46.8284C22.0188 43.5699 21.6672 39.984 22.35 36.5244C23.0328 33.0647 24.7193 29.8865 27.1961 27.3919C29.673 24.8973 32.8289 23.1983 36.2649 22.5097C39.7008 21.8212 43.2624 22.174 46.4991 23.5236C49.7359 24.8732 52.5025 27.159 54.449 30.0918C56.3954 33.0246 57.4344 36.4726 57.4344 40C57.4344 44.7287 55.5691 49.2638 52.2486 52.6081C48.9281 55.9523 44.4244 57.8319 39.7279 57.8333Z" fill="#8D1BF3"/>
<path d="M18.2145 7.57097C24.5831 3.28646 32.0698 1 39.7279 1C49.9969 1 59.8468 5.10728 67.1102 12.4204C74.3739 19.7338 78.4558 29.6543 78.4558 40C78.4558 47.7149 76.1835 55.2562 71.9272 61.6699C67.6709 68.0835 61.622 73.0812 54.5462 76.0321C47.4704 78.9831 39.6849 79.7552 32.1738 78.2509C24.6626 76.7466 17.7622 73.0333 12.3456 67.5796C6.92885 62.1258 3.23927 55.1764 1.74442 47.6098C0.249571 40.0432 1.01682 32.2002 3.9489 25.0731C6.88096 17.946 11.8458 11.8555 18.2145 7.57097ZM29.3282 55.6604C32.4063 57.73 36.0255 58.8345 39.7282 58.8333C44.6921 58.8318 49.4508 56.8451 52.9582 53.3126C56.4654 49.7804 58.4344 44.9917 58.4344 40C58.4344 36.2763 57.3376 32.6359 55.2822 29.5388C53.2266 26.4417 50.3043 24.0267 46.884 22.6006C43.4636 21.1745 39.6997 20.8015 36.0684 21.5292C32.4371 22.2569 29.1027 24.0523 26.4865 26.6873C23.8703 29.3222 22.0898 32.6784 21.3689 36.3307C20.6481 39.9831 21.0192 43.7687 22.4355 47.2091C23.8518 50.6496 26.2502 53.5909 29.3282 55.6604Z" stroke="#101415" stroke-width="2"/>
</g>
<defs>
<filter id="filter0_d_721_2944" x="0" y="0" width="81.4556" height="82" filterUnits="userSpaceOnUse" color-interpolation-filters="sRGB">
<feFlood flood-opacity="0" result="BackgroundImageFix"/>
<feColorMatrix in="SourceAlpha" type="matrix" values="0 0 0 0 0 0 0 0 0 0 0 0 0 0 0 0 0 0 127 0" result="hardAlpha"/>
<feOffset dx="2" dy="2"/>
<feComposite in2="hardAlpha" operator="out"/>
<feColorMatrix type="matrix" values="0 0 0 0 0.0627451 0 0 0 0 0.0784314 0 0 0 0 0.0823529 0 0 0 1 0"/>
<feBlend mode="normal" in2="BackgroundImageFix" result="effect1_dropShadow_721_2944"/>
<feBlend mode="normal" in="SourceGraphic" in2="effect1_dropShadow_721_2944" result="shape"/>
</filter>
</defs>
</svg>
