<svg width="44" height="60" viewBox="0 0 44 60" fill="none" xmlns="http://www.w3.org/2000/svg">
<path d="M37.933 35.3285C40.8067 31.787 42.6534 27.5315 43.2742 23.0211C44.4949 14.0531 40.8143 6.95476 32.9108 3.03367C30.4707 1.82302 27.8133 1.17213 25.301 0.609597C18.866 -0.831324 12.974 0.285248 7.78757 3.92704C3.56704 6.89103 1.24815 10.5114 0.698532 14.9955C0.284169 18.4114 0.508681 21.8742 1.36073 25.2087C3.08027 32.0158 6.15691 37.3658 10.7662 41.5638C10.881 41.6685 10.9973 41.7727 11.1138 41.8767C11.627 42.308 12.0998 42.7847 12.5266 43.3009C12.9173 43.8071 13.3674 44.4603 13.3783 45.0231C13.4179 47.135 13.2943 49.2164 13.1549 51.1495C13.0684 52.3464 12.93 53.5622 12.796 54.7383C12.7139 55.4568 12.6321 56.1755 12.5609 56.8962C12.4023 58.4963 12.9504 59.2967 14.453 59.6591C15.3443 59.8796 16.2587 59.9939 17.1772 60H17.2616C20.3045 59.9743 23.3958 59.9049 26.3872 59.8377L28.3826 59.7933C30.3194 59.7511 31.0999 59.049 31.2622 57.203C31.5465 53.9693 31.683 51.4864 31.7039 49.1519L31.7069 48.9023C31.7237 47.5173 31.7424 45.955 30.5298 44.6192L32.7862 41.7874C34.5062 39.6278 36.2218 37.475 37.933 35.3285ZM28.4181 44.2252L25.0394 43.9709C25.0347 43.9436 25.0339 43.9159 25.0369 43.8885C25.5348 41.9824 26.0378 40.0777 26.5458 38.1748C27.6758 33.918 28.844 29.5163 29.9048 25.1641C30.7235 21.8064 30.7496 18.8308 29.9839 16.0679C29.6072 14.7084 28.8918 13.7042 27.9145 13.164C27.4438 12.9184 26.9281 12.7703 26.3985 12.7286C25.8688 12.687 25.336 12.7527 24.8325 12.9217C24.4312 13.0546 24.0446 13.2283 23.6788 13.4397L23.5286 13.5195C23.2921 13.6448 23.0726 13.7893 22.8403 13.9406L22.7124 14.024C22.6486 13.944 22.5862 13.8643 22.5241 13.7851C22.297 13.4844 22.0546 13.1955 21.7977 12.9195C20.4322 11.4994 18.4673 11.3612 16.9071 12.5762C15.8512 13.4275 15.0509 14.5515 14.5938 15.8252C12.9851 19.9339 12.8657 24.2178 14.2388 28.5577C14.9574 30.829 15.7187 33.1277 16.456 35.3504C16.7339 36.189 17.0111 37.0279 17.2877 37.8668C17.8894 39.7494 18.2414 41.7018 18.3347 43.6751H15.7574C15.6137 41.8232 14.3777 40.5674 13.1827 39.3514C12.961 39.1268 12.7393 38.9012 12.5242 38.6716C7.58878 33.4151 4.88038 27.7853 4.24478 21.4606C4.02578 19.2825 3.86368 16.9634 4.15757 14.7613C4.60101 11.4386 6.50554 8.65537 9.97962 6.2522C14.211 3.32524 18.9166 2.37991 23.9632 3.44246C26.6239 4.0023 29.2089 4.6053 31.5872 5.81743C37.7443 8.95626 40.5599 14.4186 39.7287 21.6141C39.1556 26.5756 36.8611 30.9504 32.2885 35.7994C31.0881 37.0733 29.7472 38.6361 28.9051 40.5694C28.4678 41.5736 28.0422 42.7585 28.4181 44.2252ZM28.5718 50.377L28.4309 52.5431H15.6906V49.9928L28.5718 50.377ZM28.1774 55.3128L28.1037 56.9772C24.2921 57.1454 19.8978 57.2876 15.5595 56.958C15.5509 56.8989 15.5421 56.8433 15.5349 56.7905C15.5037 56.6351 15.4876 56.4772 15.4873 56.3187C15.5043 55.9494 15.5403 55.5784 15.578 55.1858C15.5869 55.0951 15.5957 55.0031 15.6044 54.9102L28.1774 55.3128ZM15.4694 45.8326L15.8328 45.8431C20.2164 45.9711 24.3605 46.0923 28.5982 46.5317L28.6598 47.5742C24.3193 47.8135 19.9686 47.8032 15.6295 47.5428L15.4694 45.8326ZM18.7496 34.665C18.5899 34.1601 18.4293 33.6551 18.2773 33.1488C17.4496 30.405 16.6536 27.7132 16.0141 24.9476C15.4196 22.3786 15.7677 19.6598 17.1059 16.3913C17.4013 15.7369 17.8238 15.1472 18.349 14.6559C18.4464 14.5401 18.5672 14.4459 18.7035 14.3796C18.8398 14.3133 18.9886 14.2763 19.1403 14.2711C19.4275 14.2844 19.7253 14.4725 20.0251 14.83C20.7984 15.7523 20.8151 15.9855 20.1846 17.0966C18.9021 19.3575 18.3797 21.5294 18.5879 23.7362C18.6367 24.4304 18.7995 25.1116 19.0698 25.7534C19.1785 26.0766 19.3742 26.364 19.6355 26.5842C19.8968 26.8044 20.2139 26.9491 20.5521 27.0025C20.8903 27.056 21.2367 27.016 21.5536 26.887C21.8706 26.758 22.1459 26.545 22.3497 26.271C22.8066 25.7401 23.1647 25.1322 23.4073 24.4763C24.3256 22.1499 24.5026 19.5987 23.9143 17.1687C23.7288 16.3728 24.2943 15.7042 25.4665 15.3341C25.9425 15.1838 26.3164 15.1836 26.5773 15.3325C26.7126 15.4267 26.8266 15.5479 26.9121 15.6884C26.9979 15.8289 27.053 15.9857 27.0742 16.1486C27.3699 17.4446 27.7357 19.0574 27.5512 20.5062C27.2309 23.0116 26.6857 25.5368 26.1578 27.9788C26.0593 28.4381 25.961 28.8971 25.8624 29.3559C25.5461 30.8407 25.2005 32.3464 24.8661 33.8023C24.4175 35.7577 23.9545 37.7798 23.553 39.7813C23.3833 40.7631 23.2887 41.756 23.2699 42.7521C23.2517 43.1516 23.2332 43.5613 23.2056 43.9812L20.2025 43.7973C20.6112 40.5505 19.6657 37.5596 18.7503 34.665H18.7496ZM21.2947 22.0253L21.4686 20.9599C21.4679 21.3219 21.4095 21.6815 21.2954 22.0253H21.2947Z" fill="#101415"/>
</svg>
