<svg width="64" height="60" viewBox="0 0 64 60" fill="none" xmlns="http://www.w3.org/2000/svg">
<path d="M45.2507 31.7909C46.9524 31.7016 48.5547 31.4126 50.1117 31.5716C57.147 32.2903 62.4011 37.669 63.1159 44.7186C63.7591 51.0632 60.6036 56.2836 54.6698 58.591C50.2491 60.3102 45.7898 60.5821 41.3336 58.6976C38.2377 57.3884 35.8325 55.3319 34.4566 52.1919C34.388 52.0362 34.291 51.8909 34.1882 51.7062C32.8846 51.7762 31.607 51.8481 30.3291 51.9137C23.2911 52.2726 16.254 52.6532 9.21427 52.9718C7.31337 53.0577 5.40466 52.9656 3.49831 52.9269C3.05626 52.915 2.61796 52.8421 2.1958 52.7103C0.947706 52.3255 0.533075 51.462 0.970789 50.242C2.85021 44.9165 5.74187 40.0057 9.4861 35.7809C14.0545 30.6435 19.6287 27.4036 26.5386 26.6942C31.2659 26.2091 35.8058 27.0038 40.1702 28.8478C41.1185 29.217 42.0429 29.6446 42.9385 30.1282C43.7383 30.6407 44.5101 31.1957 45.2507 31.7909ZM41.7451 33.6393C38.0615 31.9834 34.4999 30.6181 30.5553 30.436C25.0673 30.1825 20.1014 31.5646 15.7634 34.9485C11.1014 38.5851 7.68626 43.2562 4.92496 48.438C4.80541 48.7039 4.70387 48.9774 4.621 49.2568C7.12548 49.4839 32.0729 47.7802 33.6486 47.2787C33.6877 47.0939 33.7463 46.8833 33.7753 46.669C34.162 44.0297 35.033 41.4849 36.3441 39.1627C36.7841 38.3955 37.3322 37.6957 37.9716 37.0849C39.1318 35.9423 40.3745 34.8816 41.7457 33.6393H41.7451ZM47.8975 55.3539C50.0314 55.3404 52.1378 54.8682 54.074 53.9692C55.5434 53.3151 56.7744 52.2209 57.5969 50.8372C59.5022 47.6162 59.1353 42.407 56.7246 39.5436C54.8037 37.2621 52.4034 35.6862 49.3749 35.4366C45.8618 35.1473 42.8764 36.3916 40.8472 39.3041C38.8146 42.2215 38.3245 45.5992 38.698 49.0915C38.8719 50.5204 39.584 51.8289 40.6888 52.75C42.7442 54.5797 45.187 55.3386 47.898 55.3539H47.8975Z" fill="#101415"/>
<path d="M27.3744 23.6079C24.3619 23.4841 21.4109 22.8582 18.817 21.0155C15.8869 18.9341 13.5737 15.0614 15.3899 10.2255C15.8476 8.97916 16.4677 7.79884 17.2341 6.71504C18.2818 5.28265 19.4383 3.93322 20.6933 2.67882C23.518 -0.17527 28.3385 -0.882816 31.7428 1.20819C36.2078 3.94992 38.8024 8.06754 39.3125 13.2643C39.6154 16.3488 38.2434 18.9772 35.7954 20.9385C33.3672 22.8837 30.5097 23.5386 27.3744 23.6079ZM26.9704 19.6751C28.8553 19.6276 30.6875 19.4015 32.3295 18.3893C34.5634 17.0126 35.4653 14.7472 34.7946 12.2172C34.2714 10.2396 33.1953 8.57847 31.8117 7.11121C30.4333 5.6494 28.8205 4.66186 26.7221 4.59829C24.4119 4.52824 22.6634 5.76979 21.054 7.12211C19.8749 8.113 19.1603 9.55016 18.6794 11.0574C17.6127 14.3995 18.7797 17.1177 21.9517 18.6337C23.543 19.3958 25.2456 19.6027 26.9704 19.6749V19.6751Z" fill="#101415"/>
<path d="M50.4278 47.0069C50.4278 48.2663 50.4477 49.2858 50.4184 50.3039C50.412 50.7458 50.3412 51.184 50.2088 51.6056C50.1253 51.8866 49.9517 52.1323 49.7148 52.3049C49.478 52.4774 49.1908 52.5672 48.898 52.5602C48.6049 52.577 48.3149 52.4935 48.0754 52.3235C47.8359 52.1533 47.6615 51.9068 47.5807 51.6243C47.4457 51.1134 47.3772 50.5872 47.3772 50.059C47.3469 49.0945 47.3687 48.1283 47.3687 47.0175C46.1901 47.0175 45.0917 47.0474 43.9963 47.0066C43.2893 46.9906 42.5857 46.9042 41.8958 46.7495C41.5926 46.6813 41.321 46.5131 41.1249 46.2718C40.9289 46.0305 40.8193 45.7303 40.8144 45.4193C40.8095 45.1082 40.909 44.8046 41.0974 44.5571C41.2858 44.3095 41.5517 44.1328 41.8526 44.055C42.4056 43.9037 42.9757 43.8228 43.549 43.8142C44.7779 43.7797 46.0086 43.8036 47.2868 43.8036C47.2868 42.5514 47.2814 41.4539 47.2896 40.3569C47.2702 39.9599 47.2946 39.5622 47.3622 39.1706C47.4918 38.619 47.8165 38.1989 48.4582 38.1924C48.729 38.1727 48.9977 38.2508 49.2159 38.4122C49.4344 38.5739 49.5876 38.8084 49.6482 39.0733C49.8151 39.8068 49.9336 40.5507 50.0027 41.3C50.0947 42.0818 50.1419 42.8687 50.2101 43.6842C50.9839 43.6842 51.6401 43.7029 52.2945 43.679C53.0476 43.6518 53.7991 43.5506 54.5514 43.5459C55.7532 43.5387 56.5112 44.1191 56.5775 45.0288C56.6395 45.8806 56.0185 46.5778 54.9036 46.7615C54.0272 46.8863 53.1448 46.9662 52.2603 47.0007C51.695 47.0347 51.1264 47.0069 50.4278 47.0069Z" fill="#101415"/>
</svg>
