<svg width="60" height="60" viewBox="0 0 60 60" fill="none" xmlns="http://www.w3.org/2000/svg">
<path d="M41.5261 37.7357C43.526 40.1053 44.5728 42.6947 44.5296 45.6732C44.47 49.7772 42.3619 52.8664 39.3996 55.4029C35.9474 58.3584 31.7754 59.6053 27.3105 59.9555C26.3326 60.0114 25.3524 60.0146 24.3742 59.9652C23.9516 59.9569 23.5329 59.8824 23.1334 59.7444C21.5325 59.1644 21.2891 57.9783 22.5588 56.8628C23.8052 55.7679 25.1503 54.7812 26.3509 53.6407C27.271 52.7598 28.1042 51.7925 28.8391 50.7521C29.6172 49.6571 29.6857 48.3935 29.2034 46.9375C28.4345 47.2954 27.698 47.5807 27.0212 47.9684C25.6019 48.7816 24.8013 48.7478 23.5838 47.6791C22.4008 46.6402 21.2383 45.5784 20.0614 44.5327C19.8863 44.396 19.7033 44.2698 19.5133 44.1546C18.7994 44.8146 18.1358 45.4726 17.4244 46.0741C16.4817 46.8711 15.5466 46.892 14.9349 46.1863C14.3616 45.5257 14.4559 44.6525 15.2843 43.8036C15.8723 43.2006 16.544 42.6789 17.0405 42.2418C15.7056 40.6125 14.3603 39.2766 13.393 37.7094C12.2627 35.8766 13.6596 34.2429 14.5326 32.4497C12.8662 32.3452 11.4958 32.6504 10.3943 33.4952C9.34317 34.3475 8.3952 35.3198 7.56973 36.3922C6.77015 37.3789 6.14823 38.509 5.43837 39.5693C4.76916 40.569 4.08358 41.6196 2.6746 41.4744C1.69916 41.374 0.339 39.6168 0.248766 38.296C0.0442702 35.2851 0.427702 32.3549 1.83361 29.633C4.40924 24.6484 8.4667 21.4072 13.7524 19.6731C15.9671 18.9466 18.1982 19.1779 20.4571 19.8661C20.5823 19.7219 20.7293 19.5782 20.8469 19.4139C26.947 10.8887 35.26 5.47721 45.1053 2.26355C48.4582 1.16924 51.8503 0.173079 55.4244 0.0818225C56.3173 0.0590723 57.2104 -0.00918855 58.1028 0.00103626C59.2666 0.0140729 59.8469 0.426909 59.7998 1.56365C59.7395 3.76348 59.5335 5.95691 59.1833 8.12952C57.7467 16.2999 53.8176 23.3072 48.7141 29.6982C46.7277 32.1859 44.491 34.4745 42.3658 36.8515C42.1145 37.1317 41.8474 37.3981 41.5261 37.7357ZM21.6669 41.5278C22.9962 42.5841 23.9642 43.4128 25.0048 44.1352C25.1817 44.2185 25.3749 44.2612 25.5704 44.2603C25.7659 44.2593 25.9587 44.2146 26.1347 44.1295C27.7842 43.2551 29.471 42.4187 31.0065 41.3671C36.4755 37.6217 41.4233 33.2703 45.5822 28.0935C47.8389 25.285 49.9035 22.3228 52.0972 19.373L39.385 7.56792C38.9654 7.76417 38.5566 7.98271 38.1603 8.22257C35.6808 9.868 33.153 11.4487 30.7586 13.2105C28.0746 15.1849 25.8034 17.5977 23.7758 20.2572C20.4131 24.6674 18.4333 29.8174 15.9451 34.6946C15.6977 35.1803 15.8365 36.1585 16.1872 36.5928C17.1 37.7234 18.2304 38.6787 19.4568 39.8834C21.374 37.8963 23.0611 36.0392 24.8719 34.3094C25.9151 33.3728 27.0337 32.5237 28.2162 31.7706C28.8378 31.3483 29.6315 31.2044 30.2003 31.8529C30.7767 32.5103 30.2803 33.1542 29.8752 33.6826C29.3962 34.2795 28.8773 34.8431 28.322 35.3697C27.1717 36.5067 26.0189 37.6404 24.8338 38.74C23.8397 39.6641 22.7983 40.536 21.6669 41.5278ZM57.3904 2.48825C51.951 2.49924 47.1502 4.52144 42.2556 6.16713L42.1682 6.50581L53.426 15.9965C55.3551 12.9393 56.8344 7.89896 57.3904 2.48825ZM30.4511 55.1636C35.0313 54.3009 38.5798 51.9778 40.5736 47.7202C41.9029 44.8788 40.9744 42.2267 39.4077 39.7055C36.7705 41.7188 34.248 43.6449 31.7261 45.5705C33.7125 49.076 32.6952 52.1634 30.4511 55.1636ZM19.0504 22.0025C12.5019 20.9289 3.44964 29.7836 4.0368 35.8625C6.71085 31.6397 10.1423 29.0955 15.3061 30.0109L19.0504 22.0025Z" fill="#101415"/>
<path d="M5.77254 54.7511C5.96656 54.3998 6.17489 53.7613 6.59053 53.3173C8.15799 51.6437 9.78297 50.0234 11.409 48.406C11.8865 47.9311 12.4905 47.6315 13.1119 48.1384C13.7673 48.6732 13.4805 49.3122 13.0933 49.8414C11.764 51.6563 10.4317 53.4712 9.0271 55.227C8.6093 55.7069 8.07824 56.0749 7.48213 56.2975C6.59717 56.6462 5.74161 55.9446 5.77254 54.7511Z" fill="#101415"/>
<path d="M20.3316 48.2441C21.2741 48.2697 21.9592 49.1196 21.54 49.7779C20.4723 51.4346 19.2994 53.0212 18.0285 54.5278C17.5732 55.073 16.7558 54.9958 16.1775 54.4741C15.9132 54.2503 15.7402 53.9372 15.6915 53.5943C15.6428 53.2513 15.7218 52.9025 15.9135 52.614C16.2604 52.0363 16.6729 51.5006 17.1428 51.0176C17.8388 50.2763 18.5742 49.5693 19.3304 48.8901C19.6432 48.644 19.9784 48.4277 20.3316 48.2441Z" fill="#101415"/>
<path d="M11.9115 41.0541C11.7316 41.4517 11.5191 41.8337 11.2761 42.1962C10.0891 43.6776 8.88398 45.1442 7.66058 46.5959C7.43071 46.8435 7.16329 47.0533 6.86816 47.2176C6.25722 47.5931 5.63607 47.5926 5.14349 47.0364C4.63455 46.4617 4.74753 45.824 5.25775 45.3296C6.92797 43.7105 8.61736 42.1106 10.3402 40.548C10.5654 40.3435 11.045 40.3102 11.3745 40.3711C11.5723 40.4076 11.7083 40.7801 11.9115 41.0541Z" fill="#101415"/>
<path d="M38.8232 13.9166C40.4832 13.8938 41.7628 14.5727 43.0473 15.6425C44.3788 16.7514 45.3734 17.9341 45.865 19.5872C46.9994 23.4108 44.7548 26.2254 41.1145 26.7403C38.1642 27.1574 35.6617 25.9425 33.8414 23.6329C32.2821 21.6539 32.2399 19.3511 33.3214 17.1382C34.4119 14.9053 36.3764 13.9403 38.8232 13.9166ZM35.3194 20.0425C35.7458 20.7782 36.0517 21.7161 36.6869 22.2894C37.3449 22.8832 38.3017 23.1774 39.1647 23.5056C40.2986 23.9371 41.2799 23.4801 42.0504 22.678C42.796 21.9022 42.8236 20.9277 42.4594 19.9352C41.8852 18.3703 40.546 17.585 39.2012 16.8766C37.9937 16.2407 36.8477 16.621 36.1593 17.812C35.8084 18.418 35.6514 19.1363 35.3194 20.0425Z" fill="#101415"/>
</svg>
