<svg width="40" height="66" viewBox="0 0 40 66" fill="none" xmlns="http://www.w3.org/2000/svg">
<path d="M10.6235 49.0232C7.97255 49.5616 4.58532 50.5094 1.9019 53.0836C0.556627 54.3761 -0.114136 55.9247 0.0159065 57.4457C0.140411 58.9046 1.00637 60.2467 2.45425 61.2248C4.00612 62.2781 5.71696 63.076 7.52149 63.5877C11.4317 64.6801 15.4721 65.2366 19.5321 65.2427C22.5619 65.2411 25.5834 64.928 28.549 64.3079C31.4242 63.7088 34.7517 62.8043 37.6164 60.6413C39.0004 59.5968 39.8147 58.3124 39.9719 56.9271C40.1302 55.5291 39.6174 54.0799 38.4874 52.733C36.9108 50.8536 34.8261 49.5642 32.1142 48.7914C31.0995 48.5012 30.0451 48.3076 29.0256 48.1193C28.6906 48.0573 28.3559 47.9958 28.0212 47.9304C28.4314 47.291 28.8434 46.654 29.2572 46.0199C30.3029 44.4108 31.3843 42.7464 32.3798 41.0695C35.3563 36.0543 38.8619 29.3066 39.5546 21.58C40.2845 13.4371 37.7187 7.60809 31.7101 3.76062C27.5424 1.09172 22.8918 0.194106 17.8895 1.09438C10.3265 2.45469 5.38407 6.87719 3.19946 14.2392C1.8972 18.629 2.37385 23.0679 2.93568 26.4451C3.85574 31.9863 5.93458 37.5312 9.6768 44.424C10.2603 45.4989 10.8767 46.5237 11.5295 47.6086C11.7569 47.9858 11.9848 48.3662 12.2133 48.7497L11.9232 48.7964C11.47 48.8694 11.0443 48.938 10.6235 49.0232ZM20.3469 51.7214C20.173 51.9464 19.9979 52.173 19.8217 52.4014C16.3031 49.4002 14.0508 45.5633 12.1413 41.8558C9.68392 37.0849 7.05772 31.3438 6.2131 24.9328C5.49087 19.4462 6.03136 15.3961 7.96591 11.7966C10.3692 7.3253 15.1465 4.5016 20.7452 4.24284C21.0193 4.23018 21.2919 4.22379 21.5629 4.22379C26.7147 4.22379 31.2699 6.49975 33.8631 10.4079C35.5135 12.8966 36.2424 15.7969 36.1579 19.5346C36.063 23.6965 34.9124 27.9874 32.5371 33.0372C29.8565 38.7377 26.3559 44.2277 21.8356 49.8209C21.3313 50.4445 20.8531 51.0646 20.3469 51.7214ZM13.4968 51.0789C13.7791 51.0915 14.0479 51.2028 14.2565 51.3935C15.8492 53.2178 17.8213 54.6718 20.0348 55.6544C21.0037 56.0817 21.8665 55.8197 22.5972 54.8762L23.0949 54.2313C23.7691 53.356 24.4666 52.451 25.1928 51.6014C25.4078 51.3337 25.7172 51.1582 26.0575 51.1113C28.5472 51.3136 31.1649 51.694 33.4389 53.0952C34.3975 53.7066 35.2564 54.4618 35.9852 55.3347C36.1434 55.4919 36.2677 55.6799 36.3508 55.887C36.4339 56.0941 36.474 56.3159 36.4684 56.5391C36.4302 56.7662 36.346 56.983 36.2213 57.1766C36.0965 57.3702 35.9337 57.5364 35.7428 57.6654C34.8815 58.351 33.9372 58.9247 32.9317 59.3734C29.1578 61.0491 24.8074 61.8843 19.2416 62.0009C15.2037 61.8521 11.27 61.6136 7.537 60.3559C6.32017 59.959 5.16184 59.4011 4.09261 58.6976C3.34295 58.1922 2.928 57.6013 2.89292 56.9883C2.85969 56.4109 3.17147 55.8242 3.79425 55.2914C5.13583 54.1437 6.63857 53.1991 8.25448 52.488C9.54488 51.9256 10.9849 51.6143 12.3776 51.3134C12.7187 51.2395 13.0598 51.1656 13.3985 51.0884C13.4308 51.0818 13.4638 51.0786 13.4968 51.0789Z" fill="#101415"/>
<path d="M28.3305 18.1795C28.3305 18.1072 28.3334 18.035 28.3352 17.963C28.3482 17.6464 28.3439 17.3294 28.322 17.0134C28.231 15.7966 27.8348 14.6226 27.1696 13.5997C26.5046 12.5768 25.5922 11.7381 24.517 11.1614C23.4722 10.6107 22.3038 10.3366 21.1231 10.3653C19.9423 10.394 18.7885 10.7245 17.7717 11.3253C15.3713 12.6869 13.8646 14.9799 13.4151 17.9564C12.8314 21.8213 15.5781 25.6033 19.5374 26.387C20.0706 26.4936 20.613 26.5477 21.1567 26.5489C24.489 26.5489 27.2094 24.4237 28.0377 20.9869C28.1659 20.4083 28.2632 19.8233 28.3292 19.2344C28.364 18.9693 28.3983 18.7042 28.4386 18.4404C28.4442 18.4044 28.4423 18.3675 28.4331 18.3321C28.4241 18.2968 28.408 18.2636 28.3859 18.2346C28.37 18.2137 28.3513 18.1952 28.3305 18.1795ZM25.336 18.5003L25.3305 18.6108C25.325 18.7301 25.3173 18.8909 25.3042 19.0519C25.1657 20.7268 24.5526 22.0302 23.5312 22.8205C22.6231 23.5234 21.4353 23.7722 20.0943 23.5411C19.3943 23.395 18.7309 23.1092 18.1438 22.7008C17.5568 22.2924 17.0582 21.7697 16.6778 21.1641C16.3309 20.6124 16.1081 19.9919 16.0249 19.3455C15.9416 18.6991 15.9999 18.0423 16.1956 17.4206C16.7008 15.6963 17.447 14.0305 19.4705 13.5203C19.959 13.3943 20.4612 13.329 20.9658 13.326C21.9217 13.3031 22.8568 13.6071 23.6164 14.1878C24.7517 15.0857 25.3624 16.6174 25.336 18.4992V18.5003Z" fill="#101415"/>
</svg>
