<svg width="50" height="40" viewBox="0 0 50 40" fill="none" xmlns="http://www.w3.org/2000/svg">
<path d="M48.8183 18.9119C48.71 16.8876 48.6235 14.8272 48.5395 12.8349C48.4577 10.8947 48.3734 8.88837 48.2687 6.91585C48.1173 4.05137 46.6434 1.96454 44.007 0.880929C43.0761 0.498549 41.9303 0.296347 40.507 0.262229C36.7365 0.172578 32.9025 0.131138 29.1947 0.0908503C27.8748 0.0764527 26.5552 0.0613856 25.2357 0.0456573C25.2024 0.0181078 25.1607 0.00296779 25.1176 0.00294565H22.0441C19.5465 0.00294565 17.0491 0.00368518 14.552 0.00489511C14.095 0.00489511 13.6365 0.0038614 13.1796 0.00259104C11.8061 -0.00212746 10.3857 -0.00604344 8.98869 0.0447711C7.0814 0.113915 5.61274 0.486816 4.3671 1.21855C1.84439 2.70088 0.498716 4.8168 0.367435 7.50797C0.298272 8.92515 0.274974 10.3666 0.252582 11.7607L0.237957 12.6336C0.217732 13.8036 0.1966 14.9734 0.174569 16.143C0.103601 19.9969 0.030106 23.9821 0.00103258 27.903C-0.0107051 29.4637 0.0680271 31.3103 0.739605 33.1719C1.73279 35.9255 3.56478 37.7056 6.3403 38.6141C8.9226 39.4395 11.6154 39.8627 14.3252 39.8685C21.0608 39.956 28.1258 39.9974 36.4405 39.9974H38.0556C39.5837 40.0233 41.109 39.8574 42.5961 39.5034C46.0051 38.627 48.0254 36.5271 48.6008 33.2615C48.7837 32.1538 48.9108 31.0373 48.9814 29.9165C49.2304 26.5155 49.0437 23.069 48.8628 19.7356L48.8183 18.9119ZM17.3192 36.9028C14.4016 36.8939 11.284 36.783 8.25517 36.0364C7.03643 35.7362 6.16477 35.3845 5.46828 34.9087L20.4998 21.016L20.9194 21.4697C21.3377 21.9221 21.7694 22.389 22.2055 22.8518C23.4678 24.1917 24.7062 24.3015 26.1021 23.1977C26.6733 22.7464 27.2159 22.2357 27.7407 21.7435C27.9393 21.5566 28.1401 21.3684 28.3438 21.1811L43.0559 36.1048C42.5473 36.5249 41.9326 36.6129 41.2851 36.7057L41.0991 36.7325C40.4035 36.8255 39.7021 36.8686 39.0004 36.8614L34.8853 36.8763C29.1273 36.8979 23.1743 36.9205 17.3192 36.9028ZM40.289 5.88777C38.0877 7.88496 35.8117 9.94994 33.6413 12.0546C31.4754 14.1547 29.352 16.3556 27.2982 18.4847C26.4482 19.3659 25.5706 20.2759 24.704 21.1637L6.42318 3.14536C6.55405 3.11039 6.68389 3.07507 6.8127 3.03938C7.3111 2.90309 7.78187 2.77398 8.26276 2.67907C10.6538 2.20722 13.1157 2.27139 15.4966 2.33436C16.0284 2.34815 16.5601 2.3618 17.0915 2.37051C17.9001 2.38322 18.7232 2.41031 19.5188 2.43663C20.2099 2.45931 20.9245 2.4829 21.6282 2.49688C23.6072 2.5362 25.5862 2.57395 27.5653 2.61014C31.8433 2.69035 36.2666 2.77356 40.6164 2.87846C41.228 2.91238 41.8359 2.9984 42.433 3.13562C42.6678 3.18262 42.911 3.23086 43.1526 3.27296V3.27899C42.2012 4.15281 41.2293 5.03479 40.2886 5.88848L40.289 5.88777ZM9.50009 27.8066C7.66666 29.5586 5.77291 31.3687 3.94165 33.2183C3.18105 31.415 2.78684 29.9348 2.66946 28.4507C2.34442 24.3334 2.47949 20.2352 2.64671 16.3906C2.72309 14.6373 2.75361 12.854 2.78323 11.1294C2.80345 9.95707 2.8244 8.74474 2.85943 7.55423C2.89555 6.29149 3.31576 5.40545 4.2555 4.62236L18.5394 18.7248C15.6315 21.9462 12.5147 24.9252 9.49901 27.808L9.50009 27.8066ZM45.5096 32.9104C45.4428 33.2721 45.3534 33.6292 45.242 33.9795C45.2019 34.1154 45.1618 34.2517 45.124 34.3878L45.0664 34.407L29.9253 19.5788C35.1594 14.1525 40.1234 9.52464 45.0883 5.44133C45.1096 5.53733 45.1313 5.63077 45.1526 5.72188C45.2411 6.05257 45.2997 6.39047 45.3281 6.73172C45.4955 10.1661 45.632 13.5554 45.7322 16.1248C45.8263 18.5358 45.9065 20.9147 45.9708 23.1957C46.0511 26.084 46.0602 29.4976 45.5085 32.9111L45.5096 32.9104Z" fill="#101415"/>
</svg>
