<svg width="283" height="281" viewBox="0 0 283 281" fill="none" xmlns="http://www.w3.org/2000/svg">
<path d="M66.7561 99.0798C52.9527 101.122 43.1177 114.215 48.778 126.969C55.2135 141.47 65.2987 154.214 78.2234 163.845C97.96 178.552 122.701 184.795 147.004 181.2C171.308 177.605 193.182 164.466 207.815 144.675C217.398 131.714 223.361 116.596 225.323 100.853C227.048 87.0066 213.844 77.3214 200.04 79.3633L66.7561 99.0798Z" fill="#8D1BF3"/>
<path d="M52.7726 135.728C50.2697 130.088 51.1736 124.402 54.2782 119.827C57.4072 115.216 62.7803 111.748 69.1148 110.811L202.399 91.0943C208.733 90.1572 214.881 91.9217 219.21 95.4289C223.507 98.9088 226.018 104.09 225.255 110.213C223.339 125.596 217.511 140.368 208.149 153.031C193.852 172.368 172.481 185.203 148.739 188.715C124.998 192.227 100.827 186.129 81.5435 171.76C68.9156 162.35 59.0611 149.897 52.7726 135.728Z" stroke="#101415" stroke-width="4.26176"/>
</svg>
