<svg width="224" height="236" viewBox="0 0 224 236" fill="none" xmlns="http://www.w3.org/2000/svg">
<path d="M79.1651 63.2181C83.7307 53.9843 94.9015 50.1783 104.155 54.7039L178.982 91.2993C188.292 95.8526 192.127 107.107 187.533 116.397L150.614 191.065C146.049 200.299 134.878 204.105 125.624 199.58L50.7975 162.984C41.4873 158.431 37.6528 147.176 42.2464 137.886L79.1651 63.2181Z" fill="#F9E14D"/>
<path d="M74.2597 45.0502C78.4047 36.6669 88.5467 33.2115 96.9478 37.3202L171.775 73.9156C180.227 78.0495 183.709 88.2674 179.538 96.7021L142.619 171.37C138.474 179.753 128.332 183.209 119.931 179.1L45.1044 142.505C36.6518 138.371 33.1705 128.153 37.3409 119.718L74.2597 45.0502Z" stroke="#101415" stroke-width="3.44629"/>
</svg>
