<svg width="277" height="254" viewBox="0 0 277 254" fill="none" xmlns="http://www.w3.org/2000/svg">
<path d="M36.4002 162.081C29.7062 170.543 31.0836 183.022 40.6493 188.013C58.863 197.516 79.626 201.459 100.293 199.087C127.47 195.969 152.254 182.187 169.194 160.773C186.134 139.36 193.842 112.068 190.622 84.9034C188.173 64.2455 179.557 44.9475 166.117 29.41C159.059 21.2497 146.597 22.7816 139.903 31.2434L36.4002 162.081Z" fill="#F9E14D"/>
<path d="M60.3957 182.787C51.9392 178.375 50.4816 167.168 56.6766 159.337L160.18 28.5001C166.375 20.669 177.615 19.5083 183.855 26.7223C197.082 42.0131 205.56 61.0038 207.97 81.3318C211.138 108.063 203.554 134.916 186.886 155.985C170.219 177.055 145.832 190.616 119.089 193.685C98.7526 196.018 78.3202 192.139 60.3957 182.787Z" stroke="#FDF0E7" stroke-width="3.29535"/>
</svg>
