<svg width="76" height="50" viewBox="0 0 76 50" fill="none" xmlns="http://www.w3.org/2000/svg">
<path d="M59.4979 22.1672L61.5973 22.216C84.5927 22.6066 76.9275 56.3919 52.321 47.4574C34.159 40.8663 37.5278 10.5476 56.9591 5.56765C65.5519 3.37064 75.1211 4.93296 67.993 7.37409C61.8902 9.42464 56.9591 15.332 57.3009 20.1654C57.3985 21.2395 58.3262 22.1672 59.4979 22.1672Z" fill="#FDF0E7"/>
<path d="M14.6303 48.677C-7.48626 40.1819 1.49705 3.07664 26.0548 1.4655C32.4505 1.0261 34.1105 2.53959 29.2771 4.34603C24.5901 6.10364 18.6826 14.4035 18.0479 20.0181C17.9015 21.141 18.7802 22.0687 19.9031 22.0687C26.3477 22.0687 29.033 22.0685 32.7923 27.2437C42.0198 40.0352 29.7653 54.4869 14.6303 48.677Z" fill="#FDF0E7"/>
<path d="M60.1836 22.3272L60.1741 22.327L58.09 22.2784C56.1167 22.2682 54.5829 20.7177 54.4188 18.9125L54.4175 18.8975L54.4164 18.8825C54.2084 15.9412 55.5944 12.8849 57.6909 10.3757C59.7245 7.94189 62.5592 5.85476 65.7332 4.70127C63.2821 4.49177 59.5382 4.71286 55.9425 5.63223C46.9803 7.92948 41.5959 16.1113 40.6452 24.685C39.6939 33.2637 43.2174 41.673 51.4445 44.6587L51.4447 44.6588C57.2741 46.7754 61.9309 46.3113 65.324 44.6083C68.7396 42.894 71.0272 39.8504 71.9799 36.5311C72.9352 33.2027 72.5229 29.7013 70.6872 27.0454C68.8799 24.4305 65.5407 22.4181 60.1836 22.3272ZM67.7876 3.8029C67.8147 3.78094 67.8246 3.76982 67.8227 3.76975C67.8208 3.76968 67.8072 3.78065 67.7876 3.8029ZM67.9228 5.14408C67.9463 5.16195 67.9616 5.17018 67.9634 5.16982C67.9652 5.16946 67.9534 5.16053 67.9228 5.14408Z" fill="#101415" stroke="#FDF0E7" stroke-width="3"/>
<path d="M24.7647 1.5736L24.7694 1.5733C25.8282 1.50056 26.7282 1.4852 27.4669 1.51336C27.4331 1.52625 27.3987 1.53923 27.3638 1.55228L27.3622 1.55286C24.5983 2.58932 21.7338 5.39813 19.5344 8.47468C17.3202 11.572 15.5311 15.2891 15.1705 18.4494C14.9076 20.5293 16.5584 22.18 18.5149 22.18C21.822 22.18 23.8272 22.1967 25.4935 22.7503C27.0361 23.2629 28.4151 24.2931 30.1888 26.7343C34.4134 32.592 33.6536 38.6382 30.3148 42.5773C26.9552 46.5409 20.7971 48.5816 13.78 45.8881L24.7647 1.5736ZM24.7647 1.5736C13.309 2.32518 5.34982 11.371 2.90938 21.4539M24.7647 1.5736L2.90938 21.4539M2.90938 21.4539C0.468334 31.5394 3.66329 42.002 13.7797 45.8879L2.90938 21.4539ZM29.3447 0.542618C29.3443 0.542625 29.3401 0.546902 29.3334 0.555447C29.3417 0.546902 29.3451 0.54261 29.3447 0.542618Z" fill="#101415" stroke="#FDF0E7" stroke-width="3"/>
</svg>
