<svg width="60" height="60" viewBox="0 0 60 60" fill="none" xmlns="http://www.w3.org/2000/svg">
<g filter="url(#filter0_i_3071_5123)">
<rect width="60" height="60" rx="30" fill="url(#paint0_linear_3071_5123)"/>
<path opacity="0.2" d="M40.4348 19.043V40.956H33.1304V19.043H40.4348Z" fill="#140533"/>
<path d="M42.5217 39.913H41.4783V19.0435C41.4783 18.7667 41.3683 18.5013 41.1726 18.3056C40.9769 18.1099 40.7115 18 40.4348 18H33.1304C32.8537 18 32.5883 18.1099 32.3926 18.3056C32.1969 18.5013 32.087 18.7667 32.087 19.0435V24.2609H25.8261C25.5493 24.2609 25.2839 24.3708 25.0882 24.5665C24.8925 24.7622 24.7826 25.0276 24.7826 25.3043V30.5217H19.5652C19.2885 30.5217 19.0231 30.6317 18.8274 30.8274C18.6317 31.0231 18.5217 31.2885 18.5217 31.5652V39.913H17.4783C17.2015 39.913 16.9361 40.023 16.7404 40.2187C16.5447 40.4144 16.4348 40.6798 16.4348 40.9565C16.4348 41.2333 16.5447 41.4987 16.7404 41.6944C16.9361 41.8901 17.2015 42 17.4783 42H42.5217C42.7985 42 43.0639 41.8901 43.2596 41.6944C43.4553 41.4987 43.5652 41.2333 43.5652 40.9565C43.5652 40.6798 43.4553 40.4144 43.2596 40.2187C43.0639 40.023 42.7985 39.913 42.5217 39.913ZM34.1739 20.087H39.3913V39.913H34.1739V20.087ZM26.8696 26.3478H32.087V39.913H26.8696V26.3478ZM20.6087 32.6087H24.7826V39.913H20.6087V32.6087Z" fill="#140533"/>
</g>
<defs>
<filter id="filter0_i_3071_5123" x="0" y="0" width="60" height="60" filterUnits="userSpaceOnUse" color-interpolation-filters="sRGB">
<feFlood flood-opacity="0" result="BackgroundImageFix"/>
<feBlend mode="normal" in="SourceGraphic" in2="BackgroundImageFix" result="shape"/>
<feColorMatrix in="SourceAlpha" type="matrix" values="0 0 0 0 0 0 0 0 0 0 0 0 0 0 0 0 0 0 127 0" result="hardAlpha"/>
<feOffset/>
<feGaussianBlur stdDeviation="6"/>
<feComposite in2="hardAlpha" operator="arithmetic" k2="-1" k3="1"/>
<feColorMatrix type="matrix" values="0 0 0 0 0.988235 0 0 0 0 0.941176 0 0 0 0 0.890196 0 0 0 0.45 0"/>
<feBlend mode="normal" in2="shape" result="effect1_innerShadow_3071_5123"/>
</filter>
<linearGradient id="paint0_linear_3071_5123" x1="0" y1="0" x2="60" y2="60" gradientUnits="userSpaceOnUse">
<stop stop-color="#F4EDFF"/>
<stop offset="1" stop-color="#FCEBEF"/>
</linearGradient>
</defs>
</svg>
