<svg width="15" height="16" viewBox="0 0 15 16" fill="none" xmlns="http://www.w3.org/2000/svg">
<path d="M3.89274 6.27498C3.92218 6.20173 3.9658 6.135 4.02108 6.07863C4.07636 6.02226 4.14223 5.97735 4.2149 5.94648C4.28757 5.91562 4.36562 5.8994 4.44457 5.89876C4.52352 5.89811 4.60182 5.91306 4.67499 5.94274L6.84998 6.81348V4.69999C6.84998 4.54086 6.9132 4.38825 7.02572 4.27573C7.13824 4.1632 7.29085 4.09999 7.44998 4.09999C7.60911 4.09999 7.76172 4.1632 7.87424 4.27573C7.98676 4.38825 8.04998 4.54086 8.04998 4.69999V6.81348L10.225 5.94274C10.2982 5.91319 10.3764 5.89834 10.4553 5.89905C10.5343 5.89976 10.6123 5.916 10.6849 5.94685C10.7575 5.9777 10.8234 6.02256 10.8787 6.07886C10.934 6.13516 10.9777 6.20181 11.0072 6.27498C11.0368 6.34816 11.0516 6.42645 11.0509 6.50536C11.0502 6.58428 11.034 6.66228 11.0031 6.73492C10.9723 6.80756 10.9274 6.87341 10.8711 6.92871C10.8148 6.98401 10.7481 7.02768 10.675 7.05723L8.40173 7.96623L9.72997 9.73997C9.82545 9.86728 9.86645 10.0273 9.84394 10.1848C9.82144 10.3424 9.73728 10.4845 9.60997 10.58C9.48267 10.6754 9.32265 10.7164 9.16512 10.6939C9.00759 10.6714 8.86545 10.5873 8.76998 10.46L7.44998 8.69973L6.12998 10.46C6.08271 10.523 6.02348 10.5761 5.95568 10.6163C5.88788 10.6564 5.81284 10.6828 5.73484 10.6939C5.65684 10.7051 5.5774 10.7008 5.50108 10.6812C5.42475 10.6616 5.35302 10.6272 5.28999 10.58C5.22695 10.5327 5.17385 10.4735 5.1337 10.4057C5.09356 10.3379 5.06716 10.2628 5.05602 10.1848C5.04487 10.1068 5.0492 10.0274 5.06876 9.95107C5.08831 9.87474 5.12271 9.80301 5.16999 9.73997L6.50048 7.96623L4.22499 7.05723C4.15173 7.02779 4.085 6.98418 4.02863 6.92889C3.97226 6.87361 3.92736 6.80775 3.89649 6.73507C3.86562 6.6624 3.8494 6.58436 3.84876 6.5054C3.84812 6.42645 3.86306 6.34815 3.89274 6.27498ZM14.65 1.7V5.89999C14.65 9.85397 12.736 12.2502 11.1302 13.5642C9.40073 14.9787 7.68023 15.4595 7.60523 15.479C7.5021 15.507 7.39336 15.507 7.29023 15.479C7.21523 15.4595 5.49699 14.9787 3.76524 13.5642C2.16399 12.2502 0.25 9.85397 0.25 5.89999V1.7C0.25 1.38174 0.376428 1.07651 0.601471 0.851471C0.826514 0.626428 1.13174 0.5 1.45 0.5H13.45C13.7682 0.5 14.0734 0.626428 14.2985 0.851471C14.5235 1.07651 14.65 1.38174 14.65 1.7ZM13.45 1.7H1.45V5.89999C1.45 8.69748 2.48649 10.9632 4.53024 12.6357C5.40042 13.3474 6.38863 13.901 7.44998 14.2715C8.5254 13.8944 9.52596 13.3308 10.4057 12.6065C12.4255 10.937 13.45 8.68023 13.45 5.89999V1.7Z" fill="#140533"/>
</svg>
