<svg width="60" height="60" viewBox="0 0 60 60" fill="none" xmlns="http://www.w3.org/2000/svg">
<g filter="url(#filter0_i_3071_5133)">
<rect width="60" height="60" rx="30" fill="url(#paint0_linear_3071_5133)"/>
<path opacity="0.2" d="M39.6259 38.1793H20.3706C20.2021 38.1783 20.0368 38.133 19.8912 38.0481C19.7457 37.9632 19.625 37.8416 19.5411 37.6954C19.4573 37.5492 19.4133 37.3836 19.4136 37.2151C19.4139 37.0465 19.4583 36.8811 19.5426 36.7351C20.3357 35.3632 21.3333 32.8612 21.3333 28.5516C21.3333 26.2535 22.2463 24.0496 23.8712 22.4246C25.4962 20.7996 27.7002 19.8867 29.9982 19.8867C32.2963 19.8867 34.5003 20.7996 36.1252 22.4246C37.7502 24.0496 38.6631 26.2535 38.6631 28.5516C38.6631 32.8624 39.662 35.3632 40.4563 36.7351C40.5406 36.8812 40.5851 37.0469 40.5853 37.2157C40.5854 37.3844 40.5412 37.5502 40.4571 37.6964C40.373 37.8427 40.252 37.9643 40.1061 38.049C39.9602 38.1338 39.7946 38.1787 39.6259 38.1793Z" fill="#140533"/>
<path d="M41.5514 23.6315C41.3248 23.7489 41.0608 23.7715 40.8176 23.6943C40.5743 23.6171 40.3716 23.4465 40.2541 23.22C39.3351 21.4045 37.9442 19.8701 36.2273 18.778C36.1203 18.7105 36.0277 18.6226 35.9547 18.5193C35.8816 18.416 35.8297 18.2994 35.8017 18.176C35.7738 18.0526 35.7704 17.925 35.7918 17.8003C35.8132 17.6756 35.859 17.5564 35.9265 17.4494C35.9939 17.3424 36.0818 17.2497 36.1851 17.1767C36.2884 17.1037 36.4051 17.0517 36.5285 17.0238C36.6518 16.9959 36.7795 16.9925 36.9042 17.0139C37.0289 17.0353 37.1481 17.081 37.2551 17.1485C39.256 18.4296 40.8806 20.2192 41.963 22.3342C42.0804 22.5609 42.1029 22.8248 42.0258 23.0681C41.9486 23.3113 41.778 23.514 41.5514 23.6315ZM18.8915 23.7399C19.0679 23.7398 19.2409 23.6913 19.3916 23.5996C19.5422 23.5079 19.6649 23.3766 19.746 23.22C20.6649 21.4045 22.0559 19.8701 23.7728 18.778C23.9888 18.6417 24.1419 18.4252 24.1984 18.176C24.2548 17.9268 24.2099 17.6655 24.0736 17.4494C23.9373 17.2333 23.7208 17.0802 23.4716 17.0238C23.2225 16.9674 22.9611 17.0122 22.745 17.1485C20.7441 18.4296 19.1194 20.2192 18.0371 22.3342C17.9611 22.4809 17.9241 22.6448 17.9297 22.8099C17.9354 22.9751 17.9834 23.136 18.0692 23.2772C18.1551 23.4184 18.2758 23.5351 18.4198 23.6162C18.5638 23.6972 18.7263 23.7398 18.8915 23.7399ZM41.2879 36.2486C41.4584 36.5411 41.5489 36.8734 41.55 37.212C41.5512 37.5506 41.463 37.8835 41.2945 38.1771C41.1259 38.4708 40.8829 38.7148 40.59 38.8846C40.297 39.0543 39.9645 39.1439 39.6259 39.1441H34.7158C34.4948 40.2323 33.9044 41.2107 33.0447 41.9134C32.1849 42.6161 31.1086 43 29.9982 43C28.8878 43 27.8116 42.6161 26.9518 41.9134C26.092 41.2107 25.5017 40.2323 25.2807 39.1441H20.3706C20.0322 39.1434 19.7 39.0536 19.4073 38.8837C19.1147 38.7137 18.8721 38.4697 18.7038 38.1761C18.5355 37.8825 18.4476 37.5498 18.4489 37.2114C18.4501 36.873 18.5405 36.5409 18.711 36.2486C19.7953 34.3772 20.3706 31.7164 20.3706 28.5537C20.3706 26.0003 21.3849 23.5514 23.1905 21.7459C24.996 19.9404 27.4448 18.926 29.9982 18.926C32.5517 18.926 35.0005 19.9404 36.806 21.7459C38.6116 23.5514 39.6259 26.0003 39.6259 28.5537C39.6259 31.7152 40.2011 34.376 41.2879 36.2486ZM32.7205 39.1441H27.276C27.4755 39.7066 27.8443 40.1935 28.3318 40.5379C28.8192 40.8822 29.4014 41.0671 29.9982 41.0671C30.5951 41.0671 31.1772 40.8822 31.6647 40.5379C32.1522 40.1935 32.521 39.7066 32.7205 39.1441ZM39.6259 37.2186C38.3454 35.0199 37.7004 32.1051 37.7004 28.5537C37.7004 26.511 36.8889 24.5519 35.4445 23.1075C34 21.663 32.041 20.8516 29.9982 20.8516C27.9555 20.8516 25.9964 21.663 24.552 23.1075C23.1076 24.5519 22.2961 26.511 22.2961 28.5537C22.2961 32.1063 21.6487 35.0211 20.3706 37.2186H39.6259Z" fill="#140533"/>
</g>
<defs>
<filter id="filter0_i_3071_5133" x="0" y="0" width="60" height="60" filterUnits="userSpaceOnUse" color-interpolation-filters="sRGB">
<feFlood flood-opacity="0" result="BackgroundImageFix"/>
<feBlend mode="normal" in="SourceGraphic" in2="BackgroundImageFix" result="shape"/>
<feColorMatrix in="SourceAlpha" type="matrix" values="0 0 0 0 0 0 0 0 0 0 0 0 0 0 0 0 0 0 127 0" result="hardAlpha"/>
<feOffset/>
<feGaussianBlur stdDeviation="6"/>
<feComposite in2="hardAlpha" operator="arithmetic" k2="-1" k3="1"/>
<feColorMatrix type="matrix" values="0 0 0 0 0.988235 0 0 0 0 0.941176 0 0 0 0 0.890196 0 0 0 0.45 0"/>
<feBlend mode="normal" in2="shape" result="effect1_innerShadow_3071_5133"/>
</filter>
<linearGradient id="paint0_linear_3071_5133" x1="0" y1="0" x2="60" y2="60" gradientUnits="userSpaceOnUse">
<stop stop-color="#F4EDFF"/>
<stop offset="1" stop-color="#FCEBEF"/>
</linearGradient>
</defs>
</svg>
