<svg width="60" height="60" viewBox="0 0 60 60" fill="none" xmlns="http://www.w3.org/2000/svg">
<g filter="url(#filter0_i_3071_5113)">
<rect width="60" height="60" rx="30" fill="url(#paint0_linear_3071_5113)"/>
<path opacity="0.2" d="M35.4443 31.0706C35.4443 32.1476 35.1249 33.2005 34.5265 34.0961C33.9281 34.9916 33.0776 35.6896 32.0825 36.1018C31.0875 36.514 29.9925 36.6218 28.9361 36.4117C27.8797 36.2016 26.9094 35.6829 26.1478 34.9213C25.3862 34.1597 24.8675 33.1894 24.6574 32.133C24.4473 31.0766 24.5551 29.9816 24.9673 28.9866C25.3795 27.9915 26.0775 27.141 26.973 26.5426C27.8686 25.9442 28.9215 25.6248 29.9985 25.6248C31.4428 25.6248 32.828 26.1985 33.8493 27.2198C34.8706 28.2411 35.4443 29.6263 35.4443 31.0706ZM21.2853 19.0898C20.4236 19.0898 19.5813 19.3454 18.8649 19.8241C18.1484 20.3028 17.59 20.9832 17.2603 21.7793C16.9305 22.5753 16.8443 23.4513 17.0124 24.2964C17.1805 25.1415 17.5954 25.9178 18.2047 26.5271C18.814 27.1364 19.5902 27.5513 20.4353 27.7194C21.2804 27.8875 22.1564 27.8012 22.9525 27.4715C23.7486 27.1417 24.429 26.5833 24.9077 25.8669C25.3864 25.1504 25.6419 24.3081 25.6419 23.4465C25.6419 22.291 25.1829 21.1829 24.3659 20.3659C23.5489 19.5488 22.4407 19.0898 21.2853 19.0898ZM38.7118 19.0898C37.8501 19.0898 37.0078 19.3454 36.2914 19.8241C35.5749 20.3028 35.0165 20.9832 34.6868 21.7793C34.357 22.5753 34.2708 23.4513 34.4389 24.2964C34.607 25.1415 35.0219 25.9178 35.6312 26.5271C36.2405 27.1364 37.0167 27.5513 37.8619 27.7194C38.707 27.8875 39.5829 27.8012 40.379 27.4715C41.1751 27.1417 41.8555 26.5833 42.3342 25.8669C42.8129 25.1504 43.0684 24.3081 43.0684 23.4465C43.0684 22.291 42.6094 21.1829 41.7924 20.3659C40.9754 19.5488 39.8672 19.0898 38.7118 19.0898Z" fill="#140533"/>
<path d="M45.9003 31.94C45.7859 32.0258 45.6556 32.0883 45.5171 32.1238C45.3785 32.1593 45.2343 32.1671 45.0928 32.1469C44.9512 32.1267 44.8149 32.0788 44.6919 32.0059C44.5688 31.933 44.4613 31.8366 44.3755 31.7222C43.719 30.8398 42.8645 30.1238 41.8808 29.632C40.8971 29.1401 39.8117 28.8861 38.7118 28.8904C38.423 28.8904 38.146 28.7756 37.9417 28.5714C37.7374 28.3671 37.6227 28.0901 37.6227 27.8012C37.6227 27.5124 37.7374 27.2353 37.9417 27.0311C38.146 26.8268 38.423 26.7121 38.7118 26.7121C39.323 26.712 39.9218 26.5406 40.4404 26.2172C40.9589 25.8939 41.3764 25.4316 41.6454 24.8829C41.9144 24.3342 42.0242 23.721 41.9622 23.113C41.9002 22.5051 41.6689 21.9267 41.2946 21.4436C40.9204 20.9605 40.4181 20.592 39.845 20.38C39.2718 20.168 38.6507 20.121 38.0521 20.2444C37.4536 20.3677 36.9016 20.6564 36.459 21.0777C36.0163 21.499 35.7006 22.036 35.5478 22.6277C35.5121 22.7663 35.4494 22.8965 35.3633 23.0108C35.2773 23.1251 35.1695 23.2214 35.0463 23.2941C34.923 23.3668 34.7866 23.4145 34.6449 23.4345C34.5032 23.4544 34.359 23.4463 34.2204 23.4106C34.0819 23.3748 33.9517 23.3121 33.8374 23.2261C33.7231 23.14 33.6268 23.0323 33.5541 22.909C33.4814 22.7857 33.4337 22.6494 33.4137 22.5077C33.3937 22.366 33.4018 22.2217 33.4376 22.0832C33.6497 21.2626 34.0503 20.5029 34.6076 19.8645C35.1649 19.226 35.8636 18.7265 36.648 18.4056C37.4323 18.0846 38.2808 17.9512 39.1258 18.0159C39.9708 18.0806 40.789 18.3416 41.5154 18.7781C42.2418 19.2147 42.8563 19.8148 43.31 20.5306C43.7636 21.2464 44.044 22.0583 44.1287 22.9015C44.2134 23.7447 44.1001 24.5961 43.7979 25.3879C43.4956 26.1796 43.0128 26.8899 42.3878 27.4622C43.8687 28.1035 45.1562 29.121 46.1222 30.4139C46.208 30.5286 46.2704 30.6591 46.3056 30.7979C46.3409 30.9368 46.3485 31.0812 46.3279 31.223C46.3073 31.3648 46.2589 31.5011 46.1855 31.6241C46.1121 31.7471 46.0152 31.8545 45.9003 31.94ZM38.5648 40.3265C38.6408 40.4505 38.6913 40.5885 38.7131 40.7323C38.735 40.8761 38.7278 41.0228 38.6921 41.1638C38.6563 41.3047 38.5927 41.4371 38.5049 41.5531C38.4172 41.6691 38.3071 41.7663 38.1811 41.8391C38.0552 41.9118 37.9159 41.9586 37.7716 41.9767C37.6273 41.9947 37.4808 41.9837 37.3408 41.9443C37.2009 41.9048 37.0702 41.8377 36.9566 41.7469C36.8429 41.6561 36.7486 41.5435 36.6792 41.4157C35.993 40.2542 35.0159 39.2917 33.8443 38.6231C32.6726 37.9545 31.3469 37.6028 29.9979 37.6028C28.6489 37.6028 27.3232 37.9545 26.1516 38.6231C24.9799 39.2917 24.0028 40.2542 23.3166 41.4157C23.2485 41.5459 23.1548 41.6609 23.0411 41.7539C22.9274 41.8469 22.7961 41.9159 22.655 41.9569C22.5139 41.9978 22.366 42.0098 22.2202 41.9921C22.0744 41.9743 21.9336 41.9273 21.8065 41.8538C21.6793 41.7803 21.5683 41.6818 21.4802 41.5643C21.392 41.4468 21.3286 41.3126 21.2936 41.17C21.2587 41.0273 21.253 40.879 21.2768 40.7341C21.3007 40.5891 21.3536 40.4505 21.4324 40.3265C22.4883 38.5122 24.0983 37.0845 26.0259 36.2531C24.9413 35.4227 24.1441 34.2732 23.7466 32.9663C23.349 31.6594 23.3709 30.2608 23.8093 28.967C24.2477 27.6733 25.0806 26.5494 26.1907 25.7535C27.3009 24.9575 28.6326 24.5294 29.9986 24.5294C31.3646 24.5294 32.6963 24.9575 33.8065 25.7535C34.9166 26.5494 35.7494 27.6733 36.1878 28.967C36.6262 30.2608 36.6482 31.6594 36.2506 32.9663C35.853 34.2732 35.0559 35.4227 33.9713 36.2531C35.8988 37.0845 37.5089 38.5122 38.5648 40.3265ZM29.9986 35.4253C30.8603 35.4253 31.7026 35.1698 32.419 34.6911C33.1354 34.2124 33.6938 33.532 34.0236 32.7359C34.3533 31.9398 34.4396 31.0639 34.2715 30.2188C34.1034 29.3737 33.6885 28.5974 33.0792 27.9881C32.4699 27.3788 31.6936 26.9639 30.8485 26.7958C30.0034 26.6277 29.1275 26.714 28.3314 27.0437C27.5353 27.3735 26.8549 27.9319 26.3762 28.6483C25.8975 29.3647 25.642 30.207 25.642 31.0687C25.642 32.2242 26.101 33.3323 26.918 34.1493C27.735 34.9663 28.8431 35.4253 29.9986 35.4253ZM22.3745 27.8012C22.3745 27.5124 22.2597 27.2353 22.0555 27.0311C21.8512 26.8268 21.5742 26.7121 21.2853 26.7121C20.6742 26.712 20.0754 26.5406 19.5568 26.2172C19.0382 25.8939 18.6207 25.4316 18.3517 24.8829C18.0827 24.3342 17.973 23.721 18.035 23.113C18.097 22.5051 18.3283 21.9267 18.7025 21.4436C19.0768 20.9605 19.579 20.592 20.1522 20.38C20.7254 20.168 21.3465 20.121 21.945 20.2444C22.5436 20.3677 23.0955 20.6564 23.5382 21.0777C23.9809 21.499 24.2966 22.036 24.4493 22.6277C24.5216 22.9076 24.702 23.1473 24.9509 23.2941C25.1999 23.4409 25.4969 23.4828 25.7767 23.4106C26.0566 23.3384 26.2963 23.1579 26.4431 22.909C26.5899 22.6601 26.6318 22.363 26.5596 22.0832C26.3475 21.2626 25.9469 20.5029 25.3896 19.8645C24.8322 19.226 24.1336 18.7265 23.3492 18.4056C22.5649 18.0846 21.7164 17.9512 20.8714 18.0159C20.0264 18.0806 19.2081 18.3416 18.4817 18.7781C17.7554 19.2147 17.1409 19.8148 16.6872 20.5306C16.2336 21.2464 15.9532 22.0583 15.8685 22.9015C15.7838 23.7447 15.8971 24.5961 16.1993 25.3879C16.5015 26.1796 16.9844 26.8899 17.6094 27.4622C16.1299 28.1041 14.8439 29.1216 13.8791 30.4139C13.7056 30.6449 13.631 30.9355 13.6717 31.2216C13.7124 31.5077 13.8651 31.7659 14.0962 31.9394C14.3273 32.1128 14.6179 32.1874 14.9039 32.1467C15.19 32.106 15.4482 31.9533 15.6217 31.7222C16.2782 30.8398 17.1327 30.1238 18.1164 29.632C19.1001 29.1401 20.1855 28.8861 21.2853 28.8904C21.5742 28.8904 21.8512 28.7756 22.0555 28.5714C22.2597 28.3671 22.3745 28.0901 22.3745 27.8012Z" fill="#140533"/>
</g>
<defs>
<filter id="filter0_i_3071_5113" x="0" y="0" width="60" height="60" filterUnits="userSpaceOnUse" color-interpolation-filters="sRGB">
<feFlood flood-opacity="0" result="BackgroundImageFix"/>
<feBlend mode="normal" in="SourceGraphic" in2="BackgroundImageFix" result="shape"/>
<feColorMatrix in="SourceAlpha" type="matrix" values="0 0 0 0 0 0 0 0 0 0 0 0 0 0 0 0 0 0 127 0" result="hardAlpha"/>
<feOffset/>
<feGaussianBlur stdDeviation="6"/>
<feComposite in2="hardAlpha" operator="arithmetic" k2="-1" k3="1"/>
<feColorMatrix type="matrix" values="0 0 0 0 0.988235 0 0 0 0 0.941176 0 0 0 0 0.890196 0 0 0 0.45 0"/>
<feBlend mode="normal" in2="shape" result="effect1_innerShadow_3071_5113"/>
</filter>
<linearGradient id="paint0_linear_3071_5113" x1="0" y1="0" x2="60" y2="60" gradientUnits="userSpaceOnUse">
<stop stop-color="#F4EDFF"/>
<stop offset="1" stop-color="#FCEBEF"/>
</linearGradient>
</defs>
</svg>
