<svg width="60" height="60" viewBox="0 0 60 60" fill="none" xmlns="http://www.w3.org/2000/svg">
<g filter="url(#filter0_i_3071_5103)">
<rect width="60" height="60" rx="30" fill="url(#paint0_linear_3071_5103)"/>
<path opacity="0.2" d="M41 21.0039V26.0039H19V21.0039C19 20.7387 19.1054 20.4843 19.2929 20.2968C19.4804 20.1093 19.7348 20.0039 20 20.0039H40C40.2652 20.0039 40.5196 20.1093 40.7071 20.2968C40.8947 20.4843 41 20.7387 41 21.0039Z" fill="#140533"/>
<path d="M40 19H37V18C37 17.7348 36.8946 17.4804 36.7071 17.2929C36.5196 17.1054 36.2652 17 36 17C35.7348 17 35.4804 17.1054 35.2929 17.2929C35.1054 17.4804 35 17.7348 35 18V19H25V18C25 17.7348 24.8946 17.4804 24.7071 17.2929C24.5196 17.1054 24.2652 17 24 17C23.7348 17 23.4804 17.1054 23.2929 17.2929C23.1054 17.4804 23 17.7348 23 18V19H20C19.4696 19 18.9609 19.2107 18.5858 19.5858C18.2107 19.9609 18 20.4696 18 21V41C18 41.5304 18.2107 42.0391 18.5858 42.4142C18.9609 42.7893 19.4696 43 20 43H40C40.5304 43 41.0391 42.7893 41.4142 42.4142C41.7893 42.0391 42 41.5304 42 41V21C42 20.4696 41.7893 19.9609 41.4142 19.5858C41.0391 19.2107 40.5304 19 40 19ZM23 21V22C23 22.2652 23.1054 22.5196 23.2929 22.7071C23.4804 22.8946 23.7348 23 24 23C24.2652 23 24.5196 22.8946 24.7071 22.7071C24.8946 22.5196 25 22.2652 25 22V21H35V22C35 22.2652 35.1054 22.5196 35.2929 22.7071C35.4804 22.8946 35.7348 23 36 23C36.2652 23 36.5196 22.8946 36.7071 22.7071C36.8946 22.5196 37 22.2652 37 22V21H40V25H20V21H23ZM40 41H20V27H40V41ZM35.2075 30.2925C35.3005 30.3854 35.3742 30.4957 35.4246 30.6171C35.4749 30.7385 35.5008 30.8686 35.5008 31C35.5008 31.1314 35.4749 31.2615 35.4246 31.3829C35.3742 31.5043 35.3005 31.6146 35.2075 31.7075L29.2075 37.7075C29.1146 37.8005 29.0043 37.8742 28.8829 37.9246C28.7615 37.9749 28.6314 38.0008 28.5 38.0008C28.3686 38.0008 28.2385 37.9749 28.1171 37.9246C27.9957 37.8742 27.8854 37.8005 27.7925 37.7075L24.7925 34.7075C24.6049 34.5199 24.4994 34.2654 24.4994 34C24.4994 33.7346 24.6049 33.4801 24.7925 33.2925C24.9801 33.1049 25.2346 32.9994 25.5 32.9994C25.7654 32.9994 26.0199 33.1049 26.2075 33.2925L28.5 35.5863L33.7925 30.2925C33.8854 30.1995 33.9957 30.1258 34.1171 30.0754C34.2385 30.0251 34.3686 29.9992 34.5 29.9992C34.6314 29.9992 34.7615 30.0251 34.8829 30.0754C35.0043 30.1258 35.1146 30.1995 35.2075 30.2925Z" fill="#140533"/>
</g>
<defs>
<filter id="filter0_i_3071_5103" x="0" y="0" width="60" height="60" filterUnits="userSpaceOnUse" color-interpolation-filters="sRGB">
<feFlood flood-opacity="0" result="BackgroundImageFix"/>
<feBlend mode="normal" in="SourceGraphic" in2="BackgroundImageFix" result="shape"/>
<feColorMatrix in="SourceAlpha" type="matrix" values="0 0 0 0 0 0 0 0 0 0 0 0 0 0 0 0 0 0 127 0" result="hardAlpha"/>
<feOffset/>
<feGaussianBlur stdDeviation="6"/>
<feComposite in2="hardAlpha" operator="arithmetic" k2="-1" k3="1"/>
<feColorMatrix type="matrix" values="0 0 0 0 0.988235 0 0 0 0 0.941176 0 0 0 0 0.890196 0 0 0 0.45 0"/>
<feBlend mode="normal" in2="shape" result="effect1_innerShadow_3071_5103"/>
</filter>
<linearGradient id="paint0_linear_3071_5103" x1="0" y1="0" x2="60" y2="60" gradientUnits="userSpaceOnUse">
<stop stop-color="#F4EDFF"/>
<stop offset="1" stop-color="#FCEBEF"/>
</linearGradient>
</defs>
</svg>
