<svg width="17" height="16" viewBox="0 0 17 16" fill="none" xmlns="http://www.w3.org/2000/svg">
<path d="M16.6815 7.99992C16.6815 8.18074 16.6097 8.35415 16.4818 8.48201C16.354 8.60987 16.1805 8.6817 15.9997 8.6817H8.50018C8.31936 8.6817 8.14595 8.60987 8.01809 8.48201C7.89023 8.35415 7.8184 8.18074 7.8184 7.99992C7.8184 7.8191 7.89023 7.64569 8.01809 7.51783C8.14595 7.38998 8.31936 7.31814 8.50018 7.31814H15.9997C16.1805 7.31814 16.354 7.38998 16.4818 7.51783C16.6097 7.64569 16.6815 7.8191 16.6815 7.99992ZM8.50018 3.22749H15.9997C16.1805 3.22749 16.354 3.15566 16.4818 3.0278C16.6097 2.89994 16.6815 2.72653 16.6815 2.54571C16.6815 2.36489 16.6097 2.19148 16.4818 2.06362C16.354 1.93576 16.1805 1.86393 15.9997 1.86393H8.50018C8.31936 1.86393 8.14595 1.93576 8.01809 2.06362C7.89023 2.19148 7.8184 2.36489 7.8184 2.54571C7.8184 2.72653 7.89023 2.89994 8.01809 3.0278C8.14595 3.15566 8.31936 3.22749 8.50018 3.22749ZM15.9997 12.7724H8.50018C8.31936 12.7724 8.14595 12.8442 8.01809 12.972C7.89023 13.0999 7.8184 13.2733 7.8184 13.4541C7.8184 13.635 7.89023 13.8084 8.01809 13.9362C8.14595 14.0641 8.31936 14.1359 8.50018 14.1359H15.9997C16.1805 14.1359 16.354 14.0641 16.4818 13.9362C16.6097 13.8084 16.6815 13.635 16.6815 13.4541C16.6815 13.2733 16.6097 13.0999 16.4818 12.972C16.354 12.8442 16.1805 12.7724 15.9997 12.7724ZM4.60894 0.699799L2.36419 2.9454L1.48299 2.06335C1.35506 1.93542 1.18156 1.86355 1.00064 1.86355C0.819718 1.86355 0.646209 1.93542 0.51828 2.06335C0.390351 2.19128 0.318481 2.36479 0.318481 2.54571C0.318481 2.72663 0.390351 2.90014 0.51828 3.02807L1.88183 4.39162C1.94515 4.45501 2.02034 4.5053 2.10311 4.53961C2.18588 4.57392 2.27459 4.59158 2.36419 4.59158C2.45379 4.59158 2.5425 4.57392 2.62527 4.53961C2.70804 4.5053 2.78323 4.45501 2.84655 4.39162L5.57365 1.66451C5.70158 1.53658 5.77345 1.36307 5.77345 1.18216C5.77345 1.00124 5.70158 0.827728 5.57365 0.699799C5.44572 0.57187 5.27222 0.5 5.0913 0.5C4.91038 0.5 4.73687 0.57187 4.60894 0.699799ZM4.60894 6.15401L2.36419 8.39961L1.48299 7.51756C1.35506 7.38964 1.18156 7.31777 1.00064 7.31777C0.819718 7.31777 0.646209 7.38964 0.51828 7.51756C0.390351 7.64549 0.318481 7.819 0.318481 7.99992C0.318481 8.0895 0.336126 8.17821 0.370407 8.26097C0.404689 8.34373 0.454936 8.41893 0.51828 8.48228L1.88183 9.84583C1.94515 9.90922 2.02034 9.95951 2.10311 9.99382C2.18588 10.0281 2.27459 10.0458 2.36419 10.0458C2.45379 10.0458 2.5425 10.0281 2.62527 9.99382C2.70804 9.95951 2.78323 9.90922 2.84655 9.84583L5.57365 7.11873C5.70158 6.9908 5.77345 6.81729 5.77345 6.63637C5.77345 6.45545 5.70158 6.28194 5.57365 6.15401C5.44572 6.02608 5.27222 5.95421 5.0913 5.95421C4.91038 5.95421 4.73687 6.02608 4.60894 6.15401ZM4.60894 11.6082L2.36419 13.8538L1.48299 12.9718C1.41965 12.9084 1.34445 12.8582 1.26169 12.8239C1.17892 12.7896 1.09022 12.772 1.00064 12.772C0.911055 12.772 0.82235 12.7896 0.739587 12.8239C0.656824 12.8582 0.581624 12.9084 0.51828 12.9718C0.454936 13.0351 0.404689 13.1103 0.370407 13.1931C0.336126 13.2758 0.318481 13.3646 0.318481 13.4541C0.318481 13.5437 0.336126 13.6324 0.370407 13.7152C0.404689 13.7979 0.454936 13.8731 0.51828 13.9365L1.88183 15.3C1.94515 15.3634 2.02034 15.4137 2.10311 15.448C2.18588 15.4823 2.27459 15.5 2.36419 15.5C2.45379 15.5 2.5425 15.4823 2.62527 15.448C2.70804 15.4137 2.78323 15.3634 2.84655 15.3L5.57365 12.5729C5.70158 12.445 5.77345 12.2715 5.77345 12.0906C5.77345 11.9097 5.70158 11.7362 5.57365 11.6082C5.44572 11.4803 5.27222 11.4084 5.0913 11.4084C4.91038 11.4084 4.73687 11.4803 4.60894 11.6082Z" fill="#140533"/>
</svg>
