<svg width="60" height="60" viewBox="0 0 60 60" fill="none" xmlns="http://www.w3.org/2000/svg">
<g filter="url(#filter0_i_3071_5143)">
<rect width="60" height="60" rx="30" fill="url(#paint0_linear_3071_5143)"/>
<path opacity="0.2" d="M26.31 19.5586V27.8663L19.11 32.0201C18.6294 29.4259 19.0905 26.7452 20.4104 24.4607C21.7304 22.1762 23.8224 20.4379 26.31 19.5586Z" fill="#140533"/>
<path d="M26.7715 28.665C26.9119 28.584 27.0284 28.4674 27.1095 28.327C27.1905 28.1867 27.2331 28.0275 27.2331 27.8654V19.5577C27.2323 19.4105 27.1963 19.2657 27.1281 19.1353C27.0599 19.0048 26.9615 18.8926 26.8412 18.8079C26.7208 18.7232 26.5819 18.6686 26.4361 18.6484C26.2904 18.6283 26.1419 18.6434 26.0031 18.6923C23.3088 19.6459 21.0431 21.5292 19.6131 24.0038C18.1831 26.4783 17.6828 29.3818 18.2019 32.1923C18.2288 32.3376 18.2902 32.4744 18.381 32.591C18.4718 32.7077 18.5892 32.8009 18.7235 32.8627C18.8444 32.9193 18.9764 32.9484 19.11 32.9481C19.272 32.9481 19.4312 32.9056 19.5715 32.8246L26.7715 28.665ZM25.3869 20.9562V27.3323L19.8623 30.5204C19.8485 30.3462 19.8485 30.1708 19.8485 30C19.8501 28.1289 20.368 26.2945 21.3452 24.6988C22.3224 23.1031 23.721 21.8081 25.3869 20.9562ZM30.0023 18C29.7575 18 29.5227 18.0973 29.3496 18.2704C29.1765 18.4435 29.0792 18.6783 29.0792 18.9231V29.5177L19.9858 34.815C19.8802 34.8762 19.7879 34.9576 19.714 35.0547C19.6402 35.1518 19.5863 35.2625 19.5555 35.3806C19.5247 35.4986 19.5176 35.6215 19.5346 35.7423C19.5517 35.8631 19.5924 35.9793 19.6546 36.0842C20.7204 37.8961 22.2435 39.3962 24.0714 40.4344C25.8992 41.4726 27.9677 42.0124 30.0698 41.9998C32.1719 41.9872 34.2338 41.4226 36.0491 40.3626C37.8643 39.3025 39.3693 37.7842 40.4133 35.9597C41.4573 34.1351 42.0037 32.0683 41.9978 29.9662C41.9919 27.8641 41.4339 25.8005 40.3796 23.9818C39.3254 22.1632 37.8119 20.6534 35.9907 19.6036C34.1695 18.5538 32.1044 18.0008 30.0023 18ZM30.0023 40.1538C28.3909 40.1495 26.8034 39.7638 25.3697 39.0282C23.936 38.2926 22.6968 37.228 21.7535 35.9215L30.4673 30.8446C30.6075 30.7637 30.7239 30.6473 30.8049 30.5072C30.8859 30.367 30.9287 30.208 30.9288 30.0462V19.8877C33.5324 20.1239 35.9445 21.3552 37.663 23.3252C39.3816 25.2953 40.274 27.8522 40.1546 30.4637C40.0352 33.0753 38.9132 35.5401 37.0221 37.3451C35.131 39.1501 32.6166 40.1562 30.0023 40.1538Z" fill="#140533"/>
</g>
<defs>
<filter id="filter0_i_3071_5143" x="0" y="0" width="60" height="60" filterUnits="userSpaceOnUse" color-interpolation-filters="sRGB">
<feFlood flood-opacity="0" result="BackgroundImageFix"/>
<feBlend mode="normal" in="SourceGraphic" in2="BackgroundImageFix" result="shape"/>
<feColorMatrix in="SourceAlpha" type="matrix" values="0 0 0 0 0 0 0 0 0 0 0 0 0 0 0 0 0 0 127 0" result="hardAlpha"/>
<feOffset/>
<feGaussianBlur stdDeviation="6"/>
<feComposite in2="hardAlpha" operator="arithmetic" k2="-1" k3="1"/>
<feColorMatrix type="matrix" values="0 0 0 0 0.988235 0 0 0 0 0.941176 0 0 0 0 0.890196 0 0 0 0.45 0"/>
<feBlend mode="normal" in2="shape" result="effect1_innerShadow_3071_5143"/>
</filter>
<linearGradient id="paint0_linear_3071_5143" x1="0" y1="0" x2="60" y2="60" gradientUnits="userSpaceOnUse">
<stop stop-color="#F4EDFF"/>
<stop offset="1" stop-color="#FCEBEF"/>
</linearGradient>
</defs>
</svg>
