<svg width="60" height="60" viewBox="0 0 60 60" fill="none" xmlns="http://www.w3.org/2000/svg">
<g filter="url(#filter0_i_3071_5771)">
<rect width="60" height="60" rx="30" fill="url(#paint0_linear_3071_5771)"/>
<path opacity="0.2" d="M32.8801 19.9209V23.7609C32.8801 24.0155 32.7789 24.2597 32.5989 24.4398C32.4189 24.6198 32.1747 24.7209 31.9201 24.7209H28.0801C27.8255 24.7209 27.5813 24.6198 27.4012 24.4398C27.2212 24.2597 27.1201 24.0155 27.1201 23.7609V19.9209C27.1201 19.6663 27.2212 19.4222 27.4012 19.2421C27.5813 19.0621 27.8255 18.9609 28.0801 18.9609H31.9201C32.1747 18.9609 32.4189 19.0621 32.5989 19.2421C32.7789 19.4222 32.8801 19.6663 32.8801 19.9209ZM24.2401 35.2809H20.4001C20.1455 35.2809 19.9013 35.3821 19.7212 35.5621C19.5412 35.7421 19.4401 35.9863 19.4401 36.2409V40.0809C19.4401 40.3355 19.5412 40.5797 19.7212 40.7598C19.9013 40.9398 20.1455 41.0409 20.4001 41.0409H24.2401C24.4947 41.0409 24.7389 40.9398 24.9189 40.7598C25.0989 40.5797 25.2001 40.3355 25.2001 40.0809V36.2409C25.2001 35.9863 25.0989 35.7421 24.9189 35.5621C24.7389 35.3821 24.4947 35.2809 24.2401 35.2809ZM39.6001 35.2809H35.7601C35.5055 35.2809 35.2613 35.3821 35.0812 35.5621C34.9012 35.7421 34.8001 35.9863 34.8001 36.2409V40.0809C34.8001 40.3355 34.9012 40.5797 35.0812 40.7598C35.2613 40.9398 35.5055 41.0409 35.7601 41.0409H39.6001C39.8547 41.0409 40.0989 40.9398 40.2789 40.7598C40.4589 40.5797 40.5601 40.3355 40.5601 40.0809V36.2409C40.5601 35.9863 40.4589 35.7421 40.2789 35.5621C40.0989 35.3821 39.8547 35.2809 39.6001 35.2809Z" fill="#140533"/>
<path d="M42.4801 28.56H30.9601V25.68H31.9201C32.4293 25.68 32.9176 25.4777 33.2777 25.1176C33.6378 24.7576 33.8401 24.2692 33.8401 23.76V19.92C33.8401 19.4108 33.6378 18.9224 33.2777 18.5624C32.9176 18.2023 32.4293 18 31.9201 18H28.0801C27.5708 18 27.0825 18.2023 26.7224 18.5624C26.3623 18.9224 26.1601 19.4108 26.1601 19.92V23.76C26.1601 24.2692 26.3623 24.7576 26.7224 25.1176C27.0825 25.4777 27.5708 25.68 28.0801 25.68H29.0401V28.56H17.5201C17.2655 28.56 17.0213 28.6611 16.8412 28.8412C16.6612 29.0212 16.5601 29.2654 16.5601 29.52C16.5601 29.7746 16.6612 30.0188 16.8412 30.1988C17.0213 30.3789 17.2655 30.48 17.5201 30.48H21.3601V34.32H20.4001C19.8908 34.32 19.4025 34.5223 19.0424 34.8824C18.6823 35.2424 18.4801 35.7308 18.4801 36.24V40.08C18.4801 40.5892 18.6823 41.0776 19.0424 41.4376C19.4025 41.7977 19.8908 42 20.4001 42H24.2401C24.7493 42 25.2376 41.7977 25.5977 41.4376C25.9578 41.0776 26.1601 40.5892 26.1601 40.08V36.24C26.1601 35.7308 25.9578 35.2424 25.5977 34.8824C25.2376 34.5223 24.7493 34.32 24.2401 34.32H23.2801V30.48H36.7201V34.32H35.7601C35.2508 34.32 34.7625 34.5223 34.4024 34.8824C34.0423 35.2424 33.8401 35.7308 33.8401 36.24V40.08C33.8401 40.5892 34.0423 41.0776 34.4024 41.4376C34.7625 41.7977 35.2508 42 35.7601 42H39.6001C40.1093 42 40.5976 41.7977 40.9577 41.4376C41.3178 41.0776 41.5201 40.5892 41.5201 40.08V36.24C41.5201 35.7308 41.3178 35.2424 40.9577 34.8824C40.5976 34.5223 40.1093 34.32 39.6001 34.32H38.6401V30.48H42.4801C42.7347 30.48 42.9788 30.3789 43.1589 30.1988C43.3389 30.0188 43.4401 29.7746 43.4401 29.52C43.4401 29.2654 43.3389 29.0212 43.1589 28.8412C42.9788 28.6611 42.7347 28.56 42.4801 28.56ZM28.0801 19.92H31.9201V23.76H28.0801V19.92ZM24.2401 40.08H20.4001V36.24H24.2401V40.08ZM39.6001 40.08H35.7601V36.24H39.6001V40.08Z" fill="#140533"/>
</g>
<defs>
<filter id="filter0_i_3071_5771" x="0" y="0" width="60" height="60" filterUnits="userSpaceOnUse" color-interpolation-filters="sRGB">
<feFlood flood-opacity="0" result="BackgroundImageFix"/>
<feBlend mode="normal" in="SourceGraphic" in2="BackgroundImageFix" result="shape"/>
<feColorMatrix in="SourceAlpha" type="matrix" values="0 0 0 0 0 0 0 0 0 0 0 0 0 0 0 0 0 0 127 0" result="hardAlpha"/>
<feOffset/>
<feGaussianBlur stdDeviation="6"/>
<feComposite in2="hardAlpha" operator="arithmetic" k2="-1" k3="1"/>
<feColorMatrix type="matrix" values="0 0 0 0 0.988235 0 0 0 0 0.941176 0 0 0 0 0.890196 0 0 0 0.45 0"/>
<feBlend mode="normal" in2="shape" result="effect1_innerShadow_3071_5771"/>
</filter>
<linearGradient id="paint0_linear_3071_5771" x1="0" y1="0" x2="60" y2="60" gradientUnits="userSpaceOnUse">
<stop stop-color="#F4EDFF"/>
<stop offset="1" stop-color="#FCEBEF"/>
</linearGradient>
</defs>
</svg>
