<svg width="17" height="16" viewBox="0 0 17 16" fill="none" xmlns="http://www.w3.org/2000/svg">
<path d="M15 3H11.875V2.375C11.875 1.87772 11.6775 1.40081 11.3258 1.04917C10.9742 0.697544 10.4973 0.5 10 0.5H6.25C5.75272 0.5 5.27581 0.697544 4.92417 1.04917C4.57254 1.40081 4.375 1.87772 4.375 2.375V3H1.25C0.918479 3 0.600537 3.1317 0.366116 3.36612C0.131696 3.60054 0 3.91848 0 4.25V14.25C0 14.5815 0.131696 14.8995 0.366116 15.1339C0.600537 15.3683 0.918479 15.5 1.25 15.5H15C15.3315 15.5 15.6495 15.3683 15.8839 15.1339C16.1183 14.8995 16.25 14.5815 16.25 14.25V4.25C16.25 3.91848 16.1183 3.60054 15.8839 3.36612C15.6495 3.1317 15.3315 3 15 3ZM5.625 2.375C5.625 2.20924 5.69085 2.05027 5.80806 1.93306C5.92527 1.81585 6.08424 1.75 6.25 1.75H10C10.1658 1.75 10.3247 1.81585 10.4419 1.93306C10.5592 2.05027 10.625 2.20924 10.625 2.375V3H5.625V2.375ZM15 4.25V7.50078C12.8905 8.64904 10.5268 9.25043 8.125 9.25C5.72328 9.25044 3.35971 8.64934 1.25 7.50156V4.25H15ZM15 14.25H1.25V8.90938C3.39057 9.9564 5.74208 10.5005 8.125 10.5C10.508 10.5001 12.8594 9.95574 15 8.90859V14.25ZM6.25 7.375C6.25 7.20924 6.31585 7.05027 6.43306 6.93306C6.55027 6.81585 6.70924 6.75 6.875 6.75H9.375C9.54076 6.75 9.69973 6.81585 9.81694 6.93306C9.93415 7.05027 10 7.20924 10 7.375C10 7.54076 9.93415 7.69973 9.81694 7.81694C9.69973 7.93415 9.54076 8 9.375 8H6.875C6.70924 8 6.55027 7.93415 6.43306 7.81694C6.31585 7.69973 6.25 7.54076 6.25 7.375Z" fill="#140533"/>
</svg>
