<svg width="60" height="60" viewBox="0 0 60 60" fill="none" xmlns="http://www.w3.org/2000/svg">
<g filter="url(#filter0_i_3071_5093)">
<rect width="60" height="60" rx="30" fill="url(#paint0_linear_3071_5093)"/>
<path opacity="0.2" d="M40.2855 23.716V27.1445H20.5384C20.2985 27.1445 20.0647 27.22 19.8701 27.3602C19.6755 27.5005 19.53 27.6984 19.4541 27.926L15.1427 40.8588V20.2874C15.1427 19.9843 15.2631 19.6936 15.4774 19.4793C15.6917 19.2649 15.9824 19.1445 16.2855 19.1445H23.9041C24.1514 19.1445 24.392 19.2247 24.5898 19.3731L28.857 22.5731H39.1427C39.4458 22.5731 39.7365 22.6935 39.9508 22.9078C40.1651 23.1222 40.2855 23.4129 40.2855 23.716Z" fill="#140533"/>
<path d="M45.5712 26.9486C45.3591 26.6545 45.0801 26.4151 44.7572 26.2502C44.4342 26.0852 44.0767 25.9995 43.7141 26H41.4284V23.7143C41.4284 23.1081 41.1876 22.5267 40.7589 22.098C40.3303 21.6694 39.7489 21.4286 39.1427 21.4286H29.2384L25.277 18.4571C24.8806 18.1617 24.3999 18.0014 23.9055 18H16.2855C15.6793 18 15.0979 18.2408 14.6693 18.6695C14.2406 19.0981 13.9998 19.6795 13.9998 20.2857V40.8571C13.9998 41.1602 14.1202 41.4509 14.3346 41.6653C14.5489 41.8796 14.8396 42 15.1427 42H40.7284C40.9683 42 41.2021 41.9246 41.3967 41.7843C41.5913 41.6441 41.7368 41.4461 41.8127 41.2186L45.8827 29.0086C45.9971 28.665 46.0286 28.2992 45.9744 27.9412C45.9203 27.5831 45.7821 27.243 45.5712 26.9486ZM23.9055 20.2857L28.1712 23.4857C28.3691 23.6341 28.6097 23.7143 28.857 23.7143H39.1427V26H20.5384C20.0586 26 19.591 26.1509 19.2018 26.4314C18.8126 26.7119 18.5215 27.1077 18.3698 27.5629L16.2855 33.8143V20.2857H23.9055ZM39.9055 39.7143H16.7284L20.5384 28.2857H43.7141L39.9055 39.7143Z" fill="#140533"/>
</g>
<defs>
<filter id="filter0_i_3071_5093" x="0" y="0" width="60" height="60" filterUnits="userSpaceOnUse" color-interpolation-filters="sRGB">
<feFlood flood-opacity="0" result="BackgroundImageFix"/>
<feBlend mode="normal" in="SourceGraphic" in2="BackgroundImageFix" result="shape"/>
<feColorMatrix in="SourceAlpha" type="matrix" values="0 0 0 0 0 0 0 0 0 0 0 0 0 0 0 0 0 0 127 0" result="hardAlpha"/>
<feOffset/>
<feGaussianBlur stdDeviation="6"/>
<feComposite in2="hardAlpha" operator="arithmetic" k2="-1" k3="1"/>
<feColorMatrix type="matrix" values="0 0 0 0 0.988235 0 0 0 0 0.941176 0 0 0 0 0.890196 0 0 0 0.45 0"/>
<feBlend mode="normal" in2="shape" result="effect1_innerShadow_3071_5093"/>
</filter>
<linearGradient id="paint0_linear_3071_5093" x1="0" y1="0" x2="60" y2="60" gradientUnits="userSpaceOnUse">
<stop stop-color="#F4EDFF"/>
<stop offset="1" stop-color="#FCEBEF"/>
</linearGradient>
</defs>
</svg>
