<svg width="11" height="18" viewBox="0 0 11 18" fill="none" xmlns="http://www.w3.org/2000/svg">
<path d="M9.16667 0.445312H1.83333C1.3471 0.445313 0.880788 0.638467 0.536971 0.982283C0.193154 1.3261 0 1.79242 0 2.27865V15.7231C0 16.2093 0.193154 16.6756 0.536971 17.0195C0.880788 17.3633 1.3471 17.5564 1.83333 17.5564H9.16667C9.6529 17.5564 10.1192 17.3633 10.463 17.0195C10.8068 16.6756 11 16.2093 11 15.7231V2.27865C11 1.79242 10.8068 1.3261 10.463 0.982283C10.1192 0.638467 9.6529 0.445313 9.16667 0.445312ZM1.22222 4.11198H9.77778V13.8898H1.22222V4.11198ZM1.83333 1.66753H9.16667C9.32874 1.66753 9.48418 1.73192 9.59879 1.84653C9.71339 1.96113 9.77778 2.11657 9.77778 2.27865V2.88976H1.22222V2.27865C1.22222 2.11657 1.28661 1.96113 1.40121 1.84653C1.51582 1.73192 1.67126 1.66753 1.83333 1.66753ZM9.16667 16.3342H1.83333C1.67126 16.3342 1.51582 16.2698 1.40121 16.1552C1.28661 16.0406 1.22222 15.8852 1.22222 15.7231V15.112H9.77778V15.7231C9.77778 15.8852 9.71339 16.0406 9.59879 16.1552C9.48418 16.2698 9.32874 16.3342 9.16667 16.3342Z" fill="#140533"/>
</svg>
