<svg width="20" height="16" viewBox="0 0 20 16" fill="none" xmlns="http://www.w3.org/2000/svg">
<path d="M18.125 2.375H16.25V1.125C16.25 0.95924 16.1842 0.800269 16.0669 0.683058C15.9497 0.565848 15.7908 0.5 15.625 0.5H4.375C4.20924 0.5 4.05027 0.565848 3.93306 0.683058C3.81585 0.800269 3.75 0.95924 3.75 1.125V2.375H1.875C1.54348 2.375 1.22554 2.5067 0.991117 2.74112C0.756696 2.97554 0.625 3.29348 0.625 3.625V4.875C0.625 5.7038 0.95424 6.49866 1.54029 7.08471C1.83047 7.37489 2.17497 7.60508 2.55411 7.76212C2.93326 7.91917 3.33962 8 3.75 8H4.03516C4.40332 9.16673 5.10529 10.2 6.0543 10.9721C7.00331 11.7443 8.15777 12.2214 9.375 12.3445V14.25H7.5C7.33424 14.25 7.17527 14.3158 7.05806 14.4331C6.94085 14.5503 6.875 14.7092 6.875 14.875C6.875 15.0408 6.94085 15.1997 7.05806 15.3169C7.17527 15.4342 7.33424 15.5 7.5 15.5H12.5C12.6658 15.5 12.8247 15.4342 12.9419 15.3169C13.0592 15.1997 13.125 15.0408 13.125 14.875C13.125 14.7092 13.0592 14.5503 12.9419 14.4331C12.8247 14.3158 12.6658 14.25 12.5 14.25H10.625V12.3422C13.1203 12.0898 15.1906 10.3391 15.9438 8H16.25C17.0788 8 17.8737 7.67076 18.4597 7.08471C19.0458 6.49866 19.375 5.7038 19.375 4.875V3.625C19.375 3.29348 19.2433 2.97554 19.0089 2.74112C18.7745 2.5067 18.4565 2.375 18.125 2.375ZM3.75 6.75C3.25272 6.75 2.77581 6.55246 2.42417 6.20083C2.07254 5.84919 1.875 5.37228 1.875 4.875V3.625H3.75V6.125C3.75 6.33333 3.76016 6.54167 3.78047 6.75H3.75ZM15 6.05469C15 8.82969 12.7344 11.1047 10 11.125C8.67392 11.125 7.40215 10.5982 6.46447 9.66053C5.52678 8.72285 5 7.45108 5 6.125V1.75H15V6.05469ZM18.125 4.875C18.125 5.37228 17.9275 5.84919 17.5758 6.20083C17.2242 6.55246 16.7473 6.75 16.25 6.75H16.2109C16.2366 6.51911 16.2496 6.287 16.25 6.05469V3.625H18.125V4.875Z" fill="#140533"/>
</svg>
