<svg width="15" height="18" viewBox="0 0 15 18" fill="none" xmlns="http://www.w3.org/2000/svg">
<path d="M7.5 2.75C6.01664 2.75 4.56659 3.18987 3.33323 4.01398C2.09986 4.83809 1.13856 6.00943 0.570907 7.37987C0.00324964 8.75032 -0.145275 10.2583 0.144114 11.7132C0.433503 13.168 1.14781 14.5044 2.1967 15.5533C3.2456 16.6022 4.58197 17.3165 6.03683 17.6059C7.49168 17.8953 8.99968 17.7467 10.3701 17.1791C11.7406 16.6114 12.9119 15.6501 13.736 14.4168C14.5601 13.1834 15 11.7334 15 10.25C14.9977 8.26157 14.2068 6.35524 12.8008 4.94921C11.3948 3.54318 9.48843 2.75227 7.5 2.75ZM7.5 16.5C6.26387 16.5 5.0555 16.1334 4.02769 15.4467C2.99988 14.7599 2.1988 13.7838 1.72576 12.6418C1.25271 11.4997 1.12894 10.2431 1.3701 9.03068C1.61125 7.8183 2.20651 6.70466 3.08059 5.83058C3.95466 4.9565 5.06831 4.36125 6.28069 4.12009C7.49307 3.87893 8.74973 4.0027 9.89177 4.47575C11.0338 4.9488 12.0099 5.74988 12.6967 6.77768C13.3834 7.80549 13.75 9.01386 13.75 10.25C13.7481 11.907 13.0891 13.4957 11.9174 14.6674C10.7457 15.8391 9.15703 16.4981 7.5 16.5ZM11.0672 6.68281C11.1253 6.74086 11.1714 6.80979 11.2029 6.88566C11.2343 6.96153 11.2505 7.04286 11.2505 7.125C11.2505 7.20713 11.2343 7.28846 11.2029 7.36434C11.1714 7.44021 11.1253 7.50914 11.0672 7.56719L7.94219 10.6922C7.88412 10.7503 7.81518 10.7963 7.73931 10.8277C7.66344 10.8592 7.58212 10.8753 7.5 10.8753C7.41788 10.8753 7.33656 10.8592 7.26069 10.8277C7.18482 10.7963 7.11588 10.7503 7.05781 10.6922C6.99975 10.6341 6.95368 10.5652 6.92226 10.4893C6.89083 10.4134 6.87465 10.3321 6.87465 10.25C6.87465 10.1679 6.89083 10.0866 6.92226 10.0107C6.95368 9.93482 6.99975 9.86588 7.05781 9.80781L10.1828 6.68281C10.2409 6.6247 10.3098 6.5786 10.3857 6.54715C10.4615 6.5157 10.5429 6.49951 10.625 6.49951C10.7071 6.49951 10.7885 6.5157 10.8643 6.54715C10.9402 6.5786 11.0091 6.6247 11.0672 6.68281ZM5 0.875C5 0.70924 5.06585 0.550268 5.18306 0.433058C5.30027 0.315848 5.45924 0.25 5.625 0.25H9.375C9.54076 0.25 9.69973 0.315848 9.81694 0.433058C9.93415 0.550268 10 0.70924 10 0.875C10 1.04076 9.93415 1.19973 9.81694 1.31694C9.69973 1.43415 9.54076 1.5 9.375 1.5H5.625C5.45924 1.5 5.30027 1.43415 5.18306 1.31694C5.06585 1.19973 5 1.04076 5 0.875Z" fill="#140533"/>
</svg>
