<svg width="16" height="18" viewBox="0 0 16 18" fill="none" xmlns="http://www.w3.org/2000/svg">
<path d="M13.6838 2.74127C12.9476 1.99771 12.0721 1.40667 11.1072 1.00197C10.1423 0.597271 9.10705 0.38687 8.06074 0.382812H7.99997C5.87825 0.382813 3.84342 1.22566 2.34314 2.72595C0.842852 4.22623 0 6.26106 0 8.38278V12.6905C0 13.1801 0.194504 13.6497 0.540724 13.9959C0.886944 14.3421 1.35652 14.5366 1.84615 14.5366H3.07691C3.56654 14.5366 4.03612 14.3421 4.38234 13.9959C4.72856 13.6497 4.92306 13.1801 4.92306 12.6905V9.61355C4.92306 9.12392 4.72856 8.65434 4.38234 8.30812C4.03612 7.9619 3.56654 7.7674 3.07691 7.7674H1.25846C1.37714 6.48428 1.8591 5.26157 2.64786 4.24257C3.43661 3.22358 4.49949 2.45052 5.7119 2.01401C6.92431 1.5775 8.23603 1.49562 9.49332 1.77797C10.7506 2.06031 11.9014 2.69519 12.8107 3.60819C13.9222 4.72534 14.6058 6.19745 14.7423 7.7674H12.923C12.4334 7.7674 11.9638 7.9619 11.6176 8.30812C11.2714 8.65434 11.0769 9.12392 11.0769 9.61355V12.6905C11.0769 13.1801 11.2714 13.6497 11.6176 13.9959C11.9638 14.3421 12.4334 14.5366 12.923 14.5366H14.7692C14.7692 15.0262 14.5747 15.4958 14.2285 15.842C13.8822 16.1882 13.4127 16.3828 12.923 16.3828H8.61535C8.45214 16.3828 8.29562 16.4476 8.18021 16.563C8.06481 16.6784 7.99997 16.8349 7.99997 16.9981C7.99997 17.1613 8.06481 17.3179 8.18021 17.4333C8.29562 17.5487 8.45214 17.6135 8.61535 17.6135H12.923C13.7391 17.6135 14.5217 17.2893 15.0987 16.7123C15.6758 16.1353 15.9999 15.3527 15.9999 14.5366V8.38278C16.0039 7.33631 15.8014 6.29932 15.404 5.33125C15.0065 4.36317 14.422 3.48304 13.6838 2.74127ZM3.07691 8.99817C3.24012 8.99817 3.39665 9.063 3.51205 9.17841C3.62746 9.29381 3.69229 9.45034 3.69229 9.61355V12.6905C3.69229 12.8537 3.62746 13.0102 3.51205 13.1256C3.39665 13.241 3.24012 13.3058 3.07691 13.3058H1.84615C1.68294 13.3058 1.52641 13.241 1.41101 13.1256C1.2956 13.0102 1.23076 12.8537 1.23076 12.6905V8.99817H3.07691ZM12.923 13.3058C12.7598 13.3058 12.6033 13.241 12.4879 13.1256C12.3725 13.0102 12.3076 12.8537 12.3076 12.6905V9.61355C12.3076 9.45034 12.3725 9.29381 12.4879 9.17841C12.6033 9.063 12.7598 8.99817 12.923 8.99817H14.7692V13.3058H12.923Z" fill="#140533"/>
</svg>
