<svg width="60" height="60" viewBox="0 0 60 60" fill="none" xmlns="http://www.w3.org/2000/svg">
<g filter="url(#filter0_i_3071_5791)">
<rect width="60" height="60" rx="30" fill="url(#paint0_linear_3071_5791)"/>
<path opacity="0.2" d="M29.9998 22.8341L23.1018 27.6096L16.2039 22.8341L23.1018 18.0586L29.9998 22.8341ZM43.7957 22.8341L36.8978 18.0586L29.9998 22.8341L36.8978 27.6096L43.7957 22.8341ZM16.2039 32.3851L23.1018 37.1606L29.9998 32.3851L23.1018 27.6096L16.2039 32.3851ZM29.9998 32.3851L36.8978 37.1606L43.7957 32.3851L36.8978 27.6096L29.9998 32.3851Z" fill="#140533"/>
<path d="M44.3995 31.5149L38.7617 27.6122L44.3995 23.7096C44.5406 23.612 44.656 23.4815 44.7358 23.3295C44.8155 23.1775 44.8571 23.0084 44.8571 22.8367C44.8571 22.6651 44.8155 22.496 44.7358 22.344C44.656 22.1919 44.5406 22.0615 44.3995 21.9639L37.5015 17.1884C37.3241 17.0657 37.1136 17 36.8979 17C36.6823 17 36.4717 17.0657 36.2944 17.1884L30 21.546L23.7056 17.1884C23.5282 17.0657 23.3177 17 23.102 17C22.8863 17 22.6758 17.0657 22.4984 17.1884L15.6005 21.9639C15.4593 22.0615 15.3439 22.1919 15.2642 22.344C15.1845 22.496 15.1428 22.6651 15.1428 22.8367C15.1428 23.0084 15.1845 23.1775 15.2642 23.3295C15.3439 23.4815 15.4593 23.612 15.6005 23.7096L21.2449 27.6122L15.6071 31.5149C15.4659 31.6125 15.3505 31.743 15.2708 31.895C15.1911 32.047 15.1495 32.2161 15.1495 32.3878C15.1495 32.5594 15.1911 32.7285 15.2708 32.8805C15.3505 33.0326 15.4659 33.163 15.6071 33.2606L22.5051 38.0361C22.6824 38.1588 22.893 38.2245 23.1086 38.2245C23.3243 38.2245 23.5348 38.1588 23.7122 38.0361L30 33.6785L36.2944 38.0361C36.4717 38.1588 36.6823 38.2245 36.8979 38.2245C37.1136 38.2245 37.3241 38.1588 37.5015 38.0361L44.3995 33.2606C44.5406 33.163 44.656 33.0326 44.7358 32.8805C44.8155 32.7285 44.8571 32.5594 44.8571 32.3878C44.8571 32.2161 44.8155 32.047 44.7358 31.895C44.656 31.743 44.5406 31.6125 44.3995 31.5149ZM36.8979 19.3519L41.9387 22.8367L36.8979 26.3215L31.8637 22.8367L36.8979 19.3519ZM18.0678 22.8367L23.102 19.3519L28.1428 22.8367L23.102 26.3215L18.0678 22.8367ZM23.1086 35.8726L18.0678 32.3878L23.1086 28.903L28.1428 32.3878L23.1086 35.8726ZM24.9658 27.6122L30.0066 24.1274L35.0408 27.6122L30 31.097L24.9658 27.6122ZM36.9046 35.8726L31.8637 32.3878L36.8979 28.903L41.9387 32.3878L36.9046 35.8726ZM34.0485 39.1411C34.209 39.3721 34.2712 39.6574 34.2215 39.9343C34.1717 40.2111 34.0141 40.4569 33.7832 40.6176L30.6141 42.8116C30.4368 42.9343 30.2262 43 30.0106 43C29.7949 43 29.5844 42.9343 29.407 42.8116L26.2273 40.6123C25.9971 40.4517 25.8399 40.2064 25.7901 39.9301C25.7403 39.6539 25.802 39.3692 25.9616 39.1383C26.1213 38.9074 26.3659 38.7492 26.6419 38.6983C26.9179 38.6474 27.2029 38.7078 27.4344 38.8665L30 40.6481L32.5655 38.8718C32.797 38.7118 33.0826 38.6502 33.3595 38.7007C33.6363 38.7512 33.8818 38.9096 34.0419 39.1411H34.0485Z" fill="#140533"/>
</g>
<defs>
<filter id="filter0_i_3071_5791" x="0" y="0" width="60" height="60" filterUnits="userSpaceOnUse" color-interpolation-filters="sRGB">
<feFlood flood-opacity="0" result="BackgroundImageFix"/>
<feBlend mode="normal" in="SourceGraphic" in2="BackgroundImageFix" result="shape"/>
<feColorMatrix in="SourceAlpha" type="matrix" values="0 0 0 0 0 0 0 0 0 0 0 0 0 0 0 0 0 0 127 0" result="hardAlpha"/>
<feOffset/>
<feGaussianBlur stdDeviation="6"/>
<feComposite in2="hardAlpha" operator="arithmetic" k2="-1" k3="1"/>
<feColorMatrix type="matrix" values="0 0 0 0 0.988235 0 0 0 0 0.941176 0 0 0 0 0.890196 0 0 0 0.45 0"/>
<feBlend mode="normal" in2="shape" result="effect1_innerShadow_3071_5791"/>
</filter>
<linearGradient id="paint0_linear_3071_5791" x1="0" y1="0" x2="60" y2="60" gradientUnits="userSpaceOnUse">
<stop stop-color="#F4EDFF"/>
<stop offset="1" stop-color="#FCEBEF"/>
</linearGradient>
</defs>
</svg>
