<svg width="60" height="60" viewBox="0 0 60 60" fill="none" xmlns="http://www.w3.org/2000/svg">
<g filter="url(#filter0_i_3071_5781)">
<rect width="60" height="60" rx="30" fill="url(#paint0_linear_3071_5781)"/>
<path opacity="0.2" d="M34.2858 29.9967C34.2858 30.8443 34.0344 31.6729 33.5635 32.3777C33.0926 33.0824 32.4233 33.6318 31.6401 33.9561C30.857 34.2805 29.9953 34.3654 29.164 34.2C28.3326 34.0347 27.569 33.6265 26.9696 33.0271C26.3702 32.4277 25.9621 31.6641 25.7967 30.8328C25.6313 30.0014 25.7162 29.1397 26.0406 28.3566C26.365 27.5735 26.9143 26.9041 27.6191 26.4332C28.3238 25.9623 29.1524 25.7109 30.0001 25.7109C31.1367 25.7109 32.2268 26.1625 33.0305 26.9662C33.8343 27.7699 34.2858 28.86 34.2858 29.9967Z" fill="#140533"/>
<path d="M43.9286 28.9286H42.8116C42.5545 25.901 41.235 23.062 39.0865 20.9135C36.938 18.765 34.099 17.4455 31.0714 17.1884V16.0714C31.0714 15.7873 30.9585 15.5147 30.7576 15.3138C30.5567 15.1129 30.2842 15 30 15C29.7158 15 29.4433 15.1129 29.2424 15.3138C29.0415 15.5147 28.9286 15.7873 28.9286 16.0714V17.1884C25.901 17.4455 23.062 18.765 20.9135 20.9135C18.765 23.062 17.4455 25.901 17.1884 28.9286H16.0714C15.7873 28.9286 15.5147 29.0415 15.3138 29.2424C15.1129 29.4433 15 29.7158 15 30C15 30.2842 15.1129 30.5567 15.3138 30.7576C15.5147 30.9585 15.7873 31.0714 16.0714 31.0714H17.1884C17.4455 34.099 18.765 36.938 20.9135 39.0865C23.062 41.235 25.901 42.5545 28.9286 42.8116V43.9286C28.9286 44.2127 29.0415 44.4853 29.2424 44.6862C29.4433 44.8871 29.7158 45 30 45C30.2842 45 30.5567 44.8871 30.7576 44.6862C30.9585 44.4853 31.0714 44.2127 31.0714 43.9286V42.8116C34.099 42.5545 36.938 41.235 39.0865 39.0865C41.235 36.938 42.5545 34.099 42.8116 31.0714H43.9286C44.2127 31.0714 44.4853 30.9585 44.6862 30.7576C44.8871 30.5567 45 30.2842 45 30C45 29.7158 44.8871 29.4433 44.6862 29.2424C44.4853 29.0415 44.2127 28.9286 43.9286 28.9286ZM31.0714 40.6607V39.6429C31.0714 39.3587 30.9585 39.0862 30.7576 38.8852C30.5567 38.6843 30.2842 38.5714 30 38.5714C29.7158 38.5714 29.4433 38.6843 29.2424 38.8852C29.0415 39.0862 28.9286 39.3587 28.9286 39.6429V40.6607C26.4708 40.4099 24.1748 39.3191 22.4279 37.5721C20.6809 35.8252 19.5901 33.5292 19.3393 31.0714H20.3571C20.6413 31.0714 20.9138 30.9585 21.1148 30.7576C21.3157 30.5567 21.4286 30.2842 21.4286 30C21.4286 29.7158 21.3157 29.4433 21.1148 29.2424C20.9138 29.0415 20.6413 28.9286 20.3571 28.9286H19.3393C19.5901 26.4708 20.6809 24.1748 22.4279 22.4279C24.1748 20.6809 26.4708 19.5901 28.9286 19.3393V20.3571C28.9286 20.6413 29.0415 20.9138 29.2424 21.1148C29.4433 21.3157 29.7158 21.4286 30 21.4286C30.2842 21.4286 30.5567 21.3157 30.7576 21.1148C30.9585 20.9138 31.0714 20.6413 31.0714 20.3571V19.3393C33.5292 19.5901 35.8252 20.6809 37.5721 22.4279C39.3191 24.1748 40.4099 26.4708 40.6607 28.9286H39.6429C39.3587 28.9286 39.0862 29.0415 38.8852 29.2424C38.6843 29.4433 38.5714 29.7158 38.5714 30C38.5714 30.2842 38.6843 30.5567 38.8852 30.7576C39.0862 30.9585 39.3587 31.0714 39.6429 31.0714H40.6607C40.4099 33.5292 39.3191 35.8252 37.5721 37.5721C35.8252 39.3191 33.5292 40.4099 31.0714 40.6607ZM30 24.6429C28.9405 24.6429 27.9047 24.957 27.0237 25.5457C26.1428 26.1343 25.4561 26.971 25.0506 27.9499C24.6452 28.9288 24.5391 30.0059 24.7458 31.0451C24.9525 32.0843 25.4627 33.0389 26.2119 33.7881C26.9611 34.5373 27.9157 35.0475 28.9549 35.2542C29.9941 35.4609 31.0712 35.3548 32.0501 34.9494C33.029 34.5439 33.8657 33.8572 34.4543 32.9763C35.043 32.0953 35.3571 31.0595 35.3571 30C35.3571 28.5792 34.7927 27.2166 33.7881 26.2119C32.7834 25.2073 31.4208 24.6429 30 24.6429ZM30 33.2143C29.3643 33.2143 28.7428 33.0258 28.2142 32.6726C27.6857 32.3194 27.2737 31.8174 27.0304 31.2301C26.7871 30.6427 26.7235 29.9964 26.8475 29.3729C26.9715 28.7494 27.2776 28.1767 27.7272 27.7272C28.1767 27.2776 28.7494 26.9715 29.3729 26.8475C29.9964 26.7235 30.6427 26.7871 31.2301 27.0304C31.8174 27.2737 32.3194 27.6857 32.6726 28.2142C33.0258 28.7428 33.2143 29.3643 33.2143 30C33.2143 30.8525 32.8756 31.67 32.2728 32.2728C31.67 32.8756 30.8525 33.2143 30 33.2143Z" fill="#140533"/>
</g>
<defs>
<filter id="filter0_i_3071_5781" x="0" y="0" width="60" height="60" filterUnits="userSpaceOnUse" color-interpolation-filters="sRGB">
<feFlood flood-opacity="0" result="BackgroundImageFix"/>
<feBlend mode="normal" in="SourceGraphic" in2="BackgroundImageFix" result="shape"/>
<feColorMatrix in="SourceAlpha" type="matrix" values="0 0 0 0 0 0 0 0 0 0 0 0 0 0 0 0 0 0 127 0" result="hardAlpha"/>
<feOffset/>
<feGaussianBlur stdDeviation="6"/>
<feComposite in2="hardAlpha" operator="arithmetic" k2="-1" k3="1"/>
<feColorMatrix type="matrix" values="0 0 0 0 0.988235 0 0 0 0 0.941176 0 0 0 0 0.890196 0 0 0 0.45 0"/>
<feBlend mode="normal" in2="shape" result="effect1_innerShadow_3071_5781"/>
</filter>
<linearGradient id="paint0_linear_3071_5781" x1="0" y1="0" x2="60" y2="60" gradientUnits="userSpaceOnUse">
<stop stop-color="#F4EDFF"/>
<stop offset="1" stop-color="#FCEBEF"/>
</linearGradient>
</defs>
</svg>
