<svg width="15" height="16" viewBox="0 0 15 16" fill="none" xmlns="http://www.w3.org/2000/svg">
<path d="M5.45455 0.5H1.36364C1.00198 0.5 0.655131 0.643668 0.3994 0.8994C0.143668 1.15513 0 1.50198 0 1.86364V5.95455C0 6.3162 0.143668 6.66305 0.3994 6.91878C0.655131 7.17451 1.00198 7.31818 1.36364 7.31818H5.45455C5.8162 7.31818 6.16305 7.17451 6.41878 6.91878C6.67451 6.66305 6.81818 6.3162 6.81818 5.95455V1.86364C6.81818 1.50198 6.67451 1.15513 6.41878 0.8994C6.16305 0.643668 5.8162 0.5 5.45455 0.5ZM5.45455 5.95455H1.36364V1.86364H5.45455V5.95455ZM13.6364 0.5H9.54545C9.1838 0.5 8.83695 0.643668 8.58122 0.8994C8.32549 1.15513 8.18182 1.50198 8.18182 1.86364V5.95455C8.18182 6.3162 8.32549 6.66305 8.58122 6.91878C8.83695 7.17451 9.1838 7.31818 9.54545 7.31818H13.6364C13.998 7.31818 14.3449 7.17451 14.6006 6.91878C14.8563 6.66305 15 6.3162 15 5.95455V1.86364C15 1.50198 14.8563 1.15513 14.6006 0.8994C14.3449 0.643668 13.998 0.5 13.6364 0.5ZM13.6364 5.95455H9.54545V1.86364H13.6364V5.95455ZM5.45455 8.68182H1.36364C1.00198 8.68182 0.655131 8.82549 0.3994 9.08122C0.143668 9.33695 0 9.6838 0 10.0455V14.1364C0 14.498 0.143668 14.8449 0.3994 15.1006C0.655131 15.3563 1.00198 15.5 1.36364 15.5H5.45455C5.8162 15.5 6.16305 15.3563 6.41878 15.1006C6.67451 14.8449 6.81818 14.498 6.81818 14.1364V10.0455C6.81818 9.6838 6.67451 9.33695 6.41878 9.08122C6.16305 8.82549 5.8162 8.68182 5.45455 8.68182ZM5.45455 14.1364H1.36364V10.0455H5.45455V14.1364ZM13.6364 8.68182H9.54545C9.1838 8.68182 8.83695 8.82549 8.58122 9.08122C8.32549 9.33695 8.18182 9.6838 8.18182 10.0455V14.1364C8.18182 14.498 8.32549 14.8449 8.58122 15.1006C8.83695 15.3563 9.1838 15.5 9.54545 15.5H13.6364C13.998 15.5 14.3449 15.3563 14.6006 15.1006C14.8563 14.8449 15 14.498 15 14.1364V10.0455C15 9.6838 14.8563 9.33695 14.6006 9.08122C14.3449 8.82549 13.998 8.68182 13.6364 8.68182ZM13.6364 14.1364H9.54545V10.0455H13.6364V14.1364Z" fill="#140533"/>
</svg>
