<svg width="60" height="60" viewBox="0 0 60 60" fill="none" xmlns="http://www.w3.org/2000/svg">
<g filter="url(#filter0_i_3071_6959)">
<rect width="60" height="60" rx="30" fill="url(#paint0_linear_3071_6959)"/>
<path opacity="0.2" d="M41.9525 36.5091C41.7505 38.0185 41.0072 39.4031 39.8608 40.4056C38.7145 41.408 37.243 41.9599 35.7202 41.9588C31.0311 41.9588 26.5341 40.096 23.2184 36.7804C19.9028 33.4647 18.04 28.9677 18.04 24.2786C18.0389 22.7558 18.5908 21.2843 19.5932 20.138C20.5957 18.9916 21.9803 18.2483 23.4897 18.0463C23.7128 18.0198 23.9385 18.0663 24.133 18.1788C24.3275 18.2913 24.4804 18.4637 24.5687 18.6703L27.3156 24.8064C27.3831 24.964 27.4106 25.1358 27.3956 25.3066C27.3807 25.4774 27.3237 25.6418 27.2298 25.7853L24.4517 29.0886C24.3532 29.2373 24.2949 29.4091 24.2826 29.587C24.2703 29.765 24.3044 29.9431 24.3815 30.1039C25.4566 32.3049 27.7316 34.5526 29.9391 35.6173C30.1008 35.6941 30.2797 35.7274 30.4582 35.714C30.6367 35.7005 30.8086 35.6408 30.957 35.5406L34.207 32.7716C34.351 32.6757 34.5167 32.6173 34.689 32.6017C34.8613 32.586 35.0348 32.6136 35.1937 32.6819L41.3246 35.4288C41.5321 35.5165 41.7056 35.6693 41.8188 35.8641C41.9321 36.059 41.979 36.2853 41.9525 36.5091Z" fill="#140533"/>
<path d="M32.6353 18.8107C32.6706 18.6787 32.7315 18.5549 32.8147 18.4465C32.8978 18.3381 33.0015 18.2471 33.1198 18.1788C33.2381 18.1105 33.3687 18.0661 33.5042 18.0483C33.6397 18.0304 33.7773 18.0395 33.9093 18.0748C35.8373 18.5779 37.5963 19.5858 39.0053 20.9947C40.4142 22.4037 41.4221 24.1627 41.9251 26.0907C41.9605 26.2227 41.9696 26.3603 41.9517 26.4958C41.9339 26.6313 41.8895 26.7619 41.8212 26.8802C41.7529 26.9985 41.6619 27.1022 41.5535 27.1853C41.4451 27.2685 41.3213 27.3294 41.1893 27.3647C41.1015 27.3878 41.0111 27.3996 40.9202 27.3998C40.6911 27.3998 40.4683 27.3241 40.2866 27.1845C40.1049 27.0448 39.9743 26.8491 39.9153 26.6276C39.5051 25.0537 38.6825 23.6177 37.5324 22.4676C36.3823 21.3175 34.9463 20.4949 33.3724 20.0847C33.2403 20.0495 33.1164 19.9886 33.0078 19.9056C32.8993 19.8225 32.8081 19.7188 32.7397 19.6005C32.6712 19.4822 32.6268 19.3515 32.6088 19.216C32.5909 19.0804 32.5999 18.9427 32.6353 18.8107ZM32.3324 24.2447C34.1251 24.7231 35.2769 25.8749 35.7553 27.6676C35.8143 27.8891 35.9448 28.0848 36.1265 28.2245C36.3083 28.3641 36.531 28.4398 36.7602 28.4398C36.851 28.4396 36.9415 28.4278 37.0293 28.4047C37.1613 28.3694 37.285 28.3085 37.3934 28.2253C37.5019 28.1422 37.5928 28.0385 37.6612 27.9202C37.7295 27.8019 37.7739 27.6713 37.7917 27.5358C37.8095 27.4003 37.8005 27.2627 37.7651 27.1307C37.0995 24.6399 35.3601 22.9005 32.8693 22.2349C32.6027 22.1637 32.3189 22.2013 32.0801 22.3394C31.8413 22.4775 31.6671 22.7048 31.5959 22.9713C31.5247 23.2379 31.5623 23.5217 31.7004 23.7606C31.8385 23.9994 32.0658 24.1735 32.3324 24.2447ZM42.9847 36.6403C42.7529 38.4019 41.8878 40.0188 40.5509 41.1892C39.2141 42.3595 37.4969 43.0032 35.7202 43C25.3981 43 17 34.6019 17 24.2798C16.9968 22.5031 17.6405 20.7859 18.8108 19.4491C19.9812 18.1122 21.5981 17.2471 23.3597 17.0153C23.8051 16.9609 24.2562 17.0521 24.6456 17.2751C25.035 17.4982 25.3419 17.8412 25.5203 18.2529L28.2659 24.3825V24.3981C28.4025 24.7133 28.459 25.0574 28.4301 25.3997C28.4013 25.7421 28.2882 26.0719 28.1008 26.3598C28.0774 26.3949 28.0527 26.4274 28.0267 26.4599L25.3201 29.6684C26.2938 31.647 28.3634 33.6984 30.368 34.6747L33.5323 31.9824C33.5633 31.9563 33.5959 31.932 33.6298 31.9096C33.9175 31.7177 34.2484 31.6006 34.5928 31.5688C34.9371 31.537 35.2839 31.5916 35.6019 31.7276L35.6188 31.7354L41.7431 34.4797C42.1556 34.6575 42.4995 34.9641 42.7233 35.3535C42.9471 35.743 43.0388 36.1944 42.9847 36.6403ZM40.9202 36.3803C40.9202 36.3803 40.9111 36.3803 40.9059 36.3803L34.7959 33.6438L31.6304 36.3361C31.5996 36.3621 31.5675 36.3864 31.5342 36.4089C31.2348 36.6086 30.8888 36.7272 30.5299 36.7532C30.1711 36.7792 29.8116 36.7116 29.4866 36.5571C27.0517 35.3806 24.6246 32.9717 23.4468 30.5628C23.2908 30.2402 23.2208 29.8828 23.2436 29.5252C23.2664 29.1676 23.3811 28.8219 23.5768 28.5217C23.5988 28.4865 23.6236 28.453 23.6509 28.4216L26.3601 25.2093L23.6301 19.0993C23.6296 19.0941 23.6296 19.0888 23.6301 19.0837C22.3694 19.2481 21.2119 19.8665 20.3743 20.823C19.5368 21.7794 19.0766 23.0085 19.08 24.2798C19.0848 28.6916 20.8396 32.9213 23.9591 36.0409C27.0787 39.1604 31.3084 40.9152 35.7202 40.92C36.9908 40.9243 38.2194 40.4658 39.1765 39.63C40.1335 38.7943 40.7534 37.6386 40.9202 36.379V36.3803Z" fill="#140533"/>
</g>
<defs>
<filter id="filter0_i_3071_6959" x="0" y="0" width="60" height="60" filterUnits="userSpaceOnUse" color-interpolation-filters="sRGB">
<feFlood flood-opacity="0" result="BackgroundImageFix"/>
<feBlend mode="normal" in="SourceGraphic" in2="BackgroundImageFix" result="shape"/>
<feColorMatrix in="SourceAlpha" type="matrix" values="0 0 0 0 0 0 0 0 0 0 0 0 0 0 0 0 0 0 127 0" result="hardAlpha"/>
<feOffset/>
<feGaussianBlur stdDeviation="6"/>
<feComposite in2="hardAlpha" operator="arithmetic" k2="-1" k3="1"/>
<feColorMatrix type="matrix" values="0 0 0 0 0.988235 0 0 0 0 0.941176 0 0 0 0 0.890196 0 0 0 0.45 0"/>
<feBlend mode="normal" in2="shape" result="effect1_innerShadow_3071_6959"/>
</filter>
<linearGradient id="paint0_linear_3071_6959" x1="0" y1="0" x2="60" y2="60" gradientUnits="userSpaceOnUse">
<stop stop-color="#F4EDFF"/>
<stop offset="1" stop-color="#FCEBEF"/>
</linearGradient>
</defs>
</svg>
