<svg width="198" height="30" viewBox="0 0 198 30" fill="none" xmlns="http://www.w3.org/2000/svg">
<path d="M7.22641 29.3789L16.6014 24.3789L25.9764 29.3789L24.1014 18.7539L31.6014 11.2539L20.9764 10.0039L16.6014 0.628906L12.2264 10.0039L1.60141 11.2539L9.10141 18.7539L7.22641 29.3789Z" fill="#FFCD61"/>
<path d="M24.6971 18.9585L32.0317 11.8142C32.1677 11.6783 32.2221 11.4743 32.1609 11.2908C32.0997 11.1073 31.9434 10.9713 31.7462 10.9441L21.611 9.46905L17.077 0.285498C16.9887 0.108761 16.8119 0 16.6216 0C16.4313 0 16.2477 0.108761 16.1662 0.285498L11.6322 9.46905L1.49695 10.9441C1.32701 10.9713 1.19106 11.0733 1.11628 11.2228C1.10949 11.2296 1.10269 11.2228 1.09589 11.2296C0.586073 11.5967 1.85722 12.8746 2.10873 13.2213C2.59136 13.8875 3.23713 14.4517 3.82852 15.0363C5.10647 16.3074 6.38442 17.5786 7.66237 18.8497C8.37611 19.5635 8.04983 18.8769 7.37687 23.6692C7.12536 25.4978 6.93502 27.3331 6.79907 29.1753C6.75829 29.7327 7.31569 30.1473 7.83231 29.9502C10.864 28.7878 13.787 27.3263 16.5332 25.5997C19.5921 27.1972 22.6239 28.6043 25.8051 29.889C26.1178 30.0114 26.4441 29.7395 26.3693 29.4132L26.3625 29.3724C26.5325 29.0733 26.4713 29.5491 24.6971 18.9585ZM12.0468 10.4411C12.2168 10.4139 12.3595 10.3119 12.4343 10.1624L16.6284 1.66541L20.8225 10.1624C20.8973 10.3119 21.04 10.4207 21.21 10.4411L30.5906 11.8006L23.8066 18.4147C23.6843 18.5302 23.6299 18.7002 23.6571 18.8633L25.2613 28.2032L16.8731 23.7916C16.7236 23.71 16.5468 23.71 16.3973 23.7916L8.00904 28.2032L9.61327 18.8633C9.64047 18.7002 9.58608 18.5302 9.46373 18.4147L2.66614 11.8006L12.0468 10.4411Z" fill="#FCF7ED"/>
<path d="M48.4358 29.3789L57.8108 24.3789L67.1858 29.3789L65.3108 18.7539L72.8108 11.2539L62.1858 10.0039L57.8108 0.628906L53.4358 10.0039L42.8108 11.2539L50.3108 18.7539L48.4358 29.3789Z" fill="#FFCD61"/>
<path d="M65.9066 18.9585L73.2412 11.8142C73.3771 11.6783 73.4315 11.4743 73.3703 11.2908C73.3092 11.1073 73.1528 10.9713 72.9557 10.9441L62.8205 9.46905L58.2865 0.285498C58.1981 0.108761 58.0214 0 57.831 0C57.6407 0 57.4572 0.108761 57.3756 0.285498L52.8416 9.46905L42.7064 10.9441C42.5365 10.9713 42.4005 11.0733 42.3257 11.2228C42.3189 11.2296 42.3121 11.2228 42.3053 11.2296C41.7955 11.5967 43.0667 12.8746 43.3182 13.2213C43.8008 13.8875 44.4466 14.4517 45.038 15.0363C46.3159 16.3074 47.5939 17.5786 48.8718 18.8497C49.5856 19.5635 49.2593 18.8769 48.5863 23.6692C48.3348 25.4978 48.1445 27.3331 48.0085 29.1753C47.9677 29.7327 48.5251 30.1473 49.0417 29.9502C52.0735 28.7878 54.9964 27.3263 57.7427 25.5997C60.8016 27.1972 63.8333 28.6043 67.0146 29.889C67.3273 30.0114 67.6536 29.7395 67.5788 29.4132L67.572 29.3724C67.7419 29.0733 67.6807 29.5491 65.9066 18.9585ZM53.2563 10.4411C53.4262 10.4139 53.5689 10.3119 53.6437 10.1624L57.8378 1.66541L62.0319 10.1624C62.1067 10.3119 62.2495 10.4207 62.4194 10.4411L71.8001 11.8006L65.0161 18.4147C64.8937 18.5302 64.8394 18.7002 64.8665 18.8633L66.4708 28.2032L58.0825 23.7916C57.933 23.71 57.7563 23.71 57.6067 23.7916L49.2185 28.2032L50.8227 18.8633C50.8499 18.7002 50.7955 18.5302 50.6732 18.4147L43.8756 11.8006L53.2563 10.4411Z" fill="#FCF7ED"/>
<path d="M89.6453 29.3789L99.0203 24.3789L108.395 29.3789L106.52 18.7539L114.02 11.2539L103.395 10.0039L99.0203 0.628906L94.6453 10.0039L84.0203 11.2539L91.5203 18.7539L89.6453 29.3789Z" fill="#FFCD61"/>
<path d="M107.116 18.9585L114.451 11.8142C114.587 11.6783 114.641 11.4743 114.58 11.2908C114.519 11.1073 114.362 10.9713 114.165 10.9441L104.03 9.46905L99.4959 0.285498C99.4075 0.108761 99.2308 0 99.0405 0C98.8501 0 98.6666 0.108761 98.585 0.285498L94.051 9.46905L83.9158 10.9441C83.7459 10.9713 83.6099 11.0733 83.5352 11.2228C83.5284 11.2296 83.5216 11.2228 83.5148 11.2296C83.0049 11.5967 84.2761 12.8746 84.5276 13.2213C85.0102 13.8875 85.656 14.4517 86.2474 15.0363C87.5253 16.3074 88.8033 17.5786 90.0812 18.8497C90.795 19.5635 90.4687 18.8769 89.7957 23.6692C89.5442 25.4978 89.3539 27.3331 89.2179 29.1753C89.1772 29.7327 89.7346 30.1473 90.2512 29.9502C93.2829 28.7878 96.2059 27.3263 98.9521 25.5997C102.011 27.1972 105.043 28.6043 108.224 29.889C108.537 30.0114 108.863 29.7395 108.788 29.4132L108.781 29.3724C108.951 29.0733 108.89 29.5491 107.116 18.9585ZM94.4657 10.4411C94.6356 10.4139 94.7784 10.3119 94.8532 10.1624L99.0473 1.66541L103.241 10.1624C103.316 10.3119 103.459 10.4207 103.629 10.4411L113.01 11.8006L106.226 18.4147C106.103 18.5302 106.049 18.7002 106.076 18.8633L107.68 28.2032L99.292 23.7916C99.1424 23.71 98.9657 23.71 98.8161 23.7916L90.4279 28.2032L92.0322 18.8633C92.0593 18.7002 92.005 18.5302 91.8826 18.4147L85.085 11.8006L94.4657 10.4411Z" fill="#FCF7ED"/>
<path d="M130.855 29.3789L140.23 24.3789L149.605 29.3789L147.73 18.7539L155.23 11.2539L144.605 10.0039L140.23 0.628906L135.855 10.0039L125.23 11.2539L132.73 18.7539L130.855 29.3789Z" fill="#FFCD61"/>
<path d="M148.325 18.9585L155.66 11.8142C155.796 11.6783 155.85 11.4743 155.789 11.2908C155.728 11.1073 155.572 10.9713 155.375 10.9441L145.239 9.46905L140.705 0.285498C140.617 0.108761 140.44 0 140.25 0C140.06 0 139.876 0.108761 139.794 0.285498L135.26 9.46905L125.125 10.9441C124.955 10.9713 124.819 11.0733 124.745 11.2228C124.738 11.2296 124.731 11.2228 124.724 11.2296C124.214 11.5967 125.486 12.8746 125.737 13.2213C126.22 13.8875 126.865 14.4517 127.457 15.0363C128.735 16.3074 130.013 17.5786 131.291 18.8497C132.004 19.5635 131.678 18.8769 131.005 23.6692C130.754 25.4978 130.563 27.3331 130.427 29.1753C130.387 29.7327 130.944 30.1473 131.461 29.9502C134.492 28.7878 137.415 27.3263 140.162 25.5997C143.22 27.1972 146.252 28.6043 149.433 29.889C149.746 30.0114 150.072 29.7395 149.998 29.4132L149.991 29.3724C150.161 29.0733 150.1 29.5491 148.325 18.9585ZM135.675 10.4411C135.845 10.4139 135.988 10.3119 136.063 10.1624L140.257 1.66541L144.451 10.1624C144.526 10.3119 144.668 10.4207 144.838 10.4411L154.219 11.8006L147.435 18.4147C147.313 18.5302 147.258 18.7002 147.285 18.8633L148.89 28.2032L140.501 23.7916C140.352 23.71 140.175 23.71 140.026 23.7916L131.637 28.2032L133.242 18.8633C133.269 18.7002 133.214 18.5302 133.092 18.4147L126.294 11.8006L135.675 10.4411Z" fill="#FCF7ED"/>
<path d="M172.064 29.3789L181.439 24.3789L190.814 29.3789L188.939 18.7539L196.439 11.2539L185.814 10.0039L181.439 0.628906L177.064 10.0039L166.439 11.2539L173.939 18.7539L172.064 29.3789Z" fill="#FFCD61"/>
<path d="M189.535 18.9585L196.869 11.8142C197.005 11.6783 197.06 11.4743 196.999 11.2908C196.937 11.1073 196.781 10.9713 196.584 10.9441L186.449 9.46905L181.915 0.285498C181.826 0.108761 181.65 0 181.459 0C181.269 0 181.085 0.108761 181.004 0.285498L176.47 9.46905L166.335 10.9441C166.165 10.9713 166.029 11.0733 165.954 11.2228C165.947 11.2296 165.94 11.2228 165.934 11.2296C165.424 11.5967 166.695 12.8746 166.946 13.2213C167.429 13.8875 168.075 14.4517 168.666 15.0363C169.944 16.3074 171.222 17.5786 172.5 18.8497C173.214 19.5635 172.888 18.8769 172.215 23.6692C171.963 25.4978 171.773 27.3331 171.637 29.1753C171.596 29.7327 172.153 30.1473 172.67 29.9502C175.702 28.7878 178.625 27.3263 181.371 25.5997C184.43 27.1972 187.462 28.6043 190.643 29.889C190.956 30.0114 191.282 29.7395 191.207 29.4132L191.2 29.3724C191.37 29.0733 191.309 29.5491 189.535 18.9585ZM176.885 10.4411C177.055 10.4139 177.197 10.3119 177.272 10.1624L181.466 1.66541L185.66 10.1624C185.735 10.3119 185.878 10.4207 186.048 10.4411L195.428 11.8006L188.644 18.4147C188.522 18.5302 188.468 18.7002 188.495 18.8633L190.099 28.2032L181.711 23.7916C181.561 23.71 181.385 23.71 181.235 23.7916L172.847 28.2032L174.451 18.8633C174.478 18.7002 174.424 18.5302 174.301 18.4147L167.504 11.8006L176.885 10.4411Z" fill="#FCF7ED"/>
</svg>
