<svg width="75" height="60" viewBox="0 0 75 60" fill="none" xmlns="http://www.w3.org/2000/svg">
<path d="M51.2321 52L59 48.5L60.7288 49.7778L66 52L65.5 49L64.9926 44L70.5 38.4444L62.5 37.1111L61.5 35L58.5 29.5L55.1176 37.1111L51.5098 37.7778L47 38.4444L52.5 44L51.2321 52Z" fill="#FFCD61"/>
<path d="M10.8843 50.5L25.9256 42.3793L31.9421 45.5L42.5 49.5L41.3967 43.6724L40 32.5L52.5 20L34.9504 17.8103L31.9421 12.2069L26.5 1L19.5 17L11.5 18.5L1.5 20L13.4628 31.1724L10.8843 50.5Z" fill="#FFCD61"/>
<path d="M40.7502 32.5691L53.3505 20.2958C53.584 20.0623 53.6774 19.712 53.5723 19.3967C53.4672 19.0814 53.1986 18.8478 52.86 18.8011L35.4485 16.267L27.6595 0.490462C27.5077 0.186842 27.2041 0 26.8771 0C26.5501 0 26.2348 0.186842 26.0947 0.490462L18.3057 16.267L0.894244 18.8011C0.602302 18.8478 0.368748 19.023 0.240294 19.2799C0.228616 19.2916 0.216938 19.2799 0.20526 19.2916C-0.670567 19.9222 1.51316 22.1176 1.94524 22.7131C2.77435 23.8575 3.88373 24.8268 4.89969 25.8311C7.0951 28.0148 9.29051 30.1985 11.4859 32.3823C12.7121 33.6084 12.1515 32.429 10.9955 40.6617C10.5634 43.803 10.2364 46.956 10.0028 50.1207C9.93278 51.0782 10.8904 51.7906 11.7779 51.4519C16.9861 49.455 22.0075 46.9443 26.7253 43.9782C31.9803 46.7225 37.1885 49.1398 42.6537 51.3468C43.1909 51.557 43.7514 51.0899 43.6229 50.5294L43.6113 50.4593C43.9032 49.9455 43.7981 50.763 40.7502 32.5691ZM19.018 17.9369C19.31 17.8902 19.5552 17.7151 19.6837 17.4582L26.8888 2.86104L34.0939 17.4582C34.2224 17.7151 34.4676 17.9019 34.7596 17.9369L50.8748 20.2725L39.2204 31.6349C39.0102 31.8334 38.9168 32.1253 38.9635 32.4056L41.7195 48.4508L27.3092 40.8719C27.0523 40.7318 26.7487 40.7318 26.4918 40.8719L12.0815 48.4508L14.8374 32.4056C14.8841 32.1253 14.7907 31.8334 14.5805 31.6349L2.90281 20.2725L19.018 17.9369Z" fill="#242424"/>
<path d="M66.0442 44.6084L72.1166 38.6878C72.6421 38.1856 72.3501 37.2981 71.6261 37.193L63.2298 35.9785L59.4813 28.3764C59.1894 27.7808 58.2084 27.7808 57.9048 28.3764L54.1563 35.9785L45.76 37.193C45.433 37.2397 45.1528 37.4733 45.0477 37.7886C45.0126 37.9054 45.001 38.0221 45.0126 38.1389C44.6273 39.4935 46.3906 39.8322 50.4895 44.8886C50.0808 47.2825 49.7421 49.6531 49.3334 52.0471C49.24 52.6309 49.1465 53.2849 49.4852 53.7753C49.8005 54.2425 50.4194 54.4176 50.9799 54.3709C51.5405 54.3125 52.0543 54.0556 52.5564 53.8104C54.5883 52.8061 56.6203 51.8018 58.6522 50.7975C60.7191 51.8485 62.7744 52.6309 64.8414 53.6819C65.2267 53.8804 65.6238 54.079 66.0442 54.1257C66.3244 54.1607 66.6164 54.0906 66.8616 53.9622C67.2703 53.8337 67.5272 53.4133 67.4572 52.9813L66.0442 44.6084ZM54.8686 37.6484C55.1606 37.6017 55.4058 37.4266 55.5342 37.1697L58.7106 30.7469L61.8869 37.1697C62.0154 37.4266 62.2606 37.6134 62.5525 37.6484L69.6409 38.6761L64.5144 43.6741C64.3042 43.8727 64.2108 44.1646 64.2575 44.4449L65.472 51.5099C58.9091 48.1 59.1193 48.0766 58.7223 48.0766C58.3252 48.0766 58.5471 48.1 51.9725 51.5099L53.187 44.4449C53.2337 44.1646 53.1403 43.8727 52.9301 43.6741L47.7919 38.6761L54.8686 37.6484Z" fill="#242424"/>
<path d="M39.4075 4.21451L36.9552 10.789C36.745 11.3613 37.1654 11.9685 37.7726 11.9685C38.123 11.9685 38.4616 11.7466 38.5901 11.3963L41.0424 4.82175C41.2176 4.36632 40.984 3.86418 40.5286 3.70069C40.0848 3.5372 39.5827 3.77076 39.4075 4.21451Z" fill="#242424"/>
<path d="M13.284 6.72693C13.0504 6.30653 12.5249 6.14305 12.0928 6.38828C11.6724 6.62183 11.5206 7.15901 11.7542 7.5794C12.5249 8.98073 13.5058 10.2419 14.6619 11.3279C15.0123 11.6549 15.5728 11.6432 15.8998 11.2929C16.2267 10.9426 16.2151 10.382 15.8647 10.0551C14.8371 9.08583 13.973 7.96477 13.284 6.72693Z" fill="#242424"/>
<path d="M8.33315 34.4952L3.21832 36.8307C2.36585 37.2161 2.64611 38.5006 3.58033 38.5006C3.93066 38.5006 3.7555 38.4773 9.05717 36.0834C9.50092 35.8848 9.68777 35.3593 9.48924 34.9273C9.29072 34.4952 8.7769 34.2967 8.33315 34.4952Z" fill="#242424"/>
<path d="M26.7136 49.4908C26.2348 49.5492 25.8845 49.9813 25.9429 50.4601L26.7019 57.1748C26.7486 57.6185 27.134 57.9572 27.5661 57.9572C28.0916 57.9572 28.5003 57.5017 28.4419 56.9879L27.6829 50.2733C27.6245 49.7828 27.2041 49.4558 26.7136 49.4908Z" fill="#242424"/>
<path d="M67.7379 28.4225L65.5541 31.4938C65.2739 31.8908 65.3673 32.4397 65.7643 32.7199C66.1614 33.0002 66.7102 32.9068 66.9905 32.5097L69.1742 29.4385C69.4545 29.0415 69.3611 28.4926 68.964 28.2123C68.567 27.9321 68.0181 28.0255 67.7379 28.4225Z" fill="#242424"/>
<path d="M50.1387 30.6526C49.7183 30.4191 49.1811 30.5709 48.9475 30.9913C48.714 31.4117 48.8658 31.9488 49.2862 32.1824L51.1663 33.2334C51.5867 33.467 52.1239 33.3151 52.3574 32.8947C52.591 32.4743 52.4392 31.9372 52.0188 31.7036L50.1387 30.6526Z" fill="#242424"/>
<path d="M57.6829 53.4378C57.2041 53.4845 56.8421 53.9049 56.8888 54.3953L57.3209 59.2066C57.3676 59.662 57.7413 60.0006 58.1967 60.0006C58.7222 60.0006 59.1193 59.5569 59.0726 59.0431L58.6405 54.2202C58.5938 53.7414 58.1734 53.3911 57.6829 53.4378Z" fill="#242424"/>
<path d="M74.0898 46.3265L71.0303 45.2988C70.5749 45.147 70.0727 45.3923 69.9209 45.8477C69.7691 46.3031 70.0143 46.8053 70.4698 46.9571C73.5877 47.9847 73.5527 48.0197 73.8096 48.0197C74.1716 48.0197 74.5219 47.7862 74.6387 47.4242C74.8022 46.9688 74.557 46.4783 74.0898 46.3265Z" fill="#242424"/>
</svg>
