<svg width="65" height="60" viewBox="0 0 65 60" fill="none" xmlns="http://www.w3.org/2000/svg">
<path d="M46.2964 3.71486C45.3921 5.81449 44.7016 8.0118 44.2441 10.2459C44.1489 10.7053 44.501 11.1376 44.9724 11.1376C45.3176 11.1376 45.6271 10.8958 45.6987 10.5437C46.1368 8.40929 46.7964 6.30966 47.66 4.30288C47.8225 3.9257 47.6484 3.48856 47.2722 3.32705C46.897 3.1636 46.4579 3.33768 46.2964 3.71486Z" fill="#242424"/>
<path d="M50.0927 13.7011C50.3103 13.7011 50.526 13.6054 50.673 13.4216L55.7784 7.03378C56.0347 6.71367 55.9825 6.24654 55.6624 5.99026C55.3432 5.7359 54.8761 5.78522 54.6179 6.10728L49.5124 12.4951C49.1203 12.9849 49.4791 13.7011 50.0927 13.7011Z" fill="#242424"/>
<path d="M64.0661 14.0802C63.9065 13.7011 63.4684 13.5241 63.0932 13.6837C60.2431 14.8829 57.246 15.7108 54.185 16.144C53.7788 16.2011 53.4964 16.5773 53.5544 16.9835C53.6137 17.4038 54.0116 17.6761 54.3939 17.6141C57.5806 17.1634 60.7015 16.3017 63.6696 15.0531C64.0477 14.8936 64.2247 14.4583 64.0661 14.0802Z" fill="#242424"/>
<path d="M11.5 57.5L30.5 49L37.5 53.5L49 59L48.5 50.5L45.5 37.5L62 24L41 20.5L37.5 14L33 1L23 18.5L13 20.5H1.5L16 36L11.5 57.5Z" fill="#FFCD61"/>
<path d="M14.6677 37.8352C13.728 44.4896 12.1695 51.0715 10.0119 57.4306C9.87934 57.8186 10.0869 58.2673 10.5237 58.3836C10.504 58.3912 10.4845 58.3996 10.4647 58.4072C11.2665 59.0508 12.1743 59.5618 13.1404 59.9132C19.7008 57.4754 26.1161 54.4565 32.2253 51.0248C36.9768 54.3297 42.4138 57.2613 48.7579 59.9403C49.2451 60.1484 49.796 59.787 49.7898 59.2488C49.7221 52.889 48.6022 46.1182 46.2704 37.9759C51.8354 33.4008 56.7954 29.28 62.551 24.5503C63.0366 24.153 62.8345 23.3587 62.2125 23.2466C55.0592 21.9389 48.3021 20.8043 41.3507 19.5358C32.9642 3.67231 34.5206 0.235301 33.0276 0.0336681C32.8858 0.0117869 32.7464 0.0372948 32.6217 0.0947783C32.6341 0.062984 32.6471 0.0317943 32.6595 0C30.9961 0.759919 29.4716 1.79988 28.0897 2.99767C26.9319 4.00112 23.326 12.6473 20.6152 18.4104C14.3938 19.7175 7.89815 20.1568 1.27008 19.6953C0.908237 19.6783 0.564579 19.9057 0.492266 20.3047C0.463373 20.3189 0.430188 20.3365 0.405708 20.3472C0.115691 21.4432 -0.0204319 22.5798 0.00247697 23.7133C4.00873 29.2409 8.9823 34.0579 14.6677 37.8352ZM20.1758 20.0214C20.5428 20.0222 20.893 19.9455 21.226 19.8017C22.9335 19.4347 23.2425 19.4358 23.4608 19.0512L32.6823 2.71744C34.22 8.14398 36.5818 13.7301 40.2075 20.5503C40.5176 21.1367 39.9824 20.7355 60.3692 24.4207C55.359 28.5438 50.0862 32.9179 44.9503 37.1384C44.7201 37.327 44.6253 37.6336 44.7075 37.9189C46.9503 45.6462 48.0954 52.1047 48.2801 58.1202C41.3874 55.1298 35.6088 51.8252 30.6426 48.036C30.4005 47.8522 30.0738 47.8347 29.8148 47.9866C24.2877 51.2439 17.9801 54.2227 11.8998 56.4558C14.0826 49.712 15.6125 42.7381 16.451 35.7022C16.5291 35.0434 16.6867 35.7033 3.05636 21.2853C8.90541 21.5472 14.6433 21.1191 20.1758 20.0214Z" fill="#242424"/>
</svg>
