<svg width="60" height="66" viewBox="0 0 60 66" fill="none" xmlns="http://www.w3.org/2000/svg">
<path d="M3.88537 25.7279L8.75827 23.5383L10.4005 24.6331L12.8487 25.9896L12.59 24.0857L12.2285 20.8013L15.327 16.9526L10.4296 16.2606L9.59005 14.4898L8.21087 12.043L6.11789 16.0045L3.88537 16.4786L1.09473 16.9526L4.43312 20.4833L3.88537 25.7279Z" fill="#FFCD61"/>
<path d="M21.3484 24.0844L28.4646 20.8L32.2964 22.4422L36.1281 24.6318L35.5807 21.3474L34.4859 16.4208L40.5073 10.3995L32.596 8.81013L31.2399 6.03L28.4646 1.09375L25.1802 8.81013L22.0246 9.1523L16.4219 10.3995L22.4432 15.8734L21.3484 24.0844Z" fill="#FFCD61"/>
<path d="M46.5826 27.9154L51.4555 25.7258L53.0977 26.8206L55.546 28.1771L55.2873 26.2732L54.9257 22.9888L58.5717 19.157L53.6451 18.6096L52.5503 16.9674L51.4555 14.2305L48.8152 18.192L46.5826 18.6661L43.792 19.1401L47.1304 22.6708L46.5826 27.9154Z" fill="#FFCD61"/>
<path d="M21.3804 16.4758L19.869 24.828C19.7563 25.4518 20.4089 25.9423 20.9785 25.6498L28.5278 21.769L36.0049 25.7872C36.2714 25.9321 36.6212 25.9187 36.8915 25.6652C36.8942 25.6796 36.8961 25.6932 36.8988 25.7076C37.9921 24.5303 38.7758 24.1881 38.6464 23.1319C38.4146 21.2397 38.2632 19.3492 38.0241 17.4568C38.863 16.5965 39.7105 15.7449 40.5923 14.9282C41.0854 14.4714 41.6962 14.0566 42.0963 13.5143C42.4574 13.0247 42.583 12.3865 42.5429 11.788C42.5202 11.4501 42.2952 10.5321 42.1589 10.0502C42.1589 10.0502 42.1625 10.0646 42.1564 10.0477C42.1491 10.0275 42.1449 10.0059 42.1398 9.98463C42.1281 9.94429 42.1164 9.90407 42.1067 9.873C42.1139 9.89631 42.1226 9.92424 42.1327 9.95738C42.1124 9.86555 42.0906 9.78323 42.0143 9.75987C41.6621 9.22615 41.2698 9.47463 35.5571 8.50455C34.4553 6.492 33.1943 4.04947 32.2076 1.9355C32.1323 1.77438 31.9449 1.3724 31.7581 1.06851C31.6247 0.851326 31.4129 0.697223 31.1666 0.63151L28.7984 0C28.8105 0.0193567 28.8203 0.038651 28.8324 0.0580078C28.7972 0.0527457 28.7634 0.0425349 28.7273 0.042159C28.4637 0.079244 28.165 0.203529 28.0327 0.465128L24.2069 8.04149L15.7956 9.18612C15.1662 9.27106 14.9051 10.0469 15.3576 10.4951L21.3804 16.4758ZM24.8163 9.51287C25.0669 9.47879 25.2854 9.32343 25.3996 9.09691L28.7042 2.55091L31.8895 9.15805C31.9998 9.38557 32.2153 9.54494 32.4658 9.58403L39.7124 10.7046L34.4143 15.7752C34.2309 15.9506 34.1457 16.2042 34.1868 16.4548L35.3605 23.6934C28.6698 20.1338 28.7252 19.9339 28.184 20.2144L21.6621 23.5671L22.9681 16.3515C23.0132 16.102 22.932 15.8464 22.7526 15.668L17.5486 10.5011L24.8163 9.51287Z" fill="#242424"/>
<path d="M42.16 10.0498C42.16 10.0456 42.1503 10.011 42.1338 9.95703C42.1359 9.96618 42.1387 9.97507 42.1409 9.98428C42.1474 10.0065 42.153 10.0251 42.16 10.0498Z" fill="#242424"/>
<path d="M59.3489 18.4184L55.4646 17.8176C53.261 13.7461 53.4502 13.4188 52.9279 13.2797L52.1134 13.0625L52.1104 13.0561C51.9831 12.7925 51.7165 12.6241 51.4238 12.6211C51.1461 12.6642 50.8615 12.7825 50.7292 13.0441L48.4349 17.5865L43.3934 18.272C42.7635 18.3568 42.5013 19.1323 42.9544 19.581L46.5656 23.1673L45.6596 28.1737C45.5466 28.7997 46.2025 29.2877 46.7691 28.9956L51.2945 26.6693C56.0504 29.1881 55.7958 29.17 56.1416 29.17C56.5793 29.17 56.9427 28.8025 56.9026 28.3347C57.2829 27.9693 57.6139 27.7137 57.5484 27.1788C57.4052 26.0098 57.3117 24.8421 57.1639 23.6731C59.2926 21.4901 59.3279 21.7143 59.6795 21.2377C60.0786 20.6964 59.9599 20.0864 59.852 19.6235C60.1931 19.1459 59.9094 18.5056 59.3489 18.4184ZM50.9507 25.1147L47.4527 26.9128L48.1533 23.043C48.1984 22.7934 48.1172 22.5378 47.9378 22.3594L45.1464 19.5871L49.0433 19.0578C49.2949 19.0238 49.5134 18.8684 49.6277 18.6419L51.4007 15.1298L53.1096 18.674C53.2199 18.9015 53.4354 19.0609 53.686 19.0999L57.5729 19.7013L54.7304 22.4216C54.5469 22.597 54.4617 22.8505 54.5028 23.1011L55.1323 26.984C51.6006 25.1207 51.4683 24.8465 50.9507 25.1147Z" fill="#242424"/>
<path d="M2.93193 26.0376C2.81964 26.6596 3.46843 27.1515 4.04148 26.8595L8.56785 24.5332C13.3238 27.052 13.0691 27.0339 13.415 27.0339C13.8545 27.0339 14.2163 26.6642 14.1759 26.1978C14.5575 25.8315 14.8867 25.5758 14.8213 25.0422C14.6781 23.8733 14.5846 22.7056 14.4369 21.5365C14.9551 21.0051 15.4786 20.479 16.0233 19.9745C16.6485 19.3954 17.2995 19.0957 17.2283 18.0347C17.2208 17.9234 17.1765 17.7078 17.1251 17.4876C17.4668 17.0098 17.1825 16.3695 16.6223 16.2823L12.7379 15.6816C9.84368 10.3336 11.1008 11.4772 9.3866 10.9259L9.38372 10.92C9.11571 10.365 8.30085 10.3181 8.00255 10.908L5.7083 15.4494L0.665742 16.1359C0.0362697 16.2209 -0.224789 16.9968 0.227738 17.4449L3.83901 21.0302L2.93193 26.0376ZM2.41976 17.451L6.31769 16.9207C6.56827 16.8867 6.78677 16.7313 6.90103 16.5048L8.67409 12.9937L10.382 16.5379C10.4923 16.7654 10.7078 16.9247 10.9583 16.9638L14.8462 17.5652L12.0037 20.2844C11.8203 20.4598 11.7351 20.7134 11.7762 20.964L12.4056 24.8479C8.92161 23.0097 8.92622 22.8934 8.57587 22.8934C8.24536 22.8934 8.36532 22.939 4.72504 24.7767L5.42665 20.9059C5.47176 20.6563 5.39057 20.4007 5.21116 20.2223L2.41976 17.451Z" fill="#242424"/>
<path d="M55.7391 32.328C55.6042 32.0973 55.3565 31.9461 55.0775 31.9461C55.0765 31.9461 55.0765 31.9461 55.0755 31.9461L54.9395 31.9464L54.9044 31.9297C54.9055 31.9345 54.9063 31.9417 54.9073 31.9465L3.91823 32.0714C3.54838 32.0724 3.23165 32.336 3.1635 32.6998C1.35078 42.3719 5.01292 50.5133 10.6917 56.0751C10.6936 56.0788 10.6915 56.0787 10.6936 56.0825C11.1564 56.937 14.99 60.4858 18.8711 62.5509C24.489 65.5402 31.226 66.2496 36.3406 65.29C44.4874 63.7611 51.4787 58.2816 55.2735 50.9123C58.0351 45.5493 58.3979 39.5675 57.1549 33.6558C56.9509 32.6859 56.0035 32.5021 55.7391 32.328ZM16.5507 40.8315C16.6354 44.0324 17.0888 47.0673 17.8889 49.8794C15.3286 50.8265 12.8644 52.0985 10.5742 53.7256C7.23395 50.0067 4.84285 45.2585 4.34126 39.7683C8.42719 40.2344 12.5189 40.59 16.5507 40.8315ZM54.8685 39.0503C54.696 44.623 52.7737 50.1639 48.8679 54.6838C46.5435 52.8628 44.0114 51.4253 41.3644 50.3337C42.379 47.3105 42.9516 44.0666 43.0471 40.6933C47.4262 40.3309 51.4111 39.7812 54.8685 39.0503ZM19.7947 50.8513C22.8663 49.8796 26.0613 49.4083 29.2575 49.4306C29.1011 53.8932 28.8671 58.3505 28.5562 62.7818C28.4267 62.7696 28.298 62.7551 28.1691 62.7411C24.2905 59.8879 21.4591 55.7835 19.7947 50.8513ZM30.5891 62.8942C30.4232 62.8914 30.2578 62.8863 30.0925 62.8804C30.4043 58.4342 30.639 53.9623 30.796 49.4854C33.7193 49.6515 36.6232 50.2128 39.4075 51.2067C37.5712 55.8933 34.5837 59.9332 30.5891 62.8942ZM40.8373 51.7786C43.3005 52.8005 45.6564 54.1413 47.8262 55.8279C43.4289 60.3524 38.2282 62.3792 33.15 62.8089C36.563 59.8376 39.1574 56.0614 40.8373 51.7786ZM39.9322 49.7608C36.9958 48.712 33.9325 48.1207 30.8491 47.9486C30.9189 45.7023 30.9723 43.4559 31.0028 41.2124C34.6629 41.1816 38.1812 41.0483 41.5012 40.811C41.3975 43.942 40.8656 46.9524 39.9322 49.7608ZM31.0126 39.677C31.0322 37.6296 31.0441 35.5835 31.0308 33.5446L40.989 33.5203C41.3271 35.4635 41.496 37.3854 41.5183 39.273C38.2025 39.5131 34.678 39.6461 31.0126 39.677ZM29.4732 39.6883C25.7838 39.6898 21.964 39.5859 18.075 39.3774C18.0911 37.4936 18.2365 35.5557 18.5158 33.575L29.4913 33.5483C29.5047 35.5898 29.4929 37.6385 29.4732 39.6883ZM29.4627 41.2276C29.4323 43.4474 29.3796 45.6701 29.3105 47.8925C25.9453 47.8644 22.5808 48.3576 19.3461 49.3787C18.6049 46.7468 18.1817 43.906 18.0937 40.9083C21.9361 41.112 25.6601 41.2276 29.4627 41.2276ZM11.6491 54.8606C13.7506 53.3913 15.9994 52.2249 18.337 51.352C19.7927 55.663 22.1112 59.373 25.1982 62.2514C19.8298 61.0657 15.2564 58.4397 11.6491 54.8606ZM54.8684 37.4799C51.4337 38.2249 47.444 38.782 43.0547 39.1504C43.0275 37.2992 42.8622 35.4176 42.5449 33.5166L54.446 33.4876C54.692 34.8128 54.8297 36.1482 54.8684 37.4799ZM4.56671 33.6089L16.964 33.5788C16.6986 35.5235 16.5578 37.4291 16.5387 39.2862C12.4795 39.0407 8.36066 38.687 4.24592 38.2122C4.20902 36.7257 4.30962 35.1897 4.56671 33.6089Z" fill="#242424"/>
</svg>
