<svg width="63" height="60" viewBox="0 0 63 60" fill="none" xmlns="http://www.w3.org/2000/svg">
<path d="M35.5 16L36.5 23L41 20L45 21.5H50.5L57 19L60.5 14L60 8.5L57 4.5L51.5 1.5L45 0.5L39.5 1.5L34.5 5L33 8.5V12L35.5 16Z" fill="#FFCD61"/>
<path d="M23.3937 23.3392H27.1532L27.3046 28.8326C27.3154 29.2258 27.6375 29.537 28.0279 29.537H28.0482C28.4481 29.5257 28.7635 29.1928 28.7522 28.793L28.6018 23.3392H32.4434C33.4014 23.3392 33.402 21.8906 32.4434 21.8906H23.3937C22.9938 21.8906 22.6694 22.215 22.6694 22.6149C22.6694 23.0148 22.9938 23.3392 23.3937 23.3392Z" fill="#242424"/>
<path d="M7.64536 26.8587H23.2136C23.6134 26.8587 23.9379 26.5343 23.9379 26.1344C23.9379 25.7346 23.6134 25.4102 23.2136 25.4102H7.64536C7.2455 25.4102 6.92108 25.7346 6.92108 26.1344C6.92108 26.5343 7.2455 26.8587 7.64536 26.8587Z" fill="#242424"/>
<path d="M33.9547 36.3141C33.9547 35.9143 33.6303 35.5898 33.2304 35.5898H7.73212C7.33226 35.5898 7.00784 35.9143 7.00784 36.3141C7.00784 36.714 7.33226 37.0384 7.73212 37.0384H33.2304C33.6303 37.0384 33.9547 36.714 33.9547 36.3141Z" fill="#242424"/>
<path d="M30.8369 45.5719C30.8369 45.1721 30.5125 44.8477 30.1126 44.8477H12.8299C12.43 44.8477 12.1056 45.1721 12.1056 45.5719C12.1056 45.9718 12.43 46.2962 12.8299 46.2962H30.1126C30.5125 46.2962 30.8369 45.9718 30.8369 45.5719Z" fill="#242424"/>
<path d="M23.4824 51.7344H18.1003C17.7004 51.7344 17.376 52.0588 17.376 52.4587C17.376 52.8585 17.7004 53.1829 18.1003 53.1829H23.4824C23.8822 53.1829 24.2066 52.8585 24.2066 52.4587C24.2066 52.0588 23.8822 51.7344 23.4824 51.7344Z" fill="#242424"/>
<path d="M56.148 35.5734L39.2747 44.5443C39.1112 36.7116 39.062 30.7534 39.2641 23.1321C39.8461 22.6288 40.6371 21.8463 41.2255 21.1467C44.7894 22.6215 48.2843 23.1729 51.8778 22.4294C62.4548 20.2408 64.6778 9.09107 56.3003 3.16662C50.1647 -1.16177 39.1742 -1.31421 34.4375 4.3398C31.9439 7.29703 31.5953 11.2865 33.5246 14.5405C32.2284 14.566 30.7003 14.6875 28.3637 14.8532C17.2713 15.6447 13.6159 15.2266 2.01664 15.1993C2.0157 15.1993 2.01522 15.1993 2.01475 15.1993C1.71748 15.1993 1.41386 15.3722 1.32266 15.7612C0.881771 16.2824 0.440886 16.8037 0 17.3249C0.501714 30.3574 0.618065 44.4305 1.11978 57.463C1.15868 58.4725 1.53131 59.1922 2.34447 59.5331C2.46501 59.6627 2.63146 59.7492 2.82014 59.7631C9.65871 60.2695 17.9154 59.8764 24.772 59.4019C33.1275 58.8274 32.3319 59.0053 38.7874 59.3105C39.1956 59.3303 39.5491 59.0025 39.5461 58.5824C39.5372 57.1119 39.5259 55.6198 39.5007 54.1068L60.3578 43.017C61.1726 42.5842 61.7734 41.7835 62.0492 40.7621C62.3732 39.5663 62.2072 38.2724 61.6065 37.3011C60.5653 35.6186 58.1228 34.5228 56.148 35.5734ZM37.7069 53.4205C37.7132 52.5538 37.5773 52.0384 36.9519 51.3679C43.2824 48.0704 50.3801 44.6017 56.3469 40.8984L57.1459 42.3259C57.1606 42.5931 57.128 42.7963 57.0604 42.9086C57.0086 42.9949 56.977 43.0875 56.9639 43.1814L37.7069 53.4205ZM33.068 54.2951C32.6583 53.5179 32.2982 52.651 31.7771 51.9724C32.8603 50.1695 32.9651 49.9877 33.0795 49.7931C33.399 49.8498 34.0496 50.1752 34.3687 50.4541C35.0701 51.0652 34.6575 51.7392 35.3712 51.9611C35.6777 52.0564 36.1483 52.5411 36.211 52.8259C36.2996 53.2302 36.2557 53.8012 36.1652 54.0563C35.2131 54.193 34.1404 54.2603 33.068 54.2951ZM54.2868 38.2031C54.567 38.3051 54.8413 38.4669 55.1031 38.6761L55.6386 39.6331C49.941 43.1759 43.1215 46.5428 35.994 50.2345C35.6229 49.5189 35.1282 49.1437 34.4151 48.7679L54.2868 38.2031ZM35.5461 5.27155C38.9604 1.19783 46.1375 0.648161 51.3949 2.35841C51.3954 2.35935 51.3963 2.35935 51.3968 2.35935C58.5482 4.66341 61.0787 10.6463 59.5392 14.5165C57.7821 18.9537 50.409 22.1504 42.3622 19.4186L42.1254 19.3337C40.0652 18.5731 39.9652 19.3206 36.7999 22.1157C36.741 20.3918 36.6273 18.4463 36.3388 16.0395C36.278 15.5318 35.8042 15.5058 34.811 13.8846C33.1469 11.1554 33.435 7.77541 35.5461 5.27155ZM38.0929 57.8242C24.7354 57.1132 16.9166 59.2686 3.58072 58.3646C3.23377 44.704 3.10401 30.36 2.75789 16.6497C13.6419 16.6932 17.5459 17.0789 28.4669 16.2979C30.9568 16.1244 32.9046 15.9529 34.5561 15.9921C34.6799 16.1427 34.7963 16.2975 34.9279 16.4432C35.7015 23.0745 34.9852 23.4611 35.8333 23.9623C36.1254 24.1357 36.4562 24.1495 36.8004 23.9602C37.2472 24.0099 37.5008 24.0647 37.7934 24.0424C37.5962 31.4415 37.6969 38.6299 37.8399 45.307C32.2336 48.332 32.3838 48.1085 32.1968 48.4331C30.8092 50.8588 29.4978 52.7104 28.6216 54.8743C28.4285 55.3493 28.7778 55.8975 29.3482 55.8683C31.3096 55.715 34.5819 55.8589 37.0088 55.3948C37.1904 55.3612 37.2457 55.2956 38.0604 54.8726C38.0739 55.8628 38.0865 56.8528 38.0929 57.8242Z" fill="#242424"/>
<path d="M54.4226 13.6166C55.6558 13.4763 56.3605 12.1529 55.5609 11.1523C55.4531 10.4911 54.123 9.96071 53.1443 10.5667C52.444 10.9995 52.1781 11.8766 52.5256 12.6065C52.8559 13.3022 53.6734 13.7077 54.4226 13.6166Z" fill="#242424"/>
<path d="M49.1787 11.2756C49.2725 10.839 49.1476 10.3882 48.8708 10.043C48.7648 9.37829 47.4278 8.8535 46.4546 9.45645C45.7549 9.88838 45.4889 10.7664 45.836 11.4973C46.5304 12.9601 48.8508 12.8052 49.1787 11.2756Z" fill="#242424"/>
<path d="M40.8424 11.3627C42.0765 11.2188 42.7796 9.89483 41.9783 8.89841C41.9505 8.72395 41.8595 8.55985 41.7096 8.44291C40.2558 7.3068 38.1775 8.73947 38.9435 10.3526C39.2354 10.9675 40.0216 11.4514 40.8424 11.3627Z" fill="#242424"/>
</svg>
