<svg width="56" height="60" viewBox="0 0 56 60" fill="none" xmlns="http://www.w3.org/2000/svg">
<path d="M1.37857 42.7531C0.988923 46.8876 0.377596 50.489 0.00285753 54.4565C-0.0165974 54.6628 0.064409 54.8617 0.211663 55.0065L0.186282 55.0338C0.607023 55.5223 1.82245 55.7609 2.62749 55.7258C3.93123 55.6687 10.6506 54.4552 12.633 54.0743C48.2688 17.651 47.5241 18.8696 48.0292 17.635C48.2461 17.1128 48.2451 16.4872 47.9723 16.0103C47.9388 15.9239 47.8897 15.8426 47.82 15.7729C47.8149 15.7677 47.8101 15.7633 47.8049 15.7581C47.7977 15.7504 47.7951 15.7398 47.7878 15.7323C47.7862 15.7338 47.7846 15.7353 47.7831 15.7369C44.7431 12.6986 42.3909 10.8259 39.2813 7.23776C39.0343 6.95258 38.5907 6.91193 38.2983 7.1814C26.4784 18.0365 1.41449 42.3879 1.37857 42.7531ZM38.7097 8.66982C41.4925 11.8072 43.7582 13.6997 46.3701 16.2693C34.9783 28.0957 23.2854 39.6068 11.8538 51.4868C8.26339 52.2627 4.9943 52.8963 1.46354 53.6506C1.81579 50.2891 2.27124 47.4993 2.66405 43.6626C5.23216 45.5739 7.52175 47.8195 9.45215 50.3768C9.58722 50.5557 9.79295 50.6496 10.0014 50.6496C10.5589 50.6496 10.8942 50.006 10.5488 49.5485C8.51613 46.8557 6.10204 44.4938 3.39193 42.4903C15.6983 30.641 25.943 20.4153 38.7097 8.66982Z" fill="#242424"/>
<path d="M38.5533 55.3937C29.8568 52.626 27.9132 55.6172 22.7004 57.5878C18.7307 59.087 13.93 58.96 8.4343 57.2122C8.07024 57.0968 7.68651 57.2971 7.57112 57.6585C7.45663 58.0208 7.6561 58.4063 8.01747 58.5217C12.958 60.0929 18.3373 60.705 23.1852 58.8723C28.2248 56.9727 29.8844 54.0794 38.1364 56.7032C40.7871 57.5477 43.3751 58.6344 46.1599 59.0691C49.4981 59.5906 52.4875 58.9725 54.5654 57.3267C54.8623 57.0914 54.9124 56.6594 54.6772 56.3615C54.4437 56.0645 54.0108 56.0118 53.712 56.2497C51.3193 58.1442 48.0866 57.9787 46.371 57.7113C43.7402 57.3016 41.1745 56.2294 38.5533 55.3937Z" fill="#242424"/>
<path d="M14.9057 39.2466L36.6604 17.6627C36.9296 17.3953 36.9314 16.9606 36.664 16.6913C36.3965 16.4221 35.9618 16.4203 35.6926 16.6878L13.9379 38.2716C13.6687 38.539 13.6669 38.9737 13.9343 39.243C14.2017 39.5121 14.6363 39.5142 14.9057 39.2466Z" fill="#242424"/>
<path d="M41 5.5L49.5 14L54.5 8.5L54 5.5L52.5 3L50.5 1.5L46.5 0.5L41 5.5Z" fill="#FFCD61"/>
<path d="M50.9752 14.6612C51.8876 13.8201 52.6798 12.9787 53.5832 12.0721C54.0698 11.584 54.556 11.0784 54.8703 10.465C55.707 8.83167 55.2325 6.65005 54.2721 5.00037C53.0737 1.43953 50.1281 0.00867357 46.37 0C46.3691 0 46.3691 0 46.3682 0C46.2162 0 46.0677 0.0509854 45.9478 0.144011C44.0998 1.57429 41.5667 4.12624 40.564 5.15668C40.3081 5.41966 40.3037 5.83738 40.5541 6.10573C42.9991 8.72042 46.2973 11.6327 48.6277 14.2983C48.7483 14.4354 48.9201 14.5112 49.1012 14.5232C49.7917 14.8466 50.4049 15.1872 50.9752 14.6612ZM42.0103 5.64417C43.1266 4.51266 45.0811 2.58684 46.6026 1.37661C51.4179 1.47381 53.4596 4.1689 53.4695 8.85268C52.1206 9.92337 50.3326 11.5281 49.1429 12.8125C46.9616 10.4167 44.2404 7.96854 42.0103 5.64417Z" fill="#242424"/>
</svg>
