<svg width="61" height="60" viewBox="0 0 61 60" fill="none" xmlns="http://www.w3.org/2000/svg">
<path d="M36.5 23.4991L34.5 27.9991L38.5 27L42.5 24.5L46.5 24L53.5 23L58.5 17.5C60.5 11.5 57.3333 6.66667 55.5 5C52.7 2.2 46.6667 0.832748 44 0.499121C37.2 0.0991213 32.5 4.33245 31 6.49912C29.4 8.89912 29 13.1658 29 14.9991L31 18.9991L34 20.9991L36.5 21.9991V23.4991Z" fill="#FFCD61"/>
<path d="M2.61443 27.2966C1.59875 28.2315 1.30111 28.9666 0.230976 30.456C-0.248058 40.3577 0.136893 50.0265 0.325118 59.7178C18.5281 60.2929 21.9579 59.396 46.523 60C47.4556 59.1662 48.3033 58.8415 49.1405 57.7752C49.4941 57.6072 49.5549 57.3115 49.5377 56.9246C49.1051 47.5502 50.3638 38.413 49.8165 28.8217C49.7968 28.4816 49.3281 28.0917 49.1332 27.9647C47.9928 27.2217 46.805 26.3662 45.5953 25.4254C50.6137 25.5894 56.8096 23.7329 59.1954 18.6104C61.9461 12.7041 59.3289 3.79165 48.7923 0.825835C44.1113 -0.48973 39.496 -0.227352 35.7961 1.56886C32.2771 3.27736 29.6304 6.52577 28.6987 10.0767C27.8207 9.31382 26.9255 8.55788 26.0091 7.82778C25.9988 7.81963 25.9862 7.81808 25.9756 7.81061C25.9624 7.79705 25.9565 7.77936 25.942 7.76667C25.6484 7.50889 25.2022 7.54013 24.9462 7.8333C17.954 15.8303 3.68331 25.4196 2.61443 27.2966ZM26.0754 36.5595C32.4554 42.8845 40.7385 49.997 47.2394 56.368C44.4829 56.2386 10.0392 55.5187 5.77577 55.9533C12.3225 49.319 19.9484 42.2015 26.0754 36.5595ZM48.4456 30.0226C48.7995 38.2886 47.9701 45.6449 48.0367 53.6236C47.5062 52.4585 35.966 43.5726 34.9589 42.8017C39.369 38.4416 43.9473 34.4423 48.4456 30.0226ZM3.93724 55.8056C4.00107 46.5327 4.62576 38.3034 4.02644 29.4503C8.53822 33.9702 12.8053 38.2666 17.6854 42.4272C13.0802 46.7529 8.24464 51.4047 3.93724 55.8056ZM36.4127 2.83893C40.0734 1.06105 44.4207 1.06235 48.41 2.18505C56.1193 4.35406 61.0865 10.6631 57.052 17.7649C53.8073 22.6426 47.825 23.4001 42.0794 22.4378C41.7733 22.3858 41.4664 22.5421 41.329 22.8228C40.1779 25.1677 37.913 26.9193 35.3982 27.5194C36.7486 25.613 37.249 23.7382 36.9256 21.8262C36.8745 21.522 36.6319 21.2867 36.3264 21.2444C32.5933 20.7293 29.5822 16.7155 29.7504 12.4798C29.9052 8.57264 32.5828 4.69809 36.4127 2.83893ZM25.5434 9.27109C26.5181 10.0584 27.4747 10.8663 28.3982 11.686C27.8257 16.8827 31.3583 21.6332 35.593 22.5476C35.723 24.3093 34.9414 26.089 33.2141 27.9707C32.8015 28.4209 33.1181 29.1539 33.7343 29.1539C33.7403 29.1539 33.7467 29.1539 33.7531 29.1534C33.7555 29.1534 33.7578 29.1528 33.7602 29.1528C35.242 29.3692 37.086 29.1557 38.573 29.1383C40.4277 28.0075 41.7437 26.8737 43.2389 25.342C44.7094 26.5595 46.125 27.6394 47.7448 28.7325C43.1743 33.2478 38.3699 37.4314 33.8273 41.9348C32.9825 41.2941 28.2275 36.7207 26.6179 35.1114C26.3091 34.8026 25.809 34.8857 25.5537 35.1206C23.436 37.0692 21.1154 39.2174 18.7222 41.4574C13.6149 37.1148 9.11127 32.5471 4.28301 27.7094C11.1408 21.5022 19.3374 16.1697 25.5434 9.27109Z" fill="#242424"/>
<path d="M36.3433 10.4585H51.4541C51.8438 10.4585 52.1599 10.1423 52.1599 9.75268C52.1599 9.36301 51.8438 9.04688 51.4541 9.04688H36.3433C35.9536 9.04688 35.6375 9.36301 35.6375 9.75268C35.6375 10.1423 35.9536 10.4585 36.3433 10.4585Z" fill="#242424"/>
<path d="M51.2925 13.7539H42.9079C42.5183 13.7539 42.2021 14.07 42.2021 14.4597C42.2021 14.8494 42.5183 15.1655 42.9079 15.1655H51.2925C51.6822 15.1655 51.9984 14.8494 51.9984 14.4597C51.9984 14.07 51.6822 13.7539 51.2925 13.7539Z" fill="#242424"/>
</svg>
