<svg width="68" height="60" viewBox="0 0 68 60" fill="none" xmlns="http://www.w3.org/2000/svg">
<path d="M41 31.5L38 36.5L40 39L44.5 40L50 39L54 35.5L55.5 31.5V27.5L52.5 30.5L48 25L44 33.5L41 31.5Z" fill="#FFCD61"/>
<path d="M66.9897 55.8909C66.8174 55.2454 61.533 48.0896 58.3706 43.3254C58.2934 43.2094 58.1855 43.1333 58.069 43.0764C58.3612 41.5481 57.8971 39.5769 57.2777 38.5233C64.3221 28.5451 57.226 13.5044 44.3152 14.7053C43.9967 13.6671 43.5683 12.5427 43.3863 12.0767C42.0266 8.52921 38.4408 4.96893 33.8067 2.55907C33.7989 2.55483 33.7914 2.55145 33.7836 2.54722C33.7827 2.54673 33.7822 2.5458 33.7812 2.54531C33.7803 2.54488 33.7793 2.54501 33.7784 2.54458C33.1899 2.22578 32.6076 1.94524 32.0526 1.71419C27.5453 -0.211346 22.6558 -0.510983 17.1037 0.796613C17.086 0.79956 17.0683 0.80349 17.0506 0.80742C16.7957 0.865382 16.5413 0.94594 16.3325 1.0265C16.0049 1.1326 15.7185 1.23772 15.4444 1.34971C15.4115 1.36052 15.3594 1.38213 15.3078 1.40669C12.113 2.63318 9.24983 4.58855 6.99635 7.05049C-5.99734 19.7801 -0.0478275 41.939 17.8738 46.6312C24.3599 48.3232 30.5394 47.2711 36.1196 43.3663C40.345 46.1674 45.6046 46.4498 49.8094 44.7412C49.9376 45.9039 51.1109 46.8457 52.2739 46.7194C53.7336 50.2717 56.3598 53.2297 58.7038 56.272C59.4332 57.2186 60.8703 59.2139 62.0113 59.6064C62.4599 60.0717 64.5428 60.2469 65.8217 59.438C66.78 58.8328 67.286 57.5744 67.3626 56.5949C67.3861 56.2979 67.2299 56.0328 66.9897 55.8909ZM56.4303 43.3195C55.3039 45.4222 52.3312 45.6213 50.9243 43.6486C52.9729 42.7788 54.781 41.4711 56.2352 39.8367C56.6666 40.9392 56.845 42.5452 56.4303 43.3195ZM45.7549 16.1419C54.2817 16.1419 59.894 24.3669 58.2389 32.5787C56.4069 41.6602 46.1784 46.1373 38.1303 41.4706C30.1119 36.8372 29.3864 24.6922 37.3508 18.9074C39.8221 17.1116 42.8278 16.1419 45.7549 16.1419ZM42.8025 14.9243C38.3119 15.8032 34.4611 18.5695 32.2906 22.2268C27.9605 28.1957 28.5886 36.7019 34.3555 41.9845C16.2203 52.0093 -3.33213 33.2316 3.9174 14.7559C24.6465 24.3289 23.442 23.8696 23.7596 23.8696C23.9423 23.8696 24.1235 23.8028 24.265 23.6751C24.2791 23.6625 24.2874 23.6458 24.3003 23.6323C24.4032 23.6082 24.5037 23.5702 24.5926 23.5012C29.8429 19.4049 35.727 15.4539 41.2733 11.1575C41.8893 12.2253 42.4286 13.7487 42.8025 14.9243ZM40.4413 9.89415C35.6552 13.6092 30.8385 16.8738 25.301 21.0753L33.7663 4.25343C36.1068 5.57017 38.6909 7.54403 40.4413 9.89415ZM31.4661 3.10431C31.7791 3.23448 32.1028 3.38645 32.4317 3.54916L23.7581 20.785L17.5275 2.61562C17.496 2.50049 17.4626 2.38585 17.4313 2.27061C22.6629 1.03331 27.2535 1.30471 31.4661 3.10431ZM65.0161 58.1628C64.557 58.4526 63.4867 58.6175 62.8033 58.3779C59.5461 53.4802 57.697 51.1233 54.5507 46.4275C55.6796 46.1797 56.7122 45.5202 57.4015 44.5922C60.691 49.5177 62.326 51.5077 65.6409 56.5016C65.6888 56.5737 65.7586 56.6171 65.8238 56.6667C65.7249 57.2967 65.4029 57.9183 65.0161 58.1628Z" fill="#242424"/>
<path d="M46.3971 40.7916C57.485 39.8877 60.3959 23.8061 49.3468 19.3485C49.3416 19.3461 49.3364 19.3443 49.3312 19.3423C49.3307 19.3421 49.3302 19.3418 49.3296 19.3416C49.3294 19.3415 49.3298 19.3416 49.3296 19.3416C49.3247 19.3397 49.3193 19.3375 49.3144 19.3357L49.1999 19.2925C49.1985 19.2915 49.198 19.2964 49.194 19.2895C42.5226 16.7877 35.5837 20.9187 34.2461 27.4878C32.7696 34.8058 38.772 41.5487 46.3971 40.7916ZM45.6829 39.3278C45.6803 39.3278 45.6779 39.3278 45.6755 39.3278C42.5881 39.5121 40.3295 38.0024 40.2261 37.9711C39.997 37.8131 39.4405 37.5026 38.6751 36.8012C40.6733 33.5078 41.3425 32.4047 41.2787 32.5099C43.8582 34.2341 44.1669 34.8554 44.8061 34.6378C45.6868 34.3398 45.1193 33.1045 48.2878 26.5073C49.5575 28.0556 50.7212 29.7031 51.7562 31.4174C52.0827 31.958 52.8491 31.8729 53.0903 31.3369C53.499 30.4265 54.0817 29.6082 54.7904 28.9129C55.2018 34.1846 51.3445 39.0218 45.6829 39.3278ZM35.7251 27.7874C36.9177 21.9324 43.1055 18.7536 48.0839 20.5116C48.1875 20.579 53.0768 21.9026 54.4937 27.1685C53.6538 27.8327 52.9259 28.6257 52.3545 29.5273C51.2498 27.8159 50.0208 26.1782 48.6911 24.6456C48.3379 24.2396 47.6897 24.3224 47.4483 24.7989C46.1613 27.3414 45.0581 29.9978 44.1616 32.7093C41.5572 30.9451 41.4487 30.5619 40.9015 30.6855C40.6962 30.7278 40.5174 30.8545 40.4088 31.0333L37.6114 35.6534C35.8992 33.4725 35.1574 30.6011 35.7251 27.7874Z" fill="#242424"/>
<path d="M44.7511 8.54742L46.7778 3.85934C46.9434 3.47619 46.767 3.03214 46.3849 2.8671C46.0012 2.70107 45.5582 2.8779 45.3926 3.26006L43.3659 7.94815C42.9697 8.86286 44.3552 9.46219 44.7511 8.54742Z" fill="#242424"/>
<path d="M47.7836 11.7252C48.4353 11.7252 48.4239 11.2335 51.7078 7.41924C51.974 7.09897 51.9298 6.62348 51.6091 6.35725C51.2883 6.09101 50.8119 6.1362 50.5466 6.45647L47.2029 10.4893C46.9372 10.8105 46.9819 11.286 47.3027 11.5513C47.4436 11.6682 47.6141 11.7252 47.7836 11.7252Z" fill="#242424"/>
<path d="M51.7453 14.0196C51.8945 14.0196 51.5607 14.0747 56.2752 12.9939C56.6809 12.9006 56.9344 12.4948 56.8405 12.0891C56.7467 11.6834 56.3425 11.4279 55.9353 11.5242L51.5763 12.5302C50.7075 12.7298 50.8501 14.0196 51.7453 14.0196Z" fill="#242424"/>
</svg>
