<svg width="60" height="60" viewBox="0 0 60 60" fill="none" xmlns="http://www.w3.org/2000/svg">
<path d="M14.9999 19.9993C13.3999 22.7993 15.9999 24.166 17.4999 24.4993C20.6999 24.4993 20.8333 21.8326 20.5 20.4993C18.9 17.2993 16.1666 18.8326 14.9999 19.9993Z" fill="#FFCD61"/>
<path d="M14.9999 30.9993C13.3999 33.7993 15.9999 35.166 17.4999 35.4993C20.6999 35.4993 20.8333 32.8326 20.5 31.4993C18.9 28.2993 16.1666 29.8326 14.9999 30.9993Z" fill="#FFCD61"/>
<path d="M14.9999 42.9993C13.3999 45.7993 15.9999 47.166 17.4999 47.4993C20.6999 47.4993 20.8333 44.8326 20.5 43.4993C18.9 40.2993 16.1666 41.8326 14.9999 42.9993Z" fill="#FFCD61"/>
<path d="M18.5148 25.191C20.3581 24.6923 21.6083 22.6201 21.1898 20.7559C20.7703 18.8936 18.7501 17.5525 16.8746 17.8928C16.7615 17.9127 16.6602 17.9597 16.5751 18.0249C16.4688 18.0104 16.3579 18.0222 16.2503 18.062C14.4567 18.7189 13.3907 20.8908 13.9689 22.7106C14.5447 24.5252 16.6641 25.6918 18.5148 25.191ZM16.7281 19.3669C16.7955 19.3424 16.857 19.3081 16.9113 19.2664C16.9792 19.2746 17.0493 19.2737 17.1199 19.261C18.2845 19.0556 19.5745 19.9116 19.8333 21.0609C20.0921 22.2129 19.2903 23.5413 18.1519 23.8499C17.0117 24.1539 15.6503 23.4137 15.2937 22.2898C14.9363 21.1659 15.6204 19.7732 16.7281 19.3669Z" fill="#242424"/>
<path d="M26.3626 22.3821C29.2962 22.434 42.9922 22.6735 42.8607 22.6735C43.2385 22.6735 43.5484 22.3704 43.5552 21.9912C43.562 21.6066 43.2561 21.2908 42.8724 21.2836L26.387 20.9922C26.3829 20.9922 26.3789 20.9922 26.3743 20.9922C25.9965 20.9922 25.6866 21.2953 25.6798 21.6745C25.673 22.0582 25.9789 22.3749 26.3626 22.3821Z" fill="#242424"/>
<path d="M18.3061 36.6664C20.1499 36.1678 21.3996 34.0955 20.9806 32.2323C20.5621 30.3681 18.5454 29.0325 16.6655 29.3682C16.5528 29.389 16.4514 29.4352 16.3664 29.5003C16.2587 29.4858 16.1496 29.4976 16.042 29.5374C14.248 30.1926 13.182 32.3653 13.7597 34.1869C14.3341 35.9942 16.4491 37.1689 18.3061 36.6664ZM16.5189 30.8423C16.5867 30.8179 16.6483 30.7835 16.7026 30.7419C16.7718 30.7518 16.841 30.7491 16.9116 30.7364C18.0735 30.5202 19.3657 31.3862 19.6241 32.5372C19.8834 33.6883 19.082 35.0167 17.9432 35.3253C16.803 35.6312 15.4415 34.8891 15.0846 33.7661C14.7276 32.6413 15.4112 31.2477 16.5189 30.8423Z" fill="#242424"/>
<path d="M26.1536 33.8587L42.6395 34.1501H42.6521C43.0299 34.1501 43.3399 33.8469 43.3467 33.4678C43.3534 33.0832 43.0476 32.7674 42.6639 32.7601L26.178 32.4688C26.1739 32.4688 26.1699 32.4688 26.1653 32.4688C25.7875 32.4688 25.4776 32.7719 25.4708 33.1511C25.464 33.5357 25.7699 33.8515 26.1536 33.8587Z" fill="#242424"/>
<path d="M18.306 47.7259C20.1498 47.2273 21.3995 45.155 20.9805 43.2927C20.5616 41.4285 18.5418 40.0883 16.6659 40.4277C16.5528 40.4476 16.4514 40.4946 16.3663 40.5598C16.2596 40.5453 16.1492 40.558 16.0415 40.5969C14.2484 41.2539 13.1819 43.4257 13.7597 45.2464C14.3437 47.0836 16.485 48.2236 18.306 47.7259ZM16.5193 41.9018C16.5867 41.8774 16.6482 41.843 16.7025 41.8014C16.7704 41.8104 16.841 41.8077 16.9111 41.7959C18.0785 41.5914 19.3657 42.4457 19.6241 43.5976C19.8833 44.7478 19.082 46.0762 17.9427 46.3848C16.8043 46.6879 15.442 45.9495 15.0845 44.8256C14.7275 43.7008 15.4116 42.3081 16.5193 41.9018Z" fill="#242424"/>
<path d="M26.1536 44.9181L42.6395 45.2104H42.6521C43.0299 45.2104 43.3399 44.9073 43.3467 44.5281C43.3534 44.1444 43.0476 43.8277 42.6639 43.8204L26.178 43.5282C25.8296 43.5092 25.4776 43.8268 25.4708 44.2105C25.464 44.5942 25.7699 44.9109 26.1536 44.9181Z" fill="#242424"/>
<path d="M44.2091 0.509797L42.7169 5.88866C42.5942 6.32983 42.9259 6.76915 43.387 6.76915C43.6915 6.76915 43.9707 6.56735 44.0562 6.25967L45.5484 0.880815C45.6511 0.511607 45.4344 0.127919 45.0647 0.0256631C44.6923 -0.077498 44.3114 0.139683 44.2091 0.509797Z" fill="#242424"/>
<path d="M53.6643 3.15969C53.3951 2.8864 52.9553 2.88459 52.6815 3.15245C51.0929 4.71796 49.7975 6.53143 48.8315 8.54217C48.6655 8.88875 48.8112 9.30411 49.1573 9.46971C49.4947 9.63365 49.9154 9.49652 50.0849 9.14484C50.9812 7.27799 52.1829 5.59483 53.657 4.14243C53.9303 3.87277 53.9335 3.43297 53.6643 3.15969Z" fill="#242424"/>
<path d="M54.4193 12.1319C56.2432 11.7726 57.9544 10.9437 59.3684 9.73562C59.6602 9.48586 59.6946 9.04788 59.4453 8.75559C59.196 8.4633 58.7584 8.42891 58.4652 8.67867C57.2327 9.732 55.7405 10.455 54.1506 10.769C53.7737 10.8432 53.5289 11.2088 53.6031 11.5853C53.6774 11.963 54.045 12.2067 54.4193 12.1319Z" fill="#242424"/>
<path d="M5.3584 51.4649C10.2472 57.2859 18.206 59.678 25.8021 59.9686C31.7755 60.1972 38.1002 59.1337 43.0022 55.8858C49.9266 52.6062 54.7448 47.0212 56.8477 40.9808C59.4217 33.5858 58.0711 24.856 53.3239 18.1994C45.8017 7.65276 30.8032 3.2873 18.9463 7.85574C14.5621 8.83323 7.40641 13.6415 4.49663 18.212C-1.53093 27.6799 -1.74611 43.0058 5.3584 51.4649ZM9.24108 16.5597C20.2647 2.82484 42.4884 5.39935 52.1919 19.0066C56.6821 25.3021 57.963 33.5478 55.5346 40.5247C53.5043 46.3573 48.7655 51.827 41.6866 54.9467C39.4383 55.7446 37.1616 56.4742 34.8641 57.0274C27.2788 58.4164 17.2289 57.3542 11.2432 52.2652C2.48083 44.8129 0.376839 27.6001 9.24108 16.5597Z" fill="#242424"/>
</svg>
