<svg width="60" height="60" viewBox="0 0 60 60" fill="none" xmlns="http://www.w3.org/2000/svg">
<path d="M10.5 16.5H7.5H5.5H4H1L1.5 14.5L2 12.6118L2.55814 11.6941L3.53488 10.9176L4.72727 10.2824L5.62791 10L7 9.5H9.5L12.0465 10.6353L13.4419 11.4824L15 13L17 16.5H14H12H10.5Z" fill="#FFCD61"/>
<path d="M51.5 58.5H48.5H46.5H45H42L42.5 56.5L43 54.6118L43.5581 53.6941L44.5349 52.9176L45.7273 52.2824L46.6279 52L48 51.5H50.5L53.0465 52.6353L54.4419 53.4824L56 55L58 58.5H55H53H51.5Z" fill="#FFCD61"/>
<path d="M50.0465 49.6706L48.4186 50L47.1163 49.6706L46.2209 49.0118L45.4884 48.2706L45.0814 47.1176L45 46.0471L45.3256 44.9765L45.8953 44.0706L46.5909 43.3294H46.7907L47.686 43H49.3953L50.8605 43.7412L51.6744 44.7294L52 46.0471V47.2L51.4302 48.4353L50.6977 49.2588L50.0465 49.6706Z" fill="#FFCD61"/>
<path d="M9.04651 6.71765L7.4186 7L6.11628 6.71765L5.22093 6.15294L4.48837 5.51765L4.0814 4.52941L4 3.61176L4.32558 2.69412L4.89535 1.91765L5.59091 1.28235H5.7907L6.68605 1H8.39535L9.86047 1.63529L10.6744 2.48235L11 3.61176V4.6L10.4302 5.65882L9.69767 6.36471L9.04651 6.71765Z" fill="#FFCD61"/>
<path d="M8.24312 8.06741C11.2597 7.93195 12.9623 4.96386 11.2883 2.33088C11.2878 2.32992 11.2876 2.32884 11.2871 2.32788C11.2836 2.32058 11.278 2.3147 11.2743 2.30745C11.2278 2.2354 11.189 2.15917 11.138 2.09029C9.33463 -1.01272 4.53645 -0.556381 3.32373 2.76617C2.24639 5.71371 4.91189 8.74432 8.24312 8.06741ZM4.62953 3.2443C5.47989 0.918757 8.95126 0.734017 10.0393 2.94275C11.0833 5.0648 8.86165 7.407 6.4207 6.63557C4.87902 6.14814 4.1293 4.61566 4.62953 3.2443Z" fill="#242424"/>
<path d="M53.3961 52.1532C51.8787 51.1772 50.2264 50.6686 48.4552 50.8727C46.6812 51.0774 44.9915 51.8923 43.6975 53.1655C42.2574 54.579 41.6813 56.2855 41.0596 58.0972C40.97 58.3181 40.8577 58.5925 40.8667 58.8913C40.8779 59.2481 41.1581 59.5255 41.5059 59.5548C41.8332 60.1215 41.9977 60.0106 44.8138 59.9467C46.1159 59.9172 57.6347 59.6557 58.8893 59.6273C59.1183 59.622 59.2856 59.3999 59.2217 59.1799C58.2461 55.8216 55.823 53.3418 53.3961 52.1532ZM44.6727 54.1571C45.8603 52.9886 47.4559 52.2787 49.09 52.2211C50.672 52.1703 52.12 52.7734 53.7644 54.1481C55.2504 55.3905 56.1225 56.5532 56.5626 57.9124L42.5148 58.1569C43.023 56.6533 43.5417 55.2679 44.6727 54.1571Z" fill="#242424"/>
<path d="M44.2312 46.606C44.3454 49.0818 46.7145 50.8852 49.307 50.4102C52.5229 50.3272 54.1387 47.0729 52.3211 44.498C51.3003 42.6484 49.0666 41.8525 46.9948 42.6183C50.4027 36.3735 50.3562 28.6376 47.3516 22.5289C45.0746 17.8996 41.0225 14.1956 36.2636 12.231C29.6105 8.93393 21.8747 9.20307 15.9158 12.3861C14.9097 11.2951 13.7703 10.3675 12.3919 9.72715C10.8569 8.77979 9.21385 8.30059 7.41265 8.5496C5.64411 8.79319 3.97247 9.6435 2.70561 10.9457C1.93861 11.7335 1.35272 12.6807 0.861009 13.9277C0.62285 14.5335 0.42544 15.1565 0.227125 15.794C0.172674 15.9768 -0.0196883 16.3426 0.00164377 16.7348C0.021679 17.0903 0.307832 17.3631 0.655959 17.3837C0.999321 17.9458 0.413509 17.8592 9.51171 17.4541C3.76071 24.0487 3.00062 33.6116 6.48537 40.8206C7.95281 43.8768 10.163 46.5234 12.8524 48.597C13.8518 49.634 16.8881 51.5536 17.449 51.8184C18.7829 52.4483 20.1767 52.9506 21.6048 53.3196C30.6628 55.6598 38.6859 53.0192 44.2312 46.606ZM51.204 45.3257C52.1975 47.4603 49.9353 49.7646 47.5058 48.9388C45.9748 48.418 45.2572 46.8681 45.7889 45.5086C46.6887 43.1978 50.1705 43.1051 51.204 45.3257ZM17.0136 32.2935C20.0944 32.3159 23.159 32.4203 26.1962 32.5639C26.1775 34.9163 26.1265 37.2676 26.0545 39.6174C23.3468 39.6023 20.6402 39.9983 18.0361 40.8159C17.2496 38.133 16.8882 35.236 17.0136 32.2935ZM25.6391 11.2913C25.8715 15.1 26.0259 18.9237 26.1165 22.7532C23.6561 22.8281 21.203 22.5387 18.8439 21.8969C20.2208 17.7963 22.3635 14.3222 25.3516 11.2967C25.4475 11.2927 25.5432 11.294 25.6391 11.2913ZM41.9182 18.3891C44.3248 21.1883 45.9614 24.6234 46.5758 28.3087C46.7632 29.427 46.8628 30.5562 46.8719 31.6673C46.8729 31.7612 46.8674 31.854 46.8672 31.9477C43.9114 32.0002 40.7369 31.9007 37.4195 31.7465C37.2111 28.4172 36.5723 25.1962 35.5126 22.143C37.7847 21.2122 39.9484 19.9677 41.9182 18.3891ZM36.0218 31.6841C33.2784 31.5465 31.1243 31.4171 27.5952 31.2408C27.604 28.8502 27.5791 26.4603 27.5331 24.0717C29.7975 23.8867 32.0482 23.4155 34.217 22.6574C35.2083 25.5302 35.8129 28.5567 36.0218 31.6841ZM36.0791 33.0774C36.12 35.7949 35.6518 38.5366 34.7509 41.1229C32.388 40.2839 29.9243 39.8101 27.4446 39.666C27.5164 37.3226 27.5673 34.9778 27.5863 32.632C31.2349 32.8155 32.7283 32.9098 36.0791 33.0774ZM27.402 41.0536C29.7286 41.1924 32.0399 41.6368 34.2578 42.4218C32.6658 46.2794 30.1165 49.6941 26.9124 52.005C26.8838 52.0052 26.8552 52.0036 26.8266 52.0037C27.0838 48.3647 27.2735 44.7124 27.402 41.0536ZM35.5434 42.9356C37.4956 43.7519 39.3628 44.8181 41.0875 46.1496C37.8694 49.3839 33.6825 51.3138 29.2962 51.863C31.972 49.4947 34.1213 46.3843 35.5434 42.9356ZM36.0365 41.6373C36.9966 38.9069 37.5018 36.0129 37.47 33.1431C40.1454 33.2671 42.7359 33.358 45.1921 33.358C45.7412 33.358 46.2799 33.3507 46.816 33.3415C46.5141 37.7623 44.8431 41.8763 42.0427 45.1261C40.1792 43.6723 38.1539 42.5179 36.0365 41.6373ZM39.7742 16.2033C39.8847 16.3129 39.9943 16.4134 40.1066 16.5148C40.4082 16.7847 40.6899 17.0738 40.9738 17.3609C39.1414 18.8174 37.1357 19.9726 35.03 20.841C33.7216 17.5038 31.9033 14.3834 29.6107 11.5532C33.6006 12.1958 37.0722 13.8552 39.7742 16.2033ZM33.7349 21.3497C31.7125 22.0558 29.6165 22.4957 27.5063 22.6757C27.4159 18.8707 27.2621 15.0715 27.0324 11.2867C27.2518 11.2949 27.4699 11.3181 27.6887 11.3331C27.8845 11.9494 31.199 14.881 33.7349 21.3497ZM26.1429 24.1297C26.188 26.4763 26.2123 28.8241 26.2041 31.1727C23.2393 31.0341 20.1865 30.9322 17.0989 30.9088C17.3175 28.1271 17.7571 25.5753 18.431 23.2246C21.2712 24.0017 23.6716 24.2033 26.1429 24.1297ZM26.0119 41.0055C25.8838 44.6518 25.6948 48.2915 25.4383 51.9179C25.1908 51.5622 20.9259 49.0808 18.4628 42.1374C20.9145 41.3684 23.4624 40.9949 26.0119 41.0055ZM23.0007 51.6613C18.6545 50.8353 14.6037 48.6354 11.5501 45.5602C11.9374 45.3308 13.8785 43.8218 17.1505 42.5882C18.4213 46.1727 20.4298 49.3229 23.0007 51.6613ZM23.2751 11.4813C20.6783 14.3993 18.7739 17.6981 17.5042 21.5075C15.1371 20.7122 12.9037 19.5272 10.8895 17.9804C10.979 17.883 11.0622 17.7652 11.4567 17.3676C18.8178 17.0399 16.5801 17.1395 18.0351 17.0748C18.2639 17.0646 18.4263 16.8389 18.3576 16.6203C17.9851 15.4352 17.4615 14.4161 16.8066 13.4905C19.021 12.3708 21.1142 11.7859 23.2751 11.4813ZM3.70171 11.9164C4.84935 10.7372 6.41695 9.98142 8.07642 9.88438C9.66475 9.80741 11.1182 10.3688 12.7925 11.7091C14.3057 12.9198 15.2022 14.0626 15.6712 15.4118L1.63254 15.9615C2.10766 14.4448 2.59931 13.0484 3.70171 11.9164ZM9.9848 19.0407C12.1458 20.7103 14.5483 21.9815 17.0939 22.8314C16.3867 25.2999 15.9283 27.9783 15.7045 30.8972C12.4 30.9009 9.07042 31.0164 5.78289 31.3013C5.81861 26.9842 7.16518 22.6079 9.9848 19.0407ZM7.73774 40.2175C6.60184 37.8671 5.96643 35.2954 5.81504 32.6935C9.08989 32.406 12.3637 32.2885 15.6224 32.2826C15.4962 35.3813 15.8848 38.4348 16.724 41.2666C14.6494 42.0421 12.6526 43.0798 10.7967 44.4039C10.7292 44.452 10.6783 44.5135 10.6337 44.5781C9.47413 43.2501 8.49144 41.7864 7.73774 40.2175Z" fill="#242424"/>
</svg>
