<svg width="65" height="51" viewBox="0 0 65 51" fill="none" xmlns="http://www.w3.org/2000/svg">
<path d="M4 8L4.26471 19L13 18.7179L12.7353 8H4Z" fill="#FFCD61"/>
<path d="M4 34L4.26471 47L13 46.6667L12.7353 34H4Z" fill="#FFCD61"/>
<path d="M48 7L48.2941 18L58 17.7179L57.7059 7H48Z" fill="#FFCD61"/>
<path d="M49 35L49.2647 47L58 46.6923L57.7353 35H49Z" fill="#FFCD61"/>
<path d="M23.8827 34.8842C24.3579 34.8842 32.4748 30.5049 37.1406 28.2067C37.6232 27.9686 37.7042 27.3235 37.3117 26.9714C33.4895 23.5348 28.635 21.1287 24.4048 18.4057C23.9105 18.0889 23.2639 18.4327 23.245 19.0145C23.0817 24.0332 23.0435 29.1234 23.1298 34.144C23.1368 34.5572 23.4766 34.8842 23.8827 34.8842Z" fill="#242424"/>
<path d="M57.3868 0.673477L57.0559 3.81466C57.0099 4.25463 57.3537 4.64604 57.8059 4.64604C58.1863 4.64604 58.5128 4.35878 58.5539 3.97153L58.8848 0.83034C58.928 0.417593 58.6284 0.0470041 58.2147 0.00288619C57.802 -0.032408 57.4309 0.25975 57.3868 0.673477Z" fill="#242424"/>
<path d="M60.8165 5.42259L63.4617 2.77749C63.7558 2.48337 63.7558 2.0069 63.4617 1.71278C63.1675 1.41866 62.6911 1.41866 62.3969 1.71278L59.7518 4.35788C59.4577 4.652 59.4577 5.12847 59.7518 5.42259C60.046 5.7167 60.5224 5.71672 60.8165 5.42259Z" fill="#242424"/>
<path d="M64.4275 8.12827L60.9559 7.3018C60.5466 7.20572 60.1451 7.45572 60.0491 7.85965C59.9525 8.26455 60.2025 8.67043 60.6069 8.76651L64.0785 9.59299C65.0673 9.82371 65.3806 8.35471 64.4275 8.12827Z" fill="#242424"/>
<path d="M0.573712 48.6171C0.590624 49.5729 1.36979 50.3479 2.32562 50.3575C21.0148 50.5457 38.2533 50.6028 55.952 50.5114C56.6784 50.5077 57.351 50.1085 57.695 49.4688C57.9736 48.9509 58.208 48.5501 58.6501 47.8818C58.8811 47.7577 59.0448 47.5239 59.052 47.2445C59.2049 41.52 58.9897 35.3945 58.7623 28.9082C57.9552 5.91222 58.9271 6.77569 58.3471 6.17376C58.2049 6.02474 58.0088 5.94141 57.8034 5.94141C44.0318 5.94141 20.6646 6.12577 3.39982 6.62572C3.15136 6.63283 2.94504 6.76739 2.8133 6.95759L0.898161 8.82352C0.472976 9.23774 0.220279 9.80343 0.19626 10.3966C-0.330213 23.402 0.34387 35.632 0.573712 48.6171ZM57.4776 35.8822C57.5786 39.5521 57.6359 43.1038 57.5637 46.4906C54.8542 46.559 52.1288 46.5996 49.3984 46.6242C49.4682 43.0464 49.4796 39.457 49.4407 35.8631C49.4738 35.8675 49.503 35.8827 49.5372 35.8827C49.642 35.8827 57.579 35.8822 57.4776 35.8822ZM57.4362 34.3768H49.5372C49.4957 34.3768 49.4598 34.394 49.42 34.4003C49.3411 29.1042 49.1467 23.802 48.8335 18.5152C49.1205 18.5295 54.8831 18.5218 56.9515 18.5238C57.0499 23.8149 57.2512 28.3231 57.4362 34.3768ZM57.0177 7.44925C56.8957 10.5618 56.8905 13.7767 56.934 17.0179C48.2609 17.0372 49.0718 16.9851 48.7479 17.0439C48.5454 13.8483 48.3016 10.6598 48.0139 7.48357C51.0803 7.46886 54.0911 7.45783 57.0177 7.44925ZM46.5184 7.49141C46.5012 8.56247 48.331 24.256 47.892 46.6298C36.3266 46.7059 26.4132 46.4973 13.7711 46.4521L13.1869 7.89043C24.3053 7.65685 35.7417 7.54778 46.5184 7.49141ZM12.2647 46.446C11.9717 46.4454 8.84753 46.4239 4.34296 46.4651C4.36895 42.5261 4.37477 38.5337 4.36895 34.553C4.59128 34.5664 8.45217 34.5571 12.0847 34.5601L12.2647 46.446ZM12.0619 33.0543C10.3992 33.0557 4.60694 33.0483 4.36649 33.0618C4.35645 28.6496 4.3312 24.2753 4.29719 20.012H11.8643L12.0619 33.0543ZM11.6812 7.92279L11.8415 18.5062H4.285C4.25467 14.9307 4.21956 11.4395 4.18267 8.11004C6.65461 8.04019 9.1594 7.97867 11.6812 7.92279Z" fill="#242424"/>
</svg>
