<svg width="70" height="60" viewBox="0 0 70 60" fill="none" xmlns="http://www.w3.org/2000/svg">
<path d="M18.0978 16.0273C18.1997 17.0921 18.517 18.2186 17.7926 18.8317C17.0681 19.4447 16.0549 19.5484 15.2324 19.0934C14.4098 18.6385 14.7199 17.3867 14.6262 16.3212C13.9363 16.7032 12.0892 17.3124 11.362 16.9986C11.936 17.2463 11.5998 27.9449 6.98486 32.6731C8.93338 34.0255 11.5338 34.3617 13.595 33.3961C14.2811 33.0748 14.9492 32.6219 15.6918 32.5993C17.1133 32.556 18.3227 34.0845 19.7457 34.1418C21.7851 34.2236 21.505 32.52 25.0802 33.5919C25.8848 33.833 27.1302 32.6305 27.5108 31.7706C23.7271 27.2647 21.9422 22.3306 21.7359 16.0378C20.7759 16.2832 19.0691 16.2631 18.0978 16.0273Z" fill="#242424"/>
<path d="M47 36L52.5 58.5L57 52L63 58.5L65.5 56.5L60 49.5L68 46.5L47 36Z" fill="#FFCD61"/>
<path d="M48.5691 15.6401C48.5691 15.2112 48.2211 14.8633 47.7923 14.8633H33.299C32.8701 14.8633 32.5222 15.2112 32.5222 15.6401C32.5222 16.0689 32.8701 16.4168 33.299 16.4168H47.7923C48.2211 16.4168 48.5691 16.0689 48.5691 15.6401Z" fill="#242424"/>
<path d="M33.8197 22.5262H43.5699C43.9988 22.5262 44.3467 22.1783 44.3467 21.7494C44.3467 21.3206 43.9988 20.9727 43.5699 20.9727H33.8197C33.3909 20.9727 33.043 21.3206 33.043 21.7494C33.043 22.1783 33.3909 22.5262 33.8197 22.5262Z" fill="#242424"/>
<path d="M42.3344 27.1127C42.3344 26.6839 41.9864 26.3359 41.5576 26.3359H33.6244C33.1956 26.3359 32.8477 26.6839 32.8477 27.1127C32.8477 27.5416 33.1956 27.8895 33.6244 27.8895H41.5576C41.9864 27.8895 42.3344 27.5416 42.3344 27.1127Z" fill="#242424"/>
<path d="M44.4001 36.4878L41.5771 35.7777C41.1615 35.6726 40.7387 35.9254 40.634 36.3421C40.5293 36.7578 40.7822 37.1796 41.1979 37.2848L44.0208 37.9948C44.4312 38.099 44.858 37.8506 44.9639 37.4304C45.0686 37.0147 44.8157 36.593 44.4001 36.4878Z" fill="#242424"/>
<path d="M44.3187 31.4808C44.0431 31.1521 43.5531 31.1086 43.2244 31.3857C42.8962 31.6609 42.8532 32.1514 43.1293 32.4801L45.0101 34.7184C45.2856 35.0476 45.7767 35.0889 46.1044 34.8135C46.4326 34.5374 46.4746 34.0468 46.1985 33.7191L44.3187 31.4808Z" fill="#242424"/>
<path d="M49.7908 30.5065C49.8895 30.0888 49.631 29.6701 49.2138 29.572C48.7941 29.4729 48.3779 29.7308 48.2787 30.1485C48.0082 31.2924 48.0456 32.491 48.3865 33.6167C48.4881 33.9515 48.7961 34.1679 49.1294 34.1679C49.6524 34.1679 50.0239 33.6628 49.8733 33.1656C49.6118 32.3028 49.583 31.3835 49.7908 30.5065Z" fill="#242424"/>
<path d="M68.7148 46.1224C66.5856 44.8904 64.5101 43.8328 62.7038 42.9387C62.7065 42.8261 63.6094 1.32802 62.2735 0.552413C62.1437 0.477245 32.7408 -0.165709 4.98863 0.0406271C2.42494 -0.0470207 2.56719 1.13141 2.55791 2.2262C1.70527 3.33182 0.852636 4.43732 0 5.54281C0.0103671 20.5502 0.579992 35.6923 0.590359 50.71C10.1343 50.8832 33.9865 50.886 49.7771 50.9156L51.6287 59.0242C51.782 59.6906 52.6606 59.8453 53.0346 59.2771L57.1577 53.0254C59.1902 55.7482 60.1849 56.9993 62.6978 59.7474C62.9892 60.0661 63.4862 60.0869 63.8043 59.7889C64.7146 58.9302 65.5936 58.1028 66.4937 57.2643C66.8083 56.9719 66.8251 56.4773 66.5296 56.1629C64.3877 53.8915 63.2091 52.5865 61.2302 50.0033C65.9495 48.4631 64.8099 48.8335 68.5555 47.6163C69.2014 47.4069 69.3047 46.4659 68.7148 46.1224ZM61.3764 1.99774C61.6105 3.23371 61.1557 42.0756 61.1539 42.1809C56.6636 40.0165 52.1756 38.0165 47.5638 35.3608C46.9729 35.0235 46.2664 35.5523 46.4199 36.2104C47.2564 39.8098 47.957 42.9047 48.7651 46.4633H4.51458C5.11038 34.4702 4.95999 22.506 4.29675 10.5332H57.3307C57.7595 10.5332 58.1074 10.1853 58.1074 9.75643C58.1074 9.32758 57.7595 8.97965 57.3307 8.97965H4.21014C4.04462 5.99955 4.14612 2.51891 4.09351 1.65082C6.05294 1.1685 26.2973 1.64305 61.3764 1.99774ZM59.708 48.8624C59.1972 49.0276 59.0036 49.6496 59.3313 50.0751C59.7461 50.5969 61.3805 52.9426 64.8643 56.6605C64.3475 57.143 63.8337 57.6264 63.3138 58.116C60.9931 55.552 60.0448 54.3059 57.7428 51.2099C57.4168 50.773 56.7627 50.7999 56.4704 51.2463L52.7378 56.9053C52.714 56.8008 48.7941 39.5832 48.3305 37.5748C54.5397 40.9891 60.5136 43.3589 66.4937 46.6534C66.3797 46.6904 66.9576 46.5008 59.708 48.8624Z" fill="#242424"/>
<path d="M9.45334 7.25158C10.5023 7.25158 11.3241 6.31553 11.3068 5.34301C11.2867 4.28577 10.34 3.50469 9.3704 3.86329C8.52615 3.10074 7.13398 4.67653 7.68182 6.06416C7.96199 6.77621 8.69881 7.25158 9.45334 7.25158Z" fill="#242424"/>
<path d="M15.8553 7.25101C16.9042 7.25101 17.7261 6.31496 17.7087 5.34244C17.6888 4.28851 16.7469 3.50425 15.7729 3.86171C14.9294 3.10362 13.5368 4.67436 14.0838 6.06359C14.3639 6.77564 15.1008 7.25101 15.8553 7.25101Z" fill="#242424"/>
<path d="M22.2582 7.25005C23.3071 7.25005 24.129 6.314 24.1116 5.34148C24.0916 4.28701 23.1485 3.50231 22.1752 3.86176C21.3366 3.10429 19.9388 4.67104 20.4867 6.06263C20.7668 6.77468 21.5036 7.25005 22.2582 7.25005Z" fill="#242424"/>
</svg>
