<svg width="69" height="60" viewBox="0 0 69 60" fill="none" xmlns="http://www.w3.org/2000/svg">
<path d="M7.70508 44.6506C8.58777 44.9685 9.00871 44.8176 10.7297 44.8176C12.904 42.1946 14.7546 39.9132 16.9289 37.2902C16.0635 37.3054 15.2084 36.9997 14.4191 36.6445C12.5727 39.6175 10.2336 42.231 7.70508 44.6506Z" fill="#242424"/>
<path d="M31.3045 38.6153C31.3921 37.8282 31.4798 37.041 31.5674 36.2539C31.5292 36.5975 28.5837 37.199 28.2054 37.2867C27.0624 37.552 25.901 37.7379 24.7324 37.8442C22.3467 38.0611 19.9301 37.9461 17.5771 37.4945C17.1647 37.4154 15.7643 36.8013 15.7207 37.4063C15.6872 37.8695 15.4339 38.0753 15.7502 38.2739C17.476 39.3571 21.5049 39.9584 23.4828 39.9853C26.1448 40.0216 28.8161 39.5656 31.3045 38.6153Z" fill="#242424"/>
<path d="M42.6841 7.70129C38.9981 3.23755 33.6868 1.03154 27.9395 0.338393C22.1922 -0.35475 16.0805 0.0174032 11.2021 3.13405C17.9936 0.496482 25.7982 0.0768804 32.53 2.8631C39.2618 5.64932 44.6845 11.8744 45.6575 19.0947C45.8942 20.8513 45.851 22.7371 44.9513 24.2643C45.2582 23.7437 46.91 24.0474 47.3353 23.5287C47.6652 23.1264 47.5423 21.715 47.5545 21.2109C47.5945 19.5602 47.4277 17.9056 47.0732 16.2933C46.3502 13.005 44.8288 10.2985 42.6841 7.70129Z" fill="#242424"/>
<path d="M60.2068 59.5734C60.6486 59.9892 59.447 60.0419 58.079 59.9095C57.9135 59.8935 57.2406 59.5124 56.4319 58.3124C55.5512 57.0055 53.7798 54.8005 53.2691 53.4669C53.1417 53.1342 53.678 53.293 53.6576 52.9374C53.6372 52.5818 54.3719 52.6405 54.6436 52.4102C56.6575 54.8112 58.58 56.895 60.2068 59.5734Z" fill="#242424"/>
<path d="M55.1565 54.5687C49.9707 56.1044 45.1184 56.1688 40.4287 54.1093C35.7391 52.0497 32.0073 48.1571 30.8 43.1794C30.3934 41.5028 29.9708 39.6053 30.4406 37.9453C31.3446 42.864 34.0215 47.767 38.2539 50.4311C40.5863 51.8991 43.3591 52.7106 46.0474 53.2322C48.8068 53.7675 52.0557 53.2447 54.7505 52.5584C54.7617 53.3689 54.9266 54.177 55.2338 54.9271" fill="#242424"/>
<path d="M68.534 38.0574C68.967 43.4258 66.2484 48.8791 61.5944 51.5896C61.7599 50.7947 62.1955 50.1538 62.2019 49.3418C65.7613 45.7943 67.2824 40.3292 66.0677 35.4529C64.853 30.5766 58.3347 25.3813 53.5271 23.918C55.0559 24.3833 58.4605 25.2207 59.9462 25.9131C61.4355 26.6072 63.3855 28.0501 64.5437 29.2094C66.9455 31.6135 68.2597 34.6572 68.534 38.0574Z" fill="#242424"/>
<path d="M60.0442 59.9972C59.7412 59.9972 59.4475 59.8695 59.2375 59.6332C58.4639 58.6905 57.8899 57.831 57.2818 56.9209C56.9911 56.4849 56.6943 56.0407 56.3696 55.5795L56.142 55.2578C55.7924 54.7609 55.265 54.01 54.902 53.7292C54.7189 53.5859 54.2018 53.6987 53.8243 53.783C53.6919 53.8119 53.5647 53.8393 53.4457 53.8611C52.427 54.0529 51.3442 54.1698 50.1413 54.2168C47.9591 54.2934 45.7727 54.0679 43.6545 53.5492C36.9816 51.9301 31.7607 46.9652 30.6655 41.1941C30.3841 39.7209 30.379 38.1912 30.653 36.6502C31.436 32.1078 34.5925 27.8126 38.8898 25.4441C40.7256 24.4352 42.7816 23.734 45.0022 23.3581C49.1909 22.6398 53.6329 23.114 57.5093 24.6969C61.5284 26.3165 64.5742 28.9461 66.3149 32.3012C68.8188 37.0934 68.4061 42.8686 65.264 47.0118C64.6321 47.8412 63.9164 48.6154 63.1335 49.3176C62.1344 53.2555 61.5677 56.3365 61.1043 59.0819C61.0961 59.4155 60.8189 59.7883 60.4083 59.9341C60.2893 59.9766 60.1663 59.9972 60.0442 59.9972ZM59.5488 58.7882C59.5375 58.8296 59.5302 58.872 59.5281 58.9159C59.5354 58.8735 59.5416 58.8306 59.5488 58.7882ZM54.6103 52.0744C55.0395 52.0744 55.4853 52.1685 55.8762 52.4752C56.4264 52.8997 56.9891 53.7008 57.4421 54.3446L57.6634 54.6574C58.0016 55.1378 58.3046 55.5924 58.6025 56.0387C58.9779 56.6003 59.3399 57.1422 59.7371 57.6847C60.187 55.0856 60.7486 52.228 61.6546 48.6872C61.6949 48.5311 61.7807 48.3909 61.9028 48.2849C62.6785 47.6106 63.3838 46.8587 63.9992 46.0504C66.771 42.3965 67.1267 37.2868 64.9052 33.0345C63.3414 30.0191 60.5779 27.646 56.9125 26.1691C53.302 24.6953 49.1702 24.2532 45.269 24.9244C45.268 24.9244 45.268 24.9244 45.2669 24.9249C43.2222 25.2704 41.3337 25.9132 39.6562 26.8357C35.7715 28.9766 32.9211 32.8421 32.2179 36.9237C31.9779 38.2776 31.981 39.6128 32.2261 40.8968C33.2076 46.067 37.9517 50.5308 44.031 52.0056C46.0085 52.4902 48.047 52.7001 50.0824 52.6293C51.2035 52.5853 52.2098 52.4772 53.1582 52.2988C53.2648 52.2792 53.3723 52.2554 53.484 52.2311C53.8005 52.1613 54.1976 52.0744 54.6103 52.0744Z" fill="#242424"/>
<path d="M8.1158 44.9386C7.97721 44.9386 7.83552 44.9133 7.699 44.8606C7.25634 44.6894 6.96986 44.2752 6.96986 43.8051C6.52306 40.2308 6.02042 36.1589 5.20337 31.45C4.30668 30.5487 3.46997 29.5258 2.71394 28.4068C-0.83766 23.0385 -0.893509 15.8696 2.56604 10.1363C4.98824 6.12704 8.96388 3.11791 14.0627 1.43415C21.7306 -1.13439 30.7689 -0.200987 37.0871 3.81861C44.0869 8.27207 47.8422 16.7306 46.0178 23.9311C45.9868 24.0671 45.9413 24.2206 45.8947 24.3742C45.7654 24.7931 45.3207 25.0299 44.9029 24.9017C44.483 24.7735 44.2472 24.3298 44.3744 23.9099C44.4106 23.7925 44.4468 23.6751 44.4747 23.5582C46.1388 16.9861 42.672 9.25512 36.2349 5.15899C30.3055 1.38658 21.7989 0.517813 14.5643 2.94157C9.82644 4.50586 6.1497 7.27764 3.92607 10.9575C0.781968 16.1685 0.824372 22.6708 4.03467 27.524C4.77829 28.6239 5.60879 29.6261 6.49824 30.4964C6.61718 30.6128 6.69682 30.7633 6.72578 30.9272C7.50973 35.4091 8.00824 39.3103 8.43745 42.7802C9.69303 41.4015 10.8317 40.0079 11.9001 38.6846C12.0625 38.4855 12.229 38.2429 12.4038 37.9901C12.8392 37.3597 13.3325 36.6461 13.9386 36.2355C14.8663 35.6015 15.9657 35.9149 16.7704 36.1439C16.9152 36.1853 17.0537 36.2251 17.1841 36.2567C18.4624 36.5737 19.7573 36.7945 21.0377 36.9145C23.5933 37.1658 26.1696 37.0686 28.6942 36.6212C29.5205 36.4739 30.3676 36.2743 31.2115 36.0271C31.6345 35.903 32.0741 36.1455 32.1972 36.5659C32.3202 36.9874 32.0793 37.4285 31.6583 37.5516C30.7585 37.8148 29.8546 38.0283 28.9724 38.185C26.303 38.6592 23.584 38.7626 20.8846 38.4958C19.5308 38.3691 18.1573 38.1349 16.8066 37.7998C16.6618 37.7646 16.5015 37.7191 16.3339 37.6715C15.7765 37.5117 15.1435 37.3333 14.8332 37.549C14.4702 37.7946 14.0668 38.3779 13.7111 38.893C13.5104 39.1826 13.3181 39.4592 13.135 39.6847C11.8618 41.2619 10.4873 42.9405 8.93492 44.5803C8.72394 44.8125 8.42607 44.9386 8.1158 44.9386ZM8.55536 43.7503C8.55742 43.7725 8.55846 43.7927 8.55846 43.8046C8.55846 43.786 8.55742 43.7679 8.55536 43.7503Z" fill="#242424"/>
<path d="M30.0585 30.067C29.7327 30.067 29.4276 29.8658 29.3117 29.5421C28.0944 26.1684 26.6506 22.5853 25.2544 19.12C24.0702 16.1833 22.8529 13.1628 21.7648 10.2467C19.4223 14.3511 17.7385 17.4694 15.9658 20.7505C14.5799 23.3149 13.1579 25.9471 11.3531 29.1749C11.14 29.5576 10.656 29.6936 10.2723 29.4806C9.88964 29.2665 9.75312 28.7825 9.96721 28.3993C11.7668 25.1797 13.1858 22.5537 14.5675 19.9955C16.5522 16.3219 18.4263 12.8525 21.2343 7.97654C21.3884 7.7097 21.6718 7.55095 21.9934 7.58198C22.3016 7.60938 22.5653 7.81261 22.6698 8.10375C23.8871 11.4775 25.3309 15.0606 26.7272 18.5258C28.1296 22.0045 29.5796 25.6016 30.8052 29.0033C30.9541 29.4159 30.7411 29.871 30.3274 30.0199C30.2384 30.052 30.1474 30.067 30.0585 30.067Z" fill="#242424"/>
<path d="M25.8224 20.9357C25.8141 20.9357 25.8059 20.9357 25.7976 20.9352L15.6392 20.6239C15.2007 20.6104 14.8563 20.2443 14.8698 19.8058C14.8842 19.3672 15.2855 19.0125 15.6889 19.0363L25.8472 19.3476C26.2858 19.361 26.6302 19.7272 26.6167 20.1657C26.6033 20.5959 26.2506 20.9357 25.8224 20.9357Z" fill="#242424"/>
<path d="M55.3385 34.3542H40.9139C40.4754 34.3542 40.1196 33.9984 40.1196 33.5599C40.1196 33.1214 40.4754 32.7656 40.9139 32.7656H55.3385C55.7771 32.7656 56.1328 33.1214 56.1328 33.5599C56.1328 33.9984 55.7771 34.3542 55.3385 34.3542Z" fill="#242424"/>
<path d="M44.2888 46.6589C44.0674 46.6589 43.8471 46.5668 43.6899 46.3864C43.4014 46.0559 43.4365 45.5538 43.7665 45.2657C47.2829 42.2018 49.9802 38.2644 51.5657 33.8803C51.7157 33.4666 52.1728 33.2535 52.5824 33.4035C52.995 33.5524 53.2081 34.008 53.0592 34.4201C51.3827 39.0582 48.5302 43.2226 44.8111 46.4634C44.6601 46.5948 44.4739 46.6589 44.2888 46.6589Z" fill="#242424"/>
<path d="M53.4873 46.4414C53.4552 46.4414 53.4231 46.4393 53.39 46.4357C51.1664 46.1642 48.98 44.861 47.2332 42.7672C45.7221 40.9557 44.7148 38.8391 43.7405 36.7918C43.5513 36.3957 43.7198 35.922 44.116 35.7333C44.5121 35.5451 44.9868 35.7136 45.174 36.1092C46.1069 38.0671 47.0708 40.0921 48.4536 41.7495C49.9408 43.532 51.7621 44.6361 53.5824 44.8584C54.0178 44.9117 54.3281 45.3078 54.2743 45.7432C54.2257 46.1461 53.8834 46.4414 53.4873 46.4414Z" fill="#242424"/>
<path d="M47.4535 33.7231C47.0636 33.7231 46.7233 33.4366 46.6675 33.0395C46.5713 32.3507 46.6127 31.6313 46.7895 30.9596C46.9022 30.535 47.3428 30.2832 47.7596 30.3928C48.1837 30.5045 48.4381 30.9389 48.3264 31.3629C48.2023 31.833 48.1733 32.3362 48.2416 32.8181C48.3026 33.2525 47.9996 33.6543 47.5652 33.7153C47.528 33.7205 47.4907 33.7231 47.4535 33.7231Z" fill="#242424"/>
<path d="M54.9999 54.0019L58.4999 58.5019L60.5 59L62.5 49.5019L67 43.5L67.5 38.5019C63.5 23.3019 50.1666 22.8353 43.9999 24.5019C31.1999 26.9019 30.3333 38.5019 31.4999 44.0019L35.4999 49.5019L40.4999 52.5019L46.9999 54.0019H54.9999Z" fill="#FFCD61"/>
<path d="M5.20343 31.4521C6.02048 36.161 6.52313 40.2329 6.96992 43.8072C6.96992 44.2773 7.2564 44.6915 7.69906 44.8627C7.83558 44.9154 7.97727 44.9407 8.11586 44.9407C8.27701 44.9407 8.43312 44.9035 8.57714 44.8383C9.07176 44.8747 9.63989 44.815 10.7301 44.815C12.5868 42.5752 14.2182 40.573 16.0059 38.406C17.8389 39.4032 21.5896 39.9603 23.4828 39.9861C25.7813 40.0173 28.0793 39.6588 30.268 38.9549C30.1463 40.3469 30.4744 41.8314 30.8005 43.1757C32.0077 48.1534 35.7395 52.0461 40.4292 54.1056C44.7742 56.0138 49.2624 56.0816 54.0224 54.8624C54.7735 56.0487 55.8169 57.3964 56.4322 58.3095C57.2408 59.5095 57.9137 59.8906 58.0792 59.9067C58.7489 59.9715 59.3756 59.991 59.7923 59.9462C59.9654 59.9889 60.0866 60.0515 60.4083 59.9368C61.4951 59.5508 60.7762 59.1155 62.7664 50.8098C70.6383 45.0158 71.1231 31.849 60.4155 26.1515C56.8647 23.9964 52.3012 22.8039 47.5012 23.0879C47.6134 22.498 47.5456 21.5905 47.5549 21.2066C47.6866 15.7747 45.8314 11.5078 42.6845 7.69706C38.4077 2.5178 32.1868 0.524506 25.4836 0.111711C16.7141 -0.614464 7.11851 2.60321 2.5661 10.1384C-1.28819 16.5259 -1.10387 25.1121 5.20343 31.4521ZM56.9126 26.1718C66.5252 30.045 68.6718 39.8934 63.9992 46.0531C63.3839 46.8613 62.6785 47.6132 61.9028 48.2876C61.7808 48.3936 61.6949 48.5337 61.6546 48.6899C60.7486 52.2306 60.187 55.0882 59.7371 57.6873C58.5955 56.1281 56.8745 53.248 55.8763 52.4778C55.4853 52.1712 55.0396 52.077 54.6104 52.077C53.6173 52.077 49.7711 53.4147 44.0311 52.0083C36.8577 50.268 30.9454 44.106 32.2179 36.9264C33.1485 31.5253 37.7289 26.2011 45.267 24.9276C45.268 24.9271 45.268 24.9271 45.2691 24.9271C49.1702 24.2558 53.302 24.698 56.9126 26.1718ZM3.92613 10.9596C9.99786 0.911587 26.3695 -1.11557 36.2349 5.16109C42.642 9.23809 46.1024 16.9152 44.4936 23.4674C36.7608 24.9701 31.9848 30.4415 30.7742 36.1448C26.4435 37.3277 21.5619 37.3444 17.1841 36.2588C17.0538 36.2272 16.9152 36.1874 16.7704 36.146C15.9658 35.917 14.8664 35.6036 13.9387 36.2376C12.78 37.0226 12.7224 38.0774 8.43751 42.7823C8.0083 39.3124 7.50979 35.4112 6.72584 30.9293C6.69688 30.7654 6.61724 30.6149 6.4983 30.4985C0.643557 24.7697 0.340581 16.9023 3.92613 10.9596Z" fill="#242424"/>
<path d="M10.2723 29.4845C10.656 29.6975 11.14 29.5615 11.3531 29.1789C13.1579 25.951 14.5799 23.3188 15.9658 20.7544C15.9866 20.716 16.0071 20.678 16.0279 20.6396L25.7974 20.939C25.8056 20.9395 25.8139 20.9395 25.8222 20.9395C25.8753 20.9395 25.9222 20.9198 25.9725 20.9099C27.1372 23.8091 28.3022 26.7481 29.3117 29.546C29.4276 29.8697 29.7327 30.0709 30.0585 30.0709C30.1474 30.0709 30.2384 30.0559 30.3274 30.0238C30.7411 29.8749 30.9541 29.4198 30.8052 29.0072C29.5796 25.6055 28.1296 22.0084 26.7272 18.5297C25.3309 15.0645 23.8871 11.4814 22.6698 8.10766C22.5653 7.81652 22.3016 7.61329 21.9934 7.58588C21.6718 7.55485 21.3884 7.71361 21.2343 7.98045C18.4263 12.8564 16.5522 16.3258 14.5675 19.9994C13.1858 22.5576 11.7668 25.1836 9.96721 28.4032C9.75312 28.7864 9.88964 29.2704 10.2723 29.4845ZM21.7648 10.2506C22.8529 13.1667 24.0702 16.1872 25.2544 19.1239C25.2827 19.1941 25.3113 19.2655 25.3396 19.3359L16.8732 19.0765C18.3352 16.3756 19.8235 13.652 21.7648 10.2506Z" fill="#242424"/>
<path d="M40.9139 32.7703C40.4754 32.7703 40.1196 33.1261 40.1196 33.5646C40.1196 34.0031 40.4754 34.3589 40.9139 34.3589H51.377C50.4861 36.6853 49.2801 38.8761 47.8044 40.8729C46.7624 39.4017 45.9499 37.7394 45.174 36.1109C44.9868 35.7153 44.5121 35.5468 44.116 35.735C43.7198 35.9237 43.5513 36.3974 43.7405 36.7935C44.6108 38.6223 45.5281 40.4945 46.7866 42.167C45.8612 43.2744 44.8586 44.319 43.7664 45.2707C43.2128 45.754 43.5599 46.6639 44.2887 46.6639C44.4738 46.6639 44.66 46.5997 44.811 46.4684C45.8913 45.527 46.8886 44.4997 47.8151 43.4135C49.454 45.1271 51.406 46.1952 53.39 46.4374C53.4231 46.441 53.4552 46.443 53.4872 46.443C53.8834 46.443 54.2257 46.1478 54.2743 45.7449C54.3281 45.3095 54.0178 44.9134 53.5824 44.8601C51.9102 44.6559 50.2404 43.7002 48.8263 42.1653C51.0487 39.2489 52.7023 35.7326 53.0689 34.3589H55.3385C55.7771 34.3589 56.1328 34.0031 56.1328 33.5646C56.1328 33.1261 55.7771 32.7703 55.3385 32.7703H48.2395C48.1803 32.304 48.2067 31.8203 48.3264 31.3669C48.4381 30.9428 48.1836 30.5084 47.7596 30.3967C47.3428 30.2871 46.9022 30.5389 46.7895 30.9635C46.6357 31.5476 46.6042 32.1656 46.6566 32.7703H40.9139Z" fill="#242424"/>
</svg>
