<svg width="66" height="60" viewBox="0 0 66 60" fill="none" xmlns="http://www.w3.org/2000/svg">
<path d="M41 29.5L34.5 33L32 29.5L30 28.5L28 27.5L26 27L23.5 25L22.5 23V20L23.5 16.5L26 14L30 12.5H32.5L36.5 14L38.5 16.5L40 19.5L39.5 23L39 26.5L40 28.5L41 29.5Z" fill="#FFCD61"/>
<path d="M27.8193 28.4476C30.2622 28.8888 32.3459 30.4786 33.4348 32.6602C32.928 32.9032 32.872 33.4876 33.1837 33.8395C33.4821 34.1766 33.7543 34.9349 34.0842 35.4467C34.9701 36.8104 35.1603 37.6669 35.8573 37.6985L40.2831 37.9002C41.1492 37.9002 41.649 37.3156 42.0969 36.9853C42.3033 36.8299 42.162 36.9459 44.241 33.6428C44.3935 33.3984 44.395 33.0885 44.2445 32.8421C43.8562 32.2067 43.2725 31.0783 42.906 30.4313C42.6014 29.8935 42.1704 29.2806 41.8908 28.7864C41.6491 28.3591 41.0901 28.2814 40.7375 28.5768C40.7324 28.5811 40.7267 28.5847 40.7215 28.589C39.0798 26.4663 40.7774 23.0613 40.7087 20.2745C40.6099 16.2644 37.1213 12.5881 32.7655 11.9047C29.7582 11.4369 26.67 12.315 24.5149 14.2619C22.2417 16.3181 21.1575 19.5087 21.753 22.3913C22.3788 25.4249 24.873 27.9152 27.8193 28.4476ZM42.7018 33.2276L41.0658 35.8539C40.7568 36.1003 40.4695 36.3741 40.3178 36.3754L36.2939 36.1917C36.1976 36.0456 36.1028 35.8737 36.0077 35.7069C37.4499 35.5025 38.8689 35.0219 40.1271 34.2874C40.4912 34.0759 40.6139 33.608 40.4018 33.2444C40.1887 32.8799 39.7218 32.7577 39.3583 32.9703C37.1674 34.2479 35.6158 34.1119 35.2279 34.3576C35.1656 34.2395 35.0989 34.1248 35.0408 34.0033C34.9981 33.9149 34.9539 33.8236 34.9077 33.7302C37.0994 32.8928 39.1879 31.7227 41.0296 30.2992C41.7948 31.4738 41.9054 31.831 42.7018 33.2276ZM25.5381 15.3943C27.3554 13.7523 29.9708 13.0143 32.5296 13.4126C36.1185 13.9748 39.1035 17.07 39.183 20.3123C39.2482 22.9489 37.3565 26.71 39.5057 29.5102C38.0696 30.5462 36.4974 31.4157 34.8483 32.0909C33.5618 29.4274 31.0474 27.4802 28.0904 26.9457C25.7422 26.5216 23.7501 24.522 23.247 22.0834C22.7587 19.7193 23.6582 17.0939 25.5381 15.3943Z" fill="#242424"/>
<path d="M19.976 21.9731C19.974 21.553 19.6328 21.2132 19.2131 21.2132H19.2096C18.3941 21.2381 17.5508 21.1427 16.7437 20.9897C16.3305 20.9123 15.9311 21.1844 15.8532 21.5986C15.7752 22.0129 16.0474 22.4112 16.4616 22.4897C17.3417 22.6556 18.2456 22.739 19.15 22.739C19.6808 22.739 19.9779 22.371 19.976 21.9731Z" fill="#242424"/>
<path d="M19.7969 16.3729C20.4857 16.3729 20.825 15.5227 20.3154 15.0508L18.5304 13.3979C18.2209 13.1128 17.7392 13.1307 17.4521 13.4386C17.166 13.7475 17.1844 14.2303 17.4933 14.5164C19.2324 16.0409 19.2835 16.3729 19.7969 16.3729Z" fill="#242424"/>
<path d="M25.373 11.3335C25.6019 11.6869 26.0726 11.7886 26.4279 11.56C26.7816 11.3305 26.8824 10.8587 26.6534 10.505C26.3097 9.97361 26.047 9.39649 25.8722 8.78956C25.7549 8.38428 25.3323 8.15383 24.928 8.26707C24.5232 8.38329 24.2893 8.80645 24.406 9.21073C24.6221 9.96268 24.9479 10.6769 25.373 11.3335Z" fill="#242424"/>
<path d="M33.8544 10.5937C34.2031 10.5937 34.518 10.3533 34.5979 9.99872L35.0434 8.02497C35.1363 7.61373 34.878 7.20548 34.4673 7.1131C34.058 7.01873 33.6483 7.27898 33.5554 7.68923L33.1099 9.66298C33.002 10.1407 33.3653 10.5937 33.8544 10.5937Z" fill="#242424"/>
<path d="M40.9701 13.7022C41.5554 13.7022 41.6883 13.161 42.2713 12.5201C42.5321 12.1893 42.475 11.7095 42.1437 11.4493C41.8144 11.188 41.3331 11.2447 41.0724 11.5764L40.3711 12.4674C39.9718 12.974 40.3461 13.7022 40.9701 13.7022Z" fill="#242424"/>
<path d="M3.92888 26.383C26.8311 60.7782 25.3396 58.7413 26.1648 59.3774C27.6853 60.5493 31.0011 59.8402 32.7719 59.099C34.7349 58.2773 35.9398 57.6628 36.7713 57.1829C62.6609 46.2279 62.1595 46.6553 63.483 45.3465C64.4366 44.4018 65.5382 42.738 64.0964 39.2047C63.998 38.9637 64.1116 39.3445 63.5585 38.2487C66.8395 36.8213 66.455 34.2158 64.1813 31.4954L40.5703 3.25405C37.8761 0.0297946 35.9598 -0.991449 30.0703 1.06773C25.5235 2.65784 2.27317 11.5124 2.16181 11.6759C0.657531 12.9406 -0.360323 15.2218 0.120076 17.0694C-0.168734 20.3531 2.20769 23.7981 3.92888 26.383ZM62.1368 38.8381C62.7343 39.9359 62.7297 41.1905 61.5629 41.6572C51.306 45.7762 39.9163 50.0948 29.374 55.155C29.1493 53.8981 29.6531 52.5922 30.2729 51.4842C40.8311 47.1215 51.3298 43.279 62.1368 38.8381ZM59.6572 45.8421C32.5082 57.2758 32.7266 57.518 31.0068 57.411C30.6463 57.2293 30.3531 57.1433 29.9511 56.5698C40.3529 51.5696 51.5422 47.3218 62.1311 43.0737C62.5768 42.8949 62.9561 42.635 63.2587 42.3126C63.2233 44.2679 61.4646 45.0768 59.6572 45.8421ZM30.5739 2.50806C35.9179 0.639418 37.1672 1.56203 39.3997 4.23248L63.0107 32.4749C64.2925 34.0076 64.7023 35.1757 64.2295 35.9456C63.9389 36.4174 63.3201 36.7025 62.6019 37.0005C51.8083 41.4697 40.9128 45.4471 29.9943 49.9466C21.4714 37.5874 12.4255 24.7399 3.97103 12.4831C12.9251 9.30926 21.5932 5.64919 30.5739 2.50806ZM2.67474 13.2881C11.5074 26.0927 20.1724 38.392 28.8334 50.9529C28.1271 52.2766 27.6554 53.6901 27.8395 55.1622C8.51809 28.17 5.99131 24.9392 1.7425 17.0852C1.2038 16.0881 1.66905 14.4239 2.67474 13.2881Z" fill="#242424"/>
</svg>
