<svg width="66" height="60" viewBox="0 0 66 60" fill="none" xmlns="http://www.w3.org/2000/svg">
<path d="M43 18.5L45.5 22L48.5 18.5H64V2L41 1V18L43 18.5Z" fill="#FFCD61"/>
<path d="M65.0186 1.99626C64.7845 1.306 64.1512 0.789609 63.3787 0.745771C56.2887 0.341803 49.1305 -0.113509 42.1142 0.0255462C41.1518 0.0443692 40.3632 0.809174 40.3186 1.76716C40.1413 5.51293 39.9853 14.6886 40.0853 17.6577C40.0967 17.9975 40.3295 18.2778 40.6401 18.365C40.7288 18.6702 41.0047 18.899 41.34 18.9129L42.5348 18.9634C43.173 19.8223 44.0029 21.6414 44.8327 22.8152C45.0763 23.158 45.5578 23.2605 45.9301 22.9536C46.3522 22.8439 46.834 22.5633 47.2106 22.3282C47.6584 21.2756 48.1189 20.1923 48.5696 19.1329C53.7627 19.3115 58.6056 20.1323 63.9741 19.7213C64.213 19.7027 64.4102 19.5682 64.5365 19.3817C64.6889 19.2643 64.8334 19.1311 64.9706 18.9748C65.841 4.80135 65.7765 4.19278 65.3979 2.88143C65.3092 2.57432 65.1816 2.2734 65.0186 1.99626ZM42.1444 1.54723C49.0649 1.40445 55.8916 1.84118 63.293 2.26548C63.4723 2.27538 63.6056 2.422 63.5957 2.59834C63.4278 5.6792 63.3213 12.3672 63.2323 16.3009C61.7213 13.5041 60.5488 11.5451 59.3481 9.25671C59.1174 8.81587 58.5171 8.70357 58.1464 9.06253C55.2405 11.8659 53.4944 12.724 53.2336 13.0999C50.6402 9.9225 50.3261 9.56458 49.2303 8.20361C48.9469 7.85178 48.4308 7.83165 48.1148 8.12832C45.8077 10.3128 43.6183 12.6585 41.5755 15.1007C41.5723 11.1385 41.6988 4.79307 41.8383 1.83849C41.8458 1.678 41.98 1.5502 42.1444 1.54723ZM48.1643 17.5963C47.9523 17.5972 47.7378 17.6775 47.5897 17.836C46.8185 18.6563 46.0135 19.7658 45.3909 20.8417C44.7707 19.7524 44.2441 18.6103 43.4952 17.727C43.3575 17.5646 43.1584 17.4665 42.9459 17.4586L41.6001 17.4011C41.5988 17.3544 41.5981 17.295 41.5969 17.2458C41.7319 17.2022 41.8598 17.1339 41.9557 17.0157C44.004 14.4885 46.2256 12.0653 48.5665 9.80257C50.5899 12.2926 52.8992 14.997 55.1807 18.0458C52.6801 17.855 50.4354 17.6565 48.1643 17.5963ZM57.0405 18.172C57.0276 18.0411 56.9934 17.9115 56.91 17.7974C56.0144 16.574 55.0843 15.3852 54.1468 14.2182C54.8833 13.9068 57.5277 11.7071 58.4704 10.8458C59.7495 13.2164 61.1711 15.6183 62.3806 17.9252C62.4699 18.0953 62.6219 18.1955 62.7888 18.2594C60.8377 18.3484 58.9224 18.2887 57.0405 18.172Z" fill="#242424"/>
<path d="M29.8886 16.1641H15.1522C14.7322 16.1641 14.3914 16.5049 14.3914 16.9249C14.3914 17.345 14.7322 17.6857 15.1522 17.6857H29.8886C30.3086 17.6857 30.6494 17.345 30.6494 16.9249C30.6494 16.5049 30.3086 16.1641 29.8886 16.1641Z" fill="#242424"/>
<path d="M26.8161 27.0117H15.5362C15.1162 27.0117 14.7754 27.3525 14.7754 27.7726C14.7754 28.1926 15.1162 28.5334 15.5362 28.5334H26.8161C27.2362 28.5334 27.577 28.1926 27.577 27.7726C27.577 27.3525 27.2362 27.0117 26.8161 27.0117Z" fill="#242424"/>
<path d="M24.3977 38.3242H15.5792C15.1592 38.3242 14.8184 38.665 14.8184 39.0851C14.8184 39.5051 15.1592 39.8459 15.5792 39.8459H24.3977C24.8178 39.8459 25.1586 39.5051 25.1586 39.0851C25.1586 38.665 24.8178 38.3242 24.3977 38.3242Z" fill="#242424"/>
<path d="M9.95217 13.4922H5.89732C5.47727 13.4922 5.13647 13.833 5.13647 14.253V18.5278C5.13647 18.9479 5.47727 19.2887 5.89732 19.2887H9.67775C10.079 19.2887 10.4114 18.9766 10.4371 18.5764L10.7115 14.3016C10.7395 13.863 10.3899 13.4922 9.95217 13.4922ZM8.96397 17.767H6.65816V15.0139H9.14081L8.96397 17.767Z" fill="#242424"/>
<path d="M9.89382 24.0781H5.83897C5.41892 24.0781 5.07812 24.4189 5.07812 24.839V29.1138C5.07812 29.5338 5.41892 29.8746 5.83897 29.8746H9.6194C10.0206 29.8746 10.353 29.5625 10.3788 29.1623L10.6532 24.8875C10.6666 24.6775 10.5927 24.4714 10.4486 24.3189C10.305 24.1653 10.1038 24.0781 9.89382 24.0781ZM8.90562 28.3529H6.59981V25.5998H9.08246L8.90562 28.3529Z" fill="#242424"/>
<path d="M9.58474 35.832H5.52989C5.10984 35.832 4.76904 36.1728 4.76904 36.5929V40.8677C4.76904 41.2877 5.10984 41.6285 5.52989 41.6285H9.31032C9.71155 41.6285 10.0439 41.3164 10.0697 40.9162L10.3441 36.6414C10.3575 36.4314 10.2837 36.2253 10.1395 36.0728C9.99587 35.9192 9.79477 35.832 9.58474 35.832ZM8.59654 40.1068H6.29073V37.3537H8.77337L8.59654 40.1068Z" fill="#242424"/>
<path d="M40.4332 48.7759C40.4904 49.2796 40.9482 49.5333 41.3614 49.4283C43.5755 48.8706 45.967 47.6104 47.6032 46.1393C47.9403 45.8363 47.9392 45.306 47.5997 45.005C44.2067 41.9899 41.1012 39.8704 41.203 39.942C40.4974 39.4463 39.736 40.1352 40.0355 40.8299C40.6202 44.63 40.2622 48.3685 40.4332 48.7759ZM41.908 47.6652C41.9367 45.6002 41.8801 43.7807 41.737 42.2317C43.1682 43.2927 44.5766 44.3925 45.9215 45.5568C44.765 46.4407 43.3303 47.1844 41.908 47.6652Z" fill="#242424"/>
<path d="M52.1969 53.1013L36.1112 52.499L36.1632 51.968C36.2043 51.5499 35.8987 51.1774 35.4802 51.1368C35.0745 51.0942 34.6901 51.4003 34.6485 51.8193L34.5874 52.4419L33.2803 52.393C32.8811 52.3395 32.5076 52.705 32.4918 53.1241C32.4759 53.5441 32.8038 53.8978 33.2239 53.9127L34.4388 53.9582L34.4072 54.2802C34.3095 55.2861 35.8236 55.4282 35.922 54.4288L35.9625 54.0152C42.7837 54.2707 52.3132 54.622 52.1692 54.622C52.5763 54.622 52.9137 54.3 52.929 53.8899C52.9449 53.4698 52.6169 53.1162 52.1969 53.1013Z" fill="#242424"/>
<path d="M53.9797 8.93069C55.3319 8.46804 55.9744 7.18214 55.5405 5.80311C55.1447 4.54594 53.8623 3.45916 52.2554 3.92082C50.5914 4.40036 50.1199 6.22938 50.8855 7.65226C51.4523 8.70573 52.6365 9.38773 53.9797 8.93069ZM52.6764 5.38307C53.351 5.18683 53.903 5.66765 54.0886 6.25982C54.1763 6.5382 54.2932 7.21582 53.4878 7.49024C52.925 7.68414 52.4442 7.36241 52.2086 6.8953C51.9233 6.32986 51.9913 5.5797 52.6764 5.38307Z" fill="#242424"/>
<path d="M58.0325 34.512C57.4531 33.2873 56.225 32.4326 54.8207 32.4326C54.8197 32.4326 54.8182 32.4326 54.8172 32.4326C49.5181 32.049 44.1366 31.9516 38.7646 32.1063C38.9864 28.2623 39.155 24.4182 38.9553 20.5742C38.7529 16.5666 38.1083 12.4366 35.4369 9.42083C35.0416 8.78897 34.3075 7.85395 33.5108 7.62596C32.167 6.63776 30.124 5.85438 28.5765 5.51012C28.2522 5.43805 25.2165 4.8923 23.1183 4.67448C23.0813 4.66519 23.0481 4.64674 23.0104 4.63906C20.1376 4.05099 17.9508 4.14036 8.64952 3.86138C6.16836 3.78708 3.6872 3.71278 1.0936 3.65234C0.477153 3.67268 -0.0157354 3.77811 0.000384419 4.42904C0.000636005 4.53259 0.264128 56.1737 0.113322 52.5959C0.128841 52.9641 0.422264 53.3259 0.82785 53.3176C2.32076 53.4238 14.9878 52.3753 28.1768 53.3206C28.2278 54.1669 28.2618 55.0095 28.3299 55.8592C28.3299 57.8584 29.9546 59.4841 31.8894 59.4841H31.8944C38.7939 60.0677 53.5517 60.3874 56.2611 59.1579C59.5917 58.3061 60.0174 55.7389 59.9669 52.3696C59.7808 39.953 60.1808 36.6485 58.0325 34.512ZM28.3329 35.9931C27.8952 41.0841 27.8237 46.3943 28.0844 51.7903C19.273 51.1721 10.8524 51.4027 1.63965 51.7742C1.85338 14.0321 1.83742 16.6696 1.54207 5.18666C18.5301 5.59644 20.3519 5.64892 22.7053 6.12905C24.3853 6.47293 25.5457 10.4279 27.098 11.9176C27.4197 12.2242 27.9007 12.1769 28.209 11.8799C29.1926 10.9348 31.6227 9.05651 32.8523 9.05651C33.0411 9.03273 33.157 9.09217 33.1956 9.12288C34.0045 9.78862 34.5746 10.7753 34.9902 12.2297L34.9972 12.2277C36.7408 18.9439 36.3774 25.263 35.6987 32.2313C34.4509 32.2909 33.2019 32.3421 31.9583 32.4306C29.9576 32.4306 28.3299 34.0583 28.3329 35.9931ZM31.9583 57.9654C30.7967 57.9654 29.8516 57.0203 29.8491 55.7988C29.3092 49.0265 29.3087 42.4068 29.8516 36.0585C29.8516 34.8974 30.7967 33.9523 32.0122 33.9503C39.5798 33.4106 47.2252 33.4089 54.7622 33.9523C55.9238 33.9523 56.8689 34.8974 56.8709 36.113C57.4173 43.7085 57.4178 50.144 56.8689 55.8592C56.8689 57.0203 55.9238 57.9654 54.7622 57.9654C53.5227 57.9654 47.1062 59.2403 31.9583 57.9654Z" fill="#242424"/>
</svg>
