<svg width="66" height="60" viewBox="0 0 66 60" fill="none" xmlns="http://www.w3.org/2000/svg">
<path d="M15.5 12.5L21 11L22 31L25 36.5L32 38.5H54V41L51.5 45L48.5 47.5L44 48.5H36L17 47.5L13 44L11.5 32L12 16.5L15.5 12.5Z" fill="#FFCD61"/>
<path d="M37.1397 27.0339C37.3639 27.3284 37.77 27.4082 38.0886 27.2257C41.0038 25.5463 43.8841 23.7686 46.9338 21.8869C61.3108 13.0135 60.6191 14.1454 60.7772 13.4487C60.8244 13.2435 60.7805 13.0279 60.6569 12.8561C59.6793 11.5021 58.9837 10.3303 58.7967 9.72056C58.6621 9.28395 58.1606 9.07116 57.7499 9.29021C50.5737 13.1386 44.8851 16.5242 39.4117 20.2084C38.4942 18.8477 37.175 16.7064 35.5571 13.9478C35.3248 13.5527 34.8014 13.4734 34.4597 13.7521C33.486 14.5518 32.2813 15.3695 30.7779 16.2522C30.431 16.4555 30.3127 16.9001 30.5131 17.2494C33.0442 21.65 34.3857 23.4269 37.1397 27.0339Z" fill="#242424"/>
<path d="M4.77775 57.6782C7.38068 59.5906 10.9377 59.7302 14.1825 59.7277C21.055 59.7227 29.8525 60.46 34.8325 59.5288C40.626 58.4454 44.053 55.1834 45.1623 49.5338C49.3592 48.6044 52.3005 46.5309 53.9708 42.6867C54.4581 41.7856 54.8149 40.8049 55.0202 39.7703C63.3642 37.9401 65.873 31.3434 64.9929 22.9153V10.4629C64.9929 4.70414 60.3129 0.0189129 54.5609 0.0189129C31.3177 0.20164 31.2894 -0.395793 28.4236 0.56592C25.2481 0.886061 22.4641 2.57086 21.0578 5.5615C20.3741 7.01562 20.0241 8.57565 19.8454 10.174C19.5088 10.2437 19.1769 10.332 18.8497 10.4342C18.9965 10.3796 19.1398 10.3204 19.289 10.2689C15.7998 10.3766 12.6824 12.1045 11.1645 15.3327C10.432 16.8906 10.0866 18.5709 9.92076 20.2887C9.06375 20.4058 8.24521 20.6168 7.47813 20.9248C4.84824 21.5192 2.60648 23.1025 1.39325 25.6495C0.0142772 28.5444 -0.0121427 31.8642 0.00193201 35.0631C0.0208972 39.361 0.0666403 43.6657 0.501944 47.9419C0.882916 51.6842 1.7212 55.4324 4.77775 57.6782ZM22.7567 10.4629C22.7567 5.51236 26.7845 1.4846 31.7354 1.4846H54.5609C59.5052 1.4846 63.5272 5.51236 63.5272 10.4629V27.8106C63.5272 32.7544 59.5052 36.7765 54.5609 36.7765H31.7354C26.7845 36.7765 22.7567 32.7544 22.7567 27.8106V10.4629ZM13.1329 22.1282C13.3085 19.2007 13.6253 16.1863 15.3572 14.3103C16.5384 13.0321 18.0655 12.1442 19.7245 11.716C19.6655 12.8429 19.6616 13.9777 19.6665 15.0982C19.7228 28.0116 20.0394 34.7311 24.4423 38.0084C27.0453 39.9458 30.6023 40.0871 33.8471 40.0847C40.2671 40.0799 48.4353 40.7327 53.4468 40.0361C52.4265 43.8731 48.9324 46.7128 44.7782 46.7128C43.3362 46.7025 41.6034 46.7612 27.0268 46.5429C22.5759 46.3288 20.1421 46.8894 17.3529 45.5333C13.1309 43.4749 12.892 37.6762 12.8538 32.8775C12.8256 29.3068 12.9196 25.6903 13.1329 22.1282ZM2.47092 29.9824C3.05651 25.5803 5.92836 22.4572 9.81842 21.7827C9.70692 24.3427 9.73688 32.5791 10.2732 37.9163C10.6541 41.7075 11.4924 45.5045 14.549 47.7796C17.1519 49.717 20.7089 49.8583 23.9538 49.856C29.8707 49.8515 38.1406 50.453 43.0145 49.8855C42.6229 51.6613 41.6986 53.3005 40.3435 54.5526C38.1531 56.5746 35.434 56.8714 32.8218 56.8905C14.2843 56.7532 7.43352 58.7514 3.83092 52.1208C2.18555 48.3473 2.84592 44.2463 2.72665 40.0027C2.63306 36.6077 2.03652 33.245 2.47092 29.9824Z" fill="#242424"/>
</svg>
