<svg width="65" height="60" viewBox="0 0 65 60" fill="none" xmlns="http://www.w3.org/2000/svg">
<path d="M45.5 27V30.5L49.5 31H53.5L58 30.5L57.5 25L59.5 22L60.5 20.5L60 19L51 5L42 19V20.5L43 22L44 23.5L45 25L45.5 27Z" fill="#FFCD61"/>
<path d="M34.5446 20.911C27.7588 17.0278 17.805 20.4254 14.652 27.6542C11.509 34.8603 15.47 42.7036 22.3895 45.2021C30.1924 48.0206 39.417 43.155 40.9433 34.6031C41.885 29.3299 39.1938 23.5715 34.5446 20.911ZM34.9083 41.8411C34.0533 42.5088 33.1097 43.0541 32.1148 43.4768C19.1491 45.8895 13.0692 28.0751 24.8136 21.1857C37.7386 17.8913 45.0429 33.9339 34.9083 41.8411Z" fill="#242424"/>
<path d="M53.134 1.9833C52.5365 -0.674812 48.2828 -0.698088 48.1973 2.13774C43.9963 2.63145 40.2068 4.29882 37.2147 7.00767C36.4953 7.6584 37.4792 8.75106 38.2024 8.09676C41.0096 5.55419 44.5863 4.00047 48.5597 3.57232C48.8601 4.11698 49.3373 4.58281 49.9672 4.78857C48.4097 7.27529 46.8275 9.85104 45.2579 12.3981C44.8028 11.8748 44.3745 11.3665 43.9943 10.8779C43.7799 10.6022 43.4 10.5171 43.0899 10.6702C41.0916 11.6521 39.4532 12.6598 38.0962 13.7403C36.9107 13.2181 35.6443 12.7533 34.3906 12.2885C33.9743 10.3065 33.5455 8.26041 33.3206 6.30234C33.2785 5.93772 32.9742 5.66018 32.6076 5.65157C28.9786 5.56735 25.8405 5.58171 22.7369 5.70229C22.4067 5.71473 22.1254 5.94537 22.0498 6.26693C21.5722 8.27381 21.2621 10.0634 21.1023 11.7181C19.8231 12.2326 18.5494 12.7018 17.3613 13.1814C16.0684 12.0942 14.7132 11.097 12.914 9.90457C12.6298 9.71508 12.2518 9.74666 12.003 9.98305L5.17174 16.4516C4.921 16.6899 4.86933 17.0698 5.04733 17.3655C5.93066 18.8288 7.17096 20.5486 8.35575 21.9621C7.61502 23.2359 7.03507 24.6504 6.63503 25.7662C4.7417 25.9677 2.81433 26.2265 0.964678 26.4132C0.609623 26.4486 0.33207 26.7338 0.30529 27.0888C0.0373237 30.6298 0 34.01 0 37.1366C0 37.4802 0.238298 37.7778 0.573256 37.8534C2.26814 38.2374 4.12281 38.6855 5.73256 39.0516C6.07039 40.4967 6.64269 41.8882 7.37768 43.051C6.55464 44.5621 5.57465 45.8235 4.23961 47.0954C4.09414 47.2341 4.01183 47.4265 4.01183 47.6265C4.01183 48.0628 4.24616 48.1712 5.54594 49.3941C7.27432 51.0201 9.06108 52.7016 10.5703 54.5343C10.6543 54.636 10.763 54.6984 10.8779 54.7425C11.27 55.1874 12.4018 55.6673 13.1214 55.9024C14.5641 54.9032 16.2187 53.9436 17.7233 52.9284C18.5018 53.3389 19.2544 53.661 20.108 53.9142C20.3568 55.6713 20.5903 57.3719 20.8324 59.1385C20.8813 59.4945 21.1798 59.7635 21.5387 59.774C24.2145 59.8535 31.2869 60.1651 31.7812 59.8862C32.5045 59.7507 33.2028 59.5012 33.8359 59.1354C34.43 57.4157 34.8872 55.4873 35.1513 53.6658C36.0248 53.3411 36.9002 52.9509 37.7488 52.4901C39.1683 53.5931 40.6297 54.6596 42.1204 55.8205C42.375 56.0215 42.731 56.0282 42.9961 55.8416C45.448 54.1094 47.8798 51.7264 50.2254 48.7587C50.3183 48.6412 50.3636 48.5015 50.3745 48.36C50.6391 47.6667 50.8515 47.1881 51.1238 46.4636C49.9883 45.2422 49.0031 43.6424 48.1629 42.1777C48.6776 41.2839 49.0417 40.4126 49.2359 39.5531C51.4169 39.2526 53.1549 39.0889 54.8144 39.0258C55.2096 39.0114 55.5216 38.687 55.5216 38.2917C55.5216 36.3165 55.5518 34.3679 55.5915 31.5388C55.9158 31.5016 57.6905 31.3007 57.977 31.1463C57.9834 31.1597 57.9874 31.1741 57.9939 31.1875C58.2175 31.0521 58.4211 30.9275 58.6247 30.8029C58.9557 30.6004 59.1262 30.1927 58.9922 29.8286C58.3209 28.0045 58.508 25.842 59.4888 24.1671C60.0612 23.1896 60.8958 22.3425 61.2125 21.255C61.94 18.7574 60.2105 16.8533 54.5595 8.39918C54.0826 7.68572 52.8297 5.61089 51.8706 4.59047C52.3617 4.32848 52.7365 3.95844 52.9735 3.44444C56.6746 3.91481 60.2049 5.48696 62.9672 7.93215C63.6884 8.56938 64.6715 7.47662 63.9415 6.83158C60.9533 4.18673 57.1351 2.48766 53.134 1.9833ZM50.1001 1.53638C50.584 1.34281 51.1514 1.53175 51.4772 1.88569C52.129 2.59314 51.3807 3.52797 50.5652 3.42745C49.7522 3.31999 49.2634 1.87717 50.1001 1.53638ZM54.0526 37.5893C52.4189 37.6773 50.6743 37.8611 48.5066 38.1712C47.4368 38.324 48.4968 39.5535 45.8959 42.9314C45.483 43.4672 46.0476 44.027 46.1964 44.431C46.8864 45.678 47.7334 46.9738 48.7172 48.2907C46.7122 50.7665 44.6546 52.7916 42.5875 54.3228C41.1323 53.2028 39.6353 52.1043 38.2713 51.0326C38.0339 50.846 37.7086 50.8249 37.4502 50.9732C34.9814 52.3934 32.8433 52.8414 32.7081 52.8863C32.2462 53.0077 32.1801 53.4079 32.0851 53.739C31.6434 55.3239 31.2239 56.8055 30.8343 58.526C27.8376 58.5411 24.7933 58.406 22.2048 58.3232C21.9703 56.6139 21.7407 54.9535 21.4957 53.2299C21.4536 52.9342 21.2363 52.692 20.9463 52.6203C19.723 52.3149 18.7928 51.8165 18.6791 51.7752C16.6109 50.7315 16.5631 50.2662 15.9746 50.5081C14.406 51.1324 12.6874 52.0389 11.2536 53.0643C9.55256 51.0937 7.60262 49.3193 5.80338 47.617C7.07909 46.3078 8.06865 44.9344 8.88499 43.3448C9.0094 43.1036 8.99026 42.8127 8.83522 42.5897C8.00931 41.3992 7.38342 39.8747 7.07335 38.2965C7.01688 38.0104 6.79677 37.7845 6.51253 37.7214C4.82184 37.3415 3.1158 36.9281 1.47094 36.55C1.47477 33.8014 1.51688 30.8643 1.72742 27.8114C3.50074 27.6207 5.45454 27.3613 7.24848 27.1807C7.53463 27.152 7.77771 26.9587 7.87054 26.6869C10.4976 18.9812 11.3985 24.6473 6.61685 17.1081L12.5877 11.454C17.0689 14.4759 16.7493 15.0222 17.5049 14.7098C21.9267 12.8884 22.4658 13.0356 22.5283 12.2885C22.6537 10.7305 22.9235 9.04517 23.3532 7.15026C26.0635 7.05743 28.8226 7.04403 31.9396 7.1072C32.1995 9.04379 32.6273 11.0466 33.0354 12.9881C33.2038 13.7777 34.0986 13.5111 37.9 15.2648C38.1593 15.3864 38.4627 15.3443 38.6799 15.1615C39.8982 14.1413 41.3835 13.1872 43.2095 12.2541C43.5895 12.7259 44 13.2082 44.4489 13.7135C43.4985 15.2668 42.5482 16.8191 41.595 18.3407C40.8399 19.56 41.0227 21.1295 42.0276 22.0693C44.4441 24.3633 45.4174 27.4468 44.6336 30.3178C44.5213 30.7309 44.7847 31.1535 45.2059 31.2337C48.076 31.7744 51.0695 31.9276 54.1196 31.6873C54.0874 33.9758 54.059 35.8714 54.0526 37.5893ZM46.2289 29.9207C46.7984 26.7539 45.6394 23.4713 43.0363 20.9993C42.5377 20.5333 42.4573 19.7408 42.843 19.1188C43.868 17.4804 44.8929 15.8056 45.9169 14.1308L45.9887 14.0131C45.9894 14.012 45.9895 14.0107 45.9901 14.0095C47.8325 11.0222 48.5913 9.78795 49.8117 7.82018C49.9968 11.2214 50.0559 14.6573 49.9742 18.0566C48.4506 18.8829 48.9149 21.384 50.7145 21.384C51.5799 21.384 52.4305 20.7707 52.5673 19.8767C52.5682 19.87 52.5692 19.8643 52.5701 19.8586C52.6714 19.0585 52.1619 18.2792 51.4448 18.0503C51.5311 14.4066 51.4613 10.7226 51.244 7.08351C54.0851 11.3544 56.3798 15.253 58.9516 19.0987C59.3267 19.6576 59.2971 20.3849 58.8731 20.9534C56.7973 23.7622 55.9963 27.1156 56.6853 29.9188C53.1746 30.4429 49.6896 30.4847 46.2289 29.9207Z" fill="#242424"/>
</svg>
