<svg width="24" height="24" viewBox="0 0 24 24" fill="none" xmlns="http://www.w3.org/2000/svg">
<path d="M23.7231 22.4265L17.9587 16.6621C19.6328 14.6544 20.4683 12.0786 20.2915 9.47047C20.1147 6.86238 18.9392 4.42286 17.0096 2.6594C15.0799 0.895938 12.5447 -0.0556774 9.93125 0.0025203C7.31783 0.060718 4.82745 1.12425 2.97821 2.97186C1.12896 4.81947 0.0632317 7.30891 0.00272432 9.92228C-0.0577831 12.5356 0.891591 15.0717 2.65335 17.003C4.4151 18.9342 6.85358 20.1118 9.46152 20.2909C12.0694 20.47 14.646 19.6367 16.6552 17.9645L22.4196 23.73C22.5052 23.8156 22.6068 23.8835 22.7187 23.9298C22.8305 23.9762 22.9503 24 23.0714 24C23.1924 24 23.3123 23.9762 23.4241 23.9298C23.5359 23.8835 23.6376 23.8156 23.7231 23.73C23.8087 23.6444 23.8766 23.5428 23.9229 23.431C23.9693 23.3192 23.9931 23.1993 23.9931 23.0783C23.9931 22.9572 23.9693 22.8374 23.9229 22.7256C23.8766 22.6137 23.8087 22.5121 23.7231 22.4265ZM1.88378 10.1815C1.88378 8.54171 2.37003 6.93877 3.28103 5.57536C4.19204 4.21194 5.48688 3.14929 7.00183 2.52178C8.51678 1.89427 10.1838 1.73008 11.792 2.04998C13.4003 2.36989 14.8776 3.15951 16.0371 4.319C17.1966 5.47849 17.9862 6.95577 18.3061 8.56403C18.626 10.1723 18.4618 11.8393 17.8343 13.3542C17.2068 14.8692 16.1441 16.164 14.7807 17.075C13.4173 17.986 11.8144 18.4723 10.1746 18.4723C7.97647 18.4698 5.86909 17.5956 4.31479 16.0413C2.76049 14.487 1.88622 12.3796 1.88378 10.1815Z" fill="#5523E8"/>
</svg>
