<svg width="20" height="16" viewBox="0 0 20 16" fill="none" xmlns="http://www.w3.org/2000/svg">
<path d="M19.1738 2.79597L7.17383 14.796C7.06931 14.9009 6.94512 14.9841 6.80837 15.0409C6.67163 15.0976 6.52502 15.1269 6.37695 15.1269C6.22889 15.1269 6.08228 15.0976 5.94553 15.0409C5.80878 14.9841 5.68459 14.9009 5.58008 14.796L0.330076 9.54598C0.225429 9.44133 0.142419 9.31709 0.085784 9.18037C0.0291494 9.04364 1.55936e-09 8.89709 0 8.7491C-1.55936e-09 8.60111 0.0291494 8.45456 0.085784 8.31783C0.142419 8.18111 0.225429 8.05687 0.330076 7.95223C0.434724 7.84758 0.558958 7.76457 0.695686 7.70793C0.832414 7.6513 0.978958 7.62215 1.12695 7.62215C1.27494 7.62215 1.42149 7.6513 1.55822 7.70793C1.69495 7.76457 1.81918 7.84758 1.92383 7.95223L6.37789 12.4063L17.582 1.2041C17.7933 0.992755 18.0799 0.874023 18.3788 0.874023C18.6777 0.874023 18.9644 0.992755 19.1757 1.2041C19.387 1.41544 19.5058 1.70209 19.5058 2.00098C19.5058 2.29986 19.387 2.58651 19.1757 2.79785L19.1738 2.79597Z" fill="#000628"/>
</svg>
