<svg width="23" height="24" viewBox="0 0 23 24" fill="none" xmlns="http://www.w3.org/2000/svg">
<path d="M21.8052 6.12143C21.596 6.22976 21.3523 6.2506 21.1278 6.17935C20.9032 6.10811 20.7161 5.95063 20.6076 5.74151C19.7594 4.06573 18.4754 2.64936 16.8906 1.64124C16.7918 1.57894 16.7063 1.49781 16.6389 1.40246C16.5715 1.30712 16.5235 1.19943 16.4978 1.08555C16.472 0.971662 16.4689 0.853814 16.4886 0.738731C16.5084 0.623648 16.5506 0.513582 16.6129 0.41482C16.6752 0.316056 16.7563 0.23053 16.8517 0.163123C16.947 0.0957161 17.0547 0.0477488 17.1686 0.0219601C17.2825 -0.0038287 17.4003 -0.006934 17.5154 0.0128215C17.6305 0.032577 17.7405 0.0748064 17.8393 0.137099C19.6863 1.31967 21.186 2.97159 22.1851 4.9239C22.2934 5.1331 22.3143 5.37675 22.243 5.60131C22.1718 5.82586 22.0143 6.01294 21.8052 6.12143ZM0.888335 6.22141C1.05115 6.22134 1.21082 6.17655 1.34991 6.09192C1.489 6.00729 1.60217 5.88607 1.67706 5.74151C2.52534 4.06573 3.80931 2.64936 5.39408 1.64124C5.59354 1.51543 5.73486 1.31554 5.78694 1.08555C5.83902 0.855548 5.7976 0.61428 5.6718 0.41482C5.54599 0.215359 5.34611 0.0740428 5.11611 0.0219601C4.88611 -0.0301227 4.64485 0.0112939 4.44538 0.137099C2.59843 1.31967 1.09871 2.97159 0.0996075 4.9239C0.0294416 5.05933 -0.00468342 5.21055 0.000516673 5.363C0.00571677 5.51544 0.0500669 5.66399 0.129299 5.79433C0.208531 5.92467 0.319977 6.03242 0.452914 6.10722C0.58585 6.18202 0.7358 6.22134 0.888335 6.22141ZM21.5619 17.7679C21.7193 18.0379 21.8028 18.3447 21.8039 18.6572C21.8049 18.9697 21.7236 19.277 21.568 19.5481C21.4124 19.8192 21.1881 20.0444 20.9177 20.2011C20.6473 20.3579 20.3403 20.4405 20.0277 20.4407H15.4953C15.2914 21.4452 14.7464 22.3483 13.9528 22.997C13.1592 23.6456 12.1657 24 11.1407 24C10.1157 24 9.12221 23.6456 8.32858 22.997C7.53496 22.3483 6.98999 21.4452 6.78602 20.4407H2.25361C1.94125 20.4401 1.63458 20.3572 1.36447 20.2003C1.09436 20.0434 0.87036 19.8182 0.715036 19.5472C0.559711 19.2762 0.478547 18.969 0.479717 18.6566C0.480887 18.3443 0.564351 18.0378 0.721702 17.7679C1.72261 16.0405 2.25361 13.5843 2.25361 10.6649C2.25361 8.30795 3.18992 6.04748 4.85657 4.38084C6.52322 2.71419 8.78368 1.77787 11.1407 1.77787C13.4977 1.77787 15.7581 2.71419 17.4248 4.38084C19.0914 6.04748 20.0277 8.30795 20.0277 10.6649C20.0277 13.5832 20.5588 16.0394 21.5619 17.7679ZM13.6535 20.4407H8.62786C8.81198 20.96 9.15243 21.4094 9.6024 21.7273C10.0524 22.0451 10.5898 22.2158 11.1407 22.2158C11.6916 22.2158 12.229 22.0451 12.679 21.7273C13.1289 21.4094 13.4694 20.96 13.6535 20.4407ZM20.0277 18.6633C18.8458 16.6337 18.2503 13.9432 18.2503 10.6649C18.2503 8.77934 17.5013 6.97098 16.168 5.63766C14.8346 4.30434 13.0263 3.55529 11.1407 3.55529C9.25508 3.55529 7.44671 4.30434 6.11339 5.63766C4.78008 6.97098 4.03102 8.77934 4.03102 10.6649C4.03102 13.9443 3.43337 16.6348 2.25361 18.6633H20.0277Z" fill="#5523E8"/>
</svg>
