<svg width="24" height="24" viewBox="0 0 24 24" fill="none" xmlns="http://www.w3.org/2000/svg">
<rect width="24" height="24" rx="12" fill="#FAF8F6"/>
<path d="M17.5385 12C17.5385 12.2448 17.4412 12.4796 17.2681 12.6527C17.095 12.8258 16.8602 12.9231 16.6154 12.9231H7.38462C7.1398 12.9231 6.90502 12.8258 6.73191 12.6527C6.55879 12.4796 6.46154 12.2448 6.46154 12C6.46154 11.7552 6.55879 11.5204 6.73191 11.3473C6.90502 11.1742 7.1398 11.0769 7.38462 11.0769H16.6154C16.8602 11.0769 17.095 11.1742 17.2681 11.3473C17.4412 11.5204 17.5385 11.7552 17.5385 12ZM24 12C24 14.3734 23.2962 16.6934 21.9776 18.6668C20.6591 20.6402 18.7849 22.1783 16.5922 23.0865C14.3995 23.9948 11.9867 24.2324 9.65892 23.7694C7.33115 23.3064 5.19295 22.1635 3.51472 20.4853C1.83649 18.807 0.693605 16.6689 0.230582 14.3411C-0.232441 12.0133 0.00519941 9.60051 0.913451 7.4078C1.8217 5.21508 3.35977 3.34094 5.33316 2.02236C7.30655 0.703788 9.62663 0 12 0C15.1816 0.00335979 18.2319 1.26872 20.4816 3.51843C22.7313 5.76814 23.9966 8.81843 24 12ZM22.1538 12C22.1538 9.99176 21.5583 8.02861 20.4426 6.35882C19.3269 4.68903 17.7411 3.38759 15.8857 2.61907C14.0303 1.85055 11.9887 1.64947 10.0191 2.04126C8.04943 2.43305 6.24019 3.40011 4.82015 4.82015C3.40011 6.24019 2.43305 8.04943 2.04126 10.0191C1.64947 11.9887 1.85055 14.0303 2.61907 15.8857C3.38759 17.7411 4.68904 19.3269 6.35883 20.4426C8.02862 21.5583 9.99176 22.1538 12 22.1538C14.692 22.1508 17.2729 21.08 19.1765 19.1765C21.08 17.2729 22.1508 14.692 22.1538 12Z" fill="#5523E8"/>
<rect width="24" height="24" rx="12" fill="#5523E8"/>
<path d="M17 12C17 12.1105 16.9561 12.2165 16.878 12.2946C16.7998 12.3728 16.6938 12.4167 16.5833 12.4167H12.4167V16.5833C12.4167 16.6938 12.3728 16.7998 12.2946 16.878C12.2165 16.9561 12.1105 17 12 17C11.8895 17 11.7835 16.9561 11.7054 16.878C11.6272 16.7998 11.5833 16.6938 11.5833 16.5833V12.4167H7.41667C7.30616 12.4167 7.20018 12.3728 7.12204 12.2946C7.0439 12.2165 7 12.1105 7 12C7 11.8895 7.0439 11.7835 7.12204 11.7054C7.20018 11.6272 7.30616 11.5833 7.41667 11.5833H11.5833V7.41667C11.5833 7.30616 11.6272 7.20018 11.7054 7.12204C11.7835 7.0439 11.8895 7 12 7C12.1105 7 12.2165 7.0439 12.2946 7.12204C12.3728 7.20018 12.4167 7.30616 12.4167 7.41667V11.5833H16.5833C16.6938 11.5833 16.7998 11.6272 16.878 11.7054C16.9561 11.7835 17 11.8895 17 12Z" fill="#000628" stroke="#FAF8F6"/>
</svg>
