<svg width="100" height="100" viewBox="0 0 100 100" fill="none" xmlns="http://www.w3.org/2000/svg">
<circle cx="50" cy="50" r="25" fill="#140533"/>
<path d="M50 0C40.1109 0 30.444 2.93245 22.2215 8.42652C13.999 13.9206 7.59043 21.7295 3.80605 30.8658C0.0216642 40.0021 -0.968502 50.0555 0.960758 59.7545C2.89002 69.4536 7.65206 78.3627 14.6447 85.3553C21.6373 92.3479 30.5464 97.11 40.2455 99.0392C49.9445 100.968 59.9979 99.9783 69.1342 96.194C78.2705 92.4096 86.0794 86.0009 91.5735 77.7785C97.0676 69.556 100 59.8891 100 50C99.986 36.7435 94.7137 24.0339 85.3399 14.6601C75.9661 5.28633 63.2565 0.0139991 50 0ZM69.4952 53.1635L44.4952 70.4711C43.9181 70.8702 43.2427 71.1038 42.5423 71.1466C41.842 71.1894 41.1432 71.0398 40.5217 70.714C39.9003 70.3882 39.3798 69.8985 39.0167 69.2981C38.6535 68.6977 38.4616 68.0094 38.4616 67.3077V32.6923C38.4616 31.9906 38.6535 31.3023 39.0167 30.7019C39.3798 30.1015 39.9003 29.6118 40.5217 29.286C41.1432 28.9602 41.842 28.8105 42.5423 28.8534C43.2427 28.8962 43.9181 29.1298 44.4952 29.5288L69.4952 46.8365C70.0069 47.1904 70.4251 47.6631 70.714 48.214C71.0029 48.765 71.1538 49.3779 71.1538 50C71.1538 50.6221 71.0029 51.235 70.714 51.7859C70.4251 52.3369 70.0069 52.8096 69.4952 53.1635Z" fill="url(#paint0_linear_3071_5697)"/>
<defs>
<linearGradient id="paint0_linear_3071_5697" x1="0" y1="0" x2="100" y2="100" gradientUnits="userSpaceOnUse">
<stop stop-color="#F4EDFF"/>
<stop offset="1" stop-color="#FCEBEF"/>
</linearGradient>
</defs>
</svg>
