<svg width="182" height="35" viewBox="0 0 182 35" fill="none" xmlns="http://www.w3.org/2000/svg">
<g clip-path="url(#clip0_382_474)">
<path d="M58.3795 30.3987C55.769 30.3987 53.4611 29.8914 51.4561 28.8769C49.4511 27.839 47.901 26.3746 46.8055 24.4835C45.7098 22.5923 45.1621 20.3667 45.1621 17.8069C45.1621 15.2469 45.7098 13.0214 46.8055 11.1303C47.901 9.21609 49.4511 7.75167 51.4561 6.73692C53.4611 5.6991 55.769 5.18018 58.3795 5.18018C60.1514 5.18018 61.7133 5.3647 63.0653 5.7337C64.4409 6.07965 65.6995 6.63312 66.8416 7.3942V12.4103C65.816 11.58 64.6389 10.9804 63.3102 10.6114C62.0047 10.2193 60.513 10.0233 58.8345 10.0233C57.2726 10.0233 55.8618 10.3462 54.6031 10.9919C53.3677 11.6146 52.3887 12.514 51.666 13.6903C50.9434 14.8664 50.5818 16.2386 50.5818 17.8069C50.5818 19.3982 50.9083 20.7935 51.5608 21.9926C52.2371 23.1688 53.1811 24.0799 54.3933 24.7256C55.6054 25.3713 57.0043 25.6941 58.5894 25.6941C60.0347 25.6941 61.2934 25.4405 62.3658 24.9332V20.263H58.4146V16.3885H67.506V28.0467C65.1981 29.6148 62.1563 30.3987 58.3795 30.3987Z" fill="#000628"/>
<path d="M68.7339 13.2746H73.839V15.6616C74.5152 14.8544 75.4591 14.2433 76.6713 13.8281C77.8835 13.39 79.2592 13.1709 80.7974 13.1709V17.1491C79.1891 17.1491 77.767 17.3912 76.5315 17.8756C75.3194 18.3599 74.4801 19.0979 74.0138 20.0896V29.8797H68.7339V13.2746Z" fill="#000628"/>
<path d="M90.9446 30.3984C87.7275 30.3984 85.1979 29.6375 83.3564 28.1152C81.515 26.5702 80.5942 24.4139 80.5942 21.6464C80.5942 18.902 81.4102 16.7342 83.0418 15.1428C84.697 13.5515 87.0512 12.7559 90.1054 12.7559C92.11 12.7559 93.8117 13.1249 95.2105 13.8628C96.6089 14.6008 97.67 15.6271 98.3927 16.9416C99.1154 18.2332 99.4765 19.6976 99.4765 21.335V23.4453H85.6297C86.0027 25.567 88.0071 26.6279 91.6436 26.6279C92.716 26.6279 93.8234 26.5357 94.9655 26.3512C96.1081 26.1667 97.0989 25.9129 97.9383 25.5901V29.2569C97.1222 29.6028 96.0731 29.8799 94.7907 30.0871C93.5088 30.2948 92.2265 30.3984 90.9446 30.3984ZM94.476 20.0551C94.4064 18.9481 93.9865 18.0948 93.2174 17.4951C92.4483 16.8725 91.3873 16.5612 90.0353 16.5612C88.7066 16.5612 87.6574 16.8725 86.8882 17.4951C86.1192 18.1178 85.6993 18.9711 85.6297 20.0551H94.476Z" fill="#000628"/>
<path d="M110.299 30.3984C107.082 30.3984 104.553 29.6375 102.711 28.1152C100.87 26.5702 99.9483 24.4139 99.9483 21.6464C99.9483 18.902 100.764 16.7342 102.397 15.1428C104.051 13.5515 106.406 12.7559 109.46 12.7559C111.465 12.7559 113.166 13.1249 114.565 13.8628C115.964 14.6008 117.024 15.6271 117.747 16.9416C118.47 18.2332 118.831 19.6976 118.831 21.335V23.4453H104.984C105.357 25.567 107.362 26.6279 110.998 26.6279C112.071 26.6279 113.178 26.5357 114.32 26.3512C115.462 26.1667 116.453 25.9129 117.292 25.5901V29.2569C116.476 29.6028 115.428 29.8799 114.145 30.0871C112.863 30.2948 111.581 30.3984 110.299 30.3984ZM113.831 20.0551C113.761 18.9481 113.341 18.0948 112.572 17.4951C111.803 16.8725 110.742 16.5612 109.39 16.5612C108.061 16.5612 107.012 16.8725 106.243 17.4951C105.473 18.1178 105.054 18.9711 104.984 20.0551H113.831Z" fill="#000628"/>
<path d="M120.004 13.2748H125.109V15.3158C125.879 14.4625 126.787 13.8282 127.837 13.4131C128.909 12.9749 130.028 12.7559 131.193 12.7559C133.479 12.7559 135.18 13.367 136.298 14.5893C137.44 15.7886 138.013 17.4145 138.013 19.467V29.8799H132.732V20.0551C132.732 17.9103 131.73 16.8379 129.724 16.8379C128.838 16.8379 128.012 17.057 127.242 17.4951C126.473 17.9103 125.82 18.5331 125.284 19.3632V29.8799H120.004V13.2748Z" fill="#000628"/>
<path d="M142.671 10.715C141.855 10.715 141.168 10.4498 140.608 9.91932C140.047 9.3889 139.768 8.72009 139.768 7.91289C139.768 7.1288 140.047 6.47152 140.608 5.94106C141.168 5.38758 141.855 5.11084 142.671 5.11084C143.487 5.11084 144.174 5.38758 144.734 5.94106C145.293 6.47152 145.572 7.1288 145.572 7.91289C145.572 8.72009 145.293 9.3889 144.734 9.91932C144.174 10.4498 143.487 10.715 142.671 10.715ZM140.013 13.2749H145.328V29.88H140.013V13.2749Z" fill="#000628"/>
<path d="M154.331 30.3984C153.072 30.3984 151.721 30.2601 150.276 29.9835C148.853 29.7299 147.734 29.361 146.919 28.8766V24.7944C147.851 25.3479 148.97 25.7976 150.276 26.1436C151.581 26.4896 152.793 26.6624 153.912 26.6624C154.868 26.6624 155.568 26.5818 156.01 26.4203C156.453 26.2588 156.674 25.9591 156.674 25.5209C156.674 25.175 156.546 24.8983 156.29 24.6907C156.034 24.4601 155.637 24.2639 155.101 24.1026C154.588 23.9181 153.725 23.6528 152.513 23.3069C151.092 22.8918 149.972 22.4767 149.157 22.0616C148.364 21.6233 147.757 21.0814 147.339 20.4357C146.942 19.7899 146.743 18.9596 146.743 17.9448C146.743 16.2152 147.431 14.9238 148.807 14.0705C150.205 13.194 152.094 12.7559 154.472 12.7559C155.637 12.7559 156.838 12.8827 158.074 13.1364C159.332 13.367 160.299 13.6784 160.975 14.0705V18.0487C160.299 17.6105 159.414 17.253 158.318 16.9763C157.245 16.6995 156.197 16.5612 155.171 16.5612C154.215 16.5612 153.469 16.6534 152.933 16.8379C152.421 17.0224 152.163 17.3684 152.163 17.8757C152.163 18.3138 152.409 18.6483 152.898 18.8789C153.41 19.1095 154.355 19.3979 155.731 19.7437L156.43 19.9167C157.898 20.3088 159.04 20.7469 159.856 21.2313C160.673 21.6925 161.244 22.2576 161.571 22.9264C161.92 23.5721 162.094 24.3908 162.094 25.3825C162.094 26.9048 161.43 28.127 160.102 29.0497C158.773 29.9488 156.85 30.3984 154.331 30.3984Z" fill="#000628"/>
<path d="M163.316 4.31494H168.596V15.1774C169.389 14.3702 170.287 13.7706 171.288 13.3785C172.291 12.9634 173.364 12.7558 174.506 12.7558C176.79 12.7558 178.492 13.367 179.611 14.5893C180.753 15.7885 181.324 17.4144 181.324 19.467V29.8798H176.045V20.0551C176.045 17.9102 175.041 16.8379 173.037 16.8379C172.151 16.8379 171.324 17.0569 170.555 17.4951C169.785 17.9102 169.132 18.5329 168.596 19.3631V29.8798H163.316V4.31494Z" fill="#000628"/>
<path fill-rule="evenodd" clip-rule="evenodd" d="M27.1299 9.20944C27.1299 13.6036 23.5294 17.166 19.0877 17.166C14.6459 17.166 11.0451 13.6036 11.0451 9.20944C11.0451 4.81518 14.6459 1.25293 19.0877 1.25293C23.5294 1.25293 27.1299 4.81518 27.1299 9.20944ZM0.380122 16.5877C9.14226 16.0034 16.7787 22.4935 17.49 31.1805C17.5637 32.0806 17.5601 32.969 17.485 33.8402C8.72278 34.4245 1.08634 27.9343 0.375015 19.2476C0.301357 18.3474 0.304864 17.4587 0.380122 16.5877ZM23.1541 33.536C31.9349 32.8323 38.4951 25.2774 37.9044 16.609C37.024 16.5346 36.1259 16.5311 35.216 16.604C26.4351 17.3077 19.875 24.8624 20.4657 33.5309C21.346 33.6054 22.2442 33.609 23.1541 33.536Z" fill="#000628"/>
</g>
<defs>
<clipPath id="clip0_382_474">
<rect width="181.822" height="34.5719" fill="white"/>
</clipPath>
</defs>
</svg>
