<svg width="172" height="35" viewBox="0 0 172 35" fill="none" xmlns="http://www.w3.org/2000/svg">
<g clip-path="url(#clip0_382_493)">
<path d="M4.58829 4.89916C6.9169 2.69966 10.0789 1.41587 13.2836 1.25619C14.3804 1.25619 15.4805 1.2627 16.5774 1.25293C16.5213 2.41621 16.5774 3.58276 16.5443 4.74599C16.3895 7.34624 15.4179 9.88785 13.781 11.9276C11.6532 14.6713 8.39908 16.5123 4.94402 16.9881C3.43552 17.2292 1.90392 17.0761 0.385546 17.1184C0.411872 15.8378 0.329548 14.554 0.431672 13.2766C0.728119 10.1095 2.23991 7.07581 4.58829 4.89916Z" fill="#000628" fill-opacity="0.2"/>
<path d="M17.5923 1.25293C18.7681 1.26595 19.9441 1.24642 21.1232 1.25944C24.0579 1.46471 26.9529 2.5791 29.1628 4.51142C31.6003 6.58052 33.2701 9.53922 33.6985 12.6999C33.8859 14.1663 33.7677 15.6488 33.8402 17.1216C32.8122 17.1184 31.7883 17.1151 30.7603 17.1216C28.2341 17.0533 25.7509 16.2452 23.6362 14.8831C22.6613 14.1923 21.66 13.4917 20.9289 12.5337C19.3248 10.7612 18.2347 8.53562 17.8229 6.18953C17.5133 4.56026 17.6384 2.89848 17.5923 1.25293Z" fill="#000628"/>
<path d="M0.387292 18.0537C1.4314 18.1124 2.47881 18.0048 3.51958 18.1189C7.97593 18.2134 12.3006 20.6898 14.6095 24.4599C15.9336 26.5713 16.645 29.0739 16.5528 31.5603C16.5493 32.3748 16.5626 33.1858 16.5395 33.9976C14.8862 33.9484 13.2162 34.082 11.5792 33.7659C7.94302 33.1599 4.59995 31.0189 2.58746 27.9628C1.06251 25.7404 0.301674 23.0262 0.380708 20.3444C0.380708 19.5787 0.380711 18.8162 0.387292 18.0537Z" fill="#000628"/>
<path d="M28.2753 18.3991C30.0674 18.0048 31.9147 18.0699 33.7362 18.0699L33.8155 18.1482C33.7758 19.8523 33.9108 21.5762 33.565 23.2607C32.8371 27.0406 30.3077 30.4166 26.9052 32.2705C24.7874 33.4371 22.3566 34.0104 19.9358 33.9844C19.1618 33.9877 18.3844 33.9712 17.6104 33.9944C17.6104 32.5835 17.5511 31.1659 17.7126 29.7616C18.088 26.3628 19.9457 23.1989 22.6168 21.0613C24.2702 19.7709 26.2135 18.8358 28.2753 18.3991Z" fill="#000628" fill-opacity="0.6"/>
<path d="M47.3365 27.6855C47.3365 28.2592 47.1358 28.7446 46.7347 29.1417C46.3555 29.5168 45.8758 29.7044 45.2963 29.7044C44.7385 29.7044 44.27 29.5168 43.8913 29.1417C43.512 28.7446 43.3224 28.2592 43.3224 27.6855V7.23265C43.3224 6.65901 43.512 6.18463 43.8913 5.80958C44.2923 5.41246 44.7832 5.21387 45.3632 5.21387C45.9428 5.21387 46.4113 5.41246 46.7681 5.80958C47.1469 6.18463 47.3365 6.65901 47.3365 7.23265V27.6855Z" fill="#000628"/>
<path d="M63.4498 11.9995C64.0292 11.9995 64.5089 12.198 64.8883 12.5952C65.2669 12.9702 65.4565 13.4446 65.4565 14.0183V22.4245C65.4565 24.7632 64.799 26.6165 63.4832 27.9845C62.1669 29.3524 60.2716 30.0366 57.7958 30.0366C55.3204 30.0366 53.4247 29.3524 52.109 27.9845C50.8155 26.6165 50.1685 24.7632 50.1685 22.4245V14.0183C50.1685 13.4446 50.3581 12.9702 50.7375 12.5952C51.1168 12.198 51.5958 11.9995 52.1759 11.9995C52.756 11.9995 53.235 12.198 53.6144 12.5952C53.9936 12.9702 54.1833 13.4446 54.1833 14.0183V22.4245C54.1833 23.7703 54.4844 24.7742 55.0862 25.4362C55.6886 26.076 56.5917 26.3959 57.7958 26.3959C59.0228 26.3959 59.9371 26.076 60.5394 25.4362C61.1412 24.7742 61.4423 23.7703 61.4423 22.4245V14.0183C61.4423 13.4446 61.632 12.9702 62.0114 12.5952C62.39 12.198 62.8696 11.9995 63.4498 11.9995Z" fill="#000628"/>
<path d="M77.53 11.668C79.3142 11.668 80.6299 12.0982 81.4778 12.9587C82.3249 13.7971 82.8827 14.8892 83.1499 16.235L82.5815 15.9372L82.8493 15.4077C83.1164 14.9003 83.5292 14.3597 84.087 13.7861C84.6441 13.1904 85.3134 12.6939 86.0937 12.2968C86.8969 11.8776 87.7887 11.668 88.7704 11.668C90.3762 11.668 91.5915 12.01 92.4165 12.6939C93.2642 13.3779 93.8438 14.2935 94.1561 15.4408C94.4684 16.566 94.6246 17.8237 94.6246 19.2136V27.686C94.6246 28.2598 94.4349 28.7451 94.0557 29.1421C93.6764 29.5173 93.1973 29.705 92.6172 29.705C92.0377 29.705 91.5581 29.5173 91.1788 29.1421C90.7995 28.7451 90.6099 28.2598 90.6099 27.686V19.2136C90.6099 18.4855 90.5212 17.8347 90.3427 17.2611C90.1642 16.6653 89.8407 16.191 89.3722 15.838C88.9042 15.485 88.2349 15.3085 87.3654 15.3085C86.5176 15.3085 85.7931 15.485 85.1907 15.838C84.5884 16.191 84.1315 16.6653 83.8192 17.2611C83.5292 17.8347 83.3841 18.4855 83.3841 19.2136V27.686C83.3841 28.2598 83.1945 28.7451 82.8159 29.1421C82.4365 29.5173 81.9568 29.705 81.3774 29.705C80.7972 29.705 80.3176 29.5173 79.9388 29.1421C79.5596 28.7451 79.3699 28.2598 79.3699 27.686V19.2136C79.3699 18.4855 79.2807 17.8347 79.1022 17.2611C78.9238 16.6653 78.6003 16.191 78.1323 15.838C77.6638 15.485 76.9945 15.3085 76.1249 15.3085C75.2778 15.3085 74.5527 15.485 73.9502 15.838C73.3484 16.191 72.8912 16.6653 72.5788 17.2611C72.2892 17.8347 72.1443 18.4855 72.1443 19.2136V27.686C72.1443 28.2598 71.9547 28.7451 71.5754 29.1421C71.1961 29.5173 70.717 29.705 70.137 29.705C69.5569 29.705 69.0778 29.5173 68.6985 29.1421C68.3192 28.7451 68.1296 28.2598 68.1296 27.686V14.0177C68.1296 13.4441 68.3192 12.9697 68.6985 12.5946C69.0778 12.1975 69.5569 11.9989 70.137 11.9989C70.717 11.9989 71.1961 12.1975 71.5754 12.5946C71.9547 12.9697 72.1443 13.4441 72.1443 14.0177V15.4408L71.6424 15.3415C71.8431 14.9665 72.122 14.5693 72.4784 14.1501C72.8353 13.7089 73.2704 13.3007 73.7835 12.9256C74.2961 12.5505 74.865 12.2527 75.4892 12.032C76.1138 11.7893 76.7943 11.668 77.53 11.668Z" fill="#000628"/>
<path d="M101.078 27.6864C101.078 28.26 100.888 28.7454 100.509 29.1425C100.13 29.5176 99.6505 29.7052 99.0705 29.7052C98.491 29.7052 98.0113 29.5176 97.6319 29.1425C97.2533 28.7454 97.0636 28.26 97.0636 27.6864V14.0181C97.0636 13.4444 97.2533 12.97 97.6319 12.5949C98.0113 12.1978 98.491 11.9992 99.0705 11.9992C99.6505 11.9992 100.13 12.1978 100.509 12.5949C100.888 12.97 101.078 13.4444 101.078 14.0181V27.6864ZM99.0369 9.84802C98.2789 9.84802 97.7436 9.72668 97.4311 9.48395C97.1193 9.24127 96.9633 8.81104 96.9633 8.19325V7.56443C96.9633 6.92463 97.1306 6.49434 97.4647 6.27374C97.8217 6.03107 98.357 5.90967 99.0705 5.90967C99.8513 5.90967 100.398 6.03107 100.71 6.27374C101.022 6.51642 101.178 6.94664 101.178 7.56443V8.19325C101.178 8.83311 101.011 9.27438 100.676 9.51706C100.342 9.73772 99.7955 9.84802 99.0369 9.84802Z" fill="#000628"/>
<path d="M113.097 11.668C114.747 11.668 115.996 12.01 116.843 12.6939C117.713 13.3779 118.304 14.2935 118.616 15.4408C118.951 16.566 119.118 17.8237 119.118 19.2136V27.686C119.118 28.2598 118.929 28.7451 118.55 29.1421C118.17 29.5173 117.691 29.705 117.111 29.705C116.532 29.705 116.052 29.5173 115.673 29.1421C115.293 28.7451 115.104 28.2598 115.104 27.686V19.2136C115.104 18.4855 115.004 17.8347 114.803 17.2611C114.625 16.6653 114.29 16.191 113.799 15.838C113.309 15.485 112.606 15.3085 111.692 15.3085C110.8 15.3085 110.042 15.485 109.417 15.838C108.815 16.191 108.347 16.6653 108.012 17.2611C107.699 17.8347 107.543 18.4855 107.543 19.2136V27.686C107.543 28.2598 107.354 28.7451 106.975 29.1421C106.596 29.5173 106.116 29.705 105.537 29.705C104.956 29.705 104.477 29.5173 104.098 29.1421C103.719 28.7451 103.529 28.2598 103.529 27.686V14.0177C103.529 13.4441 103.719 12.9697 104.098 12.5946C104.477 12.1975 104.956 11.9989 105.537 11.9989C106.116 11.9989 106.596 12.1975 106.975 12.5946C107.354 12.9697 107.543 13.4441 107.543 14.0177V15.4408L107.042 15.3415C107.243 14.9665 107.532 14.5693 107.911 14.1501C108.291 13.7089 108.737 13.3007 109.249 12.9256C109.763 12.5505 110.343 12.2527 110.989 12.032C111.636 11.7893 112.338 11.668 113.097 11.668Z" fill="#000628"/>
<path d="M138.98 20.8684C138.98 22.6776 138.568 24.2772 137.743 25.6673C136.941 27.0352 135.847 28.1052 134.464 28.8773C133.104 29.6498 131.577 30.036 129.882 30.036C128.186 30.036 126.648 29.6498 125.265 28.8773C123.905 28.1052 122.812 27.0352 121.987 25.6673C121.184 24.2772 120.783 22.6776 120.783 20.8684C120.783 19.0592 121.184 17.4707 121.987 16.1028C122.812 14.7127 123.905 13.6317 125.265 12.8594C126.648 12.0651 128.186 11.668 129.882 11.668C131.577 11.668 133.104 12.0651 134.464 12.8594C135.847 13.6317 136.941 14.7127 137.743 16.1028C138.568 17.4707 138.98 19.0592 138.98 20.8684ZM134.967 20.8684C134.967 19.7432 134.733 18.7724 134.265 17.9561C133.818 17.1176 133.204 16.4668 132.425 16.0034C131.667 15.5401 130.819 15.3085 129.882 15.3085C128.946 15.3085 128.086 15.5401 127.306 16.0034C126.548 16.4668 125.934 17.1176 125.466 17.9561C125.02 18.7724 124.797 19.7432 124.797 20.8684C124.797 21.9717 125.02 22.9425 125.466 23.7808C125.934 24.5972 126.548 25.237 127.306 25.7003C128.086 26.1637 128.946 26.3953 129.882 26.3953C130.819 26.3953 131.667 26.1637 132.425 25.7003C133.204 25.237 133.818 24.5972 134.265 23.7808C134.733 22.9425 134.967 21.9717 134.967 20.8684Z" fill="#000628"/>
<path d="M153.941 11.9995C154.521 11.9995 155.002 12.198 155.381 12.5952C155.76 12.9702 155.949 13.4446 155.949 14.0183V22.4245C155.949 24.7632 155.291 26.6165 153.975 27.9845C152.66 29.3524 150.765 30.0366 148.288 30.0366C145.813 30.0366 143.917 29.3524 142.602 27.9845C141.309 26.6165 140.661 24.7632 140.661 22.4245V14.0183C140.661 13.4446 140.85 12.9702 141.231 12.5952C141.61 12.198 142.088 11.9995 142.668 11.9995C143.249 11.9995 143.727 12.198 144.106 12.5952C144.487 12.9702 144.676 13.4446 144.676 14.0183V22.4245C144.676 23.7703 144.976 24.7742 145.579 25.4362C146.181 26.076 147.085 26.3959 148.288 26.3959C149.515 26.3959 150.429 26.076 151.031 25.4362C151.634 24.7742 151.935 23.7703 151.935 22.4245V14.0183C151.935 13.4446 152.125 12.9702 152.504 12.5952C152.883 12.198 153.363 11.9995 153.941 11.9995Z" fill="#000628"/>
<path d="M157.587 26.9579C157.364 26.6491 157.263 26.2519 157.286 25.7665C157.308 25.2811 157.598 24.862 158.155 24.5089C158.511 24.2882 158.892 24.2 159.292 24.2442C159.694 24.2662 160.084 24.4648 160.464 24.8398C161.111 25.4797 161.79 25.9761 162.504 26.3291C163.218 26.6821 164.111 26.8587 165.18 26.8587C165.515 26.8366 165.883 26.7925 166.285 26.7263C166.686 26.6381 167.031 26.4615 167.321 26.1967C167.633 25.9099 167.789 25.4797 167.789 24.906C167.789 24.4206 167.623 24.0346 167.287 23.7478C166.953 23.4609 166.508 23.2182 165.949 23.0196C165.414 22.8211 164.812 22.6335 164.144 22.4571C163.452 22.2585 162.738 22.0379 162.002 21.7951C161.289 21.5524 160.63 21.2435 160.029 20.8684C159.427 20.4712 158.936 19.9528 158.556 19.313C158.178 18.6731 157.988 17.8677 157.988 16.897C157.988 15.7938 158.3 14.8561 158.925 14.0839C159.55 13.3117 160.353 12.716 161.333 12.2968C162.337 11.8776 163.385 11.668 164.478 11.668C165.17 11.668 165.894 11.7562 166.652 11.9327C167.41 12.0872 168.135 12.3519 168.827 12.727C169.518 13.08 170.098 13.5544 170.567 14.1501C170.811 14.4811 170.957 14.8782 171.001 15.3415C171.046 15.8048 170.834 16.224 170.366 16.5992C170.031 16.8639 169.641 16.9852 169.194 16.9632C168.748 16.919 168.381 16.7646 168.09 16.4998C167.711 16.0145 167.199 15.6284 166.552 15.3415C165.928 15.0547 165.203 14.9113 164.377 14.9113C164.043 14.9113 163.675 14.9555 163.273 15.0437C162.894 15.1099 162.56 15.2754 162.271 15.5401C161.98 15.7828 161.835 16.18 161.835 16.7316C161.835 17.239 162.002 17.6472 162.337 17.9561C162.671 18.2429 163.117 18.4855 163.675 18.6841C164.254 18.8607 164.869 19.0372 165.515 19.2136C166.184 19.3902 166.865 19.5998 167.555 19.8424C168.246 20.0852 168.883 20.405 169.463 20.8022C170.043 21.1994 170.51 21.7179 170.868 22.3577C171.225 22.9755 171.403 23.7698 171.403 24.7406C171.403 25.8659 171.069 26.8256 170.399 27.6198C169.73 28.4142 168.893 29.0207 167.89 29.4401C166.887 29.8374 165.86 30.036 164.812 30.036C163.496 30.036 162.181 29.8154 160.865 29.3739C159.55 28.9104 158.456 28.1052 157.587 26.9579Z" fill="#000628"/>
</g>
<defs>
<clipPath id="clip0_382_493">
<rect width="171.579" height="34.5719" fill="white"/>
</clipPath>
</defs>
</svg>
