<svg width="175" height="30" viewBox="0 0 175 30" fill="none" xmlns="http://www.w3.org/2000/svg">
<g clip-path="url(#clip0_382_484)">
<path fill-rule="evenodd" clip-rule="evenodd" d="M18.2427 1.91943C15.4875 1.91943 13.2542 4.12897 13.2542 6.85454C13.2542 9.58013 15.4875 11.7896 18.2427 11.7896C20.9978 11.7896 23.2311 9.58013 23.2311 6.85454C23.2311 4.12897 20.9978 1.91943 18.2427 1.91943ZM8.4891 11.5204C13.6817 11.5204 17.8913 15.6848 17.8913 20.8219V28.4458H13.2146V20.8219C13.2146 20.2748 13.1196 19.7498 12.9451 19.2619L6.07573 26.0578L2.76882 22.7861L9.39339 16.2326C9.10069 16.1764 8.79836 16.1471 8.4891 16.1471H0.783081V11.5204H8.4891ZM28.1125 11.5204C22.92 11.5204 18.7103 15.6848 18.7103 20.8219V28.4458H23.3869V20.8219C23.3869 20.3935 23.4453 19.9784 23.5544 19.5841L30.7403 26.6933L34.0472 23.4215L26.8614 16.3126C27.2599 16.2047 27.6795 16.1471 28.1125 16.1471H35.8185V11.5204H28.1125Z" fill="#000628"/>
<path d="M43.3002 28.7132V2.11963H50.9131L59.0754 24.9085H59.6641V2.11963H64.02V28.7132H56.5641L48.2053 5.88543H47.656V28.7132H43.3002Z" fill="#000628"/>
<path d="M81.4714 25.2173L82.5701 25.101L82.6487 28.2457C79.6662 28.8409 77.0239 29.1385 74.7218 29.1385C71.8179 29.1385 69.7249 28.349 68.4432 26.7703C67.1873 25.1914 66.5594 22.6681 66.5594 19.1999C66.5594 12.3153 69.3979 8.87305 75.0749 8.87305C80.5688 8.87305 83.3159 11.8365 83.3159 17.7635L83.0412 20.7915H70.876C70.9021 22.3962 71.2554 23.574 71.9357 24.3243C72.6157 25.0752 73.8847 25.4502 75.7422 25.4502C77.5995 25.4502 79.5094 25.3727 81.4714 25.2173ZM79.1169 17.5306C79.1169 15.6153 78.8029 14.2824 78.175 13.5318C77.5736 12.7553 76.54 12.3671 75.0749 12.3671C73.61 12.3671 72.5374 12.7682 71.8571 13.5706C71.203 14.3729 70.8628 15.6929 70.8369 17.5306H79.1169Z" fill="#000628"/>
<path d="M96.023 12.9111H90.6075V21.4522C90.6075 23.0311 90.7253 24.0791 90.9606 24.5967C91.1961 25.1142 91.7978 25.3734 92.7659 25.3734L95.9838 25.2567L96.1798 28.6343C94.4271 28.9708 93.093 29.1392 92.1773 29.1392C89.9537 29.1392 88.4232 28.6343 87.586 27.625C86.7748 26.6155 86.3695 24.7133 86.3695 21.9181V12.9111H83.8578V9.30068H86.3695V3.67139H90.6075V9.30068H96.023V12.9111Z" fill="#000628"/>
<path d="M96.0382 9.30127H100.237L103.337 25.1022H104.122L107.85 9.6895H112.245L115.973 25.1022H116.758L119.819 9.30127H124.057L119.897 28.7126H113.109L110.048 15.3964L106.987 28.7126H100.198L96.0382 9.30127Z" fill="#000628"/>
<path d="M126.787 11.3965C128.148 9.7142 130.397 8.87305 133.537 8.87305C136.675 8.87305 138.912 9.7142 140.247 11.3965C141.608 13.0789 142.288 15.6022 142.288 18.967C142.288 22.3316 141.633 24.8679 140.325 26.576C139.017 28.2845 136.755 29.1385 133.537 29.1385C130.319 29.1385 128.055 28.2845 126.748 26.576C125.439 24.8679 124.786 22.3316 124.786 18.967C124.786 15.6022 125.453 13.0789 126.787 11.3965ZM130.004 24.0138C130.606 25.0492 131.784 25.5667 133.537 25.5667C135.29 25.5667 136.467 25.0492 137.068 24.0138C137.67 22.9786 137.971 21.2834 137.971 18.9282C137.971 16.5728 137.643 14.9035 136.99 13.92C136.362 12.9365 135.211 12.4447 133.537 12.4447C131.862 12.4447 130.698 12.9365 130.044 13.92C129.417 14.9035 129.102 16.5728 129.102 18.9282C129.102 21.2834 129.402 22.9786 130.004 24.0138Z" fill="#000628"/>
<path d="M144.575 28.7114V9.30009H148.813V11.6295C151.036 10.206 153.26 9.28714 155.484 8.87305V13.1047C153.234 13.5447 151.311 14.1141 149.716 14.813L148.853 15.1623V28.7114H144.575Z" fill="#000628"/>
<path d="M161.07 28.712H156.793V1.22559H161.07V17.104L163.504 16.8712L168.134 9.30068H172.921L167.271 18.3853L173.235 28.712H168.408L163.621 20.5203L161.07 20.792V28.712Z" fill="#000628"/>
</g>
<defs>
<clipPath id="clip0_382_484">
<rect width="174.14" height="29.4501" fill="white"/>
</clipPath>
</defs>
</svg>
