<svg width="196" height="47" viewBox="0 0 196 47" fill="none" xmlns="http://www.w3.org/2000/svg">
<path d="M59.0938 25.4237C59.0938 29.2349 62.1833 32.3244 65.9944 32.3244H70.8173C71.9648 32.3244 72.8951 31.3941 72.8951 30.2465C72.8951 29.0989 71.9648 28.1686 70.8173 28.1686H68.4471C65.9905 28.1686 63.9991 26.1772 63.9991 23.7206V14.9683C63.9991 13.6137 62.901 12.5156 61.5464 12.5156C60.1918 12.5156 59.0938 13.6137 59.0938 14.9683V25.4237Z" fill="#242424"/>
<path d="M81.0737 29.5521C79.106 29.5521 78.0806 27.8345 78.0806 25.258C78.0806 22.6814 79.106 20.936 81.0737 20.936C83.0414 20.936 84.0945 22.6814 84.0945 25.258C84.0945 27.8345 83.0414 29.5521 81.0737 29.5521ZM81.1015 32.7659C85.6741 32.7659 88.6672 29.5245 88.6672 25.258C88.6672 20.9914 85.6741 17.75 81.1015 17.75C76.5563 17.75 73.5078 20.9914 73.5078 25.258C73.5078 29.5245 76.5563 32.7659 81.1015 32.7659Z" fill="#242424"/>
<path d="M96.5809 37.2267C98.6873 37.2267 100.544 36.7557 101.791 35.6476C102.927 34.6225 103.676 33.0709 103.676 30.9377V20.2999C103.676 19.1061 102.708 18.1383 101.514 18.1383H100.114C99.6935 18.1383 99.3524 18.4794 99.3524 18.9001V19.6255C99.3524 19.6456 99.3361 19.662 99.3159 19.662C99.304 19.662 99.2928 19.6561 99.2859 19.6463C98.4543 18.4642 97.1824 17.7227 95.3061 17.7227C91.7865 17.7227 89.3477 20.6594 89.3477 24.815C89.3477 29.1646 92.313 31.5473 95.5001 31.5473C97.2027 31.5473 98.2794 30.8672 99.1078 29.9384C99.1223 29.9221 99.1432 29.9126 99.1651 29.9126C99.2073 29.9126 99.2415 29.9468 99.2415 29.989V31.3256C99.2415 33.0433 98.4377 34.0407 96.5255 34.0407C95.9781 34.0407 95.5309 33.9554 95.1715 33.8107C94.2423 33.4364 93.3557 32.6554 92.3539 32.6554C90.9314 32.6554 89.8073 34.01 90.7249 35.0969C91.9019 36.491 93.9369 37.2267 96.5809 37.2267ZM96.5533 28.195C94.8627 28.195 93.7542 26.8098 93.7542 24.6764C93.7542 22.5156 94.8627 21.1304 96.5533 21.1304C98.4377 21.1304 99.4355 22.7372 99.4355 24.6488C99.4355 26.6435 98.5209 28.195 96.5533 28.195Z" fill="#242424"/>
<path d="M112.566 29.5521C110.598 29.5521 109.573 27.8345 109.573 25.258C109.573 22.6814 110.598 20.936 112.566 20.936C114.533 20.936 115.587 22.6814 115.587 25.258C115.587 27.8345 114.533 29.5521 112.566 29.5521ZM112.594 32.7659C117.166 32.7659 120.159 29.5245 120.159 25.258C120.159 20.9914 117.166 17.75 112.594 17.75C108.048 17.75 105 20.9914 105 25.258C105 29.5245 108.048 32.7659 112.594 32.7659Z" fill="#242424"/>
<path d="M121.479 30.0658C121.479 31.3132 122.49 32.3244 123.737 32.3244C124.985 32.3244 125.996 31.3132 125.996 30.0658V20.3983C125.996 19.1509 124.985 18.1396 123.737 18.1396C122.49 18.1396 121.479 19.1509 121.479 20.3983V30.0658ZM121.479 14.3441C121.479 15.354 122.297 16.1726 123.307 16.1726H124.167C125.177 16.1726 125.996 15.354 125.996 14.3441C125.996 13.3343 125.177 12.5156 124.167 12.5156H123.307C122.297 12.5156 121.479 13.3343 121.479 14.3441Z" fill="#242424"/>
<path d="M127.957 34.7466C127.957 35.9939 128.968 37.005 130.215 37.005C131.463 37.005 132.474 35.9939 132.474 34.7466V30.8923C132.474 30.8715 132.491 30.8546 132.511 30.8546C132.523 30.8546 132.535 30.8603 132.542 30.8698C133.428 32.052 134.727 32.7663 136.549 32.7663C140.262 32.7663 142.728 29.8295 142.728 25.2307C142.728 20.9641 140.429 17.7227 136.659 17.7227C134.73 17.7227 133.35 18.5717 132.38 19.8341C132.369 19.8478 132.353 19.8559 132.336 19.8559C132.305 19.8559 132.28 19.8311 132.28 19.8005V18.9971C132.28 18.5228 131.896 18.1383 131.422 18.1383H130.119C128.925 18.1383 127.957 19.1061 127.957 20.3V34.7466ZM135.385 29.2755C133.444 29.2755 132.336 27.6963 132.336 25.3969C132.336 23.0973 133.334 21.3519 135.302 21.3519C137.242 21.3519 138.156 22.9588 138.156 25.3969C138.156 27.8071 137.102 29.2755 135.385 29.2755Z" fill="#242424"/>
<path d="M150.083 32.7663C153.796 32.7663 156.54 31.1594 156.54 28.0564C156.54 24.4272 153.603 23.79 151.109 23.3743C149.307 23.0419 147.7 22.9035 147.7 21.906C147.7 21.0195 148.559 20.6039 149.667 20.6039C150.155 20.6039 150.583 20.6633 150.934 20.8118C151.915 21.2269 152.737 22.2662 153.801 22.2662C155.039 22.2662 156.071 21.1451 155.408 20.1005C154.454 18.5971 152.539 17.7227 149.695 17.7227C146.341 17.7227 143.57 19.2742 143.57 22.2662C143.57 25.5908 146.203 26.2557 148.669 26.6712C150.554 27.0038 152.272 27.1422 152.272 28.4166C152.272 29.3308 151.413 29.8295 150.055 29.8295C149.368 29.8295 148.797 29.6833 148.365 29.3881C147.441 28.7571 146.607 27.724 145.489 27.724C144.232 27.724 143.17 28.8329 143.787 29.9287C144.799 31.728 147.019 32.7663 150.083 32.7663Z" fill="#242424"/>
<path d="M162.676 32.737C164.633 32.737 165.877 31.9697 166.899 30.5988C166.909 30.5845 166.926 30.576 166.944 30.576C166.975 30.576 167 30.6011 167 30.632V31.4487C167 31.9306 167.391 32.3213 167.873 32.3213H169.162C170.355 32.3213 171.323 31.3535 171.323 30.1597V20.3958C171.323 19.1481 170.312 18.1367 169.064 18.1367C167.817 18.1367 166.805 19.1481 166.805 20.3958V26.0602C166.805 27.7502 165.863 28.9137 164.311 28.9137C162.87 28.9137 162.177 28.0549 162.177 26.5035V20.3813C162.177 19.1416 161.172 18.1367 159.932 18.1367C158.692 18.1367 157.688 19.1416 157.688 20.3813V27.4454C157.688 30.6037 159.405 32.737 162.676 32.737Z" fill="#242424"/>
<path d="M173.287 30.0645C173.287 31.3118 174.298 32.3229 175.545 32.3229C176.793 32.3229 177.804 31.3118 177.804 30.0645V24.3718C177.804 22.6818 178.635 21.4905 180.049 21.4905C181.406 21.4905 182.044 22.377 182.044 23.9008V30.0639C182.044 31.3115 183.056 32.3229 184.303 32.3229C185.551 32.3229 186.562 31.3115 186.562 30.0639V24.3718C186.562 22.6818 187.366 21.4905 188.806 21.4905C190.165 21.4905 190.802 22.377 190.802 23.9008V30.0639C190.802 31.3115 191.813 32.3229 193.061 32.3229C194.308 32.3229 195.32 31.3115 195.32 30.0639V23.0973C195.32 19.9114 193.712 17.7227 190.498 17.7227C188.676 17.7227 187.157 18.4919 186.049 20.1944C186.04 20.2078 186.025 20.216 186.01 20.216C185.991 20.216 185.975 20.2055 185.967 20.1891C185.242 18.681 183.835 17.7227 181.989 17.7227C179.951 17.7227 178.596 18.6811 177.709 20.1351C177.699 20.1509 177.682 20.1607 177.663 20.1607C177.634 20.1607 177.611 20.137 177.611 20.1077V19.1495C177.611 18.591 177.158 18.1383 176.599 18.1383H175.449C174.255 18.1383 173.287 19.1061 173.287 20.3V30.0645Z" fill="#242424"/>
<path fill-rule="evenodd" clip-rule="evenodd" d="M23.0948 46.1741C35.8497 46.1741 46.1898 35.8377 46.1898 23.0871C46.1898 10.3364 35.8497 0 23.0948 0C10.3399 0 0 10.3364 0 23.0871C0 35.8377 10.3399 46.1741 23.0948 46.1741ZM30.2997 10.7549C30.6503 9.50964 29.4414 8.77325 28.3374 9.55956L12.9251 20.5354C11.7278 21.3883 11.9162 23.0871 13.2081 23.0871H17.2509C17.2595 23.0871 17.2666 23.08 17.2666 23.0714C17.2666 23.0627 17.2736 23.0556 17.2823 23.0556H18.8996C20.1079 23.0556 20.3965 24.7416 19.2571 25.1435C18.9274 25.2597 18.6749 25.5291 18.5802 25.8656L15.8901 35.4193C15.5394 36.6646 16.7482 37.4009 17.8523 36.6147L33.2645 25.6388C34.462 24.786 34.2735 23.0871 32.9817 23.0871C29.8925 23.0871 27.658 20.1364 28.4953 17.1629L30.2997 10.7549Z" fill="#242424"/>
</svg>
