<svg width="83" height="39" viewBox="0 0 83 39" fill="none" xmlns="http://www.w3.org/2000/svg">
<path d="M51.7969 23.7673C51.7969 27.5785 54.8864 30.6681 58.6976 30.6681H63.5205C64.6681 30.6681 65.5984 29.7378 65.5984 28.5902C65.5984 27.4426 64.6681 26.5123 63.5205 26.5123H61.1503C58.6937 26.5123 56.7022 24.5208 56.7022 22.0642V13.312C56.7022 11.9575 55.6041 10.8594 54.2495 10.8594C52.895 10.8594 51.7969 11.9575 51.7969 13.312V23.7673Z" fill="#242424"/>
<path d="M73.7768 27.8999C71.8091 27.8999 70.7837 26.1821 70.7837 23.6057C70.7837 21.0291 71.8091 19.2837 73.7768 19.2837C75.7445 19.2837 76.7976 21.0291 76.7976 23.6057C76.7976 26.1821 75.7445 27.8999 73.7768 27.8999ZM73.8046 31.1135C78.3774 31.1135 81.3704 27.8721 81.3704 23.6057C81.3704 19.3392 78.3774 16.0977 73.8046 16.0977C69.2594 16.0977 66.2109 19.3392 66.2109 23.6057C66.2109 27.8721 69.2594 31.1135 73.8046 31.1135Z" fill="#242424"/>
<path d="M89.2842 35.5744C91.3904 35.5744 93.2472 35.1034 94.4944 33.9952C95.6305 32.9701 96.3788 31.4187 96.3788 29.2854V18.6476C96.3788 17.4537 95.411 16.4859 94.2172 16.4859H92.8174C92.3967 16.4859 92.0555 16.8271 92.0555 17.2478V17.9733C92.0555 17.9934 92.0392 18.0097 92.0191 18.0097C92.0071 18.0097 91.9959 18.0039 91.9891 17.9941C91.1575 16.8118 89.8856 16.0703 88.0093 16.0703C84.4896 16.0703 82.0508 19.0071 82.0508 23.1627C82.0508 27.5124 85.0161 29.8949 88.2033 29.8949C89.9059 29.8949 90.9825 29.2149 91.8109 28.2862C91.8255 28.2699 91.8463 28.2604 91.8682 28.2604C91.9104 28.2604 91.9447 28.2946 91.9447 28.3368V29.6732C91.9447 31.391 91.141 32.3883 89.2287 32.3883C88.6813 32.3883 88.234 32.3031 87.8746 32.1583C86.9454 31.7841 86.0588 31.0031 85.0571 31.0031C83.6346 31.0031 82.5104 32.3576 83.4281 33.4446C84.605 34.8387 86.6401 35.5744 89.2842 35.5744ZM89.2564 26.5427C87.5659 26.5427 86.4573 25.1575 86.4573 23.0242C86.4573 20.8633 87.5659 19.478 89.2564 19.478C91.141 19.478 92.1387 21.0849 92.1387 22.9965C92.1387 24.9913 91.2241 26.5427 89.2564 26.5427Z" fill="#242424"/>
<path d="M38.9857 12.9915C38.9858 10.3746 38.1953 7.8185 36.7177 5.65826C35.2401 3.49801 33.1441 1.83425 30.7046 0.884914C28.2651 -0.0644312 25.5956 -0.255086 23.0459 0.337904C21.9346 0.596338 20.8687 0.998363 19.8731 1.52935C17.4019 2.84747 14.8206 4.2082 12.0198 4.2082H10C4.47715 4.2082 0 8.68535 0 14.2082V28.8418C0 34.3646 4.47715 38.8418 10 38.8418H24.6583C30.1812 38.8418 34.6583 34.3646 34.6583 28.8418V27.129C34.6583 24.2827 36.0626 21.6664 37.4186 19.1639C37.5741 18.877 37.719 18.5838 37.8528 18.2849C38.5984 16.6196 38.9845 14.816 38.9857 12.9915ZM32.3171 12.9915C32.3197 14.2455 31.9501 15.4722 31.2551 16.5162C30.5599 17.56 29.5708 18.3745 28.4126 18.8561C27.2543 19.3379 25.9793 19.4653 24.7485 19.2222C23.5179 18.9792 22.387 18.3766 21.4991 17.4907C20.6111 16.6049 20.0061 15.4757 19.7604 14.2459C19.5147 13.0163 19.6395 11.7412 20.1189 10.5824C20.5983 9.42355 21.4109 8.43298 22.4537 7.73601C23.4966 7.03903 24.7229 6.66701 25.9773 6.66699C27.6564 6.66699 29.267 7.33291 30.4555 8.5186C31.6442 9.70429 32.3136 11.313 32.3171 12.9915ZM27.9897 29.2612C27.9897 30.8707 26.685 32.1754 25.0755 32.1754H16.6686C11.1458 32.1754 6.6686 27.6983 6.6686 22.1754V13.834C6.6686 12.1996 7.99359 10.8746 9.62805 10.8746H11.0376C12.1468 10.8746 12.978 11.8823 12.9689 12.9915C12.9725 16.4394 14.3441 19.7449 16.7829 22.183C19.2216 24.6209 22.5283 25.9921 25.9773 25.9955C27.036 25.99 27.9897 26.7877 27.9897 27.8464V29.2612Z" fill="#242424"/>
</svg>
