<svg width="175" height="30" viewBox="0 0 175 30" fill="none" xmlns="http://www.w3.org/2000/svg">
<g clip-path="url(#clip0_1327_5032)">
<path fill-rule="evenodd" clip-rule="evenodd" d="M18.2426 1.91797C15.4875 1.91797 13.2542 4.12751 13.2542 6.85308C13.2542 9.57867 15.4875 11.7882 18.2426 11.7882C20.9978 11.7882 23.2311 9.57867 23.2311 6.85308C23.2311 4.12751 20.9978 1.91797 18.2426 1.91797ZM8.48909 11.5189C13.6817 11.5189 17.8913 15.6834 17.8913 20.8206V28.4443H13.2146V20.8206C13.2146 20.2733 13.1196 19.7483 12.9451 19.2603L6.07572 26.0564L2.7688 22.7846L9.39337 16.2311C9.10068 16.175 8.79834 16.1455 8.48909 16.1455H0.783066V11.5189H8.48909ZM28.1125 11.5189C22.92 11.5189 18.7103 15.6834 18.7103 20.8206V28.4443H23.3869V20.8206C23.3869 20.3921 23.4453 19.9769 23.5544 19.5828L30.7402 26.6918L34.0472 23.4201L26.8614 16.3112C27.2599 16.2032 27.6795 16.1455 28.1125 16.1455H35.8185V11.5189H28.1125Z" fill="#242424"/>
<path d="M43.3001 28.7107V2.11719H50.9131L59.0754 24.906H59.664V2.11719H64.02V28.7107H56.5641L48.2052 5.88298H47.6559V28.7107H43.3001Z" fill="#242424"/>
<path d="M81.4714 25.2193L82.5701 25.103L82.6487 28.2475C79.6662 28.8428 77.0239 29.1405 74.7218 29.1405C71.8179 29.1405 69.7249 28.3509 68.4431 26.7724C67.1873 25.1933 66.5594 22.67 66.5594 19.2019C66.5594 12.3173 69.3978 8.875 75.0749 8.875C80.5688 8.875 83.3158 11.8384 83.3158 17.7654L83.0412 20.7935H70.876C70.9021 22.3982 71.2554 23.5759 71.9357 24.3263C72.6157 25.077 73.8846 25.4521 75.7422 25.4521C77.5994 25.4521 79.5093 25.3748 81.4714 25.2193ZM79.1169 17.5326C79.1169 15.6172 78.8029 14.2842 78.175 13.5338C77.5736 12.7573 76.54 12.369 75.0749 12.369C73.61 12.369 72.5373 12.7702 71.857 13.5726C71.203 14.3749 70.8628 15.6949 70.8369 17.5326H79.1169Z" fill="#242424"/>
<path d="M96.0231 12.9117H90.6075V21.4526C90.6075 23.0315 90.7253 24.0797 90.9608 24.5972C91.1961 25.1148 91.7978 25.3738 92.7659 25.3738L95.9838 25.2573L96.1798 28.6347C94.427 28.9712 93.093 29.1396 92.1773 29.1396C89.9537 29.1396 88.4232 28.6347 87.586 27.6255C86.7748 26.616 86.3695 24.7138 86.3695 21.9187V12.9117H83.8578V9.30117H86.3695V3.67188H90.6075V9.30117H96.0231V12.9117Z" fill="#242424"/>
<path d="M96.0382 9.30078H100.237L103.337 25.1018H104.122L107.85 9.68902H112.245L115.973 25.1018H116.758L119.819 9.30078H124.057L119.897 28.7121H113.109L110.048 15.3959L106.987 28.7121H100.198L96.0382 9.30078Z" fill="#242424"/>
<path d="M126.787 11.3985C128.148 9.71616 130.397 8.875 133.537 8.875C136.675 8.875 138.912 9.71616 140.247 11.3985C141.608 13.0807 142.288 15.6042 142.288 18.969C142.288 22.3335 141.633 24.8699 140.325 26.578C139.017 28.2865 136.755 29.1405 133.537 29.1405C130.319 29.1405 128.055 28.2865 126.748 26.578C125.439 24.8699 124.786 22.3335 124.786 18.969C124.786 15.6042 125.453 13.0807 126.787 11.3985ZM130.004 24.0157C130.606 25.0512 131.784 25.5687 133.537 25.5687C135.29 25.5687 136.467 25.0512 137.068 24.0157C137.67 22.9806 137.971 21.2854 137.971 18.93C137.971 16.5748 137.643 14.9054 136.99 13.9219C136.362 12.9384 135.211 12.4467 133.537 12.4467C131.862 12.4467 130.698 12.9384 130.044 13.9219C129.417 14.9054 129.102 16.5748 129.102 18.93C129.102 21.2854 129.402 22.9806 130.004 24.0157Z" fill="#242424"/>
<path d="M144.575 28.7134V9.30204H148.813V11.6314C151.036 10.2079 153.26 9.28909 155.484 8.875V13.1067C153.234 13.5467 151.311 14.1161 149.716 14.8148L148.852 15.1643V28.7134H144.575Z" fill="#242424"/>
<path d="M161.069 28.713H156.793V1.22656H161.069V17.105L163.504 16.8721L168.134 9.30167H172.921L167.271 18.3862L173.235 28.713H168.408L163.621 20.5212L161.069 20.7931V28.713Z" fill="#242424"/>
</g>
<defs>
<clipPath id="clip0_1327_5032">
<rect width="174.14" height="29.4501" rx="10" fill="white"/>
</clipPath>
</defs>
</svg>
