<svg width="172" height="35" viewBox="0 0 172 35" fill="none" xmlns="http://www.w3.org/2000/svg">
<g clip-path="url(#clip0_1327_5017)">
<path d="M4.58827 4.90014C6.9169 2.70064 10.0789 1.41685 13.2836 1.25716C14.3804 1.25716 15.4804 1.26367 16.5772 1.25391C16.5213 2.41719 16.5772 3.58373 16.5443 4.74696C16.3895 7.34721 15.4179 9.88882 13.7809 11.9286C11.6532 14.6723 8.39907 16.5134 4.94401 16.989C3.4355 17.2301 1.90392 17.077 0.385539 17.1194C0.411865 15.8388 0.32954 14.555 0.431664 13.2777C0.728111 10.1104 2.2399 7.07679 4.58827 4.90014Z" fill="#242424" fill-opacity="0.2"/>
<path d="M17.5923 1.25391C18.7681 1.26693 19.9439 1.2474 21.1231 1.26042C24.0578 1.46568 26.9529 2.58008 29.1628 4.5124C31.6003 6.5815 33.2701 9.5402 33.6985 12.7009C33.8859 14.1672 33.7677 15.6498 33.8401 17.1226C32.8122 17.1194 31.7881 17.1162 30.7602 17.1226C28.2341 17.0542 25.7507 16.2461 23.6362 14.8841C22.6613 14.1933 21.66 13.4928 20.9288 12.5347C19.3247 10.7621 18.2345 8.5366 17.8229 6.1905C17.5133 4.56123 17.6384 2.89945 17.5923 1.25391Z" fill="#242424"/>
<path d="M0.387292 18.0547C1.4314 18.1133 2.47882 18.0058 3.51958 18.1199C7.97592 18.2144 12.3006 20.6907 14.6094 24.4609C15.9335 26.5723 16.6449 29.0749 16.5527 31.5613C16.5494 32.3758 16.5625 33.1868 16.5395 33.9986C14.8861 33.9494 13.2162 34.083 11.5792 33.7668C7.94301 33.1609 4.59995 31.0199 2.58746 27.9637C1.06251 25.7414 0.301674 23.0271 0.380708 20.3454C0.380708 19.5797 0.380711 18.8172 0.387292 18.0547Z" fill="#242424"/>
<path d="M28.2753 18.3996C30.0674 18.0054 31.9147 18.0704 33.7363 18.0704L33.8155 18.1488C33.7758 19.8529 33.9108 21.5766 33.5651 23.2612C32.8371 27.041 30.3078 30.417 26.9052 32.2711C24.7874 33.4376 22.3566 34.0109 19.9358 33.985C19.1618 33.9883 18.3844 33.9717 17.6104 33.9948C17.6104 32.5839 17.5511 31.1664 17.7126 29.7621C18.088 26.3633 19.9457 23.1993 22.6168 21.0618C24.2702 19.7715 26.2135 18.8362 28.2753 18.3996Z" fill="#242424" fill-opacity="0.6"/>
<path d="M47.3365 27.6865C47.3365 28.2601 47.1357 28.7456 46.7347 29.1426C46.3554 29.5178 45.8757 29.7054 45.2963 29.7054C44.7385 29.7054 44.27 29.5178 43.8912 29.1426C43.512 28.7456 43.3223 28.2601 43.3223 27.6865V7.23362C43.3223 6.65997 43.512 6.18561 43.8912 5.81056C44.2923 5.41343 44.7831 5.21484 45.3631 5.21484C45.9426 5.21484 46.4111 5.41343 46.7681 5.81056C47.1469 6.18561 47.3365 6.65997 47.3365 7.23362V27.6865Z" fill="#242424"/>
<path d="M63.4497 12C64.0292 12 64.5089 12.1985 64.8881 12.5957C65.2669 12.9708 65.4565 13.4452 65.4565 14.0188V22.425C65.4565 24.7637 64.7989 26.617 63.4832 27.9849C62.1669 29.3528 60.2716 30.0371 57.7958 30.0371C55.3204 30.0371 53.4246 29.3528 52.109 27.9849C50.8155 26.617 50.1684 24.7637 50.1684 22.425V14.0188C50.1684 13.4452 50.3581 12.9708 50.7373 12.5957C51.1166 12.1985 51.5958 12 52.1758 12C52.7558 12 53.235 12.1985 53.6142 12.5957C53.9935 12.9708 54.1831 13.4452 54.1831 14.0188V22.425C54.1831 23.7709 54.4844 24.7747 55.0862 25.4366C55.6885 26.0766 56.5915 26.3964 57.7958 26.3964C59.0228 26.3964 59.9369 26.0766 60.5394 25.4366C61.1412 24.7747 61.4423 23.7709 61.4423 22.425V14.0188C61.4423 13.4452 61.632 12.9708 62.0112 12.5957C62.39 12.1985 62.8696 12 63.4497 12Z" fill="#242424"/>
<path d="M77.53 11.668C79.3142 11.668 80.6299 12.0982 81.4777 12.9587C82.3249 13.7971 82.8827 14.8892 83.1498 16.2351L82.5815 15.9372L82.8493 15.4078C83.1164 14.9002 83.5292 14.3597 84.087 13.7861C84.6441 13.1903 85.3134 12.6939 86.0937 12.2968C86.8969 11.8775 87.7887 11.668 88.7703 11.668C90.3761 11.668 91.5915 12.01 92.4163 12.6939C93.2641 13.3779 93.8436 14.2935 94.1561 15.4408C94.4684 16.566 94.6246 17.8237 94.6246 19.2136V27.686C94.6246 28.2597 94.4349 28.7451 94.0557 29.1421C93.6764 29.5173 93.1973 29.705 92.6172 29.705C92.0377 29.705 91.5581 29.5173 91.1788 29.1421C90.7995 28.7451 90.6098 28.2597 90.6098 27.686V19.2136C90.6098 18.4856 90.5212 17.8347 90.3427 17.2611C90.1642 16.6653 89.8407 16.191 89.3722 15.838C88.9042 15.485 88.2349 15.3084 87.3654 15.3084C86.5176 15.3084 85.793 15.485 85.1907 15.838C84.5884 16.191 84.1315 16.6653 83.8192 17.2611C83.5292 17.8347 83.3841 18.4856 83.3841 19.2136V27.686C83.3841 28.2597 83.1945 28.7451 82.8157 29.1421C82.4365 29.5173 81.9568 29.705 81.3773 29.705C80.7972 29.705 80.3176 29.5173 79.9388 29.1421C79.5596 28.7451 79.3699 28.2597 79.3699 27.686V19.2136C79.3699 18.4856 79.2807 17.8347 79.1022 17.2611C78.9237 16.6653 78.6003 16.191 78.1323 15.838C77.6638 15.485 76.9945 15.3084 76.1249 15.3084C75.2777 15.3084 74.5527 15.485 73.9502 15.838C73.3484 16.191 72.891 16.6653 72.5787 17.2611C72.2892 17.8347 72.1443 18.4856 72.1443 19.2136V27.686C72.1443 28.2597 71.9547 28.7451 71.5754 29.1421C71.1961 29.5173 70.717 29.705 70.137 29.705C69.5568 29.705 69.0778 29.5173 68.6985 29.1421C68.3191 28.7451 68.1296 28.2597 68.1296 27.686V14.0177C68.1296 13.4441 68.3191 12.9697 68.6985 12.5946C69.0778 12.1975 69.5568 11.9989 70.137 11.9989C70.717 11.9989 71.1961 12.1975 71.5754 12.5946C71.9547 12.9697 72.1443 13.4441 72.1443 14.0177V15.4408L71.6422 15.3416C71.843 14.9665 72.1219 14.5693 72.4784 14.1501C72.8353 13.7089 73.2703 13.3007 73.7835 12.9255C74.2961 12.5505 74.865 12.2526 75.4891 12.032C76.1138 11.7893 76.7942 11.668 77.53 11.668Z" fill="#242424"/>
<path d="M101.078 27.6869C101.078 28.2605 100.888 28.7459 100.509 29.1429C100.13 29.5182 99.6505 29.7057 99.0705 29.7057C98.4909 29.7057 98.0113 29.5182 97.6319 29.1429C97.2533 28.7459 97.0636 28.2605 97.0636 27.6869V14.0184C97.0636 13.4448 97.2533 12.9705 97.6319 12.5954C98.0113 12.1983 98.4909 11.9997 99.0705 11.9997C99.6505 11.9997 100.13 12.1983 100.509 12.5954C100.888 12.9705 101.078 13.4448 101.078 14.0184V27.6869ZM99.0369 9.84852C98.2789 9.84852 97.7435 9.72717 97.4311 9.48444C97.1193 9.24176 96.9632 8.81153 96.9632 8.19374V7.56492C96.9632 6.92512 97.1306 6.49483 97.4647 6.27424C97.8216 6.03155 98.357 5.91016 99.0705 5.91016C99.8513 5.91016 100.398 6.03155 100.71 6.27424C101.022 6.5169 101.178 6.94715 101.178 7.56492V8.19374C101.178 8.8336 101.011 9.27487 100.676 9.51755C100.342 9.73821 99.7954 9.84852 99.0369 9.84852Z" fill="#242424"/>
<path d="M113.097 11.668C114.747 11.668 115.996 12.01 116.843 12.6939C117.714 13.3779 118.304 14.2935 118.617 15.4408C118.951 16.566 119.118 17.8237 119.118 19.2136V27.686C119.118 28.2597 118.929 28.7451 118.55 29.1421C118.17 29.5173 117.691 29.705 117.111 29.705C116.532 29.705 116.052 29.5173 115.673 29.1421C115.293 28.7451 115.104 28.2597 115.104 27.686V19.2136C115.104 18.4856 115.004 17.8347 114.803 17.2611C114.625 16.6653 114.29 16.191 113.799 15.838C113.309 15.485 112.606 15.3084 111.692 15.3084C110.8 15.3084 110.042 15.485 109.417 15.838C108.815 16.191 108.347 16.6653 108.012 17.2611C107.7 17.8347 107.543 18.4856 107.543 19.2136V27.686C107.543 28.2597 107.354 28.7451 106.975 29.1421C106.596 29.5173 106.116 29.705 105.537 29.705C104.957 29.705 104.477 29.5173 104.098 29.1421C103.719 28.7451 103.529 28.2597 103.529 27.686V14.0177C103.529 13.4441 103.719 12.9697 104.098 12.5946C104.477 12.1975 104.957 11.9989 105.537 11.9989C106.116 11.9989 106.596 12.1975 106.975 12.5946C107.354 12.9697 107.543 13.4441 107.543 14.0177V15.4408L107.042 15.3416C107.243 14.9665 107.532 14.5693 107.912 14.1501C108.291 13.7089 108.737 13.3007 109.25 12.9255C109.763 12.5505 110.343 12.2526 110.989 12.032C111.636 11.7893 112.338 11.668 113.097 11.668Z" fill="#242424"/>
<path d="M138.98 20.8684C138.98 22.6776 138.567 24.2772 137.743 25.6673C136.939 27.0352 135.846 28.1052 134.463 28.8772C133.104 29.6498 131.576 30.036 129.881 30.036C128.185 30.036 126.647 29.6498 125.264 28.8772C123.904 28.1052 122.811 27.0352 121.986 25.6673C121.183 24.2772 120.781 22.6776 120.781 20.8684C120.781 19.0592 121.183 17.4707 121.986 16.1027C122.811 14.7127 123.904 13.6317 125.264 12.8594C126.647 12.0651 128.185 11.668 129.881 11.668C131.576 11.668 133.104 12.0651 134.463 12.8594C135.846 13.6317 136.939 14.7127 137.743 16.1027C138.567 17.4707 138.98 19.0592 138.98 20.8684ZM134.965 20.8684C134.965 19.7432 134.731 18.7724 134.262 17.9561C133.817 17.1177 133.203 16.4668 132.422 16.0034C131.664 15.5402 130.817 15.3084 129.881 15.3084C128.945 15.3084 128.086 15.5402 127.305 16.0034C126.546 16.4668 125.933 17.1177 125.465 17.9561C125.019 18.7724 124.796 19.7432 124.796 20.8684C124.796 21.9715 125.019 22.9424 125.465 23.7808C125.933 24.5971 126.546 25.2371 127.305 25.7003C128.086 26.1637 128.945 26.3953 129.881 26.3953C130.817 26.3953 131.664 26.1637 132.422 25.7003C133.203 25.2371 133.817 24.5971 134.262 23.7808C134.731 22.9424 134.965 21.9715 134.965 20.8684Z" fill="#242424"/>
<path d="M153.941 12C154.521 12 155.002 12.1985 155.381 12.5957C155.76 12.9708 155.949 13.4452 155.949 14.0188V22.425C155.949 24.7637 155.291 26.617 153.975 27.9849C152.66 29.3528 150.763 30.0371 148.288 30.0371C145.813 30.0371 143.917 29.3528 142.601 27.9849C141.307 26.617 140.661 24.7637 140.661 22.425V14.0188C140.661 13.4452 140.85 12.9708 141.229 12.5957C141.61 12.1985 142.088 12 142.668 12C143.249 12 143.727 12.1985 144.106 12.5957C144.485 12.9708 144.675 13.4452 144.675 14.0188V22.425C144.675 23.7709 144.976 24.7747 145.579 25.4366C146.181 26.0766 147.083 26.3964 148.288 26.3964C149.515 26.3964 150.429 26.0766 151.031 25.4366C151.633 24.7747 151.935 23.7709 151.935 22.425V14.0188C151.935 13.4452 152.125 12.9708 152.504 12.5957C152.883 12.1985 153.361 12 153.941 12Z" fill="#242424"/>
<path d="M157.587 26.958C157.362 26.6491 157.263 26.2519 157.284 25.7665C157.307 25.2811 157.597 24.8619 158.155 24.5089C158.511 24.2882 158.89 24.2 159.292 24.2442C159.693 24.2662 160.083 24.4648 160.462 24.8399C161.11 25.4797 161.79 25.9761 162.503 26.3291C163.217 26.6822 164.109 26.8586 165.18 26.8586C165.515 26.8366 165.883 26.7925 166.283 26.7263C166.685 26.6381 167.031 26.4615 167.32 26.1967C167.633 25.9099 167.789 25.4797 167.789 24.9061C167.789 24.4206 167.621 24.0346 167.287 23.7478C166.953 23.4608 166.507 23.2182 165.949 23.0196C165.414 22.821 164.812 22.6335 164.142 22.457C163.451 22.2584 162.738 22.0379 162.001 21.7951C161.288 21.5525 160.63 21.2435 160.028 20.8684C159.427 20.4713 158.935 19.9528 158.556 19.313C158.177 18.6731 157.987 17.8677 157.987 16.897C157.987 15.7938 158.3 14.8561 158.925 14.0839C159.548 13.3117 160.351 12.716 161.332 12.2968C162.337 11.8775 163.384 11.668 164.477 11.668C165.169 11.668 165.893 11.7562 166.652 11.9327C167.41 12.0872 168.135 12.3519 168.826 12.727C169.518 13.0801 170.098 13.5543 170.565 14.1501C170.811 14.4811 170.956 14.8782 171 15.3416C171.045 15.8048 170.833 16.224 170.365 16.5992C170.031 16.8639 169.641 16.9853 169.194 16.9631C168.748 16.9191 168.381 16.7646 168.09 16.4998C167.711 16.0144 167.199 15.6284 166.551 15.3416C165.926 15.0547 165.203 14.9113 164.377 14.9113C164.043 14.9113 163.675 14.9554 163.273 15.0436C162.894 15.1099 162.56 15.2754 162.269 15.5402C161.98 15.7828 161.835 16.18 161.835 16.7315C161.835 17.239 162.001 17.6471 162.337 17.9561C162.671 18.2429 163.117 18.4856 163.675 18.6841C164.254 18.8607 164.867 19.0372 165.515 19.2136C166.183 19.3902 166.863 19.5998 167.555 19.8424C168.246 20.0852 168.881 20.4051 169.461 20.8023C170.041 21.1993 170.51 21.7179 170.867 22.3577C171.223 22.9755 171.402 23.7698 171.402 24.7405C171.402 25.8659 171.067 26.8256 170.399 27.6198C169.729 28.4142 168.893 29.0208 167.889 29.4401C166.886 29.8374 165.859 30.036 164.812 30.036C163.496 30.036 162.181 29.8153 160.864 29.3739C159.548 28.9104 158.456 28.1052 157.587 26.958Z" fill="#242424"/>
</g>
<defs>
<clipPath id="clip0_1327_5017">
<rect width="171.579" height="34.5719" rx="10" fill="white"/>
</clipPath>
</defs>
</svg>
