<svg width="182" height="35" viewBox="0 0 182 35" fill="none" xmlns="http://www.w3.org/2000/svg">
<g clip-path="url(#clip0_1327_5005)">
<path d="M58.3795 30.3982C55.769 30.3982 53.4611 29.8909 51.4562 28.8764C49.4511 27.8385 47.901 26.3741 46.8055 24.483C45.7098 22.5918 45.162 20.3662 45.162 17.8064C45.162 15.2464 45.7098 13.0209 46.8055 11.1298C47.901 9.21561 49.4511 7.75118 51.4562 6.73643C53.4611 5.69861 55.769 5.17969 58.3795 5.17969C60.1514 5.17969 61.7133 5.36421 63.0653 5.73321C64.441 6.07916 65.6995 6.63263 66.8415 7.39371V12.4098C65.8162 11.5795 64.6391 10.9799 63.3102 10.6109C62.0047 10.2188 60.513 10.0228 58.8344 10.0228C57.2726 10.0228 55.8618 10.3457 54.6031 10.9914C53.3677 11.6141 52.3887 12.5135 51.666 13.6898C50.9434 14.8659 50.5818 16.2381 50.5818 17.8064C50.5818 19.3977 50.9083 20.793 51.5608 21.9921C52.2371 23.1684 53.1811 24.0794 54.3932 24.7251C55.6054 25.3708 57.0043 25.6936 58.5895 25.6936C60.0347 25.6936 61.2934 25.44 62.3658 24.9327V20.2625H58.4146V16.3881H67.506V28.0462C65.1981 29.6143 62.1564 30.3982 58.3795 30.3982Z" fill="#242424"/>
<path d="M68.7339 13.2756H73.839V15.6626C74.5152 14.8554 75.4591 14.2442 76.6713 13.8291C77.8835 13.391 79.2592 13.1719 80.7974 13.1719V17.1501C79.1891 17.1501 77.767 17.3922 76.5315 17.8766C75.3194 18.3609 74.4801 19.0989 74.0138 20.0906V29.8807H68.7339V13.2756Z" fill="#242424"/>
<path d="M90.9446 30.3964C87.7275 30.3964 85.1979 29.6355 83.3564 28.1134C81.515 26.5683 80.5942 24.412 80.5942 21.6445C80.5942 18.9 81.4102 16.7322 83.0418 15.1409C84.697 13.5495 87.0512 12.7539 90.1054 12.7539C92.11 12.7539 93.8117 13.1229 95.2105 13.8609C96.6089 14.5988 97.67 15.6251 98.3927 16.9397C99.1154 18.2312 99.4765 19.6956 99.4765 21.3331V23.4433H85.6297C86.0027 25.565 88.0071 26.6259 91.6436 26.6259C92.716 26.6259 93.8234 26.5337 94.9655 26.3492C96.1081 26.1647 97.0989 25.911 97.9383 25.5881V29.2549C97.1222 29.6008 96.0731 29.8779 94.7907 30.0851C93.5088 30.2928 92.2265 30.3964 90.9446 30.3964ZM94.476 20.0531C94.4064 18.9462 93.9865 18.0929 93.2174 17.4933C92.4483 16.8705 91.3873 16.5592 90.0353 16.5592C88.7066 16.5592 87.6574 16.8705 86.8882 17.4933C86.1192 18.1159 85.6993 18.9692 85.6297 20.0531H94.476Z" fill="#242424"/>
<path d="M110.299 30.3964C107.082 30.3964 104.553 29.6355 102.711 28.1134C100.87 26.5683 99.9483 24.412 99.9483 21.6445C99.9483 18.9 100.764 16.7322 102.396 15.1409C104.051 13.5495 106.406 12.7539 109.46 12.7539C111.465 12.7539 113.166 13.1229 114.565 13.8609C115.964 14.5988 117.024 15.6251 117.747 16.9397C118.47 18.2312 118.831 19.6956 118.831 21.3331V23.4433H104.984C105.357 25.565 107.362 26.6259 110.998 26.6259C112.071 26.6259 113.178 26.5337 114.32 26.3492C115.462 26.1647 116.453 25.911 117.292 25.5881V29.2549C116.476 29.6008 115.428 29.8779 114.145 30.0851C112.863 30.2928 111.581 30.3964 110.299 30.3964ZM113.831 20.0531C113.761 18.9462 113.341 18.0929 112.572 17.4933C111.803 16.8705 110.742 16.5592 109.39 16.5592C108.061 16.5592 107.012 16.8705 106.243 17.4933C105.473 18.1159 105.054 18.9692 104.984 20.0531H113.831Z" fill="#242424"/>
<path d="M120.004 13.2728H125.109V15.3138C125.879 14.4606 126.787 13.8264 127.837 13.4112C128.909 12.9729 130.028 12.7539 131.193 12.7539C133.479 12.7539 135.18 13.365 136.298 14.5873C137.44 15.7866 138.013 17.4125 138.013 19.465V29.8779H132.732V20.0531C132.732 17.9083 131.73 16.836 129.724 16.836C128.838 16.836 128.012 17.055 127.242 17.4933C126.473 17.9083 125.82 18.5311 125.284 19.3613V29.8779H120.004V13.2728Z" fill="#242424"/>
<path d="M142.671 10.7135C141.855 10.7135 141.168 10.4483 140.608 9.91786C140.049 9.38744 139.768 8.71863 139.768 7.91142C139.768 7.12733 140.049 6.47006 140.608 5.9396C141.168 5.38612 141.855 5.10938 142.671 5.10938C143.487 5.10938 144.174 5.38612 144.734 5.9396C145.293 6.47006 145.574 7.12733 145.574 7.91142C145.574 8.71863 145.293 9.38744 144.734 9.91786C144.174 10.4483 143.487 10.7135 142.671 10.7135ZM140.013 13.2735H145.329V29.8786H140.013V13.2735Z" fill="#242424"/>
<path d="M154.331 30.3964C153.072 30.3964 151.722 30.2581 150.276 29.9815C148.853 29.7279 147.734 29.359 146.919 28.8747V24.7924C147.851 25.3459 148.97 25.7956 150.276 26.1416C151.581 26.4876 152.793 26.6604 153.912 26.6604C154.868 26.6604 155.568 26.5798 156.01 26.4183C156.453 26.2569 156.674 25.9571 156.674 25.5189C156.674 25.173 156.546 24.8963 156.29 24.6887C156.034 24.4581 155.637 24.2621 155.101 24.1006C154.588 23.9161 153.725 23.6509 152.513 23.3049C151.092 22.8898 149.972 22.4747 149.157 22.0596C148.364 21.6214 147.757 21.0794 147.339 20.4337C146.942 19.7879 146.743 18.9577 146.743 17.943C146.743 16.2132 147.431 14.9218 148.807 14.0685C150.205 13.192 152.094 12.7539 154.472 12.7539C155.637 12.7539 156.838 12.8807 158.074 13.1344C159.332 13.365 160.299 13.6764 160.975 14.0685V18.0467C160.299 17.6085 159.414 17.251 158.318 16.9743C157.245 16.6976 156.197 16.5592 155.171 16.5592C154.215 16.5592 153.469 16.6514 152.933 16.836C152.421 17.0204 152.163 17.3664 152.163 17.8738C152.163 18.312 152.409 18.6463 152.898 18.877C153.41 19.1077 154.355 19.3959 155.731 19.7419L156.43 19.9147C157.898 20.3068 159.041 20.7451 159.856 21.2293C160.673 21.6906 161.244 22.2556 161.571 22.9244C161.92 23.5701 162.094 24.3888 162.094 25.3805C162.094 26.9028 161.43 28.125 160.102 29.0477C158.773 29.9468 156.85 30.3964 154.331 30.3964Z" fill="#242424"/>
<path d="M163.316 4.31641H168.596V15.1788C169.389 14.3717 170.287 13.772 171.288 13.38C172.291 12.9648 173.364 12.7573 174.506 12.7573C176.79 12.7573 178.492 13.3684 179.611 14.5907C180.753 15.79 181.324 17.4159 181.324 19.4684V29.8812H176.045V20.0566C176.045 17.9117 175.041 16.8393 173.037 16.8393C172.151 16.8393 171.324 17.0584 170.555 17.4966C169.785 17.9117 169.132 18.5344 168.596 19.3646V29.8812H163.316V4.31641Z" fill="#242424"/>
<path fill-rule="evenodd" clip-rule="evenodd" d="M27.1299 9.21042C27.1299 13.6046 23.5294 17.1669 19.0877 17.1669C14.6459 17.1669 11.0451 13.6046 11.0451 9.21042C11.0451 4.81616 14.6459 1.25391 19.0877 1.25391C23.5294 1.25391 27.1299 4.81616 27.1299 9.21042ZM0.380129 16.5887C9.14226 16.0044 16.7787 22.4945 17.49 31.1815C17.5637 32.0816 17.5601 32.97 17.485 33.8411C8.72279 34.4255 1.08634 27.9353 0.375023 19.2484C0.301364 18.3484 0.304872 17.4596 0.380129 16.5887ZM23.1541 33.537C31.9349 32.8332 38.4951 25.2784 37.9044 16.6099C37.024 16.5356 36.1259 16.5321 35.216 16.605C26.4351 17.3087 19.875 24.8634 20.4657 33.5318C21.346 33.6064 22.2442 33.61 23.1541 33.537Z" fill="#242424"/>
</g>
<defs>
<clipPath id="clip0_1327_5005">
<rect width="181.822" height="34.5719" rx="10" fill="white"/>
</clipPath>
</defs>
</svg>
