<svg width="173" height="35" viewBox="0 0 173 35" fill="none" xmlns="http://www.w3.org/2000/svg">
<path d="M76.1495 26.7662C73.1494 29.2276 69.3887 30.5726 65.5082 30.5726C61.6277 30.5726 57.8671 29.2276 54.8669 26.7662C52.2935 24.0789 50.8569 20.5021 50.8569 16.7812C50.8569 13.0606 52.2935 9.48337 54.8669 6.7961C57.8699 4.34116 61.6295 3 65.5082 3C69.387 3 73.1465 4.34116 76.1495 6.7961C78.7208 9.47734 80.1563 13.0486 80.1563 16.7634C80.1563 20.4783 78.7208 24.0495 76.1495 26.7308V26.7662ZM60.4359 22.0841C61.1158 22.731 61.9175 23.2365 62.7943 23.5714C63.6712 23.9062 64.6055 24.0641 65.5437 24.035C66.4759 24.0591 67.4038 23.8995 68.2742 23.5646C69.1447 23.2298 69.9403 22.7268 70.616 22.0841C71.8533 20.6283 72.5325 18.7803 72.5325 16.8698C72.5325 14.9594 71.8533 13.1113 70.616 11.6556C69.9403 11.0132 69.1447 10.5099 68.2742 10.1754C67.4038 9.84056 66.4759 9.68059 65.5437 9.70471C64.6055 9.67598 63.6712 9.83347 62.7943 10.1683C61.9175 10.5032 61.1158 11.009 60.4359 11.6556C59.199 13.1113 58.5197 14.9594 58.5197 16.8698C58.5197 18.7803 59.199 20.6283 60.4359 22.0841Z" fill="#FCF0E3"/>
<path d="M86.0806 11.2873C85.6275 11.6839 85.0458 11.9025 84.4437 11.9025C83.8415 11.9025 83.26 11.6839 82.8068 11.2873C82.6014 11.0934 82.4377 10.8596 82.3258 10.6003C82.214 10.341 82.1563 10.0614 82.1563 9.77894C82.1563 9.49647 82.214 9.21708 82.3258 8.95757C82.4377 8.69824 82.6014 8.46445 82.8068 8.27059C83.2646 7.8839 83.8444 7.67188 84.4437 7.67188C85.0429 7.67188 85.6227 7.8839 86.0806 8.27059C86.2861 8.46445 86.4498 8.69824 86.5615 8.95757C86.6734 9.21708 86.731 9.49647 86.731 9.77894C86.731 10.0614 86.6734 10.341 86.5615 10.6003C86.4498 10.8596 86.2861 11.0934 86.0806 11.2873ZM86.4405 27.0907C85.4217 27.1407 84.415 26.8514 83.5781 26.268C83.2347 26.0057 82.959 25.665 82.7742 25.2743C82.5892 24.8837 82.5005 24.4545 82.5154 24.0226V14.6982C82.5071 14.631 82.5142 14.5626 82.5363 14.4985C82.5582 14.4344 82.5946 14.3763 82.6426 14.3283C82.6905 14.2803 82.7487 14.244 82.8128 14.2221C82.8769 14.1999 82.9452 14.1929 83.0124 14.2011H85.892C86.2177 14.2011 86.372 14.3726 86.372 14.6982V22.7885C86.372 23.4398 86.6633 23.7655 87.2461 23.7655C87.5061 23.7749 87.766 23.7459 88.0174 23.6798C88.3602 23.6798 88.5488 23.7826 88.5659 24.0911L88.823 26.2337C88.8354 26.2962 88.8342 26.3605 88.8196 26.4226C88.805 26.4844 88.7772 26.5427 88.7382 26.5929C88.6993 26.6433 88.6499 26.6848 88.5937 26.7145C88.5373 26.7441 88.4752 26.7614 88.4116 26.765C87.7754 26.9747 87.1105 27.0845 86.4405 27.0907Z" fill="#FCF0E3"/>
<path d="M100.468 12.3562C101.373 12.3205 102.275 12.4668 103.122 12.7866C103.969 13.1065 104.743 13.5931 105.398 14.2177C106.617 15.526 107.294 17.2474 107.294 19.0353C107.294 20.8233 106.617 22.5449 105.398 23.8529C104.746 24.4833 103.973 24.9747 103.125 25.2975C102.278 25.6205 101.374 25.7683 100.468 25.7317C99.1774 25.7605 97.9124 25.3672 96.8656 24.6113V30.8337C96.8656 31.1612 96.6933 31.3164 96.3658 31.3164H93.47C93.404 31.3288 93.336 31.3248 93.2717 31.305C93.2075 31.285 93.1491 31.2498 93.1015 31.2022C93.0541 31.1547 93.0188 31.0964 92.999 31.0321C92.979 30.968 92.9752 30.8999 92.9874 30.8337V16.6998C93.0078 16.5615 92.9954 16.4205 92.9516 16.2878C92.9076 16.1553 92.8332 16.0346 92.7344 15.9359C92.6356 15.8371 92.5151 15.7628 92.3824 15.7188C92.2499 15.6749 92.1087 15.6627 91.9705 15.6828H91.4017C91.0225 15.6828 90.8329 15.5449 90.8329 15.2691V13.2352C90.8239 13.1094 90.8584 12.9843 90.9306 12.8809C91.0026 12.7773 91.1081 12.7016 91.2293 12.6664C91.8255 12.4498 92.4565 12.3446 93.0908 12.3562C93.7234 12.3002 94.3582 12.4344 94.9141 12.7414C95.4698 13.0486 95.9214 13.5146 96.2107 14.0798C96.7658 13.5183 97.4298 13.0758 98.1618 12.7793C98.8939 12.483 99.6786 12.3389 100.468 12.3562ZM97.7792 21.6122C98.0865 21.9335 98.4557 22.1891 98.8646 22.3637C99.2734 22.5383 99.7133 22.6283 100.158 22.6283C100.602 22.6283 101.042 22.5383 101.451 22.3637C101.86 22.1891 102.229 21.9335 102.536 21.6122C103.184 20.8901 103.524 19.944 103.484 18.975C103.53 18.0053 103.189 17.0569 102.536 16.3378C102.229 16.0167 101.86 15.7611 101.451 15.5865C101.042 15.4117 100.602 15.3217 100.158 15.3217C99.7133 15.3217 99.2734 15.4117 98.8646 15.5865C98.4557 15.7611 98.0865 16.0167 97.7792 16.3378C97.1521 17.0697 96.8257 18.012 96.8656 18.975C96.8307 19.9373 97.1566 20.8779 97.7792 21.6122Z" fill="#FCF0E3"/>
<path d="M116.243 26.883C114.57 26.9518 112.912 26.5518 111.455 25.7281C110.871 25.3761 110.373 24.8968 109.999 24.326C109.625 23.7553 109.384 23.1076 109.294 22.431C109.294 22.0585 109.425 21.8722 109.835 21.8722H112.573C112.703 21.8774 112.83 21.9182 112.938 21.9907C113.046 22.0629 113.133 22.1637 113.188 22.282C113.579 23.2879 114.603 23.7908 116.243 23.7908C116.814 23.8171 117.384 23.7018 117.9 23.4555C118.079 23.3751 118.232 23.2477 118.343 23.0869C118.455 22.9261 118.521 22.738 118.534 22.5428C118.534 22.0585 118.236 21.7232 117.64 21.4996C116.933 21.2644 116.202 21.1081 115.46 21.0339C114.582 20.9345 113.711 20.7789 112.852 20.5682C112.017 20.3793 111.258 19.9446 110.673 19.3202C110.328 18.8958 110.074 18.405 109.927 17.8784C109.78 17.3518 109.743 16.8004 109.818 16.2589C109.893 15.7172 110.079 15.1967 110.364 14.7301C110.649 14.2633 111.027 13.8602 111.474 13.5456C112.817 12.6904 114.392 12.2737 115.982 12.3534C117.521 12.3014 119.044 12.6822 120.378 13.4524C120.916 13.757 121.378 14.1774 121.733 14.6833C122.087 15.1893 122.324 15.7679 122.427 16.377C122.427 16.7495 122.259 16.9358 121.924 16.9358H119.167C119.051 16.9427 118.936 16.9144 118.836 16.8546C118.736 16.7948 118.657 16.7061 118.608 16.6005C118.424 16.1594 118.077 15.8059 117.64 15.6132C117.146 15.3551 116.595 15.2267 116.038 15.2407C115.492 15.2111 114.947 15.32 114.454 15.5574C114.281 15.6244 114.131 15.7418 114.025 15.8945C113.919 16.0473 113.861 16.2283 113.858 16.4142C113.87 16.6691 113.963 16.9133 114.124 17.1111C114.285 17.3089 114.505 17.4498 114.752 17.5133C115.468 17.783 116.211 17.9704 116.969 18.0721C117.84 18.1869 118.705 18.3485 119.558 18.5564C120.393 18.7455 121.152 19.1801 121.738 19.8045C122.051 20.1485 122.293 20.5511 122.45 20.9892C122.606 21.4272 122.675 21.8919 122.651 22.3565C122.667 23.0005 122.516 23.6375 122.212 24.2057C121.908 24.7736 121.462 25.2533 120.918 25.5977C119.526 26.4913 117.896 26.9395 116.243 26.883Z" fill="#FCF0E3"/>
<path d="M141.849 25.5442C141.861 25.6109 141.857 25.6792 141.842 25.7448C141.825 25.8106 141.797 25.8723 141.755 25.9266C141.716 25.981 141.665 26.0267 141.607 26.0611C141.548 26.0955 141.485 26.1179 141.417 26.1271C140.731 26.3512 140.014 26.4718 139.292 26.4843C138.577 26.5584 137.855 26.4467 137.197 26.1602C136.537 25.8736 135.964 25.4217 135.531 24.8484C134.204 25.9904 132.485 26.5763 130.736 26.4843C129.924 26.5218 129.113 26.3888 128.356 26.0942C127.598 25.7995 126.91 25.3495 126.336 24.7732C125.766 24.1694 125.325 23.4567 125.037 22.678C124.75 21.8994 124.622 21.0707 124.663 20.2414V12.8891C124.663 12.5318 124.832 12.3438 125.189 12.3438H128.348C128.705 12.3438 128.875 12.5318 128.875 12.8891V19.6773C128.841 20.5231 129.128 21.3501 129.683 21.9902C129.96 22.2835 130.296 22.5141 130.668 22.6666C131.041 22.8191 131.443 22.8898 131.846 22.874C132.257 22.892 132.669 22.8283 133.057 22.6861C133.444 22.5442 133.799 22.3268 134.102 22.0466C134.388 21.7514 134.612 21.4005 134.756 21.0156C134.903 20.6307 134.967 20.22 134.948 19.8089V12.8891C134.948 12.5318 135.118 12.3438 135.475 12.3438H138.671C139.029 12.3438 139.198 12.5318 139.198 12.8891V21.7457C139.198 22.4791 139.518 22.8364 140.138 22.8364C140.43 22.8477 140.721 22.8161 141.003 22.7424C141.075 22.7224 141.15 22.7189 141.221 22.732C141.295 22.745 141.362 22.7743 141.423 22.8178C141.483 22.8612 141.532 22.9176 141.567 22.9827C141.601 23.0477 141.62 23.1199 141.624 23.1937L141.849 25.5442Z" fill="#FCF0E3"/>
<path d="M172.301 25.8976C172.318 25.9644 172.32 26.0341 172.307 26.1017C172.292 26.169 172.264 26.2328 172.223 26.288C172.182 26.3432 172.13 26.3887 172.068 26.4212C172.008 26.4538 171.941 26.4725 171.872 26.4758C171.178 26.7013 170.457 26.8209 169.727 26.8302C168.617 26.8875 167.523 26.5724 166.612 25.9349C166.219 25.6619 165.9 25.2961 165.682 24.8699C165.463 24.4437 165.353 23.9701 165.363 23.4915V19.1084C165.402 18.272 165.122 17.4519 164.579 16.8142C164.318 16.5227 163.994 16.2929 163.634 16.1413C163.272 15.9898 162.882 15.9203 162.49 15.9376C162.138 15.9244 161.787 15.9913 161.463 16.1334C161.14 16.2756 160.855 16.4893 160.625 16.7583C160.133 17.3833 159.881 18.1644 159.916 18.9592V25.8417C159.916 26.196 159.749 26.3826 159.394 26.3826H156.242C156.169 26.3917 156.095 26.3839 156.026 26.36C155.955 26.3359 155.891 26.2964 155.839 26.2442C155.787 26.1921 155.748 26.1287 155.724 26.0589C155.699 25.9892 155.692 25.915 155.701 25.8417V19.1084C155.742 18.2812 155.483 17.4669 154.974 16.8142C154.746 16.54 154.461 16.3194 154.138 16.1679C153.817 16.0165 153.465 15.9378 153.109 15.9376C152.728 15.9223 152.349 15.9874 151.995 16.129C151.641 16.2703 151.322 16.4848 151.057 16.7583C150.523 17.3633 150.249 18.1538 150.292 18.9592V25.8417C150.301 25.915 150.294 25.9892 150.27 26.0589C150.246 26.1287 150.206 26.1921 150.154 26.2442C150.102 26.2964 150.038 26.3359 149.969 26.36C149.899 26.3839 149.824 26.3917 149.751 26.3826H146.711C146.357 26.3826 146.189 26.196 146.189 25.8417V17.0567C146.211 16.9071 146.198 16.7545 146.15 16.6109C146.103 16.4675 146.023 16.3369 145.915 16.2301C145.808 16.1232 145.678 16.0428 145.534 15.9952C145.39 15.9477 145.238 15.9344 145.088 15.9563H144.473C144.062 15.9563 143.857 15.807 143.857 15.5086V13.3077C143.848 13.1716 143.885 13.0361 143.964 12.9242C144.042 12.8121 144.156 12.7303 144.286 12.6922C144.932 12.4578 145.614 12.344 146.301 12.3565C146.959 12.3003 147.621 12.4316 148.209 12.7353C148.796 13.0389 149.285 13.5024 149.621 14.0724C150.249 13.4761 150.995 13.0158 151.81 12.7206C152.625 12.4253 153.493 12.3014 154.358 12.3565C155.199 12.3154 156.037 12.473 156.805 12.8166C157.574 13.1602 158.249 13.6798 158.779 14.3336C159.396 13.6626 160.155 13.1374 161 12.7953C161.845 12.4535 162.755 12.3037 163.665 12.3565C164.479 12.3184 165.292 12.4495 166.053 12.7418C166.814 13.0339 167.506 13.4806 168.086 14.0538C168.653 14.6516 169.091 15.3583 169.377 16.131C169.662 16.9036 169.789 17.7263 169.746 18.5488V22.1486C169.746 22.8574 170.063 23.2118 170.66 23.2118C170.949 23.2252 171.238 23.1939 171.518 23.1185C171.904 23.1185 172.109 23.2677 172.133 23.5661L172.301 25.8976Z" fill="#FCF0E3"/>
<path d="M0.869147 15.3915C1.96262 10.9965 4.49507 7.09361 8.06325 4.30445C11.6315 1.51524 16.0303 0 20.5592 0C25.0881 0 29.487 1.51524 33.0552 4.30445C36.6234 7.09361 39.1558 10.9965 40.2493 15.3915H38.4707C35.4705 15.3473 32.5317 16.244 30.0671 17.9555C29.9248 18.0585 29.7763 18.1527 29.6224 18.2371H29.4149C29.2611 18.1527 29.1126 18.0585 28.9703 17.9555C26.4839 16.2835 23.5555 15.3906 20.5592 15.3906C17.5629 15.3906 14.6346 16.2835 12.1481 17.9555C12.0059 18.0585 11.8573 18.1527 11.7035 18.2371H11.496C11.3422 18.1527 11.1936 18.0585 11.0514 17.9555C8.58673 16.244 5.64797 15.3473 2.6477 15.3915H0.869147ZM35.2693 24.6844C36.1823 23.9734 37.3139 23.6014 38.4707 23.6321H40.8569V18.8745H38.4707C36.4331 18.8498 34.4422 19.4841 32.7942 20.6826C31.8668 21.3664 30.745 21.7353 29.5928 21.7353C28.4406 21.7353 27.3187 21.3664 26.3914 20.6826C24.7016 19.5064 22.6921 18.8758 20.6333 18.8758C18.5745 18.8758 16.565 19.5064 14.8753 20.6826C13.9479 21.3664 12.8261 21.7353 11.6739 21.7353C10.5217 21.7353 9.39983 21.3664 8.47246 20.6826C6.80418 19.4686 4.78463 18.8337 2.72181 18.8745H0.261475V23.6321H2.6477C3.80451 23.6014 4.93611 23.9734 5.8491 24.6844C7.53576 25.8615 9.543 26.4926 11.5997 26.4926C13.6565 26.4926 15.6637 25.8615 17.3504 24.6844C18.2646 23.9756 19.3953 23.6039 20.5518 23.6321C21.709 23.5989 22.8414 23.9712 23.7532 24.6844C25.443 25.8608 27.4524 26.4913 29.5113 26.4913C31.5701 26.4913 33.5796 25.8608 35.2693 24.6844ZM35.2693 33.1918C36.1823 32.4808 37.3139 32.1088 38.4707 32.1395H40.8569V27.3819H38.4707C36.4331 27.3573 34.4422 27.9915 32.7942 29.1901C31.8668 29.8738 30.745 30.2427 29.5928 30.2427C28.4406 30.2427 27.3187 29.8738 26.3914 29.1901C24.7016 28.0138 22.6921 27.3833 20.6333 27.3833C18.5745 27.3833 16.565 28.0138 14.8753 29.1901C13.9479 29.8738 12.8261 30.2427 11.6739 30.2427C10.5217 30.2427 9.39983 29.8738 8.47246 29.1901C6.80418 27.9762 4.78463 27.3411 2.72181 27.3819H0.261475V32.1395H2.6477C3.80451 32.1088 4.93611 32.4808 5.8491 33.1918C7.53576 34.3689 9.543 35 11.5997 35C13.6565 35 15.6637 34.3689 17.3504 33.1918C18.2646 32.4831 19.3953 32.1113 20.5518 32.1395C21.709 32.1063 22.8414 32.4786 23.7532 33.1918C25.443 34.3682 27.4524 34.9987 29.5113 34.9987C31.5701 34.9987 33.5796 34.3682 35.2693 33.1918Z" fill="#FCF0E3"/>
</svg>
