<svg width="183" height="35" viewBox="0 0 183 35" fill="none" xmlns="http://www.w3.org/2000/svg">
<g clip-path="url(#clip0_1044_2978)">
<path d="M58.6949 30.3982C56.0843 30.3982 53.7764 29.8909 51.7714 28.8764C49.7665 27.8385 48.2164 26.3741 47.1208 24.483C46.0252 22.5918 45.4774 20.3662 45.4774 17.8064C45.4774 15.2464 46.0252 13.0209 47.1208 11.1298C48.2164 9.21561 49.7665 7.75118 51.7714 6.73643C53.7764 5.69861 56.0843 5.17969 58.6949 5.17969C60.4667 5.17969 62.0286 5.36421 63.3806 5.73321C64.7562 6.07916 66.0149 6.63263 67.1569 7.39371V12.4098C66.1314 11.5795 64.9543 10.9799 63.6256 10.6109C62.32 10.2188 60.8283 10.0228 59.1498 10.0228C57.5879 10.0228 56.1771 10.3457 54.9185 10.9914C53.6831 11.6141 52.7041 12.5135 51.9814 13.6898C51.2587 14.8659 50.8971 16.2381 50.8971 17.8064C50.8971 19.3977 51.2236 20.793 51.8761 21.9921C52.5525 23.1684 53.4964 24.0794 54.7086 24.7251C55.9208 25.3708 57.3197 25.6936 58.9047 25.6936C60.3501 25.6936 61.6087 25.44 62.6811 24.9327V20.2625H58.7299V16.3881H67.8213V28.0462C65.5134 29.6143 62.4716 30.3982 58.6949 30.3982Z" fill="#FCF0E3"/>
<path d="M69.0492 13.2756H74.1543V15.6626C74.8305 14.8554 75.7745 14.2442 76.9867 13.8291C78.1989 13.391 79.5746 13.1719 81.1128 13.1719V17.1501C79.5044 17.1501 78.0823 17.3922 76.8468 17.8766C75.6348 18.3609 74.7955 19.0989 74.3291 20.0906V29.8807H69.0492V13.2756Z" fill="#FCF0E3"/>
<path d="M91.26 30.3964C88.0429 30.3964 85.5132 29.6356 83.6717 28.1133C81.8303 26.5683 80.9095 24.4119 80.9095 21.6445C80.9095 18.9 81.7256 16.7322 83.3571 15.1409C85.0123 13.5496 87.3665 12.7539 90.4208 12.7539C92.4253 12.7539 94.127 13.1229 95.5259 13.8608C96.9242 14.5989 97.9853 15.6251 98.708 16.9396C99.4307 18.2312 99.7918 19.6957 99.7918 21.3331V23.4434H85.945C86.318 25.5651 88.3224 26.6259 91.959 26.6259C93.0313 26.6259 94.1388 26.5337 95.2808 26.3492C96.4235 26.1647 97.4143 25.9109 98.2536 25.5881V29.2549C97.4376 29.6009 96.3884 29.878 95.106 30.0851C93.8242 30.2928 92.5418 30.3964 91.26 30.3964ZM94.7913 20.0532C94.7218 18.9461 94.3018 18.0928 93.5328 17.4932C92.7636 16.8705 91.7026 16.5592 90.3506 16.5592C89.0219 16.5592 87.9727 16.8705 87.2035 17.4932C86.4345 18.1159 86.0147 18.9691 85.945 20.0532H94.7913Z" fill="#FCF0E3"/>
<path d="M110.614 30.3964C107.398 30.3964 104.868 29.6356 103.026 28.1133C101.185 26.5683 100.264 24.4119 100.264 21.6445C100.264 18.9 101.08 16.7322 102.712 15.1409C104.367 13.5496 106.721 12.7539 109.775 12.7539C111.78 12.7539 113.482 13.1229 114.881 13.8608C116.279 14.5989 117.339 15.6251 118.062 16.9396C118.785 18.2312 119.146 19.6957 119.146 21.3331V23.4434H105.299C105.672 25.5651 107.677 26.6259 111.314 26.6259C112.386 26.6259 113.494 26.5337 114.636 26.3492C115.778 26.1647 116.769 25.9109 117.608 25.5881V29.2549C116.792 29.6009 115.743 29.878 114.461 30.0851C113.178 30.2928 111.897 30.3964 110.614 30.3964ZM114.146 20.0532C114.076 18.9461 113.657 18.0928 112.887 17.4932C112.118 16.8705 111.057 16.5592 109.705 16.5592C108.377 16.5592 107.327 16.8705 106.558 17.4932C105.789 18.1159 105.369 18.9691 105.299 20.0532H114.146Z" fill="#FCF0E3"/>
<path d="M120.319 13.2729H125.424V15.3139C126.194 14.4606 127.103 13.8263 128.152 13.4111C129.224 12.973 130.343 12.7539 131.508 12.7539C133.794 12.7539 135.496 13.365 136.614 14.5874C137.756 15.7866 138.328 17.4125 138.328 19.4651V29.878H133.048V20.0532C133.048 17.9083 132.045 16.8359 130.04 16.8359C129.154 16.8359 128.327 17.055 127.557 17.4932C126.788 17.9083 126.136 18.5311 125.599 19.3612V29.878H120.319V13.2729Z" fill="#FCF0E3"/>
<path d="M142.986 10.7135C142.171 10.7135 141.483 10.4483 140.924 9.91786C140.363 9.38744 140.084 8.71863 140.084 7.91142C140.084 7.12733 140.363 6.47006 140.924 5.9396C141.483 5.38612 142.171 5.10938 142.986 5.10938C143.802 5.10938 144.49 5.38612 145.049 5.9396C145.609 6.47006 145.888 7.12733 145.888 7.91142C145.888 8.71863 145.609 9.38744 145.049 9.91786C144.49 10.4483 143.802 10.7135 142.986 10.7135ZM140.328 13.2734H145.643V29.8786H140.328V13.2734Z" fill="#FCF0E3"/>
<path d="M154.646 30.3964C153.388 30.3964 152.037 30.2581 150.591 29.9816C149.169 29.7279 148.05 29.359 147.234 28.8746V24.7925C148.166 25.346 149.285 25.7957 150.591 26.1417C151.896 26.4876 153.109 26.6605 154.228 26.6605C155.183 26.6605 155.883 26.5798 156.325 26.4184C156.768 26.2569 156.99 25.9571 156.99 25.519C156.99 25.173 156.862 24.8963 156.605 24.6887C156.349 24.4581 155.952 24.262 155.416 24.1006C154.904 23.9161 154.041 23.6508 152.828 23.305C151.407 22.8898 150.288 22.4747 149.472 22.0596C148.68 21.6213 148.073 21.0794 147.654 20.4337C147.257 19.788 147.058 18.9576 147.058 17.9429C147.058 16.2133 147.746 14.9218 149.123 14.0685C150.521 13.1921 152.409 12.7539 154.787 12.7539C155.952 12.7539 157.153 12.8808 158.389 13.1344C159.648 13.365 160.615 13.6764 161.291 14.0685V18.0467C160.615 17.6085 159.73 17.2511 158.634 16.9743C157.561 16.6975 156.512 16.5592 155.486 16.5592C154.53 16.5592 153.785 16.6514 153.248 16.8359C152.736 17.0204 152.479 17.3664 152.479 17.8737C152.479 18.3119 152.724 18.6463 153.214 18.877C153.726 19.1076 154.671 19.3959 156.046 19.7418L156.745 19.9147C158.214 20.3068 159.356 20.745 160.171 21.2294C160.988 21.6906 161.559 22.2556 161.886 22.9244C162.236 23.5701 162.41 24.3889 162.41 25.3806C162.41 26.9029 161.745 28.1251 160.417 29.0477C159.088 29.9469 157.165 30.3964 154.646 30.3964Z" fill="#FCF0E3"/>
<path d="M163.632 4.31641H168.911V15.1788C169.705 14.3717 170.602 13.772 171.604 13.38C172.606 12.9648 173.679 12.7573 174.821 12.7573C177.106 12.7573 178.807 13.3684 179.927 14.5907C181.069 15.79 181.64 17.4159 181.64 19.4684V29.8812H176.361V20.0566C176.361 17.9117 175.357 16.8393 173.353 16.8393C172.467 16.8393 171.64 17.0584 170.87 17.4966C170.1 17.9117 169.447 18.5344 168.911 19.3646V29.8812H163.632V4.31641Z" fill="#FCF0E3"/>
<path fill-rule="evenodd" clip-rule="evenodd" d="M27.4452 9.21042C27.4452 13.6046 23.8447 17.1669 19.403 17.1669C14.9612 17.1669 11.3605 13.6046 11.3605 9.21042C11.3605 4.81616 14.9612 1.25391 19.403 1.25391C23.8447 1.25391 27.4452 4.81616 27.4452 9.21042ZM0.69546 16.5887C9.45759 16.0044 17.094 22.4945 17.8053 31.1815C17.8791 32.0816 17.8755 32.97 17.8003 33.8412C9.03812 34.4255 1.40167 27.9353 0.690353 19.2485C0.616695 18.3484 0.620202 17.4596 0.69546 16.5887ZM23.4695 33.537C32.2502 32.8332 38.8104 25.2784 38.2197 16.6099C37.3393 16.5355 36.4412 16.5321 35.5313 16.6049C26.7504 17.3087 20.1904 24.8634 20.781 33.5318C21.6613 33.6064 22.5596 33.6099 23.4695 33.537Z" fill="#FCF0E3"/>
</g>
<defs>
<clipPath id="clip0_1044_2978">
<rect width="181.822" height="34.5719" fill="white" transform="translate(0.315338)"/>
</clipPath>
</defs>
</svg>
