<svg width="172" height="35" viewBox="0 0 172 35" fill="none" xmlns="http://www.w3.org/2000/svg">
<g clip-path="url(#clip0_1044_2997)">
<path d="M4.72598 4.90014C7.0546 2.70064 10.2166 1.41685 13.4212 1.25716C14.5181 1.25716 15.6182 1.26367 16.7151 1.25391C16.659 2.41719 16.7151 3.58373 16.682 4.74696C16.5272 7.34721 15.5556 9.88882 13.9187 11.9286C11.7909 14.6722 8.53677 16.5133 5.08171 16.9891C3.57321 17.2302 2.04162 17.077 0.523242 17.1194C0.549568 15.8387 0.467243 14.555 0.569367 13.2776C0.865814 10.1104 2.3776 7.07679 4.72598 4.90014Z" fill="#FCF0E3" fill-opacity="0.2"/>
<path d="M17.73 1.25391C18.9058 1.26693 20.0817 1.24739 21.2609 1.26042C24.1955 1.46568 27.0906 2.58008 29.3005 4.5124C31.738 6.5815 33.4078 9.5402 33.8362 12.7009C34.0236 14.1672 33.9054 15.6497 33.9778 17.1226C32.9499 17.1194 31.9259 17.1161 30.898 17.1226C28.3718 17.0542 25.8885 16.2462 23.7739 14.884C22.799 14.1932 21.7977 13.4927 21.0665 12.5347C19.4625 10.7621 18.3724 8.5366 17.9606 6.1905C17.651 4.56123 17.7761 2.89945 17.73 1.25391Z" fill="#FCF0E3"/>
<path d="M0.524987 18.0547C1.5691 18.1133 2.61651 18.0058 3.65728 18.1199C8.11363 18.2144 12.4383 20.6907 14.7472 24.4609C16.0713 26.5723 16.7827 29.0749 16.6905 31.5613C16.687 32.3758 16.7003 33.1868 16.6772 33.9986C15.0239 33.9494 13.3539 34.083 11.7169 33.7668C8.08072 33.1609 4.73765 31.0199 2.72515 27.9637C1.2002 25.7414 0.439369 23.0271 0.518403 20.3454C0.518403 19.5797 0.518406 18.8172 0.524987 18.0547Z" fill="#FCF0E3"/>
<path d="M28.413 18.3996C30.2051 18.0053 32.0524 18.0704 33.874 18.0704L33.9532 18.1487C33.9135 19.8528 34.0485 21.5767 33.7028 23.2612C32.9748 27.0411 30.4454 30.4171 27.0429 32.271C24.9251 33.4376 22.4943 34.0109 20.0735 33.9849C19.2995 33.9882 18.5221 33.9717 17.7481 33.9949C17.7481 32.584 17.6888 31.1664 17.8503 29.7621C18.2257 26.3633 20.0834 23.1994 22.7545 21.0618C24.4079 19.7714 26.3512 18.8363 28.413 18.3996Z" fill="#FCF0E3" fill-opacity="0.6"/>
<path d="M47.4742 27.6865C47.4742 28.2602 47.2734 28.7456 46.8724 29.1426C46.4931 29.5178 46.0135 29.7054 45.434 29.7054C44.8762 29.7054 44.4077 29.5178 44.0289 29.1426C43.6497 28.7456 43.46 28.2602 43.46 27.6865V7.23362C43.46 6.65999 43.6497 6.18561 44.0289 5.81056C44.43 5.41344 44.9209 5.21484 45.5009 5.21484C46.0805 5.21484 46.549 5.41344 46.9058 5.81056C47.2846 6.18561 47.4742 6.65999 47.4742 7.23362V27.6865Z" fill="#FCF0E3"/>
<path d="M63.5875 12C64.1669 12 64.6465 12.1985 65.0259 12.5957C65.4046 12.9707 65.5942 13.4451 65.5942 14.0188V22.425C65.5942 24.7637 64.9367 26.617 63.6209 27.985C62.3046 29.3529 60.4093 30.037 57.9335 30.037C55.4581 30.037 53.5624 29.3529 52.2466 27.985C50.9531 26.617 50.3061 24.7637 50.3061 22.425V14.0188C50.3061 13.4451 50.4958 12.9707 50.8752 12.5957C51.2544 12.1985 51.7334 12 52.3136 12C52.8936 12 53.3727 12.1985 53.7521 12.5957C54.1313 12.9707 54.321 13.4451 54.321 14.0188V22.425C54.321 23.7708 54.6221 24.7747 55.2239 25.4367C55.8262 26.0765 56.7293 26.3964 57.9335 26.3964C59.1605 26.3964 60.0747 26.0765 60.6771 25.4367C61.2789 24.7747 61.58 23.7708 61.58 22.425V14.0188C61.58 13.4451 61.7697 12.9707 62.149 12.5957C62.5277 12.1985 63.0073 12 63.5875 12Z" fill="#FCF0E3"/>
<path d="M77.6676 11.668C79.4519 11.668 80.7676 12.0982 81.6155 12.9587C82.4626 13.7971 83.0204 14.8892 83.2876 16.235L82.7192 15.9372L82.987 15.4077C83.2541 14.9003 83.6669 14.3597 84.2246 13.7861C84.7818 13.1904 85.451 12.6939 86.2313 12.2968C87.0346 11.8776 87.9264 11.668 88.9081 11.668C90.5139 11.668 91.7292 12.01 92.5542 12.6939C93.4019 13.3779 93.9815 14.2935 94.2938 15.4408C94.6061 16.566 94.7623 17.8237 94.7623 19.2136V27.686C94.7623 28.2598 94.5726 28.7451 94.1934 29.1421C93.8141 29.5173 93.335 29.705 92.7549 29.705C92.1754 29.705 91.6957 29.5173 91.3165 29.1421C90.9372 28.7451 90.7476 28.2598 90.7476 27.686V19.2136C90.7476 18.4855 90.6588 17.8347 90.4804 17.2611C90.3019 16.6653 89.9784 16.191 89.5099 15.838C89.0419 15.485 88.3726 15.3085 87.5031 15.3085C86.6553 15.3085 85.9308 15.485 85.3284 15.838C84.7261 16.191 84.2692 16.6653 83.9569 17.2611C83.6669 17.8347 83.5218 18.4855 83.5218 19.2136V27.686C83.5218 28.2598 83.3322 28.7451 82.9536 29.1421C82.5742 29.5173 82.0945 29.705 81.5151 29.705C80.9349 29.705 80.4553 29.5173 80.0765 29.1421C79.6973 28.7451 79.5076 28.2598 79.5076 27.686V19.2136C79.5076 18.4855 79.4184 17.8347 79.2399 17.2611C79.0615 16.6653 78.738 16.191 78.27 15.838C77.8015 15.485 77.1322 15.3085 76.2626 15.3085C75.4155 15.3085 74.6904 15.485 74.0879 15.838C73.4861 16.191 73.0289 16.6653 72.7164 17.2611C72.4269 17.8347 72.282 18.4855 72.282 19.2136V27.686C72.282 28.2598 72.0924 28.7451 71.7131 29.1421C71.3338 29.5173 70.8547 29.705 70.2746 29.705C69.6946 29.705 69.2155 29.5173 68.8362 29.1421C68.4569 28.7451 68.2673 28.2598 68.2673 27.686V14.0177C68.2673 13.4441 68.4569 12.9697 68.8362 12.5946C69.2155 12.1975 69.6946 11.9989 70.2746 11.9989C70.8547 11.9989 71.3338 12.1975 71.7131 12.5946C72.0924 12.9697 72.282 13.4441 72.282 14.0177V15.4408L71.7801 15.3415C71.9808 14.9665 72.2597 14.5693 72.6161 14.1501C72.973 13.7089 73.4081 13.3007 73.9212 12.9256C74.4338 12.5505 75.0027 12.2527 75.6269 12.032C76.2515 11.7893 76.932 11.668 77.6676 11.668Z" fill="#FCF0E3"/>
<path d="M101.216 27.6869C101.216 28.2605 101.026 28.7459 100.647 29.143C100.268 29.5181 99.7882 29.7057 99.2082 29.7057C98.6287 29.7057 98.149 29.5181 97.7696 29.143C97.391 28.7459 97.2013 28.2605 97.2013 27.6869V14.0185C97.2013 13.4449 97.391 12.9705 97.7696 12.5954C98.149 12.1983 98.6287 11.9997 99.2082 11.9997C99.7882 11.9997 100.268 12.1983 100.647 12.5954C101.026 12.9705 101.216 13.4449 101.216 14.0185V27.6869ZM99.1746 9.84851C98.4166 9.84851 97.8813 9.72717 97.5688 9.48444C97.257 9.24176 97.101 8.81153 97.101 8.19374V7.56492C97.101 6.92512 97.2683 6.49483 97.6024 6.27422C97.9594 6.03155 98.4947 5.91016 99.2082 5.91016C99.989 5.91016 100.536 6.03155 100.847 6.27422C101.16 6.51691 101.316 6.94713 101.316 7.56492V8.19374C101.316 8.8336 101.149 9.27487 100.814 9.51755C100.48 9.73821 99.9332 9.84851 99.1746 9.84851Z" fill="#FCF0E3"/>
<path d="M113.235 11.668C114.885 11.668 116.134 12.01 116.981 12.6939C117.851 13.3779 118.442 14.2935 118.754 15.4408C119.089 16.566 119.256 17.8237 119.256 19.2136V27.686C119.256 28.2598 119.067 28.7451 118.687 29.1421C118.308 29.5173 117.829 29.705 117.249 29.705C116.669 29.705 116.19 29.5173 115.81 29.1421C115.431 28.7451 115.241 28.2598 115.241 27.686V19.2136C115.241 18.4855 115.142 17.8347 114.941 17.2611C114.762 16.6653 114.428 16.191 113.937 15.838C113.447 15.485 112.744 15.3085 111.83 15.3085C110.937 15.3085 110.179 15.485 109.555 15.838C108.953 16.191 108.484 16.6653 108.149 17.2611C107.837 17.8347 107.681 18.4855 107.681 19.2136V27.686C107.681 28.2598 107.492 28.7451 107.113 29.1421C106.733 29.5173 106.254 29.705 105.674 29.705C105.094 29.705 104.614 29.5173 104.236 29.1421C103.857 28.7451 103.667 28.2598 103.667 27.686V14.0177C103.667 13.4441 103.857 12.9697 104.236 12.5946C104.614 12.1975 105.094 11.9989 105.674 11.9989C106.254 11.9989 106.733 12.1975 107.113 12.5946C107.492 12.9697 107.681 13.4441 107.681 14.0177V15.4408L107.18 15.3415C107.38 14.9665 107.67 14.5693 108.049 14.1501C108.428 13.7089 108.875 13.3007 109.387 12.9256C109.9 12.5505 110.48 12.2527 111.127 12.032C111.774 11.7893 112.476 11.668 113.235 11.668Z" fill="#FCF0E3"/>
<path d="M139.118 20.8684C139.118 22.6776 138.706 24.2772 137.881 25.6673C137.078 27.0352 135.985 28.1052 134.602 28.8773C133.242 29.6498 131.715 30.036 130.019 30.036C128.324 30.036 126.786 29.6498 125.403 28.8773C124.043 28.1052 122.95 27.0352 122.124 25.6673C121.322 24.2772 120.92 22.6776 120.92 20.8684C120.92 19.0592 121.322 17.4707 122.124 16.1028C122.95 14.7127 124.043 13.6317 125.403 12.8594C126.786 12.0651 128.324 11.668 130.019 11.668C131.715 11.668 133.242 12.0651 134.602 12.8594C135.985 13.6317 137.078 14.7127 137.881 16.1028C138.706 17.4707 139.118 19.0592 139.118 20.8684ZM135.105 20.8684C135.105 19.7432 134.871 18.7724 134.402 17.9561C133.955 17.1176 133.342 16.4668 132.562 16.0034C131.804 15.5401 130.957 15.3085 130.019 15.3085C129.083 15.3085 128.224 15.5401 127.444 16.0034C126.685 16.4668 126.072 17.1176 125.604 17.9561C125.158 18.7724 124.934 19.7432 124.934 20.8684C124.934 21.9717 125.158 22.9425 125.604 23.7808C126.072 24.5972 126.685 25.237 127.444 25.7003C128.224 26.1637 129.083 26.3953 130.019 26.3953C130.957 26.3953 131.804 26.1637 132.562 25.7003C133.342 25.237 133.955 24.5972 134.402 23.7808C134.871 22.9425 135.105 21.9717 135.105 20.8684Z" fill="#FCF0E3"/>
<path d="M154.079 12C154.659 12 155.139 12.1985 155.518 12.5957C155.897 12.9707 156.087 13.4451 156.087 14.0188V22.425C156.087 24.7637 155.429 26.617 154.112 27.985C152.797 29.3529 150.902 30.037 148.426 30.037C145.951 30.037 144.055 29.3529 142.74 27.985C141.446 26.617 140.798 24.7637 140.798 22.425V14.0188C140.798 13.4451 140.988 12.9707 141.368 12.5957C141.747 12.1985 142.226 12 142.806 12C143.386 12 143.865 12.1985 144.244 12.5957C144.624 12.9707 144.814 13.4451 144.814 14.0188V22.425C144.814 23.7708 145.114 24.7747 145.717 25.4367C146.318 26.0765 147.222 26.3964 148.426 26.3964C149.653 26.3964 150.567 26.0765 151.169 25.4367C151.772 24.7747 152.073 23.7708 152.073 22.425V14.0188C152.073 13.4451 152.262 12.9707 152.641 12.5957C153.02 12.1985 153.5 12 154.079 12Z" fill="#FCF0E3"/>
<path d="M157.724 26.9579C157.502 26.6491 157.401 26.2519 157.424 25.7665C157.445 25.2811 157.736 24.862 158.293 24.5089C158.649 24.2882 159.029 24.2 159.43 24.2442C159.832 24.2662 160.221 24.4648 160.602 24.8398C161.248 25.4797 161.928 25.9761 162.641 26.3291C163.356 26.6821 164.248 26.8587 165.317 26.8587C165.653 26.8366 166.02 26.7925 166.423 26.7263C166.823 26.6381 167.169 26.4615 167.458 26.1967C167.771 25.9099 167.927 25.4797 167.927 24.906C167.927 24.4206 167.761 24.0346 167.425 23.7478C167.091 23.4609 166.645 23.2182 166.087 23.0196C165.552 22.8211 164.95 22.6335 164.282 22.4571C163.59 22.2585 162.876 22.0379 162.139 21.7951C161.426 21.5524 160.768 21.2435 160.166 20.8684C159.564 20.4712 159.074 19.9528 158.694 19.313C158.316 18.6731 158.125 17.8677 158.125 16.897C158.125 15.7938 158.438 14.8561 159.063 14.0839C159.687 13.3117 160.49 12.716 161.471 12.2968C162.475 11.8776 163.522 11.668 164.616 11.668C165.307 11.668 166.032 11.7562 166.79 11.9327C167.548 12.0872 168.273 12.3519 168.964 12.727C169.656 13.08 170.236 13.5544 170.704 14.1501C170.949 14.4811 171.095 14.8782 171.138 15.3415C171.183 15.8048 170.972 16.224 170.503 16.5992C170.169 16.8639 169.779 16.9852 169.332 16.9632C168.886 16.919 168.519 16.7646 168.228 16.4998C167.849 16.0145 167.337 15.6284 166.69 15.3415C166.065 15.0547 165.341 14.9113 164.515 14.9113C164.18 14.9113 163.813 14.9555 163.411 15.0437C163.032 15.1099 162.698 15.2754 162.408 15.5401C162.118 15.7828 161.973 16.18 161.973 16.7316C161.973 17.239 162.139 17.6472 162.475 17.9561C162.809 18.2429 163.255 18.4855 163.813 18.6841C164.392 18.8607 165.006 19.0372 165.653 19.2136C166.321 19.3902 167.003 19.5998 167.693 19.8424C168.384 20.0852 169.021 20.405 169.601 20.8022C170.181 21.1994 170.648 21.7179 171.005 22.3577C171.362 22.9755 171.54 23.7698 171.54 24.7406C171.54 25.8659 171.206 26.8256 170.537 27.6198C169.868 28.4142 169.031 29.0207 168.028 29.4401C167.024 29.8374 165.997 30.036 164.95 30.036C163.634 30.036 162.319 29.8154 161.002 29.3739C159.687 28.9104 158.594 28.1052 157.724 26.9579Z" fill="#FCF0E3"/>
</g>
<defs>
<clipPath id="clip0_1044_2997">
<rect width="171.579" height="34.5719" fill="white" transform="translate(0.137695)"/>
</clipPath>
</defs>
</svg>
