<svg width="175" height="30" viewBox="0 0 175 30" fill="none" xmlns="http://www.w3.org/2000/svg">
<g clip-path="url(#clip0_1044_2988)">
<path fill-rule="evenodd" clip-rule="evenodd" d="M18.9592 1.91797C16.2041 1.91797 13.9707 4.12751 13.9707 6.85308C13.9707 9.57867 16.2041 11.7882 18.9592 11.7882C21.7143 11.7882 23.9476 9.57867 23.9476 6.85308C23.9476 4.12751 21.7143 1.91797 18.9592 1.91797ZM9.20563 11.5189C14.3983 11.5189 18.6078 15.6834 18.6078 20.8205V28.4443H13.9312V20.8205C13.9312 20.2733 13.8361 19.7484 13.6616 19.2604L6.79226 26.0563L3.48534 22.7847L10.1099 16.2311C9.81721 16.1749 9.51488 16.1456 9.20563 16.1456H1.4996V11.5189H9.20563ZM28.8291 11.5189C23.6365 11.5189 19.4268 15.6834 19.4268 20.8205V28.4443H24.1035V20.8205C24.1035 20.392 24.1619 19.9769 24.271 19.5827L31.4568 26.6918L34.7638 23.42L27.5779 16.3112C27.9764 16.2032 28.396 16.1456 28.8291 16.1456H36.535V11.5189H28.8291Z" fill="#FCF0E3"/>
<path d="M44.0167 28.7146V2.12109H51.6297L59.792 24.9099H60.3806V2.12109H64.7365V28.7146H57.2806L48.9218 5.88689H48.3725V28.7146H44.0167Z" fill="#FCF0E3"/>
<path d="M82.1879 25.2193L83.2866 25.103L83.3653 28.2476C80.3827 28.8429 77.7404 29.1405 75.4383 29.1405C72.5344 29.1405 70.4414 28.351 69.1597 26.7723C67.9038 25.1934 67.2759 22.67 67.2759 19.2018C67.2759 12.3173 70.1144 8.875 75.7915 8.875C81.2853 8.875 84.0324 11.8384 84.0324 17.7654L83.7577 20.7934H71.5925C71.6186 22.3982 71.9719 23.5759 72.6522 24.3263C73.3323 25.0771 74.6012 25.4522 76.4587 25.4522C78.316 25.4522 80.2259 25.3747 82.1879 25.2193ZM79.8334 17.5325C79.8334 15.6172 79.5195 14.2843 78.8915 13.5337C78.2901 12.7573 77.2565 12.369 75.7915 12.369C74.3265 12.369 73.2539 12.7702 72.5736 13.5725C71.9195 14.3748 71.5793 15.6948 71.5535 17.5325H79.8334Z" fill="#FCF0E3"/>
<path d="M96.7395 12.9116H91.324V21.4527C91.324 23.0316 91.4419 24.0796 91.6772 24.5972C91.9127 25.1147 92.5143 25.3739 93.4825 25.3739L96.7004 25.2572L96.8964 28.6348C95.1436 28.9713 93.8095 29.1396 92.8939 29.1396C90.6703 29.1396 89.1398 28.6348 88.3026 27.6255C87.4913 26.616 87.0861 24.7138 87.0861 21.9186V12.9116H84.5743V9.30117H87.0861V3.67188H91.324V9.30117H96.7395V12.9116Z" fill="#FCF0E3"/>
<path d="M96.7548 9.30078H100.954L104.054 25.1018H104.839L108.567 9.68901H112.962L116.69 25.1018H117.475L120.536 9.30078H124.774L120.614 28.7121H113.825L110.764 15.3959L107.703 28.7121H100.915L96.7548 9.30078Z" fill="#FCF0E3"/>
<path d="M127.503 11.3985C128.864 9.71616 131.114 8.875 134.254 8.875C137.392 8.875 139.629 9.71616 140.963 11.3985C142.324 13.0808 143.004 15.6042 143.004 18.9689C143.004 22.3335 142.35 24.8698 141.041 26.5779C139.734 28.2864 137.471 29.1405 134.254 29.1405C131.036 29.1405 128.772 28.2864 127.464 26.5779C126.156 24.8698 125.502 22.3335 125.502 18.9689C125.502 15.6042 126.169 13.0808 127.503 11.3985ZM130.721 24.0158C131.323 25.0511 132.501 25.5687 134.254 25.5687C136.006 25.5687 137.183 25.0511 137.785 24.0158C138.387 22.9805 138.688 21.2854 138.688 18.9301C138.688 16.5748 138.36 14.9054 137.707 13.9219C137.078 12.9384 135.927 12.4467 134.254 12.4467C132.579 12.4467 131.415 12.9384 130.761 13.9219C130.133 14.9054 129.818 16.5748 129.818 18.9301C129.818 21.2854 130.119 22.9805 130.721 24.0158Z" fill="#FCF0E3"/>
<path d="M145.291 28.7133V9.30204H149.53V11.6314C151.753 10.2079 153.977 9.28909 156.201 8.875V13.1067C153.951 13.5466 152.028 14.1161 150.432 14.8149L149.569 15.1642V28.7133H145.291Z" fill="#FCF0E3"/>
<path d="M161.786 28.713H157.509V1.22656H161.786V17.1049L164.22 16.8722L168.85 9.30166H173.638L167.987 18.3863L173.952 28.713H169.124L164.338 20.5213L161.786 20.793V28.713Z" fill="#FCF0E3"/>
</g>
<defs>
<clipPath id="clip0_1044_2988">
<rect width="174.14" height="29.4501" fill="white" transform="translate(0.716553)"/>
</clipPath>
</defs>
</svg>
