<svg width="168" height="36" viewBox="0 0 168 36" fill="none" xmlns="http://www.w3.org/2000/svg">
<g clip-path="url(#clip0_1044_3023)">
<path d="M135.514 2.82422V33.1535H140V2.82422H135.514Z" fill="#FCF0E3"/>
<path fill-rule="evenodd" clip-rule="evenodd" d="M94.9425 33.6418C93.1718 33.6418 91.6927 33.2338 90.505 32.4177C90.3749 32.3287 90.2488 32.2357 90.1257 32.1393V33.1521H86.1666V3.3125H90.6866V16.0958C91.7954 15.3905 93.1368 15.0378 94.7114 15.0378C96.4159 15.0378 97.9004 15.4403 99.1653 16.2453C100.43 17.0505 101.409 18.1547 102.101 19.5582C102.805 20.9508 103.157 22.5447 103.157 24.3396C103.157 26.1022 102.811 27.6852 102.118 29.0888C101.436 30.4921 100.479 31.6019 99.2479 32.4177C98.0161 33.2338 96.5811 33.6418 94.9425 33.6418ZM90.5215 21.5329C90.2574 22.3378 90.1257 23.2734 90.1257 24.3396C90.1257 25.4057 90.2574 26.3417 90.5215 27.1466C90.7853 27.9519 91.2145 28.5771 91.808 29.0235C92.4129 29.4695 93.2158 29.6923 94.2165 29.6923C95.1841 29.6923 95.9762 29.4532 96.5921 28.9746C97.208 28.4958 97.6642 27.8539 97.961 27.0487C98.2581 26.2329 98.4063 25.3299 98.4063 24.3396C98.4063 23.3605 98.2526 22.4685 97.9445 21.6637C97.6367 20.8475 97.1584 20.2001 96.5095 19.7214C95.8716 19.2318 95.0521 18.987 94.0514 18.987C93.1167 18.987 92.3578 19.2101 91.7753 19.6562C91.2035 20.1022 90.7853 20.7276 90.5215 21.5329Z" fill="#FCF0E3"/>
<path d="M79.0728 22.7389V33.1508H83.5593V21.5642C83.5593 19.6384 83.037 18.0826 81.9923 16.8967C80.9586 15.7 79.4245 15.1016 77.3901 15.1016C76.2024 15.1016 75.1192 15.3626 74.1405 15.8849C73.2445 16.3584 72.5133 17.009 71.9474 17.8371C71.5252 17.0856 70.942 16.4675 70.1979 15.9829C69.3074 15.3953 68.1636 15.1016 66.7671 15.1016C65.5463 15.1016 64.4411 15.3681 63.4514 15.9012C62.7035 16.3086 62.0711 16.8272 61.5542 17.4569V15.5259H57.5956V33.1508H62.1151V22.4779C62.1151 21.4661 62.3957 20.6447 62.9566 20.0137C63.5285 19.3718 64.2815 19.0508 65.2162 19.0508C66.1953 19.0508 66.9593 19.3772 67.5091 20.03C68.0701 20.672 68.3506 21.5751 68.3506 22.7389V33.1508H72.8372V22.4779C72.8372 21.8033 72.9638 21.2103 73.2169 20.6991C73.4806 20.1768 73.8435 19.7743 74.3056 19.4915C74.7674 19.1977 75.3117 19.0508 75.9386 19.0508C76.9174 19.0508 77.6814 19.3772 78.2313 20.03C78.7921 20.672 79.0728 21.5751 79.0728 22.7389Z" fill="#FCF0E3"/>
<path d="M41.5203 32.9726C42.4 33.4403 43.5382 33.6744 44.935 33.6744C46.6833 33.6744 48.1297 33.2992 49.2734 32.5483C49.8161 32.1957 50.2945 31.7908 50.7084 31.3348V33.1522H54.6675V15.5273H50.1475V24.4702C50.1475 25.5582 50.021 26.4394 49.7683 27.1139C49.5261 27.7777 49.2129 28.2836 48.8276 28.6316C48.4429 28.9691 48.0306 29.1973 47.5909 29.317C47.151 29.4369 46.7384 29.4967 46.3536 29.4967C45.3968 29.4967 44.6544 29.2844 44.1265 28.8602C43.6097 28.436 43.236 27.9083 43.0048 27.2773C42.7741 26.6462 42.6366 26.0205 42.5925 25.4003C42.5485 24.7697 42.5265 24.2529 42.5265 23.8501V15.5273H37.9739V25.4167C37.9739 25.7107 37.9955 26.1784 38.0396 26.8204C38.0836 27.4623 38.2101 28.1748 38.4192 28.9583C38.6279 29.7305 38.9747 30.4758 39.4584 31.194C39.9533 31.9118 40.6406 32.5048 41.5203 32.9726Z" fill="#FCF0E3"/>
<path d="M105.137 15.5275V33.1524H109.656V24.1441C109.656 23.4696 109.75 22.8657 109.937 22.3325C110.124 21.7886 110.399 21.3209 110.762 20.9293C111.125 20.5266 111.57 20.2057 112.098 19.9664C112.626 19.7162 113.214 19.5692 113.863 19.5258C114.523 19.4714 115.1 19.5203 115.595 19.6727V15.5275C115.056 15.4622 114.517 15.4513 113.978 15.4949C113.44 15.5275 112.917 15.62 112.411 15.7723C111.905 15.9138 111.438 16.115 111.009 16.3762C110.448 16.7026 109.976 17.1159 109.591 17.6164C109.408 17.8533 109.243 18.1025 109.096 18.3637V15.5275H105.137Z" fill="#FCF0E3"/>
<path fill-rule="evenodd" clip-rule="evenodd" d="M125.042 33.639C123.217 33.639 121.606 33.253 120.209 32.4804C118.823 31.6973 117.735 30.6257 116.943 29.2654C116.162 27.8949 115.772 26.3282 115.772 24.5656C115.772 22.6401 116.157 20.9646 116.927 19.5394C117.696 18.1141 118.757 17.0099 120.11 16.2265C121.463 15.4323 123.019 15.0352 124.778 15.0352C126.648 15.0352 128.237 15.4704 129.546 16.3407C130.854 17.211 131.822 18.435 132.448 20.0126C133.076 21.5902 133.296 23.445 133.109 25.5774H120.6C120.739 26.6354 121.072 27.4947 121.595 28.1557C122.321 29.0482 123.382 29.4941 124.778 29.4941C125.658 29.4941 126.411 29.3036 127.038 28.9229C127.665 28.5423 128.144 27.9928 128.473 27.2746L132.961 28.5476C132.29 30.1578 131.228 31.4088 129.776 32.3007C128.336 33.1931 126.758 33.639 125.042 33.639ZM127.797 20.0778C128.181 20.5932 128.438 21.3277 128.569 22.2808H120.717C120.892 21.4669 121.185 20.7978 121.595 20.2737C122.321 19.3488 123.448 18.8865 124.976 18.8865C126.285 18.8865 127.225 19.2837 127.797 20.0778Z" fill="#FCF0E3"/>
<path d="M143.625 33.1535V2.82422H148.113V33.1535H143.625Z" fill="#FCF0E3"/>
<path fill-rule="evenodd" clip-rule="evenodd" d="M153.108 32.921C153.999 33.3996 155.082 33.639 156.357 33.639C157.896 33.639 159.167 33.3778 160.168 32.8555C160.966 32.4353 161.719 31.8124 162.428 30.9861V33.1495H166.354V22.3787C166.354 21.5738 166.32 20.8448 166.254 20.1921C166.189 19.5394 165.98 18.8865 165.628 18.2337C165 17.0588 164.077 16.232 162.857 15.7532C161.635 15.2745 160.24 15.0352 158.666 15.0352C156.523 15.0352 154.829 15.4921 153.585 16.406C152.343 17.3198 151.497 18.5058 151.046 19.9636L155.104 21.2363C155.389 20.4314 155.89 19.8711 156.605 19.5556C157.319 19.2401 158.007 19.0824 158.666 19.0824C159.854 19.0824 160.701 19.3272 161.206 19.8167C161.605 20.2012 161.845 20.7565 161.931 21.4833C161.171 21.5973 160.451 21.7053 159.772 21.8075C158.617 21.9709 157.583 22.1451 156.671 22.3298C155.758 22.5148 154.972 22.7271 154.311 22.9663C153.355 23.3143 152.59 23.7498 152.019 24.272C151.457 24.7834 151.051 25.376 150.798 26.0505C150.545 26.7252 150.419 27.4707 150.419 28.2864C150.419 29.2654 150.644 30.1629 151.095 30.9791C151.557 31.7839 152.228 32.4313 153.108 32.921ZM159.392 29.7223C158.831 30.0054 158.138 30.1469 157.314 30.1469C156.797 30.1469 156.351 30.0707 155.977 29.9183C155.604 29.7658 155.313 29.5486 155.104 29.2654C154.905 28.9718 154.807 28.6234 154.807 28.221C154.807 27.9275 154.867 27.6607 154.989 27.4216C155.119 27.182 155.318 26.9648 155.581 26.7687C155.857 26.5619 156.214 26.3718 156.654 26.1975C157.039 26.056 157.484 25.9254 157.99 25.806C158.496 25.6862 159.162 25.5556 159.986 25.414C160.516 25.3164 161.15 25.2048 161.889 25.0801C161.879 25.3903 161.861 25.741 161.834 26.1322C161.801 26.7633 161.669 27.3182 161.438 27.7968C161.317 28.0469 161.086 28.3571 160.745 28.7269C160.415 29.0967 159.964 29.4288 159.392 29.7223Z" fill="#FCF0E3"/>
<path fill-rule="evenodd" clip-rule="evenodd" d="M13.2117 15.6526H1.02747V20.9019C1.02747 28.7401 7.45035 35.0944 15.3733 35.0944C23.2964 35.0944 29.7195 28.7401 29.7195 20.9019V15.6526H17.1421V7.29259C17.1421 3.964 14.4145 1.26562 11.05 1.26562C7.68539 1.26562 4.95786 3.964 4.95786 7.29259H8.88824C8.88824 6.11146 9.8561 5.15399 11.05 5.15399C12.2439 5.15399 13.2117 6.11146 13.2117 7.29259V15.6526ZM13.2117 19.541V26.9289H17.1421V19.541H25.7891V20.9019C25.7891 26.5929 21.1257 31.2061 15.3733 31.2061C9.62107 31.2061 4.95786 26.5929 4.95786 20.9019V19.541H13.2117Z" fill="#FCF0E3"/>
</g>
<defs>
<clipPath id="clip0_1044_3023">
<rect width="166.457" height="35.8523" fill="white" transform="translate(0.856201)"/>
</clipPath>
</defs>
</svg>
