<svg width="329" height="196" viewBox="0 0 329 196" fill="none" xmlns="http://www.w3.org/2000/svg">
<path d="M114.5 16.5007C79.9557 -10.1296 1.5 16.501 1.5 16.501C1.5 16.501 74.4905 -11.2233 113.5 9.50022C134.05 20.4175 145.251 47.7409 150.636 65.8958C152.478 71.4499 153.867 77.2409 154.83 83.2795C187.927 65.7855 234.373 72.1829 264 96.0005C280.419 109.2 287.095 132.143 289.768 146.809C291.579 155.081 291.5 160.501 291.5 160.501C291.5 160.501 291.246 154.921 289.768 146.809C286.273 130.843 275.736 104.25 244 85.5002C209.5 65.1179 154.83 83.2795 154.83 83.2795C155.957 90.342 156.5 97.7433 156.5 105.501C156.5 105.995 156.478 106.496 156.435 107C156.435 110.142 155.335 113.25 153.59 115.967C150.133 122.152 144.011 126.671 137.5 124.501C137.207 124.403 136.923 124.294 136.649 124.175C136.599 124.154 136.55 124.132 136.501 124.11C130.686 121.479 129.254 114.182 130.147 107.844C130.438 105.307 131.142 102.907 132.233 101C132.233 101 132.233 101 132.233 101C135.627 95.071 154.83 83.2795 154.83 83.2795C148.494 86.6289 139.146 93.3538 134 98.5002C133.355 99.1449 132.76 99.9971 132.233 101C131.249 102.877 130.508 105.283 130.147 107.844C129.401 114.354 131.373 121.771 136.5 124.109C136.5 124.11 136.501 124.11 136.501 124.11C136.55 124.132 136.599 124.154 136.649 124.175C142.01 126.481 149.54 122.272 153.59 115.967C155.156 113.164 156.175 110.019 156.435 107C156.435 105.874 156.362 104.159 156.249 102.154L154.83 83.2795C154.83 83.2795 135.627 95.071 132.233 101C132.233 101 132.233 101 132.233 101C132.76 99.9971 133.355 99.1449 134 98.5002C139.146 93.3538 148.494 86.6289 154.83 83.2795C154.83 83.2795 153.636 76.0106 150.636 65.8958C144.294 46.7666 132.592 30.4478 114.5 16.5007Z" fill="#181B0E"/>
<path d="M1.5 16.501L0.967378 15.0987L1.98213 17.9214L1.5 16.501ZM114.5 16.5007L113.584 17.6886L114.5 16.5007ZM137.5 124.501L137.974 123.078L137.974 123.078L137.5 124.501ZM134 98.5002L132.939 97.4396V97.4396L134 98.5002ZM264 96.0005L263.06 97.1696L264 96.0005ZM291.5 160.501L290.002 160.569L293 160.522L291.5 160.501ZM113.5 9.50022L112.796 10.8249L113.5 9.50022ZM244 85.5002L243.237 86.7917L244 85.5002ZM132.233 101L130.932 100.255L130.733 100.601V101H132.233ZM136.5 124.109L137.144 122.755L137.133 122.75L137.122 122.745L136.5 124.109ZM1.5 16.501C1.98213 17.9214 1.98213 17.9214 1.98242 17.9213C1.98292 17.9211 1.98351 17.9209 1.9845 17.9206C1.98648 17.9199 1.98964 17.9188 1.99399 17.9173C2.00269 17.9144 2.01611 17.9099 2.0342 17.9038C2.07037 17.8917 2.12521 17.8734 2.19824 17.8491C2.34431 17.8007 2.56316 17.7287 2.85106 17.6356C3.42686 17.4494 4.27878 17.1788 5.37697 16.8432C7.57352 16.172 10.7543 15.2412 14.6807 14.2065C22.5365 12.1363 33.3622 9.65407 45.2526 8.00016C57.1502 6.34524 70.0664 5.52655 82.1179 6.7583C94.1827 7.99142 105.254 11.2667 113.584 17.6886L115.416 15.3127C106.474 8.41955 94.7841 5.03725 82.4229 3.77385C70.0483 2.50907 56.8735 3.35484 44.8392 5.02877C32.7977 6.70371 21.8504 9.21471 13.9162 11.3055C9.94765 12.3514 6.7292 13.293 4.50026 13.9742C3.3857 14.3147 2.51831 14.5903 1.928 14.7811C1.63284 14.8766 1.40692 14.9509 1.25399 15.0016C1.17753 15.027 1.11931 15.0464 1.0798 15.0597C1.06004 15.0663 1.04496 15.0714 1.03462 15.0749C1.02945 15.0766 1.02547 15.078 1.02267 15.0789C1.02127 15.0794 1.02007 15.0798 1.01937 15.08C1.01847 15.0803 1.01787 15.0805 1.5 16.501ZM155 105.501C155 105.951 154.98 106.408 154.94 106.872L157.929 107.128C157.976 106.584 158 106.04 158 105.501H155ZM154.94 106.872C154.701 109.657 153.754 112.598 152.28 115.235L154.899 116.699C156.558 113.731 157.649 110.382 157.929 107.128L154.94 106.872ZM152.28 115.235C148.952 121.191 143.445 124.901 137.974 123.078L137.026 125.924C144.578 128.441 151.315 123.112 154.899 116.699L152.28 115.235ZM137.974 123.078C137.722 122.993 137.479 122.9 137.245 122.799L136.052 125.552C136.367 125.688 136.691 125.812 137.026 125.924L137.974 123.078ZM137.245 122.799C137.203 122.781 137.161 122.762 137.119 122.743L135.883 125.477C135.939 125.502 135.995 125.527 136.052 125.552L137.245 122.799ZM137.119 122.743C134.687 121.643 133.11 119.552 132.233 116.897C131.349 114.222 131.21 111.055 131.632 108.054L128.662 107.635C128.192 110.972 128.322 114.622 129.384 117.838C130.453 121.073 132.5 123.946 135.883 125.476L137.119 122.743ZM131.632 108.054C131.974 105.631 132.67 103.396 133.562 101.697L130.905 100.303C129.827 102.358 129.042 104.934 128.662 107.635L131.632 108.054ZM133.562 101.697C134.038 100.789 134.55 100.071 135.061 99.5609L132.939 97.4396C132.16 98.2185 131.481 99.2051 130.905 100.303L133.562 101.697ZM263.06 97.1696C279.029 110.007 285.63 132.468 288.292 147.078L291.244 146.54C288.561 131.818 281.81 108.394 264.94 94.8315L263.06 97.1696ZM288.292 147.078C289.024 151.09 289.451 154.474 289.696 156.85C289.819 158.038 289.895 158.974 289.941 159.61C289.964 159.928 289.979 160.17 289.989 160.332C289.993 160.413 289.997 160.474 289.999 160.513C290 160.533 290.001 160.548 290.001 160.557C290.001 160.562 290.001 160.565 290.001 160.567C290.002 160.568 290.002 160.568 290.002 160.569C290.002 160.569 290.002 160.569 290.002 160.569C290.002 160.569 290.002 160.569 290.002 160.569C290.002 160.569 290.002 160.569 291.5 160.501C292.998 160.432 292.998 160.432 292.998 160.432C292.998 160.432 292.998 160.432 292.998 160.432C292.998 160.431 292.998 160.431 292.998 160.43C292.998 160.429 292.998 160.428 292.998 160.426C292.998 160.423 292.998 160.418 292.997 160.411C292.997 160.399 292.996 160.381 292.995 160.358C292.992 160.312 292.989 160.245 292.984 160.158C292.973 159.983 292.957 159.726 292.933 159.394C292.885 158.73 292.806 157.764 292.681 156.543C292.429 154.102 291.991 150.64 291.244 146.54L288.292 147.078ZM1.5 16.501C2.03262 17.9032 2.03261 17.9032 2.03287 17.9031C2.03333 17.9029 2.03387 17.9027 2.03479 17.9024C2.03662 17.9017 2.03955 17.9006 2.04359 17.8991C2.05166 17.896 2.06413 17.8913 2.08095 17.885C2.11459 17.8723 2.16561 17.8532 2.23362 17.8279C2.36963 17.7773 2.57357 17.702 2.84217 17.6042C3.37937 17.4087 4.17514 17.1237 5.20339 16.7676C7.26003 16.0553 10.2459 15.0591 13.9523 13.9275C21.3676 11.6635 31.6549 8.86095 43.1482 6.70353C54.6466 4.54513 67.316 3.03935 79.5045 3.35087C91.7051 3.66269 103.325 5.79327 112.796 10.8249L114.204 8.17554C104.17 2.84543 92.0378 0.670217 79.5812 0.351849C67.1126 0.0331756 54.2201 1.57281 42.5947 3.75502C30.9642 5.93822 20.5658 8.77155 13.0763 11.0582C9.33032 12.2019 6.30902 13.2098 4.22161 13.9327C3.17783 14.2942 2.36736 14.5846 1.81632 14.7851C1.54079 14.8853 1.33011 14.9632 1.18753 15.0162C1.11624 15.0427 1.06198 15.0631 1.02515 15.0769C1.00674 15.0838 0.992684 15.0891 0.983038 15.0928C0.978215 15.0946 0.974494 15.096 0.971882 15.097C0.970576 15.0975 0.969449 15.0979 0.968796 15.0982C0.967948 15.0985 0.967378 15.0987 1.5 16.501ZM135.061 99.5609C140.091 94.5303 149.314 87.8919 155.531 84.6057L154.129 81.9534C147.673 85.366 138.201 92.1773 132.939 97.4396L135.061 99.5609ZM155.531 84.6057C188.043 67.4207 233.849 73.6861 263.06 97.1696L264.94 94.8315C234.897 70.6798 187.811 64.1502 154.129 81.9534L155.531 84.6057ZM113.584 17.6886C131.46 31.4689 142.972 47.5463 149.212 66.3679L152.06 65.4237C145.615 45.987 133.724 29.4266 115.416 15.3127L113.584 17.6886ZM149.212 66.3679C151.027 71.84 152.398 77.5517 153.349 83.5158L156.312 83.0432C155.337 76.93 153.928 71.0598 152.06 65.4237L149.212 66.3679ZM153.349 83.5158C154.462 90.4915 155 97.8131 155 105.501H158C158 97.6736 157.452 90.1926 156.312 83.0432L153.349 83.5158ZM112.796 10.8249C122.724 16.0992 130.486 25.3932 136.456 35.7339C142.418 46.0604 146.525 57.3088 149.198 66.3223L152.074 65.4693C149.363 56.3279 145.176 44.8371 139.054 34.2339C132.94 23.6448 124.826 13.8186 114.204 8.17554L112.796 10.8249ZM149.198 66.3223C150.686 71.3387 151.726 75.6485 152.393 78.701C152.726 80.227 152.967 81.4378 153.123 82.2646C153.201 82.678 153.259 82.9953 153.296 83.2078C153.315 83.3141 153.329 83.3942 153.338 83.4471C153.342 83.4735 153.345 83.4931 153.347 83.5058C153.349 83.5121 153.349 83.5167 153.35 83.5195C153.35 83.5209 153.35 83.5219 153.35 83.5225C153.35 83.5227 153.35 83.5229 153.35 83.5229C153.35 83.523 153.35 83.5229 153.35 83.5229C153.35 83.5229 153.35 83.5228 154.83 83.2795C156.311 83.0363 156.311 83.0361 156.311 83.0359C156.311 83.0358 156.31 83.0356 156.31 83.0354C156.31 83.035 156.31 83.0345 156.31 83.0339C156.31 83.0327 156.31 83.031 156.309 83.0289C156.309 83.0247 156.308 83.0187 156.306 83.0109C156.304 82.9955 156.3 82.973 156.295 82.9437C156.285 82.8852 156.27 82.7992 156.25 82.687C156.211 82.4626 156.151 82.1329 156.071 81.7068C155.91 80.8546 155.664 79.616 155.324 78.0604C154.644 74.9498 153.586 70.5677 152.074 65.4693L149.198 66.3223ZM157.996 105.388L157.744 102.041L154.753 102.266L155.004 105.613L157.996 105.388ZM157.744 102.041L156.326 83.1671L153.335 83.3919L154.753 102.266L157.744 102.041ZM154.83 83.2795C155.303 84.703 155.303 84.7031 155.303 84.7031C155.304 84.703 155.304 84.7029 155.304 84.7027C155.306 84.7023 155.308 84.7016 155.31 84.7007C155.316 84.6988 155.325 84.6959 155.337 84.6919C155.362 84.6839 155.399 84.6717 155.449 84.6555C155.55 84.623 155.701 84.5746 155.901 84.512C156.301 84.3866 156.896 84.2043 157.668 83.9787C159.211 83.5274 161.46 82.9036 164.268 82.2174C169.886 80.8444 177.733 79.2249 186.643 78.2374C204.528 76.2552 226.415 76.8533 243.237 86.7917L244.763 84.2088C227.085 73.7647 204.387 73.2525 186.312 75.2556C177.243 76.2607 169.266 77.9077 163.556 79.3031C160.699 80.0011 158.407 80.6369 156.826 81.0992C156.035 81.3304 155.422 81.5183 155.005 81.6491C154.796 81.7145 154.636 81.7655 154.527 81.8006C154.473 81.8181 154.432 81.8317 154.403 81.841C154.389 81.8456 154.378 81.8492 154.37 81.8517C154.367 81.853 154.364 81.854 154.361 81.8547C154.36 81.8551 154.359 81.8554 154.359 81.8556C154.358 81.8558 154.358 81.856 154.83 83.2795ZM243.237 86.7917C274.515 105.271 284.869 131.442 288.303 147.13L291.233 146.489C287.677 130.243 276.958 103.229 244.763 84.2088L243.237 86.7917ZM288.303 147.13C289.193 151.195 289.617 154.553 289.819 156.886C289.92 158.052 289.965 158.961 289.985 159.574C289.995 159.88 289.999 160.112 290 160.264C290.001 160.34 290.001 160.397 290 160.433C290 160.451 290 160.464 290 160.471C290 160.475 290 160.478 290 160.479C290 160.48 290 160.48 290 160.48C290 160.48 290 160.48 290 160.479C290 160.479 290 160.479 290 160.479C290 160.479 290 160.479 291.5 160.501C293 160.522 293 160.522 293 160.522C293 160.522 293 160.521 293 160.521C293 160.521 293 160.52 293 160.519C293 160.518 293 160.516 293 160.514C293 160.51 293 160.505 293 160.498C293 160.485 293 160.466 293 160.443C293.001 160.395 293.001 160.327 293 160.239C292.998 160.063 292.994 159.807 292.983 159.475C292.962 158.813 292.913 157.85 292.808 156.627C292.596 154.183 292.154 150.695 291.233 146.489L288.303 147.13ZM154.83 83.2795C154.046 82.0013 154.045 82.0014 154.045 82.0015C154.045 82.0016 154.045 82.0018 154.044 82.002C154.044 82.0024 154.043 82.0031 154.041 82.0039C154.039 82.0054 154.035 82.0077 154.03 82.0107C154.02 82.0167 154.006 82.0255 153.987 82.0371C153.95 82.0602 153.895 82.0943 153.823 82.1389C153.679 82.2281 153.469 82.3591 153.201 82.5276C152.664 82.8646 151.895 83.3519 150.963 83.9549C149.098 85.1602 146.573 86.8313 143.939 88.691C141.309 90.5481 138.55 92.6072 136.223 94.5878C133.943 96.5292 131.922 98.524 130.932 100.255L133.535 101.745C134.241 100.511 135.893 98.809 138.168 96.872C140.397 94.9742 143.075 92.9737 145.67 91.1418C148.261 89.3125 150.749 87.6651 152.591 86.4743C153.512 85.8792 154.27 85.399 154.797 85.068C155.06 84.9025 155.266 84.7743 155.405 84.6879C155.475 84.6446 155.528 84.6118 155.563 84.59C155.581 84.579 155.594 84.5708 155.603 84.5654C155.607 84.5628 155.61 84.5608 155.613 84.5595C155.614 84.5588 155.614 84.5584 155.615 84.5581C155.615 84.558 155.615 84.5579 155.615 84.5578C155.615 84.5578 155.615 84.5578 154.83 83.2795ZM130.733 101C130.733 100.798 130.774 100.63 130.818 100.504C130.84 100.442 130.863 100.388 130.885 100.343C130.907 100.298 130.929 100.259 130.947 100.228C130.966 100.197 130.983 100.171 130.997 100.15C131.012 100.13 131.024 100.113 131.033 100.1C131.043 100.088 131.05 100.078 131.055 100.072C131.057 100.069 131.059 100.067 131.06 100.065C131.061 100.064 131.062 100.063 131.062 100.063C131.062 100.063 131.062 100.063 131.062 100.063C131.062 100.063 131.062 100.063 131.062 100.063C131.062 100.063 131.062 100.063 131.062 100.063C131.062 100.063 131.062 100.063 131.062 100.064C131.061 100.064 131.061 100.065 131.06 100.065C131.059 100.067 131.057 100.069 131.055 100.072C131.05 100.078 131.043 100.088 131.033 100.1C131.024 100.113 131.012 100.13 130.997 100.15C130.983 100.171 130.966 100.197 130.947 100.228C130.928 100.259 130.907 100.298 130.885 100.343C130.863 100.388 130.84 100.442 130.818 100.505C130.774 100.63 130.733 100.799 130.733 101H133.733C133.733 101.202 133.693 101.371 133.649 101.496C133.627 101.558 133.604 101.612 133.582 101.657C133.56 101.702 133.538 101.741 133.52 101.772C133.501 101.803 133.484 101.829 133.469 101.85C133.455 101.871 133.443 101.888 133.433 101.9C133.424 101.913 133.416 101.922 133.412 101.928C133.41 101.931 133.408 101.933 133.406 101.935C133.405 101.936 133.405 101.937 133.405 101.937C133.405 101.937 133.405 101.937 133.405 101.937C133.405 101.937 133.405 101.937 133.405 101.937C133.405 101.937 133.405 101.937 133.405 101.937C133.405 101.937 133.405 101.937 133.405 101.937C133.405 101.936 133.406 101.936 133.406 101.935C133.408 101.933 133.41 101.931 133.412 101.928C133.416 101.922 133.424 101.912 133.433 101.9C133.443 101.888 133.455 101.87 133.469 101.85C133.484 101.829 133.501 101.803 133.52 101.772C133.538 101.741 133.56 101.702 133.582 101.657C133.604 101.612 133.627 101.558 133.649 101.496C133.693 101.37 133.733 101.202 133.733 101H130.733ZM130.932 100.255C129.716 102.378 128.965 104.985 128.657 107.674L131.637 108.015C131.911 105.629 132.568 103.436 133.535 101.745L130.932 100.255ZM128.657 107.674C128.261 111.122 128.58 114.836 129.706 118.038C130.828 121.23 132.817 124.078 135.878 125.474L137.122 122.745C135.056 121.802 133.495 119.772 132.536 117.044C131.581 114.326 131.286 111.076 131.637 108.015L128.657 107.674ZM135.856 125.464C135.866 125.469 135.873 125.472 135.878 125.474C135.88 125.475 135.882 125.476 135.883 125.477C135.884 125.477 135.884 125.477 135.884 125.477C135.885 125.477 135.885 125.477 135.885 125.477C135.885 125.478 135.885 125.478 135.885 125.478C135.886 125.478 135.882 125.476 135.878 125.474C135.874 125.472 135.866 125.469 135.857 125.465L137.145 122.755C137.135 122.751 137.128 122.747 137.123 122.745C137.121 122.744 137.119 122.743 137.118 122.743C137.117 122.742 137.117 122.742 137.117 122.742C137.116 122.742 137.116 122.742 137.116 122.742C137.116 122.742 137.116 122.742 137.116 122.742C137.115 122.741 137.119 122.743 137.123 122.745C137.127 122.747 137.135 122.75 137.144 122.755L135.856 125.464ZM135.879 125.475C135.938 125.502 135.997 125.528 136.056 125.553L137.241 122.797C137.202 122.78 137.162 122.763 137.123 122.745L135.879 125.475ZM136.056 125.553C139.292 126.945 143.002 126.306 146.29 124.638C149.599 122.958 152.691 120.142 154.852 116.778L152.328 115.157C150.439 118.097 147.741 120.537 144.932 121.962C142.103 123.398 139.367 123.711 137.241 122.797L136.056 125.553ZM154.852 116.778C156.717 113.874 157.935 110.49 157.935 107H154.935C154.935 109.795 153.954 112.625 152.328 115.157L154.852 116.778ZM157.935 107C157.935 105.828 157.86 104.076 157.746 102.069L154.751 102.239C154.865 104.241 154.935 105.92 154.935 107H157.935ZM157.746 102.069C157.534 98.3286 157.178 93.5961 156.876 89.8059C156.725 87.9092 156.587 86.2455 156.487 85.056C156.437 84.4612 156.397 83.9848 156.369 83.657C156.354 83.4931 156.344 83.3664 156.336 83.2805C156.332 83.2376 156.33 83.2048 156.328 83.1828C156.327 83.1718 156.326 83.1635 156.326 83.1579C156.325 83.1551 156.325 83.153 156.325 83.1516C156.325 83.1508 156.325 83.1503 156.325 83.1499C156.325 83.1497 156.325 83.1496 156.325 83.1495C156.325 83.1494 156.325 83.1494 154.83 83.2795C153.336 83.4097 153.336 83.4097 153.336 83.4098C153.336 83.4099 153.336 83.41 153.336 83.4101C153.336 83.4105 153.336 83.411 153.336 83.4117C153.336 83.413 153.337 83.415 153.337 83.4178C153.337 83.4232 153.338 83.4314 153.339 83.4422C153.341 83.4639 153.344 83.4963 153.347 83.5389C153.355 83.6241 153.366 83.7502 153.38 83.9133C153.408 84.2397 153.448 84.7144 153.498 85.3075C153.598 86.4937 153.735 88.1527 153.886 90.044C154.187 93.8298 154.541 98.5343 154.751 102.239L157.746 102.069Z" fill="#181B0E"/>
<path d="M269.241 155.178L292.387 190.788C292.84 191.485 293.897 191.357 294.17 190.571L308.615 148.988C308.961 147.992 307.729 147.208 306.973 147.943L292.469 162.044C292.184 162.321 291.762 162.403 291.394 162.253L270.457 153.707C269.55 153.337 268.707 154.356 269.241 155.178Z" fill="#FCD569"/>
<path d="M291.425 160.182C293.99 157.544 296.469 154.887 299.069 152.352C301.616 149.868 304.267 147.488 306.912 145.106C307.686 144.456 308.508 143.864 309.371 143.335C309.715 143.109 310.1 142.95 310.504 142.866C311.457 142.673 312.105 143.388 311.88 144.332C311.854 144.441 311.817 144.547 311.782 144.654C308.983 153.317 306.228 161.995 303.37 170.638C301.231 177.11 298.971 183.543 296.736 189.983C296.283 191.29 295.743 192.571 295.165 193.828C294.503 195.267 293.229 195.421 292.272 194.158C291.208 192.754 290.235 191.28 289.229 189.833C284.818 183.487 280.352 177.178 276.023 170.778C273.925 167.676 272.1 164.392 270.124 161.207C268.957 159.328 267.685 157.512 266.562 155.608C266.001 154.596 265.536 153.533 265.175 152.434C264.9 151.665 265.196 151.278 265.972 150.981C267.652 150.337 269.303 150.543 270.903 151.214C275.534 153.157 280.3 154.771 284.788 157.06C286.957 158.164 289.193 159.137 291.425 160.182ZM293.512 190.779C298.98 176.285 303.669 161.715 308.536 147.195C308.203 147.374 307.897 147.6 307.627 147.866C304.527 151.022 301.403 154.156 298.348 157.355C296.614 159.17 295.001 161.102 293.318 162.966C292.631 163.727 291.759 163.895 291.02 163.286C289.947 162.401 288.681 161.948 287.432 161.452C281.718 159.18 275.999 156.92 270.276 154.672C270.162 154.635 270.044 154.61 269.926 154.597C276.981 167.076 284.958 178.997 293.512 190.778L293.512 190.779Z" fill="#181B0E"/>
</svg>
