<svg width="298" height="359" viewBox="0 0 298 359" fill="none" xmlns="http://www.w3.org/2000/svg">
<path d="M57.8118 168.594C21.1442 149.61 12.6041 71.6448 12.6041 71.6448C12.6041 71.6448 18.0194 145.359 51.4057 170.536C68.9939 183.8 96.9173 182.479 114.648 179.835C120.149 179.193 125.674 178.069 131.24 176.479C129.472 211.874 153.542 249.163 185.83 265.052C203.723 273.858 226.078 270.408 239.73 266.833C247.551 265.077 252.17 262.842 252.17 262.842C252.17 262.842 247.281 264.856 239.73 266.833C224.633 270.222 197.603 271.821 168.819 252.094C137.53 230.649 131.24 176.479 131.24 176.479C137.75 174.62 144.317 172.125 150.973 169.022C151.397 168.824 151.818 168.604 152.233 168.366C154.929 167.108 157.155 164.922 158.788 162.337C162.712 156.898 164.14 149.837 159.672 145.119C159.471 144.907 159.265 144.707 159.054 144.52C159.015 144.485 158.976 144.451 158.937 144.418C158.937 144.418 158.937 144.418 158.937 144.418C154.353 140.482 147.521 142.173 142.441 145.474C140.38 146.739 138.602 148.303 137.403 150.002C137.403 150.002 137.403 150.003 137.403 150.003C133.674 155.286 131.24 176.479 131.24 176.479C131.579 169.703 133.609 158.992 135.965 152.518C136.26 151.707 136.753 150.855 137.403 150.002C138.62 148.407 140.387 146.809 142.441 145.474C147.727 142.23 154.879 140.954 158.937 144.418C158.976 144.451 159.015 144.485 159.054 144.52C163.176 148.198 162.577 156.341 158.788 162.337C157.01 164.803 154.72 166.935 152.233 168.366C151.267 168.816 149.766 169.44 148.001 170.145L131.24 176.479C131.24 176.479 133.674 155.286 137.403 150.003C137.403 150.003 137.403 150.002 137.403 150.002C136.753 150.855 136.26 151.707 135.965 152.518C133.609 158.992 131.579 169.703 131.24 176.479C131.24 176.479 124.526 178.362 114.648 179.835C95.6982 182.047 77.0159 178.536 57.8118 168.594Z" fill="#181B0E"/>
<path d="M12.6041 71.6448L11.188 71.7489L14.0156 71.4902L12.6041 71.6448ZM57.8118 168.594L58.4647 167.333L57.8118 168.594ZM159.672 145.119L158.641 146.095L158.641 146.095L159.672 145.119ZM137.403 150.002L138.532 150.863L138.532 150.863L137.403 150.002ZM135.965 152.518L134.631 152.033L134.631 152.033L135.965 152.518ZM185.83 265.052L186.457 263.778L185.83 265.052ZM252.17 262.842L251.629 261.529L252.788 264.12L252.17 262.842ZM51.4057 170.536L52.2607 169.403L51.4057 170.536ZM168.819 252.094L168.017 253.265L168.819 252.094ZM137.403 150.003L136.243 149.184L136.461 148.875L136.803 148.716L137.403 150.003ZM158.937 144.418L159.819 143.305L159.839 143.321L159.859 143.338L158.937 144.418ZM12.6041 71.6448C14.0156 71.4902 14.0156 71.4902 14.0157 71.4905C14.0157 71.491 14.0158 71.4916 14.0159 71.4926C14.0161 71.4945 14.0165 71.4977 14.0169 71.502C14.0179 71.5106 14.0194 71.5239 14.0214 71.5419C14.0255 71.5778 14.0317 71.6322 14.0401 71.7045C14.057 71.8492 14.0828 72.0658 14.1181 72.35C14.1887 72.9185 14.2974 73.7577 14.4488 74.8342C14.7517 76.9872 15.2257 80.0886 15.9088 83.8712C17.2755 91.4394 19.4769 101.72 22.8149 112.583C26.155 123.453 30.62 134.862 36.4982 144.709C42.383 154.567 49.6221 162.755 58.4647 167.333L57.159 169.855C47.6677 164.941 40.089 156.265 34.0597 146.165C28.0239 136.054 23.4787 124.412 20.1003 113.418C16.7198 102.416 14.4944 92.0195 13.1141 84.3759C12.4236 80.5526 11.9439 77.4146 11.6366 75.2298C11.4829 74.1373 11.3722 73.2829 11.2998 72.7001C11.2636 72.4086 11.237 72.1851 11.2193 72.0336C11.2105 71.9579 11.2039 71.9001 11.1995 71.8609C11.1972 71.8413 11.1956 71.8263 11.1944 71.8161C11.1939 71.8109 11.1934 71.807 11.1931 71.8042C11.193 71.8028 11.1928 71.8016 11.1927 71.8009C11.1926 71.8 11.1926 71.7994 12.6041 71.6448ZM150.373 167.735C150.759 167.555 151.143 167.354 151.525 167.135L152.941 169.596C152.492 169.855 152.036 170.093 151.573 170.309L150.373 167.735ZM151.525 167.135C153.819 165.815 155.963 163.827 157.637 161.507L159.94 163.168C158.057 165.779 155.62 168.055 152.941 169.596L151.525 167.135ZM157.637 161.507C161.415 156.268 162.394 150.059 158.641 146.095L160.704 144.143C165.885 149.615 164.008 157.527 159.94 163.168L157.637 161.507ZM158.641 146.095C158.468 145.913 158.291 145.742 158.111 145.582L159.996 143.457C160.239 143.673 160.474 143.901 160.704 144.143L158.641 146.095ZM158.111 145.582C158.078 145.553 158.045 145.524 158.012 145.495L159.862 143.34C159.907 143.379 159.951 143.418 159.996 143.457L158.111 145.582ZM158.012 145.495C156.094 143.849 153.67 143.333 151.041 143.642C148.393 143.954 145.62 145.101 143.214 146.665L141.667 144.283C144.341 142.545 147.525 141.197 150.709 140.822C153.911 140.445 157.195 141.051 159.862 143.34L158.012 145.495ZM143.214 146.665C141.272 147.927 139.634 149.419 138.532 150.863L136.274 149.142C137.606 147.394 139.502 145.691 141.667 144.283L143.214 146.665ZM138.532 150.863C137.944 151.635 137.533 152.362 137.299 153.004L134.631 152.033C134.987 151.053 135.562 150.075 136.274 149.142L138.532 150.863ZM186.457 263.778C203.859 272.343 225.77 269.02 239.371 265.459L240.09 268.207C226.386 271.795 203.588 275.374 185.203 266.326L186.457 263.778ZM239.371 265.459C243.105 264.482 246.179 263.495 248.316 262.754C249.385 262.384 250.218 262.075 250.782 261.86C251.064 261.753 251.278 261.669 251.421 261.612C251.492 261.584 251.545 261.562 251.58 261.548C251.598 261.541 251.61 261.536 251.618 261.533C251.622 261.531 251.625 261.53 251.627 261.529C251.628 261.529 251.628 261.529 251.629 261.529C251.629 261.529 251.629 261.529 251.629 261.529C251.629 261.529 251.629 261.529 251.629 261.529C251.629 261.529 251.629 261.529 252.17 262.842C252.711 264.154 252.711 264.154 252.71 264.155C252.71 264.155 252.71 264.155 252.71 264.155C252.71 264.155 252.709 264.155 252.709 264.155C252.708 264.156 252.707 264.156 252.705 264.157C252.702 264.158 252.698 264.16 252.692 264.162C252.681 264.166 252.666 264.173 252.646 264.181C252.605 264.197 252.546 264.221 252.469 264.252C252.315 264.313 252.088 264.402 251.794 264.514C251.205 264.739 250.344 265.057 249.247 265.438C247.052 266.198 243.906 267.208 240.09 268.207L239.371 265.459ZM12.6041 71.6448C14.0203 71.5408 14.0203 71.5408 14.0203 71.541C14.0203 71.5415 14.0204 71.5421 14.0204 71.543C14.0206 71.5448 14.0208 71.5478 14.0211 71.5519C14.0217 71.56 14.0227 71.5726 14.024 71.5895C14.0266 71.6235 14.0306 71.6749 14.0361 71.7434C14.0471 71.8803 14.064 72.0854 14.0876 72.355C14.1348 72.8941 14.2086 73.6908 14.3145 74.7155C14.5262 76.765 14.866 79.7252 15.378 83.3579C16.4022 90.6256 18.1134 100.573 20.8606 111.297C23.609 122.025 27.3857 133.498 32.5293 143.83C37.6779 154.173 44.1545 163.29 52.2607 169.403L50.5507 171.67C41.9637 165.195 35.2436 155.656 29.9869 145.096C24.7252 134.526 20.8882 122.849 18.1095 112.001C15.3295 101.15 13.6003 91.0947 12.5658 83.7542C12.0484 80.0828 11.7044 77.0874 11.4895 75.0073C11.3821 73.9672 11.3069 73.1557 11.2585 72.6027C11.2343 72.3262 11.2168 72.1143 11.2053 71.9707C11.1995 71.899 11.1952 71.8443 11.1924 71.8071C11.1909 71.7886 11.1899 71.7744 11.1891 71.7647C11.1888 71.7598 11.1885 71.756 11.1883 71.7534C11.1882 71.7521 11.1881 71.7509 11.1881 71.7503C11.188 71.7494 11.188 71.7489 12.6041 71.6448ZM137.299 153.004C134.996 159.332 132.99 169.901 132.658 176.55L129.822 176.408C130.167 169.504 132.221 158.653 134.631 152.033L137.299 153.004ZM132.658 176.55C130.921 211.319 154.622 248.111 186.457 263.778L185.203 266.326C152.463 250.214 128.023 212.428 129.822 176.408L132.658 176.55ZM58.4647 167.333C77.439 177.156 95.8383 180.601 114.483 178.425L114.812 181.246C95.5581 183.493 76.5928 179.916 57.159 169.855L58.4647 167.333ZM114.483 178.425C119.904 177.792 125.353 176.684 130.85 175.114L131.63 177.845C125.995 179.454 120.395 180.594 114.812 181.246L114.483 178.425ZM130.85 175.114C137.28 173.278 143.777 170.81 150.373 167.735L151.573 170.309C144.858 173.44 138.22 175.963 131.63 177.845L130.85 175.114ZM52.2607 169.403C60.7577 175.811 71.8367 178.751 83.0971 179.737C94.3421 180.721 105.635 179.743 114.438 178.431L114.857 181.24C105.929 182.571 94.3959 183.576 82.8496 182.566C71.3187 181.557 59.6419 178.526 50.5507 171.67L52.2607 169.403ZM114.438 178.431C119.337 177.7 123.451 176.868 126.337 176.219C127.779 175.895 128.914 175.617 129.686 175.42C130.072 175.322 130.367 175.244 130.565 175.191C130.663 175.165 130.738 175.145 130.787 175.131C130.811 175.125 130.829 175.12 130.841 175.116C130.847 175.115 130.851 175.114 130.854 175.113C130.855 175.112 130.856 175.112 130.856 175.112C130.857 175.112 130.857 175.112 130.857 175.112C130.857 175.112 130.857 175.112 130.857 175.112C130.857 175.112 130.857 175.112 131.24 176.479C131.624 177.846 131.623 177.846 131.623 177.846C131.623 177.846 131.623 177.847 131.623 177.847C131.622 177.847 131.622 177.847 131.621 177.847C131.62 177.847 131.619 177.848 131.617 177.848C131.613 177.849 131.607 177.851 131.6 177.853C131.586 177.857 131.565 177.863 131.538 177.87C131.484 177.885 131.404 177.907 131.3 177.935C131.091 177.99 130.785 178.071 130.387 178.172C129.591 178.375 128.43 178.66 126.96 178.99C124.019 179.651 119.836 180.497 114.857 181.24L114.438 178.431ZM151.475 170.35L148.503 171.473L147.499 168.817L150.471 167.693L151.475 170.35ZM148.503 171.473L131.742 177.807L130.738 175.151L147.499 168.817L148.503 171.473ZM131.24 176.479C132.651 176.315 132.651 176.315 132.651 176.315C132.651 176.316 132.651 176.316 132.651 176.316C132.651 176.318 132.651 176.32 132.651 176.322C132.652 176.328 132.653 176.337 132.655 176.349C132.657 176.373 132.662 176.41 132.668 176.46C132.68 176.559 132.7 176.708 132.726 176.905C132.778 177.298 132.86 177.882 132.975 178.634C133.205 180.138 133.57 182.317 134.104 185.001C135.174 190.37 136.924 197.75 139.641 205.79C145.096 221.928 154.366 240.466 169.622 250.923L168.017 253.265C151.984 242.277 142.463 223.008 136.951 206.699C134.185 198.516 132.406 191.013 131.319 185.556C130.775 182.826 130.404 180.605 130.168 179.063C130.05 178.293 129.966 177.691 129.911 177.281C129.883 177.076 129.863 176.918 129.85 176.811C129.843 176.757 129.838 176.716 129.835 176.688C129.833 176.674 129.832 176.663 129.831 176.656C129.831 176.652 129.83 176.649 129.83 176.647C129.83 176.646 129.83 176.645 129.83 176.644C129.83 176.644 129.83 176.643 131.24 176.479ZM169.622 250.923C197.99 270.365 224.586 268.777 239.419 265.448L240.041 268.219C224.681 271.667 197.216 273.278 168.017 253.265L169.622 250.923ZM239.419 265.448C243.263 264.585 246.314 263.605 248.396 262.845C249.437 262.465 250.235 262.14 250.768 261.912C251.035 261.799 251.235 261.709 251.367 261.649C251.432 261.619 251.481 261.597 251.512 261.582C251.527 261.575 251.538 261.57 251.545 261.567C251.548 261.565 251.55 261.564 251.551 261.563C251.552 261.563 251.552 261.563 251.552 261.563C251.552 261.563 251.552 261.563 251.551 261.563C251.551 261.563 251.551 261.563 251.551 261.563C251.551 261.563 251.551 261.563 252.17 262.842C252.788 264.12 252.788 264.12 252.788 264.12C252.788 264.12 252.788 264.12 252.787 264.12C252.787 264.12 252.786 264.121 252.786 264.121C252.785 264.121 252.783 264.122 252.781 264.123C252.778 264.125 252.773 264.127 252.768 264.13C252.756 264.135 252.74 264.142 252.72 264.152C252.679 264.171 252.621 264.198 252.545 264.233C252.393 264.302 252.172 264.401 251.883 264.524C251.306 264.771 250.461 265.114 249.37 265.513C247.188 266.31 244.019 267.326 240.041 268.219L239.419 265.448ZM131.24 176.479C129.829 176.317 129.829 176.317 129.829 176.317C129.829 176.317 129.829 176.316 129.83 176.316C129.83 176.315 129.83 176.314 129.83 176.313C129.83 176.31 129.831 176.306 129.831 176.3C129.833 176.289 129.834 176.274 129.837 176.253C129.842 176.212 129.849 176.151 129.858 176.071C129.877 175.912 129.906 175.679 129.943 175.382C130.017 174.787 130.128 173.932 130.272 172.89C130.56 170.809 130.984 167.974 131.526 164.97C132.067 161.97 132.729 158.779 133.498 155.991C134.251 153.258 135.154 150.726 136.243 149.184L138.563 150.821C137.787 151.921 136.987 154.019 136.236 156.746C135.499 159.417 134.854 162.515 134.321 165.474C133.788 168.429 133.37 171.223 133.085 173.28C132.943 174.308 132.834 175.15 132.761 175.735C132.724 176.027 132.697 176.255 132.678 176.409C132.669 176.486 132.662 176.544 132.657 176.584C132.655 176.603 132.653 176.618 132.652 176.627C132.652 176.632 132.651 176.636 132.651 176.638C132.651 176.639 132.651 176.64 132.651 176.641C132.651 176.641 132.651 176.641 132.651 176.641C132.651 176.641 132.651 176.641 131.24 176.479ZM136.803 148.716C136.736 148.747 136.677 148.78 136.627 148.813C136.577 148.846 136.533 148.879 136.496 148.91C136.459 148.941 136.427 148.971 136.4 148.998C136.372 149.025 136.349 149.051 136.329 149.074C136.308 149.097 136.291 149.119 136.276 149.139C136.261 149.159 136.247 149.177 136.236 149.194C136.224 149.21 136.214 149.226 136.206 149.239C136.197 149.253 136.189 149.266 136.182 149.277C136.169 149.3 136.158 149.319 136.15 149.334C136.142 149.349 136.136 149.362 136.131 149.371C136.127 149.38 136.123 149.387 136.121 149.391C136.119 149.395 136.118 149.399 136.118 149.398C136.118 149.398 136.118 149.398 136.118 149.398C136.118 149.398 136.118 149.398 136.118 149.398C136.118 149.398 136.118 149.398 136.118 149.398C136.118 149.398 136.118 149.398 136.118 149.398C136.118 149.397 136.119 149.397 136.119 149.396C136.119 149.395 136.12 149.394 136.121 149.391C136.123 149.387 136.127 149.38 136.131 149.371C136.136 149.362 136.142 149.349 136.15 149.334C136.158 149.319 136.169 149.3 136.182 149.277C136.189 149.266 136.197 149.253 136.206 149.239C136.214 149.226 136.224 149.21 136.236 149.194C136.247 149.177 136.261 149.159 136.276 149.139C136.291 149.119 136.308 149.097 136.329 149.074C136.349 149.051 136.372 149.025 136.4 148.998C136.427 148.97 136.459 148.941 136.496 148.91C136.533 148.879 136.577 148.846 136.627 148.813C136.678 148.78 136.736 148.747 136.803 148.716L138.003 151.289C138.07 151.258 138.129 151.225 138.179 151.192C138.229 151.159 138.273 151.126 138.31 151.095C138.347 151.064 138.379 151.034 138.406 151.007C138.434 150.98 138.457 150.954 138.477 150.931C138.498 150.908 138.515 150.886 138.53 150.866C138.545 150.846 138.559 150.828 138.57 150.811C138.582 150.795 138.592 150.779 138.601 150.766C138.609 150.752 138.617 150.739 138.624 150.728C138.637 150.705 138.648 150.686 138.656 150.671C138.664 150.656 138.67 150.643 138.675 150.634C138.679 150.625 138.683 150.618 138.685 150.614C138.687 150.61 138.688 150.606 138.688 150.607C138.688 150.607 138.688 150.607 138.688 150.607C138.688 150.607 138.688 150.607 138.688 150.607C138.688 150.607 138.688 150.607 138.688 150.607C138.688 150.607 138.688 150.607 138.688 150.607C138.688 150.608 138.687 150.608 138.687 150.609C138.687 150.61 138.686 150.611 138.685 150.614C138.683 150.618 138.679 150.625 138.675 150.634C138.67 150.643 138.664 150.656 138.656 150.671C138.648 150.686 138.637 150.705 138.624 150.728C138.617 150.739 138.609 150.752 138.6 150.766C138.592 150.779 138.582 150.795 138.57 150.811C138.559 150.828 138.545 150.846 138.53 150.866C138.515 150.886 138.498 150.908 138.477 150.931C138.457 150.954 138.434 150.98 138.406 151.007C138.379 151.035 138.347 151.064 138.31 151.095C138.273 151.126 138.229 151.159 138.179 151.192C138.129 151.225 138.07 151.258 138.003 151.289L136.803 148.716ZM136.243 149.184C137.578 147.292 139.514 145.604 141.698 144.264L143.183 146.684C141.245 147.874 139.626 149.315 138.563 150.821L136.243 149.184ZM141.698 144.264C144.498 142.545 147.812 141.333 151.01 141.017C154.197 140.703 157.437 141.27 159.858 143.337L158.015 145.498C156.379 144.102 154.014 143.575 151.289 143.844C148.575 144.111 145.669 145.159 143.183 146.684L141.698 144.264ZM159.819 143.305C159.828 143.312 159.836 143.319 159.842 143.324C159.849 143.329 159.854 143.333 159.858 143.337C159.861 143.34 159.864 143.343 159.866 143.344C159.867 143.345 159.868 143.346 159.868 143.346C159.869 143.346 159.869 143.346 159.869 143.346C159.869 143.346 159.869 143.346 159.869 143.346C159.869 143.346 159.869 143.346 159.869 143.347C159.869 143.347 159.869 143.347 159.869 143.347C159.869 143.347 159.868 143.346 159.866 143.344C159.864 143.343 159.861 143.34 159.858 143.337C159.854 143.334 159.849 143.329 159.843 143.324C159.836 143.319 159.829 143.313 159.819 143.305L158.054 145.53C158.045 145.523 158.037 145.516 158.031 145.511C158.025 145.506 158.02 145.502 158.016 145.498C158.012 145.495 158.009 145.493 158.007 145.491C158.006 145.49 158.006 145.49 158.005 145.489C158.005 145.489 158.005 145.489 158.005 145.489C158.005 145.489 158.004 145.489 158.004 145.489C158.004 145.489 158.004 145.489 158.004 145.489C158.004 145.489 158.004 145.489 158.004 145.489C158.004 145.489 158.004 145.489 158.004 145.489C158.004 145.488 158.006 145.49 158.007 145.491C158.009 145.493 158.012 145.495 158.016 145.498C158.02 145.502 158.025 145.506 158.031 145.511C158.037 145.516 158.045 145.523 158.054 145.53L159.819 143.305ZM159.859 143.338C159.906 143.378 159.953 143.419 159.999 143.46L158.108 145.579C158.077 145.552 158.046 145.524 158.015 145.498L159.859 143.338ZM159.999 143.46C162.487 145.68 163.423 149.118 163.307 152.606C163.19 156.117 162.01 159.896 159.989 163.096L157.588 161.579C159.355 158.782 160.369 155.491 160.468 152.512C160.568 149.51 159.743 147.038 158.108 145.579L159.999 143.46ZM159.989 163.096C158.244 165.858 155.827 168.256 152.833 169.652L151.633 167.079C154.031 165.96 156.066 163.987 157.588 161.579L159.989 163.096ZM152.833 169.652C151.828 170.121 150.294 170.758 148.527 171.464L147.474 168.826C149.238 168.122 150.707 167.511 151.633 167.079L152.833 169.652ZM148.527 171.464C145.233 172.778 141.031 174.366 137.658 175.623C135.97 176.253 134.488 176.8 133.427 177.19C132.897 177.385 132.472 177.541 132.179 177.648C132.033 177.701 131.92 177.743 131.843 177.771C131.805 177.785 131.776 177.795 131.756 177.802C131.746 177.806 131.739 177.809 131.734 177.811C131.731 177.811 131.729 177.812 131.728 177.813C131.728 177.813 131.727 177.813 131.727 177.813C131.727 177.813 131.726 177.813 131.726 177.813C131.726 177.813 131.726 177.813 131.24 176.479C130.754 175.145 130.754 175.145 130.754 175.145C130.754 175.145 130.754 175.145 130.754 175.145C130.755 175.145 130.755 175.145 130.756 175.144C130.757 175.144 130.759 175.143 130.761 175.142C130.766 175.141 130.773 175.138 130.783 175.134C130.802 175.127 130.831 175.117 130.869 175.103C130.945 175.075 131.058 175.034 131.203 174.981C131.495 174.874 131.918 174.719 132.447 174.525C133.504 174.136 134.983 173.59 136.666 172.962C140.034 171.707 144.212 170.128 147.474 168.826L148.527 171.464Z" fill="#181B0E"/>
<path d="M238.698 245.873L278.51 251.486C279.289 251.595 279.602 252.554 279.037 253.102L249.14 282.131C248.424 282.826 247.258 282.083 247.586 281.14L253.882 263.056C254.005 262.7 253.907 262.305 253.631 262.05L237.922 247.505C237.242 246.875 237.779 245.744 238.698 245.873Z" fill="#FCD569"/>
<path d="M251.866 262.905C250.629 266.16 249.341 269.351 248.207 272.595C247.094 275.774 246.113 279.001 245.127 282.223C244.879 283.148 244.701 284.09 244.592 285.041C244.536 285.427 244.553 285.821 244.643 286.201C244.859 287.096 245.731 287.366 246.451 286.795C246.535 286.73 246.611 286.655 246.688 286.582C253.001 280.715 259.344 274.88 265.616 268.97C270.313 264.545 274.928 260.033 279.559 255.539C280.499 254.627 281.382 253.651 282.229 252.653C283.199 251.509 282.821 250.354 281.355 250.039C279.725 249.687 278.071 249.443 276.427 249.158C269.218 247.912 262.018 246.604 254.795 245.451C251.295 244.892 247.747 244.64 244.224 244.219C242.145 243.97 240.078 243.605 237.995 243.403C236.902 243.327 235.805 243.353 234.717 243.483C233.947 243.555 233.733 243.963 233.789 244.748C233.909 246.448 234.746 247.781 235.962 248.886C239.481 252.081 242.773 255.524 246.532 258.46C248.348 259.878 250.076 261.407 251.866 262.905ZM278.952 252.454C268.705 262.944 258.08 272.796 247.57 282.781C247.59 282.423 247.662 282.07 247.782 281.733C249.249 277.81 250.689 273.876 252.211 269.975C253.074 267.761 254.086 265.605 255.012 263.415C255.39 262.521 255.185 261.705 254.367 261.315C253.179 260.748 252.284 259.844 251.358 258.971C247.123 254.977 242.896 250.975 238.678 246.964C238.6 246.881 238.532 246.79 238.473 246.694C252.003 247.755 265.421 249.829 278.951 252.454L278.952 252.454Z" fill="#181B0E"/>
</svg>
