<svg width="32" height="24" viewBox="0 0 32 24" fill="none" xmlns="http://www.w3.org/2000/svg">
<path d="M30.4004 0H1.60039C1.28213 0 0.976906 0.126428 0.751862 0.351472C0.526819 0.576516 0.400391 0.88174 0.400391 1.2V21.6C0.400391 22.2365 0.653247 22.847 1.10333 23.2971C1.55342 23.7471 2.16387 24 2.80039 24H29.2004C29.8369 24 30.4474 23.7471 30.8974 23.2971C31.3475 22.847 31.6004 22.2365 31.6004 21.6V1.2C31.6004 0.88174 31.474 0.576516 31.2489 0.351472C31.0239 0.126428 30.7187 0 30.4004 0ZM16.0004 12.7725L4.68589 2.4H27.3149L16.0004 12.7725ZM11.6069 12L2.80039 20.0715V3.9285L11.6069 12ZM13.3829 13.6275L15.1829 15.285C15.4043 15.4882 15.6939 15.601 15.9944 15.601C16.2949 15.601 16.5845 15.4882 16.8059 15.285L18.6059 13.6275L27.3059 21.6H4.68589L13.3829 13.6275ZM20.3939 12L29.2004 3.927V20.073L20.3939 12Z" fill="#F4F7EA"/>
</svg>
