<svg width="28" height="28" viewBox="0 0 28 28" fill="none" xmlns="http://www.w3.org/2000/svg">
<path d="M26.6521 18.8243L20.0566 15.8689L20.0384 15.8605C19.696 15.714 19.3225 15.6553 18.9517 15.6895C18.5808 15.7237 18.2244 15.8498 17.9146 16.0565C17.8781 16.0806 17.843 16.1067 17.8096 16.1349L14.4019 19.0399C12.2431 17.9913 10.0143 15.7793 8.9657 13.6484L11.8749 10.189C11.9029 10.154 11.9295 10.119 11.9547 10.0812C12.1569 9.77223 12.2796 9.41806 12.3119 9.05021C12.3441 8.68236 12.2849 8.31224 12.1395 7.97279V7.95599L9.1757 1.34933C8.98353 0.905896 8.65311 0.536503 8.23375 0.296293C7.8144 0.0560839 7.3286 -0.0420584 6.84888 0.0165169C4.95182 0.266149 3.21049 1.1978 1.95014 2.63748C0.689781 4.07715 -0.00341734 5.92638 1.26682e-05 7.83979C1.26682e-05 18.9559 9.0441 28 20.1602 28C22.0736 28.0034 23.9228 27.3102 25.3625 26.0499C26.8022 24.7895 27.7339 23.0482 27.9835 21.1511C28.0422 20.6716 27.9442 20.1859 27.7043 19.7666C27.4643 19.3472 27.0952 19.0167 26.6521 18.8243ZM20.1602 25.76C15.4091 25.7548 10.854 23.8651 7.49446 20.5055C4.1349 17.146 2.24522 12.5909 2.24003 7.83979C2.23477 6.47266 2.72731 5.15036 3.62568 4.11983C4.52405 3.08929 5.76681 2.42099 7.12188 2.23974C7.12133 2.24532 7.12133 2.25095 7.12188 2.25654L10.0619 8.8366L7.16808 12.3002C7.13871 12.334 7.11203 12.3701 7.08828 12.408C6.8776 12.7313 6.75401 13.1036 6.72948 13.4887C6.70495 13.8737 6.78032 14.2587 6.94828 14.6061C8.21669 17.2003 10.8305 19.7945 13.4527 21.0615C13.8027 21.2279 14.1898 21.3007 14.5763 21.2727C14.9628 21.2447 15.3354 21.117 15.6578 20.9019C15.6937 20.8777 15.7283 20.8515 15.7614 20.8235L19.1648 17.9199L25.7449 20.8669C25.7449 20.8669 25.7561 20.8669 25.7603 20.8669C25.5812 22.2239 24.9139 23.4692 23.8832 24.3698C22.8525 25.2704 21.5289 25.7646 20.1602 25.76Z" fill="#F4F7EA"/>
</svg>
