<svg width="313" height="60" viewBox="0 0 313 60" fill="none" xmlns="http://www.w3.org/2000/svg">
<path d="M227.531 53.5463C222.391 53.9463 215.821 50.8263 209.501 46.8163C204.591 43.6963 199.671 40.6263 193.741 39.6663C184.971 38.2463 177.891 41.2463 172.001 47.6163C170.341 49.4163 168.741 51.2963 166.951 52.9563C163.771 55.9063 160.031 56.7363 155.831 55.5363C150.071 53.8963 146.031 49.7963 141.861 45.8863C138.221 42.4763 135.021 38.5963 130.831 35.7763C119.191 27.9663 106.471 30.8463 99.3608 42.9363C98.0708 45.1263 96.9108 47.4063 95.4708 49.4963C91.1108 55.8563 84.8408 56.6763 78.8808 51.7363C75.9808 49.3363 73.7608 46.3463 71.5008 43.3763C67.1608 37.6663 61.9908 33.1563 54.7908 31.4263C46.8808 29.5263 40.9208 31.8363 36.3908 38.5463C33.4008 42.9663 30.8508 47.7263 26.0908 50.6963C19.3708 54.8763 7.23078 53.4363 1.76078 47.6763C1.39078 47.2863 1.02079 46.8563 0.770791 46.3863C0.370791 45.6063 -0.389208 44.6863 0.240792 43.8863C0.980792 42.9463 1.91077 43.8563 2.69077 44.1663C6.54077 45.6663 10.5208 46.5363 14.6408 46.6063C19.0908 46.6863 22.8008 45.0563 25.4208 41.3163C26.6208 39.6063 27.9208 37.9463 28.9108 36.1163C36.5508 22.0963 50.1208 20.9663 61.4508 25.2763C68.1508 27.8263 73.0608 32.5963 77.5008 37.9663C79.4108 40.2763 81.1608 42.7163 83.4008 44.7363C86.1008 47.1863 87.2808 47.0663 89.1708 44.0163C90.7408 41.4663 92.0408 38.7363 93.7108 36.2663C103.811 21.3463 123.371 18.6463 137.961 30.0263C142.491 33.5563 146.251 37.9063 150.601 41.6263C151.151 42.0963 151.661 42.6263 152.211 43.0963C157.931 47.9363 159.521 47.8363 164.421 42.3663C175.661 29.8263 191.011 26.7563 206.201 34.1063C209.221 35.5663 212.291 37.0563 214.991 39.0063C222.331 44.2963 230.541 44.5963 239.001 43.5763C246.301 42.6963 253.561 41.4663 260.951 41.6063C261.901 41.6263 263.201 41.2363 263.571 42.4663C263.991 43.9063 262.561 44.2263 261.641 44.6663C251.651 49.3863 241.411 53.2563 227.521 53.5363L227.531 53.5463Z" fill="#181B0E"/>
<path d="M261.317 24.2811L262.396 28.5977L267.252 26.979L272.108 22.6623C273.367 21.0436 275.885 17.6982 275.885 17.2665C275.885 16.8349 278.044 14.5686 279.123 13.4895C279.482 11.8707 280.202 8.52535 280.202 8.09368C280.202 7.66202 278.763 5.03607 278.044 3.77705L274.267 2.69789L266.712 3.77705C265.993 4.31663 264.446 5.5037 264.015 5.93537C263.475 6.47495 262.396 8.09368 262.396 8.63326C262.396 9.17284 261.317 11.8707 261.317 12.4103V17.8061V24.2811Z" fill="#FCD569"/>
<path d="M284.186 23.4488L282.723 27.6508L287.672 28.9584L294.1 28.0093C296.04 27.3453 299.98 25.9271 300.217 25.5661C300.453 25.205 303.5 24.4923 304.995 24.1811C306.183 23.0243 308.618 20.6204 308.854 20.2593C309.091 19.8983 309.327 16.9132 309.415 15.4658L306.847 12.4931L299.937 9.25567C299.04 9.3127 297.095 9.45788 296.498 9.58236C295.751 9.73796 293.961 10.5005 293.665 10.9518C293.369 11.4031 290.988 13.0683 290.692 13.5196L287.735 18.0329L284.186 23.4488Z" fill="#FCD569"/>
<path d="M281.643 40.6667L277.811 42.928L280.743 47.124L286.261 50.5533C288.171 51.3004 292.094 52.7639 292.508 52.6412C292.922 52.5185 295.708 53.9439 297.05 54.6718C298.704 54.5567 302.116 54.2958 302.53 54.1731C302.943 54.0504 305.052 51.9246 306.055 50.8771L306.016 46.9491L302.835 40.0131C302.113 39.4766 300.535 38.331 299.999 38.0398C299.328 37.6758 297.469 37.1011 296.952 37.2545C296.435 37.4078 293.541 37.1399 293.024 37.2932L287.851 38.8266L281.643 40.6667Z" fill="#FCD569"/>
<path fill-rule="evenodd" clip-rule="evenodd" d="M268.885 0.673507C259.493 3.59837 255.003 15.0507 257.845 28.7277C258.751 33.0533 262.335 33.1769 266.702 30.4581C271.316 27.5329 276.754 21.3948 280.75 13.5265C285.034 4.99902 278.319 -2.29259 268.885 0.673507ZM273.293 4.46346C277.948 7.22356 276.754 11.9611 268.968 21.0652L264.436 26.3796L264.313 22.3836C263.942 9.73649 268.103 1.3738 273.293 4.46346ZM295.621 8.33587C289.236 11.3019 279.473 23.9901 279.473 29.3457C279.473 32.8473 281.986 32.7237 294.344 28.6041C304.108 25.3497 308.804 23.4957 310.905 20.9004C317.867 12.373 306.085 3.47477 295.621 8.33587ZM305.261 12.2083C307.445 15.5451 302.089 22.4248 295.704 24.5257C290.472 26.256 286.888 27.2033 287.259 26.668C287.465 26.4208 288.742 24.7317 290.101 22.9192C296.527 14.3916 303.49 9.48936 305.261 12.2083ZM280.873 37.7494C271.851 39.3149 268.597 45.4942 279.431 49.2018C281.326 49.861 285.405 51.7558 288.494 53.4038C297.516 58.3059 302.007 58.3883 305.797 53.7746C308.721 50.2318 307.98 44.5466 305.179 40.3449C298.299 30.0049 285.734 36.8845 280.873 37.7494ZM301.718 41.9926C304.067 43.1874 303.984 45.9062 301.512 48.6662C298.175 52.3738 295.374 52.1678 287.423 47.5954L281.656 44.2997C282.562 44.1349 285.817 43.5993 291.255 42.3222C296.239 41.0862 299.741 41.0038 301.718 41.9926Z" fill="#181B0E"/>
</svg>
