<svg width="175" height="50" viewBox="0 0 175 50" fill="none" xmlns="http://www.w3.org/2000/svg">
<path d="M164.435 17.6634C159.6 19.688 155.09 21.6794 151.036 24.4433C149.578 25.4301 148.217 26.6023 146.88 27.7656C146.245 28.3219 145.682 29.0724 146.223 29.9244C146.652 30.624 147.454 30.668 148.218 30.5333C150.186 30.1623 152.244 30.034 154.077 29.2988C159.921 26.9695 165.727 24.4614 171.269 21.47C172.955 20.5671 174.67 19.5163 174.457 17.2826C174.251 15.2939 172.499 14.7357 170.93 14.1399C164.366 11.6664 158.528 7.97223 152.978 3.8454C152.313 3.34002 151.648 2.83466 150.942 2.37123C150.058 1.80629 149.086 1.08022 148.139 2.15966C147.29 3.1221 147.827 4.11308 148.436 4.99589C149.514 6.53639 150.78 7.9003 152.291 9.09422C153.17 9.79822 154.212 10.3345 154.837 11.7889C147.253 10.7237 139.926 9.59449 132.502 9.18701C117.738 8.36985 102.99 8.12436 88.3874 10.9888C83 12.0555 77.642 13.2767 72.8437 16.0032C70.297 17.4602 69.2456 15.6902 67.9036 14.2711C58.6764 4.63549 47.4607 -0.607531 33.865 0.0562098C20.7449 0.715482 10.4884 7.03592 2.19471 16.6713C1.01408 18.0267 -1.12646 20.2739 0.725051 21.7039C2.49989 23.0788 3.79029 20.2822 5.00704 19.0239C21.2596 2.09935 45.7777 1.58663 62.443 17.7834C64.4593 19.7321 64.7147 21.0984 62.5086 23.0939C58.6576 26.5553 56.2746 30.8684 55.8533 36.0775C55.5642 39.7547 56.5577 43.0301 58.942 45.8926C61.6284 49.1148 65.1662 50.5491 69.3274 49.8092C73.3556 49.0892 75.7078 46.3542 76.8986 42.6857C78.6814 37.2116 77.7298 31.8592 75.7547 26.6239C74.1769 22.4569 74.3346 22.1258 78.4863 20.4545C89.2172 16.1646 100.522 15.0796 111.961 14.8818C123.474 14.6575 134.933 15.4972 146.399 16.2794C151.041 16.6055 155.667 16.6623 160.311 16.4654C161.636 16.4056 163.09 16.1627 164.477 17.7031L164.435 17.6634ZM70.3434 29.5138C71.2446 33.0695 72.4164 36.7488 71.2302 40.5806C70.2195 43.8276 67.1179 44.5475 64.664 42.1772C63.3085 40.8729 62.8613 39.2175 62.8356 37.4121C62.7912 34.0461 64.4175 31.3222 66.3731 28.7285C66.9205 28.0111 67.425 26.9516 68.4644 27.1037C69.6209 27.2691 69.8807 28.4963 70.3524 29.5381L70.3434 29.5138Z" fill="#181B0E"/>
</svg>
