<svg width="170" height="50" viewBox="0 0 170 50" fill="none" xmlns="http://www.w3.org/2000/svg">
<path d="M160.22 34.3376C155.553 32.2153 151.202 30.1331 147.312 27.2916C145.912 26.2768 144.612 25.0796 143.335 23.8917C142.729 23.3237 142.196 22.5639 142.743 21.7272C143.177 21.0398 143.96 21.0135 144.702 21.1644C146.612 21.5771 148.615 21.7499 150.385 22.5222C156.029 24.9701 161.632 27.5952 166.967 30.696C168.591 31.6322 170.239 32.7163 169.981 34.9363C169.736 36.9125 168.016 37.4301 166.473 37.9891C160.02 40.3089 154.246 43.8604 148.744 47.8491C148.084 48.3379 147.424 48.8266 146.726 49.2727C145.852 49.816 144.888 50.5179 143.99 49.4221C143.183 48.4449 143.729 47.4697 144.343 46.6038C145.428 45.0931 146.692 43.7624 148.191 42.6063C149.065 41.9244 150.092 41.4132 150.734 39.9782C143.318 40.8731 136.15 41.8373 128.905 42.0806C114.495 42.5712 100.114 42.4927 85.9452 39.3201C80.7178 38.1397 75.5225 36.8061 70.9065 33.9855C68.4567 32.4786 67.3923 34.2185 66.0524 35.6025C56.8428 44.9972 45.7932 49.9735 32.5558 49.0148C19.782 48.0709 9.92606 41.5513 2.05755 31.773C0.937075 30.3973 -1.09911 28.1123 0.737623 26.7285C2.49838 25.398 3.6936 28.2117 4.85145 29.4915C20.3147 46.7038 44.2018 47.7514 60.8084 31.9847C62.8174 30.088 63.0969 28.7329 60.9912 26.697C57.3149 23.1653 55.0886 18.8173 54.7945 13.62C54.595 9.95125 55.6367 6.71082 58.0247 3.91208C60.7154 0.761669 64.1959 -0.589379 68.2354 0.238657C72.1457 1.04398 74.3773 3.81948 75.4559 7.4993C77.0712 12.9904 76.0238 18.3004 73.9815 23.4713C72.3503 27.587 72.4966 27.9202 76.5061 29.6757C86.8699 34.1833 97.865 35.5115 109.01 35.959C120.227 36.4344 131.416 35.8491 142.609 35.3211C147.141 35.0979 151.652 35.1426 156.174 35.4405C157.465 35.529 158.876 35.8029 160.263 34.299L160.22 34.3376ZM68.7716 20.4746C69.7296 16.9529 70.9541 13.3141 69.8836 9.47173C68.9711 6.21575 65.964 5.43083 63.5191 7.73781C62.1686 9.00718 61.6957 10.6461 61.6303 12.4437C61.5117 15.7952 63.036 18.5437 64.884 21.1698C65.4016 21.8963 65.8697 22.9626 66.8861 22.8338C68.0172 22.6944 68.2979 21.4778 68.7809 20.4506L68.7716 20.4746Z" fill="#181B0E"/>
</svg>
