<svg width="187" height="61" viewBox="0 0 187 61" fill="none" xmlns="http://www.w3.org/2000/svg">
<rect x="0.655731" width="186" height="60.0317" rx="10" fill="black"/>
<path d="M72.9152 43.797L71.2152 39.4287H64.2828L62.6269 43.797H60.3087L66.5347 28.1551H69.0295L75.2555 43.797H72.9152ZM67.7269 30.4055L65.0555 37.4211H70.4425L67.7269 30.4055ZM79.1937 47.9887H77.1405V33.1852H79.1496V34.8399C79.4586 34.281 79.9223 33.825 80.5405 33.472C81.1586 33.1191 81.8799 32.9426 82.7041 32.9426C84.2348 32.9426 85.427 33.4647 86.2807 34.509C87.1491 35.5532 87.5833 36.8769 87.5833 38.4801C87.5833 40.0979 87.1344 41.4364 86.2366 42.4953C85.3534 43.5543 84.1539 44.0838 82.6379 44.0838C81.8578 44.0838 81.166 43.922 80.5625 43.5984C79.9591 43.2748 79.5028 42.863 79.1937 42.363V47.9887ZM85.4638 38.4801C85.4638 37.4064 85.1768 36.5239 84.6028 35.8327C84.0435 35.1267 83.2855 34.7737 82.3288 34.7737C81.3868 34.7737 80.6214 35.1267 80.0327 35.8327C79.4587 36.5239 79.1716 37.4064 79.1716 38.4801C79.1716 39.5832 79.4587 40.4877 80.0327 41.1937C80.6214 41.885 81.3868 42.2306 82.3288 42.2306C83.2708 42.2306 84.0288 41.885 84.6028 41.1937C85.1768 40.4877 85.4638 39.5832 85.4638 38.4801ZM92.2809 47.9887H90.2277V33.1852H92.2368V34.8399C92.5459 34.281 93.0095 33.825 93.6277 33.472C94.2459 33.1191 94.9671 32.9426 95.7913 32.9426C97.322 32.9426 98.5143 33.4647 99.3679 34.509C100.236 35.5532 100.671 36.8769 100.671 38.4801C100.671 40.0979 100.222 41.4364 99.3238 42.4953C98.4407 43.5543 97.2411 44.0838 95.7251 44.0838C94.945 44.0838 94.2532 43.922 93.6498 43.5984C93.0463 43.2748 92.59 42.863 92.2809 42.363V47.9887ZM98.551 38.4801C98.551 37.4064 98.264 36.5239 97.69 35.8327C97.1307 35.1267 96.3727 34.7737 95.416 34.7737C94.474 34.7737 93.7086 35.1267 93.1199 35.8327C92.5459 36.5239 92.2589 37.4064 92.2589 38.4801C92.2589 39.5832 92.5459 40.4877 93.1199 41.1937C93.7086 41.885 94.474 42.2306 95.416 42.2306C96.358 42.2306 97.116 41.885 97.69 41.1937C98.264 40.4877 98.551 39.5832 98.551 38.4801ZM119.035 31.7071L117.092 32.391C116.989 31.7145 116.658 31.1041 116.098 30.5599C115.539 30.001 114.766 29.7215 113.78 29.7215C112.912 29.7215 112.191 29.9716 111.617 30.4716C111.042 30.9717 110.755 31.5894 110.755 32.3248C110.755 32.8984 110.924 33.3838 111.263 33.7809C111.617 34.178 112.117 34.4501 112.765 34.5972L115.105 35.1046C116.4 35.3841 117.401 35.9136 118.108 36.6931C118.814 37.4579 119.167 38.3918 119.167 39.4949C119.167 40.7598 118.667 41.8482 117.666 42.7601C116.665 43.672 115.362 44.1279 113.758 44.1279C112.007 44.1279 110.63 43.672 109.629 42.7601C108.643 41.8335 108.069 40.7377 107.907 39.4729L109.982 38.811C110.071 39.7523 110.439 40.5465 111.086 41.1937C111.734 41.8408 112.617 42.1644 113.736 42.1644C114.766 42.1644 115.561 41.9291 116.12 41.4584C116.68 40.9878 116.959 40.3921 116.959 39.6714C116.959 39.0831 116.761 38.5757 116.363 38.1492C115.966 37.7079 115.385 37.4064 114.619 37.2446L112.389 36.7593C111.226 36.5092 110.299 36.0165 109.607 35.2811C108.915 34.5457 108.569 33.6118 108.569 32.4793C108.569 31.2438 109.07 30.1628 110.071 29.2362C111.086 28.2949 112.308 27.8242 113.736 27.8242C115.34 27.8242 116.569 28.214 117.423 28.9935C118.277 29.773 118.814 30.6775 119.035 31.7071ZM124.488 29.8318V33.1852H126.784V35.0605H124.488V40.5759C124.488 41.076 124.598 41.4437 124.819 41.679C125.055 41.9144 125.437 42.032 125.967 42.032C126.276 42.032 126.549 42.0026 126.784 41.9438V43.7087C126.431 43.8411 125.96 43.9073 125.371 43.9073C124.459 43.9073 123.737 43.6425 123.207 43.1131C122.678 42.5836 122.413 41.8408 122.413 40.8848V35.0605H120.382V33.1852H120.956C121.5 33.1852 121.905 33.0382 122.17 32.744C122.449 32.4351 122.589 32.038 122.589 31.5527V29.8318H124.488ZM131.632 41.2819C132.279 41.9438 133.067 42.2747 133.994 42.2747C134.921 42.2747 135.701 41.9438 136.334 41.2819C136.982 40.6054 137.306 39.6714 137.306 38.4801C137.306 37.3034 136.982 36.3842 136.334 35.7223C135.701 35.0458 134.921 34.7075 133.994 34.7075C133.067 34.7075 132.279 35.0458 131.632 35.7223C130.999 36.3842 130.682 37.3034 130.682 38.4801C130.682 39.6714 130.999 40.6054 131.632 41.2819ZM130.086 34.4648C131.117 33.3912 132.419 32.8543 133.994 32.8543C135.569 32.8543 136.864 33.3912 137.88 34.4648C138.91 35.5238 139.425 36.8622 139.425 38.4801C139.425 40.1127 138.917 41.4658 137.902 42.5395C136.886 43.5984 135.584 44.1279 133.994 44.1279C132.404 44.1279 131.102 43.5984 130.086 42.5395C129.071 41.4658 128.563 40.1127 128.563 38.4801C128.563 36.8622 129.071 35.5238 130.086 34.4648ZM147.976 33.0749V35.2811C147.667 35.237 147.365 35.2149 147.07 35.2149C145.128 35.2149 144.156 36.3033 144.156 38.4801V43.797H142.081V33.1852H144.112V35.0384C144.76 33.6853 145.819 33.0087 147.291 33.0087C147.527 33.0087 147.755 33.0308 147.976 33.0749ZM151.426 37.399H157.233C157.203 36.6048 156.938 35.9577 156.438 35.4576C155.937 34.9428 155.231 34.6854 154.318 34.6854C153.494 34.6854 152.817 34.9575 152.287 35.5017C151.757 36.0312 151.47 36.6637 151.426 37.399ZM157.542 40.1568L159.33 40.7745C159.021 41.7599 158.447 42.5689 157.608 43.2013C156.769 43.819 155.753 44.1279 154.561 44.1279C153.075 44.1279 151.809 43.6205 150.764 42.6056C149.734 41.5761 149.218 40.1935 149.218 38.458C149.218 36.8401 149.719 35.5017 150.72 34.4428C151.721 33.3838 152.913 32.8543 154.296 32.8543C155.901 32.8543 157.152 33.3617 158.049 34.3766C158.947 35.3767 159.396 36.7225 159.396 38.4139C159.396 38.6786 159.382 38.8993 159.352 39.0757H151.36C151.375 40.0171 151.684 40.7892 152.287 41.3922C152.905 41.9953 153.663 42.2968 154.561 42.2968C156.077 42.2968 157.071 41.5834 157.542 40.1568Z" fill="white"/>
<path opacity="0.6" d="M61.9296 18.556V14.7487H62.8632C63.8388 14.7487 64.6462 15.3622 64.6462 16.6565C64.6462 17.9508 63.8304 18.556 62.8548 18.556H61.9296ZM62.8968 19.6317C64.5958 19.6317 65.8489 18.5391 65.8489 16.6565C65.8489 14.7739 64.6042 13.6729 62.9052 13.6729H60.7689V19.6317H62.8968ZM68.756 16.6481C68.756 15.3034 69.6979 14.6647 70.6147 14.6647C71.5399 14.6647 72.4819 15.3034 72.4819 16.6481C72.4819 17.9929 71.5399 18.6316 70.6147 18.6316C69.6979 18.6316 68.756 17.9929 68.756 16.6481ZM67.5532 16.6565C67.5532 18.5728 68.9999 19.7578 70.6147 19.7578C72.238 19.7578 73.6846 18.5728 73.6846 16.6565C73.6846 14.7319 72.238 13.5469 70.6147 13.5469C68.9999 13.5469 67.5532 14.7319 67.5532 16.6565ZM81.1381 17.7911L79.8092 13.6729H78.6065L77.286 17.7743L76.1926 13.6729H74.9647L76.6216 19.6317H77.8327L79.1952 15.3875L80.5577 19.6317H81.752L83.4005 13.6729H82.2146L81.1381 17.7911ZM90.3253 19.6317V13.6729H89.1646V17.6147L86.6835 13.6729H85.2369V19.6317H86.3975V15.4043L89.1057 19.6317H90.3253ZM96.5543 19.6317V18.5223H93.8965V13.6729H92.7359V19.6317H96.5543ZM99.1458 16.6481C99.1458 15.3034 100.088 14.6647 101.005 14.6647C101.93 14.6647 102.872 15.3034 102.872 16.6481C102.872 17.9929 101.93 18.6316 101.005 18.6316C100.088 18.6316 99.1458 17.9929 99.1458 16.6481ZM97.9431 16.6565C97.9431 18.5728 99.3897 19.7578 101.005 19.7578C102.628 19.7578 104.074 18.5728 104.074 16.6565C104.074 14.7319 102.628 13.5469 101.005 13.5469C99.3897 13.5469 97.9431 14.7319 97.9431 16.6565ZM109.89 19.6317H111.152L108.881 13.6729H107.535L105.247 19.6317H106.475L106.972 18.2702H109.394L109.89 19.6317ZM108.183 14.9588L109.007 17.2112H107.358L108.183 14.9588ZM114.126 18.556V14.7487H115.059C116.035 14.7487 116.842 15.3622 116.842 16.6565C116.842 17.9508 116.027 18.556 115.051 18.556H114.126ZM115.093 19.6317C116.792 19.6317 118.045 18.5391 118.045 16.6565C118.045 14.7739 116.8 13.6729 115.101 13.6729H112.965V19.6317H115.093ZM124.082 16.6481C124.082 15.3034 125.024 14.6647 125.941 14.6647C126.866 14.6647 127.808 15.3034 127.808 16.6481C127.808 17.9929 126.866 18.6316 125.941 18.6316C125.024 18.6316 124.082 17.9929 124.082 16.6481ZM122.879 16.6565C122.879 18.5728 124.326 19.7578 125.941 19.7578C127.564 19.7578 129.011 18.5728 129.011 16.6565C129.011 14.7319 127.564 13.5469 125.941 13.5469C124.326 13.5469 122.879 14.7319 122.879 16.6565ZM136.156 19.6317V13.6729H134.996V17.6147L132.515 13.6729H131.068V19.6317H132.229V15.4043L134.937 19.6317H136.156ZM146.087 14.7739V13.6729H141.15V14.7739H143.034V19.6317H144.203V14.7739H146.087ZM152.884 19.6317V13.6729H151.715V16.0682H149.116V13.6729H147.955V19.6317H149.116V17.1608H151.715V19.6317H152.884ZM159.032 19.6317V18.5391H156.459V17.1608H158.788V16.1271H156.459V14.7655H159.032V13.6729H155.298V19.6317H159.032Z" fill="white"/>
<path d="M46.2897 37.5115C45.607 39.0223 45.2811 39.6967 44.402 41.0315C43.1772 42.8956 41.449 45.2174 39.3075 45.237C37.4054 45.2548 36.9165 44 34.3341 44.0151C31.7519 44.0302 31.2137 45.2594 29.3114 45.2416C27.17 45.2226 25.5339 43.126 24.3077 41.2606C20.8804 36.0472 20.5223 29.9297 22.6361 26.6776C24.1383 24.3649 26.509 23.0137 28.7372 23.0137C31.0061 23.0137 32.4326 24.2566 34.3092 24.2566C36.1293 24.2566 37.2378 23.0117 39.8615 23.0117C41.8446 23.0117 43.9459 24.0905 45.4434 25.9546C40.537 28.6407 41.3347 35.6395 46.2897 37.5115Z" fill="white"/>
<path d="M38.1462 19.743C39.0995 18.5204 39.8223 16.7956 39.5595 15.0312C38.0023 15.1377 36.1821 16.1278 35.119 17.418C34.1538 18.5888 33.3567 20.3255 33.6668 22.0135C35.3654 22.0668 37.1244 21.0522 38.1462 19.743Z" fill="white"/>
</svg>
