<svg width="200" height="60" viewBox="0 0 200 60" fill="none" xmlns="http://www.w3.org/2000/svg">
<rect x="0.655731" width="198.689" height="60" rx="10" fill="black"/>
<path d="M78.1464 43.7729H76.4025L76.2039 41.5679C75.8213 42.2588 75.1959 42.8541 74.3276 43.3539C73.4594 43.8538 72.4146 44.1037 71.1932 44.1037C69.8541 44.1037 68.618 43.8023 67.4849 43.1996C66.3517 42.5822 65.4173 41.6414 64.6815 40.3772C63.9604 39.113 63.5999 37.6356 63.5999 35.9451C63.5999 34.2546 63.9825 32.7772 64.7477 31.513C65.513 30.2488 66.4695 29.3154 67.6173 28.7126C68.7798 28.1099 70.0233 27.8086 71.3477 27.8086C73.0253 27.8086 74.4822 28.2422 75.7183 29.1096C76.9691 29.9622 77.8226 31.1014 78.2788 32.5273L76.3143 33.3652C75.9611 32.2333 75.343 31.3587 74.4601 30.7413C73.5919 30.1092 72.5544 29.7931 71.3477 29.7931C69.832 29.7931 68.5297 30.3297 67.4407 31.4028C66.3517 32.4759 65.8073 33.99 65.8073 35.9451C65.8073 37.9149 66.337 39.4437 67.3966 40.5315C68.4708 41.6046 69.7584 42.1412 71.2594 42.1412C72.0835 42.1412 72.8119 42.0089 73.4447 41.7443C74.0922 41.4797 74.5925 41.1342 74.9457 40.7079C75.3136 40.2669 75.5858 39.8259 75.7624 39.3849C75.9537 38.9439 76.0641 38.5029 76.0935 38.0619H70.6634V36.1215H78.1464V43.7729ZM83.4362 41.2592C84.0837 41.9207 84.871 42.2514 85.7981 42.2514C86.7252 42.2514 87.5051 41.9207 88.1379 41.2592C88.7854 40.583 89.1091 39.6495 89.1091 38.4588C89.1091 37.2828 88.7854 36.364 88.1379 35.7025C87.5051 35.0263 86.7252 34.6882 85.7981 34.6882C84.871 34.6882 84.0837 35.0263 83.4362 35.7025C82.8034 36.364 82.4871 37.2828 82.4871 38.4588C82.4871 39.6495 82.8034 40.583 83.4362 41.2592ZM81.8911 34.4457C82.9212 33.3726 84.2235 32.836 85.7981 32.836C87.3727 32.836 88.6676 33.3726 89.683 34.4457C90.7131 35.5041 91.2282 36.8418 91.2282 38.4588C91.2282 40.0905 90.7205 41.4429 89.7051 42.516C88.6897 43.5745 87.3874 44.1037 85.7981 44.1037C84.2088 44.1037 82.9065 43.5745 81.8911 42.516C80.8757 41.4429 80.368 40.0905 80.368 38.4588C80.368 36.8418 80.8757 35.5041 81.8911 34.4457ZM96.0681 41.2592C96.7156 41.9207 97.5029 42.2514 98.43 42.2514C99.3571 42.2514 100.137 41.9207 100.77 41.2592C101.417 40.583 101.741 39.6495 101.741 38.4588C101.741 37.2828 101.417 36.364 100.77 35.7025C100.137 35.0263 99.3571 34.6882 98.43 34.6882C97.5029 34.6882 96.7156 35.0263 96.0681 35.7025C95.4354 36.364 95.119 37.2828 95.119 38.4588C95.119 39.6495 95.4354 40.583 96.0681 41.2592ZM94.523 34.4457C95.5531 33.3726 96.8554 32.836 98.43 32.836C100.005 32.836 101.3 33.3726 102.315 34.4457C103.345 35.5041 103.86 36.8418 103.86 38.4588C103.86 40.0905 103.352 41.4429 102.337 42.516C101.322 43.5745 100.019 44.1037 98.43 44.1037C96.8407 44.1037 95.5384 43.5745 94.523 42.516C93.5076 41.4429 92.9999 40.0905 92.9999 38.4588C92.9999 36.8418 93.5076 35.5041 94.523 34.4457ZM105.742 44.3462L107.751 43.8832C107.824 44.6329 108.126 45.2503 108.656 45.7354C109.186 46.2352 109.848 46.4851 110.643 46.4851C112.806 46.4851 113.887 45.3385 113.887 43.0452V41.5238C113.622 42.0383 113.203 42.4572 112.629 42.7806C112.07 43.104 111.408 43.2657 110.643 43.2657C109.23 43.2657 108.06 42.788 107.133 41.8325C106.22 40.8623 105.764 39.6275 105.764 38.1281C105.764 36.6728 106.22 35.4526 107.133 34.4677C108.045 33.4681 109.215 32.9683 110.643 32.9683C112.261 32.9683 113.35 33.5269 113.909 34.6441V33.1668H115.962V42.9791C115.962 43.6847 115.867 44.3389 115.676 44.9416C115.499 45.559 115.212 46.1249 114.814 46.6394C114.417 47.1539 113.858 47.5582 113.137 47.8522C112.431 48.1462 111.599 48.2932 110.643 48.2932C109.333 48.2932 108.222 47.9183 107.309 47.1686C106.397 46.4336 105.875 45.4928 105.742 44.3462ZM110.952 41.5238C111.849 41.5238 112.578 41.2151 113.137 40.5977C113.696 39.9656 113.976 39.1424 113.976 38.1281C113.976 37.1138 113.696 36.2979 113.137 35.6805C112.578 35.0484 111.849 34.7323 110.952 34.7323C110.039 34.7323 109.296 35.041 108.722 35.6584C108.163 36.2759 107.883 37.0991 107.883 38.1281C107.883 39.1718 108.156 40.0023 108.7 40.6197C109.259 41.2224 110.01 41.5238 110.952 41.5238ZM121.351 43.7729H119.276V27.8086H121.351V43.7729ZM126.227 37.3784H132.032C132.003 36.5846 131.738 35.9377 131.237 35.4379C130.737 34.9234 130.031 34.6662 129.118 34.6662C128.294 34.6662 127.617 34.9381 127.088 35.482C126.558 36.0112 126.271 36.6434 126.227 37.3784ZM132.341 40.1346L134.129 40.752C133.82 41.7369 133.246 42.5454 132.407 43.1775C131.568 43.7949 130.553 44.1037 129.361 44.1037C127.875 44.1037 126.609 43.5965 125.564 42.5822C124.534 41.5532 124.019 40.1714 124.019 38.4368C124.019 36.8198 124.52 35.482 125.52 34.4236C126.521 33.3652 127.713 32.836 129.096 32.836C130.7 32.836 131.951 33.3432 132.849 34.3575C133.746 35.3571 134.195 36.7022 134.195 38.3927C134.195 38.6573 134.18 38.8778 134.151 39.0542H126.16C126.175 39.995 126.484 40.7667 127.088 41.3694C127.706 41.9721 128.463 42.2735 129.361 42.2735C130.877 42.2735 131.87 41.5605 132.341 40.1346ZM144.746 35.4379H147.881C148.808 35.4379 149.544 35.2027 150.088 34.7323C150.633 34.2472 150.905 33.6004 150.905 32.7919C150.905 31.9687 150.633 31.3146 150.088 30.8295C149.544 30.3297 148.808 30.0798 147.881 30.0798H144.746V35.4379ZM148.278 37.3784H144.746V43.7729H142.583V28.1393H148.278C149.706 28.1393 150.868 28.5803 151.766 29.4624C152.663 30.3444 153.112 31.4469 153.112 32.7699C153.112 34.1076 152.663 35.2101 151.766 36.0774C150.868 36.9447 149.706 37.3784 148.278 37.3784ZM157.392 43.7729H155.317V27.8086H157.392V43.7729ZM160.26 40.9284C160.26 40.017 160.554 39.2894 161.143 38.7455C161.731 38.1869 162.511 37.8414 163.483 37.7091L166.352 37.2902C166.897 37.2167 167.169 36.9521 167.169 36.4964C167.169 35.9377 166.978 35.482 166.595 35.1292C166.212 34.7764 165.638 34.6 164.873 34.6C164.167 34.6 163.608 34.7985 163.196 35.1954C162.784 35.5776 162.541 36.0921 162.467 36.7389L160.481 36.2759C160.584 35.2615 161.047 34.4383 161.871 33.8062C162.695 33.1594 163.681 32.836 164.829 32.836C166.33 32.836 167.441 33.2035 168.162 33.9385C168.883 34.6588 169.244 35.5849 169.244 36.7169V42.0309C169.244 42.663 169.288 43.2437 169.376 43.7729H167.345C167.272 43.3319 167.235 42.8541 167.235 42.3396C166.941 42.81 166.507 43.2216 165.933 43.5744C165.373 43.9273 164.667 44.1037 163.814 44.1037C162.769 44.1037 161.915 43.7949 161.253 43.1775C160.591 42.5454 160.26 41.7957 160.26 40.9284ZM164.101 42.3617C165.028 42.3617 165.771 42.1118 166.33 41.612C166.889 41.1122 167.169 40.3184 167.169 39.2306V38.7455L163.924 39.2306C163.453 39.3041 163.078 39.4731 162.798 39.7377C162.519 40.0023 162.379 40.3625 162.379 40.8182C162.379 41.2298 162.533 41.5899 162.842 41.8986C163.166 42.2073 163.586 42.3617 164.101 42.3617ZM174.91 48.205H172.637L175.286 42.6042L170.716 33.1668H173.1L176.411 40.4874L179.59 33.1668H181.819L174.91 48.205Z" fill="white"/>
<path opacity="0.6" d="M69.7376 19.6207V16.5211H66.7608V17.5291H68.6444C68.5772 17.9491 68.1483 18.6883 67.0467 18.6883C66.0461 18.6883 65.1631 17.9911 65.1631 16.6471C65.1631 15.2359 66.1386 14.6227 67.0383 14.6227C68.0054 14.6227 68.5015 15.2359 68.6528 15.7651L69.7628 15.3703C69.4685 14.4547 68.6024 13.5391 67.0383 13.5391C65.4238 13.5391 63.9859 14.7235 63.9859 16.6471C63.9859 18.5707 65.3565 19.7467 66.9626 19.7467C67.8624 19.7467 68.451 19.3435 68.7201 18.9403L68.7958 19.6207H69.7376ZM76.2188 19.6207V18.5287H73.6457V17.1511H75.9749V16.1179H73.6457V14.7571H76.2188V13.6651H72.4852V19.6207H76.2188ZM83.4442 14.7655V13.6651H78.5081V14.7655H80.3917V19.6207H81.5606V14.7655H83.4442ZM90.6693 19.6207V13.6651H89.492V19.6207H90.6693ZM97.9957 14.7655V13.6651H93.0596V14.7655H94.9432V19.6207H96.1121V14.7655H97.9957ZM104.893 16.6387C104.893 15.2947 105.835 14.6563 106.751 14.6563C107.676 14.6563 108.618 15.2947 108.618 16.6387C108.618 17.9827 107.676 18.6211 106.751 18.6211C105.835 18.6211 104.893 17.9827 104.893 16.6387ZM103.69 16.6471C103.69 18.5623 105.137 19.7467 106.751 19.7467C108.374 19.7467 109.82 18.5623 109.82 16.6471C109.82 14.7235 108.374 13.5391 106.751 13.5391C105.137 13.5391 103.69 14.7235 103.69 16.6471ZM117.491 19.6207V13.6651H116.331V17.6047L113.85 13.6651H112.403V19.6207H113.564V15.3955L116.272 19.6207H117.491Z" fill="white"/>
<path d="M49.6885 27.9907L44.7877 25.1602L39.7705 30.1774L44.7874 35.1942L49.7051 32.3542C50.472 31.8883 50.9295 31.0744 50.9295 30.1774C50.9295 29.2803 50.4716 28.4664 49.6885 27.9907Z" fill="#FFCE00"/>
<path d="M39.7705 30.1782L26.1047 16.4141C25.6294 16.8894 25.3407 17.5343 25.3407 18.2473V42.0672C25.3407 42.7802 25.6294 43.4252 26.1047 43.9008L39.7705 30.1782Z" fill="url(#paint0_linear_1044_2941)"/>
<path d="M39.7704 30.1777L44.7876 25.1605L44.7955 25.1525L38.0732 21.282L29.2115 16.0738C28.4135 15.5815 27.4459 15.5645 26.6309 16.0228C26.4443 16.1415 26.2743 16.2605 26.1046 16.4132L39.7704 30.1777Z" fill="#00F076"/>
<path d="M26.1047 43.9019C26.2743 44.0546 26.4444 44.1736 26.631 44.2922C27.0383 44.5129 27.463 44.6319 27.8873 44.6319C28.3456 44.6319 28.7869 44.4962 29.1946 44.2586L38.0729 39.0753L44.7953 35.2048L44.7873 35.1969L39.7705 30.1797L26.1047 43.9019Z" fill="#F63448"/>
<defs>
<linearGradient id="paint0_linear_1044_2941" x1="19.2333" y1="37.0291" x2="32.9765" y2="23.2855" gradientUnits="userSpaceOnUse">
<stop stop-color="#00E2FF"/>
<stop offset="1" stop-color="#00C5FF"/>
</linearGradient>
</defs>
</svg>
