<svg width="20" height="16" viewBox="0 0 20 16" fill="none" xmlns="http://www.w3.org/2000/svg">
<path d="M0.955648 8.79586L7.70565 15.5459C7.91699 15.7572 8.20364 15.8759 8.50252 15.8759C8.80141 15.8759 9.08805 15.7572 9.2994 15.5459C9.51074 15.3345 9.62947 15.0479 9.62947 14.749C9.62948 14.4501 9.51074 14.1635 9.2994 13.9521L4.47034 9.12492H18.2516C18.55 9.12492 18.8361 9.00639 19.0471 8.79541C19.2581 8.58444 19.3766 8.29829 19.3766 7.99992C19.3766 7.70155 19.2581 7.4154 19.0471 7.20442C18.8361 6.99345 18.55 6.87492 18.2516 6.87492H4.47034L9.29753 2.04492C9.50887 1.83358 9.6276 1.54693 9.6276 1.24804C9.6276 0.949159 9.50887 0.662514 9.29753 0.45117C9.08618 0.239826 8.79954 0.121094 8.50065 0.121094C8.20176 0.121094 7.91512 0.239826 7.70378 0.45117L0.953775 7.20117C0.848877 7.30583 0.765686 7.43018 0.708982 7.56707C0.652279 7.70397 0.62318 7.85073 0.623354 7.9989C0.623528 8.14708 0.652973 8.29377 0.709999 8.43053C0.767023 8.5673 0.850506 8.69145 0.955648 8.79586Z" fill="#F5F9F5"/>
</svg>
