<svg width="180" height="38" viewBox="0 0 180 38" fill="none" xmlns="http://www.w3.org/2000/svg">
<g clip-path="url(#clip0_3071_5063)">
<path d="M0 24.7796L12.6915 19.1914L19.9965 23.3825L21.4723 37.1327L12.4702 37.0589L13.7983 27.5L12.2488 26.6178L4.64861 32.5004L0 24.7796Z" fill="#140533" fill-opacity="0.2"/>
<path d="M20.8084 22.7943L32.0243 30.9559L36.4515 23.0884L27.4491 19.4854V17.7207L36.4515 14.0441L32.0243 6.25L20.8084 14.4119V22.7943Z" fill="#140533" fill-opacity="0.6"/>
<path d="M19.9965 13.7501L21.4723 0L12.4702 0.147017L13.7983 9.70596L12.2488 10.5883L4.57483 4.70588L0 12.353L12.6915 17.9413L19.9965 13.7501Z" fill="#140533"/>
<path d="M66.4842 16.9177V29.7994H71.329V13.3828H64.2733V16.9177H66.4842Z" fill="#140533"/>
<path d="M66.3345 11.0757C66.7787 11.535 67.4549 11.7646 68.3633 11.7646C69.2721 11.7646 69.9378 11.535 70.3615 11.0757C70.8062 10.5962 71.0277 9.99698 71.0277 9.27823C71.0277 8.53913 70.8062 7.93998 70.3615 7.48072C69.9378 7.00147 69.2721 6.76172 68.3633 6.76172C67.4549 6.76172 66.7787 7.00147 66.3345 7.48072C65.9108 7.93998 65.6988 8.53913 65.6988 9.27823C65.6988 9.99698 65.9108 10.5962 66.3345 11.0757Z" fill="#140533"/>
<path d="M49.6184 29.4423C50.9909 30.0613 52.6766 30.3712 54.6749 30.3712C56.5525 30.3712 58.1672 30.0812 59.5202 29.5021C60.8727 28.9233 61.9121 28.1141 62.6388 27.0755C63.3861 26.017 63.7592 24.7888 63.7592 23.3907C63.7592 22.0327 63.4066 20.8843 62.6999 19.9455C62.0131 18.9869 61.0548 18.238 59.8228 17.6989C58.5914 17.1396 57.1683 16.7901 55.5531 16.6504L53.8576 16.5006C52.8481 16.4205 52.1213 16.1511 51.6772 15.6916C51.2331 15.2324 51.0109 14.693 51.0109 14.0741C51.0109 13.5945 51.1325 13.1553 51.374 12.7559C51.6167 12.3364 51.9798 12.0069 52.4645 11.7671C52.9692 11.5276 53.585 11.4077 54.3117 11.4077C55.0785 11.4077 55.7147 11.5474 56.2193 11.8272C56.3305 11.8863 56.436 11.9495 56.535 12.0166L56.559 12.0332C56.5961 12.0585 56.6325 12.0848 56.6681 12.1113C56.9747 12.3432 57.2187 12.6179 57.4003 12.9356C57.6624 13.375 57.7945 13.8643 57.7945 14.4036H62.6388C62.6388 12.9655 62.3057 11.7172 61.64 10.6588C60.9737 9.58038 60.0148 8.75158 58.7633 8.17222C57.5314 7.57306 56.0479 7.27344 54.3117 7.27344C52.656 7.27344 51.2231 7.55326 50.0115 8.11238C48.8006 8.65172 47.8518 9.43059 47.1655 10.449C46.4988 11.4676 46.1656 12.676 46.1656 14.0741C46.1656 16.0112 46.8223 17.5688 48.1344 18.7475C49.4463 19.9257 51.203 20.6048 53.4034 20.7844L55.069 20.9342C56.421 21.0541 57.4003 21.3238 58.0061 21.7429C58.6113 22.1424 58.9144 22.6917 58.9144 23.3907C58.9144 23.712 58.8614 24.0133 58.7549 24.2947C58.6759 24.5036 58.5678 24.7016 58.4303 24.8887C58.1066 25.3079 57.6324 25.6375 57.0067 25.8775C56.3809 26.1169 55.6037 26.2368 54.6749 26.2368C53.6454 26.2368 52.8076 26.0972 52.1619 25.817C51.5157 25.5177 51.0314 25.1283 50.7078 24.649C50.4053 24.1695 50.2542 23.6505 50.2542 23.0911H45.4393C45.4393 24.5092 45.7925 25.7671 46.4988 26.8657C47.2056 27.9444 48.2454 28.803 49.6184 29.4423Z" fill="#140533"/>
<path d="M82.1384 30.0093C80.4628 30.0093 79.1103 29.8093 78.081 29.4101C77.0511 28.9904 76.2942 28.3016 75.8096 27.3431C75.3454 26.3643 75.1133 25.0465 75.1133 23.3886V16.8879H72.5999V13.3828H75.1133V8.94922H79.625V13.3828H84.4704V16.8879H79.625V23.5686C79.625 24.3475 79.8271 24.9466 80.2307 25.3657C80.6544 25.7651 81.2502 25.9649 82.0174 25.9649H84.4704V30.0093H82.1384Z" fill="#140533"/>
<path fill-rule="evenodd" clip-rule="evenodd" d="M90.3033 29.6489C91.3932 30.1279 92.6452 30.368 94.0583 30.368C95.4508 30.368 96.6827 30.1279 97.7527 29.6489C98.8226 29.1693 99.711 28.5003 100.417 27.6418C101.124 26.7827 101.599 25.804 101.84 24.7057H97.389C97.1875 25.2047 96.8038 25.6243 96.2385 25.9638C95.6733 26.3033 94.9461 26.473 94.0583 26.473C93.5081 26.473 93.0164 26.4087 92.5833 26.28C92.2536 26.1821 91.958 26.047 91.6964 25.8743C91.0907 25.4744 90.6465 24.9152 90.3639 24.1965C90.2854 23.9916 90.2183 23.7775 90.1618 23.5544C90.1043 23.3284 90.0577 23.0931 90.0228 22.8483H102.143V21.2306C102.143 19.7326 101.82 18.3548 101.175 17.0966C100.528 15.8181 99.5893 14.7896 98.3584 14.0107C97.147 13.2119 95.6529 12.8125 93.8762 12.8125C92.5237 12.8125 91.3122 13.0522 90.2424 13.5315C89.1934 13.9908 88.3151 14.6198 87.6084 15.4187C86.9021 16.2176 86.3569 17.1264 85.9727 18.1451C85.6096 19.1434 85.428 20.1919 85.428 21.2904V21.8895C85.428 22.9482 85.6096 23.9866 85.9727 25.0054C86.3569 26.0038 86.9021 26.9124 87.6084 27.7314C88.3352 28.53 89.233 29.1693 90.3033 29.6489ZM90.1063 19.886C90.1198 19.8226 90.1338 19.7602 90.1493 19.6987C90.1913 19.5293 90.2398 19.3671 90.2949 19.2119C90.3259 19.1237 90.3589 19.0375 90.3944 18.9539C90.697 18.2148 91.1412 17.6556 91.7264 17.2762C91.9455 17.1344 92.1826 17.0191 92.4372 16.9304C92.8654 16.7815 93.3455 16.707 93.8762 16.707C94.7046 16.707 95.3902 16.8968 95.9355 17.2762C96.5006 17.6357 96.9248 18.1649 97.2074 18.8639C97.2305 18.9203 97.252 18.9777 97.273 19.0358C97.3065 19.1285 97.3375 19.2235 97.3665 19.321C97.409 19.4659 97.4465 19.616 97.4795 19.771C97.5036 19.8854 97.5241 20.0024 97.5425 20.1223H90.0598C90.0737 20.0421 90.0892 19.9635 90.1063 19.886Z" fill="#140533"/>
<path d="M104.144 29.8009V13.3842H107.99V17.519C108.042 17.2733 108.102 17.0373 108.169 16.8111C108.225 16.6205 108.286 16.4367 108.354 16.2602C108.778 15.1416 109.413 14.3031 110.261 13.7436C111.109 13.1645 112.149 12.875 113.38 12.875H113.592C114.844 12.875 115.883 13.1645 116.711 13.7436C117.559 14.3031 118.195 15.1416 118.619 16.2602L118.652 16.3446L118.681 16.4218C118.7 16.3673 118.72 16.3135 118.74 16.2602C119.184 15.1416 119.83 14.3031 120.678 13.7436C121.526 13.1645 122.566 12.875 123.797 12.875H124.009C125.26 12.875 126.31 13.1645 127.158 13.7436C128.026 14.3031 128.683 15.1416 129.126 16.2602C129.57 17.3787 129.793 18.7767 129.793 20.4543V29.8009H124.948V20.1846C124.948 19.2859 124.706 18.5569 124.221 17.9979C123.757 17.4385 123.091 17.1588 122.223 17.1588C121.354 17.1588 120.668 17.4486 120.164 18.0277C119.659 18.5869 119.406 19.3358 119.406 20.2747V29.8009H114.531V20.1846C114.531 19.2859 114.289 18.5569 113.804 17.9979C113.34 17.4385 112.684 17.1588 111.836 17.1588C110.947 17.1588 110.251 17.4486 109.747 18.0277C109.242 18.5869 108.989 19.3358 108.989 20.2747V29.8009H104.144Z" fill="#140533"/>
<path fill-rule="evenodd" clip-rule="evenodd" d="M142.734 26.6365V29.7996H146.58V19.7339C146.58 18.216 146.277 16.9779 145.671 16.019C145.065 15.0405 144.178 14.3115 143.006 13.8322C141.856 13.353 140.433 13.1133 138.737 13.1133C138.37 13.1133 137.986 13.1171 137.586 13.1251C137.349 13.1299 137.107 13.1359 136.859 13.1431C136.193 13.1632 135.546 13.1931 134.922 13.2331L134.444 13.265C134.198 13.2818 133.968 13.2984 133.75 13.3153C133.587 13.3279 133.432 13.3404 133.287 13.353V17.3974C133.913 17.3573 134.608 17.3172 135.376 17.2774C135.59 17.2664 135.803 17.2559 136.014 17.2463C136.319 17.2323 136.619 17.2203 136.918 17.2097C137.152 17.2012 137.385 17.1938 137.617 17.1875C138.343 17.1674 138.928 17.1575 139.372 17.1575C140.261 17.1575 140.906 17.3672 141.311 17.7866C141.714 18.2061 141.917 18.8352 141.917 19.674V19.7339H138.919C137.445 19.7339 136.143 19.9237 135.013 20.3031C133.882 20.6625 133.004 21.2318 132.379 22.0107C131.753 22.7697 131.439 23.7484 131.439 24.9466C131.439 26.0452 131.691 26.9938 132.196 27.7925C132.701 28.5714 133.397 29.1706 134.285 29.5897C135.194 30.0093 136.244 30.2192 137.435 30.2192C138.585 30.2192 139.554 30.0093 140.342 29.5897C141.15 29.1706 141.776 28.5714 142.219 27.7925C142.297 27.6614 142.37 27.5253 142.439 27.3836C142.535 27.1838 142.62 26.973 142.695 26.7528L142.734 26.6365ZM141.917 23.7184V22.4002H138.888C138.041 22.4002 137.385 22.6098 136.92 23.0293C136.476 23.4288 136.253 23.9779 136.253 24.6769C136.253 25.006 136.31 25.3049 136.42 25.5745C136.531 25.8448 136.698 26.0848 136.92 26.2945C137.385 26.6944 138.041 26.8939 138.888 26.8939C139.05 26.8939 139.206 26.8859 139.356 26.8701C139.479 26.8576 139.599 26.8393 139.714 26.8162C139.937 26.7711 140.146 26.7073 140.342 26.6241C140.786 26.4247 141.15 26.0951 141.431 25.6355C141.714 25.1762 141.876 24.5371 141.917 23.7184Z" fill="#140533"/>
<path d="M149.479 29.7981V13.3815H153.325V18.8003C153.51 17.2534 153.974 16.0061 154.718 15.0591C155.727 13.801 157.181 13.1719 159.078 13.1719H159.715V17.3059H158.503C157.17 17.3059 156.141 17.6653 155.415 18.3844C154.688 19.0834 154.324 20.102 154.324 21.4399V29.7981H149.479Z" fill="#140533"/>
<path d="M165.859 22.1334H167.464L172.702 29.8025H178.153L171.51 20.384L176.972 13.3859H171.885L165.859 21.1918V7.93359H161.014V29.8025H165.859V22.1334Z" fill="#140533"/>
</g>
<defs>
<clipPath id="clip0_3071_5063">
<rect width="179.261" height="37.1327" fill="white"/>
</clipPath>
</defs>
</svg>
