<svg width="55" height="40" viewBox="0 0 55 40" fill="none" xmlns="http://www.w3.org/2000/svg">
<path d="M34.7368 40H50.5263C51.643 40 52.714 39.5564 53.5036 38.7668C54.2932 37.9771 54.7368 36.9062 54.7368 35.7895V18.9474C54.7368 17.8307 54.2932 16.7597 53.5036 15.9701C52.714 15.1805 51.643 14.7368 50.5263 14.7368H34.7368V12.6316C34.7368 10.3982 35.6241 8.25625 37.2033 6.67699C38.7826 5.09774 40.9245 4.21053 43.1579 4.21053C43.7163 4.21053 44.2517 3.98872 44.6465 3.59391C45.0414 3.1991 45.2632 2.66361 45.2632 2.10526C45.2632 1.54691 45.0414 1.01143 44.6465 0.616615C44.2517 0.221802 43.7163 0 43.1579 0C39.8089 0.00348282 36.598 1.33542 34.2299 3.70355C31.8617 6.07167 30.5298 9.28254 30.5263 12.6316V35.7895C30.5263 36.9062 30.9699 37.9771 31.7596 38.7668C32.5492 39.5564 33.6201 40 34.7368 40ZM34.7368 18.9474H50.5263V35.7895H34.7368V18.9474ZM4.21053 40H20C21.1167 40 22.1877 39.5564 22.9773 38.7668C23.7669 37.9771 24.2105 36.9062 24.2105 35.7895V18.9474C24.2105 17.8307 23.7669 16.7597 22.9773 15.9701C22.1877 15.1805 21.1167 14.7368 20 14.7368H4.21053V12.6316C4.21053 10.3982 5.09775 8.25625 6.67701 6.67699C8.25626 5.09774 10.3982 4.21053 12.6316 4.21053C13.1899 4.21053 13.7254 3.98872 14.1202 3.59391C14.515 3.1991 14.7369 2.66361 14.7369 2.10526C14.7369 1.54691 14.515 1.01143 14.1202 0.616615C13.7254 0.221802 13.1899 0 12.6316 0C9.28255 0.00348282 6.07168 1.33542 3.70356 3.70355C1.33543 6.07167 0.00349045 9.28254 7.62939e-06 12.6316V35.7895C7.62939e-06 36.9062 0.443619 37.9771 1.23325 38.7668C2.02287 39.5564 3.09383 40 4.21053 40ZM4.21053 18.9474H20V35.7895H4.21053V18.9474Z" fill="#140533"/>
</svg>
