<svg width="160" height="43" viewBox="0 0 160 43" fill="none" xmlns="http://www.w3.org/2000/svg">
<mask id="mask0_3071_4745" style="mask-type:alpha" maskUnits="userSpaceOnUse" x="0" y="0" width="158" height="43">
<g clip-path="url(#clip0_3071_4745)">
<path fill-rule="evenodd" clip-rule="evenodd" d="M21.1754 0.332031C9.41401 0.332031 0.294098 8.95079 0.294098 20.5869C0.294098 26.6738 2.78941 31.9359 6.85083 35.5692C7.19015 35.872 7.39897 36.3001 7.40941 36.7595L7.52425 40.4764C7.5608 41.6614 8.78235 42.434 9.86818 41.9537L14.0131 40.1266C14.3629 39.97 14.7596 39.9439 15.1303 40.0431C17.0357 40.5651 19.0612 40.847 21.1754 40.847C32.9368 40.847 42.0567 32.2282 42.0567 20.5921C42.0567 8.95601 32.9368 0.332031 21.1754 0.332031Z" fill="url(#paint0_radial_3071_4745)"/>
</g>
<path d="M66.3544 12.9817V16.1139H60.1634V30.0742H55.9056V16.1139H49.7146V12.9817H66.3544ZM75.6898 26.4893V28.7773C74.3032 29.7887 72.5862 30.2945 70.5388 30.2945C68.5078 30.2945 66.8846 29.752 65.6692 28.6672C64.4539 27.5742 63.8462 26.1304 63.8462 24.3359C63.8462 22.5741 64.4172 21.1262 65.5591 19.9925C66.7011 18.8587 68.1571 18.2918 69.9271 18.2918C71.7052 18.2918 73.1612 18.8913 74.295 20.0903C75.437 21.2812 75.9712 22.88 75.8978 24.8865H67.6024C67.6758 25.9306 68.0469 26.734 68.7158 27.2968C69.3846 27.8597 70.2819 28.1411 71.4075 28.1411C72.7697 28.1411 74.1971 27.5905 75.6898 26.4893ZM67.6758 22.9778H72.6922C72.4965 21.2975 71.6604 20.4574 70.184 20.4574C68.6913 20.4574 67.8553 21.2975 67.6758 22.9778ZM89.9071 18.5242L85.3434 24.1646L90.2496 30.0742H86.0408L83.3123 26.4893L80.6818 30.0742H76.5952L81.3058 24.1646L76.5952 18.5242H80.8286L83.3123 21.8522L85.6737 18.5242H89.9071ZM102.338 26.4893V28.7773C100.951 29.7887 99.2343 30.2945 97.187 30.2945C95.1559 30.2945 93.5327 29.752 92.3174 28.6672C91.102 27.5742 90.4944 26.1304 90.4944 24.3359C90.4944 22.5741 91.0653 21.1262 92.2073 19.9925C93.3492 18.8587 94.8052 18.2918 96.5752 18.2918C98.3534 18.2918 99.8094 18.8913 100.943 20.0903C102.085 21.2812 102.619 22.88 102.546 24.8865H94.2505C94.324 25.9306 94.6951 26.734 95.3639 27.2968C96.0328 27.8597 96.93 28.1411 98.0557 28.1411C99.4178 28.1411 100.845 27.5905 102.338 26.4893ZM94.324 22.9778H99.3404C99.1446 21.2975 98.3085 20.4574 96.8322 20.4574C95.3395 20.4574 94.5034 21.2975 94.324 22.9778ZM108.529 18.5242V20.176C109.597 18.9198 110.85 18.2918 112.285 18.2918C113.484 18.2918 114.483 18.6751 115.283 19.4419C116.09 20.2086 116.494 21.3057 116.494 22.7331V30.0742H112.86V23.039C112.86 21.4974 112.261 20.7266 111.062 20.7266C110.205 20.7266 109.361 21.3628 108.529 22.6353V30.0742H104.895V18.5242H108.529ZM119.051 18.5242H130.332L124.41 27.5905H130.332V30.0742H118.476L124.41 21.008H119.051V18.5242ZM143.326 26.4893V28.7773C141.939 29.7887 140.222 30.2945 138.175 30.2945C136.144 30.2945 134.52 29.752 133.305 28.6672C132.09 27.5742 131.482 26.1304 131.482 24.3359C131.482 22.5741 132.053 21.1262 133.195 19.9925C134.337 18.8587 135.793 18.2918 137.563 18.2918C139.341 18.2918 140.797 18.8913 141.931 20.0903C143.073 21.2812 143.607 22.88 143.534 24.8865H135.238C135.312 25.9306 135.683 26.734 136.352 27.2968C137.021 27.8597 137.918 28.1411 139.043 28.1411C140.406 28.1411 141.833 27.5905 143.326 26.4893ZM135.312 22.9778H140.328C140.132 21.2975 139.296 20.4574 137.82 20.4574C136.327 20.4574 135.491 21.2975 135.312 22.9778ZM149.517 18.5242V20.176C150.585 18.9198 151.837 18.2918 153.273 18.2918C154.472 18.2918 155.471 18.6751 156.27 19.4419C157.078 20.2086 157.482 21.3057 157.482 22.7331V30.0742H153.848V23.039C153.848 21.4974 153.248 20.7266 152.049 20.7266C151.193 20.7266 150.349 21.3628 149.517 22.6353V30.0742H145.883V18.5242H149.517Z" fill="url(#paint1_linear_3071_4745)"/>
</mask>
<g mask="url(#mask0_3071_4745)">
<rect x="-8.05847" y="-19.8633" width="174.707" height="80.7411" rx="13.9209" fill="url(#paint2_linear_3071_4745)"/>
<path d="M27.9381 32.4393H14.1921C12.5032 32.4393 11.135 31.0281 11.135 29.2861C11.135 27.5441 12.5032 26.1328 14.1921 26.1328H27.9381C29.627 26.1328 30.9951 27.5441 30.9951 29.2861C30.9951 31.0281 29.627 32.4393 27.9381 32.4393Z" fill="#140533"/>
<path d="M31.3799 26.2861C30.3324 26.2861 29.3063 25.7128 28.7291 24.7205L21.8668 12.4603C21.033 10.9608 21.5247 9.02037 22.9784 8.16039C24.4321 7.30041 26.3133 7.80758 27.1471 9.30703L34.0094 21.5672C34.8432 23.0667 34.3515 25.0072 32.8978 25.8671C32.4061 26.1538 31.893 26.2861 31.3799 26.2861Z" fill="#140533"/>
<path d="M10.7502 26.2842C10.2372 26.2842 9.70272 26.1519 9.23241 25.8652C7.77871 25.0052 7.26564 23.0648 8.12076 21.5653L14.9831 9.30511C15.8168 7.80566 17.6981 7.27644 19.1518 8.15847C20.6055 9.01845 21.1185 10.9589 20.2634 12.4584L13.4011 24.7186C12.8453 25.7109 11.8191 26.2842 10.7502 26.2842Z" fill="#140533"/>
</g>
<defs>
<radialGradient id="paint0_radial_3071_4745" cx="0" cy="0" r="1" gradientUnits="userSpaceOnUse" gradientTransform="translate(8.3334 41.8742) scale(45.5046 45.5046)">
<stop stop-color="#0099FF"/>
<stop offset="0.6098" stop-color="#A033FF"/>
<stop offset="0.9348" stop-color="#FF5280"/>
<stop offset="1" stop-color="#FF7061"/>
</radialGradient>
<linearGradient id="paint1_linear_3071_4745" x1="49.0172" y1="21.5742" x2="159.017" y2="21.5742" gradientUnits="userSpaceOnUse">
<stop stop-color="#E74AA1"/>
<stop offset="1" stop-color="#635AFF"/>
</linearGradient>
<linearGradient id="paint2_linear_3071_4745" x1="-8.05847" y1="-19.8633" x2="53.4364" y2="113.199" gradientUnits="userSpaceOnUse">
<stop stop-color="#F4EDFF"/>
<stop offset="1" stop-color="#FCEBEF"/>
</linearGradient>
<clipPath id="clip0_3071_4745">
<rect width="41.7626" height="41.7626" fill="white" transform="translate(0.294098 0.332031)"/>
</clipPath>
</defs>
</svg>
