<svg width="90" height="43" viewBox="0 0 90 43" fill="none" xmlns="http://www.w3.org/2000/svg">
<mask id="mask0_3071_4761" style="mask-type:alpha" maskUnits="userSpaceOnUse" x="0" y="0" width="145" height="43">
<rect x="0.846191" y="0.332031" width="42.536" height="41.7626" rx="20.8813" fill="#1877F2"/>
<path d="M55.8608 11.2598L61.2932 25.318L66.7256 11.2598H69.2828L62.2965 29.0742H60.2777L53.2914 11.2598H55.8608ZM54.6251 11.2598L55.0288 22.7486V29.0742H52.2637V11.2598H54.6251ZM70.3105 11.2598V29.0742H67.5454V22.7486L67.9491 11.2598H70.3105ZM80.7852 20.0692C80.7852 19.3269 80.5731 18.7396 80.1489 18.3073C79.733 17.8668 79.1049 17.6466 78.2647 17.6466C77.7509 17.6466 77.3022 17.7363 76.9189 17.9158C76.5355 18.0871 76.2378 18.3195 76.0257 18.6132C75.8136 18.9068 75.7076 19.2331 75.7076 19.592H73.0403C73.0403 18.915 73.2606 18.2747 73.701 17.6711C74.1415 17.0593 74.7655 16.5617 75.573 16.1784C76.3805 15.7869 77.3267 15.5911 78.4116 15.5911C79.3904 15.5911 80.2591 15.7583 81.0176 16.0927C81.7844 16.419 82.3839 16.9166 82.8162 17.5854C83.2485 18.2543 83.4647 19.0903 83.4647 20.0936V26.0888C83.4647 26.619 83.5055 27.1288 83.587 27.6182C83.6686 28.0995 83.7869 28.5196 83.9418 28.8785V29.0742H81.2012C81.0707 28.7806 80.9687 28.4013 80.8953 27.9364C80.8219 27.4633 80.7852 27.0106 80.7852 26.5782V20.0692ZM81.2012 22.7609H79.06C77.8773 22.7609 76.976 22.9648 76.3561 23.3726C75.7361 23.7723 75.4262 24.3433 75.4262 25.0856C75.4262 25.6647 75.6219 26.15 76.0135 26.5415C76.405 26.9331 76.9678 27.1288 77.7019 27.1288C78.3463 27.1288 78.9132 26.9983 79.4026 26.7373C79.892 26.4681 80.2754 26.1378 80.5527 25.7463C80.83 25.3547 80.9769 24.9795 80.9932 24.6206L81.972 25.8441C81.8904 26.1867 81.7273 26.5579 81.4826 26.9575C81.246 27.3491 80.9279 27.7243 80.5282 28.0832C80.1286 28.4421 79.6555 28.7398 79.109 28.9763C78.5625 29.2047 77.9385 29.3189 77.237 29.3189C76.3561 29.3189 75.5771 29.1476 74.9001 28.805C74.2312 28.4625 73.7051 27.9934 73.3217 27.398C72.9465 26.7944 72.7589 26.1255 72.7589 25.3914C72.7589 23.9722 73.2891 22.8914 74.3495 22.1491C75.418 21.3987 76.8903 21.0235 78.7664 21.0235H81.2012V22.7609ZM88.7149 29.0742H86.0476V15.8358H88.5558L88.7149 18.6621V29.0742ZM87.21 21.9411C87.2263 20.7013 87.4547 19.6042 87.8951 18.6499C88.3438 17.6955 88.9637 16.9492 89.7549 16.4108C90.5543 15.8643 91.4841 15.5911 92.5445 15.5911C93.4091 15.5911 94.1555 15.7542 94.7835 16.0805C95.4116 16.3986 95.901 16.9166 96.2518 17.6344C96.6025 18.344 96.7779 19.2902 96.7779 20.4729V29.0742H94.0984V20.4484C94.0984 19.7959 94.0046 19.2739 93.817 18.8823C93.6294 18.4908 93.352 18.2094 92.985 18.0381C92.6179 17.8668 92.1652 17.7812 91.6269 17.7812C91.0967 17.7812 90.6195 17.8913 90.1954 18.1115C89.7712 18.3318 89.4082 18.6376 89.1064 19.0292C88.8046 19.4125 88.5722 19.8571 88.409 20.3628C88.254 20.8604 88.1766 21.3946 88.1766 21.9656L87.21 21.9411ZM103.912 29.3189C102.86 29.3189 101.942 29.0294 101.159 28.4502C100.385 27.8629 99.7809 27.0636 99.3486 26.0521C98.9245 25.0407 98.7124 23.8906 98.7124 22.6018V22.3449C98.7124 20.999 98.9245 19.8204 99.3486 18.8089C99.7809 17.7893 100.385 16.9981 101.159 16.4353C101.942 15.8725 102.868 15.5911 103.937 15.5911C105.03 15.5911 105.939 15.8562 106.665 16.3864C107.399 16.9166 107.974 17.6629 108.39 18.6254C108.806 19.5797 109.08 20.7054 109.21 22.0023V22.9811C109.08 24.2454 108.806 25.3547 108.39 26.3091C107.983 27.2553 107.412 27.9934 106.677 28.5236C105.943 29.0538 105.022 29.3189 103.912 29.3189ZM104.585 27.1166C105.287 27.1166 105.866 26.9657 106.323 26.6639C106.779 26.3539 107.138 25.9461 107.399 25.4404C107.669 24.9347 107.868 24.3718 107.999 23.7519V21.2437C107.925 20.7706 107.803 20.3261 107.632 19.9101C107.469 19.4941 107.253 19.127 106.983 18.8089C106.714 18.4908 106.384 18.242 105.992 18.0626C105.601 17.875 105.14 17.7812 104.61 17.7812C103.843 17.7812 103.223 17.9892 102.75 18.4052C102.277 18.813 101.93 19.3636 101.71 20.0569C101.49 20.7502 101.38 21.5129 101.38 22.3449V22.6018C101.38 23.4338 101.49 24.1924 101.71 24.8776C101.93 25.5546 102.273 26.097 102.738 26.5048C103.211 26.9127 103.827 27.1166 104.585 27.1166ZM107.693 29.0742L107.448 26.407V10.281H110.128V29.0742H107.693ZM120.321 20.0692C120.321 19.3269 120.109 18.7396 119.685 18.3073C119.269 17.8668 118.641 17.6466 117.801 17.6466C117.287 17.6466 116.838 17.7363 116.455 17.9158C116.071 18.0871 115.774 18.3195 115.562 18.6132C115.349 18.9068 115.243 19.2331 115.243 19.592H112.576C112.576 18.915 112.796 18.2747 113.237 17.6711C113.677 17.0593 114.301 16.5617 115.109 16.1784C115.916 15.7869 116.863 15.5911 117.947 15.5911C118.926 15.5911 119.795 15.7583 120.553 16.0927C121.32 16.419 121.92 16.9166 122.352 17.5854C122.784 18.2543 123 19.0903 123 20.0936V26.0888C123 26.619 123.041 27.1288 123.123 27.6182C123.204 28.0995 123.323 28.5196 123.478 28.8785V29.0742H120.737C120.606 28.7806 120.505 28.4013 120.431 27.9364C120.358 27.4633 120.321 27.0106 120.321 26.5782V20.0692ZM120.737 22.7609H118.596C117.413 22.7609 116.512 22.9648 115.892 23.3726C115.272 23.7723 114.962 24.3433 114.962 25.0856C114.962 25.6647 115.158 26.15 115.549 26.5415C115.941 26.9331 116.504 27.1288 117.238 27.1288C117.882 27.1288 118.449 26.9983 118.938 26.7373C119.428 26.4681 119.811 26.1378 120.089 25.7463C120.366 25.3547 120.513 24.9795 120.529 24.6206L121.508 25.8441C121.426 26.1867 121.263 26.5579 121.018 26.9575C120.782 27.3491 120.464 27.7243 120.064 28.0832C119.664 28.4421 119.191 28.7398 118.645 28.9763C118.098 29.2047 117.474 29.3189 116.773 29.3189C115.892 29.3189 115.113 29.1476 114.436 28.805C113.767 28.4625 113.241 27.9934 112.858 27.398C112.482 26.7944 112.295 26.1255 112.295 25.3914C112.295 23.9722 112.825 22.8914 113.885 22.1491C114.954 21.3987 116.426 21.0235 118.302 21.0235H120.737V22.7609ZM128.263 29.0742H125.596V15.8358H128.116L128.263 18.5031V29.0742ZM126.734 21.9411C126.734 20.7258 126.933 19.6409 127.333 18.6866C127.741 17.7322 128.336 16.9777 129.119 16.4231C129.911 15.8684 130.894 15.5911 132.068 15.5911C133.292 15.5911 134.295 15.9541 135.078 16.68C135.869 17.406 136.265 18.5969 136.265 20.2527V29.0742H133.597V20.4484C133.597 19.7959 133.491 19.2739 133.279 18.8823C133.067 18.4908 132.77 18.2094 132.386 18.0381C132.003 17.8668 131.546 17.7812 131.016 17.7812C130.42 17.7812 129.915 17.8913 129.499 18.1115C129.091 18.3318 128.761 18.6376 128.508 19.0292C128.255 19.4125 128.071 19.8571 127.957 20.3628C127.843 20.8604 127.786 21.3946 127.786 21.9656L126.734 21.9411ZM134.686 21.3661C134.695 20.3383 134.894 19.3881 135.286 18.5153C135.686 17.6344 136.273 16.9288 137.048 16.3986C137.823 15.8603 138.773 15.5911 139.899 15.5911C140.82 15.5911 141.607 15.7583 142.26 16.0927C142.913 16.419 143.41 16.941 143.753 17.6588C144.103 18.3685 144.279 19.2983 144.279 20.4484V29.0742H141.599V20.4362C141.599 19.7429 141.493 19.2045 141.281 18.8212C141.077 18.4378 140.784 18.1686 140.4 18.0136C140.017 17.8587 139.564 17.7812 139.042 17.7812C138.569 17.7812 138.153 17.8668 137.794 18.0381C137.435 18.2013 137.133 18.4337 136.889 18.7355C136.652 19.0292 136.469 19.3677 136.338 19.751C136.216 20.1344 136.155 20.5463 136.155 20.9868L134.686 21.3661Z" fill="#1877F2"/>
</mask>
<g mask="url(#mask0_3071_4761)">
<rect x="-13.7708" y="-20.5508" width="171.227" height="80.7411" rx="13.9209" fill="url(#paint0_linear_3071_4761)"/>
</g>
<g clip-path="url(#clip0_3071_4761)">
<path fill-rule="evenodd" clip-rule="evenodd" d="M22.1017 10.4102H11.6538L22.1017 20.858H11.6538L22.1017 31.3059H32.5495L22.1017 20.858H32.5495L22.1017 10.4102Z" fill="#140533"/>
</g>
<defs>
<linearGradient id="paint0_linear_3071_4761" x1="-13.7708" y1="-20.5508" x2="48.5238" y2="111.557" gradientUnits="userSpaceOnUse">
<stop stop-color="#F4EDFF"/>
<stop offset="1" stop-color="#FCEBEF"/>
</linearGradient>
<clipPath id="clip0_3071_4761">
<rect width="20.8957" height="20.8957" fill="white" transform="translate(11.6538 10.4102)"/>
</clipPath>
</defs>
</svg>
