<svg width="44" height="42" viewBox="0 0 44 42" fill="none" xmlns="http://www.w3.org/2000/svg">
<mask id="mask0_3071_4795" style="mask-type:alpha" maskUnits="userSpaceOnUse" x="0" y="0" width="44" height="42">
<path fill-rule="evenodd" clip-rule="evenodd" d="M23.7792 0.164062H20.6933V13.3721L15.5748 1.12582L12.7136 2.24329L17.9647 14.8069L8.05281 5.22538L5.87075 7.33473L15.3708 16.5181L3.05945 11.3185L1.82395 14.052L14.8508 19.5538H0.634888V22.5369H14.8508L1.82396 28.0387L3.05945 30.7723L15.3708 25.5727L5.87075 34.756L8.05281 36.8653L17.9647 27.2839L12.7136 39.8475L15.5748 40.9649L20.6933 28.7186V41.9267H23.7792V28.7186L28.8977 40.9649L31.7588 39.8475L26.5079 27.2839L36.4197 36.8653L38.6016 34.756L29.1016 25.5727L41.4131 30.7723L42.6484 28.0387L29.6217 22.5369H43.8376V19.5538H29.6215L42.6484 14.052L41.4131 11.3185L29.1016 16.5181L38.6016 7.33471L36.4197 5.22538L26.5079 14.8068L31.7588 2.24329L28.8977 1.12582L23.7792 13.3721V0.164062Z" fill="#FF4A00"/>
</mask>
<g mask="url(#mask0_3071_4795)">
<rect x="-31.3831" y="-20.0156" width="105.799" height="80.7411" rx="13.9209" fill="url(#paint0_linear_3071_4795)"/>
</g>
<defs>
<linearGradient id="paint0_linear_3071_4795" x1="-31.3831" y1="-20.0156" x2="46.4958" y2="82.0326" gradientUnits="userSpaceOnUse">
<stop stop-color="#F4EDFF"/>
<stop offset="1" stop-color="#FCEBEF"/>
</linearGradient>
</defs>
</svg>
