<svg width="146" height="42" viewBox="0 0 146 42" fill="none" xmlns="http://www.w3.org/2000/svg">
<mask id="mask0_3071_4800" style="mask-type:alpha" maskUnits="userSpaceOnUse" x="0" y="0" width="144" height="42">
<rect x="0.271545" y="0.164062" width="42.536" height="41.7626" rx="20.8813" fill="#1877F2"/>
<path d="M55.2862 11.0958L60.7186 25.154L66.151 11.0958H68.7081L61.7219 28.9102H59.7031L52.7168 11.0958H55.2862ZM54.0504 11.0958L54.4542 22.5846V28.9102H51.689V11.0958H54.0504ZM69.7359 11.0958V28.9102H66.9707V22.5846L67.3745 11.0958H69.7359ZM80.2105 19.9051C80.2105 19.1628 79.9985 18.5755 79.5743 18.1432C79.1583 17.7028 78.5302 17.4825 77.6901 17.4825C77.1762 17.4825 76.7276 17.5723 76.3442 17.7517C75.9609 17.923 75.6631 18.1555 75.4511 18.4491C75.239 18.7428 75.1329 19.069 75.1329 19.4279H72.4657C72.4657 18.7509 72.6859 18.1106 73.1264 17.507C73.5668 16.8952 74.1908 16.3977 74.9984 16.0143C75.8059 15.6228 76.7521 15.427 77.8369 15.427C78.8157 15.427 79.6844 15.5942 80.443 15.9287C81.2097 16.2549 81.8093 16.7525 82.2416 17.4214C82.6739 18.0902 82.89 18.9263 82.89 19.9296V25.9248C82.89 26.455 82.9308 26.9648 83.0124 27.4542C83.0939 27.9354 83.2122 28.3555 83.3672 28.7144V28.9102H80.6265C80.496 28.6165 80.3941 28.2372 80.3206 27.7723C80.2472 27.2992 80.2105 26.8465 80.2105 26.4142V19.9051ZM80.6265 22.5968H78.4854C77.3026 22.5968 76.4013 22.8007 75.7814 23.2086C75.1615 23.6083 74.8515 24.1792 74.8515 24.9215C74.8515 25.5006 75.0473 25.986 75.4388 26.3775C75.8303 26.769 76.3932 26.9648 77.1273 26.9648C77.7717 26.9648 78.3385 26.8343 78.828 26.5732C79.3174 26.3041 79.7007 25.9737 79.9781 25.5822C80.2554 25.1907 80.4022 24.8155 80.4185 24.4566L81.3973 25.6801C81.3158 26.0227 81.1526 26.3938 80.9079 26.7935C80.6714 27.185 80.3533 27.5602 79.9536 27.9191C79.5539 28.278 79.0808 28.5757 78.5343 28.8123C77.9878 29.0407 77.3638 29.1549 76.6623 29.1549C75.7814 29.1549 75.0024 28.9836 74.3254 28.641C73.6566 28.2984 73.1305 27.8294 72.7471 27.2339C72.3719 26.6303 72.1843 25.9615 72.1843 25.2274C72.1843 23.8081 72.7145 22.7273 73.7748 21.9851C74.8434 21.2346 76.3157 20.8594 78.1917 20.8594H80.6265V22.5968ZM88.1403 28.9102H85.473V15.6717H87.9812L88.1403 18.498V28.9102ZM86.6353 21.7771C86.6516 20.5372 86.88 19.4402 87.3205 18.4858C87.7691 17.5315 88.389 16.7851 89.1802 16.2468C89.9796 15.7003 90.9095 15.427 91.9699 15.427C92.8345 15.427 93.5808 15.5902 94.2089 15.9164C94.837 16.2345 95.3264 16.7525 95.6771 17.4703C96.0278 18.1799 96.2032 19.1261 96.2032 20.3088V28.9102H93.5237V20.2844C93.5237 19.6318 93.4299 19.1098 93.2423 18.7183C93.0547 18.3268 92.7774 18.0453 92.4103 17.8741C92.0433 17.7028 91.5906 17.6171 91.0522 17.6171C90.522 17.6171 90.0449 17.7272 89.6207 17.9475C89.1966 18.1677 88.8336 18.4736 88.5318 18.8651C88.23 19.2485 87.9975 19.693 87.8344 20.1987C87.6794 20.6963 87.6019 21.2306 87.6019 21.8015L86.6353 21.7771ZM103.338 29.1549C102.285 29.1549 101.368 28.8653 100.585 28.2862C99.8099 27.6989 99.2063 26.8995 98.774 25.8881C98.3498 24.8766 98.1377 23.7265 98.1377 22.4378V22.1808C98.1377 20.835 98.3498 19.6563 98.774 18.6449C99.2063 17.6253 99.8099 16.8341 100.585 16.2713C101.368 15.7084 102.294 15.427 103.362 15.427C104.455 15.427 105.365 15.6921 106.091 16.2223C106.825 16.7525 107.4 17.4988 107.816 18.4613C108.232 19.4157 108.505 20.5413 108.635 21.8382V22.8171C108.505 24.0814 108.232 25.1907 107.816 26.145C107.408 27.0912 106.837 27.8294 106.103 28.3596C105.369 28.8898 104.447 29.1549 103.338 29.1549ZM104.011 26.9525C104.712 26.9525 105.291 26.8016 105.748 26.4998C106.205 26.1899 106.564 25.782 106.825 25.2763C107.094 24.7706 107.294 24.2078 107.424 23.5879V21.0797C107.351 20.6066 107.228 20.162 107.057 19.746C106.894 19.33 106.678 18.963 106.409 18.6449C106.14 18.3268 105.809 18.078 105.418 17.8985C105.026 17.7109 104.565 17.6171 104.035 17.6171C103.268 17.6171 102.648 17.8251 102.175 18.2411C101.702 18.6489 101.356 19.1995 101.135 19.8929C100.915 20.5862 100.805 21.3488 100.805 22.1808V22.4378C100.805 23.2698 100.915 24.0283 101.135 24.7135C101.356 25.3905 101.698 25.9329 102.163 26.3408C102.636 26.7486 103.252 26.9525 104.011 26.9525ZM107.118 28.9102L106.874 26.2429V10.117H109.553V28.9102H107.118ZM119.746 19.9051C119.746 19.1628 119.534 18.5755 119.11 18.1432C118.694 17.7028 118.066 17.4825 117.226 17.4825C116.712 17.4825 116.263 17.5723 115.88 17.7517C115.497 17.923 115.199 18.1555 114.987 18.4491C114.775 18.7428 114.669 19.069 114.669 19.4279H112.002C112.002 18.7509 112.222 18.1106 112.662 17.507C113.103 16.8952 113.727 16.3977 114.534 16.0143C115.342 15.6228 116.288 15.427 117.373 15.427C118.352 15.427 119.22 15.5942 119.979 15.9287C120.746 16.2549 121.345 16.7525 121.777 17.4214C122.21 18.0902 122.426 18.9263 122.426 19.9296V25.9248C122.426 26.455 122.467 26.9648 122.548 27.4542C122.63 27.9354 122.748 28.3555 122.903 28.7144V28.9102H120.162C120.032 28.6165 119.93 28.2372 119.856 27.7723C119.783 27.2992 119.746 26.8465 119.746 26.4142V19.9051ZM120.162 22.5968H118.021C116.838 22.5968 115.937 22.8007 115.317 23.2086C114.697 23.6083 114.387 24.1792 114.387 24.9215C114.387 25.5006 114.583 25.986 114.975 26.3775C115.366 26.769 115.929 26.9648 116.663 26.9648C117.307 26.9648 117.874 26.8343 118.364 26.5732C118.853 26.3041 119.237 25.9737 119.514 25.5822C119.791 25.1907 119.938 24.8155 119.954 24.4566L120.933 25.6801C120.852 26.0227 120.688 26.3938 120.444 26.7935C120.207 27.185 119.889 27.5602 119.489 27.9191C119.09 28.278 118.617 28.5757 118.07 28.8123C117.524 29.0407 116.9 29.1549 116.198 29.1549C115.317 29.1549 114.538 28.9836 113.861 28.641C113.192 28.2984 112.666 27.8294 112.283 27.2339C111.908 26.6303 111.72 25.9615 111.72 25.2274C111.72 23.8081 112.25 22.7273 113.311 21.9851C114.379 21.2346 115.852 20.8594 117.728 20.8594H120.162V22.5968ZM127.688 28.9102H125.021V15.6717H127.542L127.688 18.339V28.9102ZM126.159 21.7771C126.159 20.5617 126.359 19.4769 126.758 18.5225C127.166 17.5682 127.762 16.8137 128.545 16.259C129.336 15.7044 130.319 15.427 131.493 15.427C132.717 15.427 133.72 15.79 134.503 16.516C135.295 17.2419 135.69 18.4328 135.69 20.0886V28.9102H133.023V20.2844C133.023 19.6318 132.917 19.1098 132.705 18.7183C132.493 18.3268 132.195 18.0453 131.812 17.8741C131.428 17.7028 130.971 17.6171 130.441 17.6171C129.846 17.6171 129.34 17.7272 128.924 17.9475C128.516 18.1677 128.186 18.4736 127.933 18.8651C127.68 19.2485 127.497 19.693 127.382 20.1987C127.268 20.6963 127.211 21.2306 127.211 21.8015L126.159 21.7771ZM134.112 21.202C134.12 20.1743 134.32 19.224 134.711 18.3512C135.111 17.4703 135.698 16.7647 136.473 16.2345C137.248 15.6962 138.198 15.427 139.324 15.427C140.246 15.427 141.033 15.5942 141.685 15.9287C142.338 16.2549 142.835 16.777 143.178 17.4948C143.529 18.2044 143.704 19.1343 143.704 20.2844V28.9102H141.025V20.2721C141.025 19.5788 140.919 19.0405 140.707 18.6571C140.503 18.2737 140.209 18.0046 139.826 17.8496C139.442 17.6946 138.99 17.6171 138.467 17.6171C137.994 17.6171 137.578 17.7028 137.22 17.8741C136.861 18.0372 136.559 18.2697 136.314 18.5715C136.078 18.8651 135.894 19.2036 135.764 19.587C135.641 19.9703 135.58 20.3823 135.58 20.8227L134.112 21.202Z" fill="#1877F2"/>
</mask>
<g mask="url(#mask0_3071_4800)">
<rect x="-14.3453" y="-20.7188" width="171.227" height="80.7411" rx="13.9209" fill="url(#paint0_linear_3071_4800)"/>
</g>
<g clip-path="url(#clip0_3071_4800)">
<path fill-rule="evenodd" clip-rule="evenodd" d="M21.5271 10.25H11.0792L21.5271 20.6979H11.0792L21.5271 31.1457H31.9749L21.5271 20.6979H31.9749L21.5271 10.25Z" fill="#140533"/>
</g>
<defs>
<linearGradient id="paint0_linear_3071_4800" x1="-14.3453" y1="-20.7188" x2="47.9492" y2="111.389" gradientUnits="userSpaceOnUse">
<stop stop-color="#F4EDFF"/>
<stop offset="1" stop-color="#FCEBEF"/>
</linearGradient>
<clipPath id="clip0_3071_4800">
<rect width="20.8957" height="20.8957" fill="white" transform="translate(11.0792 10.25)"/>
</clipPath>
</defs>
</svg>
