<svg width="134" height="42" viewBox="0 0 134 42" fill="none" xmlns="http://www.w3.org/2000/svg">
<mask id="mask0_3071_4809" style="mask-type:alpha" maskUnits="userSpaceOnUse" x="0" y="0" width="158" height="42">
<g clip-path="url(#clip0_3071_4809)">
<path fill-rule="evenodd" clip-rule="evenodd" d="M21.3148 0.164062C9.55345 0.164062 0.433533 8.78283 0.433533 20.4189C0.433533 26.5058 2.92885 31.7679 6.99027 35.4013C7.32959 35.7041 7.5384 36.1321 7.54884 36.5915L7.66369 40.3084C7.70023 41.4934 8.92179 42.266 10.0076 41.7857L14.1526 39.9586C14.5023 39.802 14.8991 39.7759 15.2697 39.8751C17.1751 40.3971 19.2006 40.679 21.3148 40.679C33.0762 40.679 42.1962 32.0603 42.1962 20.4242C42.1962 8.78805 33.0762 0.164062 21.3148 0.164062Z" fill="url(#paint0_radial_3071_4809)"/>
</g>
<path d="M66.4938 12.8177V15.9499H60.3028V29.9102H56.0449V15.9499H49.854V12.8177H66.4938ZM75.8292 26.3253V28.6132C74.4425 29.6247 72.7255 30.1304 70.6782 30.1304C68.6471 30.1304 67.0239 29.588 65.8086 28.5031C64.5932 27.4101 63.9856 25.9664 63.9856 24.1719C63.9856 22.41 64.5565 20.9622 65.6985 19.8284C66.8404 18.6946 68.2964 18.1277 70.0664 18.1277C71.8446 18.1277 73.3006 18.7272 74.4344 19.9263C75.5763 21.1172 76.1106 22.7159 76.0372 24.7225H67.7417C67.8152 25.7665 68.1863 26.57 68.8551 27.1328C69.524 27.6956 70.4212 27.977 71.5469 27.977C72.909 27.977 74.3365 27.4264 75.8292 26.3253ZM67.8152 22.8138H72.8316C72.6358 21.1335 71.7997 20.2933 70.3234 20.2933C68.8307 20.2933 67.9946 21.1335 67.8152 22.8138ZM90.0464 18.3602L85.4827 24.0006L90.389 29.9102H86.1801L83.4517 26.3253L80.8211 29.9102H76.7346L81.4451 24.0006L76.7346 18.3602H80.9679L83.4517 21.6881L85.813 18.3602H90.0464ZM102.477 26.3253V28.6132C101.091 29.6247 99.3737 30.1304 97.3263 30.1304C95.2953 30.1304 93.6721 29.588 92.4567 28.5031C91.2414 27.4101 90.6337 25.9664 90.6337 24.1719C90.6337 22.41 91.2047 20.9622 92.3466 19.8284C93.4886 18.6946 94.9445 18.1277 96.7146 18.1277C98.4927 18.1277 99.9487 18.7272 101.083 19.9263C102.224 21.1172 102.759 22.7159 102.685 24.7225H94.3899C94.4633 25.7665 94.8344 26.57 95.5033 27.1328C96.1721 27.6956 97.0694 27.977 98.195 27.977C99.5572 27.977 100.985 27.4264 102.477 26.3253ZM94.4633 22.8138H99.4797C99.2839 21.1335 98.4479 20.2933 96.9715 20.2933C95.4788 20.2933 94.6427 21.1335 94.4633 22.8138ZM108.668 18.3602V20.0119C109.737 18.7558 110.989 18.1277 112.424 18.1277C113.624 18.1277 114.623 18.5111 115.422 19.2778C116.23 20.0446 116.633 21.1416 116.633 22.5691V29.9102H113V22.8749C113 21.3333 112.4 20.5625 111.201 20.5625C110.345 20.5625 109.5 21.1987 108.668 22.4712V29.9102H105.034V18.3602H108.668ZM119.191 18.3602H130.471L124.55 27.4264H130.471V29.9102H118.615L124.55 20.8439H119.191V18.3602ZM143.465 26.3253V28.6132C142.078 29.6247 140.361 30.1304 138.314 30.1304C136.283 30.1304 134.66 29.588 133.444 28.5031C132.229 27.4101 131.621 25.9664 131.621 24.1719C131.621 22.41 132.192 20.9622 133.334 19.8284C134.476 18.6946 135.932 18.1277 137.702 18.1277C139.48 18.1277 140.936 18.7272 142.07 19.9263C143.212 21.1172 143.746 22.7159 143.673 24.7225H135.378C135.451 25.7665 135.822 26.57 136.491 27.1328C137.16 27.6956 138.057 27.977 139.183 27.977C140.545 27.977 141.972 27.4264 143.465 26.3253ZM135.451 22.8138H140.467C140.272 21.1335 139.436 20.2933 137.959 20.2933C136.467 20.2933 135.63 21.1335 135.451 22.8138ZM149.656 18.3602V20.0119C150.725 18.7558 151.977 18.1277 153.412 18.1277C154.611 18.1277 155.61 18.5111 156.41 19.2778C157.217 20.0446 157.621 21.1416 157.621 22.5691V29.9102H153.987V22.8749C153.987 21.3333 153.388 20.5625 152.189 20.5625C151.332 20.5625 150.488 21.1987 149.656 22.4712V29.9102H146.022V18.3602H149.656Z" fill="url(#paint1_linear_3071_4809)"/>
</mask>
<g mask="url(#mask0_3071_4809)">
<rect x="-7.91895" y="-20.0195" width="174.707" height="80.7411" rx="13.9209" fill="url(#paint2_linear_3071_4809)"/>
<path d="M28.0775 32.287H14.3315C12.6426 32.287 11.2744 30.8757 11.2744 29.1337C11.2744 27.3917 12.6426 25.9805 14.3315 25.9805H28.0775C29.7663 25.9805 31.1345 27.3917 31.1345 29.1337C31.1345 30.8757 29.7663 32.287 28.0775 32.287Z" fill="#140533"/>
<path d="M31.5193 26.1338C30.4718 26.1338 29.4457 25.5604 28.8685 24.5682L22.0062 12.3079C21.1724 10.8085 21.6641 8.86803 23.1178 8.00805C24.5715 7.14807 26.4528 7.65524 27.2865 9.15469L34.1488 21.4149C34.9826 22.9143 34.4909 24.8548 33.0372 25.7148C32.5455 26.0014 32.0324 26.1338 31.5193 26.1338Z" fill="#140533"/>
<path d="M10.8896 26.1318C10.3766 26.1318 9.84213 25.9995 9.37181 25.7129C7.91812 24.8529 7.40504 22.9124 8.26016 21.413L15.1225 9.15277C15.9562 7.65332 17.8375 7.1241 19.2912 8.00613C20.7449 8.86611 21.2579 10.8066 20.4028 12.306L13.5405 24.5662C12.9847 25.5585 11.9585 26.1318 10.8896 26.1318Z" fill="#140533"/>
</g>
<defs>
<radialGradient id="paint0_radial_3071_4809" cx="0" cy="0" r="1" gradientUnits="userSpaceOnUse" gradientTransform="translate(8.47284 41.7062) scale(45.5046 45.5046)">
<stop stop-color="#0099FF"/>
<stop offset="0.6098" stop-color="#A033FF"/>
<stop offset="0.9348" stop-color="#FF5280"/>
<stop offset="1" stop-color="#FF7061"/>
</radialGradient>
<linearGradient id="paint1_linear_3071_4809" x1="49.1566" y1="21.4102" x2="159.157" y2="21.4102" gradientUnits="userSpaceOnUse">
<stop stop-color="#E74AA1"/>
<stop offset="1" stop-color="#635AFF"/>
</linearGradient>
<linearGradient id="paint2_linear_3071_4809" x1="-7.91895" y1="-20.0195" x2="53.5759" y2="113.043" gradientUnits="userSpaceOnUse">
<stop stop-color="#F4EDFF"/>
<stop offset="1" stop-color="#FCEBEF"/>
</linearGradient>
<clipPath id="clip0_3071_4809">
<rect width="41.7626" height="41.7626" fill="white" transform="translate(0.433533 0.164062)"/>
</clipPath>
</defs>
</svg>
