<svg width="130" height="36" viewBox="0 0 130 36" fill="none" xmlns="http://www.w3.org/2000/svg">
<mask id="mask0_3071_4833" style="mask-type:alpha" maskUnits="userSpaceOnUse" x="0" y="0" width="130" height="36">
<path d="M0.458679 0.496094H16.4334V3.91929H0.458679V0.496094ZM0.458679 6.77185H16.4334V10.195H0.458679V6.77185ZM0.458679 13.0477V16.4708H16.4334V13.0477H0.458679ZM31.8376 0.496094H35.2608V16.4709H31.8376V0.496094ZM25.5618 0.496094H28.9849V16.4709H25.5618V0.496094ZM19.2861 0.496094V16.4708H22.7092V0.496094H19.2861ZM19.2861 31.8751H35.2608V35.2983H19.2861V31.8751ZM19.2861 25.5993H35.2608V29.0224H19.2861V25.5993ZM30.4114 19.3235H19.2861V22.7466H35.2609V19.3235H30.4114ZM0.458679 19.3235H3.88187V35.2983H0.458679V19.3235ZM6.73449 19.3235H10.1576V35.2983H6.73449V19.3235ZM13.0102 19.3235V35.2982H16.4334V19.3235H13.0102Z" fill="#36C5F0"/>
<mask id="mask1_3071_4833" style="mask-type:alpha" maskUnits="userSpaceOnUse" x="0" y="18" width="17" height="18">
<rect x="0.458862" y="18.8828" width="16.4161" height="16.4161" fill="#D9D9D9"/>
</mask>
<g mask="url(#mask1_3071_4833)">
<path d="M0.458862 0.5H16.4336V3.9232H0.458862V0.5ZM0.458862 6.77576H16.4336V10.1989H0.458862V6.77576ZM0.458862 13.0516V16.4747H16.4336V13.0516H0.458862ZM31.8378 0.5H35.261V16.4748H31.8378V0.5ZM25.562 0.5H28.9851V16.4748H25.562V0.5ZM19.2862 0.5V16.4747H22.7094V0.5H19.2862ZM19.2862 31.879H35.261V35.3022H19.2862V31.879ZM19.2862 25.6032H35.261V29.0263H19.2862V25.6032ZM30.4116 19.3274H19.2862V22.7505H35.2611V19.3274H30.4116ZM0.458862 19.3274H3.88205V35.3022H0.458862V19.3274ZM6.73468 19.3274H10.1578V35.3022H6.73468V19.3274ZM13.0104 19.3274V35.3021H16.4336V19.3274H13.0104Z" fill="#E01E5A"/>
</g>
<mask id="mask2_3071_4833" style="mask-type:alpha" maskUnits="userSpaceOnUse" x="0" y="0" width="36" height="36">
<path d="M0.458618 0.496094H16.4334V3.91929H0.458618V0.496094ZM0.458618 6.77185H16.4334V10.195H0.458618V6.77185ZM0.458618 13.0477V16.4708H16.4334V13.0477H0.458618ZM31.8376 0.496094H35.2607V16.4709H31.8376V0.496094ZM25.5617 0.496094H28.9849V16.4709H25.5617V0.496094ZM19.286 0.496094V16.4708H22.7091V0.496094H19.286ZM19.286 31.8751H35.2607V35.2983H19.286V31.8751ZM19.286 25.5993H35.2607V29.0224H19.286V25.5993ZM30.4113 19.3235H19.286V22.7466H35.2608V19.3235H30.4113ZM0.458618 19.3235H3.88181V35.2983H0.458618V19.3235ZM6.73443 19.3235H10.1576V35.2983H6.73443V19.3235ZM13.0102 19.3235V35.2982H16.4334V19.3235H13.0102Z" fill="black"/>
</mask>
<g mask="url(#mask2_3071_4833)">
<rect x="18.844" y="0.496094" width="16.4161" height="16.4161" fill="#2EB67D"/>
</g>
<mask id="mask3_3071_4833" style="mask-type:alpha" maskUnits="userSpaceOnUse" x="0" y="0" width="36" height="36">
<path d="M0.458618 0.496094H16.4334V3.91929H0.458618V0.496094ZM0.458618 6.77185H16.4334V10.195H0.458618V6.77185ZM0.458618 13.0477V16.4708H16.4334V13.0477H0.458618ZM31.8376 0.496094H35.2607V16.4709H31.8376V0.496094ZM25.5617 0.496094H28.9849V16.4709H25.5617V0.496094ZM19.286 0.496094V16.4708H22.7091V0.496094H19.286ZM19.286 31.8751H35.2607V35.2983H19.286V31.8751ZM19.286 25.5993H35.2607V29.0224H19.286V25.5993ZM30.4113 19.3235H19.286V22.7466H35.2608V19.3235H30.4113ZM0.458618 19.3235H3.88181V35.2983H0.458618V19.3235ZM6.73443 19.3235H10.1576V35.2983H6.73443V19.3235ZM13.0102 19.3235V35.2982H16.4334V19.3235H13.0102Z" fill="black"/>
</mask>
<g mask="url(#mask3_3071_4833)">
<rect x="18.8453" y="18.8789" width="16.4161" height="16.4161" fill="#ECB22E"/>
</g>
<path d="M52.1163 24.3375H61.4503V27.7578H46.5911V25.44L55.7998 12.6356H46.7289V9.21521H61.325V11.533L52.1163 24.3375ZM69.1923 13.8383C70.8043 13.8383 72.0989 14.0263 73.0762 14.4021C74.0534 14.778 74.7759 15.4003 75.2437 16.2689C75.7114 17.1292 75.9453 18.3069 75.9453 19.802V27.7578H72.4873L72.1992 26.4423H72.0112C71.5602 26.9685 71.0006 27.3611 70.3324 27.62C69.6642 27.8789 68.925 28.0084 68.1148 28.0084C67.1041 28.0084 66.2396 27.8413 65.5213 27.5072C64.803 27.1731 64.2559 26.7054 63.8801 26.104C63.5125 25.5026 63.3288 24.8094 63.3288 24.0242C63.3288 22.7212 63.8132 21.7148 64.7821 21.0048C65.7594 20.2865 67.2879 19.8605 69.3677 19.7269L71.8609 19.5389V19.4888C71.8609 18.8373 71.7481 18.3236 71.5226 17.9478C71.3055 17.5719 70.9505 17.3046 70.4577 17.1459C69.9732 16.9872 69.3134 16.9079 68.4781 16.9079C67.8851 16.9079 67.2294 16.958 66.5111 17.0582C65.7928 17.1585 65.1246 17.3046 64.5065 17.4967V14.4522C65.2081 14.2518 65.9765 14.1014 66.8118 14.0012C67.647 13.8926 68.4405 13.8383 69.1923 13.8383ZM69.4303 25.2145C69.873 25.2145 70.3031 25.1435 70.7208 25.0015C71.1468 24.8595 71.5268 24.634 71.8609 24.3249V21.8192L69.7561 21.982C68.9459 22.0489 68.3612 22.2201 68.002 22.4957C67.6512 22.7714 67.4758 23.1597 67.4758 23.6609C67.4758 24.1537 67.6387 24.5379 67.9644 24.8135C68.2985 25.0808 68.7872 25.2145 69.4303 25.2145ZM79.0557 27.7578V7.51129H83.2404V27.7578H79.0557ZM91.607 13.8383C93.2191 13.8383 94.5137 14.0263 95.491 14.4021C96.4682 14.778 97.1907 15.4003 97.6585 16.2689C98.1262 17.1292 98.3601 18.3069 98.3601 19.802V27.7578H94.9021L94.614 26.4423H94.426C93.975 26.9685 93.4154 27.3611 92.7472 27.62C92.079 27.8789 91.3398 28.0084 90.5296 28.0084C89.5189 28.0084 88.6544 27.8413 87.9361 27.5072C87.2178 27.1731 86.6707 26.7054 86.2948 26.104C85.9273 25.5026 85.7436 24.8094 85.7436 24.0242C85.7436 22.7212 86.228 21.7148 87.1969 21.0048C88.1742 20.2865 89.7027 19.8605 91.7825 19.7269L94.2757 19.5389V19.4888C94.2757 18.8373 94.1629 18.3236 93.9374 17.9478C93.7202 17.5719 93.3653 17.3046 92.8725 17.1459C92.388 16.9872 91.7282 16.9079 90.8929 16.9079C90.2999 16.9079 89.6442 16.958 88.9259 17.0582C88.2076 17.1585 87.5394 17.3046 86.9213 17.4967V14.4522C87.6229 14.2518 88.3913 14.1014 89.2266 14.0012C90.0618 13.8926 90.8553 13.8383 91.607 13.8383ZM91.8451 25.2145C92.2878 25.2145 92.7179 25.1435 93.1356 25.0015C93.5615 24.8595 93.9416 24.634 94.2757 24.3249V21.8192L92.1708 21.982C91.3606 22.0489 90.776 22.2201 90.4168 22.4957C90.066 22.7714 89.8906 23.1597 89.8906 23.6609C89.8906 24.1537 90.0535 24.5379 90.3792 24.8135C90.7133 25.0808 91.202 25.2145 91.8451 25.2145ZM108.499 28.0209C106.002 28.0209 104.097 27.4237 102.786 26.2293C101.475 25.0349 100.819 23.2725 100.819 20.9422C100.819 18.5951 101.504 16.8244 102.874 15.6299C104.244 14.4355 106.244 13.8383 108.875 13.8383C110.145 13.8383 111.276 13.9553 112.27 14.1891V17.4341C111.218 17.2336 110.241 17.1334 109.339 17.1334C107.869 17.1334 106.791 17.4383 106.106 18.048C105.43 18.6494 105.091 19.6057 105.091 20.9171C105.091 22.2284 105.417 23.189 106.069 23.7987C106.72 24.4084 107.702 24.7133 109.013 24.7133C109.506 24.7133 109.998 24.6757 110.491 24.6006C110.984 24.5254 111.577 24.4043 112.27 24.2372V27.4822C111.126 27.8413 109.869 28.0209 108.499 28.0209ZM124.855 27.7578L120.933 22.408H118.991V27.7578H114.807V7.51129H118.991V19.0378H120.908L124.504 14.0513H128.989L124.354 20.6289L129.44 27.7578H124.855Z" fill="black"/>
</mask>
<g mask="url(#mask0_3071_4833)">
<rect x="-19.7266" y="-24.5625" width="169.835" height="80.7411" rx="13.9209" fill="url(#paint0_linear_3071_4833)"/>
</g>
<defs>
<linearGradient id="paint0_linear_3071_4833" x1="-19.7266" y1="-24.5625" x2="42.8911" y2="107.151" gradientUnits="userSpaceOnUse">
<stop stop-color="#F4EDFF"/>
<stop offset="1" stop-color="#FCEBEF"/>
</linearGradient>
</defs>
</svg>
