<svg width="46" height="46" viewBox="0 0 46 46" fill="none" xmlns="http://www.w3.org/2000/svg">
<mask id="mask0_3071_4850" style="mask-type:alpha" maskUnits="userSpaceOnUse" x="0" y="0" width="46" height="46">
<g clip-path="url(#clip0_3071_4850)">
<path d="M0.365356 45.864L3.56303 34.2522C1.58609 30.8439 0.549007 26.9841 0.55981 23.0382C0.55981 10.6739 10.6714 0.621094 23.084 0.621094C29.112 0.621094 34.7728 2.9542 39.0184 7.19034C43.2747 11.4265 45.619 17.0603 45.6082 23.049C45.6082 35.4134 35.4966 45.4661 23.0732 45.4661H23.0624C19.2922 45.4661 15.5867 44.52 12.2918 42.7352L0.365356 45.864ZM12.8644 38.6819L13.545 39.0904C16.4186 40.7892 19.7135 41.6816 23.0732 41.6923H23.084C33.4008 41.6923 41.8055 33.3383 41.8055 23.0597C41.8055 18.0817 39.861 13.4048 36.3284 9.87825C32.7959 6.35171 28.0858 4.41642 23.084 4.41642C12.7672 4.40567 4.36245 12.7597 4.36245 23.0382C4.36245 26.554 5.34552 29.9838 7.22524 32.9512L7.66816 33.6609L5.77764 40.5311L12.8644 38.6819Z" fill="white"/>
<path d="M1.15393 45.0755L4.24358 33.8615C2.33145 30.5823 1.32678 26.8515 1.32678 23.0454C1.33758 11.1111 11.0927 1.40234 23.0839 1.40234C28.9067 1.40234 34.3622 3.66019 38.4674 7.74581C42.5725 11.8314 44.8303 17.2717 44.8303 23.0561C44.8303 34.9904 35.0644 44.6992 23.0839 44.6992H23.0731C19.4325 44.6992 15.8568 43.7853 12.6807 42.065L1.15393 45.0755Z" fill="url(#paint0_linear_3071_4850)"/>
<path d="M0.365356 45.864L3.56303 34.2522C1.58609 30.8439 0.549007 26.9841 0.55981 23.0382C0.55981 10.6739 10.6714 0.621094 23.084 0.621094C29.112 0.621094 34.7728 2.9542 39.0184 7.19034C43.2747 11.4265 45.619 17.0603 45.6082 23.049C45.6082 35.4134 35.4966 45.4661 23.0732 45.4661H23.0624C19.2922 45.4661 15.5867 44.52 12.2918 42.7352L0.365356 45.864ZM12.8644 38.6819L13.545 39.0904C16.4186 40.7892 19.7135 41.6816 23.0732 41.6923H23.084C33.4008 41.6923 41.8055 33.3383 41.8055 23.0597C41.8055 18.0817 39.861 13.4048 36.3284 9.87825C32.7959 6.35171 28.0858 4.41642 23.084 4.41642C12.7672 4.40567 4.36245 12.7597 4.36245 23.0382C4.36245 26.554 5.34552 29.9838 7.22524 32.9512L7.66816 33.6609L5.77764 40.5311L12.8644 38.6819Z" fill="url(#paint1_linear_3071_4850)"/>
</g>
</mask>
<g mask="url(#mask0_3071_4850)">
<rect x="-31.6528" y="-19.5625" width="105.799" height="80.7411" rx="13.9209" fill="url(#paint2_linear_3071_4850)"/>
<path fill-rule="evenodd" clip-rule="evenodd" d="M32.3346 22.9814L23.413 14L14.4915 22.9814H23.2941L14.4915 31.8431H32.3346L23.5319 22.9814H32.3346Z" fill="#140533"/>
</g>
<defs>
<linearGradient id="paint0_linear_3071_4850" x1="22.991" y1="45.0733" x2="22.991" y2="1.40082" gradientUnits="userSpaceOnUse">
<stop stop-color="#20B038"/>
<stop offset="1" stop-color="#60D66A"/>
</linearGradient>
<linearGradient id="paint1_linear_3071_4850" x1="22.9912" y1="45.8597" x2="22.9912" y2="0.621094" gradientUnits="userSpaceOnUse">
<stop stop-color="#F9F9F9"/>
<stop offset="1" stop-color="white"/>
</linearGradient>
<linearGradient id="paint2_linear_3071_4850" x1="-31.6528" y1="-19.5625" x2="46.2261" y2="82.4857" gradientUnits="userSpaceOnUse">
<stop stop-color="#F4EDFF"/>
<stop offset="1" stop-color="#FCEBEF"/>
</linearGradient>
<clipPath id="clip0_3071_4850">
<rect width="45.2428" height="45.2428" fill="white" transform="translate(0.365295 0.621094)"/>
</clipPath>
</defs>
</svg>
