<svg width="242" height="230" viewBox="0 0 242 230" fill="none" xmlns="http://www.w3.org/2000/svg">
<path d="M1.76603 90.0661C2.28747 91.5985 2.80913 93.1314 3.33057 94.6637C20.2735 100.905 35.7958 109.866 50.5503 120.221C61.7393 154.005 66.3745 164.074 66.1383 163.516C66.9237 165.369 69.4585 166.539 71.6559 162.415C76.8515 152.656 87.3628 144.235 98.7498 140.496C104.422 143.823 109.692 147.626 114.468 152.226C115.721 153.432 121.73 154.745 122.816 151.653C131.028 140.206 209.903 28.43 210.197 28.0133C211.64 25.8129 209.508 23.0965 207.078 23.8346C202.303 25.2851 116.602 54.6998 2.0866 84.7726C-0.494239 85.4516 -0.772494 89.0477 1.76603 90.0661ZM51.9309 110.999C40.048 100.715 26.4772 92.6528 12.798 87.7136C71.8595 72.0165 131.069 54.5218 189.242 35.5697C148.59 59.0052 99.5253 85.9669 51.9309 110.999ZM70.8941 153.5C70.8856 153.375 69.6897 135.967 69.623 135.056C81.1065 130.773 87.3164 134.54 92.2728 136.995C83.899 140.688 76.2929 146.572 70.8941 153.5ZM119.637 146.463C106.187 134.219 89.763 125.039 72.5193 120.133C146.839 77.6735 146.772 66.6292 196.187 38.0303C170.172 74.5995 145.402 110.495 119.637 146.463Z" fill="#242424"/>
<path d="M215.096 0.192197C213.659 -0.37142 212.03 0.347237 211.47 1.79002L207.113 12.9967C206.553 14.4377 207.268 16.061 208.71 16.6228C210.131 17.1771 211.768 16.4836 212.337 15.025L216.694 3.81831C217.254 2.37735 216.539 0.753989 215.096 0.192197Z" fill="#FFCD61"/>
<path d="M233.278 14.4067C232.468 13.0861 230.744 12.6757 229.424 13.4855L217.05 21.0825C215.731 21.8924 215.319 23.6179 216.129 24.9366C216.939 26.2553 218.665 26.6663 219.983 25.8577L232.357 18.2608C233.676 17.4509 234.088 15.7254 233.278 14.4067Z" fill="#FFCD61"/>
<path d="M215.647 33.1206C215.539 34.6637 216.704 36.0007 218.249 36.1065C220.814 36.2834 223.371 37.3796 225.266 39.1143C226.407 40.1585 228.179 40.0814 229.224 38.9392C230.27 37.7992 230.191 36.0262 229.049 34.9811C226.195 32.3673 222.496 30.7822 218.632 30.5177C217.104 30.3864 215.751 31.5738 215.647 33.1206Z" fill="#FFCD61"/>
<path d="M98.6055 227.733C126.096 218.918 144.171 189.621 168.498 176.223C181.826 168.885 195.498 167.756 206.005 173.137C222.245 181.452 229.737 202.822 236.015 223.997C236.456 225.48 238.016 226.326 239.499 225.887C240.982 225.445 241.828 223.888 241.388 222.403C234.764 200.064 226.771 177.474 208.558 168.15C196.368 161.906 180.78 163.063 165.794 171.316C140.588 185.195 123.021 214.02 96.8945 222.396C86.0855 225.857 70.9682 225.582 60.9398 214.408C52.4381 204.934 50.4919 185.476 60.3415 176.27C61.4724 175.214 61.5308 173.441 60.4747 172.31C59.4186 171.181 57.642 171.121 56.5148 172.177C44.1626 183.723 46.5539 206.767 56.7701 218.151C66.3488 228.825 82.2035 232.992 98.6055 227.733Z" fill="#242424"/>
</svg>
