<svg width="420" height="322" viewBox="0 0 420 322" fill="none" xmlns="http://www.w3.org/2000/svg">
<path d="M12.6076 1C3.99725 22.5188 1.46797 50.0762 1.02172 72.9165C0.42941 103.233 11.9854 127.397 31.3337 150.22C73.3544 199.786 164.869 237.349 221.258 195.831C231.882 188.009 242.172 173.253 242.172 158.021C239.947 147.345 223.099 144.905 213.138 147.79C185.754 155.723 181.621 173.181 175.147 201.06C168.137 231.246 174.546 265.309 198.184 286.511C234.59 319.166 283.99 321.192 330.411 320.988C358.542 320.864 385.11 313.66 409.492 299.373C413.603 296.964 415.948 293.116 420 290.686" stroke="#242424" stroke-width="2" stroke-linecap="round" stroke-dasharray="6 6"/>
</svg>
