<svg width="20" height="20" viewBox="0 0 20 20" fill="none" xmlns="http://www.w3.org/2000/svg">
<path d="M19.6463 18.3439C18.201 15.8452 15.9737 14.0534 13.3744 13.2041C14.6601 12.4387 15.6591 11.2723 16.2178 9.88425C16.7765 8.49616 16.8642 6.96303 16.4672 5.52031C16.0703 4.07759 15.2108 2.80505 14.0206 1.89812C12.8305 0.991183 11.3755 0.5 9.87918 0.5C8.38285 0.5 6.9279 0.991183 5.73774 1.89812C4.54759 2.80505 3.68805 4.07759 3.29113 5.52031C2.8942 6.96303 2.98184 8.49616 3.54057 9.88425C4.09931 11.2723 5.09825 12.4387 6.38399 13.2041C3.78467 14.0525 1.55735 15.8442 0.112017 18.3439C0.0590141 18.4303 0.0238576 18.5265 0.00862189 18.6267C-0.00661386 18.7269 -0.00162021 18.8292 0.0233082 18.9275C0.0482366 19.0257 0.0925948 19.118 0.153766 19.1989C0.214936 19.2797 0.291681 19.3475 0.37947 19.3982C0.46726 19.4489 0.564317 19.4815 0.664915 19.4941C0.765513 19.5067 0.867613 19.499 0.965193 19.4715C1.06277 19.444 1.15385 19.3972 1.23307 19.334C1.31228 19.2707 1.37801 19.1922 1.42639 19.1031C3.21432 16.0131 6.3745 14.1683 9.87918 14.1683C13.3839 14.1683 16.544 16.0131 18.332 19.1031C18.3804 19.1922 18.4461 19.2707 18.5253 19.334C18.6045 19.3972 18.6956 19.444 18.7932 19.4715C18.8907 19.499 18.9928 19.5067 19.0934 19.4941C19.194 19.4815 19.2911 19.4489 19.3789 19.3982C19.4667 19.3475 19.5434 19.2797 19.6046 19.1989C19.6658 19.118 19.7101 19.0257 19.7351 18.9275C19.76 18.8292 19.765 18.7269 19.7497 18.6267C19.7345 18.5265 19.6993 18.4303 19.6463 18.3439ZM4.56475 7.33542C4.56475 6.28433 4.87644 5.25684 5.46039 4.38288C6.04435 3.50893 6.87435 2.82776 7.84544 2.42553C8.81652 2.02329 9.88508 1.91805 10.916 2.12311C11.9469 2.32816 12.8938 2.83431 13.637 3.57755C14.3803 4.32079 14.8864 5.26773 15.0915 6.29863C15.2966 7.32953 15.1913 8.39808 14.7891 9.36917C14.3868 10.3403 13.7057 11.1703 12.8317 11.7542C11.9578 12.3382 10.9303 12.6499 9.87918 12.6499C8.47017 12.6483 7.1193 12.0879 6.12298 11.0916C5.12665 10.0953 4.56626 8.74443 4.56475 7.33542Z" fill="#181B0E"/>
</svg>
