<svg width="20" height="20" viewBox="0 0 20 20" fill="none" xmlns="http://www.w3.org/2000/svg">
<path d="M9.79682 0.5C7.91789 0.5 6.08117 1.05717 4.5189 2.10104C2.95663 3.14491 1.73899 4.62861 1.01996 6.36451C0.30093 8.1004 0.112799 10.0105 0.479358 11.8534C0.845918 13.6962 1.7507 15.3889 3.0793 16.7175C4.4079 18.0461 6.10064 18.9509 7.94346 19.3175C9.78628 19.684 11.6964 19.4959 13.4323 18.7769C15.1682 18.0578 16.6519 16.8402 17.6958 15.2779C18.7396 13.7156 19.2968 11.8789 19.2968 10C19.2942 7.48126 18.2924 5.06644 16.5114 3.28542C14.7304 1.5044 12.3156 0.50266 9.79682 0.5ZM9.79682 18.0385C8.20696 18.0385 6.6528 17.567 5.33089 16.6837C4.00897 15.8005 2.97866 14.545 2.37025 13.0762C1.76184 11.6073 1.60265 9.99108 1.91281 8.43177C2.22298 6.87246 2.98857 5.44015 4.11277 4.31595C5.23697 3.19175 6.66928 2.42616 8.22859 2.11599C9.7879 1.80583 11.4042 1.96502 12.873 2.57343C14.3418 3.18184 15.5973 4.21215 16.4806 5.53407C17.3638 6.85599 17.8353 8.41014 17.8353 10C17.8329 12.1312 16.9852 14.1744 15.4782 15.6814C13.9712 17.1884 11.928 18.036 9.79682 18.0385ZM15.643 10C15.643 10.1938 15.566 10.3797 15.4289 10.5167C15.2919 10.6538 15.106 10.7308 14.9122 10.7308H9.79682C9.603 10.7308 9.41713 10.6538 9.28008 10.5167C9.14304 10.3797 9.06605 10.1938 9.06605 10V4.88461C9.06605 4.6908 9.14304 4.50493 9.28008 4.36788C9.41713 4.23084 9.603 4.15385 9.79682 4.15385C9.99063 4.15385 10.1765 4.23084 10.3135 4.36788C10.4506 4.50493 10.5276 4.6908 10.5276 4.88461V9.26923H14.9122C15.106 9.26923 15.2919 9.34622 15.4289 9.48327C15.566 9.62031 15.643 9.80619 15.643 10Z" fill="#181B0E"/>
</svg>
