<svg width="19" height="20" viewBox="0 0 19 20" fill="none" xmlns="http://www.w3.org/2000/svg">
<path d="M16.8353 1.96154H14.643V1.23077C14.643 1.03696 14.566 0.851083 14.4289 0.714037C14.2919 0.576992 14.106 0.5 13.9122 0.5C13.7184 0.5 13.5325 0.576992 13.3955 0.714037C13.2584 0.851083 13.1814 1.03696 13.1814 1.23077V1.96154H5.87375V1.23077C5.87375 1.03696 5.79675 0.851083 5.65971 0.714037C5.52266 0.576992 5.33679 0.5 5.14298 0.5C4.94916 0.5 4.76329 0.576992 4.62625 0.714037C4.4892 0.851083 4.41221 1.03696 4.41221 1.23077V1.96154H2.2199C1.83228 1.96154 1.46053 2.11552 1.18644 2.38961C0.912345 2.6637 0.758362 3.03545 0.758362 3.42308V18.0385C0.758362 18.4261 0.912345 18.7978 1.18644 19.0719C1.46053 19.346 1.83228 19.5 2.2199 19.5H16.8353C17.2229 19.5 17.5947 19.346 17.8687 19.0719C18.1428 18.7978 18.2968 18.4261 18.2968 18.0385V3.42308C18.2968 3.03545 18.1428 2.6637 17.8687 2.38961C17.5947 2.11552 17.2229 1.96154 16.8353 1.96154ZM4.41221 3.42308V4.15385C4.41221 4.34766 4.4892 4.53353 4.62625 4.67058C4.76329 4.80762 4.94916 4.88462 5.14298 4.88462C5.33679 4.88462 5.52266 4.80762 5.65971 4.67058C5.79675 4.53353 5.87375 4.34766 5.87375 4.15385V3.42308H13.1814V4.15385C13.1814 4.34766 13.2584 4.53353 13.3955 4.67058C13.5325 4.80762 13.7184 4.88462 13.9122 4.88462C14.106 4.88462 14.2919 4.80762 14.4289 4.67058C14.566 4.53353 14.643 4.34766 14.643 4.15385V3.42308H16.8353V6.34615H2.2199V3.42308H4.41221ZM16.8353 18.0385H2.2199V7.80769H16.8353V18.0385ZM10.6237 11.0962C10.6237 11.313 10.5595 11.5249 10.439 11.7051C10.3186 11.8854 10.1474 12.0259 9.94707 12.1089C9.74678 12.1918 9.52638 12.2135 9.31374 12.1712C9.10111 12.129 8.90579 12.0246 8.75249 11.8713C8.59919 11.718 8.4948 11.5226 8.4525 11.31C8.41021 11.0974 8.43191 10.877 8.51488 10.6767C8.59784 10.4764 8.73834 10.3052 8.9186 10.1847C9.09886 10.0643 9.31079 10 9.52759 10C9.81831 10 10.0971 10.1155 10.3027 10.3211C10.5083 10.5266 10.6237 10.8054 10.6237 11.0962ZM14.643 11.0962C14.643 11.313 14.5787 11.5249 14.4582 11.7051C14.3378 11.8854 14.1666 12.0259 13.9663 12.1089C13.766 12.1918 13.5456 12.2135 13.333 12.1712C13.1203 12.129 12.925 12.0246 12.7717 11.8713C12.6184 11.718 12.514 11.5226 12.4717 11.31C12.4294 11.0974 12.4511 10.877 12.5341 10.6767C12.6171 10.4764 12.7576 10.3052 12.9378 10.1847C13.1181 10.0643 13.33 10 13.5468 10C13.8375 10 14.1164 10.1155 14.3219 10.3211C14.5275 10.5266 14.643 10.8054 14.643 11.0962ZM6.60452 14.75C6.60452 14.9668 6.54023 15.1787 6.41978 15.359C6.29933 15.5393 6.12814 15.6797 5.92784 15.7627C5.72755 15.8457 5.50715 15.8674 5.29451 15.8251C5.08188 15.7828 4.88656 15.6784 4.73326 15.5251C4.57996 15.3718 4.47557 15.1765 4.43327 14.9638C4.39097 14.7512 4.41268 14.5308 4.49565 14.3305C4.57861 14.1302 4.71911 13.959 4.89937 13.8386C5.07963 13.7181 5.29156 13.6538 5.50836 13.6538C5.79908 13.6538 6.07789 13.7693 6.28346 13.9749C6.48903 14.1805 6.60452 14.4593 6.60452 14.75ZM10.6237 14.75C10.6237 14.9668 10.5595 15.1787 10.439 15.359C10.3186 15.5393 10.1474 15.6797 9.94707 15.7627C9.74678 15.8457 9.52638 15.8674 9.31374 15.8251C9.10111 15.7828 8.90579 15.6784 8.75249 15.5251C8.59919 15.3718 8.4948 15.1765 8.4525 14.9638C8.41021 14.7512 8.43191 14.5308 8.51488 14.3305C8.59784 14.1302 8.73834 13.959 8.9186 13.8386C9.09886 13.7181 9.31079 13.6538 9.52759 13.6538C9.81831 13.6538 10.0971 13.7693 10.3027 13.9749C10.5083 14.1805 10.6237 14.4593 10.6237 14.75ZM14.643 14.75C14.643 14.9668 14.5787 15.1787 14.4582 15.359C14.3378 15.5393 14.1666 15.6797 13.9663 15.7627C13.766 15.8457 13.5456 15.8674 13.333 15.8251C13.1203 15.7828 12.925 15.6784 12.7717 15.5251C12.6184 15.3718 12.514 15.1765 12.4717 14.9638C12.4294 14.7512 12.4511 14.5308 12.5341 14.3305C12.6171 14.1302 12.7576 13.959 12.9378 13.8386C13.1181 13.7181 13.33 13.6538 13.5468 13.6538C13.8375 13.6538 14.1164 13.7693 14.3219 13.9749C14.5275 14.1805 14.643 14.4593 14.643 14.75Z" fill="#181B0E"/>
</svg>
