<svg width="65" height="65" viewBox="0 0 65 65" fill="none" xmlns="http://www.w3.org/2000/svg">
<path d="M32.5 0C14.5742 0 0 14.5742 0 32.5C0 50.4258 14.5742 65 32.5 65C50.4258 65 65 50.4258 65 32.5C65 14.5742 50.4258 0 32.5 0Z" fill="#FDDD4C"/>
<path fill-rule="evenodd" clip-rule="evenodd" d="M35.8997 50.1328H28.5754V30.6624C28.5754 28.7072 26.9358 27.1223 24.9132 27.1223C22.8907 27.1223 21.2511 28.7072 21.2511 30.6624V50.1328H13.9268V32.4324C13.9268 22.6568 22.1248 14.732 32.2375 14.732C42.3502 14.732 50.5483 22.6568 50.5483 32.4324V50.1328H43.224V30.6624C43.224 28.7072 41.5844 27.1223 39.5618 27.1223C37.5392 27.1223 35.8997 28.7072 35.8997 30.6624V50.1328Z" fill="#101214"/>
</svg>
