<svg width="54" height="54" viewBox="0 0 54 54" fill="none" xmlns="http://www.w3.org/2000/svg">
<path d="M27.0251 7.91992V13.797H5.79237C7.17245 11.5825 8.88993 9.5998 10.8716 7.91992H27.0251Z" fill="#94F27F" fill-opacity="0.2"/>
<path d="M27.0251 19.6758V25.5528H2.06676C2.18261 23.5193 2.54237 21.5508 3.11655 19.6758H27.0251Z" fill="#94F27F" fill-opacity="0.2"/>
<path d="M22.5962 31.4297L16.7192 37.3067H4.24155C3.40314 35.4571 2.78424 33.4866 2.41635 31.4297H22.5962Z" fill="#94F27F" fill-opacity="0.2"/>
<path d="M42.8925 14.2461H38.5557V27.0012H42.8925V14.2461Z" fill="#94F27F" fill-opacity="0.2"/>
<path d="M50.2903 10.1641H43.9128V27.0007H50.2903V10.1641Z" stroke="#94F27F" stroke-width="3" stroke-miterlimit="10" stroke-linecap="round" stroke-linejoin="round"/>
<path d="M37.5352 18.3262H31.1577V26.9996H37.5352V18.3262Z" stroke="#94F27F" stroke-width="3" stroke-miterlimit="10" stroke-linecap="round" stroke-linejoin="round"/>
<path d="M22.5962 31.4289L16.7192 37.3059M27.0251 27V2C15.7282 2 6.23107 9.48201 3.11654 19.6738C-1.84047 35.8608 10.3477 52 27.0251 52C40.832 52 52.0251 40.8069 52.0251 27H27.0251Z" stroke="#94F27F" stroke-width="3" stroke-miterlimit="10" stroke-linecap="round" stroke-linejoin="round"/>
<path d="M27.0251 2C27.0251 5.19299 27.0251 23.8685 27.0251 27C20.8125 33.2126 15.5493 38.4758 9.34825 44.6768" stroke="#94F27F" stroke-width="3" stroke-miterlimit="10" stroke-linecap="round" stroke-linejoin="round"/>
<path d="M27.0251 27H52.0251" stroke="#94F27F" stroke-width="3" stroke-miterlimit="10" stroke-linecap="round" stroke-linejoin="round"/>
</svg>
