<svg width="54" height="54" viewBox="0 0 54 54" fill="none" xmlns="http://www.w3.org/2000/svg">
<path d="M10.044 43.9566C0.672541 34.585 0.67152 19.4172 10.044 10.0446C19.4156 0.673151 34.5834 0.67213 43.956 10.0446C53.3274 19.4162 53.3285 34.584 43.956 43.9566C34.5844 53.3279 19.4166 53.3291 10.044 43.9566ZM27 9.14346C17.1536 9.14346 9.14285 17.1542 9.14285 27.0006C9.14285 36.847 17.1536 44.8577 27 44.8577C36.8464 44.8577 44.8571 36.847 44.8571 27.0006C44.8571 17.1542 36.8464 9.14346 27 9.14346Z" fill="#94F27F" fill-opacity="0.2"/>
<path d="M28.4353 26.6055C29.6599 27.1567 30.5077 28.3844 30.5077 29.8066V32.6127H23.4924V29.8066C23.4924 28.381 24.3434 27.1541 25.5647 26.6055" stroke="#94F27F" stroke-width="3" stroke-miterlimit="10" stroke-linecap="round" stroke-linejoin="round"/>
<path d="M27 27.0009C28.5497 27.0009 29.8061 25.7446 29.8061 24.1948C29.8061 22.645 28.5497 21.3887 27 21.3887C25.4502 21.3887 24.1938 22.645 24.1938 24.1948C24.1938 25.7446 25.4502 27.0009 27 27.0009Z" stroke="#94F27F" stroke-width="3" stroke-miterlimit="10" stroke-linecap="round" stroke-linejoin="round"/>
<path d="M27 52.0001V42.8164" stroke="#94F27F" stroke-width="3" stroke-miterlimit="10" stroke-linecap="round" stroke-linejoin="round"/>
<path d="M27 11.1837V2" stroke="#94F27F" stroke-width="3" stroke-miterlimit="10" stroke-linecap="round" stroke-linejoin="round"/>
<path d="M52 27H42.8163" stroke="#94F27F" stroke-width="3" stroke-miterlimit="10" stroke-linecap="round" stroke-linejoin="round"/>
<path d="M11.1837 27H2" stroke="#94F27F" stroke-width="3" stroke-miterlimit="10" stroke-linecap="round" stroke-linejoin="round"/>
<path d="M17.3062 30.5723V36.6947H23.4286" stroke="#94F27F" stroke-width="3" stroke-miterlimit="10" stroke-linecap="round" stroke-linejoin="round"/>
<path d="M23.4286 17.3066H17.3062V23.4291" stroke="#94F27F" stroke-width="3" stroke-miterlimit="10" stroke-linecap="round" stroke-linejoin="round"/>
<path d="M30.5714 36.6947H36.6939V30.5723" stroke="#94F27F" stroke-width="3" stroke-miterlimit="10" stroke-linecap="round" stroke-linejoin="round"/>
<path d="M36.6939 23.4291V17.3066H30.5714" stroke="#94F27F" stroke-width="3" stroke-miterlimit="10" stroke-linecap="round" stroke-linejoin="round"/>
</svg>
