<svg width="54" height="54" viewBox="0 0 54 54" fill="none" xmlns="http://www.w3.org/2000/svg">
<path d="M52.0001 13.8887H46.9188V32.266H52.0001V13.8887Z" fill="#94F27F" fill-opacity="0.2"/>
<path d="M27.6099 13.8887H2V32.266H27.6099V13.8887Z" fill="#94F27F" fill-opacity="0.2"/>
<path d="M47.4268 9.31651H49.9675C51.0854 9.31651 52 10.2312 52 11.349V41.8369C52 42.9547 51.0854 43.8694 49.9675 43.8694H4.03252C2.91463 43.8694 2 42.9548 2 41.8369V11.3489C2 10.231 2.91463 9.31641 4.03252 9.31641H27.1018" stroke="#94F27F" stroke-width="3" stroke-miterlimit="22.9256" stroke-linecap="round" stroke-linejoin="round"/>
<path d="M18.87 52H35.1302" stroke="#94F27F" stroke-width="3" stroke-miterlimit="22.9256" stroke-linecap="round" stroke-linejoin="round"/>
<path d="M20.9104 51.9702L22.057 43.8984" stroke="#94F27F" stroke-width="3" stroke-miterlimit="22.9256" stroke-linecap="round" stroke-linejoin="round"/>
<path d="M33.0897 51.9702L31.9431 43.8984" stroke="#94F27F" stroke-width="3" stroke-miterlimit="22.9256" stroke-linecap="round" stroke-linejoin="round"/>
<path d="M2.50813 39.2969H51.4919" stroke="#94F27F" stroke-width="3" stroke-miterlimit="22.9256" stroke-linecap="round" stroke-linejoin="round"/>
<path fill-rule="evenodd" clip-rule="evenodd" d="M29.6423 2H44.8863C46.0042 2 46.9187 2.91453 46.9187 4.03252V32.2674C46.9187 33.3853 46.0041 34.2999 44.8863 34.2999H29.6423C28.5244 34.2999 27.6098 33.3854 27.6098 32.2674V4.03252C27.6099 2.91463 28.5244 2 29.6423 2Z" stroke="#94F27F" stroke-width="3" stroke-miterlimit="22.9256" stroke-linecap="round" stroke-linejoin="round"/>
<path d="M34.7237 3.01562H39.805" stroke="#94F27F" stroke-width="3" stroke-miterlimit="22.9256" stroke-linecap="round" stroke-linejoin="round"/>
<path d="M34.7237 29.3027H39.805" stroke="#94F27F" stroke-width="3" stroke-miterlimit="22.9256" stroke-linecap="round" stroke-linejoin="round"/>
<path d="M32.2602 15.277C32.6885 12.8486 34.7984 11.0781 37.2643 11.0781C38.5406 11.0781 39.7703 11.5585 40.7087 12.4237" stroke="#94F27F" stroke-width="3" stroke-miterlimit="22.9256" stroke-linecap="round" stroke-linejoin="round"/>
<path d="M41.1028 11.4746L41.1966 12.8897L39.7816 12.9835" stroke="#94F27F" stroke-width="3" stroke-miterlimit="22.9256" stroke-linecap="round" stroke-linejoin="round"/>
<path d="M42.2685 17.043C41.8403 19.4714 39.7302 21.242 37.2644 21.242C35.988 21.242 34.7584 20.7616 33.82 19.8964" stroke="#94F27F" stroke-width="3" stroke-miterlimit="22.9256" stroke-linecap="round" stroke-linejoin="round"/>
<path d="M33.4257 20.8448L33.332 19.4297L34.7471 19.3359" stroke="#94F27F" stroke-width="3" stroke-miterlimit="22.9256" stroke-linecap="round" stroke-linejoin="round"/>
<path d="M23.0367 18.4844H6.57327" stroke="#94F27F" stroke-width="3" stroke-miterlimit="22.9256" stroke-linecap="round" stroke-linejoin="round"/>
<path d="M23.0367 23.0781H6.57327" stroke="#94F27F" stroke-width="3" stroke-miterlimit="22.9256" stroke-linecap="round" stroke-linejoin="round"/>
<path d="M14.805 27.6738H6.57327" stroke="#94F27F" stroke-width="3" stroke-miterlimit="22.9256" stroke-linecap="round" stroke-linejoin="round"/>
</svg>
