<svg width="60" height="60" viewBox="0 0 60 60" fill="none" xmlns="http://www.w3.org/2000/svg">
<path d="M30 9.408C41.328 9.408 50.592 18.624 50.592 30C50.592 41.376 41.376 50.592 30 50.592C18.624 50.592 9.40799 41.376 9.40799 30C9.40799 18.624 18.624 9.408 30 9.408ZM30 0C13.44 0 0 13.44 0 30C0 46.56 13.44 60 30 60C46.56 60 60 46.56 60 30C60 13.44 46.56 0 30 0Z" fill="#101214"/>
<path d="M30 0C13.44 0 0 13.44 0 30H30V0Z" fill="#101214"/>
<path d="M29.999 59.9531C46.559 59.9531 59.999 46.5131 59.999 29.9531H29.999V59.9531Z" fill="#101214"/>
</svg>
