<svg width="50" height="50" viewBox="0 0 50 50" fill="none" xmlns="http://www.w3.org/2000/svg">
<mask id="mask0_846_2341" style="mask-type:luminance" maskUnits="userSpaceOnUse" x="0" y="0" width="50" height="50">
<path d="M0 0H50V50H0V0Z" fill="white"/>
</mask>
<g mask="url(#mask0_846_2341)">
<path d="M26.2945 31.6728C27.4272 32.3513 29.0073 33.0732 30.3206 33.4043V34.2945C30.3206 34.901 30.8132 35.3926 31.4207 35.3926H35.9606C36.5682 35.3926 37.0608 34.901 37.0608 34.2945V33.4043C38.374 33.0732 39.6123 32.5531 40.745 31.8746L41.3703 32.5009C41.8003 32.9315 42.4989 32.9315 42.9288 32.5009L46.1418 29.2829C46.5696 28.8545 46.5696 28.1612 46.1418 27.7328L45.511 27.1011C46.1884 25.9666 46.7078 24.7264 47.0384 23.411H47.9233C48.5309 23.411 49.0235 22.9195 49.0235 22.3131V17.7583C49.0235 17.1519 48.5309 16.6603 47.9233 16.6603H47.0384C46.7078 15.3449 46.1884 14.1048 45.511 12.9702L46.1418 12.3386C46.5696 11.9101 46.5696 11.2169 46.1418 10.7884L42.9289 7.57041C42.4989 7.13984 41.8003 7.13984 41.3703 7.57041L40.745 8.19668C39.6123 7.51816 38.374 6.99814 37.0608 6.66699V5.77685C37.0608 5.17041 36.5682 4.67881 35.9606 4.67881H31.4207C30.8132 4.67881 30.3206 5.17041 30.3206 5.77685V6.66699C29.0073 6.99814 27.7691 7.51816 26.6363 8.19668L26.0111 7.57041C25.5811 7.13984 24.8825 7.13984 24.4525 7.57041L21.2396 10.7884C20.8118 11.2169 20.8118 11.9101 21.2396 12.3386L21.8703 12.9702C21.1928 14.1048 20.6736 15.3449 20.343 16.6603H19.4581C18.8505 16.6603 18.3579 17.1519 18.3579 17.7583V22.3131" stroke="#94F27F" stroke-width="3" stroke-miterlimit="10" stroke-linecap="round" stroke-linejoin="round"/>
<path d="M33.6907 27.8438C29.3855 27.8438 25.8954 24.3482 25.8954 20.0362C25.8954 15.7242 29.3855 12.2288 33.6907 12.2288C37.9958 12.2288 41.4859 15.7242 41.4859 20.0362C41.4859 24.3482 37.9958 27.8438 33.6907 27.8438Z" stroke="#94F27F" stroke-width="3" stroke-miterlimit="10" stroke-linecap="round" stroke-linejoin="round"/>
<path d="M24.5861 29.9C24.3139 28.8173 23.8865 27.7963 23.3288 26.8625L23.848 26.3424C24.2002 25.9896 24.2002 25.419 23.848 25.0663L21.2032 22.4173C20.8492 22.0629 20.2742 22.0629 19.9201 22.4173L19.4054 22.9329C18.473 22.3743 17.4536 21.9462 16.3727 21.6736V20.9408C16.3727 20.4416 15.9672 20.0369 15.467 20.0369H11.7298C11.2296 20.0369 10.8242 20.4416 10.8242 20.9408V21.6736C9.7431 21.9462 8.72376 22.3743 7.79134 22.9329L7.27659 22.4173C6.92269 22.0629 6.34749 22.0629 5.99359 22.4173L3.34876 25.0663C2.99661 25.419 2.99661 25.9896 3.34876 26.3424L3.868 26.8625C3.31028 27.7963 2.88284 28.8173 2.61077 29.9H1.88226C1.38206 29.9 0.976593 30.3047 0.976593 30.8039V34.5533C0.976593 35.0525 1.38206 35.4572 1.88226 35.4572H2.61077C2.88284 36.5399 3.31028 37.5608 3.868 38.4948L3.34876 39.0147C2.99661 39.3675 2.99661 39.9382 3.34876 40.2908L5.99359 42.9398C6.34749 43.2943 6.92269 43.2943 7.27659 42.9398L7.79134 42.4243C8.72376 42.9829 9.7431 43.411 10.8242 43.6836V44.4163C10.8242 44.9156 11.2296 45.3203 11.7298 45.3203H15.467C15.9672 45.3203 16.3727 44.9156 16.3727 44.4163V43.6836C17.4536 43.411 18.473 42.9829 19.4054 42.4243L19.9201 42.9398C20.2742 43.2943 20.8492 43.2943 21.2032 42.9398L23.848 40.2908C24.2002 39.9382 24.2002 39.3675 23.848 39.0147L23.3288 38.4948C23.8865 37.5608 24.3139 36.5399 24.5861 35.4572H25.3146C25.8148 35.4572 26.2202 35.0525 26.2202 34.5533V30.8039C26.2202 30.3047 25.8148 29.9 25.3146 29.9H24.5861Z" stroke="#94F27F" stroke-width="3" stroke-miterlimit="10" stroke-linecap="round" stroke-linejoin="round"/>
<path d="M13.5984 39.1055C10.0544 39.1055 7.18143 36.228 7.18143 32.6784C7.18143 29.1288 10.0544 26.2514 13.5984 26.2514C17.1425 26.2514 20.0154 29.1288 20.0154 32.6784C20.0154 36.228 17.1425 39.1055 13.5984 39.1055Z" fill="#94F27F" fill-opacity="0.2"/>
</g>
</svg>
