<svg width="60" height="50" viewBox="0 0 60 50" fill="none" xmlns="http://www.w3.org/2000/svg">
<path d="M39.8977 18.5625L26.2614 9.47159C25.919 9.24318 25.5211 9.11201 25.11 9.09209C24.6989 9.07218 24.2901 9.16426 23.9273 9.35851C23.5645 9.55276 23.2612 9.84188 23.0498 10.195C22.8385 10.5482 22.727 10.9521 22.7273 11.3636V29.5455C22.727 29.957 22.8385 30.3609 23.0498 30.7141C23.2612 31.0672 23.5645 31.3563 23.9273 31.5506C24.2901 31.7448 24.6989 31.8369 25.11 31.817C25.5211 31.7971 25.919 31.6659 26.2614 31.4375L39.8977 22.3466C40.2095 22.1391 40.4651 21.8578 40.6419 21.5278C40.8188 21.1977 40.9113 20.829 40.9113 20.4545C40.9113 20.0801 40.8188 19.7114 40.6419 19.3813C40.4651 19.0512 40.2095 18.77 39.8977 18.5625ZM27.2727 25.2983V15.625L34.5398 20.4545L27.2727 25.2983ZM54.5455 0H4.54545C3.33993 0 2.18377 0.478895 1.33133 1.33133C0.478895 2.18377 0 3.33993 0 4.54545V36.3636C0 37.5692 0.478895 38.7253 1.33133 39.5778C2.18377 40.4302 3.33993 40.9091 4.54545 40.9091H54.5455C55.751 40.9091 56.9071 40.4302 57.7596 39.5778C58.612 38.7253 59.0909 37.5692 59.0909 36.3636V4.54545C59.0909 3.33993 58.612 2.18377 57.7596 1.33133C56.9071 0.478895 55.751 0 54.5455 0ZM54.5455 36.3636H4.54545V4.54545H54.5455V36.3636ZM59.0909 47.7273C59.0909 48.33 58.8515 48.9081 58.4252 49.3343C57.999 49.7606 57.4209 50 56.8182 50H2.27273C1.66996 50 1.09189 49.7606 0.665666 49.3343C0.239447 48.9081 0 48.33 0 47.7273C0 47.1245 0.239447 46.5464 0.665666 46.1202C1.09189 45.694 1.66996 45.4545 2.27273 45.4545H56.8182C57.4209 45.4545 57.999 45.694 58.4252 46.1202C58.8515 46.5464 59.0909 47.1245 59.0909 47.7273Z" fill="#94F27F"/>
</svg>
