<svg width="61" height="50" viewBox="0 0 61 50" fill="none" xmlns="http://www.w3.org/2000/svg">
<path d="M60.0277 25C60.025 22.3497 59.2719 19.7543 57.8555 17.5142C56.4392 15.2741 54.4174 13.4809 52.0242 12.3421V11.9944C52.0219 9.41635 51.1898 6.90751 49.6509 4.83912C48.112 2.77073 45.9482 1.25266 43.4795 0.509544C41.0109 -0.233573 38.3686 -0.162262 35.9436 0.712925C33.5187 1.58811 31.4398 3.22068 30.0148 5.36906C28.5897 3.22068 26.5109 1.58811 24.0859 0.712925C21.6609 -0.162262 19.0187 -0.233573 16.55 0.509544C14.0814 1.25266 11.9175 2.77073 10.3787 4.83912C8.83978 6.90751 8.00762 9.41635 8.00531 11.9944V12.3421C5.61013 13.4778 3.58641 15.2699 2.16933 17.5101C0.752248 19.7503 0 22.3467 0 24.9975C0 27.6483 0.752248 30.2447 2.16933 32.4849C3.58641 34.7251 5.61013 36.5172 8.00531 37.6529V38.0056C8.00762 40.5836 8.83978 43.0925 10.3787 45.1609C11.9175 47.2293 14.0814 48.7473 16.55 49.4905C19.0187 50.2336 21.6609 50.1623 24.0859 49.2871C26.5109 48.4119 28.5897 46.7793 30.0148 44.6309C31.4398 46.7793 33.5187 48.4119 35.9436 49.2871C38.3686 50.1623 41.0109 50.2336 43.4795 49.4905C45.9482 48.7473 48.112 47.2293 49.6509 45.1609C51.1898 43.0925 52.0219 40.5836 52.0242 38.0056V37.6529C54.417 36.515 56.4386 34.7226 57.855 32.4834C59.2714 30.2442 60.0247 27.6496 60.0277 25ZM20.0105 46.009C18.037 46.0087 16.1332 45.2793 14.6647 43.9609C13.1963 42.6425 12.2667 40.828 12.0546 38.866C12.7016 38.9583 13.3543 39.0051 14.0079 39.006H16.0088C16.5394 39.006 17.0483 38.7952 17.4236 38.42C17.7988 38.0447 18.0096 37.5358 18.0096 37.0052C18.0096 36.4745 17.7988 35.9656 17.4236 35.5903C17.0483 35.2151 16.5394 35.0043 16.0088 35.0043H14.0079C11.6458 35.0071 9.35887 34.1739 7.55206 32.6524C5.74526 31.1309 4.5351 29.0191 4.13585 26.691C3.73659 24.3628 4.174 21.9685 5.37062 19.9319C6.56724 17.8953 8.44589 16.3479 10.674 15.5634C11.0638 15.4254 11.4013 15.17 11.64 14.8323C11.8788 14.4946 12.007 14.0912 12.007 13.6776V11.9944C12.007 9.87177 12.8502 7.83606 14.3512 6.33512C15.8521 4.83419 17.8878 3.99097 20.0105 3.99097C22.1331 3.99097 24.1688 4.83419 25.6698 6.33512C27.1707 7.83606 28.0139 9.87177 28.0139 11.9944V29.0667C25.8168 27.0906 22.9656 25.9983 20.0105 26.0004C19.4798 26.0004 18.9709 26.2112 18.5956 26.5865C18.2204 26.9617 18.0096 27.4706 18.0096 28.0013C18.0096 28.5319 18.2204 29.0409 18.5956 29.4161C18.9709 29.7913 19.4798 30.0021 20.0105 30.0021C22.1331 30.0021 24.1688 30.8454 25.6698 32.3463C27.1707 33.8472 28.0139 35.8829 28.0139 38.0056C28.0139 40.1282 27.1707 42.1639 25.6698 43.6649C24.1688 45.1658 22.1331 46.009 20.0105 46.009ZM46.0216 35.0043H44.0208C43.4901 35.0043 42.9812 35.2151 42.606 35.5903C42.2307 35.9656 42.0199 36.4745 42.0199 37.0052C42.0199 37.5358 42.2307 38.0447 42.606 38.42C42.9812 38.7952 43.4901 39.006 44.0208 39.006H46.0216C46.6752 39.0051 47.3279 38.9583 47.975 38.866C47.8088 40.4033 47.2008 41.8595 46.2245 43.0587C45.2482 44.2578 43.9455 45.1484 42.4738 45.6229C41.0021 46.0974 39.4245 46.1354 37.9316 45.7323C36.4388 45.3292 35.0947 44.5023 34.0618 43.3516C33.029 42.2009 32.3516 40.7756 32.1115 39.248C31.8715 37.7205 32.0791 36.1561 32.7092 34.744C33.3393 33.332 34.365 32.1327 35.6623 31.2912C36.9595 30.4496 38.4728 30.0019 40.0191 30.0021C40.5497 30.0021 41.0587 29.7913 41.4339 29.4161C41.8091 29.0409 42.0199 28.5319 42.0199 28.0013C42.0199 27.4706 41.8091 26.9617 41.4339 26.5865C41.0587 26.2112 40.5497 26.0004 40.0191 26.0004C37.064 25.9983 34.2128 27.0906 32.0156 29.0667V11.9944C32.0156 9.87177 32.8588 7.83606 34.3598 6.33512C35.8607 4.83419 37.8964 3.99097 40.0191 3.99097C42.1417 3.99097 44.1774 4.83419 45.6784 6.33512C47.1793 7.83606 48.0225 9.87177 48.0225 11.9944V13.6776C48.0226 14.0912 48.1508 14.4946 48.3895 14.8323C48.6282 15.17 48.9657 15.4254 49.3556 15.5634C51.5836 16.3479 53.4623 17.8953 54.6589 19.9319C55.8555 21.9685 56.2929 24.3628 55.8937 26.691C55.4944 29.0191 54.2843 31.1309 52.4775 32.6524C50.6707 34.1739 48.3838 35.0071 46.0216 35.0043ZM50.0234 21.9987C50.0234 22.5294 49.8126 23.0383 49.4373 23.4135C49.0621 23.7888 48.5532 23.9996 48.0225 23.9996H47.0221C44.6341 23.9996 42.3439 23.0509 40.6554 21.3624C38.9668 19.6738 38.0182 17.3837 38.0182 14.9957V13.9953C38.0182 13.4646 38.229 12.9557 38.6042 12.5805C38.9795 12.2052 39.4884 11.9944 40.0191 11.9944C40.5497 11.9944 41.0587 12.2052 41.4339 12.5805C41.8091 12.9557 42.0199 13.4646 42.0199 13.9953V14.9957C42.0199 16.3224 42.5469 17.5947 43.485 18.5328C44.4231 19.4708 45.6954 19.9978 47.0221 19.9978H48.0225C48.5532 19.9978 49.0621 20.2087 49.4373 20.5839C49.8126 20.9591 50.0234 21.468 50.0234 21.9987ZM13.0075 23.9996H12.007C11.4764 23.9996 10.9674 23.7888 10.5922 23.4135C10.217 23.0383 10.0062 22.5294 10.0062 21.9987C10.0062 21.468 10.217 20.9591 10.5922 20.5839C10.9674 20.2087 11.4764 19.9978 12.007 19.9978H13.0075C14.3341 19.9978 15.6064 19.4708 16.5445 18.5328C17.4826 17.5947 18.0096 16.3224 18.0096 14.9957V13.9953C18.0096 13.4646 18.2204 12.9557 18.5956 12.5805C18.9709 12.2052 19.4798 11.9944 20.0105 11.9944C20.5411 11.9944 21.0501 12.2052 21.4253 12.5805C21.8005 12.9557 22.0113 13.4646 22.0113 13.9953V14.9957C22.0113 17.3837 21.0627 19.6738 19.3742 21.3624C17.6856 23.0509 15.3954 23.9996 13.0075 23.9996Z" fill="#94F27F"/>
</svg>
