<svg width="40" height="40" viewBox="0 0 40 40" fill="none" xmlns="http://www.w3.org/2000/svg">
<rect width="40" height="40" rx="7" fill="#0A0F0A"/>
<path opacity="0.2" d="M29.9313 15.614L20.3643 21.1947L10.7973 15.614L20.3643 10.0332L29.9313 15.614Z" fill="#94F27F"/>
<path d="M29.8837 24.2276C29.9852 24.4038 30.0128 24.613 29.9604 24.8095C29.908 25.006 29.7798 25.1738 29.604 25.276L20.3786 30.6575C20.261 30.726 20.1274 30.7622 19.9913 30.7622C19.8552 30.7622 19.7216 30.726 19.604 30.6575L10.3786 25.276C10.2054 25.1719 10.0801 25.0037 10.0299 24.8079C9.97971 24.612 10.0087 24.4043 10.1105 24.2297C10.2124 24.0551 10.3789 23.9276 10.574 23.8749C10.7692 23.8221 10.9772 23.8484 11.1532 23.9479L19.9942 29.1036L28.8352 23.9479C29.0114 23.8464 29.2207 23.8188 29.4172 23.8712C29.6137 23.9236 29.7814 24.0518 29.8837 24.2276ZM28.8352 19.3352L19.9942 24.4909L11.1532 19.3352C10.9781 19.248 10.7764 19.2309 10.5892 19.2872C10.4019 19.3435 10.2431 19.469 10.1452 19.6383C10.0472 19.8075 10.0174 20.0077 10.0619 20.1981C10.1063 20.3886 10.2216 20.5549 10.3844 20.6633L19.6098 26.0448C19.7274 26.1133 19.861 26.1494 19.9971 26.1494C20.1332 26.1494 20.2668 26.1133 20.3844 26.0448L29.6098 20.6633C29.6984 20.6131 29.7762 20.5459 29.8386 20.4655C29.901 20.3851 29.9468 20.293 29.9734 20.1948C29.9999 20.0965 30.0067 19.9939 29.9933 19.893C29.9799 19.7921 29.9466 19.6948 29.8953 19.6069C29.844 19.5189 29.7758 19.442 29.6945 19.3807C29.6133 19.3193 29.5207 19.2747 29.4221 19.2494C29.3234 19.2242 29.2208 19.2187 29.12 19.2335C29.0193 19.2482 28.9225 19.2828 28.8352 19.3352ZM10 15.3865C10.0003 15.2519 10.036 15.1197 10.1034 15.0031C10.1709 14.8866 10.2678 14.7898 10.3844 14.7225L19.6098 9.341C19.7274 9.27245 19.861 9.23633 19.9971 9.23633C20.1332 9.23633 20.2668 9.27245 20.3844 9.341L29.6098 14.7225C29.7258 14.7902 29.8221 14.8871 29.889 15.0037C29.9559 15.1202 29.9912 15.2522 29.9912 15.3865C29.9912 15.5209 29.9559 15.6529 29.889 15.7694C29.8221 15.8859 29.7258 15.9829 29.6098 16.0506L20.3844 21.4321C20.2668 21.5006 20.1332 21.5367 19.9971 21.5367C19.861 21.5367 19.7274 21.5006 19.6098 21.4321L10.3844 16.0506C10.2678 15.9832 10.1709 15.8865 10.1034 15.7699C10.036 15.6534 10.0003 15.5212 10 15.3865ZM12.2948 15.3865L19.9942 19.8782L27.6936 15.3865L19.9942 10.8949L12.2948 15.3865Z" fill="#94F27F"/>
</svg>
