<svg width="40" height="40" viewBox="0 0 40 40" fill="none" xmlns="http://www.w3.org/2000/svg">
<rect width="40" height="40" rx="7" fill="#0A0F0A"/>
<path opacity="0.2" d="M30.1248 17.4686L21.8404 23.3747H18.1597L9.87531 17.4686L20 10.7188L30.1248 17.4686Z" fill="#94F27F"/>
<path d="M30.593 16.7667L20.4683 10.0169C20.3296 9.92437 20.1667 9.875 20 9.875C19.8333 9.875 19.6704 9.92437 19.5317 10.0169L9.40701 16.7667C9.29143 16.8438 9.19669 16.9483 9.13119 17.0708C9.06569 17.1933 9.03147 17.3301 9.03156 17.4691V28.4375C9.03156 28.8851 9.20934 29.3143 9.5258 29.6308C9.84226 29.9472 10.2715 30.125 10.719 30.125H29.281C29.7285 30.125 30.1578 29.9472 30.4742 29.6308C30.7907 29.3143 30.9685 28.8851 30.9685 28.4375V17.4691C30.9685 17.3301 30.9343 17.1933 30.8688 17.0708C30.8033 16.9483 30.7086 16.8438 30.593 16.7667ZM16.701 23.3752L10.719 27.5938V19.107L16.701 23.3752ZM18.4275 24.2189H21.5725L27.545 28.4375H12.455L18.4275 24.2189ZM23.299 23.3752L29.281 19.107V27.5938L23.299 23.3752ZM20 11.7328L28.6387 17.4923L21.5725 22.5315H18.4296L11.3634 17.4923L20 11.7328Z" fill="#94F27F"/>
</svg>
