<svg width="40" height="40" viewBox="0 0 40 40" fill="none" xmlns="http://www.w3.org/2000/svg">
<rect width="40" height="40" rx="7" fill="#0A0F0A"/>
<path opacity="0.2" d="M29.1559 27.9685L27.969 29.1554C27.8283 29.2959 27.6376 29.3749 27.4388 29.3749C27.24 29.3749 27.0493 29.2959 26.9087 29.1554L22.0984 24.3451C22.012 24.2585 21.9057 24.1944 21.7889 24.1582C21.672 24.1221 21.5481 24.1151 21.4279 24.1379C21.3078 24.1606 21.195 24.2124 21.0994 24.2887C21.0038 24.365 20.9284 24.4635 20.8796 24.5757L19.209 28.9266C19.1469 29.0633 19.0452 29.1783 18.9171 29.2565C18.7889 29.3348 18.6403 29.3728 18.4903 29.3656C18.3403 29.3584 18.196 29.3064 18.0759 29.2163C17.9558 29.1262 17.8656 29.0021 17.8168 28.8601L12.9137 13.8535C12.8735 13.7232 12.8697 13.5844 12.9026 13.4521C12.9354 13.3198 13.0037 13.1989 13.1001 13.1025C13.1965 13.0061 13.3174 12.9378 13.4497 12.9049C13.5821 12.8721 13.7209 12.8759 13.8512 12.916L28.8605 17.8135C29.0025 17.8623 29.1266 17.9526 29.2168 18.0726C29.3069 18.1927 29.3589 18.3371 29.3661 18.487C29.3732 18.637 29.3352 18.7857 29.257 18.9138C29.1787 19.0419 29.0638 19.1436 28.9271 19.2057L24.5762 20.8763C24.464 20.9251 24.3655 21.0006 24.2892 21.0961C24.2128 21.1917 24.1611 21.3045 24.1383 21.4247C24.1156 21.5448 24.1226 21.6688 24.1587 21.7856C24.1948 21.9025 24.259 22.0087 24.3455 22.0951L29.1559 26.9054C29.2259 26.9751 29.2814 27.0579 29.3193 27.1491C29.3572 27.2404 29.3768 27.3382 29.3768 27.437C29.3768 27.5357 29.3572 27.6336 29.3193 27.7248C29.2814 27.816 29.2259 27.8988 29.1559 27.9685Z" fill="#94F27F"/>
<path d="M17.3751 11.3751V10.6251C17.3751 10.4261 17.4542 10.2354 17.5948 10.0947C17.7355 9.95408 17.9262 9.87506 18.1251 9.87506C18.3241 9.87506 18.5148 9.95408 18.6555 10.0947C18.7961 10.2354 18.8751 10.4261 18.8751 10.6251V11.3751C18.8751 11.574 18.7961 11.7647 18.6555 11.9054C18.5148 12.046 18.3241 12.1251 18.1251 12.1251C17.9262 12.1251 17.7355 12.046 17.5948 11.9054C17.4542 11.7647 17.3751 11.574 17.3751 11.3751ZM10.6251 18.8751H11.3751C11.5741 18.8751 11.7648 18.796 11.9055 18.6554C12.0461 18.5147 12.1251 18.324 12.1251 18.1251C12.1251 17.9261 12.0461 17.7354 11.9055 17.5947C11.7648 17.4541 11.5741 17.3751 11.3751 17.3751H10.6251C10.4262 17.3751 10.2355 17.4541 10.0948 17.5947C9.95416 17.7354 9.87515 17.9261 9.87515 18.1251C9.87515 18.324 9.95416 18.5147 10.0948 18.6554C10.2355 18.796 10.4262 18.8751 10.6251 18.8751ZM20.7895 12.7963C20.8777 12.8405 20.9736 12.8668 21.072 12.8738C21.1703 12.8808 21.269 12.8684 21.3625 12.8372C21.456 12.806 21.5425 12.7567 21.6169 12.6921C21.6914 12.6275 21.7524 12.5489 21.7964 12.4607L22.5464 10.9607C22.6354 10.7828 22.6501 10.5768 22.5873 10.3881C22.5244 10.1993 22.3891 10.0433 22.2112 9.95428C22.0333 9.86527 21.8274 9.85057 21.6386 9.91343C21.4499 9.97628 21.2938 10.1115 21.2048 10.2894L20.4548 11.7894C20.4107 11.8775 20.3843 11.9734 20.3772 12.0717C20.3701 12.17 20.3825 12.2687 20.4135 12.3622C20.4446 12.4557 20.4938 12.5422 20.5583 12.6167C20.6228 12.6912 20.7014 12.7522 20.7895 12.7963ZM11.7895 20.4547L10.2895 21.2048C10.1116 21.2938 9.97636 21.4498 9.91351 21.6385C9.85066 21.8273 9.86535 22.0333 9.95436 22.2112C10.0434 22.3891 10.1994 22.5243 10.3882 22.5872C10.5769 22.65 10.7829 22.6353 10.9608 22.5463L12.4608 21.7963C12.5489 21.7522 12.6274 21.6912 12.6919 21.6168C12.7564 21.5424 12.8057 21.456 12.8368 21.3625C12.8679 21.2691 12.8803 21.1704 12.8733 21.0721C12.8663 20.9739 12.84 20.878 12.7959 20.7899C12.7519 20.7018 12.6909 20.6233 12.6164 20.5588C12.542 20.4942 12.4556 20.445 12.3621 20.4139C12.2687 20.3828 12.17 20.3704 12.0718 20.3774C11.9735 20.3844 11.8776 20.4107 11.7895 20.4547ZM29.6855 26.3751C29.8248 26.5144 29.9353 26.6797 30.0107 26.8617C30.0861 27.0437 30.1249 27.2388 30.1249 27.4358C30.1249 27.6329 30.0861 27.8279 30.0107 28.0099C29.9353 28.192 29.8248 28.3573 29.6855 28.4966L28.4967 29.6854C28.3574 29.8247 28.192 29.9352 28.01 30.0106C27.828 30.086 27.6329 30.1248 27.4359 30.1248C27.2389 30.1248 27.0438 30.086 26.8618 30.0106C26.6798 29.9352 26.5144 29.8247 26.3751 29.6854L21.5658 24.8751L19.9064 29.196C19.9064 29.2054 19.8989 29.2157 19.8942 29.226C19.7794 29.4936 19.5885 29.7215 19.3451 29.8814C19.1017 30.0413 18.8166 30.126 18.5255 30.1251H18.4514C18.1477 30.1122 17.8553 30.0064 17.6137 29.822C17.3721 29.6375 17.1929 29.3834 17.1005 29.0938L12.2001 14.0863C12.116 13.8238 12.1058 13.5433 12.1707 13.2754C12.2356 13.0075 12.373 12.7627 12.5679 12.5678C12.7628 12.3729 13.0076 12.2355 13.2755 12.1706C13.5434 12.1058 13.8239 12.1159 14.0864 12.2001L29.0939 17.1004C29.3807 17.1963 29.6318 17.3767 29.8143 17.6179C29.9968 17.8592 30.1021 18.1499 30.1164 18.452C30.1307 18.7541 30.0533 19.0535 29.8944 19.3108C29.7355 19.5682 29.5026 19.7715 29.2261 19.8941L29.1961 19.9063L24.8751 21.5647L29.6855 26.3751ZM28.6251 27.4354L23.8148 22.6251C23.6417 22.4522 23.5134 22.2397 23.4413 22.0059C23.3691 21.7722 23.3552 21.5243 23.4008 21.284C23.4463 21.0436 23.55 20.8181 23.7027 20.627C23.8555 20.4359 24.0526 20.285 24.277 20.1876L24.307 20.1744L28.6148 18.5207L13.6251 13.6251L18.5189 28.6119L20.1736 24.2994C20.1736 24.2891 20.1811 24.2788 20.1858 24.2685C20.2833 24.0443 20.4341 23.8473 20.6251 23.6947C20.8161 23.5421 21.0415 23.4385 21.2817 23.3929C21.3745 23.3757 21.4686 23.3669 21.563 23.3666C21.9604 23.3671 22.3414 23.5252 22.6223 23.8063L27.4355 28.6251L28.6251 27.4354Z" fill="#94F27F"/>
</svg>
