<svg width="61" height="52" viewBox="0 0 61 52" fill="none" xmlns="http://www.w3.org/2000/svg">
<path d="M48.1672 29.4414H13.2394C7.03206 29.4414 2 34.4735 2 40.6809V40.7597C2 46.9671 7.03206 51.9992 13.2394 51.9992H48.1673C54.3747 51.9992 59.4067 46.9671 59.4067 40.7597V40.6809C59.4066 34.4735 54.3746 29.4414 48.1672 29.4414ZM14.3292 46.6798C11.0662 46.6798 8.41134 44.0065 8.41134 40.7204C8.41134 37.4343 11.066 34.761 14.3292 34.761C17.5923 34.761 20.2471 37.4343 20.2471 40.7203C20.2471 44.0064 17.5924 46.6798 14.3292 46.6798Z" fill="#94F27F" fill-opacity="0.2"/>
<path d="M14.3292 34.7617C17.5923 34.7617 20.2471 37.4351 20.2471 40.721C20.2471 44.0072 17.5924 46.6806 14.3292 46.6806C11.066 46.6806 8.41132 44.0072 8.41132 40.7212C8.41132 37.4351 11.0661 34.7617 14.3292 34.7617Z" stroke="#94F27F" stroke-width="3" stroke-miterlimit="10" stroke-linecap="round" stroke-linejoin="round"/>
<path d="M30.7033 36.6992V44.7427" stroke="#94F27F" stroke-width="3" stroke-miterlimit="10" stroke-linecap="round" stroke-linejoin="round"/>
<path d="M48.1672 24.5578H13.2394C7.03206 24.5578 2 19.5257 2 13.3183V13.2394C2 7.03206 7.03206 2 13.2394 2H48.1673C54.3747 2 59.4067 7.03206 59.4067 13.2394V13.3183C59.4066 19.5257 54.3746 24.5578 48.1672 24.5578Z" stroke="#94F27F" stroke-width="3" stroke-miterlimit="10" stroke-linecap="round" stroke-linejoin="round"/>
<path d="M47.0774 19.2392C43.8143 19.2392 41.1595 16.5658 41.1595 13.2799C41.1595 9.99369 43.8142 7.32031 47.0774 7.32031C50.3405 7.32031 52.9953 9.99369 52.9953 13.2798C52.9953 16.5658 50.3405 19.2392 47.0774 19.2392Z" stroke="#94F27F" stroke-width="3" stroke-miterlimit="10" stroke-linecap="round" stroke-linejoin="round"/>
<path d="M30.7033 17.3013V9.25781" stroke="#94F27F" stroke-width="3" stroke-miterlimit="10" stroke-linecap="round" stroke-linejoin="round"/>
</svg>
