<svg width="60" height="60" viewBox="0 0 60 60" fill="none" xmlns="http://www.w3.org/2000/svg">
<path d="M0 15C0 6.71573 6.71573 0 15 0C23.2843 0 30 6.71573 30 15C30 23.2843 23.2843 30 15 30H0V15Z" fill="#04DA00"/>
<path d="M30 45C30 36.7157 23.2843 30 15 30C6.71573 30 0 36.7157 0 45C0 53.2843 6.71573 60 15 60H30V45Z" fill="#D9FE89"/>
<path d="M30 15C30 23.2843 36.7157 30 45 30C53.2843 30 60 23.2843 60 15C60 6.71573 53.2843 0 45 0H30V15Z" fill="#D9FE89"/>
<path d="M60 45C60 53.2843 53.2843 60 45 60C36.7157 60 30 53.2843 30 45C30 36.7157 36.7157 30 45 30H60V45Z" fill="#04DA00"/>
</svg>
