<svg width="64" height="65" viewBox="0 0 64 65" fill="none" xmlns="http://www.w3.org/2000/svg">
<path d="M10.9111 25.415C6.3407 26.0628 0.549252 27.6979 0.0589864 33.2289C-0.366453 38.0285 1.50893 40.4041 5.70263 42.7769C10.4444 45.4598 16.691 40.5802 20.4612 44.5132C24.4495 48.6737 20.8394 55.2771 23.9337 60.1394C26.9721 64.9141 32.1809 66.0757 35.6534 64.046C39.9575 61.5301 39.5599 56.6739 39.5599 52.7673C39.5599 45.8142 33.9171 37.5703 29.5753 33.2289C24.3655 28.0195 15.2524 24.7996 10.9111 25.415Z" fill="url(#paint0_linear_979_4062)"/>
<path d="M50.8269 41.0871C55.4258 40.6889 61.2977 39.3714 62.0882 33.8753C62.7742 29.106 61.0309 26.6318 56.9725 24.0343C52.3838 21.0973 45.8809 25.6298 42.3303 21.4975C38.5744 17.126 42.5384 10.7289 39.7134 5.70538C36.9393 0.772407 31.8014 -0.670952 28.2236 1.16682C23.7889 3.44472 23.9216 8.31544 23.7091 12.2162C23.3307 19.159 28.5165 27.6978 32.6156 32.2691C37.5342 37.7542 46.4586 41.4653 50.8269 41.0871Z" fill="url(#paint1_linear_979_4062)"/>
<defs>
<linearGradient id="paint0_linear_979_4062" x1="19.7848" y1="25.3398" x2="19.7848" y2="65.0011" gradientUnits="userSpaceOnUse">
<stop stop-color="#B4F7FE"/>
<stop offset="1" stop-color="#1B1AFF"/>
</linearGradient>
<linearGradient id="paint1_linear_979_4062" x1="41.9623" y1="40.6792" x2="44.1206" y2="1.07674" gradientUnits="userSpaceOnUse">
<stop stop-color="#B4F7FE"/>
<stop offset="1" stop-color="#1B1AFF"/>
</linearGradient>
</defs>
</svg>
