<svg width="40" height="40" viewBox="0 0 40 40" fill="none" xmlns="http://www.w3.org/2000/svg">
<rect width="40" height="40" rx="7" fill="#0A0F0A"/>
<path opacity="0.2" d="M29.3434 20.0041C29.3448 21.3144 29.0699 22.6103 28.5366 23.8072C28.0033 25.0041 27.2236 26.0751 26.2484 26.9503C25.6621 25.7971 24.768 24.8287 23.6651 24.1524C22.5622 23.476 21.2937 23.1182 19.9999 23.1186C20.7699 23.1186 21.5226 22.8902 22.1628 22.4625C22.8031 22.0347 23.302 21.4267 23.5967 20.7153C23.8914 20.0039 23.9685 19.2211 23.8182 18.4659C23.668 17.7108 23.2972 17.0171 22.7528 16.4726C22.2083 15.9282 21.5146 15.5574 20.7595 15.4072C20.0043 15.2569 19.2215 15.334 18.5101 15.6287C17.7987 15.9234 17.1907 16.4223 16.7629 17.0626C16.3352 17.7028 16.1068 18.4555 16.1068 19.2255C16.1068 20.258 16.517 21.2482 17.2471 21.9783C17.9772 22.7084 18.9674 23.1186 19.9999 23.1186C18.7062 23.1182 17.4377 23.476 16.3348 24.1524C15.2319 24.8287 14.3378 25.7971 13.7515 26.9503C12.5936 25.9088 11.7143 24.5943 11.1938 23.1264C10.6733 21.6585 10.5279 20.0838 10.771 18.5454C11.0141 17.007 11.6378 15.5538 12.5856 14.3179C13.5333 13.082 14.775 12.1026 16.1977 11.4688C17.6203 10.835 19.1788 10.5669 20.7315 10.6888C22.2842 10.8108 23.7818 11.3189 25.088 12.1671C26.3943 13.0152 27.4679 14.1764 28.211 15.5451C28.9542 16.9138 29.3435 18.4466 29.3434 20.0041Z" fill="#94F27F"/>
<path d="M32.2302 20.5534L29.8943 22.8893C29.822 22.9617 29.7361 23.0191 29.6416 23.0583C29.5471 23.0975 29.4458 23.1176 29.3434 23.1176C29.2411 23.1176 29.1398 23.0975 29.0453 23.0583C28.9508 23.0191 28.8649 22.9617 28.7926 22.8893L26.4567 20.5534C26.3106 20.4073 26.2285 20.2091 26.2285 20.0025C26.2285 19.7959 26.3106 19.5977 26.4567 19.4516C26.6028 19.3055 26.801 19.2235 27.0076 19.2235C27.2142 19.2235 27.4124 19.3055 27.5585 19.4516L28.5648 20.459V20.0025C28.5657 18.189 27.9909 16.4219 26.9232 14.9559C25.8555 13.49 24.35 12.4008 22.6236 11.8452C20.8973 11.2897 19.0391 11.2965 17.3168 11.8646C15.5945 12.4328 14.0971 13.533 13.0401 15.0067C12.9195 15.1745 12.7373 15.2875 12.5334 15.3209C12.3295 15.3543 12.1207 15.3054 11.9529 15.1848C11.7852 15.0643 11.6721 14.882 11.6387 14.6781C11.6053 14.4742 11.6543 14.2654 11.7748 14.0977C13.024 12.356 14.7938 11.0558 16.8293 10.3844C18.8647 9.71304 21.0608 9.70509 23.101 10.3617C25.1413 11.0184 26.9205 12.3057 28.1822 14.0383C29.444 15.7708 30.1232 17.8592 30.1221 20.0025V20.459L31.1284 19.4516C31.2745 19.3055 31.4727 19.2235 31.6793 19.2235C31.8859 19.2235 32.0841 19.3055 32.2302 19.4516C32.3763 19.5977 32.4584 19.7959 32.4584 20.0025C32.4584 20.2091 32.3763 20.4073 32.2302 20.5534ZM28.2222 25.9064C26.9727 27.6468 25.2031 28.9457 23.1683 29.6164C21.1335 30.287 18.9384 30.2947 16.899 29.6383C14.8595 28.9819 13.0809 27.6953 11.8193 25.9638C10.5576 24.2322 9.87784 22.145 9.87792 20.0025V19.5461L8.87155 20.5534C8.72545 20.6995 8.5273 20.7816 8.32068 20.7816C8.11406 20.7816 7.91591 20.6995 7.76981 20.5534C7.6237 20.4073 7.54163 20.2091 7.54163 20.0025C7.54163 19.7959 7.6237 19.5977 7.76981 19.4516L10.1057 17.1158C10.178 17.0434 10.2639 16.986 10.3584 16.9468C10.4529 16.9076 10.5542 16.8874 10.6565 16.8874C10.7589 16.8874 10.8602 16.9076 10.9547 16.9468C11.0492 16.986 11.1351 17.0434 11.2074 17.1158L13.5433 19.4516C13.6894 19.5977 13.7715 19.7959 13.7715 20.0025C13.7715 20.2091 13.6894 20.4073 13.5433 20.5534C13.3972 20.6995 13.199 20.7816 12.9924 20.7816C12.7858 20.7816 12.5876 20.6995 12.4415 20.5534L11.4352 19.5461V20.0025C11.4333 22.0991 12.2039 24.123 13.5997 25.6874C14.4681 24.4291 15.6892 23.4555 17.1094 22.8893C16.3465 22.2884 15.7898 21.4648 15.5168 20.5329C15.2437 19.601 15.2678 18.6071 15.5858 17.6896C15.9037 16.772 16.4997 15.9764 17.2908 15.4132C18.082 14.8501 19.0289 14.5475 20 14.5475C20.9711 14.5475 21.918 14.8501 22.7091 15.4132C23.5003 15.9764 24.0963 16.772 24.4142 17.6896C24.7322 18.6071 24.7563 19.601 24.4832 20.5329C24.2102 21.4648 23.6535 22.2884 22.8906 22.8893C24.3121 23.4556 25.534 24.4303 26.4022 25.6903C26.5991 25.4693 26.7846 25.2383 26.9579 24.9984C27.0785 24.8306 27.2608 24.7175 27.4646 24.6841C27.6685 24.6507 27.8773 24.6997 28.0451 24.8202C28.2129 24.9408 28.3259 25.123 28.3593 25.3269C28.3927 25.5308 28.3438 25.7396 28.2232 25.9074L28.2222 25.9064ZM20 22.3384C20.616 22.3384 21.2181 22.1557 21.7303 21.8135C22.2425 21.4713 22.6417 20.9849 22.8774 20.4158C23.1131 19.8467 23.1748 19.2204 23.0546 18.6163C22.9345 18.0121 22.6378 17.4572 22.2023 17.0216C21.7667 16.5861 21.2118 16.2894 20.6076 16.1693C20.0034 16.0491 19.3772 16.1108 18.8081 16.3465C18.239 16.5822 17.7526 16.9814 17.4104 17.4936C17.0682 18.0058 16.8855 18.6079 16.8855 19.2239C16.8855 20.0499 17.2136 20.8421 17.7977 21.4262C18.3818 22.0103 19.174 22.3384 20 22.3384ZM20 28.5674C21.9003 28.5649 23.746 27.9319 25.2479 26.7678C24.6846 25.8868 23.9087 25.1619 22.9915 24.6597C22.0744 24.1575 21.0456 23.8943 20 23.8943C18.9544 23.8943 17.9256 24.1575 17.0085 24.6597C16.0913 25.1619 15.3154 25.8868 14.7521 26.7678C16.2517 27.9361 18.0989 28.5695 20 28.5674Z" fill="#94F27F"/>
</svg>
