<svg width="48" height="50" viewBox="0 0 48 50" fill="none" xmlns="http://www.w3.org/2000/svg">
<path d="M43.686 43.6898L39.7904 44.7337L37.4906 36.1502C39.3097 35.2392 40.759 33.7288 41.594 31.8737C42.4291 30.0185 42.5989 27.9321 42.0748 25.9664C39.2938 15.5928 33.5155 6.49494 33.2705 6.11311C33.0712 5.8015 32.779 5.56037 32.4353 5.42375C32.0915 5.28712 31.7136 5.2619 31.3547 5.35164L26.5299 6.55895C26.5299 4.73805 26.4902 3.59475 26.4835 3.45129C26.4659 3.07197 26.3265 2.70844 26.086 2.41462C25.8454 2.1208 25.5166 1.91236 25.1482 1.82021L18.0854 0.0544894C17.7265 -0.0352538 17.3485 -0.0100318 17.0048 0.126595C16.661 0.263222 16.3689 0.504354 16.1696 0.815955C15.9246 1.19779 10.1462 10.2912 7.36525 20.6803C6.84113 22.646 7.01093 24.7324 7.84602 26.5875C8.68112 28.4427 10.1304 29.9531 11.9495 30.864L9.64964 39.4366L5.75403 38.3926C5.30154 38.2714 4.81944 38.335 4.4138 38.5693C4.00816 38.8035 3.7122 39.1894 3.59103 39.6419C3.46985 40.0944 3.5334 40.5765 3.76768 40.9821C4.00196 41.3877 4.38778 41.6837 4.84027 41.8049L15.4346 44.6433C15.5837 44.6824 15.7372 44.7025 15.8915 44.7029C16.3202 44.7033 16.7345 44.5478 17.057 44.2653C17.3795 43.9828 17.5882 43.5926 17.6441 43.1675C17.7 42.7424 17.5994 42.3115 17.361 41.9552C17.1225 41.5989 16.7626 41.3415 16.3483 41.231L13.0597 40.3482L15.3595 31.7646C15.5383 31.7756 15.7149 31.7822 15.8915 31.7822C17.6432 31.7773 19.3541 31.2529 20.8078 30.2754C22.2614 29.2979 23.3925 27.9113 24.0579 26.2908C24.3183 27.6968 24.6317 29.1204 25.0092 30.533C25.5144 32.4116 26.6249 34.0713 28.1686 35.2551C29.7123 36.4389 31.6032 37.0809 33.5486 37.0816C33.7252 37.0816 33.9018 37.0816 34.0805 37.0639L36.3804 45.6475L33.0917 46.5304C32.6794 46.6424 32.3216 46.9002 32.0849 47.2559C31.8481 47.6116 31.7484 48.0412 31.8042 48.4648C31.8599 48.8885 32.0675 49.2775 32.3883 49.5598C32.709 49.8421 33.1213 49.9985 33.5486 50C33.7028 49.9996 33.8564 49.9796 34.0055 49.9404L44.5998 47.102C45.0523 46.9808 45.4381 46.6849 45.6724 46.2792C45.9067 45.8736 45.9702 45.3915 45.849 44.939C45.7279 44.4865 45.4319 44.1007 45.0263 43.8664C44.6206 43.6321 44.1385 43.5686 43.686 43.6898ZM30.9486 9.09275C31.5622 10.1301 32.5444 11.8605 33.6413 14.05L26.4858 15.8422C26.3931 13.6351 26.4019 11.8142 26.4306 10.5914C26.4306 10.4678 26.4416 10.3442 26.4482 10.2206L30.9486 9.09275ZM18.4915 3.7956L22.9874 4.91904C23.0007 5.8637 22.9874 7.27406 22.9411 8.99564C22.9278 9.2627 22.9058 9.69972 22.8903 10.2846C22.8903 10.5053 22.8682 10.726 22.855 10.9468L15.6023 9.14572C16.7743 6.77084 17.8426 4.89255 18.4915 3.7956ZM21.0054 24.3419C20.6258 25.6827 19.7332 26.82 18.5209 27.5072C17.3087 28.1944 15.8744 28.3763 14.529 28.0134C13.1836 27.6505 12.0353 26.772 11.3331 25.5683C10.6309 24.3647 10.4313 22.9328 10.7775 21.583C11.6469 18.4437 12.7537 15.375 14.0882 12.4035L22.6034 14.5312C22.3062 17.8354 21.7722 21.1141 21.0054 24.3419ZM28.4302 29.6214C27.5655 26.2779 26.9888 22.8664 26.7065 19.4244L35.1841 17.3055C36.5929 20.4014 37.7552 23.6036 38.6604 26.8823C38.852 27.5579 38.9074 28.2647 38.8234 28.9618C38.7393 29.6589 38.5175 30.3324 38.1709 30.943C37.8243 31.5537 37.3597 32.0893 36.8042 32.5187C36.2487 32.9482 35.6133 33.2629 34.9351 33.4446C34.2568 33.6263 33.5492 33.6714 32.8534 33.5771C32.1576 33.4829 31.4875 33.2513 30.882 32.8957C30.2765 32.5402 29.7477 32.0678 29.3265 31.5061C28.9052 30.9443 28.5998 30.3045 28.428 29.6236L28.4302 29.6214ZM37.2588 6.08883C37.1549 5.88133 37.0929 5.65538 37.0764 5.4239C37.0599 5.19242 37.0891 4.95995 37.1625 4.73979C37.2359 4.51964 37.352 4.3161 37.5041 4.14083C37.6562 3.96557 37.8414 3.822 38.049 3.71835L41.5804 1.95264C41.788 1.84887 42.0139 1.787 42.2453 1.77055C42.4768 1.7541 42.7092 1.7834 42.9293 1.85677C43.1494 1.93015 43.3529 2.04616 43.5282 2.19818C43.7035 2.3502 43.8471 2.53526 43.9509 2.74279C44.0547 2.95032 44.1165 3.17626 44.133 3.4077C44.1494 3.63914 44.1201 3.87156 44.0468 4.09168C43.9734 4.3118 43.8574 4.51531 43.7054 4.69059C43.5533 4.86588 43.3683 5.0095 43.1607 5.11327L39.6293 6.87899C39.4218 6.9829 39.1959 7.0449 38.9644 7.06142C38.7329 7.07795 38.5004 7.04868 38.2803 6.97529C38.0601 6.90191 37.8566 6.78584 37.6813 6.63373C37.506 6.48163 37.3625 6.29646 37.2588 6.08883ZM47.6744 12.3615C47.6744 12.8298 47.4883 13.279 47.1572 13.6101C46.8261 13.9412 46.3769 14.1273 45.9086 14.1273H42.3772C41.9089 14.1273 41.4598 13.9412 41.1287 13.6101C40.7975 13.279 40.6115 12.8298 40.6115 12.3615C40.6115 11.8932 40.7975 11.4441 41.1287 11.113C41.4598 10.7818 41.9089 10.5958 42.3772 10.5958H45.9086C46.3769 10.5958 46.8261 10.7818 47.1572 11.113C47.4883 11.4441 47.6744 11.8932 47.6744 12.3615ZM3.71683 0.977077C3.82048 0.769443 3.96405 0.584277 4.13932 0.43217C4.31458 0.280063 4.51812 0.163997 4.73828 0.0906111C4.95843 0.0172249 5.1909 -0.0120427 5.42238 0.00448245C5.65386 0.0210076 5.87981 0.0830015 6.08731 0.186918L9.61874 1.95264C9.82627 2.0564 10.0113 2.20003 10.1634 2.37531C10.3154 2.55059 10.4314 2.75411 10.5048 2.97423C10.5781 3.19434 10.6074 3.42676 10.591 3.6582C10.5745 3.88964 10.5127 4.11558 10.4089 4.32311C10.3051 4.53064 10.1615 4.7157 9.98623 4.86772C9.81094 5.01975 9.60743 5.13576 9.38731 5.20913C8.94276 5.35731 8.45755 5.32283 8.03843 5.11327L4.50699 3.34755C4.29936 3.2439 4.11419 3.10034 3.96209 2.92507C3.80998 2.7498 3.69391 2.54627 3.62053 2.32611C3.54714 2.10595 3.51787 1.87348 3.5344 1.64201C3.55092 1.41053 3.61292 1.18458 3.71683 0.977077ZM5.29715 12.3615H1.76572C1.29742 12.3615 0.848303 12.1755 0.517166 11.8444C0.18603 11.5132 0 11.0641 0 10.5958C0 10.1275 0.18603 9.67841 0.517166 9.34727C0.848303 9.01613 1.29742 8.8301 1.76572 8.8301H5.29715C5.76545 8.8301 6.21456 9.01613 6.5457 9.34727C6.87684 9.67841 7.06287 10.1275 7.06287 10.5958C7.06287 11.0641 6.87684 11.5132 6.5457 11.8444C6.21456 12.1755 5.76545 12.3615 5.29715 12.3615Z" fill="#94F27F"/>
</svg>
