<svg width="63" height="60" viewBox="0 0 63 60" fill="none" xmlns="http://www.w3.org/2000/svg">
<path fill-rule="evenodd" clip-rule="evenodd" d="M33.2513 0H28.8177V18.9759L21.4641 1.38175L17.3534 2.98721L24.8976 21.0372L10.6573 7.27155L7.52232 10.302L21.171 23.4957L3.48334 16.0254L1.70832 19.9527L20.4239 27.8571H0V32.1429H20.4239L1.70833 40.0473L3.48334 43.9746L21.171 36.5043L7.52232 49.698L10.6573 52.7283L24.8976 38.9628L17.3534 57.0129L21.4641 58.6182L28.8177 41.0241V60H33.2513V41.0241L40.6049 58.6182L44.7154 57.0129L37.1715 38.9628L51.4117 52.7283L54.5465 49.698L40.8979 36.5043L58.5856 43.9746L60.3605 40.0473L41.6452 32.1429H62.069V27.8571H41.6449L60.3605 19.9527L58.5856 16.0254L40.8979 23.4957L54.5465 10.302L51.4117 7.27155L37.1715 21.0371L44.7154 2.98721L40.6049 1.38175L33.2513 18.9759V0Z" fill="#FF4A00"/>
</svg>
