<svg width="20" height="16" viewBox="0 0 20 16" fill="none" xmlns="http://www.w3.org/2000/svg">
<path d="M19.0444 8.79781L12.2944 15.5478C12.083 15.7592 11.7964 15.8779 11.4975 15.8779C11.1986 15.8779 10.9119 15.7592 10.7006 15.5478C10.4893 15.3365 10.3705 15.0498 10.3705 14.7509C10.3705 14.4521 10.4893 14.1654 10.7006 13.9541L15.5297 9.12687H1.74841C1.45004 9.12687 1.1639 9.00835 0.952918 8.79737C0.74194 8.58639 0.623413 8.30024 0.623413 8.00187C0.623413 7.70351 0.74194 7.41736 0.952918 7.20638C1.1639 6.9954 1.45004 6.87687 1.74841 6.87687H15.5297L10.7025 2.04687C10.4911 1.83553 10.3724 1.54888 10.3724 1.25C10.3724 0.951112 10.4911 0.664467 10.7025 0.453123C10.9138 0.241779 11.2005 0.123047 11.4993 0.123047C11.7982 0.123047 12.0849 0.241779 12.2962 0.453123L19.0462 7.20312C19.1511 7.30778 19.2343 7.43213 19.291 7.56903C19.3477 7.70593 19.3768 7.85268 19.3766 8.00086C19.3765 8.14903 19.347 8.29572 19.29 8.43248C19.233 8.56925 19.1495 8.6934 19.0444 8.79781Z" fill="#F5F9F5"/>
</svg>
