<svg width="65" height="65" viewBox="0 0 65 65" fill="none" xmlns="http://www.w3.org/2000/svg">
<rect width="65" height="65" rx="8.125" fill="#0A0F0A"/>
<path fill-rule="evenodd" clip-rule="evenodd" d="M29.7814 23.03C33.7838 16.6018 42.2394 14.6353 48.6676 18.6377C55.0957 22.6401 57.0622 31.0957 53.0598 37.5239L46.2855 48.4041C46.0245 48.8233 45.4731 48.9515 45.0539 48.6905C44.6346 48.4295 44.5064 47.878 44.7674 47.4588L51.5417 36.5787C55.0221 30.9889 53.3121 23.6362 47.7223 20.1559C42.1326 16.6755 34.7799 18.3855 31.2996 23.9753L24.5252 34.8554C24.2642 35.2746 23.7128 35.4029 23.2935 35.1419C22.8743 34.8808 22.746 34.3294 23.0071 33.9101L29.7814 23.03ZM41.7059 29.8564C42.1251 30.1174 42.2534 30.6688 41.9924 31.088L35.218 41.9682C31.2157 48.3964 22.76 50.3629 16.3319 46.3605C9.90369 42.3581 7.93719 33.9025 11.9396 27.4743L18.7139 16.5942C18.9749 16.175 19.5264 16.0467 19.9456 16.3077C20.3648 16.5688 20.4931 17.1202 20.232 17.5394L13.4577 28.4196C9.97737 34.0093 11.6874 41.3621 17.2771 44.8424C22.8668 48.3228 30.2196 46.6128 33.6999 41.023L40.4743 30.1428C40.7353 29.7236 41.2867 29.5954 41.7059 29.8564Z" fill="#F5F9F5" stroke="#F5F9F5" stroke-width="4.0625"/>
</svg>
