<svg width="54" height="60" viewBox="0 0 54 60" fill="none" xmlns="http://www.w3.org/2000/svg">
<path d="M18.0593 2.32553C19.3433 0.101705 22.1868 -0.660233 24.4107 0.623691C26.6345 1.90762 27.3964 4.75121 26.1125 6.97503L8.67687 37.1744C7.39294 39.3983 4.54935 40.1602 2.32553 38.8763C0.101705 37.5924 -0.660233 34.7488 0.623692 32.5249L18.0593 2.32553Z" fill="#1B1AFF"/>
<path d="M31.4813 10.0747C32.7652 7.85088 35.6088 7.08894 37.8326 8.37286C40.0564 9.65679 40.8184 12.5004 39.5345 14.7242L14.7371 57.6745C13.4532 59.8983 10.6096 60.6602 8.38577 59.3763C6.16195 58.0924 5.40001 55.2488 6.68394 53.025L31.4813 10.0747Z" fill="#1B1AFF"/>
<path d="M44.9065 17.8258C46.1904 15.6019 49.034 14.84 51.2579 16.1239C53.4817 17.4079 54.2436 20.2514 52.9597 22.4753C51.6758 24.6991 48.8322 25.461 46.6084 24.1771C44.3845 22.8932 43.6226 20.0496 44.9065 17.8258Z" fill="#1B1AFF"/>
<path d="M37.5415 30.5747C38.8255 28.3509 41.669 27.589 43.8929 28.8729C46.1167 30.1568 46.8786 33.0004 45.5947 35.2242L33.196 56.6994C31.9121 58.9232 29.0685 59.6851 26.8447 58.4012C24.6209 57.1173 23.8589 54.2737 25.1429 52.0499L37.5415 30.5747Z" fill="#1B1AFF"/>
</svg>
