<svg width="166" height="54" viewBox="0 0 166 54" fill="none" xmlns="http://www.w3.org/2000/svg">
<rect width="166" height="53.5767" rx="10" fill="black"/>
<path d="M64.4896 39.0873L62.9724 35.1888H56.7854L55.3076 39.0873H53.2387L58.7952 25.1274H61.0217L66.5782 39.0873H64.4896ZM59.8592 27.1357L57.475 33.397H62.2828L59.8592 27.1357ZM70.093 42.8283H68.2606V29.6166H70.0536V31.0933C70.3295 30.5945 70.7433 30.1876 71.295 29.8726C71.8467 29.5575 72.4903 29.4 73.226 29.4C74.5921 29.4 75.6561 29.866 76.418 30.798C77.193 31.7299 77.5805 32.9113 77.5805 34.3421C77.5805 35.786 77.1799 36.9805 76.3786 37.9256C75.5904 38.8707 74.5198 39.3433 73.1668 39.3433C72.4706 39.3433 71.8533 39.1989 71.3147 38.9101C70.7761 38.6213 70.3689 38.2538 70.093 37.8075V42.8283ZM75.6889 34.3421C75.6889 33.3839 75.4328 32.5963 74.9205 31.9793C74.4213 31.3493 73.7448 31.0342 72.891 31.0342C72.0503 31.0342 71.3672 31.3493 70.8418 31.9793C70.3295 32.5963 70.0733 33.3839 70.0733 34.3421C70.0733 35.3266 70.3295 36.1339 70.8418 36.7639C71.3672 37.3809 72.0503 37.6893 72.891 37.6893C73.7317 37.6893 74.4082 37.3809 74.9205 36.7639C75.4328 36.1339 75.6889 35.3266 75.6889 34.3421ZM81.773 42.8283H79.9406V29.6166H81.7336V31.0933C82.0095 30.5945 82.4233 30.1876 82.975 29.8726C83.5267 29.5575 84.1703 29.4 84.906 29.4C86.2721 29.4 87.3361 29.866 88.098 30.798C88.873 31.7299 89.2605 32.9113 89.2605 34.3421C89.2605 35.786 88.8599 36.9805 88.0586 37.9256C87.2704 38.8707 86.1998 39.3433 84.8468 39.3433C84.1506 39.3433 83.5333 39.1989 82.9947 38.9101C82.4561 38.6213 82.0489 38.2538 81.773 37.8075V42.8283ZM87.3689 34.3421C87.3689 33.3839 87.1128 32.5963 86.6005 31.9793C86.1013 31.3493 85.4248 31.0342 84.571 31.0342C83.7303 31.0342 83.0472 31.3493 82.5218 31.9793C82.0095 32.5963 81.7533 33.3839 81.7533 34.3421C81.7533 35.3266 82.0095 36.1339 82.5218 36.7639C83.0472 37.3809 83.7303 37.6893 84.571 37.6893C85.4117 37.6893 86.0882 37.3809 86.6005 36.7639C87.1128 36.1339 87.3689 35.3266 87.3689 34.3421ZM105.65 28.2974L103.916 28.9078C103.824 28.304 103.529 27.7592 103.029 27.2735C102.53 26.7747 101.841 26.5253 100.961 26.5253C100.186 26.5253 99.5419 26.7485 99.0296 27.1948C98.5168 27.6411 98.2607 28.1924 98.2607 28.8487C98.2607 29.3606 98.4117 29.7938 98.7139 30.1482C99.0296 30.5026 99.4762 30.7455 100.054 30.8767L102.143 31.3296C103.299 31.579 104.192 32.0515 104.823 32.7472C105.453 33.4298 105.768 34.2633 105.768 35.2478C105.768 36.3767 105.322 37.348 104.428 38.1619C103.535 38.9757 102.373 39.3826 100.941 39.3826C99.3777 39.3826 98.149 38.9757 97.2558 38.1619C96.3757 37.3349 95.8634 36.357 95.7189 35.2281L97.5711 34.6374C97.6499 35.4775 97.9783 36.1864 98.5562 36.7639C99.1347 37.3415 99.9229 37.6303 100.921 37.6303C101.841 37.6303 102.55 37.4202 103.049 37.0002C103.548 36.5801 103.798 36.0485 103.798 35.4053C103.798 34.8803 103.621 34.4274 103.266 34.0468C102.911 33.653 102.392 33.3839 101.709 33.2395L99.7192 32.8063C98.681 32.5832 97.8535 32.1434 97.2361 31.4871C96.6187 30.8308 96.31 29.9973 96.31 28.9865C96.31 27.8839 96.7566 26.9191 97.6499 26.0922C98.5562 25.2521 99.647 24.832 100.921 24.832C102.353 24.832 103.45 25.1799 104.212 25.8756C104.974 26.5713 105.453 27.3786 105.65 28.2974ZM110.517 26.6238V29.6166H112.566V31.2902H110.517V36.2126C110.517 36.6589 110.615 36.9871 110.813 37.1971C111.023 37.4071 111.364 37.5121 111.837 37.5121C112.113 37.5121 112.356 37.4859 112.566 37.4334V39.0085C112.251 39.1267 111.831 39.1857 111.305 39.1857C110.491 39.1857 109.847 38.9495 109.374 38.4769C108.901 38.0044 108.665 37.3415 108.665 36.4883V31.2902H106.852V29.6166H107.364C107.85 29.6166 108.212 29.4853 108.448 29.2228C108.698 28.9472 108.822 28.5927 108.822 28.1596V26.6238H110.517ZM116.893 36.8427C117.471 37.4334 118.173 37.7287 119.001 37.7287C119.828 37.7287 120.525 37.4334 121.09 36.8427C121.668 36.2389 121.956 35.4053 121.956 34.3421C121.956 33.292 121.668 32.4716 121.09 31.8809C120.525 31.2771 119.828 30.9752 119.001 30.9752C118.173 30.9752 117.471 31.2771 116.893 31.8809C116.328 32.4716 116.045 33.292 116.045 34.3421C116.045 35.4053 116.328 36.2389 116.893 36.8427ZM115.513 30.7586C116.433 29.8004 117.595 29.3213 119.001 29.3213C120.406 29.3213 121.562 29.8004 122.469 30.7586C123.388 31.7037 123.848 32.8982 123.848 34.3421C123.848 35.7991 123.395 37.0068 122.488 37.965C121.582 38.9101 120.42 39.3826 119.001 39.3826C117.582 39.3826 116.42 38.9101 115.513 37.965C114.607 37.0068 114.154 35.7991 114.154 34.3421C114.154 32.8982 114.607 31.7037 115.513 30.7586ZM131.479 29.5182V31.4871C131.203 31.4477 130.934 31.428 130.671 31.428C128.937 31.428 128.07 32.3994 128.07 34.3421V39.0873H126.218V29.6166H128.031V31.2705C128.609 30.0629 129.555 29.4591 130.868 29.4591C131.078 29.4591 131.282 29.4788 131.479 29.5182ZM134.559 33.3773H139.741C139.714 32.6685 139.478 32.0909 139.031 31.6446C138.585 31.1852 137.954 30.9555 137.14 30.9555C136.404 30.9555 135.8 31.1983 135.327 31.684C134.854 32.1566 134.598 32.721 134.559 33.3773ZM140.017 35.8385L141.613 36.3898C141.337 37.2693 140.824 37.9912 140.076 38.5557C139.327 39.107 138.42 39.3826 137.356 39.3826C136.03 39.3826 134.9 38.9298 133.967 38.0241C133.048 37.1052 132.588 35.8713 132.588 34.3224C132.588 32.8785 133.035 31.684 133.928 30.7389C134.821 29.7938 135.885 29.3213 137.12 29.3213C138.552 29.3213 139.668 29.7741 140.47 30.6798C141.271 31.5724 141.672 32.7735 141.672 34.283C141.672 34.5193 141.659 34.7162 141.632 34.8737H134.499C134.513 35.7138 134.788 36.4029 135.327 36.9411C135.879 37.4793 136.555 37.7484 137.356 37.7484C138.709 37.7484 139.596 37.1118 140.017 35.8385Z" fill="white"/>
<path opacity="0.6" d="M54.6853 16.5603V13.1625H55.5185C56.3892 13.1625 57.1098 13.71 57.1098 14.8651C57.1098 16.0203 56.3817 16.5603 55.511 16.5603H54.6853ZM55.5485 17.5204C57.0648 17.5204 58.1832 16.5453 58.1832 14.8651C58.1832 13.185 57.0723 12.2024 55.556 12.2024H53.6494V17.5204H55.5485ZM60.7776 14.8576C60.7776 13.6575 61.6183 13.0874 62.4365 13.0874C63.2622 13.0874 64.1029 13.6575 64.1029 14.8576C64.1029 16.0578 63.2622 16.6278 62.4365 16.6278C61.6183 16.6278 60.7776 16.0578 60.7776 14.8576ZM59.7042 14.8651C59.7042 16.5753 60.9953 17.6329 62.4365 17.6329C63.8852 17.6329 65.1763 16.5753 65.1763 14.8651C65.1763 13.1475 63.8852 12.0898 62.4365 12.0898C60.9953 12.0898 59.7042 13.1475 59.7042 14.8651ZM71.8283 15.8777L70.6423 12.2024H69.5689L68.3905 15.8627L67.4146 12.2024H66.3187L67.7975 17.5204H68.8784L70.0944 13.7325L71.3104 17.5204H72.3763L73.8475 12.2024H72.7891L71.8283 15.8777ZM80.0277 17.5204V12.2024H78.9918V15.7202L76.7775 12.2024H75.4864V17.5204H76.5222V13.7475L78.9393 17.5204H80.0277ZM85.5869 17.5204V16.5303H83.2149V12.2024H82.179V17.5204H85.5869ZM87.8997 14.8576C87.8997 13.6575 88.7404 13.0874 89.5586 13.0874C90.3843 13.0874 91.225 13.6575 91.225 14.8576C91.225 16.0578 90.3843 16.6278 89.5586 16.6278C88.7404 16.6278 87.8997 16.0578 87.8997 14.8576ZM86.8263 14.8651C86.8263 16.5753 88.1174 17.6329 89.5586 17.6329C91.0073 17.6329 92.2984 16.5753 92.2984 14.8651C92.2984 13.1475 91.0073 12.0898 89.5586 12.0898C88.1174 12.0898 86.8263 13.1475 86.8263 14.8651ZM97.4887 17.5204H98.6146L96.5879 12.2024H95.3869L93.3452 17.5204H94.4412L94.884 16.3053H97.0458L97.4887 17.5204ZM95.9649 13.35L96.7005 15.3602H95.2293L95.9649 13.35ZM101.269 16.5603V13.1625H102.102C102.973 13.1625 103.694 13.71 103.694 14.8651C103.694 16.0203 102.965 16.5603 102.095 16.5603H101.269ZM102.132 17.5204C103.648 17.5204 104.767 16.5453 104.767 14.8651C104.767 13.185 103.656 12.2024 102.14 12.2024H100.233V17.5204H102.132ZM110.155 14.8576C110.155 13.6575 110.995 13.0874 111.813 13.0874C112.639 13.0874 113.48 13.6575 113.48 14.8576C113.48 16.0578 112.639 16.6278 111.813 16.6278C110.995 16.6278 110.155 16.0578 110.155 14.8576ZM109.081 14.8651C109.081 16.5753 110.372 17.6329 111.813 17.6329C113.262 17.6329 114.553 16.5753 114.553 14.8651C114.553 13.1475 113.262 12.0898 111.813 12.0898C110.372 12.0898 109.081 13.1475 109.081 14.8651ZM120.931 17.5204V12.2024H119.895V15.7202L117.68 12.2024H116.389V17.5204H117.425V13.7475L119.842 17.5204H120.931ZM129.794 13.185V12.2024H125.388V13.185H127.069V17.5204H128.112V13.185H129.794ZM135.86 17.5204V12.2024H134.816V14.3401H132.497V12.2024H131.461V17.5204H132.497V15.3152H134.816V17.5204H135.86ZM141.347 17.5204V16.5453H139.05V15.3152H141.129V14.3926H139.05V13.1775H141.347V12.2024H138.014V17.5204H141.347Z" fill="white"/>
<path d="M40.7271 33.4758C40.1178 34.8242 39.8269 35.426 39.0423 36.6173C37.9492 38.281 36.4069 40.3531 34.4957 40.3706C32.7981 40.3865 32.3618 39.2666 30.0571 39.2801C27.7525 39.2936 27.2722 40.3906 25.5744 40.3748C23.6633 40.3578 22.2031 38.4866 21.1088 36.8218C18.05 32.169 17.7304 26.7092 19.6169 23.8068C20.9575 21.7429 23.0734 20.5369 25.0619 20.5369C27.0868 20.5369 28.36 21.6462 30.0348 21.6462C31.6592 21.6462 32.6485 20.5352 34.9901 20.5352C36.76 20.5352 38.6353 21.498 39.9718 23.1616C35.5929 25.5589 36.3049 31.8051 40.7271 33.4758Z" fill="white"/>
<path d="M33.4592 17.6231C34.3101 16.5319 34.9551 14.9926 34.7206 13.418C33.3308 13.5129 31.7063 14.3966 30.7575 15.5481C29.8961 16.593 29.1847 18.1429 29.4615 19.6494C30.9775 19.697 32.5473 18.7915 33.4592 17.6231Z" fill="white"/>
</svg>
