<svg width="166" height="51" viewBox="0 0 166 51" fill="none" xmlns="http://www.w3.org/2000/svg">
<rect x="0.85083" y="0.363281" width="165.149" height="49.8718" rx="10" fill="black"/>
<path d="M65.2607 36.746H63.8113L63.6462 34.9132C63.3282 35.4875 62.8083 35.9824 62.0866 36.3978C61.365 36.8132 60.4965 37.021 59.4813 37.021C58.3682 37.021 57.3408 36.7705 56.3989 36.2695C55.4571 35.7563 54.6804 34.9743 54.0688 33.9235C53.4695 32.8727 53.1698 31.6447 53.1698 30.2396C53.1698 28.8344 53.4878 27.6065 54.1239 26.5557C54.7599 25.5049 55.555 24.729 56.509 24.228C57.4753 23.727 58.5089 23.4766 59.6097 23.4766C61.0041 23.4766 62.2151 23.837 63.2425 24.5579C64.2822 25.2666 64.9917 26.2135 65.3708 27.3988L63.7379 28.0952C63.4444 27.1544 62.9306 26.4274 62.1967 25.9142C61.4751 25.3888 60.6127 25.1261 59.6097 25.1261C58.3499 25.1261 57.2674 25.5721 56.3622 26.464C55.4571 27.356 55.0045 28.6145 55.0045 30.2396C55.0045 31.8769 55.4449 33.1476 56.3256 34.0518C57.2185 34.9438 58.2887 35.3898 59.5364 35.3898C60.2213 35.3898 60.8268 35.2798 61.3527 35.0599C61.8909 34.8399 62.3068 34.5528 62.6004 34.1984C62.9062 33.8319 63.1324 33.4653 63.2792 33.0988C63.4382 32.7322 63.53 32.3656 63.5544 31.9991H59.041V30.3862H65.2607V36.746ZM69.6577 34.6566C70.1959 35.2065 70.8502 35.4814 71.6208 35.4814C72.3914 35.4814 73.0397 35.2065 73.5657 34.6566C74.1038 34.0946 74.3729 33.3187 74.3729 32.329C74.3729 31.3515 74.1038 30.5878 73.5657 30.038C73.0397 29.4759 72.3914 29.1949 71.6208 29.1949C70.8502 29.1949 70.1959 29.4759 69.6577 30.038C69.1317 30.5878 68.8687 31.3515 68.8687 32.329C68.8687 33.3187 69.1317 34.0946 69.6577 34.6566ZM68.3733 28.9933C69.2296 28.1013 70.3121 27.6553 71.6208 27.6553C72.9296 27.6553 74.006 28.1013 74.85 28.9933C75.7062 29.873 76.1343 30.9849 76.1343 32.329C76.1343 33.6853 75.7123 34.8094 74.8683 35.7013C74.0243 36.5811 72.9418 37.021 71.6208 37.021C70.2998 37.021 69.2173 36.5811 68.3733 35.7013C67.5294 34.8094 67.1074 33.6853 67.1074 32.329C67.1074 30.9849 67.5294 29.873 68.3733 28.9933ZM80.1573 34.6566C80.6955 35.2065 81.3499 35.4814 82.1205 35.4814C82.891 35.4814 83.5393 35.2065 84.0653 34.6566C84.6035 34.0946 84.8726 33.3187 84.8726 32.329C84.8726 31.3515 84.6035 30.5878 84.0653 30.038C83.5393 29.4759 82.891 29.1949 82.1205 29.1949C81.3499 29.1949 80.6955 29.4759 80.1573 30.038C79.6313 30.5878 79.3683 31.3515 79.3683 32.329C79.3683 33.3187 79.6313 34.0946 80.1573 34.6566ZM78.873 28.9933C79.7292 28.1013 80.8117 27.6553 82.1205 27.6553C83.4292 27.6553 84.5056 28.1013 85.3496 28.9933C86.2058 29.873 86.6339 30.9849 86.6339 32.329C86.6339 33.6853 86.2119 34.8094 85.3679 35.7013C84.524 36.5811 83.4415 37.021 82.1205 37.021C80.7994 37.021 79.7169 36.5811 78.873 35.7013C78.029 34.8094 77.607 33.6853 77.607 32.329C77.607 30.9849 78.029 29.873 78.873 28.9933ZM88.1983 37.2226L89.868 36.8377C89.9291 37.4608 90.1799 37.974 90.6202 38.3772C91.0605 38.7927 91.611 39.0004 92.2715 39.0004C94.0695 39.0004 94.9685 38.0473 94.9685 36.1412V34.8766C94.7484 35.3042 94.3998 35.6525 93.9227 35.9213C93.4579 36.1901 92.9075 36.3245 92.2715 36.3245C91.0972 36.3245 90.1248 35.9274 89.3542 35.1332C88.5959 34.3267 88.2167 33.3004 88.2167 32.0541C88.2167 30.8444 88.5959 29.8303 89.3542 29.0116C90.1126 28.1807 91.085 27.7653 92.2715 27.7653C93.6169 27.7653 94.5221 28.2296 94.9869 29.1582V27.9303H96.6934V36.0862C96.6934 36.6727 96.6139 37.2165 96.4548 37.7174C96.3081 38.2306 96.0696 38.701 95.7391 39.1287C95.4089 39.5563 94.9441 39.8923 94.3447 40.1367C93.7576 40.3811 93.0665 40.5033 92.2715 40.5033C91.1828 40.5033 90.2594 40.1917 89.501 39.5685C88.7426 38.9576 88.3084 38.1756 88.1983 37.2226ZM92.5283 34.8766C93.2745 34.8766 93.8799 34.62 94.3447 34.1068C94.8095 33.5814 95.0419 32.8972 95.0419 32.0541C95.0419 31.211 94.8095 30.5328 94.3447 30.0197C93.8799 29.4943 93.2745 29.2316 92.5283 29.2316C91.77 29.2316 91.1523 29.4881 90.6752 30.0013C90.2104 30.5145 89.978 31.1988 89.978 32.0541C89.978 32.9216 90.2043 33.6119 90.6569 34.1251C91.1217 34.6261 91.7455 34.8766 92.5283 34.8766ZM101.172 36.746H99.4472V23.4766H101.172V36.746ZM105.225 31.4309H110.05C110.026 30.7711 109.806 30.2335 109.39 29.8181C108.974 29.3904 108.387 29.1766 107.628 29.1766C106.943 29.1766 106.381 29.4026 105.94 29.8547C105.5 30.2946 105.262 30.82 105.225 31.4309ZM110.307 33.7219L111.793 34.2351C111.536 35.0538 111.059 35.7258 110.362 36.2512C109.665 36.7644 108.821 37.021 107.83 37.021C106.595 37.021 105.543 36.5994 104.674 35.7563C103.818 34.901 103.39 33.7525 103.39 32.3107C103.39 30.9666 103.806 29.8547 104.638 28.975C105.47 28.0952 106.46 27.6553 107.61 27.6553C108.943 27.6553 109.983 28.0769 110.729 28.92C111.475 29.7508 111.848 30.8689 111.848 32.274C111.848 32.4939 111.836 32.6772 111.812 32.8238H105.17C105.182 33.6058 105.439 34.2473 105.94 34.7483C106.454 35.2492 107.084 35.4997 107.83 35.4997C109.09 35.4997 109.916 34.9071 110.307 33.7219ZM120.618 29.8181H123.224C123.994 29.8181 124.606 29.6226 125.058 29.2316C125.511 28.8283 125.737 28.2907 125.737 27.6187C125.737 26.9344 125.511 26.3907 125.058 25.9875C124.606 25.5721 123.994 25.3643 123.224 25.3643H120.618V29.8181ZM123.554 31.4309H120.618V36.746H118.82V23.7515H123.554C124.74 23.7515 125.707 24.118 126.453 24.8512C127.199 25.5843 127.572 26.5007 127.572 27.6004C127.572 28.7123 127.199 29.6287 126.453 30.3496C125.707 31.0705 124.74 31.4309 123.554 31.4309ZM131.13 36.746H129.405V23.4766H131.13V36.746ZM133.513 34.3817C133.513 33.6242 133.758 33.0193 134.247 32.5673C134.736 32.1029 135.385 31.8158 136.192 31.7058L138.577 31.3576C139.03 31.2965 139.256 31.0766 139.256 30.6978C139.256 30.2335 139.097 29.8547 138.779 29.5615C138.461 29.2682 137.984 29.1216 137.348 29.1216C136.761 29.1216 136.296 29.2865 135.953 29.6164C135.611 29.9341 135.409 30.3618 135.348 30.8994L133.697 30.5145C133.782 29.6714 134.168 28.9872 134.852 28.4618C135.537 27.9242 136.357 27.6553 137.311 27.6553C138.559 27.6553 139.482 27.9608 140.082 28.5717C140.681 29.1705 140.981 29.9402 140.981 30.8811V35.2981C140.981 35.8235 141.017 36.3062 141.091 36.746H139.403C139.341 36.3795 139.311 35.9824 139.311 35.5547C139.066 35.9457 138.705 36.2878 138.228 36.5811C137.764 36.8743 137.177 37.021 136.467 37.021C135.599 37.021 134.889 36.7644 134.339 36.2512C133.788 35.7258 133.513 35.1026 133.513 34.3817ZM136.706 35.573C137.476 35.573 138.094 35.3653 138.559 34.9499C139.023 34.5345 139.256 33.8746 139.256 32.9705V32.5673L136.559 32.9705C136.167 33.0316 135.855 33.1721 135.623 33.392C135.391 33.6119 135.274 33.9113 135.274 34.2901C135.274 34.6322 135.403 34.9316 135.66 35.1882C135.929 35.4447 136.277 35.573 136.706 35.573ZM145.691 40.43H143.801L146.002 35.7747L142.205 27.9303H144.186L146.938 34.0152L149.58 27.9303H151.433L145.691 40.43Z" fill="white"/>
<path opacity="0.6" d="M58.2714 16.6722V14.0958H55.7971V14.9337H57.3628C57.3069 15.2828 56.9504 15.8972 56.0348 15.8972C55.203 15.8972 54.4691 15.3177 54.4691 14.2006C54.4691 13.0276 55.2799 12.5179 56.0278 12.5179C56.8316 12.5179 57.244 13.0276 57.3698 13.4674L58.2924 13.1393C58.0477 12.3782 57.3278 11.6172 56.0278 11.6172C54.6858 11.6172 53.4906 12.6017 53.4906 14.2006C53.4906 15.7995 54.6299 16.777 55.9649 16.777C56.7128 16.777 57.202 16.4418 57.4257 16.1067L57.4886 16.6722H58.2714ZM63.6586 16.6722V15.7646H61.5198V14.6195H63.4559V13.7607H61.5198V12.6296H63.6586V11.7219H60.5552V16.6722H63.6586ZM69.6643 12.6366V11.7219H65.5615V12.6366H67.1271V16.6722H68.0986V12.6366H69.6643ZM75.6697 16.6722V11.7219H74.6912V16.6722H75.6697ZM81.7594 12.6366V11.7219H77.6566V12.6366H79.2222V16.6722H80.1938V12.6366H81.7594ZM87.4922 14.1936C87.4922 13.0764 88.275 12.5458 89.0369 12.5458C89.8057 12.5458 90.5886 13.0764 90.5886 14.1936C90.5886 15.3107 89.8057 15.8414 89.0369 15.8414C88.275 15.8414 87.4922 15.3107 87.4922 14.1936ZM86.4927 14.2006C86.4927 15.7925 87.6949 16.777 89.0369 16.777C90.3859 16.777 91.588 15.7925 91.588 14.2006C91.588 12.6017 90.3859 11.6172 89.0369 11.6172C87.6949 11.6172 86.4927 12.6017 86.4927 14.2006ZM97.9639 16.6722V11.7219H96.9993V14.9965L94.9371 11.7219H93.7349V16.6722H94.6994V13.1602L96.9504 16.6722H97.9639Z" fill="white"/>
<path d="M41.6066 23.6301L37.5332 21.2773L33.3629 25.4476L37.5329 29.6176L41.6205 27.257C42.2579 26.8698 42.6382 26.1933 42.6382 25.4476C42.6382 24.702 42.2576 24.0255 41.6066 23.6301Z" fill="#FFCE00"/>
<path d="M33.3629 25.4486L22.0039 14.0078C21.6088 14.4029 21.3689 14.939 21.3689 15.5316V35.3306C21.3689 35.9232 21.6088 36.4593 22.0039 36.8547L33.3629 25.4486Z" fill="url(#paint0_linear_901_2277)"/>
<path d="M33.3628 25.4472L37.533 21.2769L37.5397 21.2703L31.952 18.0532L24.5863 13.7241C23.923 13.3149 23.1187 13.3008 22.4413 13.6817C22.2861 13.7804 22.1448 13.8793 22.0038 14.0062L33.3628 25.4472Z" fill="#00F076"/>
<path d="M22.0039 36.8512C22.1449 36.9781 22.2862 37.077 22.4414 37.1756C22.7799 37.359 23.1329 37.4579 23.4856 37.4579C23.8665 37.4579 24.2334 37.3452 24.5722 37.1476L31.9518 32.8394L37.5395 29.6222L37.5328 29.6156L33.3629 25.4453L22.0039 36.8512Z" fill="#F63448"/>
<defs>
<linearGradient id="paint0_linear_901_2277" x1="16.2924" y1="31.1429" x2="27.7157" y2="19.7193" gradientUnits="userSpaceOnUse">
<stop stop-color="#00E2FF"/>
<stop offset="1" stop-color="#00C5FF"/>
</linearGradient>
</defs>
</svg>
