<svg width="23" height="10" viewBox="0 0 23 10" fill="none" xmlns="http://www.w3.org/2000/svg">
<path d="M13.2459 1.839L5.2491 9.69297C5.04882 9.88974 4.77928 10 4.49851 10C4.21774 10 3.9482 9.88974 3.74792 9.69297L0.320731 6.32737C0.220346 6.2288 0.140358 6.11142 0.0853341 5.98194C0.0303107 5.85246 0.0013293 5.71341 4.47192e-05 5.57273C-0.0025496 5.28861 0.107829 5.01509 0.306897 4.81235C0.405466 4.71197 0.522842 4.63198 0.652324 4.57696C0.781806 4.52193 0.920857 4.49295 1.06154 4.49167C1.34566 4.48907 1.61917 4.59945 1.82191 4.79852L4.4994 7.42781L11.7456 0.311046C11.9482 0.111977 12.2216 0.0015519 12.5056 0.00406253C12.7897 0.00657316 13.0611 0.121814 13.2601 0.324433C13.4592 0.527052 13.5696 0.800453 13.5671 1.08449C13.5646 1.36853 13.4494 1.63993 13.2468 1.839H13.2459ZM21.8272 0.321756C21.7286 0.221027 21.6111 0.140758 21.4814 0.0855511C21.3517 0.0303439 21.2123 0.00128545 21.0714 4.16921e-05C20.9304 -0.00120207 20.7906 0.0253935 20.6599 0.0783033C20.5293 0.131213 20.4104 0.209396 20.31 0.308369L13.0665 7.42781L12.3632 6.73702C12.1606 6.53795 11.8872 6.42753 11.6031 6.43004C11.3191 6.43255 11.0477 6.54779 10.8486 6.75041C10.6496 6.95303 10.5391 7.22643 10.5416 7.51047C10.5441 7.7945 10.6594 8.06591 10.862 8.26498L12.3159 9.69297C12.5162 9.88974 12.7857 10 13.0665 10C13.3472 10 13.6168 9.88974 13.8171 9.69297L21.8138 1.839C21.9142 1.74043 21.9941 1.62307 22.0491 1.49361C22.104 1.36415 22.133 1.22513 22.1342 1.08449C22.1355 0.943849 22.109 0.80434 22.0563 0.673929C22.0036 0.543519 21.9258 0.42476 21.8272 0.324433V0.321756Z" fill="#94F27F"/>
</svg>
