<svg width="50" height="50" viewBox="0 0 50 50" fill="none" xmlns="http://www.w3.org/2000/svg">
<rect width="50" height="50" rx="25" fill="#181B0E"/>
<path d="M35.7064 20.7079L25.7075 30.7067C25.6146 30.7997 25.5043 30.8735 25.383 30.9238C25.2616 30.9741 25.1315 31 25.0001 31C24.8687 31 24.7385 30.9741 24.6172 30.9238C24.4958 30.8735 24.3855 30.7997 24.2926 30.7067L14.2938 20.7079C14.1061 20.5202 14.0007 20.2658 14.0007 20.0004C14.0007 19.7351 14.1061 19.4806 14.2938 19.293C14.4814 19.1054 14.7358 19 15.0012 19C15.2665 19 15.521 19.1054 15.7086 19.293L25.0001 28.5857L34.2915 19.293C34.3844 19.2001 34.4947 19.1264 34.6161 19.0762C34.7375 19.0259 34.8676 19 34.9989 19C35.1303 19 35.2604 19.0259 35.3818 19.0762C35.5032 19.1264 35.6135 19.2001 35.7064 19.293C35.7993 19.3859 35.873 19.4962 35.9232 19.6176C35.9735 19.739 35.9994 19.8691 35.9994 20.0004C35.9994 20.1318 35.9735 20.2619 35.9232 20.3833C35.873 20.5047 35.7993 20.615 35.7064 20.7079Z" fill="#F4F7EA" stroke="#F4F7EA"/>
</svg>
