<svg width="135" height="124" viewBox="0 0 135 124" fill="none" xmlns="http://www.w3.org/2000/svg">
<path d="M111.063 108.242C84.8894 124.469 53.3844 121.683 30.5262 102.523L30.5019 102.551C21.3521 94.715 15.0597 87.3133 10.4576 78.5926C-1.58128 55.6882 0.045756 31.2288 2.43035 6.74416C2.61482 4.84656 3.54327 3.10798 4.93795 1.67813C5.72205 0.891876 6.66318 0.487666 7.73772 0.886075C8.81227 1.28448 9.26912 2.22226 9.21541 3.35172C9.18961 4.05591 9.09972 4.77751 9.00934 5.50296C8.97172 5.80502 8.934 6.10774 8.9008 6.41016C7.0951 21.7442 7.30512 37.0725 9.99277 52.259C15.2282 82.1178 40.4564 105.306 69.4131 107.584C82.9687 108.628 95.3974 105.063 107.51 99.5549C110.583 98.1683 113.713 96.8304 117.103 96.2601C117.136 96.255 117.168 96.2498 117.2 96.2446C118.316 96.0654 119.558 95.8657 120.347 96.9826C120.948 97.8455 120.551 98.6397 120.137 99.4666C120.071 99.5981 120.005 99.7304 119.942 99.864C118.037 103.789 114.579 106.066 111.063 108.242Z" fill="#181B0E"/>
<path d="M132.833 85.6739C132.838 85.6787 132.844 85.6835 132.85 85.6883L132.822 85.664C132.825 85.6673 132.829 85.6706 132.833 85.6739Z" fill="#181B0E"/>
<path d="M127.491 83.9048C129.382 84.0896 131.28 84.3778 132.833 85.6739C134.641 87.3558 135.1 89.5197 134.469 91.7575C133.956 93.5374 133.462 95.3235 132.969 97.1093C130.716 105.263 128.466 113.408 124.339 120.904C124.235 121.086 124.134 121.28 124.032 121.476C123.493 122.512 122.921 123.612 121.629 123.392C119.952 123.102 120.017 121.68 120.076 120.389C120.086 120.171 120.096 119.956 120.097 119.752C120.112 111.922 121.576 104.23 123.44 96.642L123.451 96.5938C124.917 90.677 124.924 90.6486 118.588 90.3994C117.563 90.338 116.541 90.3288 115.495 90.3473C113.733 90.3866 111.968 90.4295 110.201 90.4725C105.047 90.5977 99.8789 90.7233 94.7339 90.7602C92.5897 90.8009 90.3541 90.2717 90.2488 87.5821C90.1471 84.9446 92.1092 84.157 94.3784 84.0293C94.6845 84.0122 94.9906 83.995 95.2968 83.9779C106.024 83.3764 116.748 82.775 127.491 83.9048Z" fill="#181B0E"/>
</svg>
