<svg width="50" height="50" viewBox="0 0 50 50" fill="none" xmlns="http://www.w3.org/2000/svg">
<rect width="50" height="50" rx="25" transform="matrix(1 0 0 -1 0 50)" fill="#181B0E"/>
<path d="M35.7064 29.2921L25.7075 19.2933C25.6146 19.2003 25.5043 19.1265 25.383 19.0762C25.2616 19.0259 25.1315 19 25.0001 19C24.8687 19 24.7385 19.0259 24.6172 19.0762C24.4958 19.1265 24.3855 19.2003 24.2926 19.2933L14.2938 29.2921C14.1061 29.4798 14.0007 29.7342 14.0007 29.9996C14.0007 30.2649 14.1061 30.5194 14.2938 30.707C14.4814 30.8946 14.7358 31 15.0012 31C15.2665 31 15.521 30.8946 15.7086 30.707L25.0001 21.4143L34.2915 30.707C34.3844 30.7999 34.4947 30.8736 34.6161 30.9238C34.7375 30.9741 34.8676 31 34.9989 31C35.1303 31 35.2604 30.9741 35.3818 30.9238C35.5032 30.8736 35.6135 30.7999 35.7064 30.707C35.7993 30.6141 35.873 30.5038 35.9232 30.3824C35.9735 30.261 35.9994 30.1309 35.9994 29.9996C35.9994 29.8682 35.9735 29.7381 35.9232 29.6167C35.873 29.4953 35.7993 29.385 35.7064 29.2921Z" fill="#F4F7EA" stroke="#F4F7EA"/>
</svg>
