<svg width="22" height="23" viewBox="0 0 22 23" fill="none" xmlns="http://www.w3.org/2000/svg">
<path d="M21.1095 12.4428C21.3595 12.1928 21.5 11.8536 21.5 11.5C21.5 11.1464 21.3595 10.8072 21.1095 10.5572C20.8594 10.3071 20.5203 10.1667 20.1667 10.1667H12.3333V2.33333C12.3333 1.97971 12.1929 1.64057 11.9428 1.39052C11.6928 1.14048 11.3536 1 11 1C10.6464 1 10.3072 1.14048 10.0572 1.39052C9.80714 1.64057 9.66667 1.97971 9.66667 2.33333V10.1667H1.83333C1.47971 10.1667 1.14057 10.3071 0.890524 10.5572C0.640476 10.8072 0.5 11.1464 0.5 11.5C0.5 11.8536 0.640476 12.1928 0.890524 12.4428C1.14057 12.6929 1.47971 12.8333 1.83333 12.8333H9.66667V20.6667C9.66667 21.0203 9.80714 21.3594 10.0572 21.6095C10.3072 21.8595 10.6464 22 11 22C11.3536 22 11.6928 21.8595 11.9428 21.6095C12.1929 21.3594 12.3333 21.0203 12.3333 20.6667V12.8333H20.1667C20.5203 12.8333 20.8594 12.6929 21.1095 12.4428Z" fill="#242424" stroke="#242424"/>
</svg>
