<svg width="167" height="36" viewBox="0 0 167 36" fill="none" xmlns="http://www.w3.org/2000/svg">
<g clip-path="url(#clip0_1327_5043)">
<path d="M134.657 2.82031V33.1495H139.144V2.82031H134.657Z" fill="#242424"/>
<path fill-rule="evenodd" clip-rule="evenodd" d="M94.0863 33.6417C92.3156 33.6417 90.8365 33.2338 89.6488 32.4176C89.5187 32.3286 89.3926 32.2357 89.2695 32.1393V33.1522H85.3104V3.3125H89.8304V16.0957C90.9392 15.3905 92.2806 15.0378 93.8552 15.0378C95.5597 15.0378 97.0442 15.4404 98.3091 16.2454C99.5739 17.0504 100.553 18.1548 101.245 19.5583C101.949 20.9509 102.301 22.5447 102.301 24.3396C102.301 26.1022 101.954 27.6851 101.262 29.0889C100.58 30.4921 99.623 31.6019 98.3916 32.4176C97.1599 33.2338 95.7249 33.6417 94.0863 33.6417ZM89.6653 21.533C89.4012 22.3379 89.2695 23.2734 89.2695 24.3396C89.2695 25.4058 89.4012 26.3417 89.6653 27.1466C89.9291 27.9518 90.3583 28.5771 90.9518 29.0236C91.5567 29.4695 92.3596 29.6923 93.3603 29.6923C94.3279 29.6923 95.12 29.4532 95.7359 28.9745C96.3518 28.4959 96.808 27.8539 97.1048 27.0486C97.4019 26.2328 97.5501 25.33 97.5501 24.3396C97.5501 23.3604 97.3964 22.4685 97.0883 21.6636C96.7805 20.8474 96.3022 20.2001 95.6533 19.7214C95.0154 19.2319 94.1959 18.9871 93.1952 18.9871C92.2605 18.9871 91.5016 19.2102 90.9191 19.6561C90.3473 20.1022 89.9291 20.7277 89.6653 21.533Z" fill="#242424"/>
<path d="M78.2166 22.7387V33.1506H82.7031V21.5641C82.7031 19.6383 82.1808 18.0826 81.1361 16.8966C80.1024 15.6999 78.5684 15.1016 76.5341 15.1016C75.3462 15.1016 74.2631 15.3626 73.2843 15.8848C72.3883 16.3583 71.6571 17.009 71.0912 17.837C70.669 17.0856 70.0858 16.4675 69.3418 15.9828C68.4512 15.3953 67.3075 15.1016 65.9109 15.1016C64.6901 15.1016 63.585 15.368 62.5952 15.9012C61.8473 16.3085 61.2149 16.8271 60.6981 17.4568V15.5258H56.7394V33.1506H61.2589V22.4778C61.2589 21.4661 61.5396 20.6446 62.1005 20.0136C62.6723 19.3717 63.4253 19.0508 64.36 19.0508C65.3391 19.0508 66.1031 19.3772 66.6531 20.03C67.2139 20.6719 67.4946 21.575 67.4946 22.7387V33.1506H71.9811V22.4778C71.9811 21.8033 72.1076 21.2103 72.3607 20.699C72.6245 20.1768 72.9873 19.7743 73.4495 19.4914C73.9112 19.1977 74.4557 19.0508 75.0826 19.0508C76.0612 19.0508 76.8252 19.3772 77.3751 20.03C77.936 20.6719 78.2166 21.575 78.2166 22.7387Z" fill="#242424"/>
<path d="M40.6641 32.9724C41.5438 33.4402 42.682 33.6742 44.0788 33.6742C45.8271 33.6742 47.2735 33.2991 48.4172 32.5482C48.9599 32.1956 49.4383 31.7907 49.8522 31.3346V33.1521H53.8113V15.5273H49.2913V24.4702C49.2913 25.558 49.1648 26.4392 48.9121 27.1139C48.6699 27.7776 48.3567 28.2835 47.9714 28.6315C47.5867 28.969 47.1744 29.1972 46.7347 29.317C46.2948 29.4368 45.8822 29.4967 45.4974 29.4967C44.5406 29.4967 43.7982 29.2844 43.2703 28.8602C42.7535 28.4358 42.3798 27.9083 42.1486 27.2772C41.9179 26.646 41.7804 26.0204 41.7363 25.4003C41.6923 24.7696 41.6703 24.2528 41.6703 23.8499V15.5273H37.1177V25.4166C37.1177 25.7105 37.1393 26.1783 37.1834 26.8203C37.2274 27.4622 37.3539 28.1746 37.563 28.9581C37.7717 29.7304 38.1185 30.4757 38.6022 31.1939C39.0971 31.9117 39.7844 32.5047 40.6641 32.9724Z" fill="#242424"/>
<path d="M104.281 15.5274V33.1523H108.8V24.1441C108.8 23.4695 108.894 22.8656 109.081 22.3326C109.268 21.7885 109.543 21.3207 109.906 20.9292C110.269 20.5266 110.714 20.2056 111.242 19.9663C111.77 19.7161 112.358 19.5692 113.007 19.5257C113.666 19.4713 114.244 19.5202 114.739 19.6726V15.5274C114.2 15.4622 113.661 15.4513 113.122 15.4949C112.583 15.5274 112.061 15.62 111.555 15.7722C111.049 15.9137 110.582 16.115 110.153 16.3761C109.592 16.7025 109.119 17.1159 108.735 17.6163C108.552 17.8532 108.387 18.1024 108.239 18.3636V15.5274H104.281Z" fill="#242424"/>
<path fill-rule="evenodd" clip-rule="evenodd" d="M124.186 33.639C122.361 33.639 120.75 33.253 119.353 32.4804C117.967 31.6973 116.878 30.6257 116.087 29.2654C115.306 27.8949 114.916 26.3282 114.916 24.5656C114.916 22.6401 115.3 20.9646 116.07 19.5392C116.84 18.1141 117.901 17.0097 119.254 16.2265C120.606 15.4322 122.163 15.0352 123.922 15.0352C125.792 15.0352 127.381 15.4704 128.69 16.3407C129.998 17.211 130.966 18.435 131.592 20.0125C132.22 21.5902 132.44 23.445 132.253 25.5774H119.743C119.883 26.6354 120.215 27.4947 120.739 28.1557C121.464 29.0482 122.526 29.4941 123.922 29.4941C124.802 29.4941 125.555 29.3036 126.182 28.9229C126.809 28.5423 127.287 27.9928 127.617 27.2746L132.104 28.5476C131.434 30.1578 130.372 31.4088 128.92 32.3007C127.48 33.1931 125.902 33.639 124.186 33.639ZM126.941 20.0778C127.324 20.5932 127.582 21.3277 127.713 22.2808H119.861C120.036 21.4669 120.329 20.7978 120.739 20.2737C121.464 19.3488 122.592 18.8865 124.12 18.8865C125.429 18.8865 126.369 19.2837 126.941 20.0778Z" fill="#242424"/>
<path d="M142.769 33.1495V2.82031H147.257V33.1495H142.769Z" fill="#242424"/>
<path fill-rule="evenodd" clip-rule="evenodd" d="M152.251 32.921C153.143 33.3996 154.226 33.639 155.501 33.639C157.04 33.639 158.31 33.3778 159.312 32.8555C160.109 32.4353 160.862 31.8124 161.572 30.9861V33.1495H165.498V22.3787C165.498 21.5738 165.464 20.8448 165.398 20.1921C165.332 19.5392 165.124 18.8865 164.772 18.2337C164.144 17.0588 163.221 16.2319 162.001 15.7532C160.779 15.2745 159.383 15.0352 157.81 15.0352C155.666 15.0352 153.972 15.4921 152.729 16.406C151.487 17.3198 150.641 18.5057 150.19 19.9636L154.248 21.2363C154.533 20.4314 155.034 19.8711 155.748 19.5556C156.463 19.2401 157.15 19.0824 157.81 19.0824C158.998 19.0824 159.844 19.3272 160.35 19.8167C160.748 20.2012 160.989 20.7565 161.075 21.4833C160.314 21.5972 159.595 21.7053 158.916 21.8075C157.761 21.9709 156.727 22.1451 155.815 22.3298C154.902 22.5148 154.116 22.7271 153.455 22.9663C152.499 23.3143 151.734 23.7498 151.163 24.272C150.601 24.7833 150.195 25.3759 149.942 26.0505C149.689 26.7252 149.562 27.4705 149.562 28.2864C149.562 29.2654 149.788 30.1629 150.239 30.9791C150.701 31.7839 151.372 32.4313 152.251 32.921ZM158.536 29.7223C157.975 30.0054 157.282 30.1469 156.458 30.1469C155.94 30.1469 155.495 30.0707 155.121 29.9183C154.748 29.7658 154.456 29.5485 154.248 29.2654C154.049 28.9718 153.951 28.6234 153.951 28.221C153.951 27.9275 154.011 27.6607 154.132 27.4216C154.263 27.182 154.461 26.9648 154.725 26.7687C155.001 26.5619 155.358 26.3718 155.798 26.1975C156.182 26.056 156.628 25.9253 157.134 25.806C157.64 25.6862 158.305 25.5555 159.13 25.414C159.66 25.3164 160.294 25.2048 161.033 25.0801C161.022 25.3903 161.005 25.741 160.978 26.1322C160.944 26.7633 160.812 27.3182 160.582 27.7968C160.46 28.0469 160.23 28.3571 159.889 28.7269C159.559 29.0967 159.108 29.4287 158.536 29.7223Z" fill="#242424"/>
<path fill-rule="evenodd" clip-rule="evenodd" d="M12.3555 15.6526H0.171265V20.9019C0.171265 28.7401 6.59415 35.0944 14.5171 35.0944C22.4402 35.0944 28.8633 28.7401 28.8633 20.9019V15.6526H16.2859V7.29259C16.2859 3.964 13.5583 1.26562 10.1938 1.26562C6.82919 1.26562 4.10166 3.964 4.10166 7.29259H8.03204C8.03204 6.11146 8.99991 5.15399 10.1938 5.15399C11.3877 5.15399 12.3555 6.11146 12.3555 7.29259V15.6526ZM12.3555 19.5409V26.9288H16.2859V19.5409H24.9329V20.9019C24.9329 26.5929 20.2695 31.2061 14.5171 31.2061C8.76486 31.2061 4.10166 26.5929 4.10166 20.9019V19.5409H12.3555Z" fill="#242424"/>
</g>
<defs>
<clipPath id="clip0_1327_5043">
<rect width="166.457" height="35.8523" rx="10" fill="white"/>
</clipPath>
</defs>
</svg>
