<svg width="18" height="18" viewBox="0 0 18 18" fill="none" xmlns="http://www.w3.org/2000/svg">
<path d="M17.3923 0.421766C17.6624 0.691818 17.8141 1.05809 17.8141 1.44C17.8141 1.82191 17.6624 2.18818 17.3923 2.45823L10.9435 8.90705L17.3923 15.3559C17.6624 15.6259 17.8141 15.9922 17.8141 16.3741C17.8141 16.756 17.6624 17.1223 17.3923 17.3923C17.1223 17.6624 16.756 17.8141 16.3741 17.8141C15.9922 17.8141 15.6259 17.6624 15.3559 17.3923L8.90705 10.9435L2.45823 17.3923C2.18818 17.6624 1.82191 17.8141 1.44 17.8141C1.05809 17.8141 0.691819 17.6624 0.421766 17.3923C0.151714 17.1223 0 16.756 0 16.3741C0 15.9922 0.151714 15.6259 0.421766 15.3559L6.87058 8.90705L0.421766 2.45823C0.151714 2.18818 0 1.82191 0 1.44C0 1.05809 0.151714 0.691818 0.421766 0.421766C0.691819 0.151713 1.05809 1.61844e-07 1.44 1.61844e-07C1.82191 1.61844e-07 2.18818 0.151713 2.45823 0.421766L8.90705 6.87058L15.3559 0.421766C15.6259 0.151713 15.9922 0 16.3741 0C16.756 0 17.1223 0.151713 17.3923 0.421766Z" fill="#FCF0E3"/>
</svg>
