<svg width="25" height="25" viewBox="0 0 25 25" fill="none" xmlns="http://www.w3.org/2000/svg">
<path d="M24.907 12.9062C24.907 13.2882 24.7553 13.6544 24.4852 13.9245C24.2152 14.1945 23.8489 14.3462 23.467 14.3462H14.347V23.4662C14.347 23.8482 14.1953 24.2144 13.9252 24.4845C13.6552 24.7545 13.2889 24.9062 12.907 24.9062C12.5251 24.9062 12.1588 24.7545 11.8887 24.4845C11.6187 24.2144 11.467 23.8482 11.467 23.4662V14.3462L2.34698 14.3462C1.96507 14.3462 1.5988 14.1945 1.32875 13.9245C1.0587 13.6544 0.906982 13.2882 0.906982 12.9062C0.906982 12.5243 1.0587 12.1581 1.32875 11.888C1.5988 11.618 1.96507 11.4662 2.34698 11.4662H11.467V2.34625C11.467 1.96434 11.6187 1.59807 11.8887 1.32802C12.1588 1.05796 12.5251 0.90625 12.907 0.90625C13.2889 0.90625 13.6552 1.05796 13.9252 1.32802C14.1953 1.59807 14.347 1.96434 14.347 2.34625V11.4662H23.467C23.8489 11.4662 24.2152 11.618 24.4852 11.888C24.7553 12.1581 24.907 12.5243 24.907 12.9062Z" fill="#FCF0E3"/>
</svg>
