<svg width="182" height="205" viewBox="0 0 182 205" fill="none" xmlns="http://www.w3.org/2000/svg">
<path d="M3.98501 183.791C1.51346 181.351 -0.295801 179.596 -2.0762 177.804C-3.07066 176.815 -4.33371 175.791 -3.61037 174.21C-2.77166 172.384 -0.982853 172.896 0.507269 173.013C6.16065 173.492 11.5296 175.15 16.791 177.217C24.6722 180.319 32.1013 184.287 39.4343 188.477C46.5323 192.538 48.2856 191.677 49.471 183.518C50.403 177.196 49.6057 170.884 49.2269 164.568C48.9194 159.456 48.3815 154.161 53.5306 150.896C58.5565 147.71 63.3395 149.931 67.8716 152.368C75.1966 156.293 81.7246 161.445 88.5536 166.143C91.1005 167.892 93.6499 169.662 96.3629 171.127C99.8146 172.981 101.524 172.125 102.439 168.262C103.598 163.347 103.015 158.432 101.828 153.63C100.387 147.755 98.5076 142.007 97.0224 136.137C94.6052 126.637 99.4856 120.823 109.301 121.941C116.268 122.733 123.137 124.396 130.076 125.522C132.704 125.95 135.389 126.206 138.057 126.21C144.879 126.214 149.134 122.257 149.617 115.38C150.2 107.158 147.049 99.9238 143.017 93.0767C140.528 88.842 137.605 84.8553 135.012 80.6765C129.824 72.2971 131.206 65.2844 139.117 59.3674C144.356 55.4414 150.402 53.0875 156.366 50.5887C159.605 49.2273 162.886 47.9383 165.852 46.0239C169.138 43.9078 170.16 41.08 168.86 37.3158C166.665 30.9205 162.545 25.7256 158.573 20.4698C154.171 14.6348 149.526 8.98187 145.102 3.14934C142.704 -0.004596 140.8 -3.45742 140.251 -7.49467C139.794 -10.826 140.797 -13.6296 143.398 -15.7558C144.587 -16.729 145.98 -16.8879 147.322 -16.0381C148.774 -15.1016 148.942 -13.8203 148.022 -12.4149C146.173 -9.59198 148.003 -7.46415 149.59 -5.62833C153.538 -1.06411 157.759 3.28159 161.837 7.73176C167.929 14.3769 173.838 21.1531 178.116 29.1845C184.677 41.485 181.924 51.2662 169.548 57.7476C163.465 60.9432 156.887 63.1704 150.692 66.1584C142.575 70.0711 142.437 70.8914 147.496 78.1393C154.15 87.6849 159.896 97.5766 161.114 109.506C162.979 127.786 152.24 139.052 133.977 137.884C127.216 137.454 120.598 136.148 113.939 134.968C109.394 134.163 109.233 134.292 110.675 138.822C113.353 147.323 115.446 155.912 114.962 164.905C114.733 169.175 113.823 173.279 111.391 176.885C106.679 183.881 100.759 185.801 92.7183 182.751C84.7478 179.737 78.2284 174.176 71.0232 169.851C69.3322 168.843 67.706 167.728 65.9886 166.778C65.0826 166.275 64.1765 164.901 63.0641 165.778C62.1231 166.513 62.623 167.9 62.7035 168.993C63.184 175.33 63.1661 181.647 62.0526 187.924C59.3996 202.83 48.328 208.666 34.9744 201.648C24.1763 195.97 13.8013 189.461 4.0019 183.746L3.98501 183.791Z" fill="#181B0E"/>
</svg>
